<svg xmlns="http://www.w3.org/2000/svg" viewBox="0 0 187.16 187.16"><defs><style>.cls-1{fill:#fffbd7;}.cls-2{fill:#1c3377;}.cls-3{fill:#223c92;}.cls-4{fill:#00c8f6;}.cls-5{fill:#00d3cf;}</style></defs><title>icon3</title><g id="Слой_2" data-name="Слой 2"><g id="Слой_1-2" data-name="Слой 1"><circle id="_Контур_" data-name="&lt;Контур&gt;" class="cls-1" cx="93.58" cy="93.58" r="93.58"/><path id="_Контур_2" data-name="&lt;Контур&gt;" class="cls-1" d="M35,122c11.34-4.16,16.73,3.67,14.91,12.38,0,0,10-14.9,27.22-12.93s27,14.53,26.13,21.52c7.21-6.34,13.11-18.8,44.59-11.37.44-4.81.11-10.15,7.82-14.28s16.88,8,16.88,8-3.44-25.82,14.23-23.24c.26-2.83.4-5.7.4-8.6A93.58,93.58,0,1,0,1,107C10.34,103.21,27.1,100.18,35,122Z"/><g id="_Группа_" data-name="&lt;Группа&gt;"><path id="_Контур_3" data-name="&lt;Контур&gt;" class="cls-2" d="M77.34,59.89s4.57-9,12.73-7.42c.35,10.25.05,75.15.05,75.15H74.63Z"/><polyline id="_Контур_4" data-name="&lt;Контур&gt;" class="cls-3" points="47.75 127.61 47.75 55.61 62.75 55.61 62.75 110.61 65.75 110.61 65.75 42.61 81.75 42.61 81.75 127.61 47.75 127.61"/><path id="_Контур_5" data-name="&lt;Контур&gt;" class="cls-3" d="M97.75,125.61V15.42s12.59-.53,16.34,14.48,8.52,95.71,8.52,95.71Z"/><polygon id="_Контур_6" data-name="&lt;Контур&gt;" class="cls-3" points="120.75 32.42 120.75 125.61 143.75 125.61 143.75 89.42 139.75 84.92 139.75 58.42 131.75 49.39 131.75 41.42 120.75 32.42"/><polygon id="_Контур_7" data-name="&lt;Контур&gt;" class="cls-4" points="26.75 122.67 26.75 90.61 56.75 90.61 56.75 114.61 80.75 114.61 80.75 79.61 111.75 79.61 111.75 119.61 117.75 119.61 117.75 97.59 138.75 106.46 138.75 120.61 142.75 120.61 142.75 96.61 165.75 96.61 165.75 144.61 27.71 144.61 26.75 122.67"/></g><path id="_Контур_8" data-name="&lt;Контур&gt;" class="cls-5" d="M93.58,187.16a93.59,93.59,0,0,0,93.18-85c-17.67-2.58-14.23,23.24-14.23,23.24s-9.18-12.18-16.88-8-7.38,9.47-7.82,14.28c-31.48-7.43-37.38,5-44.59,11.37.82-7-8.86-19.56-26.13-21.52s-27.22,12.93-27.22,12.93C51.71,125.72,46.32,117.88,35,122c-7.88-21.86-24.65-18.83-34-15A93.6,93.6,0,0,0,93.58,187.16Z"/></g></g></svg>