<svg xmlns="http://www.w3.org/2000/svg" viewBox="0 0 187.16 187.16"><defs><style>.cls-1{fill:#ffb8bb;}.cls-2{fill:#ffefae;}.cls-3{fill:#ff5365;}.cls-4,.cls-5,.cls-7,.cls-9{fill:none;}.cls-4,.cls-5{stroke:#223c92;stroke-miterlimit:10;}.cls-4,.cls-7{stroke-width:5.39px;}.cls-5{stroke-width:4.72px;}.cls-6{fill:#223c92;}.cls-7,.cls-9{stroke:#00c8f6;stroke-linecap:round;stroke-linejoin:round;}.cls-8{fill:#ffdee4;}.cls-9{stroke-width:5px;}</style></defs><title>icon1</title><g id="Слой_2" data-name="Слой 2"><g id="Слой_1-2" data-name="Слой 1"><circle id="_Контур_" data-name="&lt;Контур&gt;" class="cls-1" cx="93.58" cy="93.58" r="93.58"/><g id="_Группа_" data-name="&lt;Группа&gt;"><path id="_Контур_2" data-name="&lt;Контур&gt;" class="cls-2" d="M115.75,145.49s9.28,3.26,10.72,4.37,2.39,4.07-.92,4.55c-3.59.52-17.67-1.36-17.67-1.36s-2.63-2.6,0-7.56S115.75,145.49,115.75,145.49Z"/><polygon id="_Контур_3" data-name="&lt;Контур&gt;" class="cls-3" points="110.3 112.62 116.7 145.57 105.5 148.5 97.69 128.44 98.94 115.05 110.3 112.62"/><ellipse id="_Контур_4" data-name="&lt;Контур&gt;" class="cls-4" cx="98.94" cy="148.59" rx="7.3" ry="14.6"/><ellipse id="_Контур_5" data-name="&lt;Контур&gt;" class="cls-5" cx="59.99" cy="134.98" rx="6.95" ry="13.9"/><polygon id="_Контур_6" data-name="&lt;Контур&gt;" class="cls-6" points="106.23 61.13 109.38 70.73 106.58 72.35 102 70.62 103.71 67.93 106.23 61.13"/><polyline id="_Контур_7" data-name="&lt;Контур&gt;" class="cls-7" points="61.53 135.37 88.12 137.09 98.48 122.42"/><path id="_Контур_8" data-name="&lt;Контур&gt;" class="cls-2" d="M68,148.65v2.5a3.85,3.85,0,0,0,2.3,3.52l10.93,4.83a2.89,2.89,0,0,0,2.07.1h0a2.89,2.89,0,0,0,2-2.74h0a2.89,2.89,0,0,0-.94-2.13l-5.83-5.34Z"/><ellipse id="_Контур_9" data-name="&lt;Контур&gt;" class="cls-8" cx="92.18" cy="63.02" rx="14.4" ry="15.73"/><path id="_Контур_10" data-name="&lt;Контур&gt;" class="cls-8" d="M105.92,78.48l4.73,7.34,18.51-19.48,4.6-1a3.61,3.61,0,0,0,2.86-3.85l-.3-3.31a2.25,2.25,0,0,0-1.6-2l-4-1.17a2.73,2.73,0,0,0-3.14,1.26l-3.66,6.36Z"/><polygon id="_Контур_11" data-name="&lt;Контур&gt;" class="cls-3" points="75.05 109.04 67.94 148.6 80.81 150.25 92.28 127.4 92.28 127.4 96.75 121.33 96.75 113.62 75.05 109.04"/><path id="_Контур_12" data-name="&lt;Контур&gt;" class="cls-8" d="M81.58,81.16,74.7,88,58.89,63.73l-6-2.57a3.48,3.48,0,0,1-2-4.27l1.32-4.14a3,3,0,0,1,3.64-2L60.18,52a3,3,0,0,1,2.12,2.15l1.6,6.13Z"/><path id="_Контур_13" data-name="&lt;Контур&gt;" class="cls-2" d="M92.75,79.81l-12.86-2-8.41,11.3,5,4L72.6,109c15.76,11.22,39.33,3.72,39.33,3.72l-3.18-19.6,5.75-2.43-8-12.87L92.75,80.56Z"/><g id="_Группа_2" data-name="&lt;Группа&gt;"><line id="_Контур_14" data-name="&lt;Контур&gt;" class="cls-9" x1="99.25" y1="145.61" x2="99.25" y2="109.61"/><line id="_Контур_15" data-name="&lt;Контур&gt;" class="cls-9" x1="83.75" y1="106.11" x2="113.75" y2="106.11"/></g><polygon id="_Контур_16" data-name="&lt;Контур&gt;" class="cls-8" points="88.2 76.44 87.31 79.95 96.12 86.8 98.48 80.12 96.35 74.32 88.2 76.44"/><path id="_Контур_17" data-name="&lt;Контур&gt;" class="cls-3" d="M78.12,69.74s9.46-19.23,20.07-18.2c8.09.78,8.39,11.15,8.39,11.15a13.44,13.44,0,0,0,.73-15.39c-4.77-8.19-14.67-9.28-19.94-7S68.38,50.6,78.12,69.74Z"/><polygon id="_Контур_18" data-name="&lt;Контур&gt;" class="cls-6" points="83.89 57.84 87.37 71.6 84.62 74.32 78.12 69.74 80.01 66.34 83.89 70.73 81.58 61.13 83.89 57.84"/><path id="_Контур_19" data-name="&lt;Контур&gt;" class="cls-2" d="M133,76.95"/><path id="_Контур_20" data-name="&lt;Контур&gt;" class="cls-2" d="M75.11,157.82"/></g></g></g></svg>