<svg xmlns="http://www.w3.org/2000/svg" viewBox="0 0 187.28 187.28"><defs><style>.cls-1{fill:#5fdde0;}.cls-2{fill:#00c8f6;}.cls-3{fill:#ff5365;}.cls-4{fill:#d63a51;}.cls-5{fill:#ffb8bb;}.cls-6{fill:#223c92;}.cls-7{fill:#d82540;}</style></defs><title>icon4</title><g id="Слой_2" data-name="Слой 2"><g id="Слой_1-2" data-name="Слой 1"><path id="_Контур_" data-name="&lt;Контур&gt;" class="cls-1" d="M187.13,98.54c.1-1,.15-3.3.15-5.09A93.64,93.64,0,0,0,0,93.64c0,25.62,10.87,48.9,26.87,65.8v-.71H80.75l7.85-23.35,45.27-6.84v50.19h-.06l8.11-72.3Z"/><path id="_Контур_2" data-name="&lt;Контур&gt;" class="cls-2" d="M133.75,107.16v21.38H87.27a6.52,6.52,0,0,0-6.52,6.52v23.48h-54v.9a94.15,94.15,0,0,0,54,26.91,88.32,88.32,0,0,0,13,.93,91.76,91.76,0,0,0,40-9h0a93.33,93.33,0,0,0,53.37-79.69H142.37A8.62,8.62,0,0,0,133.75,107.16Z"/><circle id="_Контур_3" data-name="&lt;Контур&gt;" class="cls-3" cx="109.55" cy="125.29" r="2.94"/><circle id="_Контур_4" data-name="&lt;Контур&gt;" class="cls-3" cx="101.78" cy="125.29" r="2.94"/><circle id="_Контур_5" data-name="&lt;Контур&gt;" class="cls-3" cx="93.97" cy="125.29" r="2.94"/><path id="_Контур_6" data-name="&lt;Контур&gt;" class="cls-3" d="M83.36,123.85c0,1.62,1.32,4.38,2.94,4.38a2.94,2.94,0,1,0,0-5.88C84.67,122.35,83.36,122.23,83.36,123.85Z"/><path id="_Контур_7" data-name="&lt;Контур&gt;" class="cls-3" d="M86.56,106.92s-2.33,11.75-1.26,12.93,17.24,4,22.48,2a2.55,2.55,0,0,0,1.54-1.48,2.41,2.41,0,0,0-1.52-3.15c-1.56-.38-12.35-2.44-12.35-2.44l1.94-6.92"/><polygon id="_Контур_8" data-name="&lt;Контур&gt;" class="cls-4" points="99.67 115.39 95.45 111.7 92.13 115.91 94.53 117.82 99.67 115.39"/><path id="_Контур_9" data-name="&lt;Контур&gt;" class="cls-4" d="M105.18,122.26c2.18.82,4.42,1.69,5.34,2a.69.69,0,0,1,.44.65h0a.7.7,0,0,1-.7.7l-29.53-1.43s-2.53-3.38,4.49-4.37C85.23,119.85,102.34,121.19,105.18,122.26Z"/><circle id="_Контур_10" data-name="&lt;Контур&gt;" class="cls-3" cx="25.3" cy="106.46" r="2.94" transform="matrix(0.07, -1, 1, 0.07, -82.68, 124.19)"/><circle id="_Контур_11" data-name="&lt;Контур&gt;" class="cls-3" cx="25.85" cy="98.71" r="2.94" transform="translate(-74.43 117.53) rotate(-85.96)"/><circle id="_Контур_12" data-name="&lt;Контур&gt;" class="cls-3" cx="26.4" cy="90.91" r="2.94" transform="translate(-66.15 110.84) rotate(-85.96)"/><circle id="_Контур_13" data-name="&lt;Контур&gt;" class="cls-3" cx="26.94" cy="83.27" r="2.94" transform="translate(-58.02 104.27) rotate(-85.96)"/><path id="_Контур_14" data-name="&lt;Контур&gt;" class="cls-3" d="M44.53,84.1S32.25,81.56,31,82.55s-3.77,17-2.17,22.38a2.55,2.55,0,0,0,1.37,1.64,2.41,2.41,0,0,0,3.25-1.29c.49-1.53,3.31-12.14,3.31-12.14l6,2.42"/><polygon id="_Контур_15" data-name="&lt;Контур&gt;" class="cls-4" points="35.87 97.3 39.85 93.35 35.89 89.74 33.81 92 35.87 97.3"/><path id="_Контур_16" data-name="&lt;Контур&gt;" class="cls-4" d="M28.63,102.31c-1,2.11-2,4.29-2.42,5.18a.69.69,0,0,1-.68.39h0a.7.7,0,0,1-.64-.74L27,77.69s3.55-2.29,4,4.79C31,82.48,29.89,99.56,28.63,102.31Z"/><path id="_Контур_17" data-name="&lt;Контур&gt;" class="cls-5" d="M111.67,27.33c0,6-4,10.94-9.77,10.94a10.27,10.27,0,0,1-7.7-3.51,11.17,11.17,0,0,1-2.79-7.43A10.72,10.72,0,0,1,101.9,16.39C107.7,16.39,111.67,21.29,111.67,27.33Z"/><polyline id="_Контур_18" data-name="&lt;Контур&gt;" class="cls-5" points="88.79 38.77 94.61 45.7 99.49 37.76 94.65 32.02"/><path id="_Контур_19" data-name="&lt;Контур&gt;" class="cls-5" d="M107.24,51.36l3.09,7.38,15.09-2.22,3.09-2a1.8,1.8,0,0,1,1.83-.07l1.36.73a1.8,1.8,0,0,1,.27,3l-2,1.62a2,2,0,0,1-1.28.45h-4s-14.17,6.33-16.4,5.28-6.76-9.8-6.76-9.8Z"/><path id="_Контур_20" data-name="&lt;Контур&gt;" class="cls-5" d="M76.37,40.72l-22,10-7.06,2.56L46,55.22a1.4,1.4,0,0,0,.65,2.05l3.24,1.32a1.87,1.87,0,0,0,1.68-.14l4.76-2.91L81.29,45.29Z"/><path id="_Контур_21" data-name="&lt;Контур&gt;" class="cls-6" d="M88.79,71.54s11.62,9.16,12.75,13.84S96.83,109,96.83,109l-10.06-1.64,1.78-17.77L73.9,80.43s-4.57,13.09-8.53,15.41-23.86-1.17-23.86-1.17l1.17-10.09,13.94-1,8.62-18.11,15-5.68Z"/><path id="_Контур_22" data-name="&lt;Контур&gt;" class="cls-3" d="M111.32,22.29,91.57,29.57a15.26,15.26,0,0,1-1.44-6.67,9.24,9.24,0,0,1,8.6-9.4C104.88,12.78,110.88,13.5,111.32,22.29Z"/><path id="_Контур_23" data-name="&lt;Контур&gt;" class="cls-2" d="M86,38.28c-3.66.05-9.68,1.18-12.21,2.72-.83,1.84,2.76,9.13,2.76,9.13l-16.83,18s21.18-3.66,30.31,4.76c4.84-6.51,7.41-16.08,7.41-16.08l2.54,4,8.15-8.18S106.8,46.89,96.54,41A20.44,20.44,0,0,0,86,38.28Z"/><path id="_Контур_24" data-name="&lt;Контур&gt;" class="cls-7" d="M118.86,21.73H111a16.11,16.11,0,0,0-2.42.67c-1.62.6-3.53,1.32-4,2.19,0,0,5.28-.85,8.81-1.85h5.48c.4,0,.72-.1.72-.5S119.25,21.73,118.86,21.73Z"/><ellipse id="_Контур_25" data-name="&lt;Контур&gt;" class="cls-5" cx="97.7" cy="27.68" rx="2.66" ry="3.08"/></g></g></svg>