<svg xmlns="http://www.w3.org/2000/svg" viewBox="0 0 187.91 187.91"><defs><style>.cls-1{fill:#fffbd7;}.cls-2{fill:#223c92;}.cls-3{fill:#ff5365;}.cls-4{fill:#ffefae;}</style></defs><title>icon5</title><g id="Слой_2" data-name="Слой 2"><g id="Слой_1-2" data-name="Слой 1"><circle id="_Контур_" data-name="&lt;Контур&gt;" class="cls-1" cx="93.95" cy="93.95" r="93.95"/><path id="_Контур_2" data-name="&lt;Контур&gt;" class="cls-2" d="M126.46,143.51h-.08l-1.45-5-4.07-6.78-4.73,2.84,4.06,6.9,4.08,3.35A2.43,2.43,0,0,0,124,146a2.46,2.46,0,1,0,2.46-2.46Z"/><path id="_Контур_3" data-name="&lt;Контур&gt;" class="cls-2" d="M69.68,134.61,65,131.78l-4.07,6.78-1.45,5h-.08A2.46,2.46,0,1,0,61.81,146a2.43,2.43,0,0,0-.27-1.11l4.08-3.35Z"/><g id="_Группа_" data-name="&lt;Группа&gt;"><rect id="_Прямоугольник_" data-name="&lt;Прямоугольник&gt;" class="cls-2" x="126.05" y="34.8" width="4.1" height="43.61" rx="2.05" ry="2.05" transform="translate(66.35 -69.1) rotate(40)"/><rect id="_Прямоугольник_2" data-name="&lt;Прямоугольник&gt;" class="cls-2" x="132.87" y="42.58" width="9.81" height="5.11" rx="1.51" ry="1.51" transform="translate(61.25 -78) rotate(40)"/><path id="_Контур_4" data-name="&lt;Контур&gt;" class="cls-3" d="M108.33,47.94,139.2,73.85a2.41,2.41,0,0,0,3.47-.4c3.27-4.38,9.11-15.64-5.35-27.76s-25-5.13-29.09-1.36A2.4,2.4,0,0,0,108.33,47.94Z"/></g><rect id="_Прямоугольник_3" data-name="&lt;Прямоугольник&gt;" class="cls-2" x="91.79" y="47.26" width="3.75" height="9.41"/><rect id="_Прямоугольник_4" data-name="&lt;Прямоугольник&gt;" class="cls-2" x="88.23" y="44.56" width="10.99" height="5.4" rx="2.7" ry="2.7"/><g id="_Группа_2" data-name="&lt;Группа&gt;"><rect id="_Прямоугольник_5" data-name="&lt;Прямоугольник&gt;" class="cls-2" x="58.02" y="34.8" width="4.1" height="43.61" rx="2.05" ry="2.05" transform="translate(142.46 61.35) rotate(140)"/><rect id="_Прямоугольник_6" data-name="&lt;Прямоугольник&gt;" class="cls-2" x="45.49" y="42.58" width="9.81" height="5.11" rx="1.51" ry="1.51" transform="translate(118.01 47.32) rotate(140)"/><path id="_Контур_5" data-name="&lt;Контур&gt;" class="cls-3" d="M79.84,47.94,49,73.85a2.41,2.41,0,0,1-3.47-.4c-3.27-4.38-9.11-15.64,5.35-27.76s25-5.13,29.09-1.36A2.4,2.4,0,0,1,79.84,47.94Z"/></g><circle id="_Контур_6" data-name="&lt;Контур&gt;" class="cls-3" cx="93.8" cy="99.51" r="45.34"/><circle id="_Контур_7" data-name="&lt;Контур&gt;" class="cls-4" cx="93.46" cy="99.24" r="37.76"/><rect id="_Прямоугольник_7" data-name="&lt;Прямоугольник&gt;" class="cls-2" x="92.3" y="103.39" width="22.53" height="2.99" rx="1.5" ry="1.5" transform="translate(62.01 -36.53) rotate(28.26)"/><rect id="_Прямоугольник_8" data-name="&lt;Прямоугольник&gt;" class="cls-2" x="92.2" y="74.03" width="3.06" height="27.07" rx="1.53" ry="1.53"/><circle id="_Контур_8" data-name="&lt;Контур&gt;" class="cls-3" cx="93.9" cy="99.48" r="4.51"/><circle id="_Контур_9" data-name="&lt;Контур&gt;" class="cls-2" cx="93.86" cy="68.34" r="4.05"/><circle id="_Контур_10" data-name="&lt;Контур&gt;" class="cls-2" cx="110.51" cy="73.36" r="4.05"/><circle id="_Контур_11" data-name="&lt;Контур&gt;" class="cls-2" cx="76.07" cy="73.36" r="4.05"/><circle id="_Контур_12" data-name="&lt;Контур&gt;" class="cls-2" cx="120.55" cy="84.4" r="4.05"/><circle id="_Контур_13" data-name="&lt;Контур&gt;" class="cls-2" cx="66.86" cy="84.4" r="4.05"/><circle id="_Контур_14" data-name="&lt;Контур&gt;" class="cls-2" cx="124.56" cy="99.46" r="4.05"/><circle id="_Контур_15" data-name="&lt;Контур&gt;" class="cls-2" cx="62.7" cy="99.46" r="4.05"/><circle id="_Контур_16" data-name="&lt;Контур&gt;" class="cls-2" cx="120.55" cy="113.52" r="4.05"/><circle id="_Контур_17" data-name="&lt;Контур&gt;" class="cls-2" cx="66.86" cy="113.52" r="4.05"/><circle id="_Контур_18" data-name="&lt;Контур&gt;" class="cls-2" cx="109.5" cy="124.56" r="4.05"/><circle id="_Контур_19" data-name="&lt;Контур&gt;" class="cls-2" cx="77.99" cy="124.56" r="4.05"/><circle id="_Контур_20" data-name="&lt;Контур&gt;" class="cls-2" cx="94.02" cy="128.58" r="4.05"/></g></g></svg>