<svg xmlns="http://www.w3.org/2000/svg" viewBox="0 0 187.16 187.16"><defs><style>.cls-1{fill:#6bbbce;}.cls-2{fill:#ffb8bb;}.cls-3{fill:#ce384e;}.cls-4{fill:#ff5365;}.cls-5{fill:#00c8f6;}.cls-6,.cls-7{fill:none;stroke:#223c92;stroke-width:4.01px;}.cls-6{stroke-miterlimit:10;}.cls-7{stroke-linecap:round;stroke-linejoin:round;}.cls-8{fill:#223c92;}.cls-9{fill:#fff;}</style></defs><title>icon2</title><g id="Слой_2" data-name="Слой 2"><g id="Слой_1-2" data-name="Слой 1"><circle id="_Контур_" data-name="&lt;Контур&gt;" class="cls-1" cx="93.58" cy="93.58" r="93.58"/><g id="_Группа_" data-name="&lt;Группа&gt;"><ellipse id="_Контур_2" data-name="&lt;Контур&gt;" class="cls-2" cx="68.79" cy="42.36" rx="10.93" ry="11.8"/><path id="_Контур_3" data-name="&lt;Контур&gt;" class="cls-3" d="M120.93,122.22h0c.06-1-1.27-1.8-2.52-1.78-1.51,0-2.54.23-6.62-1.6l-3.76-12L96.77,105.4l6.43,16.75c-.52,2.07,1,4.82,1,4.82.82,1.32.51.75,9.5-.63S120.93,122.22,120.93,122.22Z"/><ellipse id="_Контур_4" data-name="&lt;Контур&gt;" class="cls-2" cx="58.28" cy="43.72" rx="2.59" ry="2.74"/><ellipse id="_Контур_5" data-name="&lt;Контур&gt;" class="cls-2" cx="79.13" cy="40.51" rx="2.59" ry="2.74"/><path id="_Контур_6" data-name="&lt;Контур&gt;" class="cls-4" d="M78.83,36.55S78,25.8,66.56,27.19c-7.61.93-9.25,6.18-9.49,9.56,0,0-4.5,3.47-3.72,3.37,0,0,4.51-3.08,4-2.33A87.37,87.37,0,0,0,78.83,36.55Z"/><path id="_Контур_7" data-name="&lt;Контур&gt;" class="cls-3" d="M69.89,37.83S63.67,33,57.07,36.76c0,0-4.62,2.16-4.52,2.94s0,.53.8.43a15.48,15.48,0,0,1,4.32-1.65A80.2,80.2,0,0,1,69.89,37.83Z"/><path id="_Контур_8" data-name="&lt;Контур&gt;" class="cls-2" d="M88.28,63a15.58,15.58,0,0,0,4.44,2.36c2.71,1,9.24,2.7,12,2.44a35,35,0,0,0,6-1,2.12,2.12,0,0,1,2.45,1l.69,1.32a1.85,1.85,0,0,1-.21,2l-.48.58a1,1,0,0,1-1.4.14,2.24,2.24,0,0,0-.91-.49L104,72a2.15,2.15,0,0,1-.51,0l-2.9-.49L93,71.32a10.72,10.72,0,0,1-3.75-.75L84,68.49Z"/><path id="_Контур_9" data-name="&lt;Контур&gt;" class="cls-2" d="M52.55,60.6s-8.63,0-10.64-2.28-5.76-10.59-5.76-10.59l.61-3a1.62,1.62,0,0,0-.6-1.6l-3.23-2.48a1.28,1.28,0,0,0-1.39-.11l-2.32,1.25a1.56,1.56,0,0,0-.76,1.81l1.35,4.74a1.62,1.62,0,0,0,.74,1l1.85,1.09s2.81,10.55,6,12.67,14.84,5.34,14.84,5.34Z"/><path id="_Контур_10" data-name="&lt;Контур&gt;" class="cls-5" d="M53.35,40.12"/><path id="_Контур_11" data-name="&lt;Контур&gt;" class="cls-5" d="M53.35,40.12"/><ellipse id="_Контур_12" data-name="&lt;Контур&gt;" class="cls-6" cx="145.43" cy="89.93" rx="21.81" ry="21.2"/><ellipse id="_Контур_13" data-name="&lt;Контур&gt;" class="cls-6" cx="98.92" cy="138.04" rx="21.81" ry="21.2"/><polygon id="_Контур_14" data-name="&lt;Контур&gt;" class="cls-7" points="89.34 103.53 98.92 139.65 118.91 118.33 114.85 78.53 89.34 103.53"/><polyline id="_Контур_15" data-name="&lt;Контур&gt;" class="cls-7" points="145.43 89.93 106.37 74.42 106.01 74.27 109.41 70.13"/><g id="_Группа_2" data-name="&lt;Группа&gt;"><path id="_Контур_16" data-name="&lt;Контур&gt;" class="cls-5" d="M132.76,101.23s3.47-.35.4,8.86-2.38,9.2-4,9.33Z"/><path id="_Контур_17" data-name="&lt;Контур&gt;" class="cls-8" d="M124.27,108.93s.34,6.16-.66,8.65c1.49,2,5.52,1.84,5.52,1.84s5.54-14.28,4.32-17.25c-.73-2-2.84-.93-3.61.61S128.78,105.45,124.27,108.93Z"/></g><path id="_Контур_18" data-name="&lt;Контур&gt;" class="cls-4" d="M64.09,89.75s.95,9.79,10.64,10.74,49.74,17.84,49.74,17.84l1.79-8.51-23.67-12.3L83.88,86.28Z"/><path id="_Контур_19" data-name="&lt;Контур&gt;" class="cls-9" d="M68.84,57.66s-6.51,1.28-9.24,2.19-7.84.09-7.84.09v9.55s8.25-.35,9.59.38c.73,4.64,1.12,21.76,1.12,21.76s20.86-4.55,24.69-3.55c-.46-3.28-3.82-20-3.82-20L85.6,69.5,89.34,63s-6-5.91-8.74-6.1S68.84,57.66,68.84,57.66Z"/><path id="_Контур_20" data-name="&lt;Контур&gt;" class="cls-2" d="M66.22,52.68s1.2,3.71.25,5.53a26.11,26.11,0,0,1,4,3.25.66.66,0,0,0,1.06-.14l2.08-3.87a32.64,32.64,0,0,1-.75-6.19C69.54,50.62,66.22,52.68,66.22,52.68Z"/></g></g></g></svg>