<svg id="Слой_1" data-name="Слой 1" xmlns="http://www.w3.org/2000/svg" xmlns:xlink="http://www.w3.org/1999/xlink" viewBox="0 0 400 260"><defs><style>.cls-1,.cls-16,.cls-17,.cls-19,.cls-8,.cls-9{fill:none;}.cls-2{clip-path:url(#clip-path);}.cls-3{fill:#f8f4dc;}.cls-4{fill:#f4efd0;}.cls-5{fill:#47c7be;}.cls-6{fill:#33dcd9;}.cls-7{fill:#0a1e49;}.cls-17,.cls-19,.cls-8{stroke:#ff5365;}.cls-16,.cls-8{stroke-miterlimit:10;}.cls-8{stroke-width:4.65px;}.cls-9{stroke:#ffefae;stroke-width:4.22px;}.cls-17,.cls-19,.cls-9{stroke-linecap:round;stroke-linejoin:round;}.cls-10{fill:#112c77;}.cls-11{fill:#ff5365;}.cls-12{fill:#ffb8bb;}.cls-13{fill:#ffefae;}.cls-14{fill:#193172;}.cls-15{fill:#223c92;}.cls-16{stroke:#223c92;stroke-width:4.93px;}.cls-17{stroke-width:4.31px;}.cls-18{fill:#00c8f6;}.cls-19{stroke-width:2.73px;}.cls-20{fill:#0090ad;}</style><clipPath id="clip-path"><rect class="cls-1" x="-2" width="402" height="260"/></clipPath></defs><title>Монтажная область 3</title><g class="cls-2"><g id="Слой_2" data-name="Слой 2"><g id="Слой_153_копия2_" data-name="Слой 153 копия2 "><g id="Слой_141_копия2_" data-name="Слой 141 копия2 "><rect id="_Прямоугольник_" data-name=" Прямоугольник " class="cls-3" x="-1.89" y="0.33" width="1245.88" height="260.73"/></g><g id="Слой_166" data-name="Слой 166"><path id="_Контур_" data-name=" Контур " class="cls-4" d="M146.32,220,128.56,217l-13.34-4.61L94.46,209a25.48,25.48,0,0,0-5.23-.31l-24.8,1.11L44.75,220.55,23.9,219a3.48,3.48,0,0,0-3.74,3.63h0a3.48,3.48,0,0,0,3.24,3.32l29.69,2,7.27,7.25a27.11,27.11,0,0,0,23.71,7.52l8.56-1.46A18.24,18.24,0,0,0,98.82,239L116,228.9l30.38-8.9"/><path id="_Контур_2" data-name=" Контур 2" class="cls-5" d="M401.23.33H-1.89V132.08l45.64,57.09a81.41,81.41,0,0,0,62.47,29.21l384.25-.33a54.65,54.65,0,0,0,46.28-24.64L663.6.33Z"/><path id="_Контур_3" data-name=" Контур 3" class="cls-6" d="M151.33,194.63s-58.35-46.85,6-74.08c-11-36,113.39-59.69,113.5-4.67,15.07-33.4,40.66-39,63.23-17.71,64.64-3.72,63.51,54.2,44.61,73.91,7.7,9.63-6,30.19-52.4,31.54s-52.1-14.88-52.1-14.88S208.6,230.59,151.33,194.63Z"/><path id="_Контур_4" data-name=" Контур 4" class="cls-7" d="M97.92,177.67l6.63,19.27,5.72-.66s3.66,0,5,1.76.87,2.59.87,2.59l-16.75,4.43L88.68,186.32,70.84,165.55l18.26-.71Z"/><path id="_Контур_5" data-name=" Контур 5" class="cls-4" d="M295.34,240.77s-44.41-9-65.7-3.14c1.18-4.51-8-8.09-9.77-8,0,0-10.84-4.21-24.81,1.11s-13.27,10.52-11.49,14.34,7.2,5.62,7.2,5.62c6.16,4.8,44.11,9.63,66,6.49s41.51-5.87,41.51-5.87C307.59,249.41,301.79,242.15,295.34,240.77Z"/><ellipse id="_Контур_9" data-name=" Контур 9" class="cls-8" cx="137.5" cy="193.69" rx="29.31" ry="27.77" transform="translate(-54.48 53.81) rotate(-18.55)"/><ellipse id="_Контур_10" data-name=" Контур 10" class="cls-8" cx="47.57" cy="192.67" rx="29.31" ry="27.77" transform="translate(-58.82 25.14) rotate(-18.55)"/><line id="_Контур_11" data-name=" Контур 11" class="cls-9" x1="105.7" y1="152.02" x2="137.51" y2="193.68"/><polygon id="_Контур_12" data-name=" Контур 12" class="cls-9" points="66.71 165.11 114.56 163.62 92.91 194.63 47.58 192.66 66.71 165.11"/><path id="_Контур_13" data-name=" Контур 13" class="cls-10" d="M61,155.32a10.64,10.64,0,0,0,8.14,12.32c10,2.85,16.52,2.59,16.52,2.59L74.2,188.7,84.65,200a2.88,2.88,0,0,0,2.78.85l1.18-.28a2.88,2.88,0,0,0,2.12-2.07h0a2.88,2.88,0,0,0-.44-2.43l-6-8.34s15.27-14.82,15.84-21.88S83,158.31,83,158.31l-1.22-5.45Z"/><path id="_Контур_14" data-name=" Контур 14" class="cls-11" d="M78.17,120.54s-6.33,1.16-10.25,6.12-10,25.71-8.44,31.46c3.15,1,23.36-3.8,23.36-3.8L87.33,131Z"/><path id="_Контур_15" data-name=" Контур 15" class="cls-12" d="M80.29,128s-2.33-5.37-7.17-3.51-1.78,8.22-1.78,8.22S81,148,86.72,150.23s18.5.32,18.5.32a7.66,7.66,0,0,1,3.62,2.59c1.64,2.07,3.6-3.45,3.6-3.45L108,144.32l-5.49.5-14.6-2.48Z"/><path id="_Контур_16" data-name=" Контур 16" class="cls-12" d="M78.07,120.56l.55-4.08A16.62,16.62,0,0,1,77,110c-.34-7.45,4.05-13.7,9.81-14s10.7,5.56,11,13-4.05,13.7-9.81,14a8.21,8.21,0,0,1-2.44-.26l1.7,8.06h0C85.72,130.9,78.07,120.56,78.07,120.56Z"/><path id="_Контур_17" data-name=" Контур 17" class="cls-11" d="M97.87,106.45s-.47-7.07-2.41-9S89.72,94.21,84,95.63s-6.39,6.66-6.94,11.29S97.87,106.45,97.87,106.45Z"/><path id="_Контур_18" data-name=" Контур 18" class="cls-13" d="M95.22,109.76l-5-1.47-.12,0a.79.79,0,0,1-.58-1.25h0a.79.79,0,0,1,.5-.3l7.22-1.18h.16l6.36.89a.54.54,0,0,1,.07,1.05l-8.34,2.28A.54.54,0,0,1,95.22,109.76Z"/><path id="_Контур_19" data-name=" Контур 19" class="cls-14" d="M227.11,167.76l32.12,34.47,10.08-2.1a3.43,3.43,0,0,1,1.63.05l1.12.31a3.43,3.43,0,0,1,2.38,4.23h0a3.43,3.43,0,0,1-2.06,2.27l-16.24,6.33-49-41.37,7.09-7.82Z"/><g id="_Группа_" data-name=" Группа "><circle id="_Контур_20" data-name=" Контур 20" class="cls-15" cx="208.61" cy="228.51" r="5.53" transform="translate(-70.67 95.32) rotate(-22.11)"/><circle id="_Контур_21" data-name=" Контур 21" class="cls-15" cx="284.7" cy="198.11" r="5.53" transform="translate(-53.63 121.72) rotate(-22.11)"/><circle id="_Контур_22" data-name=" Контур 22" class="cls-16" cx="208.75" cy="228.65" r="21.2" transform="matrix(0.93, -0.38, 0.38, 0.93, -70.71, 95.39)"/><polyline id="_Контур_23" data-name=" Контур 23" class="cls-17" points="239.56 213.8 209 228.25 226.7 197.55 260.6 171.74 264.07 175.52 239.58 213.6 214.57 182.42"/><circle id="_Контур_24" data-name=" Контур 24" class="cls-16" cx="284.84" cy="198.25" r="21.2" transform="translate(-53.67 121.79) rotate(-22.11)"/><polyline id="_Контур_25" data-name=" Контур 25" class="cls-17" points="258.79 169.76 260.6 171.74 284.93 198.26"/><path id="_Контур_26" data-name=" Контур 26" class="cls-11" d="M260.44,165.49l-.86,4-1,.71a1.65,1.65,0,0,1-2.15-.2l-.88-.92a2.44,2.44,0,0,1-.15-3.2l1-.83,2.88-2.46h0A2.85,2.85,0,0,1,260.44,165.49Z"/><polygon id="_Контур_28" data-name=" Контур 28" class="cls-11" points="254.9 156.2 256.65 166.5 259.8 164.14 257.35 152.22 254.9 156.2"/></g><g id="_Группа_2" data-name=" Группа 2"><path id="_Контур_29" data-name=" Контур 29" class="cls-18" d="M264.28,211.36s3.32,2.52-6.87,8.08-9.57,6.11-11.12,4.88Z"/><path id="_Контур_30" data-name=" Контур 30" class="cls-11" d="M250.59,211.18s-4.71,5.66-7.62,7c-.32,3,3.33,6.1,3.33,6.1s16.48-8,17.82-11.57c1-2.33-1.73-3.13-3.66-2.41S257.36,211.8,250.59,211.18Z"/></g><path id="_Контур_31" data-name=" Контур 31" class="cls-15" d="M205.31,156.2s-8.26,9.75-5,17.92c1.78,4.48,42.65,46.8,43,46.15,4.09-2.16,7.9-8.9,7.9-8.9L224.58,177l.26-7.94Z"/><path id="_Контур_32" data-name=" Контур 32" class="cls-13" d="M226.09,130.86a8.51,8.51,0,0,0-8.3,3.67c-5.59,8.31-17.12,25.66-18.25,28.93-1.5,4.34,25.83,9.19,25.83,9.19L234.79,146l-.21-8.82a6.08,6.08,0,0,0-5.19-5.87Z"/><ellipse id="_Контур_33" data-name=" Контур 33" class="cls-12" cx="231.3" cy="115.62" rx="12.29" ry="12.02" transform="translate(58.45 307.94) rotate(-74.61)"/><polygon id="_Контур_34" data-name=" Контур 34" class="cls-12" points="232.78 126.58 232.05 132.29 232.79 139.34 225.49 131.66 226.38 124.82 232.78 126.58"/><line id="_Контур_35" data-name=" Контур 35" class="cls-19" x1="249.98" y1="163.19" x2="262.12" y2="146.11"/><g id="_Группа_3" data-name=" Группа 3"><g id="_Группа_4" data-name=" Группа 4"><polygon id="_Контур_36" data-name=" Контур 36" class="cls-15" points="230.08 112.88 230.08 122.53 221.43 120.11 220.98 121.44 230.77 124.66 232.91 123.88 232.91 112.29 230.08 112.88"/></g><path id="_Контур_37" data-name=" Контур 37" class="cls-13" d="M226.28,116.45s16.19-2.55,19.63-4.55c2.25-6.5-6.46-17.89-24.06-11.2-14.3,5.42-5.32,19.07-5.32,19.07s4.21,4.77,7.31,3.66S226.28,116.45,226.28,116.45Z"/></g><polygon id="_Контур_38" data-name=" Контур 38" class="cls-12" points="234.04 134.84 257.33 147.9 261.06 147.9 264.31 151.75 258.72 156.22 252.48 151.71 252.48 150.55 234.5 143.46 234.04 134.84"/><path id="_Контур_39" data-name=" Контур 39" class="cls-12" d="M225.4,137.16l25.19,16,4.09-1.1,2.81,5.38-1.89,1.7-7.71-1.82-26.86-12a4.62,4.62,0,0,1-2.74-4.18V141a4.55,4.55,0,0,1,2.83-4.2h0A5,5,0,0,1,225.4,137.16Z"/><path id="_Контур_43" data-name=" Контур 43" class="cls-20" d="M461.34,22.2c-43.64-45.51-54.75-3.45-54.75-3.45-35.2-1.78-42.72,37.57-45,45.87C313,62.71,319.6,121.37,351,118.7c-19.31,54.23,44.27,69.54,65.89,46.14C511.38,188.74,499.24,61.72,461.34,22.2Z"/></g><path id="_Контур_65" data-name=" Контур 65" class="cls-6" d="M389.94.33s-2.2,62.79,32.7,89.34S491.5,95,491.5,95s30.88,46.13,99.43,26.19S638.87,38,638.87,38s41.6,9.71,84.71-37.66Z"/></g></g></g></svg>