<svg id="Слой_1" data-name="Слой 1" xmlns="http://www.w3.org/2000/svg" xmlns:xlink="http://www.w3.org/1999/xlink" viewBox="0 0 400 260"><defs><style>.cls-1,.cls-10,.cls-11,.cls-16,.cls-17,.cls-22,.cls-23{fill:none;}.cls-2{clip-path:url(#clip-path);}.cls-3{fill:#f8f4dc;}.cls-4{fill:#f4efd0;}.cls-5{fill:#47c7be;}.cls-6{fill:#0090ad;}.cls-7{fill:#33dcd9;}.cls-8{fill:#ffb8bb;}.cls-9{fill:#0f847e;}.cls-10,.cls-11,.cls-22{stroke:#223c92;}.cls-10,.cls-17{stroke-miterlimit:10;}.cls-10,.cls-11{stroke-width:4.49px;}.cls-11,.cls-16,.cls-22,.cls-23{stroke-linecap:round;stroke-linejoin:round;}.cls-12{fill:#00c8f6;}.cls-13{fill:#223c92;}.cls-14{fill:#ff5365;}.cls-15{fill:#112560;}.cls-16,.cls-23{stroke:#ff5365;}.cls-16{stroke-width:4.22px;}.cls-17{stroke:#00c8f6;stroke-width:4.82px;}.cls-18{fill:#ffefae;}.cls-19{fill:#142d75;}.cls-20{clip-path:url(#clip-path-2);}.cls-21{fill:#f4b5ba;}.cls-22{stroke-width:2.74px;}.cls-23{stroke-width:3.29px;}.cls-24{fill:#3eb7ac;}.cls-25{fill:#00d3cf;}.cls-26{fill:#ffdee4;}</style><clipPath id="clip-path"><rect class="cls-1" x="-842" width="402" height="260"/></clipPath><clipPath id="clip-path-2"><rect class="cls-1" x="-416" width="399" height="260"/></clipPath></defs><title>Монтажная область 5</title><g class="cls-2"><g id="Слой_2" data-name="Слой 2"><g id="Слой_153_копия2_" data-name="Слой 153 копия2 "><g id="Слой_141_копия2_" data-name="Слой 141 копия2 "><rect id="_Прямоугольник_" data-name=" Прямоугольник " class="cls-3" x="-841.89" y="0.33" width="1245.88" height="260.73"/></g><g id="Слой_166" data-name="Слой 166"><path id="_Контур_7" data-name=" Контур 7" class="cls-4" d="M15.32,201c2-3.77-31.53-2.2-34.28-2.07,0,0-16.95-3.13-39.1,1.75s-21.25,9.16-18.58,12.26,15.88,7.24,15.88,7.24c29.55,6.74,83,4.27,117.06-1.43C90,213.11,49.06,195.48,15.32,201Z"/><path id="_Контур_8" data-name=" Контур 8" class="cls-4" d="M204,226.53c-23.71-3.65-58.41-1.58-70,1.63s-18.12,9-15.82,12.15,13.63,7.33,13.63,7.33c25.32,6.93,71.07,4.8,100.13-.68C260.66,241.52,224.57,229.69,204,226.53Z"/><path id="_Контур_42" data-name=" Контур 42" class="cls-5" d="M-203.39,136.71l87-136.38H404V166.49l-591.07,0A19.35,19.35,0,0,1-203.39,136.71Z"/><path id="_Контур_45" data-name=" Контур 45" class="cls-6" d="M321.88,71.87c-9.42,7.78-19,0-19,0V99s-16.21-14.82-16.72-19.41-9-3.06-9-3.06,16.06,24.75,25,31.9c0,3.06,1.78,19.91-4.35,26.29a50.86,50.86,0,0,1-13,9.7s9.7,1.53,16.84-2c3.19,2.08,4.71,10.37,5.45,13.2.39,1.52,1.91,1.6,2.83.33,0,0,1.89-11.29,6.76-13.18h2.59a13.74,13.74,0,0,1,8,2.64l7.78,5.66s0-7.39-8.64-18.87C318.18,121.2,323.62,69.12,321.88,71.87Z"/><path id="_Контур_46" data-name=" Контур 46" class="cls-7" d="M255.48,1S229,76.78,311.27,88.24c-5.87,33.49,48.91,63.47,92.73,57.28V.33L255.48,1"/><g id="_Группа_5" data-name=" Группа 5"><ellipse id="_Контур_47" data-name=" Контур 47" class="cls-8" cx="242.53" cy="111.28" rx="12.23" ry="13.2"/><path id="_Контур_48" data-name=" Контур 48" class="cls-9" d="M184.17,200.65h0c-.07-1.14,1.41-2,2.82-2,1.69,0,2.83.25,7.41-1.8l4.21-13.44,12.56-1.6L204,200.57c.58,2.32-1.15,5.39-1.15,5.39-.91,1.48-.57.84-10.63-.71S184.17,200.65,184.17,200.65Z"/><path id="_Контур_49" data-name=" Контур 49" class="cls-8" d="M220.71,134.41a17.47,17.47,0,0,1-5,2.64c-3,1.13-10.34,3-13.48,2.74a39.28,39.28,0,0,1-6.75-1.1,2.37,2.37,0,0,0-2.74,1.18l-.77,1.48a2.07,2.07,0,0,0,.24,2.27l.54.66a1.12,1.12,0,0,0,1.56.16,2.51,2.51,0,0,1,1-.55l7.82.55a2.41,2.41,0,0,0,.58,0l3.24-.55,8.41-.15a12,12,0,0,0,4.2-.84l5.89-2.33Z"/><path id="_Контур_50" data-name=" Контур 50" class="cls-8" d="M260.7,131.69s9.67,0,11.91-2.55S279,117.29,279,117.29l-.68-3.38a1.81,1.81,0,0,1,.67-1.79l3.62-2.78a1.44,1.44,0,0,1,1.56-.12l2.59,1.4a1.75,1.75,0,0,1,.85,2l-1.52,5.31a1.81,1.81,0,0,1-.82,1.06l-2.08,1.22S280.1,132,276.5,134.42s-16.61,6-16.61,6Z"/><ellipse id="_Контур_53" data-name=" Контур 53" class="cls-10" cx="156.76" cy="164.51" rx="24.41" ry="23.72"/><ellipse id="_Контур_54" data-name=" Контур 54" class="cls-10" cx="208.81" cy="218.36" rx="24.41" ry="23.72"/><polygon id="_Контур_55" data-name=" Контур 55" class="cls-11" points="219.53 179.73 208.81 220.15 186.43 196.3 190.98 151.76 219.53 179.73"/><polyline id="_Контур_56" data-name=" Контур 56" class="cls-11" points="156.76 164.51 200.47 147.15 200.88 146.99 197.06 142.35"/><g id="_Группа_6" data-name=" Группа 6"><path id="_Контур_57" data-name=" Контур 57" class="cls-12" d="M170.93,177.16s-3.89-.39-.45,9.92,2.66,10.29,4.51,10.44Z"/><path id="_Контур_58" data-name=" Контур 58" class="cls-13" d="M180.43,185.78s-.38,6.9.74,9.68c-1.67,2.23-6.17,2.06-6.17,2.06s-6.2-16-4.83-19.3c.82-2.21,3.18-1,4,.68S175.39,181.88,180.43,185.78Z"/></g><path id="_Контур_59" data-name=" Контур 59" class="cls-12" d="M247.79,164.31s-1.06,11-11.9,12-55.67,20-55.67,20l-2-9.52L204.7,173l20.93-12.58Z"/><path id="_Контур_60" data-name=" Контур 60" class="cls-14" d="M242.47,128.4s7.18,1.43,10.23,2.45,8.67.11,8.67.11v10.68s-9.12-.39-10.61.42c-.82,5.19-1.19,24.35-1.19,24.35s-23.32-5.09-27.6-4c.5-3.67,4.28-22.41,4.28-22.41l-2.54,1.63-4.17-7.24s6.73-6.62,9.78-6.82S242.47,128.4,242.47,128.4Z"/><path id="_Контур_61" data-name=" Контур 61" class="cls-8" d="M245.4,122.82s-1.34,4.15-.28,6.19a29.37,29.37,0,0,0-4.42,3.64.74.74,0,0,1-1.18-.16l-2.32-4.33a36.52,36.52,0,0,0,.84-6.92C241.69,120.52,245.4,122.82,245.4,122.82Z"/><path id="_Контур_62" data-name=" Контур 62" class="cls-14" d="M251.89,119.78l-19.45-16-7.53-5.33a1.15,1.15,0,0,1-.06-1.83h0a1.15,1.15,0,0,1,1.32-.09l8.12,5L239.72,98a9.13,9.13,0,0,1,8.18-.87l3.16,1.19a8.12,8.12,0,0,1,4.88,5.19l1.44,4.67a6.81,6.81,0,0,1-1.22,6.29Z"/><ellipse id="_Контур_63" data-name=" Контур 63" class="cls-8" cx="245.99" cy="115.98" rx="3.46" ry="3.27"/></g></g><path id="_Контур_64" data-name=" Контур 64" class="cls-6" d="M304.87.47S281.17,84.82,174.49,38,64,67.67,20.44,83.41s-98.82,34.06-116,1.19S-82.35.87-82.35.87Z"/><path id="_Контур_66" data-name=" Контур 66" class="cls-7" d="M-188.55.33s6.63,65.41,87,83.08S-12.83,38-12.83,38s-13.65,32.35,23.25,60.7,64-6.93,84.81-15.42S207.7,118.27,210.06,0Z"/><g id="_Группа_7" data-name=" Группа 7"><polygon id="_Контур_67" data-name=" Контур 67" class="cls-15" points="-17.31 155.76 -7.12 204.71 7.27 204.71 9.78 202.22 7.25 200.1 -0.02 198.43 -2.21 140.8 -20.78 144.55 -17.31 155.76"/><g id="_Группа_8" data-name=" Группа 8"><polyline id="_Контур_69" data-name=" Контур 69" class="cls-16" points="-16.26 184.79 -49.29 186.51 -21.85 165.31 18.43 154.56 20.16 159.27 -16.17 184.63 -27.2 147.1"/><circle id="_Контур_70" data-name=" Контур 70" class="cls-17" cx="30.47" cy="187.54" r="20.74" transform="translate(-157.19 217.26) rotate(-89.77)"/><polyline id="_Контур_71" data-name=" Контур 71" class="cls-16" points="17.52 152.1 18.43 154.56 30.58 187.62"/><path id="_Контур_72" data-name=" Контур 72" class="cls-13" d="M20,131.59l0,.07a1,1,0,0,1-1.22.58h0l-7.07-2.81a1,1,0,0,1-.54-1.24h0a1,1,0,0,1,1.24-.54l7.09,2.74A1,1,0,0,1,20,131.59Z"/><path id="_Контур_73" data-name=" Контур 73" class="cls-13" d="M20.62,148.84l-2.25,3.26-1.15.28a1.6,1.6,0,0,1-1.87-1l-.45-1.16a2.39,2.39,0,0,1,1.06-2.95l2.75-1.55.68-13.49a5.08,5.08,0,0,0-5.17-1.2l-.31-.47a2.77,2.77,0,0,1,2.43-.62,12.26,12.26,0,0,1,2.83,1l.56,0a1.69,1.69,0,0,1,1.62,1.75v0l-.68,13h0A2.78,2.78,0,0,1,20.62,148.84Z"/></g><path id="_Контур_75" data-name=" Контур 75" class="cls-8" d="M3.53,113.06s13.05,3.86,15.61,7.47,6.6,16,6.6,16l-4.06,3.77-4.08-3.77.66-6.6s-1.48-4.57-4.36-6.32S0,121.7,0,121.7Z"/><path id="_Контур_78" data-name=" Контур 78" class="cls-18" d="M-10.18,110.35s-10.27-3.57-16.56,0c.45,5.85.22,15.7.22,15.7l2.59-1.38-9.59,25.09c0,8,32.85,0,32.85,0l2-24.32,2.34.66,1.65-14.3Z"/><g id="_Группа_9" data-name=" Группа 9"><ellipse id="_Контур_80" data-name=" Контур 80" class="cls-8" cx="-5.21" cy="93.85" rx="14.3" ry="13.24" transform="translate(-93.25 60.93) rotate(-72.68)"/><ellipse id="_Контур_82" data-name=" Контур 82" class="cls-8" cx="8.93" cy="99.61" rx="3.31" ry="3.13" transform="translate(-88.75 78.13) rotate(-72.47)"/><path id="_Контур_83" data-name=" Контур 83" class="cls-13" d="M8.44,90.71S11.31,78-2.38,75.46c-9.14-1.67-12.93,3.81-14.43,7.64,0,0-6.45,2.39-5.52,2.55,0,0,6.32-1.93,5.45-1.26A105.81,105.81,0,0,0,8.44,90.71Z"/></g></g><path id="_Контур_85" data-name=" Контур 85" class="cls-19" d="M115.23,56.31c9.42,7.78,19.08,0,19.08,0V83.42S150.47,68.6,151,64s8.94-3.06,8.94-3.06-16.07,24.75-25,31.9c0,3.06-1.78,19.91,4.34,26.29a50.87,50.87,0,0,0,13,9.7s-9.7,1.53-16.85-2c-3.19,2.08-4.71,10.37-5.45,13.2-.39,1.52-1.91,1.6-2.83.33,0,0-1.89-11.29-6.76-13.18h-2.59a13.74,13.74,0,0,0-8,2.64L102,135.45s0-7.39,8.67-18.87C118.91,105.65,113.5,53.56,115.23,56.31Z"/></g></g></g><g class="cls-20"><g id="Слой_2-2" data-name="Слой 2"><g id="Слой_153_копия3_" data-name="Слой 153 копия3 "><g id="Слой_141_копия3_" data-name="Слой 141 копия3 "><rect id="_Прямоугольник_2" data-name=" Прямоугольник " class="cls-3" x="-416.77" y="0.41" width="1245.53" height="261.59"/></g><g id="Слой_174" data-name="Слой 174"><path id="_Контур_43" data-name=" Контур 43" class="cls-5" d="M749.61.41H-4.26l.07,109.13,61.37,47.81A92.94,92.94,0,0,0,113,177l181.61,2.53a138.39,138.39,0,0,0,55.65-10.83Z"/><path id="_Контур_45-2" data-name=" Контур 45" class="cls-6" d="M8.4.41s-13,71.27,54.05,78.88S203.39,65,203.39,65s85.7,137.59,224,32S482.52.17,482.52.17Z"/><path id="_Контур_46-2" data-name=" Контур 46" class="cls-6" d="M85.7,83.41c9.4,7.77,19.05,0,19.05,0v27.08s16.14-14.8,16.65-19.39S130.33,88,130.33,88s-16.06,24.72-25,31.87c0,3.06-1.78,19.88,4.34,26.26a50.81,50.81,0,0,0,13,9.69s-9.69,1.53-16.83-2c-3.18,2.08-4.71,10.36-5.45,13.19-.39,1.52-1.91,1.6-2.83.33,0,0-1.88-11.28-6.76-13.16H88.25a13.72,13.72,0,0,0-8,2.65l-7.77,5.65s0-7.38,8.66-18.85C89.38,132.68,84,80.66,85.7,83.41Z"/><path id="_Контур_48-2" data-name=" Контур 48" class="cls-7" d="M71.39.18S22.57,16.08,34.26,65s64.6,44.91,64.6,44.91S111.14,151,166,152.81s71.58-62.3,71.58-62.3S307.7,134.68,395.91,125,516,64.7,498.37,32.56c0,0,108.21,64.79,173.64,10.93C712.87,9.86,708.22.18,708.22.18Z"/></g><g id="Слой_175" data-name="Слой 175"><path id="_Контур_50-2" data-name=" Контур 50" class="cls-4" d="M231.88,245.69S267.33,257,299,253.93s62.72-5.42,54.32-17.49-69.61-12.95-79-10.81-32.2,3.65-38.36,6S222.57,243.13,231.88,245.69Z"/><g id="_Группа_8-2" data-name=" Группа 8"><path id="_Контур_51" data-name=" Контур 51" class="cls-8" d="M298.07,177.13s.73,12,2.56,17.85c-2.56,9.2-.69,27.95-.69,27.95l6.22-1.77L310,175Z"/><path id="_Контур_52" data-name=" Контур 52" class="cls-8" d="M267.77,213l21.47-13.47a5.52,5.52,0,0,0,2.35-3.48l4.16-20.1L283.65,174l-.16,18.44A99.47,99.47,0,0,0,266.27,207"/><ellipse id="_Контур_53-2" data-name=" Контур 53" class="cls-8" cx="299.37" cy="102.6" rx="11.85" ry="13.01"/><path id="_Контур_54-2" data-name=" Контур 54" class="cls-21" d="M313.58,141.57,309,124.92l-4.44-1.22-2.35,4.8s5.65,17.42,7.55,18.62,14.63,3,14.63,3l3.65,2.41,4.73-.84.24-4.33-4.52-1-3.95-.42Z"/><path id="_Контур_55-2" data-name=" Контур 55" class="cls-13" d="M289.28,152.86s-5.67,8.45-5.79,21.66a78.47,78.47,0,0,0,12,3.06l1.45-3.85,1.14,3.4,12.33-1.54-.19-19.44Z"/><path id="_Контур_56-2" data-name=" Контур 56" class="cls-14" d="M299.37,118.7s-7.24,2.53-9.49,7.95.49,20.1.49,20.1-1.32,4.56-2.18,6.92c16.6,10.71,21.88,4.11,21.88,4.11V139.2a14.39,14.39,0,0,0,1.16-9.67,23.71,23.71,0,0,0-7.06-10.69Z"/><path id="_Контур_57-2" data-name=" Контур 57" class="cls-8" d="M299.9,143.44,297.35,127a4,4,0,0,0-2.43-2.71h0a4,4,0,0,0-4.76,1.6l-.36.58a4,4,0,0,0-.41,3.35s5,18.1,6.4,19.38,13.58,6.3,13.58,6.3l4.94-1.32,1.61,1.32,2.59-2.62-3.88-3.65-6.41.85Z"/><path id="_Контур_58-2" data-name=" Контур 58" class="cls-8" d="M295.52,111.34l1,11.12s6.38,3.86,8.06,2.72.94-5.18.94-5.18l-4.2-9.6Z"/><path id="_Контур_59-2" data-name=" Контур 59" class="cls-18" d="M290.27,110.95s-6.39-3.19-2.5-14.06,17.41-6.59,17.41-6.59,7.37-1,10.19,4.52c-3.3,1.34-11.17,4.52-11.17,4.52l-1.77-.85Z"/><path id="_Контур_60-2" data-name=" Контур 60" class="cls-18" d="M290.95,93.47s-1.37-6.23-11.3-2.81-5.38,18.11-15.44,21.48c6.17,4.11,12.82,3.86,17-4.39,3.11-6.23,4.9-11.92,7.88-11.54S290.95,93.47,290.95,93.47Z"/><circle id="_Контур_61-2" data-name=" Контур 61" class="cls-8" cx="296.07" cy="104.45" r="3.3"/><g id="_Группа_9-2" data-name=" Группа 9"><path id="_Контур_62-2" data-name=" Контур 62" class="cls-12" d="M317.63,226.19s1.25,3.31-8.57,2.71-9.62.08-10.18-1.51Z"/><path id="_Контур_63-2" data-name=" Контур 63" class="cls-14" d="M306.21,220.48s-3.61,1.4-6.31,1.07c-1.56,2-1,5.84-1,5.84s15.42,1.69,18-.28c1.74-1.23.17-3-1.54-3.37S310.79,224,306.21,220.48Z"/></g><polyline id="_Контур_65" data-name=" Контур 65" class="cls-8" points="266.27 207.04 264.89 211.53 267.77 213"/><g id="_Группа_10" data-name=" Группа 10"><path id="_Контур_66-2" data-name=" Контур 66" class="cls-12" d="M262.84,224.78s-3.22,1.47-3.28-8.37-.72-9.59.82-10.26Z"/><path id="_Контур_67-2" data-name=" Контур 67" class="cls-14" d="M267.77,213s-1.64-3.51-1.49-6.22c-2.08-1.43-5.9-.63-5.9-.63s-.65,15.5,1.49,17.95c1.35,1.65,3,0,3.26-1.77S264.58,217.81,267.77,213Z"/></g><g id="_Группа_11" data-name=" Группа 11"><circle id="_Контур_68" data-name=" Контур 68" class="cls-13" cx="274.38" cy="229.86" r="6.76"/><circle id="_Контур_69-2" data-name=" Контур 69" class="cls-13" cx="334.61" cy="229.86" r="6.76"/><line id="_Контур_70-2" data-name=" Контур 70" class="cls-22" x1="319.72" y1="156.91" x2="328.52" y2="198.61"/><path id="_Контур_71-2" data-name=" Контур 71" class="cls-14" d="M331.3,219.32s-5.24,10.19-5.35,11.83H274.9c-.75,0-1.57-.49-1.57-1.24v0a1.47,1.47,0,0,1,1.46-1.38l46.7-.22,9.22-18.73Z"/><line id="_Контур_72-2" data-name=" Контур 72" class="cls-23" x1="328.25" y1="197.54" x2="334.92" y2="229.86"/><path id="_Контур_73-2" data-name=" Контур 73" class="cls-14" d="M282,229.85a8.29,8.29,0,0,0-12.85-6.93.77.77,0,0,1-1-.18h0a.77.77,0,0,1,.12-1.08l0,0a9.8,9.8,0,0,1,15.26,9.55l-1.61-.4A8.37,8.37,0,0,0,282,229.85Z"/><g id="_Группа_12" data-name=" Группа 12"><rect id="_Прямоугольник_10" data-name=" Прямоугольник 10" class="cls-13" x="313.71" y="154.18" width="10.85" height="2.48" transform="translate(-23.13 61.3) rotate(-10.59)"/><rect id="_Прямоугольник_11" data-name=" Прямоугольник 11" class="cls-18" x="306.71" y="154.72" width="9.07" height="4.27" rx="1.01" ry="1.01" transform="translate(-23.53 59.87) rotate(-10.59)"/><rect id="_Прямоугольник_12" data-name=" Прямоугольник 12" class="cls-18" x="323" y="151.67" width="9.07" height="4.27" rx="1.01" ry="1.01" transform="translate(-22.69 62.81) rotate(-10.59)"/></g></g></g></g></g></g></g><g id="Слой_2-3" data-name="Слой 2"><g id="Слой_153_копия4_" data-name="Слой 153 копия4 "><g id="Слой_141_копия4_" data-name="Слой 141 копия4 "><rect id="_Прямоугольник_3" data-name=" Прямоугольник " class="cls-3" x="1" y="1.89" width="1229" height="258.11"/></g><g id="Слой_75_копия4_" data-name="Слой 75 копия4 "><path id="_Контур_" data-name=" Контур " class="cls-5" d="M388.75,1.88V1.42H1.23V118.51l214.13,94.22a55.12,55.12,0,0,0,51.46-4.21l121.88-78.1v-.79L716.33,260H1230V1.88Z"/></g><g id="Слой_166_копия2_" data-name="Слой 166 копия2 "><polygon id="_Контур_2" data-name=" Контур 2" class="cls-3" points="1 72.49 1 146.46 1.96 147.06 1.41 72.74 1 72.49"/><path id="_Контур_3" data-name=" Контур 3" class="cls-4" d="M76.25,217.25c-.43-10,22.19-13.66,31.46-15s28.82-3,34.36-3.95,8.15,7.8,1.63,9.46,2-.29-.65,7.85-10.31,19.88-26,15S76.91,232.56,76.25,217.25Z"/><path id="_Контур_4" data-name=" Контур 4" class="cls-4" d="M292,208.31s2,11.67,17.48,7.92,22.55-1.65,27.3-6.66,9.4-18.62-13.72-21.16C286.42,185.43,292,208.31,292,208.31Z"/><path id="_Контур_5" data-name=" Контур 5" class="cls-24" d="M187,184s2.56,11.67,21.85,7.92S237,190.31,243,185.3s11.75-18.62-17.15-21.16C179.95,161.17,187,184,187,184Z"/><path id="_Контур_6" data-name=" Контур 6" class="cls-7" d="M31,159.24s-24.47-5.72-11.92-28.11c0,0-5.82-27.29,18.66-23.62C43.29,92.21,54.7,89.34,74.5,99c18.35-3.55,34.7,9.69,24.63,41.16,20,24.2-10.05,37.06-28.49,28.81C43,184.31,31,159.24,31,159.24Z"/><path id="_Контур_7-2" data-name=" Контур 7" class="cls-6" d="M360.74,102.92s-24.41-5.72-11.87-28.11c0,0-9.07-36.29,23.36-36.29C375.16,17.1,380.49,9,395.49,1.88l63-.46S563.8-.21,529,77.22c-25.67,57.14-140.45,38.38-140.45,38.38C361.15,130.91,360.74,102.92,360.74,102.92Z"/><circle id="_Контур_8-2" data-name=" Контур 8" class="cls-8" cx="316.24" cy="139.56" r="11.77"/><path id="_Контур_9" data-name=" Контур 9" class="cls-13" d="M326.45,145.93l-24.11-17.56a1,1,0,0,1-.22-1.37h0a1,1,0,0,1,1.36-.23l5.07,3.19s5.7-4.16,9-4.3,8.48,4.23,10.42,7.22S330.74,140,326.45,145.93Z"/><polygon id="_Контур_10" data-name=" Контур 10" class="cls-8" points="301.94 152.73 292.57 171.22 290.09 173.25 291.44 177.31 295.24 175.28 296.01 172.13 304.47 161.54 305.29 155.91 301.94 152.73"/><path id="_Контур_11" data-name=" Контур 11" class="cls-13" d="M298.68,175.9l.58,25.56-3,1.55a2.13,2.13,0,0,0-1.16,1.83v.93l11.65.22L308,182.66l11.6,18.54-2.77,1.67a2.39,2.39,0,0,0-1.16,2.14l0,1,12.66,0-.46-4.78-7.81-23.06Z"/><circle id="_Контур_12" data-name=" Контур 12" class="cls-8" cx="320.44" cy="141.41" r="2.86"/><path id="_Контур_13" data-name=" Контур 13" class="cls-18" d="M305.55,151.43a13.44,13.44,0,0,0-3.61,1.31l1.61,4.63c-2,7.46-5,19.26-5,19.26s15.23,6.08,22.09,2.58c-.75-4.25,1.5-15.4,1.5-15.4l-.51.56c1.71-1.35,2-8,2-8S311.8,149.94,305.55,151.43Z"/><polygon id="_Контур_14" data-name=" Контур 14" class="cls-8" points="315.62 149.94 313.11 156.18 307.37 156.9 306.81 153.42 308.91 148.54 315.62 149.94"/><path id="_Контур_15" data-name=" Контур 15" class="cls-8" d="M320.34,163.32l.42,5.45-4.41,6.93,1.05,4.61h3.37l.79-5,4.65-7s.1-6.63-2.54-11.94C321.32,157,320.34,163.32,320.34,163.32Z"/><circle id="_Контур_16" data-name=" Контур 16" class="cls-8" cx="103.39" cy="140.22" r="13.65"/><path id="_Контур_17" data-name=" Контур 17" class="cls-13" d="M91.54,147.6l28-20.37a1.14,1.14,0,0,0,.25-1.59h0a1.14,1.14,0,0,0-1.58-.26l-5.88,3.69s-6.61-4.82-10.47-5S92,129,89.75,132.45,86.57,140.73,91.54,147.6Z"/><path id="_Контур_18" data-name=" Контур 18" class="cls-7" d="M349.17,146.06s-24.47-5.72-11.93-28.11c0,0-5.82-27.29,18.66-23.62,5.51-15.3,19.64-24.42,32.79-7.46,3.15-17,54.22-23.73,38.18,19.33,23.7,23,4.28,31.13-.46,39.73-9.37,16.9-37.64,9.89-37.64,9.89C361.12,171.13,349.17,146.06,349.17,146.06Z"/><polygon id="_Контур_19" data-name=" Контур 19" class="cls-8" points="92.95 161.09 77.55 176.6 73.47 176.98 73.03 181.89 77.52 185.25 80.82 179.55 98.71 164.95 92.95 161.09"/><path id="_Контур_20" data-name=" Контур 20" class="cls-14" d="M91.48,213.56c-.7,1.18-.16,3.46-.16,3.46h11.91a.72.72,0,0,0,.82-.66v-.29a2.72,2.72,0,0,0-1.34-2.45l-3.22-1.92s-5.19,1.58-5.19-.26S91.48,213.56,91.48,213.56Z"/><path id="_Контур_21" data-name=" Контур 21" class="cls-14" d="M114.5,213.56c-.7,1.18-.16,3.46-.16,3.46h11.91a.72.72,0,0,0,.82-.66v-.29a2.72,2.72,0,0,0-1.34-2.45l-3.23-1.92s-5.19,1.58-5.19-.26S114.5,213.56,114.5,213.56Z"/><polygon id="_Контур_22" data-name=" Контур 22" class="cls-8" points="117.99 154.86 138.68 146.72 140.56 143.01 145.05 144.47 143.6 149.38 121.93 159.81 106.91 160.73 117.99 154.86"/><path id="_Контур_23" data-name=" Контур 23" class="cls-25" d="M91.48,213.68c-.7-.22,7.43-28.73,7.43-28.73l24.84-2.58L123.08,212a24.5,24.5,0,0,1-8.93,2.31c-.76-.16-1.23-24.1-1.23-24.1l-12.76,21.5S95.48,214.12,91.48,213.68Z"/><circle id="_Контур_24" data-name=" Контур 24" class="cls-8" cx="98.52" cy="142.37" r="3.31"/><polygon id="_Контур_25" data-name=" Контур 25" class="cls-8" points="100.63 152.26 103.54 159.49 110.21 160.33 110.86 156.3 108.41 150.63 100.63 152.26"/><path id="_Контур_26" data-name=" Контур 26" class="cls-13" d="M91.51,161.55s15.63-8.23,27.78-7.68c.29,0,3.91,9.09,3.91,9.09l-2.77,1.49,3.48,18.76s-18.52,7.1-26.47,3c.87-4.93-.43-15.57-.43-15.57l-2.46.67Z"/><path id="_Контур_27" data-name=" Контур 27" class="cls-18" d="M230.05,171.64s6.93,2.43,8,3.25,1.79,3-.7,3.39c-2.67.4-13.18-1-13.18-1s-2-1.94,0-5.65S230.05,171.64,230.05,171.64Z"/><path id="_Контур_28" data-name=" Контур 28" class="cls-18" d="M194.53,174v1.86a2.83,2.83,0,0,0,1.66,2.63l8.13,3.61a2.12,2.12,0,0,0,1.53.07l0-.15a2,2,0,0,0,1.48-2.18h0a2.09,2.09,0,0,0-.7-1.45l-4.3-3.92Z"/><path id="_Контур_29" data-name=" Контур 29" class="cls-14" d="M226,147.1a82.53,82.53,0,0,1-13,.7,32,32,0,0,1-13.37-3.37L194.35,174s3.76,1.8,6.27,1.8,3.35-.56,3.35-.56l8.53-17.05.51-.7,9.4,16.44A12.59,12.59,0,0,0,227,174a8,8,0,0,0,3.79-2.29Z"/><g id="_Группа_" data-name=" Группа "><ellipse id="_Контур_32" data-name=" Контур 32" class="cls-26" cx="212.46" cy="110.08" rx="10.75" ry="11.74"/><path id="_Контур_33" data-name=" Контур 33" class="cls-26" d="M222.71,121.62l3.53,5.49,13.82-14.54,3.43-.72a2.69,2.69,0,0,0,2.13-2.88l-.23-2.47a1.68,1.68,0,0,0-1.2-1.46l-3-.87a2,2,0,0,0-2.34.93l-2.73,4.75Z"/><path id="_Контур_34" data-name=" Контур 34" class="cls-26" d="M204.55,123.62l-5.14,5.09-11.79-18.1-4.51-1.91a2.6,2.6,0,0,1-1.46-3.18l1-3.09a2.23,2.23,0,0,1,2.72-1.47l3.23.89a2.26,2.26,0,0,1,1.58,1.61l1.19,4.58Z"/><path id="_Контур_37" data-name=" Контур 37" class="cls-18" d="M212.42,122.61l-9.37-1.46-6.16,8.43,3.78,3-2.87,11.85c11.77,8.38,29.37,2.79,29.37,2.79l-2.37-14.64,4.3-1.81-6.24-9.6-10.45,2Z"/><polygon id="_Контур_38" data-name=" Контур 38" class="cls-26" points="209.48 120.1 208.82 122.72 215.4 127.83 217.16 122.85 215.57 118.52 209.48 120.1"/><path id="_Контур_39" data-name=" Контур 39" class="cls-14" d="M202.61,114.79l25-15a.7.7,0,0,0,.23-1l0-.06h0a.7.7,0,0,0-.89-.18l-6.41,3.62s-1.84-5.11-9.4-4.63-10.57,6.24-10.21,10.09A26.22,26.22,0,0,0,202.61,114.79Z"/><circle id="_Контур_40" data-name=" Контур 40" class="cls-26" cx="207.09" cy="112.62" r="2.54"/></g></g></g></g></svg>