<svg id="Слой_1" data-name="Слой 1" xmlns="http://www.w3.org/2000/svg" xmlns:xlink="http://www.w3.org/1999/xlink" viewBox="0 0 610 330"><defs><style>.cls-1{fill:none;}.cls-2{clip-path:url(#clip-path);}.cls-3{fill:#f8f4dc;}.cls-4{fill:#f4efd0;}.cls-5{fill:#ff5365;}.cls-6{fill:#223c92;}.cls-7{fill:#33dcd9;}.cls-8{fill:#d63a51;}.cls-9{fill:#e5d591;}.cls-10{fill:#ffd7da;}.cls-11{fill:#ffefae;}.cls-12{fill:#04bab1;}.cls-13{fill:#ffb8bb;}.cls-14{fill:#00c8f6;}.cls-15{fill:#d82540;}.cls-16{fill:#47c7be;}</style><clipPath id="clip-path"><rect class="cls-1" width="610" height="330"/></clipPath></defs><title>Монтажная область 1</title><g class="cls-2"><g id="Слой_2" data-name="Слой 2"><g id="Слой_153" data-name="Слой 153"><g id="Слой_141" data-name="Слой 141"><rect id="_Прямоугольник_" data-name=" Прямоугольник " class="cls-3" x="0.19" width="1576.9" height="330"/></g><g id="Слой_142" data-name="Слой 142"><path id="_Контур_2" data-name=" Контур 2" class="cls-4" d="M190.12,273.08l-3.36-2.91a10.66,10.66,0,0,0-4.59-2.33L135.8,257.18a10.66,10.66,0,0,0-3.45-.22L95,260.72a10.65,10.65,0,0,0-5.74,2.4l-5.52,4.58a10.65,10.65,0,0,0-2.3,13.73h0a10.65,10.65,0,0,0,9.38,5.11l20.84-.54a10.65,10.65,0,0,1,5.37,1.29l2.74,1.49c3.08,2.82,16.33,13.83,34.09,12.3,16.86-1.45,23.53-1.49,29.26-6.18l0,0a10.63,10.63,0,0,0,1.1-.8l5.73-4.81a10.65,10.65,0,0,0,.14-16.2Z"/><path id="_Контур_4" data-name=" Контур 4" class="cls-4" d="M264.71,274.87,261.36,272a10.66,10.66,0,0,0-4.59-2.33L210.39,259a10.66,10.66,0,0,0-3.45-.22l-37.36,3.76a10.65,10.65,0,0,0-5.74,2.4l-5.52,4.58a10.65,10.65,0,0,0-2.3,13.73h0a10.65,10.65,0,0,0,9.38,5.11l20.84-.54a10.65,10.65,0,0,1,5.37,1.29l2.74,1.49c3.08,2.82,16.33,13.83,34.09,12.3,16.86-1.45,23.53-1.49,29.26-6.18l0,0a10.63,10.63,0,0,0,1.1-.8l5.73-4.81a10.65,10.65,0,0,0,.14-16.2Z"/><circle id="_Контур_5" data-name=" Контур 5" class="cls-5" cx="164.09" cy="276.23" r="2.9"/><circle id="_Контур_6" data-name=" Контур 6" class="cls-5" cx="156.41" cy="276.23" r="2.9"/><circle id="_Контур_7" data-name=" Контур 7" class="cls-5" cx="148.7" cy="276.23" r="2.9"/><circle id="_Контур_8" data-name=" Контур 8" class="cls-5" cx="141.13" cy="276.23" r="2.9"/><path id="_Контур_9" data-name=" Контур 9" class="cls-6" d="M150.66,256.9l-.5,9s10.65,2,12.19,2.41a2.44,2.44,0,0,1,.79,4.18c-4,2.52-22,1-23-.18s-.18-16.31-.18-16.31l11.34.94"/><path id="_Контур_10" data-name=" Контур 10" class="cls-6" d="M159.77,273.24c2.8,1.05,5.71,2.19,5.71,2.19v1.16H134.22s-1.08-3.34,5.85-4.31C140.07,272.28,157,272.19,159.77,273.24Z"/><circle id="_Контур_11" data-name=" Контур 11" class="cls-5" cx="237.19" cy="275.04" r="2.9"/><circle id="_Контур_12" data-name=" Контур 12" class="cls-5" cx="229.51" cy="275.04" r="2.9"/><circle id="_Контур_13" data-name=" Контур 13" class="cls-5" cx="221.8" cy="275.04" r="2.9"/><circle id="_Контур_14" data-name=" Контур 14" class="cls-5" cx="214.23" cy="275.04" r="2.9"/><path id="_Контур_15" data-name=" Контур 15" class="cls-6" d="M223.76,255.71l-.5,9s10.65,2,12.19,2.41a2.44,2.44,0,0,1,.79,4.18c-4,2.52-22,1-23-.18s0-11.48,0-11.48l11.21-3.88"/><path id="_Контур_16" data-name=" Контур 16" class="cls-6" d="M232.88,272c2.8,1.05,5.71,2.19,5.71,2.19v1.16H207.32s-1.08-3.34,5.85-4.31C213.17,271.08,230.08,271,232.88,272Z"/><circle id="_Контур_17" data-name=" Контур 17" class="cls-5" cx="196.1" cy="279.19" r="2.91" transform="translate(-145.02 285.6) rotate(-55.99)"/><circle id="_Контур_18" data-name=" Контур 18" class="cls-5" cx="189.32" cy="275.62" r="2.9" transform="translate(-145.05 277.69) rotate(-55.87)"/><circle id="_Контур_19" data-name=" Контур 19" class="cls-5" cx="182.94" cy="271.3" r="2.9" transform="translate(-144.27 270.51) rotate(-55.87)"/><circle id="_Контур_20" data-name=" Контур 20" class="cls-5" cx="176.67" cy="267.05" r="2.9" transform="translate(-143.5 263.46) rotate(-55.87)"/><path id="_Контур_21" data-name=" Контур 21" class="cls-6" d="M195.41,256.41,190,263.54s7.69,7.68,8.75,8.84a2.45,2.45,0,0,1-1.69,3.9c-4.71-.15-18.72-11.51-18.95-13.07s9-13.6,9-13.6l8.86,7.15"/><path id="_Контур_23" data-name=" Контур 23" class="cls-7" d="M601.41.6.19,0V239.85S175,269.45,230.68,182.63c29,16.19,151.76,50.85,292.24-82.54C551,109.83,691.45,137.67,781.05,61.9c27.27,14.81,95.6-2.35,95.6-45.13,56.09,90.86,282.81,204.77,433.8,42.42,28.74,101.48,194.79,101.75,266.64,91.72V0Z"/><path id="_Контур_24" data-name=" Контур 24" class="cls-6" d="M193.79,275c1.73,2.44,3.5,5,3.5,5l-.65,1-25.89-17.55s1-3.37,7.26-.3C178,263.18,192.06,272.59,193.79,275Z"/><g id="_Группа_" data-name=" Группа "><circle id="_Контур_25" data-name=" Контур 25" class="cls-5" cx="100.11" cy="275.57" r="2.89" transform="translate(-102.47 63.62) rotate(-23.74)"/><circle id="_Контур_26" data-name=" Контур 26" class="cls-5" cx="97.03" cy="268.58" r="2.89" transform="translate(-99.92 61.79) rotate(-23.74)"/><circle id="_Контур_27" data-name=" Контур 27" class="cls-5" cx="93.95" cy="261.56" r="2.89" transform="translate(-97.35 59.95) rotate(-23.74)"/><circle id="_Контур_28" data-name=" Контур 28" class="cls-5" cx="90.92" cy="254.67" r="2.89" transform="translate(-94.83 58.15) rotate(-23.74)"/><path id="_Контур_29" data-name=" Контур 29" class="cls-6" d="M112.58,256.19l-3.68-10.7s-14.14,5.26-14.77,6.69,4.24,18.11,8.13,20.72a2.43,2.43,0,0,0,3.48-2.39c-.27-1.54-1.77-11.77-1.77-11.77l8.35-3.13"/><path id="_Контур_30" data-name=" Контур 30" class="cls-6" d="M101.14,270.49c.16,3,.32,6.14.32,6.14l-1.05.46L87.88,248.58s2.6-2.32,6.27,3.6C94.13,252.18,101,267.52,101.14,270.49Z"/></g><polygon id="_Контур_31" data-name=" Контур 31" class="cls-8" points="104.41 261.57 104.39 256.27 99.33 256.55 99.47 259.45 104.41 261.57"/><polygon id="_Контур_32" data-name=" Контур 32" class="cls-8" points="153.86 266.95 149.51 263.14 146.08 267.49 148.56 269.46 153.86 266.95"/><path id="_Контур_33" data-name=" Контур 33" class="cls-9" d="M136.37,146.23s-2.19,18.93-16.17,18.56c-7-.19-10.94-2.61-12.87-4.37a2.15,2.15,0,0,0-3,.14l-.13.16h0a2.15,2.15,0,0,0,0,2.55c1.69,2.33,6.3,6.72,16.86,6.54,16.56-.28,25.1-20.5,25.1-20.5Z"/><path id="_Контур_34" data-name=" Контур 34" class="cls-10" d="M157.55,145.36s2,4,1.72,13.71S147.33,166,147.33,166l6,10.23s4.62,20.65,13.75,22.68,10.42-.73,10.42-.73,4-6.22,8.41-2.74,0,10.23-6.22,10.23-18.82,3.66-27.78-9-11.88-9.5-11.88-9.5-7.19,3.11-13,6.22c-2.19,2-7.85,4.75-20.43,7.39-1.74.74-5.57.47-7.85.22a5,5,0,0,1-3.23-1.71c-1.59-1.86-3.71-5.14-1.87-7.84,4.14-1.19,10.23,3.84,10.23,3.84s10.59-1.55,16.58-7.55,13.75-15.37,15.95-15.73,6.18-7.68,3.91-10.05-5.56-12.43-5.56-12.43Z"/><path id="_Контур_35" data-name=" Контур 35" class="cls-10" d="M161,221.6a31.35,31.35,0,0,1,1.94,10c0,5.11-15.15,29.07-15.15,29.07l-7.22-1.94s7-22.22,11.64-25.73c-1.23-2.81-6.34-7.92-6.34-7.92l-10.95-1s-2,17.44-5.42,20.26-28.77,16.74-28.77,16.74L97,253.15s15.15-11.64,23.61-12.86c0-3.52.7-14.62.7-14.62l19.73-7.22Z"/><path id="_Контур_36" data-name=" Контур 36" class="cls-6" d="M133.37,174.63l4.77-5.07s6.21,8.11,15.16,6.69c.87,3.28,1.15,25.93,1.15,25.93l9.38,20.27s-43.9,25.3-57.8-2.35c8.38-3.18,15.36-6.24,29.26-20.81,0,0,1.56-6-.12-9.91a38.64,38.64,0,0,0,5.09-2.39C140.88,177.63,136.77,175.06,133.37,174.63Z"/><path id="_Контур_37" data-name=" Контур 37" class="cls-11" d="M145.22,150.8l14-3.58s1.79-13.26-14-10.74-12.53,20.43-12.53,20.43-2.51,18.89-16.48,18.28c-7-.3-10.89-2.8-12.8-4.59a2.15,2.15,0,0,0-3,.08l-.14.16h0a2.15,2.15,0,0,0-.09,2.52c1.65,2.36,6.18,6.83,16.75,6.83,16.56,0,25.45-20.07,25.45-20.07s-6.45-1.79-3.58-6.45,5.73.92,5.73.92Z"/><ellipse id="_Контур_38" data-name=" Контур 38" class="cls-5" cx="126.96" cy="244.35" rx="6.02" ry="3.71" transform="translate(-136.27 163.5) rotate(-45.47)"/><ellipse id="_Контур_39" data-name=" Контур 39" class="cls-5" cx="161.94" cy="232.48" rx="6.03" ry="3.72" transform="translate(-82.72 375.36) rotate(-85.43)"/><polygon id="_Контур_40" data-name=" Контур 40" class="cls-5" points="123.52 244.34 119.09 240.6 120.69 238.63 125.6 242.42 123.52 244.34"/><polygon id="_Контур_41" data-name=" Контур 41" class="cls-5" points="158.92 229.66 151.22 231.18 151.79 233.59 158.92 232.68 158.92 229.66"/><path id="_Контур_42" data-name=" Контур 42" class="cls-12" d="M232,205.54l-7.89,57.59s-6.6,1.75-11.37,0c0-3,3.49-42.41,3.49-42.41l-24.47,42.67s-8-2-10.48-6.49c.75-1.72,8.32-10,11.61-20,4.48-13.65,10-26.78,10-26.78Z"/><polygon id="_Контур_43" data-name=" Контур 43" class="cls-13" points="207.76 172.86 194.79 190.59 183.05 198.12 178.32 198.12 178.32 205.88 184.79 205.88 187.16 201.75 199.28 194.96 210.24 183.03 207.76 172.86"/><path id="_Контур_44" data-name=" Контур 44" class="cls-13" d="M234.59,180.36a40.21,40.21,0,0,0,5,10.48,15.41,15.41,0,0,0,8.18,6.31l2.62,6.34-3.61,3.18-6.37-3.41v-3.91s-6.95-5.28-7.64-7.76c-.24-.9-1.73-2.27-2-3.69a14.25,14.25,0,0,1,0-5.28Z"/><path id="_Контур_45" data-name=" Контур 45" class="cls-5" d="M210,169.64s-9.23,5.47-10.57,14.66c0,0,4.65,7,5.2,9.21.12.48,1.58-.45,1.58,0,0,3.05-1.81,13.57-3.4,16.63,9.1.38,23.75.53,29.84-2.15a179.26,179.26,0,0,1-2.2-21.29l5.6-3.61s-5.4-13.7-16.28-14.55C211.87,167.92,210,169.64,210,169.64Z"/><path id="_Контур_46" data-name=" Контур 46" class="cls-13" d="M226.62,150.92c0,7.86-4.28,14.22-12.07,14.22a14.22,14.22,0,0,1,0-28.45C222.35,136.69,226.62,143.06,226.62,150.92Z"/><path id="_Контур_47" data-name=" Контур 47" class="cls-13" d="M209,160.52l.3,10.06,6.53,3.7a2.54,2.54,0,0,0,3.78-2l.23-3.7-2.86-8.06Z"/><path id="_Контур_48" data-name=" Контур 48" class="cls-6" d="M201.4,156.07s11.54-12.58,23.25-13.5c6.47-.51,9.72-.81,11.34-1a1.39,1.39,0,0,0,1.22-1.68h0a1.39,1.39,0,0,0-1.57-1.09l-12.29,1.06s-3.35-6.59-7.89-7.2-14,6.05-15,8.58S197.75,146.43,201.4,156.07Z"/><circle id="_Контур_49" data-name=" Контур 49" class="cls-13" cx="206.76" cy="151.71" r="3.44"/><g id="_Группа_2" data-name=" Группа 2"><path id="_Контур_50" data-name=" Контур 50" class="cls-4" d="M315.65,299.86s-1.64,7.56,9.58,7.83,9.72-7.83,9.72-7.83"/><path id="_Контур_51" data-name=" Контур 51" class="cls-4" d="M480.94,227.57s-22.29-2.24-42.76,8.27-38.33,1.71-44.58,15.93,30.83,28.16,30.83,28.16,16.57,6.49,38-8.63,59.63-8.86,67.3-12S546,241.38,546,241.38s2,9.43,9.65,10.39,9.65-10.39,9.65-10.39S530.78,209.69,480.94,227.57Z"/><circle id="_Контур_52" data-name=" Контур 52" class="cls-5" cx="510.28" cy="243.51" r="3.71"/><circle id="_Контур_53" data-name=" Контур 53" class="cls-5" cx="500.47" cy="243.51" r="3.71"/><circle id="_Контур_54" data-name=" Контур 54" class="cls-5" cx="490.62" cy="243.51" r="3.71"/><path id="_Контур_55" data-name=" Контур 55" class="cls-5" d="M477.23,241.7c0,2,1.66,5.52,3.71,5.52a3.71,3.71,0,0,0,0-7.42C478.9,239.8,477.23,239.65,477.23,241.7Z"/><path id="_Контур_56" data-name=" Контур 56" class="cls-5" d="M481.27,220.34s-2.94,14.82-1.59,16.31,21.75,5,28.35,2.55a3.22,3.22,0,0,0,1.95-1.87,3,3,0,0,0-1.92-4c-2-.48-15.58-3.09-15.58-3.09l2.45-8.73"/><polygon id="_Контур_57" data-name=" Контур 57" class="cls-8" points="497.82 231.03 492.49 226.37 488.3 231.68 491.33 234.09 497.82 231.03"/><path id="_Контур_58" data-name=" Контур 58" class="cls-8" d="M504.76,239.69c2.75,1,5.57,2.13,6.74,2.58a.87.87,0,0,1,.55.81h0a.88.88,0,0,1-.88.88l-37.25-1.81s-3.19-4.27,5.67-5.51C479.59,236.65,501.18,238.35,504.76,239.69Z"/><circle id="_Контур_59" data-name=" Контур 59" class="cls-5" cx="403.97" cy="219.75" r="3.71" transform="translate(156.3 607.24) rotate(-85.96)"/><circle id="_Контур_60" data-name=" Контур 60" class="cls-5" cx="404.66" cy="209.97" r="3.71" transform="translate(166.71 598.83) rotate(-85.96)"/><circle id="_Контур_61" data-name=" Контур 61" class="cls-5" cx="405.36" cy="200.14" r="3.71" transform="translate(177.16 590.39) rotate(-85.96)"/><circle id="_Контур_62" data-name=" Контур 62" class="cls-5" cx="406.04" cy="190.49" r="3.71" transform="translate(187.42 582.1) rotate(-85.96)"/><path id="_Контур_63" data-name=" Контур 63" class="cls-5" d="M428.24,191.56s-15.48-3.2-17.06-2-4.76,21.47-2.74,28.23a3.22,3.22,0,0,0,1.73,2.09,3,3,0,0,0,4.09-1.63c.62-1.93,4.18-15.32,4.18-15.32l7.63,3.06"/><polygon id="_Контур_64" data-name=" Контур 64" class="cls-8" points="417.32 208.21 422.35 203.23 417.35 198.67 414.72 201.52 417.32 208.21"/><path id="_Контур_65" data-name=" Контур 65" class="cls-8" d="M408.19,214.53c-1.22,2.66-2.52,5.41-3,6.54a.87.87,0,0,1-.85.5h0a.88.88,0,0,1-.81-.94l2.62-37.16s4.48-2.89,5.09,6C411.19,189.51,409.78,211.05,408.19,214.53Z"/><path id="_Контур_66" data-name=" Контур 66" class="cls-13" d="M513,119.95c0,7.63-5,13.81-12.33,13.81a13,13,0,0,1-9.72-4.43,14.09,14.09,0,0,1-3.52-9.37c0-7.63,5.92-13.81,13.23-13.81S513,112.31,513,119.95Z"/><polyline id="_Контур_67" data-name=" Контур 67" class="cls-13" points="484.09 134.37 491.43 143.11 497.58 133.09 491.48 125.85"/><path id="_Контур_68" data-name=" Контур 68" class="cls-13" d="M507.36,150.24l3.88,9.31,19-2.8,3.88-2.51a2.28,2.28,0,0,1,2.31-.09l1.71.92a2.28,2.28,0,0,1,.34,3.78l-2.56,2a2.57,2.57,0,0,1-1.61.55h-5.11s-17.88,8-20.69,6.68-8.49-12.35-8.49-12.35Z"/><path id="_Контур_69" data-name=" Контур 69" class="cls-13" d="M468.42,136.83l-27.81,12.62-8.91,3.23-1.58,2.43a1.76,1.76,0,0,0,.81,2.59l4.09,1.66a2.36,2.36,0,0,0,2.12-.17l6-3.67,31.47-12.95Z"/><path id="_Контур_70" data-name=" Контур 70" class="cls-6" d="M484.09,175.71s14.66,11.55,16.09,17.45-5.24,28.38-5.24,28.38l-13.67-1.19,2.51-21.84L465.3,186.94s-5.76,16.51-10.76,19.44-28.46-.36-28.46-.36l2.17-14.46,15.25-.6,10.88-22.84L473.26,161Z"/><path id="_Контур_71" data-name=" Контур 71" class="cls-5" d="M512.5,113.58l-24.91,9.18a19.26,19.26,0,0,1-1.81-8.41c0-5,3.11-10.95,10.85-11.86S512,102.48,512.5,113.58Z"/><path id="_Контур_72" data-name=" Контур 72" class="cls-14" d="M480.61,133.75c-4.62.07-12.21,1.49-15.4,3.43-1.05,2.32,3.48,11.52,3.48,11.52l-21.23,22.71s26.72-4.62,38.24,6c6.11-8.22,9.35-20.29,9.35-20.29l3.2,5.06,10.28-10.32s-1.72-7.26-14.66-14.72A25.79,25.79,0,0,0,480.61,133.75Z"/><path id="_Контур_73" data-name=" Контур 73" class="cls-15" d="M522,112.49h-10a21.17,21.17,0,0,0-3.06,1c-2,.76-4.45,1.83-5,2.93,0,0,6.66-1.58,11.12-2.17H522a.9.9,0,1,0,0-1.79Z"/><ellipse id="_Контур_74" data-name=" Контур 74" class="cls-13" cx="495.33" cy="120.38" rx="3.36" ry="3.88"/><polygon id="_Контур_75" data-name=" Контур 75" class="cls-5" points="325.3 276.3 334.95 299.86 325.3 299.86 315.65 299.86 325.3 276.3"/><polygon id="_Контур_76" data-name=" Контур 76" class="cls-5" points="428.53 242.88 438.18 266.45 428.53 266.45 418.88 266.45 428.53 242.88"/><polygon id="_Контур_77" data-name=" Контур 77" class="cls-5" points="555.64 217.82 565.29 241.38 555.64 241.38 545.99 241.38 555.64 217.82"/></g><path id="_Контур_78" data-name=" Контур 78" class="cls-16" d="M1577.09,330V301.22l-527.42-1.89a64.75,64.75,0,0,1-16.85-2.29L895.9,259.61A157.19,157.19,0,0,0,854.07,254l-240.34.6a103.93,103.93,0,0,0-29,4.2L331.26,330Z"/></g></g></g></g></svg>