<svg id="Слой_1" data-name="Слой 1" xmlns="http://www.w3.org/2000/svg" xmlns:xlink="http://www.w3.org/1999/xlink" viewBox="0 0 400 260"><defs><style>.cls-1,.cls-10,.cls-11,.cls-20,.cls-23,.cls-24,.cls-26,.cls-27{fill:none;}.cls-2{clip-path:url(#clip-path);}.cls-3{fill:#f8f4dc;}.cls-4{fill:#47c7be;}.cls-5{fill:#f4efd0;}.cls-6{fill:#142d75;}.cls-7{fill:#0090ad;}.cls-8{fill:#33dcd9;}.cls-9{fill:#112560;}.cls-10,.cls-23{stroke:#00c8f6;stroke-miterlimit:10;}.cls-10{stroke-width:4.82px;}.cls-11,.cls-27{stroke:#ff5365;}.cls-11,.cls-20,.cls-24,.cls-26,.cls-27{stroke-linecap:round;stroke-linejoin:round;}.cls-11{stroke-width:4.22px;}.cls-12{fill:#223c92;}.cls-13{fill:#ffb8bb;}.cls-14{fill:#ffefae;}.cls-15{fill:#ce384e;}.cls-16{fill:#00c8f6;}.cls-17{fill:#ff5365;}.cls-18{fill:#385aba;}.cls-19{fill:#f2c4c8;}.cls-20,.cls-24,.cls-26{stroke:#223c92;}.cls-20{stroke-width:6.03px;}.cls-21{clip-path:url(#clip-path-2);}.cls-22{fill:#09b9d6;}.cls-23{stroke-width:3.22px;}.cls-24{stroke-width:2.68px;}.cls-25{fill:#00d3cf;}.cls-26{stroke-width:2.41px;}.cls-27{stroke-width:2.9px;}</style><clipPath id="clip-path"><rect class="cls-1" x="-425" width="402" height="260"/></clipPath><clipPath id="clip-path-2"><rect class="cls-1" x="1" width="399" height="260"/></clipPath></defs><title>Монтажная область 4</title><g class="cls-2"><g id="Слой_2" data-name="Слой 2"><g id="Слой_153_копия2_" data-name="Слой 153 копия2 "><g id="Слой_141_копия2_" data-name="Слой 141 копия2 "><rect id="_Прямоугольник_" data-name=" Прямоугольник " class="cls-3" x="-424.89" y="0.33" width="1245.88" height="260.73"/></g><g id="Слой_166" data-name="Слой 166"><path id="_Контур_2" data-name=" Контур 2" class="cls-4" d="M-21.77.33H-424.89V132.08l45.64,57.09a81.41,81.41,0,0,0,62.47,29.21l384.25-.33a54.65,54.65,0,0,0,46.28-24.64L240.6.33Z"/><path id="_Контур_6" data-name=" Контур 6" class="cls-5" d="M313.25,232.94c1.21-3.75-20.06-2.71-21.81-2.63,0,0-10.82-3.4-24.81,1.11s-13.35,8.81-11.6,12,10.2,7.48,10.2,7.48c18.88,7.22,52.81,5.62,74.32.47C360.86,246.24,334.58,228,313.25,232.94Z"/><path id="_Контур_7" data-name=" Контур 7" class="cls-5" d="M432.32,201c2-3.77-31.53-2.2-34.28-2.07,0,0-16.95-3.13-39.1,1.75s-21.25,9.16-18.58,12.26,15.88,7.24,15.88,7.24c29.55,6.74,83,4.27,117.06-1.43C507,213.11,466.06,195.48,432.32,201Z"/><path id="_Контур_40" data-name=" Контур 40" class="cls-6" d="M66.18,89.79c9.42,7.78,19.08,0,19.08,0V116.9s16.16-14.82,16.67-19.41,8.94-3.06,8.94-3.06-16.07,24.75-25,31.9c0,3.06-1.78,19.91,4.34,26.29a50.87,50.87,0,0,0,13,9.7s-9.7,1.53-16.85-2c-3.19,2.08-4.71,10.37-5.45,13.2-.39,1.52-1.91,1.6-2.83.33,0,0-1.89-11.29-6.76-13.18H68.73a13.74,13.74,0,0,0-8,2.64l-7.78,5.66s0-7.39,8.67-18.87C69.86,139.12,64.44,87,66.18,89.79Z"/><path id="_Контур_41" data-name=" Контур 41" class="cls-6" d="M302.24,60.91h-19V88.11s-16.2-14.82-16.71-19.41-9-3.06-9-3.06,16.06,24.75,25,31.9c0,3.06,1.78,19.91-4.35,26.29a50.86,50.86,0,0,1-13,9.7s9.7,1.53,16.84-2c3.19,2.08,4.71,10.37,5.45,13.2.39,1.52,1.91,1.61,2.83.34,0,0,1.89-11.28,6.76-13.17h2.59a13.72,13.72,0,0,1,8,2.63l7.78,5.64s0-7.43-8.68-18.92C298.56,110.29,302.24,60.91,302.24,60.91Z"/><path id="_Контур_42" data-name=" Контур 42" class="cls-4" d="M213.61,136.71,300.57.33H821V166.49l-591.07,0A19.35,19.35,0,0,1,213.61,136.71Z"/><path id="_Контур_43" data-name=" Контур 43" class="cls-7" d="M38.34,22.2C-5.3-23.31-16.41,18.75-16.41,18.75c-35.2-1.78-42.72,37.57-45,45.87C-110,62.71-103.4,121.37-72,118.7c-19.31,54.23,44.27,69.54,65.89,46.14C88.38,188.74,76.24,61.72,38.34,22.2Z"/><path id="_Контур_44" data-name=" Контур 44" class="cls-7" d="M254.06,50.18c9.42,7.78,19.08,0,19.08,0V77.29S289.3,62.48,289.8,57.88s8.94-3.06,8.94-3.06-16.07,24.75-25,31.9c0,3.06-1.78,19.91,4.34,26.29a50.87,50.87,0,0,0,13,9.7s-9.7,1.53-16.85-2c-3.19,2.08-4.71,10.37-5.45,13.2-.39,1.52-1.91,1.6-2.83.33,0,0-1.89-11.29-6.76-13.18h-2.59a13.74,13.74,0,0,0-8,2.64l-7.78,5.66s0-7.39,8.67-18.87C257.74,99.52,252.32,47.43,254.06,50.18Z"/></g><path id="_Контур_64" data-name=" Контур 64" class="cls-7" d="M721.87.47S698.17,84.82,591.49,38,481,67.67,437.44,83.41s-98.82,34.06-116,1.19S334.65.87,334.65.87Z"/><path id="_Контур_65" data-name=" Контур 65" class="cls-8" d="M-33.06.33s-2.2,62.79,32.7,89.34S68.5,95,68.5,95s30.88,46.13,99.43,26.19S215.87,38,215.87,38s41.6,9.71,84.71-37.66Z"/><path id="_Контур_66" data-name=" Контур 66" class="cls-8" d="M228.45.33s6.63,65.41,87,83.08S404.17,38,404.17,38s-13.65,32.35,23.25,60.7,64-6.93,84.81-15.42S624.7,118.27,627.06,0Z"/><g id="_Группа_7" data-name=" Группа 7"><polygon id="_Контур_67" data-name=" Контур 67" class="cls-9" points="399.69 155.76 409.88 204.71 424.27 204.71 426.77 202.22 424.25 200.1 416.98 198.43 414.8 140.8 396.22 144.55 399.69 155.76"/><g id="_Группа_8" data-name=" Группа 8"><circle id="_Контур_68" data-name=" Контур 68" class="cls-10" cx="367.3" cy="186.75" r="20.74" transform="translate(179.08 553.3) rotate(-89.77)"/><polyline id="_Контур_69" data-name=" Контур 69" class="cls-11" points="400.74 184.79 367.71 186.51 395.15 165.31 435.43 154.56 437.16 159.27 400.83 184.63 389.8 147.1"/></g><polyline id="_Контур_76" data-name=" Контур 76" class="cls-12" points="402.44 212.02 406.8 212.02 406.8 208.23 400.6 203.59 402.34 161.02 402.93 146.36 385.74 148.77"/><path id="_Контур_77" data-name=" Контур 77" class="cls-13" d="M392.45,110.65s-18.93,17.5-23.66,33.2c-.71,4.48,2.45,5.91,2.45,5.91l4.91-3.27-.53-5.33s9.81-16.84,16.82-18.42S392.45,110.65,392.45,110.65Z"/><path id="_Контур_78" data-name=" Контур 78" class="cls-14" d="M406.82,110.35s-10.27-3.57-16.56,0c.45,5.85.22,15.7.22,15.7l2.59-1.38-9.59,25.09c0,8,32.85,0,32.85,0l2-24.32,2.34.66,1.65-14.3Z"/><g id="_Группа_9" data-name=" Группа 9"><ellipse id="_Контур_80" data-name=" Контур 80" class="cls-13" cx="411.79" cy="93.85" rx="14.3" ry="13.24" transform="translate(199.6 459.02) rotate(-72.68)"/><ellipse id="_Контур_81" data-name=" Контур 81" class="cls-13" cx="400.61" cy="95.68" rx="3.31" ry="3.13" transform="translate(188.74 448.88) rotate(-72.47)"/><path id="_Контур_83" data-name=" Контур 83" class="cls-12" d="M425.44,90.71S428.31,78,414.62,75.46c-9.14-1.67-12.93,3.81-14.43,7.64,0,0-6.45,2.39-5.52,2.55,0,0,6.32-1.93,5.45-1.26A105.81,105.81,0,0,0,425.44,90.71Z"/><path id="_Контур_84" data-name=" Контур 84" class="cls-15" d="M414.63,89s-5.47-7.8-14.44-5.87c0,0-6.13.83-6.28,1.77s-.17.62.77.79a18.76,18.76,0,0,1,5.59-.35A97.25,97.25,0,0,1,414.63,89Z"/></g></g><g id="Слой_102_копия_" data-name="Слой 102 копия "><g id="Слой_77_копия_" data-name="Слой 77 копия "><g id="_Группа_10" data-name=" Группа 10"><path id="_Контур_86" data-name=" Контур 86" class="cls-16" d="M305.86,229.3s-.36,3.59-9.06-1.41-8.83-4.29-8.63-6Z"/><path id="_Контур_87" data-name=" Контур 87" class="cls-17" d="M299.79,219.13s-6.32-.91-8.63-2.44c-2.33,1.1-3,5.21-3,5.21s13.34,8.53,16.6,7.9c2.15-.34,1.53-2.69.12-3.79S302.4,224.4,299.79,219.13Z"/></g></g><path id="_Контур_88" data-name=" Контур 88" class="cls-18" d="M300.39,181.4l16.56,1.84a6.32,6.32,0,0,1,5.31,8.25l-5.81,17.79,7.12,1.5a1.72,1.72,0,0,1,.93.54l.2.24a1.72,1.72,0,0,1,.13,2.12h0a1.72,1.72,0,0,1-1.49.74l-12.27,1.32a1.47,1.47,0,0,1-1.63-1.46V194.61l-13.29-8.67Z"/><path id="_Контур_89" data-name=" Контур 89" class="cls-12" d="M300.36,176.1l14.07,13.57a6.72,6.72,0,0,1,1,8.47L300.74,221s-9.37-1.06-10.37-4.14L302,196.54s-17.52-5.3-19.61-7.81a8,8,0,0,1-1.7-5.58Z"/><polygon id="_Контур_90" data-name=" Контур 90" class="cls-13" points="292.48 131.17 294.93 142.29 286.46 137.23 285.17 127.38 292.48 131.17"/><polygon id="_Контур_91" data-name=" Контур 91" class="cls-19" points="294.93 144.57 306.3 162.29 321.74 165.46 328.4 169.15 327.42 172.3 320.95 172.6 318.49 170.12 303.43 170.97 295.82 159.04 294.93 144.57"/><path id="_Контур_92" data-name=" Контур 92" class="cls-16" d="M286.46,137.23c-4.41-1.07-7.17,10.6-7.17,10.6l-1.59,35.25s16.67,1.82,23.81-5.45l-2.2-21S300.06,140.54,286.46,137.23Z"/><circle id="_Контур_93" data-name=" Контур 93" class="cls-20" cx="300.66" cy="224.98" r="20.72"/><ellipse id="_Контур_94" data-name=" Контур 94" class="cls-16" cx="320.11" cy="188.78" rx="3.15" ry="5.97" transform="matrix(0.94, -0.35, 0.35, 0.94, -46.11, 125.59)"/><path id="_Контур_95" data-name=" Контур 95" class="cls-16" d="M301.9,195.47l7.8-1.12c0-3.36,1.32-6.06,3.14-6.17s3.69,2.77,3.91,6.45-1.18,6.76-3.11,6.88c-1.62.1-3.12-1.91-3.69-4.73l-7.64,1.28a1.31,1.31,0,0,1-1.48-.94h0a1.31,1.31,0,0,1,.91-1.61Z"/><g id="Слой_103_копия_" data-name="Слой 103 копия "><g id="_Группа_12" data-name=" Группа 12"><path id="_Контур_96" data-name=" Контур 96" class="cls-19" d="M303.75,119.34s.36,8.23-.65,11.68-4.29,4.46-8.08,4.07-11-3.64-11.27-17.12c4.84-2.46,18.14-3.54,18.14-3.54Z"/><g id="_Группа_13" data-name=" Группа 13"><g id="_Группа_14" data-name=" Группа 14"><polygon id="_Контур_97" data-name=" Контур 97" class="cls-17" points="292.44 120.38 293.52 129.35 285.21 128.06 284.95 129.35 294.39 131.25 296.27 130.29 294.98 119.52 292.44 120.38"/></g><path id="_Контур_98" data-name=" Контур 98" class="cls-18" d="M289.33,124.13s14.76-4.18,17.73-6.41c-1-3.12-8-15.9-23.61-7.72-12.69,6.65-2.83,18.32-2.83,18.32s4.45,4,7.21,2.59S289.33,124.13,289.33,124.13Z"/></g></g><path id="_Контур_99" data-name=" Контур 99" class="cls-19" d="M266.46,161.58l13.26-17.47a4.73,4.73,0,0,1,3.77-1.87h0a4.73,4.73,0,0,1,4.73,4.73v.85a4.73,4.73,0,0,1-1.39,3.35L274,164l-.71,17.41-5.79,5.36-5.17-.7,1.47-6.08,4.71-2.28Z"/></g></g></g></g></g><g class="cls-21"><g id="Слой_2-2" data-name="Слой 2"><g id="Слой_153_копия3_" data-name="Слой 153 копия3 "><g id="Слой_141_копия3_" data-name="Слой 141 копия3 "><rect id="_Прямоугольник_2" data-name=" Прямоугольник " class="cls-3" x="0.23" y="0.41" width="1245.53" height="261.59"/></g><g id="Слой_166_копия_" data-name="Слой 166 копия "><path id="_Контур_" data-name=" Контур " class="cls-4" d="M412.81.41H.22l.5,71.79L123.06,152a38.15,38.15,0,0,0,35.14,3.41L330.55,85.7a57.21,57.21,0,0,1,52,4.71l30.28,19.14Z"/><path id="_Контур_2-2" data-name=" Контур 2" class="cls-4" d="M1.74,218.64l49.1-19.85a9.7,9.7,0,0,0,1.74-17.06L1.25,147.54Z"/><polygon id="_Контур_3" data-name=" Контур 3" class="cls-3" points="0.23 71.97 0.23 146.93 1.2 147.54 0.64 72.22 0.23 71.97"/><path id="_Контур_4" data-name=" Контур 4" class="cls-8" d="M.35,179.88s50.33,24.33,55.37-26.48c12.09-.47,35.91-55.44-8.51-57.56C46,86.48,32.3,48.91.72,72.22,1.24,147.54.35,179.88.35,179.88Z"/><path id="_Контур_5" data-name=" Контур 5" class="cls-5" d="M235.67,241.71c-5.74-6.07,2.93-16.83,47.77-15.63s55.27,2.92,60.7,5,20.86,13.76,0,18.55-48.39-.61-60.7,0S241.4,247.78,235.67,241.71Z"/><g id="_Группа_" data-name=" Группа "><path id="_Контур_6-2" data-name=" Контур 6" class="cls-16" d="M312.47,235.38s1.29,3.72,9.26-3.8,8.28-6.79,7.63-8.55Z"/><path id="_Контур_7-2" data-name=" Контур 7" class="cls-17" d="M316.31,223s6.47-2.57,8.54-4.78c2.75.58,4.5,4.77,4.5,4.77s-12,12.44-15.6,12.6c-2.37.19-2.3-2.46-1.09-4S314.89,229.31,316.31,223Z"/></g><polygon id="_Контур_8" data-name=" Контур 8" class="cls-13" points="280.31 117.62 259.17 150.63 250.94 150.63 251.09 155.21 259.82 156.88 265.62 151.65 277.24 136.94 280.31 117.62"/><g id="_Группа_2" data-name=" Группа 2"><path id="_Контур_9" data-name=" Контур 9" class="cls-16" d="M268.86,227.87s-1.39,3.68,9.54,3,10.71.09,11.34-1.68Z"/><path id="_Контур_10" data-name=" Контур 10" class="cls-17" d="M279.72,220.86s6.62,2.17,9.62,1.8c1.74,2.21.4,6.55.4,6.55s-17.17,1.88-20-.32c-1.94-1.38-.19-3.36,1.72-3.77S274.62,224.76,279.72,220.86Z"/></g><path id="_Контур_11" data-name=" Контур 11" class="cls-22" d="M305,153.69s3.24,19,9.26,35.24,14.81,29.92,14.47,30.63a57.83,57.83,0,0,1-12.51,4.08L293.27,169l-9.91,22.6L290,222.75s-11.47,3.2-13.42,0-4.3-34.53-4.3-34.53l9.56-34.53Z"/><path id="_Контур_12" data-name=" Контур 12" class="cls-17" d="M294.25,115.08s6.58-2.19,10.15,6.4c1.46,3.52-.62,24.31-.62,24.31l2.12,10.36c-16.38,9.84-24.77,5.13-26.23,1.54-.89-2.18-2.55-13.15-2.42-23.49.08-6.63.91-12.86,3.13-16.52,3.8-6.26,11.74-2.61,11.74-2.61Z"/><circle id="_Контур_13" data-name=" Контур 13" class="cls-13" cx="290.91" cy="94.17" r="13.22"/><polygon id="_Контур_14" data-name=" Контур 14" class="cls-13" points="295.25 105.1 295.25 113.9 297.9 114.81 284.65 123.04 284.65 113.9 287.27 112.99 288.96 104.11 295.25 105.1"/><path id="_Контур_15" data-name=" Контур 15" class="cls-13" d="M304.62,135.69l-.69,8.66a6,6,0,0,1-3,4.55l-19.34,10.87-5.82,2.63-5.95-1.85v-3.77l5.2-2.88,4.52,1.11,15.8-11.79s-.5-4.35-.69-9.84Z"/><path id="_Контур_16" data-name=" Контур 16" class="cls-14" d="M288.38,92.95l-11.14-3.77s3.53-10,13-9.39S301,84,304.95,88.8s9.26,18.78,16.07,18.59c.11,0-7.19,7.85-15.13,5s-10.56-1.6-10.56-1.6l-.19-14.38Z"/><circle id="_Контур_17" data-name=" Контур 17" class="cls-13" cx="294.14" cy="97.52" r="3.35"/><g id="_Группа_3" data-name=" Группа 3"><circle id="_Контур_18" data-name=" Контур 18" class="cls-12" cx="303.81" cy="232.04" r="8.66"/><circle id="_Контур_19" data-name=" Контур 19" class="cls-12" cx="303.83" cy="232.06" r="6.62"/><circle id="_Контур_20" data-name=" Контур 20" class="cls-12" cx="248.93" cy="232.04" r="8.66"/><circle id="_Контур_21" data-name=" Контур 21" class="cls-12" cx="248.95" cy="232.06" r="6.62"/><path id="_Контур_22" data-name=" Контур 22" class="cls-16" d="M251.91,219.08l10.52,14.19h41.2a1.23,1.23,0,0,0,1.28-1.17s0-.06,0-.08h0a1.31,1.31,0,0,0-1.29-1.33h0l-36.87-.19-.06-2.06a3.84,3.84,0,0,0-1.29-2.8,3.56,3.56,0,0,0-4.06-.47c-.61-.74-8.78-11.21-8.78-11.21Z"/><line id="_Контур_23" data-name=" Контур 23" class="cls-23" x1="258.99" y1="180.53" x2="250.67" y2="221.57"/><line id="_Контур_24" data-name=" Контур 24" class="cls-24" x1="263.86" y1="157.06" x2="259.17" y2="179.64"/><rect id="_Прямоугольник_2-2" data-name=" Прямоугольник 2" class="cls-12" x="257.46" y="177" width="3.45" height="5.99" rx="1.48" ry="1.48" transform="translate(34.59 401.64) rotate(-79.4)"/><rect id="_Прямоугольник_3" data-name=" Прямоугольник 3" class="cls-12" x="250.84" y="208.4" width="3.45" height="5.99" rx="1.48" ry="1.48" transform="translate(-1.69 420.77) rotate(-79.4)"/><path id="_Контур_25" data-name=" Контур 25" class="cls-16" d="M249.46,219.8l2.47.61a1.18,1.18,0,0,1,.87,1.42v0l-2.68,10.73a1.65,1.65,0,0,1-1.79,1.25h0a1.65,1.65,0,0,1-1.48-1.62l1.57-11.71a.84.84,0,0,1,.94-.72Z"/><path id="_Контур_26" data-name=" Контур 26" class="cls-16" d="M294.41,231.87a9.63,9.63,0,0,1,14.92-8.05.89.89,0,0,0,1.19-.2h0a.89.89,0,0,0-.14-1.26l0,0a11.39,11.39,0,0,0-17.74,11.1l1.87-.47A9.73,9.73,0,0,1,294.41,231.87Z"/><g id="_Группа_4" data-name=" Группа 4"><rect id="_Прямоугольник_4" data-name=" Прямоугольник 4" class="cls-12" x="262.68" y="151.26" width="2.43" height="10.62" transform="matrix(0.18, -0.98, 0.98, 0.18, 61.49, 387.2)"/><rect id="_Прямоугольник_5" data-name=" Прямоугольник 5" class="cls-12" x="269.54" y="153.53" width="4.18" height="8.88" rx="0.99" ry="0.99" transform="translate(66.42 395.94) rotate(-79.41)"/><rect id="_Прямоугольник_6" data-name=" Прямоугольник 6" class="cls-12" x="253.59" y="150.55" width="4.18" height="8.88" rx="0.99" ry="0.99" transform="translate(56.33 377.83) rotate(-79.41)"/></g></g><g id="_Группа_5" data-name=" Группа 5"><circle id="_Контур_27" data-name=" Контур 27" class="cls-13" cx="146.27" cy="142.64" r="12.67"/><path id="_Контур_28" data-name=" Контур 28" class="cls-17" d="M157.26,149.49l-25.94-18.9a1.05,1.05,0,0,1-.24-1.47h0a1.05,1.05,0,0,1,1.47-.24L138,132.3s6.14-4.47,9.71-4.63,9.13,4.55,11.22,7.77S161.88,143.11,157.26,149.49Z"/><polygon id="_Контур_29" data-name=" Контур 29" class="cls-13" points="156.22 162.47 175.68 168.2 179.17 166.68 181.72 170.47 179.58 175.21 174.34 172.06 153.27 168.2 156.22 162.47"/><polygon id="_Контур_30" data-name=" Контур 30" class="cls-13" points="132.72 156.22 113.53 148.67 111.78 145.23 107.62 146.58 108.97 151.14 112.99 151.96 131.15 161.58 132.72 156.22"/><path id="_Контур_31" data-name=" Контур 31" class="cls-5" d="M97,224.2s2.59-14.93,42.39-13.87,49.05,2.59,53.86,4.42,18.51,12.21,0,16.46-42.94-.55-53.86,0S109.54,233.3,97,224.2Z"/><path id="_Контур_32" data-name=" Контур 32" class="cls-25" d="M127.38,181.75l.63,27.48-3.19,1.68a2.26,2.26,0,0,0-1.21,2v1l12.51.24,1.3-25.1,12.48,20-3,1.79a2.57,2.57,0,0,0-1.24,2.3l0,1.06,13.62,0-.5-5.14-8.39-24.81Z"/><circle id="_Контур_33" data-name=" Контур 33" class="cls-13" cx="150.79" cy="144.63" r="3.07"/><polygon id="_Контур_34" data-name=" Контур 34" class="cls-13" points="148.84 153.81 146.13 160.52 139.95 161.3 139.35 157.55 141.62 152.3 148.84 153.81"/><path id="_Контур_35" data-name=" Контур 35" class="cls-12" d="M157.3,162.43s-14.5-7.63-25.78-7.13c-.27,0-3.62,8.43-3.62,8.43l2.57,1.38-3.24,17.4s17.19,6.59,24.56,2.83c-.81-4.57.4-14.45.4-14.45l2.28.62Z"/><g id="_Группа_6" data-name=" Группа 6"><circle id="_Контур_36" data-name=" Контур 36" class="cls-12" cx="167.24" cy="215.35" r="5.96"/><circle id="_Контур_37" data-name=" Контур 37" class="cls-12" cx="114.14" cy="215.35" r="5.96"/><line id="_Контур_38" data-name=" Контур 38" class="cls-26" x1="124.39" y1="164.22" x2="119.51" y2="187.8"/><path id="_Контур_39" data-name=" Контур 39" class="cls-17" d="M117.06,206.1s4.62,8.81,4.71,10.46h45a1.27,1.27,0,0,0,1.32-1.15v0a1.27,1.27,0,0,0-1.25-1.22L125.71,214l-8.12-16.48Z"/><line id="_Контур_40-2" data-name=" Контур 40" class="cls-27" x1="119.75" y1="186.87" x2="113.87" y2="215.35"/><path id="_Контур_41-2" data-name=" Контур 41" class="cls-17" d="M160.5,215.35a7.3,7.3,0,0,1,11.33-6.12.68.68,0,0,0,.9-.16h0a.68.68,0,0,0-.11-1l0,0a8.64,8.64,0,0,0-13.46,8.43l1.41-.35A7.39,7.39,0,0,1,160.5,215.35Z"/><g id="_Группа_7-2" data-name=" Группа 7"><rect id="_Прямоугольник_7" data-name=" Прямоугольник 7" class="cls-12" x="123.33" y="159" width="2.19" height="9.56" transform="translate(-59.44 255.99) rotate(-79.41)"/><rect id="_Прямоугольник_8" data-name=" Прямоугольник 8" class="cls-17" x="129.5" y="161.05" width="3.76" height="8" rx="0.89" ry="0.89" transform="matrix(0.18, -0.98, 0.98, 0.18, -54.99, 263.86)"/><rect id="_Прямоугольник_9" data-name=" Прямоугольник 9" class="cls-17" x="115.14" y="158.36" width="3.76" height="8" rx="0.89" ry="0.89" transform="translate(-64.08 247.56) rotate(-79.41)"/></g></g></g></g></g></g></g></svg>