<svg id="Слой_1" data-name="Слой 1" xmlns="http://www.w3.org/2000/svg" xmlns:xlink="http://www.w3.org/1999/xlink" viewBox="0 0 610 330"><defs><style>.cls-1,.cls-17{fill:none;}.cls-2{clip-path:url(#clip-path);}.cls-3{fill:#f8f4dc;}.cls-4{fill:#ffb8bb;}.cls-5{fill:#0090ad;}.cls-6{fill:#33dcd9;}.cls-7{fill:#47c7be;}.cls-8{fill:#f4efd0;}.cls-9{fill:#223c92;}.cls-10{fill:#ffefae;}.cls-11{fill:#142d75;}.cls-12{fill:#ff5365;}.cls-13{fill:#d63a51;}.cls-14{fill:#efafb7;}.cls-15{fill:#00c8f6;}.cls-16{clip-path:url(#clip-path-2);}.cls-17{stroke:#0090ad;stroke-linecap:round;stroke-linejoin:round;stroke-width:4.22px;}.cls-18{fill:#152d72;}.cls-19{fill:#00d3cf;}.cls-20{fill:#5fdde0;}</style><clipPath id="clip-path"><rect class="cls-1" x="-630" width="610" height="330"/></clipPath><clipPath id="clip-path-2"><rect class="cls-1" y="2" width="610" height="330"/></clipPath></defs><title>Монтажная область 2</title><g class="cls-2"><g id="Слой_2" data-name="Слой 2"><g id="Слой_153" data-name="Слой 153"><g id="Слой_141" data-name="Слой 141"><rect id="_Прямоугольник_" data-name=" Прямоугольник " class="cls-3" x="-629.81" width="1576.9" height="330"/><path id="_Контур_" data-name=" Контур " class="cls-4" d="M513.47,145.61l16.87,7.07,7.92,19.93,5.74,1.27a2.26,2.26,0,0,1,1.77,2.21v2.64l-2.09,1.61a3.35,3.35,0,0,1-3.06.55L534.75,179a2.2,2.2,0,0,1-1.35-1.21l-8.65-19.72-13.49-2.52L513.61,145"/></g><g id="Слой_142" data-name="Слой 142"><path id="_Контур_3" data-name=" Контур 3" class="cls-5" d="M743.69,82.72S627.85,169.31,536.62,125C589.1,65.36,683.87,18,683.87,18Z"/><path id="_Контур_22" data-name=" Контур 22" class="cls-5" d="M251.88,15.16C263.8,25,275.45,35.43,275.45,35.43V69.74S295.88,51,296.53,45.17s11.31-3.88,11.31-3.88-20.35,31.33-31.66,40.38c0,3.88-2.26,25.2,5.49,33.27a64.4,64.4,0,0,0,16.48,12.28s-12.28,1.94-21.32-2.58c-4,2.63-6,13.13-6.9,16.71-.5,1.93-2.42,2.14-3.58.53,0,0-2.39-14.18-8.56-16.57H254.5a17.28,17.28,0,0,0-10.14,3.24l-9.85,7.1s0-9.38,11-23.91C255.94,97.9,249.7,11.67,251.88,15.16Z"/><path id="_Контур_23" data-name=" Контур 23" class="cls-6" d="M-28.59.6-629.81,0V239.85s174.85,29.6,230.49-57.22c29,16.19,151.76,50.85,292.24-82.54C-79,109.83,61.45,137.67,151.05,61.9c27.27,14.81,95.6-2.35,95.6-45.13,56.09,90.86,282.81,204.77,433.8,42.42,28.74,101.48,194.79,101.75,266.64,91.72V0Z"/><path id="_Контур_78" data-name=" Контур 78" class="cls-7" d="M947.09,330V301.22l-527.42-1.89A64.75,64.75,0,0,1,402.82,297L265.9,259.61A157.19,157.19,0,0,0,224.07,254l-240.34.6a103.93,103.93,0,0,0-29,4.2L-298.74,330Z"/><path id="_Контур_79" data-name=" Контур 79" class="cls-8" d="M45.05,213.1s14.92-18.95,43-23.34,70.7-2.07,70.7-2.07,45.17,14,60.43,13.4,15.26.86,15.26,5.95S224.26,226.85,206,226.86s-50.25-6.91-68.66-6.52-6.24,22.58-38.75,21.32S23.4,239.89,45.05,213.1Z"/><path id="_Контур_80" data-name=" Контур 80" class="cls-8" d="M546.15,273.28c-18.25,2.5-24.14,11.25-56.65,10s-50.42-6.16-28.76-32.94c0,0,7.84-10.82,35.94-15.22s75.24,1.43,86.51,16.6S552.69,272.39,546.15,273.28Z"/></g><g id="Слой_101_копия_2" data-name="Слой 101 копия 2"><circle id="_Контур_82" data-name=" Контур 82" class="cls-9" cx="91.76" cy="227.48" r="1.41"/><circle id="_Контур_83" data-name=" Контур 83" class="cls-9" cx="95.18" cy="227.48" r="1.41"/><circle id="_Контур_84" data-name=" Контур 84" class="cls-9" cx="98.6" cy="227.48" r="1.41"/><circle id="_Контур_85" data-name=" Контур 85" class="cls-9" cx="102.02" cy="227.48" r="1.41"/><circle id="_Контур_86" data-name=" Контур 86" class="cls-9" cx="70.98" cy="227.48" r="1.41"/><circle id="_Контур_87" data-name=" Контур 87" class="cls-9" cx="74.4" cy="227.48" r="1.41"/><circle id="_Контур_88" data-name=" Контур 88" class="cls-9" cx="77.83" cy="227.48" r="1.41"/><circle id="_Контур_89" data-name=" Контур 89" class="cls-9" cx="81.25" cy="227.48" r="1.41"/><circle id="_Контур_90" data-name=" Контур 90" class="cls-4" cx="81.67" cy="159.05" r="11.72"/><path id="_Контур_91" data-name=" Контур 91" class="cls-9" d="M71.48,165.39l24-17.49a1,1,0,0,0,.22-1.37h0a1,1,0,0,0-1.36-.22l-5.05,3.17s-5.67-4.14-9-4.29-8.44,4.21-10.38,7.19S67.22,159.49,71.48,165.39Z"/><polygon id="_Контур_92" data-name=" Контур 92" class="cls-4" points="95.91 172.17 105.24 190.59 107.71 192.61 106.36 196.65 102.58 194.63 101.81 191.49 93.39 180.94 92.56 175.33 95.91 172.17"/><path id="_Контур_93" data-name=" Контур 93" class="cls-9" d="M99.15,195.25l-.58,25.44,3,1.55a2.12,2.12,0,0,1,1.14,1.83V225l-11.61.22L89.86,202,78.31,220.44l2.76,1.66a2.39,2.39,0,0,1,1.15,2.13l0,1-12.61,0,.46-4.76,7.78-23Z"/><circle id="_Контур_94" data-name=" Контур 94" class="cls-4" cx="77.48" cy="160.89" r="2.85"/><path id="_Контур_95" data-name=" Контур 95" class="cls-10" d="M92.31,170.87a13.39,13.39,0,0,1,3.6,1.3l-1.6,4.62c2,7.44,5,19.18,5,19.18s-15.17,6.06-22,2.57c.75-4.23-1.49-15.34-1.49-15.34l.5.56c-1.7-1.35-2-8-2-8S86.08,169.39,92.31,170.87Z"/><polygon id="_Контур_96" data-name=" Контур 96" class="cls-4" points="79.29 169.39 81.79 175.6 87.51 176.32 88.07 172.86 85.97 167.99 79.29 169.39"/><path id="_Контур_97" data-name=" Контур 97" class="cls-4" d="M77.58,182.72l-.41,5.43,4.4,6.89-1.05,4.57H77.15l-.79-5-4.63-7s-.1-6.6,2.53-11.89C76.6,176.45,77.58,182.72,77.58,182.72Z"/></g><g id="чувак1_копия_2" data-name="чувак1 копия 2"><g id="Слой_15_копия_2" data-name="Слой 15 копия 2"><path id="_Контур_98" data-name=" Контур 98" class="cls-4" d="M490.27,141.21S478.83,151.28,475.91,167c-.6,1.32-9,7.53-14.24,11.11-7,3.37-8.53,3.19-9.4,11.58-.24,2.32,4.48,2.63,5.23,1.83,1-1.05,5.45-6.76,5.77-7.1l17.22-12.26,5.17-8.58,18.42-22.36S495.85,137.21,490.27,141.21Z"/><path id="_Контур_99" data-name=" Контур 99" class="cls-4" d="M505,201.73l4.26,12.58,29.63,23.39s7.08-5.64,6.78-6.15c-8.3-13.86-26.87-22.24-26.87-22.24L516,195.55Z"/><path id="_Контур_100" data-name=" Контур 100" class="cls-4" d="M485.21,193.77,480.5,211.3l11.93,32.59,9-1.15c-1.11-14.45-11-30.64-11-30.64l6.15-13.34Z"/><path id="_Контур_101" data-name=" Контур 101" class="cls-11" d="M489.3,182.11l-5.36,11.51-.74,1.58s5.18,8.63,12.34,7.31c.5-.1,5.86-8.53,5.86-8.53a34.71,34.71,0,0,0,2.69,10c7.6.27,12.9-3.76,13.54-5.18.53-2.24,3-8.22,0-22.54C508.48,178.15,489.3,182.11,489.3,182.11Z"/><path id="_Контур_102" data-name=" Контур 102" class="cls-4" d="M500.52,133.4s-.1,3.71,1.27,5.83-11.53,2-11.53,2,5.16-7.13,3.47-11.77S500.52,133.4,500.52,133.4Z"/><path id="_Контур_103" data-name=" Контур 103" class="cls-9" d="M501.46,138.86l15.87,7.76-2.6,10.56-3.86.76s5.23,20,10.19,19.84c-6.33,11.91-32.44,7.24-32.44,7.24s-8.12-9.31-3.4-40.58c4.05-2.25,1,2.76,3.85,2.76S501.46,138.86,501.46,138.86Z"/><ellipse id="_Контур_104" data-name=" Контур 104" class="cls-4" cx="496.86" cy="120.58" rx="10.63" ry="14.36"/><ellipse id="_Контур_105" data-name=" Контур 105" class="cls-11" cx="484.88" cy="213.07" rx="6.07" ry="7.33"/><ellipse id="_Контур_106" data-name=" Контур 106" class="cls-11" cx="514.42" cy="213.03" rx="6.07" ry="7.33" transform="translate(-42.04 232.02) rotate(-24.45)"/><path id="_Контур_107" data-name=" Контур 107" class="cls-9" d="M507.49,120.58s7.13-12.9-7.92-17.17c-11.23-3.18-11.76,9.63-11.76,9.63S501.38,112.15,507.49,120.58Z"/><path id="_Контур_108" data-name=" Контур 108" class="cls-12" d="M495.25,118.3c-2.28-1.63-8.58-5.27-16-2.13a63.39,63.39,0,0,1,9.55-5s7.72-.64,13,3.77c-1.75,1.22-3.58,2.54-4.67,3.32A1.62,1.62,0,0,1,495.25,118.3Z"/><path id="_Контур_109" data-name=" Контур 109" class="cls-4" d="M506.39,120s2-3.4,3.49-2.26,1.65,5.77,0,6a6.68,6.68,0,0,1-3.44-.68Z"/></g><g id="Слой_16_копия_3" data-name="Слой 16 копия 3"><circle id="_Контур_110" data-name=" Контур 110" class="cls-12" cx="473.93" cy="259.65" r="3.33"/><circle id="_Контур_111" data-name=" Контур 111" class="cls-12" cx="482.74" cy="259.65" r="3.33"/><circle id="_Контур_112" data-name=" Контур 112" class="cls-12" cx="491.59" cy="259.65" r="3.33"/><circle id="_Контур_113" data-name=" Контур 113" class="cls-12" cx="500.28" cy="259.65" r="3.33"/><path id="_Контур_114" data-name=" Контур 114" class="cls-12" d="M488.6,237.48l13-1.08s1,17.39-.2,18.72-21.85,3.1-26.41.21a2.8,2.8,0,0,1,.91-4.79c1.77-.43,14-2.77,14-2.77l-.57-10.28"/><polygon id="_Контур_115" data-name=" Контур 115" class="cls-13" points="485.13 248.43 489.91 244.25 493.67 249.02 490.95 251.19 485.13 248.43"/><path id="_Контур_116" data-name=" Контур 116" class="cls-13" d="M478.76,256.22l-6.68,2.51v1.33h36s1.24-3.83-6.72-4.95C501.37,255.11,482,255,478.76,256.22Z"/><circle id="_Контур_117" data-name=" Контур 117" class="cls-12" cx="538.32" cy="258.98" r="3.33" transform="translate(-11.94 491.52) rotate(-48.6)"/><circle id="_Контур_118" data-name=" Контур 118" class="cls-12" cx="544.15" cy="252.37" r="3.33" transform="translate(-5.01 493.65) rotate(-48.6)"/><circle id="_Контур_119" data-name=" Контур 119" class="cls-12" cx="550" cy="245.73" r="3.33" transform="translate(1.96 495.79) rotate(-48.6)"/><circle id="_Контур_120" data-name=" Контур 120" class="cls-12" cx="555.75" cy="239.21" r="3.33" transform="translate(8.79 497.89) rotate(-48.6)"/><path id="_Контур_121" data-name=" Контур 121" class="cls-12" d="M531.42,233.35l7.79-10.48s13.73,10.74,13.91,12.53-11,18.44-16.2,19.95a2.8,2.8,0,0,1-3-3.85c.85-1.61,6.07-12.33,6.07-12.33l-8.09-6.37"/><polygon id="_Контур_122" data-name=" Контур 122" class="cls-13" points="538.08 243.2 538.11 236.84 544.17 237.17 544 240.65 538.08 243.2"/><path id="_Контур_123" data-name=" Контур 123" class="cls-13" d="M539,253.09c-1.22,3.21-2.5,6.64-2.5,6.64l1,.88,23.8-27s-2.05-3.46-8.15,1.77C553.13,235.4,540.22,249.88,539,253.09Z"/></g></g><g id="Слой_147" data-name="Слой 147"><path id="_Контур_124" data-name=" Контур 124" class="cls-4" d="M184.12,140a8.38,8.38,0,1,0,8.32-8.45C187.84,131.58,183.74,130.26,184.12,140Z"/><path id="_Контур_125" data-name=" Контур 125" class="cls-12" d="M200.75,146.38l-2.31-.5s2.23-5.18,0-9.27-14.32-2.9-14.32-2.9.26-11.88,14-7.92S204.23,145.85,200.75,146.38Z"/><path id="_Контур_126" data-name=" Контур 126" class="cls-14" d="M172.19,144s-2.25-2.39-4.1-2.42-4.25,1.64-4.11,3.48,5.7,2.69,5.7,2.69Z"/><path id="_Контур_127" data-name=" Контур 127" class="cls-15" d="M196.74,201.55s1.79,5,0,7.48c-4.54.18-15.13,0-15.13,0s-2-1.95-.37-3.75a3.16,3.16,0,0,1,2.15-1c3.48-.21,6.41-1.23,7.39-3.2C190.78,201,196.74,201.55,196.74,201.55Z"/><circle id="_Контур_128" data-name=" Контур 128" class="cls-15" cx="195.34" cy="211.42" r="1.72"/><path id="_Контур_129" data-name=" Контур 129" class="cls-4" d="M216.65,145l-.75-3.37s1.27-4.48,3.88-3.88,2.69,4.94,2.69,4.94l-3.28,5.39Z"/><circle id="_Контур_130" data-name=" Контур 130" class="cls-15" cx="191.16" cy="211.42" r="1.72"/><circle id="_Контур_131" data-name=" Контур 131" class="cls-15" cx="186.99" cy="211.42" r="1.72"/><circle id="_Контур_132" data-name=" Контур 132" class="cls-15" cx="182.81" cy="211.42" r="1.72"/><path id="_Контур_133" data-name=" Контур 133" class="cls-15" d="M214.88,185.12s4.06-3.4,7-2.59c1.74,4.2,5.23,14.2,5.23,14.2s-1.12,2.59-3.4,1.64a3.16,3.16,0,0,1-1.65-1.68c-1.4-3.19-3.37-5.59-5.56-5.83C216.46,190.9,214.88,185.12,214.88,185.12Z"/><path id="_Контур_134" data-name=" Контур 134" class="cls-12" d="M184.12,174.82s1.53,20.12,5.28,27c1.75,1,7.91.55,7.91.55l-1.67-9.63.6-7.78,9.53,9.63s8.06,1.07,11.38-1.85c0-2.14-1.85-8.26-1.85-8.26s-5.45,2.14-6.61,1.27-4.5-11.61-4.5-11.61Z"/><circle id="_Контур_135" data-name=" Контур 135" class="cls-15" cx="224.64" cy="183.03" r="1.72" transform="translate(-49.43 88.97) rotate(-20.23)"/><circle id="_Контур_136" data-name=" Контур 136" class="cls-15" cx="226.09" cy="186.95" r="1.72" transform="matrix(0.94, -0.35, 0.35, 0.94, -50.7, 89.71)"/><path id="_Контур_137" data-name=" Контур 137" class="cls-15" d="M193.06,149.3s5.12-.08,7.12.77a25.81,25.81,0,0,1,4.84,3.23,11.39,11.39,0,0,0,10.9-9c0-.08,3.09-.54,4.32,3.15-1.38,3.07-1,7.83-15.76,13.43-2.42.92-.23,13.77-.23,13.77s-7.06,7.76-21.58,1.23c-.08-2.3,1-13.34,1-13.34s-9.68-5.07-15.53-14c-1-.84,1.23-3.9,3-5.64s8.21,10.61,13,9.15C187.71,150.89,188.06,149,193.06,149.3Z"/><circle id="_Контур_138" data-name=" Контур 138" class="cls-15" cx="227.53" cy="190.87" r="1.72" transform="translate(-51.96 90.45) rotate(-20.23)"/><path id="_Контур_139" data-name=" Контур 139" class="cls-4" d="M196.86,146.64l.6,3s-3.88,5.77-6.4,5.77-2.2-4.53-2.2-4.53l.78-4.48Z"/><circle id="_Контур_140" data-name=" Контур 140" class="cls-15" cx="228.98" cy="194.79" r="1.72" transform="translate(-53.23 91.19) rotate(-20.23)"/><circle id="_Контур_141" data-name=" Контур 141" class="cls-12" cx="112.17" cy="206.27" r="2.67"/><circle id="_Контур_142" data-name=" Контур 142" class="cls-12" cx="119.23" cy="206.27" r="2.67"/><circle id="_Контур_143" data-name=" Контур 143" class="cls-12" cx="126.32" cy="206.27" r="2.67"/><path id="_Контур_144" data-name=" Контур 144" class="cls-12" d="M135.94,205c0,1.47-1.19,4-2.67,4a2.67,2.67,0,0,1,0-5.33C134.75,203.6,135.94,203.49,135.94,205Z"/><polygon id="_Контур_145" data-name=" Контур 145" class="cls-4" points="141.34 146.01 135.34 168.04 134.44 189.82 124.81 190.37 125.42 167.26 128.98 139.66 141.34 146.01"/><path id="_Контур_146" data-name=" Контур 146" class="cls-12" d="M124.56,189.76l.41,7s-9.79,1.85-11.2,2.2a2.17,2.17,0,0,0-1.38,2.85,2.31,2.31,0,0,0,1.4,1.34c4.75,1.79,19.47-.8,20.39-1.79s.26-11.6.26-11.6Z"/><polygon id="_Контур_147" data-name=" Контур 147" class="cls-13" points="121.14 197.29 124.97 193.94 127.98 197.76 125.81 199.5 121.14 197.29"/><path id="_Контур_148" data-name=" Контур 148" class="cls-13" d="M116.14,203.52c-2,.74-4,1.53-4.85,1.86a.63.63,0,0,0-.4.6h0a.63.63,0,0,0,.63.63h0l26.79-1.3s2.3-3.07-4.08-4C134.25,201.33,118.72,202.55,116.14,203.52Z"/><circle id="_Контур_149" data-name=" Контур 149" class="cls-12" cx="142.45" cy="208.48" r="2.67"/><circle id="_Контур_150" data-name=" Контур 150" class="cls-12" cx="149.5" cy="208.48" r="2.67"/><path id="_Контур_151" data-name=" Контур 151" class="cls-4" d="M156.59,143.37l1.67,22.93s5.93,21.74,4.52,26.41-8.86-.41-8.86-.41L148.59,168l-4.94-22.61Z"/><circle id="_Контур_152" data-name=" Контур 152" class="cls-12" cx="156.59" cy="208.48" r="2.67"/><path id="_Контур_153" data-name=" Контур 153" class="cls-12" d="M166.22,207.18c0,1.47-1.19,4-2.67,4a2.67,2.67,0,0,1,0-5.33C165,205.82,166.22,205.71,166.22,207.18Z"/><path id="_Контур_154" data-name=" Контур 154" class="cls-12" d="M153.92,192.3l1.32,6.67s-9.79,1.87-11.2,2.22a2.18,2.18,0,0,0-1.38,2.86,2.32,2.32,0,0,0,1.4,1.35c4.75,1.79,19.47-.83,20.39-1.83s-1.14-11.73-1.14-11.73Z"/><polygon id="_Контур_155" data-name=" Контур 155" class="cls-13" points="151.42 199.5 155.24 196.15 158.26 199.97 156.08 201.71 151.42 199.5"/><path id="_Контур_156" data-name=" Контур 156" class="cls-13" d="M146.42,205.74c-2,.74-4,1.53-4.85,1.86a.63.63,0,0,0-.4.6h0a.63.63,0,0,0,.63.63h0l26.79-1.3s2.3-3.07-4.08-4C164.52,203.55,149,204.77,146.42,205.74Z"/><path id="_Контур_157" data-name=" Контур 157" class="cls-4" d="M133.36,100.09s-11.42,14.32-15.73,29.29a22.53,22.53,0,0,1-2.31,4.74,1.64,1.64,0,0,0-.12,1.48l1.3,3.19a1.54,1.54,0,0,0,2.69.32l3.15-4.41a2,2,0,0,0,.3-1.7l-.69-2.41,12.42-20.08Z"/><path id="_Контур_158" data-name=" Контур 158" class="cls-9" d="M150.57,120.75s6.06,9,6.19,23.17c-4.58,1.83-12.82,3.26-12.82,3.26l-1.55-4.12-1.22,3.64L128,145.05l.2-20.78Z"/><path id="_Контур_159" data-name=" Контур 159" class="cls-12" d="M139.78,84.22s7.74,2.71,10.14,8.5-.53,21.48-.53,21.48,1.42,4.88,2.34,7.39C134,133,128.35,126,128.35,126V106.13a15.81,15.81,0,0,1-1.83-9.35c.6-5.49,9.11-12.44,9.11-12.44Z"/><path id="_Контур_160" data-name=" Контур 160" class="cls-4" d="M144.31,75.62l.62,11.93s-6.15,5.07-8.11,4.13S135,86.34,135,86.34L138,75.54Z"/><ellipse id="_Контур_161" data-name=" Контур 161" class="cls-9" cx="128.19" cy="166.84" rx="5.52" ry="7.91"/><ellipse id="_Контур_162" data-name=" Контур 162" class="cls-9" cx="150.83" cy="167.89" rx="5.52" ry="7.91" transform="translate(-29.24 31.83) rotate(-10.99)"/><polygon id="_Контур_163" data-name=" Контур 163" class="cls-9" points="154.61 166.05 158.15 166.3 158.77 168.69 154.61 168.04 154.61 166.05"/><polygon id="_Контур_164" data-name=" Контур 164" class="cls-9" points="132.19 165.27 135.66 166.84 135.28 169.41 131.45 168.04 132.19 165.27"/><g id="_Группа_3" data-name=" Группа 3"><ellipse id="_Контур_165" data-name=" Контур 165" class="cls-4" cx="140.46" cy="68.84" rx="13.91" ry="12.67" transform="translate(47.48 194.64) rotate(-79.64)"/><path id="_Контур_166" data-name=" Контур 166" class="cls-10" d="M129.28,75.87s-6.11-4.58.08-15.26S148.94,57,148.94,57s7.95.39,9.85,6.71c-3.72.78-12.62,2.6-12.62,2.6l-1.7-1.24Z"/><path id="_Контур_167" data-name=" Контур 167" class="cls-10" d="M133.35,57.62S133.1,50.8,122,52.49s-9.13,18-20.36,19.64c5.7,5.5,12.74,6.53,18.66-1.35,4.48-6,7.46-11.59,10.51-10.63S133.35,57.62,133.35,57.62Z"/><circle id="_Контур_168" data-name=" Контур 168" class="cls-4" cx="133.82" cy="69.57" r="3.53"/></g><path id="_Контур_169" data-name=" Контур 169" class="cls-4" d="M168.93,134s-13.44-40.5-19-41.28-7.56,7.5-2.15,13.44a78,78,0,0,1,8.59,11.31l8.12,18.17v7.84l4.48,2.86,4.09-6.73Z"/></g></g></g></g><g class="cls-16"><g id="Слой_2-2" data-name="Слой 2"><g id="Слой_153_копия_" data-name="Слой 153 копия "><g id="Слой_141_копия_" data-name="Слой 141 копия "><rect id="_Прямоугольник_2" data-name=" Прямоугольник " class="cls-3" x="-0.43" y="-3.49" width="1593.14" height="333.46"/></g><g id="Слой_29_копия2_" data-name="Слой 29 копия2 "><path id="_Контур_2" data-name=" Контур " class="cls-5" d="M610.9-3.11l-317.77,105S460.2,239.08,610.85,136.8c0,0,113.69,38.06,230.22-66.24,2.25-47.34,2.26-74.07,2.26-74.07Z"/><path id="_Контур_5" data-name=" Контур 5" class="cls-11" d="M22.86,71.28H47.21v34.78s20.68-19,21.33-24.83S80,77.31,80,77.31,59.44,109,48,118.12c0,3.92-2.28,25.46,5.55,33.62a65.06,65.06,0,0,0,16.65,12.4s-12.4,2-21.55-2.61c-4.08,2.66-6,13.27-7,16.88-.5,1.95-2.45,2.07-3.62.44,0,0-2.41-14.43-8.65-16.84H26.09a17.55,17.55,0,0,0-10.25,3.36l-9.95,7.22s0-9.5,11.11-24.2C27.56,134.43,22.86,71.28,22.86,71.28Z"/><path id="_Контур_7" data-name=" Контур 7" class="cls-6" d="M1592.71-3.49H-.43l0,105.2s14.66-2.54,30.6-13.29C50.8,123.14,114.63,153,155.43,160.66c125,23.45,232.14-68.08,232.14-75.89s162.85,28.72,232.2-40.48v2.56s-.51,30.7,43.74,50.13,79.17-21.76,79.17-21.76S896.91,144.9,1018.27,22.4c42.89,44.83,125.44,123.83,252.54,114.67a317.33,317.33,0,0,0,56.51-9.28c36,61,123.29,119.12,265.43,78.76C1592.74,130,1592.71-3.49,1592.71-3.49Z"/><polygon id="_Контур_8" data-name=" Контур 8" class="cls-7" points="123.59 329.99 -0.43 252.67 -0.43 329.99 123.59 329.99"/><path id="_Контур_9" data-name=" Контур 9" class="cls-7" d="M428.33,330l73.57-30.11a55.78,55.78,0,0,1,20.64-4.15l88.3-.79,0,35Z"/><path id="_Контур_10" data-name=" Контур 10" class="cls-5" d="M84.62,108.81c12,9.95,24.4,0,24.4,0v34.67s20.67-19,21.32-24.83,11.44-3.92,11.44-3.92-20.56,31.66-32,40.81c0,3.92-2.28,25.46,5.55,33.62A65.06,65.06,0,0,0,132,201.57s-12.4,2-21.55-2.61c-4.08,2.66-6,13.27-7,16.88-.5,1.95-2.45,2-3.62.42,0,0-2.41-14.44-8.65-16.86h-3.3a17.57,17.57,0,0,0-10.25,3.38L67.69,210s0-9.45,11.09-24.14C89.33,171.91,82.4,105.29,84.62,108.81Z"/><polyline id="_Контур_11" data-name=" Контур 11" class="cls-17" points="363.18 240.72 363.18 192.81 560.36 194.22 560.36 240.72"/><rect id="_Прямоугольник_2-2" data-name=" Прямоугольник 2" class="cls-9" x="352.03" y="187.36" width="222.81" height="11.16" rx="3.62" ry="3.62"/><path id="_Контур_12" data-name=" Контур 12" class="cls-4" d="M435.59,100.55s17,1.72,21.71,2.83,13.24,4.17,13.24,4.17l7.54-.6,4.86,7.11-2.7,4.41-13.87-3.19-2.08-3.19s-17.41-4.66-29.79-2.58C433.51,105.34,435.59,100.55,435.59,100.55Z"/><path id="_Контур_13" data-name=" Контур 13" class="cls-15" d="M380,134s-3.29,14.21,6.82,19.78,16.26,7.13,16.26,7.13l2.55,19.79L421.83,177l-3.32-21.49a8.51,8.51,0,0,0-4.91-6.46l-6.74-3,28.64.78L445.66,164l12.93-4.56s-4.67-19.6-13-25.06-39.92-1.6-39.92-1.6Z"/><path id="_Контур_14" data-name=" Контур 14" class="cls-4" d="M382.16,90.58s-14.17-8-23.55-9.31-21.38,2.67-21.38,2.67h-6.67l-2.71,6.76,6,4.64,7-4.72s11.33-3.42,17.66-1.84,19.84,13.12,19.84,13.12Z"/><path id="_Контур_15" data-name=" Контур 15" class="cls-10" d="M411.34,97s18.09-1.06,25.28,3.57c-1.31,4.4,0,13.34,0,13.34s-13.67-.65-14.79,3.71S424,131.77,424,131.77s-13.08.67-44.46,4.79c2-9.15,4.89-29.92,4.89-29.92s-6.63-2.55-9.68-2.11c.87-3.05,4.36-9.91,3.71-15.74,3.71.93,23.9,5.89,23.9,5.89Z"/><path id="_Контур_16" data-name=" Контур 16" class="cls-4" d="M386.85,90.6c0,8.49,11.76,15.38,20.24,15.38S418.63,99,417.6,90.6c-1.19-9.76-6.88-15.38-15.38-15.38A15.38,15.38,0,0,0,386.85,90.6Z"/><path id="_Контур_17" data-name=" Контур 17" class="cls-9" d="M419.67,86.95c-6.53.23-22.15,1.62-29.72,9.39a2.16,2.16,0,0,1-3.49-.58c-2.92-6.15-4.56-18.48,8.26-23.42,13.8-5.32,23.32,2.3,27,11.57a2.24,2.24,0,0,1-2,3Z"/><path id="_Составной_контур_" data-name=" Составной контур " class="cls-15" d="M388.17,92.61l6.19,7.4a1.49,1.49,0,0,0,1.14.53h0a1.71,1.71,0,0,0,1.67-1.37l2.11-10.41Zm4,1.76,4.28-2.2-1.08,6.23Z"/><path id="_Контур_18" data-name=" Контур 18" class="cls-12" d="M471.08,145.62c-.47-.95-2.66-1.06-3.58-.25s-60,36.43-73.51,37.32c-7.19.48-6.92,20.52.14,22.34,5.69,1.47,74.71-33.66,77.38-40.85C474.63,155.79,473,149.47,471.08,145.62Z"/><rect id="_Прямоугольник_3" data-name=" Прямоугольник 3" class="cls-6" x="455.77" y="157.06" width="7.81" height="7.24" rx="1.09" ry="1.09" transform="translate(-24.36 213.88) rotate(-25.54)"/><rect id="_Прямоугольник_4" data-name=" Прямоугольник 4" class="cls-6" x="457.57" y="167.68" width="7.81" height="7.24" rx="1.09" ry="1.09" transform="translate(-28.76 215.7) rotate(-25.54)"/><rect id="_Прямоугольник_5" data-name=" Прямоугольник 5" class="cls-6" x="404.9" y="184.57" width="7.81" height="7.24" rx="1.09" ry="1.09" transform="translate(-41.19 194.64) rotate(-25.54)"/><rect id="_Прямоугольник_6" data-name=" Прямоугольник 6" class="cls-6" x="406.7" y="195.19" width="7.81" height="7.24" rx="1.09" ry="1.09" transform="translate(-45.59 196.46) rotate(-25.54)"/><path id="_Контур_19" data-name=" Контур 19" class="cls-8" d="M431,226.19c-5.13-.36-18.85-3.46-38.8,14.56S363.84,244.9,355,256.81s5.43,33,33.17,29.38,49.93-11.43,66.78-16,81.63-41.8,41.58-48.07S431,226.19,431,226.19Z"/><rect id="_Прямоугольник_7" data-name=" Прямоугольник 7" class="cls-8" x="352.33" y="240.72" width="214.67" height="12.06" rx="3.62" ry="3.62"/><path id="_Контур_20" data-name=" Контур 20" class="cls-8" d="M177.9,293.4S139.29,280.34,118.8,297s22,26.85,22,26.85,27.48-4.59,42.54-5.36,50.85,8.91,52.87-6.65S177.9,293.4,177.9,293.4Z"/><circle id="_Контур_21" data-name=" Контур 21" class="cls-18" cx="209.63" cy="304.29" r="3.61" transform="translate(-93.22 92.58) rotate(-20.48)"/><circle id="_Контур_22-2" data-name=" Контур 22" class="cls-18" cx="165.09" cy="303.56" r="3.61" transform="translate(-95.78 76.95) rotate(-20.48)"/><rect id="_Прямоугольник_8" data-name=" Прямоугольник 8" class="cls-9" x="178.94" y="256.17" width="17.46" height="78.31" rx="8.6" ry="8.6" transform="translate(-110.16 479.01) rotate(-89.23)"/><path id="_Контур_23-2" data-name=" Контур 23" class="cls-4" d="M199,222.14l13.08,17.27,1.88.68a2.2,2.2,0,0,1,1.44,1.78l.38,2.83a1.59,1.59,0,0,1-1.29,1.77l-2.45.45a2,2,0,0,1-2.22-1.17l-2-4.46-15.11-12.81Z"/><path id="_Контур_24" data-name=" Контур 24" class="cls-4" d="M177.68,198.38c0-7.92,4.82-14.35,10.8-14.35s10.8,6.43,10.8,14.35c0,6.29-3,11.63-7.28,13.57l1.51,14.24s-6.75-9.95-10.65-9.53a20.77,20.77,0,0,0,.37-5.73C179.92,208.49,177.68,203.79,177.68,198.38Z"/><g id="_Группа_" data-name=" Группа "><path id="_Контур_25" data-name=" Контур 25" class="cls-19" d="M206,295.51s1.37,3.41-8.83,3-10,.28-10.59-1.36Z"/><path id="_Контур_26" data-name=" Контур 26" class="cls-12" d="M195.74,289.18s-6.12,2.14-8.93,1.85c-1.58,2.09-.25,6.11-.25,6.11s16,1.44,18.68-.66c1.78-1.32.11-3.14-1.67-3.47S200.57,292.72,195.74,289.18Z"/></g><g id="_Группа_2" data-name=" Группа 2"><path id="_Контур_27" data-name=" Контур 27" class="cls-19" d="M165.31,300.18s-2.41,2.48-6-6.49-4.06-8.52-2.88-9.68Z"/><path id="_Контур_28" data-name=" Контур 28" class="cls-12" d="M166.87,288.91s-4.2-4.47-5-7c-2.41-.57-5.38,2.11-5.38,2.11s4.9,14.41,7.72,15.89c1.81,1,2.76-1.1,2.36-2.77S165.66,294.43,166.87,288.91Z"/></g><path id="_Контур_29" data-name=" Контур 29" class="cls-20" d="M201,249.18s-2.14,36.8-3,40.81c-2,3.41-11.91,2.27-11.91,2.27l2-30.69-7.54,16.71-13.6,12.3a10.35,10.35,0,0,1-9.08-7.54l14-11.62,3.18-20.9Z"/><path id="_Контур_30" data-name=" Контур 30" class="cls-15" d="M200.72,227.73l.83,23c-3.28,2.74-3.19,3.94-26.91,2-.22-6.51,0-21,0-21l-2.82-5.43s3.26-9.77,13.24-9.77c9.67,0,8.51,0,17.27,8.61C202.77,225.48,200.72,227.73,200.72,227.73Z"/><path id="_Контур_31" data-name=" Контур 31" class="cls-4" d="M180,229.3c-5.73-.39-7.44-4.62-7.44-4.62l-10.71,22.84-2.46,2.68a2.47,2.47,0,0,0-.43,2.68l1.38,3.08a1.45,1.45,0,0,0,1.92.73l.15-.08,4.34-2.62a1.89,1.89,0,0,0,.9-1.85l-.35-2.84,4.37-8.74S181.33,229.44,180,229.3Z"/><path id="_Контур_32" data-name=" Контур 32" class="cls-9" d="M204.24,193s-8.73,8.11-28.94,10.87c-.81,1-5.86-6.08,0-14.54s16.28-9.65,23-5.26S204.24,193,204.24,193Z"/><polygon id="_Контур_33" data-name=" Контур 33" class="cls-9" points="190.12 197.5 190.12 208.24 184.34 206.79 180.17 199.48 190.12 197.5"/></g></g></g></g></svg>