<?xml version="1.0" encoding="utf-8"?>
<!-- Generator: Adobe Illustrator 19.0.0, SVG Export Plug-In . SVG Version: 6.00 Build 0)  -->
<svg version="1.1" id="Слой_1" xmlns="http://www.w3.org/2000/svg" xmlns:xlink="http://www.w3.org/1999/xlink" x="0px" y="0px"
	 viewBox="0 0 4804.4 1814.3" style="enable-background:new 0 0 4804.4 1814.3;" xml:space="preserve">
<style type="text/css">
	.st0{fill:#33DCD9;}
	.st1{fill:#0090AD;}
	.st2{fill:#F8F4DC;}
	.st3{fill:#24BACE;}
	.st4{fill:#FFC7CB;}
	.st5{fill:#EFEBD8;}
	.st6{fill:#193172;}
	.st7{fill:#223C92;}
	.st8{fill:none;stroke:#223C92;stroke-width:16.2803;stroke-miterlimit:10;}
	.st9{fill:none;stroke:#FF5365;stroke-width:14.2452;stroke-linecap:round;stroke-linejoin:round;stroke-miterlimit:10;}
	.st10{fill:#FF5365;}
	.st11{fill:none;stroke:#FF5365;stroke-width:1.564;stroke-miterlimit:10;}
	.st12{fill:#00C8F6;}
	.st13{fill:#FFB8BB;}
	.st14{fill:#FFB8BB;stroke:#FF5365;stroke-width:9;stroke-linecap:round;stroke-linejoin:round;stroke-miterlimit:10;}
	.st15{fill:#E8E0BA;}
	.st16{fill:#47C7BE;}
	.st17{fill:#FFEFAE;}
	.st18{fill:#EFE1A8;}
	.st19{fill:#00D3CF;}
	.st20{fill:#5FDDE0;}
	.st21{fill:#EFAFB7;}
	.st22{fill:#E53E56;}
	.st23{fill:#F2C4C8;}
	.st24{fill:#FFDEE4;}
	.st25{fill:#2545A0;}
	.st26{fill:#FFF3F4;}
	.st27{fill:#D63A51;}
	.st28{fill:#0FB6D1;}
</style>
<rect id="XMLID_4038_" class="st0" width="4804.4" height="1814.3"/>
<polygon id="XMLID_4037_" class="st1" points="1657.8,1200.3 1361.6,1474.9 1465.2,1813.9 4566.5,1813.9 3903.5,891.1 
	2858.2,1637.3 2232.1,1573.9 "/>
<path id="XMLID_4036_" class="st2" d="M3524.6,893.9l378.8-2.6c0,0-331.4,925.8-1191.7,925.8s-1054.1-617.2-1054.1-617.2h377.8
	c0,0,102.7,292.3,653.5,281.9C3230.3,1472.7,3524.6,893.9,3524.6,893.9z"/>
<polygon id="XMLID_4035_" class="st2" points="533.5,901.9 1094.5,901.9 1811.4,1817.1 1172.3,1814 "/>
<polygon id="XMLID_4034_" class="st1" points="533.6,902.1 297.5,1242.9 -12.5,1304 -12.5,1813.9 1172.5,1813.9 "/>
<path id="XMLID_4033_" class="st3" d="M-6.6,319.6c0,0,878.1-660.2,994.5,108.7c122.6-79.4,539.6,6.7,451.4,427.9
	c169.1-268.1,548.3-535.8,980.2-71.6c43.3-85.2,304-125.7,379.1,141c33-250.8,385.4-475.1,770.5-205.7
	c42.8-167.7,128-333.8,460.5-287.9C3944.2,244.5,4018.5,29,4163.9,0C4309.2-29,0,0,0,0L-6.6,319.6z"/>
<path id="XMLID_4032_" class="st2" d="M1201.7,1814.5l-36.2-107c-6.8-9.8-84.5-23.6-84.5-23.6c14.2,20.3-7.8,36.6-42.4,36.6
	l-1045.3,1.4l-5.9,92.5L1201.7,1814.5z"/>
<path id="XMLID_4031_" class="st2" d="M5018.8,1814.3l-27-38.5c-24.4-34.8-64.2-55.5-106.7-55.4l-2235.3,0.7l-5.9,92.5
	L5018.8,1814.3z"/>
<polygon id="XMLID_4030_" class="st4" points="758.8,1440 796.5,1503 829.7,1553.3 826,1567.8 810.7,1562.2 807,1543.5 
	762.7,1491.7 "/>
<path id="XMLID_4029_" class="st5" d="M3356.1,1184.3c0,0-44.8,29.3-107.9,88.3s-81,92.4-70.6,119.4s113.8-20.9,146.1-45.1
	C3394,1294.3,3497.6,1112.5,3356.1,1184.3z"/>
<path id="XMLID_4028_" class="st5" d="M1960.7,1283.1c0,0,21.5-80.7,92.5-10.4c71,70.3,90.2,97.7,97.8,104.3s39.3,55-52.9,45.3
	C2005.8,1412.5,1951.8,1357.5,1960.7,1283.1z"/>
<path id="XMLID_4331_" class="st6" d="M3300.4,814.1L3194.4,928l-33.3-6.9c-1.8-0.4-3.6-0.3-5.4,0.2l-3.7,1c-6,1.7-9.5,8-7.9,14l0,0
	c1,3.4,3.5,6.2,6.8,7.5l53.6,20.9L3366.5,828l-23.4-25.8L3300.4,814.1z"/>
<g id="XMLID_4321_">
	<circle id="XMLID_4330_" class="st7" cx="3258.2" cy="1060.1" r="18.3"/>
	<circle id="XMLID_4329_" class="st7" cx="3074.6" cy="861.4" r="18.3"/>
	<circle id="XMLID_4328_" class="st8" cx="3257.6" cy="1060.3" r="70"/>
	<polyline id="XMLID_4327_" class="st9" points="3186.9,972.4 3257.4,1058.9 3248.2,942.2 3183.9,817.1 3168.2,823.4 3187.1,971.7 
		3305.9,914.4 	"/>
	<circle id="XMLID_4326_" class="st8" cx="3074" cy="861.6" r="70"/>
	<polyline id="XMLID_4325_" class="st9" points="3192.1,813.8 3183.9,817.1 3073.7,861.6 	"/>
	<path id="XMLID_4324_" class="st10" d="M3193.3,798.6l-3.1,13l1.9,3.5c1.3,2.4,4.2,3.4,6.7,2.5l3.9-1.5c3.7-1.4,5.9-5.4,5-9.3
		l-1.7-3.9l-5.1-11.4l0,0C3197.2,792.1,3194.1,794.9,3193.3,798.6z"/>
	<path id="XMLID_4323_" class="st11" d="M3201.5,786.3"/>
	<polygon id="XMLID_4322_" class="st10" points="3223,778.9 3203.1,807.1 3197.1,795.6 3221.3,763.5 	"/>
</g>
<path id="XMLID_4320_" class="st7" d="M3372.4,776c0,0,27.3,32.2,16.6,59.1c-5.9,14.8-148.5,155.8-148.5,155.8l-19.6-30.3
	l87.9-115.9l-0.9-26.2L3372.4,776z"/>
<path id="XMLID_4319_" class="st10" d="M3303.8,692.3c10.7-1.6,21.4,3.1,27.4,12.1c18.5,27.5,56.5,84.7,60.3,95.5
	c4.9,14.3-85.3,30.4-85.3,30.4l-31.2-87.9l0.7-29.1c0.2-9.8,7.5-18,17.2-19.4L3303.8,692.3z"/>
<g id="XMLID_4316_">
	<path id="XMLID_4318_" class="st7" d="M3177.7,958.1c0,0-11,8.3,22.7,26.7s31.6,20.2,36.7,16.1L3177.7,958.1z"/>
	<path id="XMLID_4317_" class="st12" d="M3222.9,957.5c0,0,15.6,18.7,25.2,23.2c1.1,9.8-11,20.2-11,20.2s-54.4-26.3-58.9-38.2
		c-3.2-7.7,5.7-10.3,12.1-7.9C3196.7,957.1,3200.5,959.6,3222.9,957.5z"/>
</g>
<ellipse id="XMLID_4315_" transform="matrix(0.9642 -0.2653 0.2653 0.9642 -52.5185 895.0199)" class="st13" cx="3286.6" cy="641.9" rx="39.7" ry="40.6"/>
<polygon id="XMLID_4314_" class="st13" points="3281.7,678.2 3284.1,697 3281.7,720.3 3305.8,694.9 3302.8,672.3 "/>
<line id="XMLID_4313_" class="st14" x1="3224.9" y1="799" x2="3184.8" y2="742.6"/>
<g id="XMLID_4309_">
	<g id="XMLID_4311_">
		<polygon id="XMLID_4312_" class="st10" points="3289.5,632.9 3289.5,664.8 3318.6,656.8 3320.4,661.2 3287.8,671.8 3280.5,669.2 
			3280.5,630.9 		"/>
	</g>
	<path id="XMLID_4310_" class="st10" d="M3303.2,644.7c0,0-53.5-8.4-64.8-15c-7.4-21.5,21.3-59.1,79.5-37c47.2,17.9,17.6,63,17.6,63
		s-13.9,15.7-24.2,12.1C3301,664.1,3303.2,644.7,3303.2,644.7z"/>
</g>
<polygon id="XMLID_4308_" class="st13" points="3277.5,705.1 3200.6,747.9 3188.3,747.9 3177.6,760.9 3195.9,775.9 3216.5,761.1 
	3216.5,757.3 3275.9,733.7 "/>
<path id="XMLID_4307_" class="st13" d="M3306.1,713.1l-83.1,52.8l-13.5-3.6l-9.3,17.8l6.3,5.6l25.5-6l88.6-39.8
	c5.4-2.4,9-7.9,9-13.8v-0.2c0-6.1-3.7-11.9-9.4-13.9h0C3315.5,709.9,3310.2,710.4,3306.1,713.1z"/>
<g id="XMLID_3998_">
	<path id="XMLID_4000_" class="st12" d="M726.1,1761.2c0,0,3.5,10.7-27.7,7.3c-31.1-3.5-30.6-1.3-32.1-6.4L726.1,1761.2z"/>
	<path id="XMLID_3999_" class="st7" d="M696.1,1739.7c0,0-19.2,5.2-27.7,3.8c-5.3,6-2.1,18.6-2.1,18.6s48.8,7.8,57.3,1.9
		c5.7-3.6,1-9.6-4.4-11C713.9,1751.6,710.2,1751.5,696.1,1739.7z"/>
</g>
<g id="XMLID_3995_">
	<path id="XMLID_3997_" class="st12" d="M801.5,1759.8c0,0,4,10.5-27.3,8.6s-30.6,0.2-32.4-4.8L801.5,1759.8z"/>
	<path id="XMLID_3996_" class="st7" d="M770.5,1739.8c0,0-18.9,6.2-27.5,5.1c-5,6.3-1.1,18.7-1.1,18.7s49.1,5.4,57.3-0.9
		c5.6-3.9,0.5-9.6-4.9-10.7C788.8,1750.9,785.1,1750.9,770.5,1739.8z"/>
</g>
<path id="XMLID_3994_" class="st15" d="M698.4,1548.3c0,0-6.3,54.6-16.2,126.1c-4.3,31-17.3,69.5-16.3,71.5
	c19.8,8.9,46.1,3.4,46.1,3.4l25.3-140.6l3.9,136.5c0,0,32.8,9.4,38.4,0.3c5.6-9.1-8.6-199.2-8.6-199.2L698.4,1548.3z"/>
<path id="XMLID_3993_" class="st16" d="M729,1437.9c0,0-18.8-6.5-29,18.1c-4.2,10,1.8,69.4,1.8,69.4l-6.1,29.6
	c46.8,28.1,70.8,14.6,75,4.4c2.6-6.2,7.3-37.6,6.9-67.2c-0.2-18.9-2.6-36.5-8.9-47c-10.9-17.9-33.6-7.2-33.6-7.2H729z"/>
<circle id="XMLID_3992_" class="st4" cx="738.5" cy="1377.7" r="37.8"/>
<polygon id="XMLID_3991_" class="st4" points="725.5,1408.9 725.5,1434.1 718.2,1436.7 756.5,1460.2 756.5,1436.1 748.9,1431.5 
	743.8,1406.1 "/>
<path id="XMLID_3990_" class="st4" d="M723.4,1477l-19.5,34.4l41.8,24.3l18.1-3.1l5.6,17.6l-20.9,3.6l-4.4-7.5l-60.1-26.4l7.5-51.5
	c0.6-4.3,3-8.2,6.6-10.7l2.2-1.6c7.2-5.1,17.2-3.4,22.3,3.8l0,0C726.2,1464.9,726.5,1471.6,723.4,1477z"/>
<path id="XMLID_3989_" class="st17" d="M745.8,1374.2l31.8-10.7c0,0-10.1-28.5-37.1-26.8c-27,1.6-30.8,12-42.1,25.7
	c-11.2,13.7-7,72.3-19.7,93.2c-0.3,0,13.6,8.2,36.3,0c22.7-8.2,21.6-22.4,21.6-22.4l-10.2-49.1L745.8,1374.2z"/>
<circle id="XMLID_3988_" class="st4" cx="726.7" cy="1383.8" r="9.6"/>
<g id="XMLID_4278_">
	<g id="XMLID_4289_">
		<path id="XMLID_4291_" class="st12" d="M4295,1750.2c0,0-3.5,10.7,27.7,7.3c31.1-3.5,30.6-1.3,32.1-6.4L4295,1750.2z"/>
		<path id="XMLID_4290_" class="st7" d="M4325,1728.7c0,0,19.2,5.2,27.7,3.8c5.3,6,2.1,18.6,2.1,18.6s-48.8,7.8-57.3,1.9
			c-5.7-3.6-1-9.6,4.4-11C4307.2,1740.6,4310.9,1740.5,4325,1728.7z"/>
	</g>
	<ellipse id="XMLID_3691_" class="st18" cx="4278" cy="1408.3" rx="24.7" ry="27.9"/>
	<g id="XMLID_4286_">
		<path id="XMLID_4288_" class="st12" d="M4219.6,1748.8c0,0-4,10.5,27.3,8.6s30.6,0.2,32.4-4.8L4219.6,1748.8z"/>
		<path id="XMLID_4287_" class="st7" d="M4250.6,1728.8c0,0,18.9,6.2,27.5,5.1c5,6.3,1.1,18.7,1.1,18.7s-49.1,5.4-57.3-0.9
			c-5.6-3.9-0.5-9.6,4.9-10.7C4232.3,1739.9,4236,1739.9,4250.6,1728.8z"/>
	</g>
	<path id="XMLID_4285_" class="st16" d="M4322.7,1537.3c0,0,6.3,54.6,16.2,126.1c4.3,31,17.3,69.5,16.3,71.5
		c-19.8,8.9-46.1,3.4-46.1,3.4l-25.3-140.6l-3.9,136.5c0,0-32.8,9.4-38.4,0.3c-5.6-9.1,8.6-199.2,8.6-199.2L4322.7,1537.3z"/>
	<path id="XMLID_4284_" class="st10" d="M4292.1,1426.9c0,0,18.8-6.5,29,18.1c4.2,10-1.8,69.4-1.8,69.4l6.1,29.6
		c-46.8,28.1-70.8,14.6-75,4.4c-2.6-6.2-7.3-37.6-6.9-67.2c0.2-18.9,2.6-36.5,8.9-47c10.9-17.9,33.6-7.2,33.6-7.2H4292.1z"/>
	<circle id="XMLID_4283_" class="st4" cx="4282.6" cy="1366.7" r="37.8"/>
	<polygon id="XMLID_4282_" class="st4" points="4295.5,1397.9 4295.5,1423.1 4302.7,1425.7 4264.5,1449.2 4264.5,1425.1 
		4272.1,1420.5 4277.2,1395.1 	"/>
	<path id="XMLID_4281_" class="st4" d="M4297.6,1466l19.5,34.4l-41.8,24.3l-18.1-3.1l-5.6,17.6l20.9,3.6l4.4-7.5l60.1-26.4
		l-7.5-51.5c-0.6-4.3-3-8.2-6.6-10.7l-2.2-1.6c-7.2-5.1-17.2-3.4-22.3,3.8l0,0C4294.9,1453.9,4294.6,1460.6,4297.6,1466z"/>
	<path id="XMLID_4280_" class="st17" d="M4275.3,1363.2l-31.8-10.7c0,0,10.1-28.5,37.1-26.8c27,1.6,33.5,8.5,44.8,22.2
		s47.9,110.2-19.3,96.7c-23.7-4.8-21.6-22.4-21.6-22.4l10.2-49.1L4275.3,1363.2z"/>
	<circle id="XMLID_4279_" class="st4" cx="4294.4" cy="1372.8" r="9.6"/>
</g>
<g id="XMLID_3970_">
	<path id="XMLID_3973_" class="st7" d="M2045.7,1129c3.2,5.5,18.5,3.1,18.5,3.1l-6.1-20.8l-15.4,1.1
		C2042.8,1112.5,2042.5,1123.5,2045.7,1129z"/>
	<g id="XMLID_3971_">
		
			<ellipse id="XMLID_3972_" transform="matrix(0.9557 -0.2945 0.2945 0.9557 -238.4875 656.4911)" class="st10" cx="2060.6" cy="1120.1" rx="6.3" ry="12.5"/>
	</g>
</g>
<g id="XMLID_3966_">
	<path id="XMLID_3969_" class="st7" d="M2154,1011.6c4.1,4.8,18.5,3.1,18.5,3.1l-6.1-20.8l-15.4,1.1
		C2151.1,995.1,2149.9,1006.8,2154,1011.6z"/>
	<g id="XMLID_3967_">
		
			<ellipse id="XMLID_3968_" transform="matrix(0.9557 -0.2945 0.2945 0.9557 -199.0419 683.8196)" class="st10" cx="2171.1" cy="1002.8" rx="6.3" ry="12.5"/>
	</g>
</g>
<path id="XMLID_3965_" class="st17" d="M1991.1,1102.6l141.8-139.3c10-9.9,23.5-15.4,37.6-15.4h0c7.4,0,13.9,3.5,18.9,9.4v0
	c6,7.9,5.3,18.9-1.5,26.2l-133.6,142.8c-9.9,10.5-23.6,16.7-38,17l-6.1-0.2c-7.7,0.2-15.1-3.1-20.2-9.1h0
	C1981.9,1124.9,1982.4,1111.2,1991.1,1102.6z"/>
<path id="XMLID_4268_" class="st7" d="M2120.1,989.5l18.6,2.8c2.9,0.4,5.4,2.2,6.7,4.8l0,0c2.2,4.2,0.8,9.5-3.3,12l-3,1.9
	c-1.4,0.9-3.1,1.4-4.8,1.4h-37.8L2120.1,989.5z"/>
<path id="XMLID_4267_" class="st7" d="M2056.1,1057.5l18.6,2.8c2.9,0.4,5.4,2.2,6.7,4.8l0,0c2.2,4.2,0.8,9.5-3.3,12l-3,1.9
	c-1.4,0.9-3.1,1.4-4.8,1.4h-37.8L2056.1,1057.5z"/>
<ellipse id="XMLID_4266_" class="st13" cx="1928.2" cy="784.2" rx="47.4" ry="46.9"/>
<path id="XMLID_4265_" class="st10" d="M1996.1,929.1c0,0,68.3,9.4,75.8,12.1s57.2,48.2,57.2,48.2s-7.7,26.2-31.1,32.5
	c-3.6-3.1-49.5-43.6-49.5-43.6l-52.5-6.4c0,0,37.6,17.9,42.9,24.6c5.3,6.7,23.6,60.8,23.6,60.8s-1.5,23-28.8,28
	c-7-3.4-25.1-55.6-29.9-63.4c-4.8-7.8-32.9-7.4-32.9-7.4s-55.1,4.7-60.1-25.1C1902.2,938.1,1996.1,929.1,1996.1,929.1z"/>
<path id="XMLID_4264_" class="st13" d="M1876.4,845.8c0,0-41.1,5-109.4,38.6l-25-1.5c0,0-12.9,5.1-11.3,14.4
	c1.6,9.3,18,14.7,22.1,15.3c12.8,2,32.2-10,32.2-10s64.3-34.7,95.8-26.5c18-13.5,18-13.5,18-13.5L1876.4,845.8z"/>
<path id="XMLID_4263_" class="st13" d="M1984.4,831c27-3.6,114,16.2,114,16.2l22.4-5.8l16.9,17.4l-23,9.5l-16.4-5.6
	c0,0-84.3-11.5-102.4-6.6c-18.1,4.9-20.4-7.7-20.4-7.7l5.6-9.3"/>
<path id="XMLID_4262_" class="st7" d="M1858.4,849c0,0,61.4-21.4,129.3-18.4c18.5,18.5,8.8,36.2,8.8,36.2l-6.3,12l19.5,53.7
	c0,0-85.1,25-96.6,73.8c-23.9-25.4-19.9-111.9-19.9-111.9l-20.4-0.4L1858.4,849z"/>
<g id="XMLID_4258_">
	<g id="XMLID_4260_">
		<polygon id="XMLID_4261_" class="st10" points="1921.4,775.4 1922.4,810.2 1890.2,802.4 1888.4,807.2 1924.4,817.8 1932.4,814.8 
			1931.2,773 		"/>
	</g>
	<path id="XMLID_4259_" class="st10" d="M1906.7,788.7c0,0,58.1-10.9,70.3-18.4c7.4-23.7-25.1-63.8-87.9-37.9
		c-51,21.1-17.2,69.3-17.2,69.3s15.7,16.8,26.8,12.4S1906.7,788.7,1906.7,788.7z"/>
</g>
<path id="XMLID_4257_" class="st13" d="M1916.5,824.5c0,0,2.8,6.7,0,15.8c10.7,9.2,18.1,13.5,25.4,12.5c7.2-1,7.2-14.2,7.2-14.2
	l-7.2-17.2L1916.5,824.5z"/>
<path id="XMLID_4256_" class="st10" d="M1810.7,856.2c-12.2,4.9-20.3,13.5-18,19c1.2,3,6.8,4.7,12,4.8l4.6,11l7.5-3.2l-4.1-9.4
	c2-0.5,4.1-1.2,6.2-2c1.4-0.6,2.8-1.2,4-1.8l3.8,9.6l7.2-2.4l-4.9-10.9c6.1-4.5,9.4-9.7,7.9-13.5
	C1834.6,851.8,1822.9,851.3,1810.7,856.2z"/>
<path id="XMLID_4255_" class="st10" d="M2040.1,828.4c-13-1.9-24.3,1.3-25.2,7.3c-0.5,3.2,3.4,7.5,8,10.2l-0.7,9l7.5,0.7l0.8-7.1
	c2,0.6,4.1,1,6.4,1.4c1.5,0.2,3,0.4,4.4,0.5l-0.4,6.1l6.9,0.5l0.6-6.8c7.6-0.7,13-3.5,13.6-7.6
	C2063,836.8,2053.1,830.4,2040.1,828.4z"/>
<g id="XMLID_3935_">
	<g id="XMLID_3948_">
		<path id="XMLID_3950_" class="st12" d="M364.9,1754.6c0,0-4.4,11.5,29.9,9.4s33.6,0.3,35.5-5.3L364.9,1754.6z"/>
		<path id="XMLID_3949_" class="st10" d="M399,1732.6c0,0,20.7,6.8,30.2,5.6c5.5,6.9,1.3,20.5,1.3,20.5s-53.8,5.9-62.8-1
			c-6.1-4.3-0.6-10.6,5.4-11.8C378.9,1744.8,383,1744.9,399,1732.6z"/>
	</g>
	<g id="XMLID_3945_">
		<path id="XMLID_3947_" class="st12" d="M565.8,1754.6c0,0,4.4,11.5-29.9,9.4s-33.6,0.3-35.5-5.3L565.8,1754.6z"/>
		<path id="XMLID_3946_" class="st10" d="M531.7,1732.6c0,0-20.7,6.8-30.2,5.6c-5.5,6.9-1.3,20.5-1.3,20.5s53.8,5.9,62.8-1
			c6.1-4.3,0.6-10.6-5.4-11.8C551.8,1744.8,547.7,1744.9,531.7,1732.6z"/>
	</g>
	<polygon id="XMLID_3944_" class="st13" points="444.9,1438.8 377.7,1354.6 378.3,1332.5 364,1324.6 351.7,1349.2 366.1,1366.4 
		419.2,1456.5 	"/>
	<path id="XMLID_3943_" class="st13" d="M440,1377.2c0,26.8,17,40.1,40.1,40.1s43.5-13.3,43.5-40.1c0-26.8-18.7-48.5-41.8-48.5
		S440,1350.4,440,1377.2z"/>
	<path id="XMLID_3942_" class="st16" d="M534.6,1545.9c0,0,1,137.4,1,186.3c-2.2,4.4-37.9,13.9-37.9,13.9l-12.9-149.7
		c-7.3,30-51,145.9-51,145.9s-32.9,4.9-41-10.4c4.7-15.3,50.3-186,50.3-186H534.6z"/>
	<polygon id="XMLID_3941_" class="st13" points="535.6,1428 585.7,1464.2 627.9,1498.8 647.6,1505.2 648.3,1521.2 626.4,1524.4 
		615,1508.3 524.3,1460.2 	"/>
	<path id="XMLID_3940_" class="st10" d="M512.9,1420.4l-43.9,6.5l-8.1,1.2l-19.1,2.8c-9.5,1.4-18.1,6.4-24.1,13.9l20.8,31.5
		l1.2,78.5c0,0,58.2,25.5,98.8-7.5c-2.2-9.4-6.1-77.5-6.1-77.5s-0.3-2.6-0.9-6.7c-1.6-10.8,13.8-29.3,7-37.2
		C536.7,1423.7,515.3,1420.1,512.9,1420.4z"/>
	<path id="XMLID_3939_" class="st13" d="M493,1393.9l9.6,31.4c0,0,1.6,9.5-5.8,13.8c-7.4,4.3-22.7-10.4-22.7-10.4l-5.1-34.8H493z"/>
	<path id="XMLID_3938_" class="st16" d="M514.7,1350.1c0,0-5.9-38.5-42.2-32.3c-59.2,10.1-33.6,64.5-33.6,64.5l39.4-26L514.7,1350.1
		z"/>
	<path id="XMLID_3937_" class="st2" d="M539.1,1357.7c0,0-25.5,22.2-48.6,7.1c-7.7-5-12.9-10.6-12.9-10.6l35.5-11.1l7.5,4.2
		L539.1,1357.7z"/>
	<circle id="XMLID_3936_" class="st13" cx="455.2" cy="1376.6" r="13.8"/>
</g>
<path id="XMLID_4238_" class="st13" d="M484,1526.7l43.4,57.3l6.2,2.2c2.6,0.9,4.4,3.2,4.8,5.9l1.2,9.4c0.4,2.8-1.5,5.4-4.3,5.9
	l-8.1,1.5c-3.1,0.6-6.1-1-7.4-3.9l-6.6-14.8l-50.1-42.5L484,1526.7z"/>
<path id="XMLID_4237_" class="st13" d="M413.2,1447.9c0-26.3,16-36.7,35.8-36.7c19.8,0,32,8.5,35.8,36.7c2.6,19.7-10.1,38.6-24.2,45
	l5,47.2c0,0-22.4-33-35.3-31.6c1.4-4.9,1.5-12.5,1.2-19C420.6,1481.4,413.2,1465.8,413.2,1447.9z"/>
<g id="XMLID_4234_">
	<path id="XMLID_4236_" class="st16" d="M507.1,1770c0,0,4.5,11.3-29.3,9.9c-33.8-1.4-33.1,0.9-35.1-4.5L507.1,1770z"/>
	<path id="XMLID_4235_" class="st16" d="M473.1,1749c0,0-20.3,7.1-29.6,6.1c-5.2,6.9-0.8,20.3-0.8,20.3s53.2,4.8,61.9-2.2
		c5.9-4.4,0.4-10.4-5.5-11.5C493.1,1760.6,489.1,1760.8,473.1,1749z"/>
</g>
<g id="XMLID_4231_">
	<path id="XMLID_4233_" class="st19" d="M646.1,1774c0,0,4.5,11.3-29.3,9.9c-33.8-1.4-33.1,0.9-35.1-4.5L646.1,1774z"/>
	<path id="XMLID_4232_" class="st10" d="M612.1,1753c0,0-20.3,7.1-29.6,6.1c-5.2,6.9-0.8,20.3-0.8,20.3s53.2,4.8,61.9-2.2
		c5.9-4.4,0.4-10.4-5.5-11.5C632.1,1764.6,628.1,1764.8,612.1,1753z"/>
</g>
<g id="XMLID_4228_">
	<path id="XMLID_4230_" class="st19" d="M143.2,1771.8c0,0,5.1,12.8-33.3,11.2c-38.5-1.6-37.6,1-39.9-5.1L143.2,1771.8z"/>
	<path id="XMLID_4229_" class="st10" d="M104.6,1748c0,0-23.1,8.1-33.7,7c-6,7.9-1,23-1,23s60.5,5.4,70.4-2.5
		c6.7-5,0.4-11.8-6.3-13.1C127.4,1761.1,122.8,1761.3,104.6,1748z"/>
</g>
<g id="XMLID_4225_">
	<path id="XMLID_4227_" class="st19" d="M279.2,1770.8c0,0,5.1,12.8-33.3,11.2c-38.5-1.6-37.6,1-39.9-5.1L279.2,1770.8z"/>
	<path id="XMLID_4226_" class="st10" d="M240.6,1747c0,0-23.1,8.1-33.7,7c-6,7.9-1,23-1,23s60.5,5.4,70.4-2.5
		c6.7-5,0.4-11.8-6.3-13.1S258.8,1760.3,240.6,1747z"/>
</g>
<g id="XMLID_4222_">
	<path id="XMLID_4224_" class="st19" d="M719.1,1774c0,0,4.5,11.3-29.3,9.9c-33.8-1.4-33.1,0.9-35.1-4.5L719.1,1774z"/>
	<path id="XMLID_4223_" class="st10" d="M685.1,1753c0,0-20.3,7.1-29.6,6.1c-5.2,6.9-0.8,20.3-0.8,20.3s53.2,4.8,61.9-2.2
		c5.9-4.4,0.4-10.4-5.5-11.5C705.1,1764.6,701.1,1764.8,685.1,1753z"/>
</g>
<g id="XMLID_4219_">
	<path id="XMLID_4221_" class="st16" d="M372.2,1785.5c0,0-8,8.2-19.8-21.5s-13.5-28.3-9.6-32.1L372.2,1785.5z"/>
	<path id="XMLID_4220_" class="st16" d="M377.3,1748.1c0,0-13.9-14.8-16.6-23.2c-8-1.9-17.8,7-17.8,7s16.2,47.8,25.6,52.7
		c6,3.4,9.1-3.7,7.8-9.2C375,1769.9,373.3,1766.5,377.3,1748.1z"/>
</g>
<path id="XMLID_4218_" class="st20" d="M490.5,1616.4c0,0-7.1,122.1-10.1,135.4c-6.8,11.3-39.5,7.5-39.5,7.5l6.5-101.8l-24.9,55.4
	l-45.1,40.8c0,0-22.6-0.8-30.1-25l46.5-38.5l10.6-69.3L490.5,1616.4z"/>
<path id="XMLID_4217_" class="st2" d="M489.6,1545.2l2.7,76.2c-10.9,9.1-10.6,13.1-89.2,6.5c-0.7-21.6,0-69.8,0-69.8l-9.4-18
	c0,0,10.8-32.4,43.9-32.4c32.1,0,28.2,0.1,57.3,28.6C496.4,1537.8,489.6,1545.2,489.6,1545.2z"/>
<path id="XMLID_4216_" class="st13" d="M420.9,1550.5c-19-1.3-24.7-15.3-24.7-15.3l-35.5,75.7l-8.2,8.9c-2.2,2.4-2.8,5.9-1.4,8.9
	l4.6,10.2c1.2,2.6,4.4,3.6,6.9,2.2l14.4-8.7c2.1-1.3,3.3-3.7,3-6.1l-1.2-9.4l14.5-29C393.3,1587.8,425.3,1550.9,420.9,1550.5z"/>
<path id="XMLID_3911_" class="st13" d="M903,1532c-0.6,15.6-12.5,28.3-27.9,28.3s-27.9-12.7-27.9-28.3c0-15.6,12.5-28.3,27.9-28.3
	S904.3,1499.2,903,1532z"/>
<path id="XMLID_3910_" class="st13" d="M948.7,1613c0,0,10-4.5,15.8-2.3s11,10.5,8.3,16c-2.8,5.5-21.1,1-21.1,1L948.7,1613z"/>
<path id="XMLID_3909_" class="st12" d="M860.7,1738.1c0,0-6,16.7,0,25.1c15.2,0.6,50.7,0,50.7,0s6.8-6.5,1.2-12.6
	c-1.8-2-4.5-3.1-7.2-3.2c-11.7-0.7-21.5-4.1-24.8-10.7C880.7,1736.4,860.7,1738.1,860.7,1738.1z"/>
<path id="XMLID_3908_" class="st13" d="M794,1548.5l2.5-11.3c0,0-4.3-15-13-13c-8.8,2-9,16.5-9,16.5l11,18.1L794,1548.5z"/>
<path id="XMLID_3907_" class="st12" d="M799.9,1683.1c0,0-13.6-11.4-23.5-8.7c-5.8,14.1-17.5,47.6-17.5,47.6s3.8,8.7,11.4,5.5
	c2.5-1,4.4-3.1,5.5-5.6c4.7-10.7,11.3-18.7,18.6-19.5C794.6,1702.5,799.9,1683.1,799.9,1683.1z"/>
<path id="XMLID_3906_" class="st7" d="M903,1648.6c0,0-5.1,67.4-17.7,90.5c-5.9,3.4-26.5,1.9-26.5,1.9l5.6-32.3l-2-26.1l-31.9,32.3
	c0,0-27,3.6-38.1-6.2c0-7.2,6.2-27.7,6.2-27.7s18.2,7.2,22.2,4.2c3.9-2.9,15.1-38.9,15.1-38.9L903,1648.6z"/>
<path id="XMLID_3905_" class="st12" d="M873.1,1563c0,0-17.2-0.3-23.9,2.6c-6.7,2.8-16.2,10.8-16.2,10.8s-28.8,0.5-36.5-30.1
	c0-0.3-10.4-1.8-14.5,10.6c4.6,10.3,3.2,26.2,52.8,45c8.1,3.1,0.8,46.1,0.8,46.1s23.7,26,72.3,4.1c0.3-7.7-3.3-42.7-3.3-42.7
	s25.7,21.1,49.1,19c3.2-2.8,3.1-10.1-2.8-16c-5.9-5.8-38-9-47.8-36C900.9,1569.1,892.5,1563.6,873.1,1563z"/>
<polygon id="XMLID_3904_" class="st12" points="689.5,1583.3 693.9,1759.2 654.7,1759.9 643.4,1629.3 622.7,1758.9 579.3,1758.9 
	586.9,1600.5 "/>
<path id="XMLID_3903_" class="st13" d="M860.3,1554.1l-2,10c0,0,13,19.3,21.5,19.3s7.4-15.2,7.4-15.2l-2.6-15L860.3,1554.1z"/>
<path id="XMLID_3902_" class="st21" d="M668.7,1440c0,0,38.3,55.9,46.8,60.4s66.4,16.9,66.4,16.9s16.5,8.7,16.5,16.7s-21.1,0-21.1,0
	l0.4,12.1l-17.5-17.8c0,0-36.1-1.7-53.6-7.6c-17.5-5.9-37.8-23.5-37.8-23.5L668.7,1440z"/>
<path id="XMLID_3901_" class="st7" d="M628.1,1423.2c0,0,28.9,1.9,40.6,10.1s12.6,14.4,12.6,14.4s-7.7,96.9,12.6,142
	c-15.8-3.6-75.5,0.2-108.6,19.1c3.8-27.5-6-101.6-6-101.6l-9.7-59.9C569.5,1447.2,590.7,1422.6,628.1,1423.2z"/>
<path id="XMLID_3900_" class="st21" d="M590.7,1393.2c0,0,17.7,20.5,5,37.8c6.6,8.6,39,24.3,39,24.3l3-27.3c0,0-13.7-9.7-14.2-34.7
	C612.5,1388.4,590.7,1393.2,590.7,1393.2z"/>
<path id="XMLID_3899_" class="st21" d="M569.5,1447.2c0,0,28.4-14.9,26.6,17.6c-1.8,32.4-8.4,36.8,1.3,50.3s66.3,21.8,66.3,21.8
	l18-3c0,0,17.9,4.4,20.6,13.2c2.7,8.8-26.4,19.6-43.1,13.2c-16.7-6.3-68-2.3-96.4-36.3C550.6,1509.8,548.8,1465.2,569.5,1447.2z"/>
<path id="XMLID_3898_" class="st21" d="M643.3,1380.3c-0.7,18-14.3,32.5-32,32.5s-32-14.6-32-32.5s14.3-32.5,32-32.5
	S644.8,1342.6,643.3,1380.3z"/>
<path id="XMLID_3897_" class="st10" d="M578,1375.6c0,0,24.3-21.5,62.5-18.6c1.8-11.3-6.5-36.1-32.2-34.6
	C582.6,1323.9,562.3,1344.2,578,1375.6z"/>
<ellipse id="XMLID_3896_" class="st21" cx="580.7" cy="1375.3" rx="8.2" ry="9.7"/>
<path id="XMLID_3895_" class="st12" d="M919.5,1490.8c0-1.9-1.6-3.5-3.6-3.5c-0.7,0-1.4,0.2-2,0.6c-3,2-13,10.6-19.1,13.7
	c-22.5-13.6-42.8-7.8-51.6,9.1c-8.8,16.8,5.7,35.5,5.7,35.5l7.4-5.6c-0.8-1.3-1.3-2.8-1.3-4.4c0-4.4,3.6-8,8-8
	c2.4,0,4.6,1.1,6.1,2.8l48.9-37c0.9-0.7,1.5-1.8,1.4-2.9L919.5,1490.8z"/>
<path id="XMLID_3894_" class="st2" d="M512.4,1421.3c0.6-2.2-0.7-4.5-2.9-5.1c-0.8-0.2-1.6-0.2-2.4,0c-4.1,1.3-18.1,7.7-26.1,9.3
	c-21-22.8-45.9-22.8-61.3-6.6c-15.4,16.2-5.1,42-5.1,42l10.2-3.9c-0.5-1.7-0.6-3.6-0.1-5.5c1.4-5,6.7-7.9,11.7-6.4
	c2.8,0.8,4.9,2.7,6,5.2l67.4-25.9c1.3-0.5,2.2-1.5,2.6-2.8L512.4,1421.3z"/>
<path id="XMLID_3893_" class="st22" d="M601.5,1362.3c-1,0.6,26.7,3.3,26.7,3.3s23.1-9.9,32-12.2c1.5-0.4,1.2-2.6-0.3-2.7
	c-13.1-0.8-19.4-1.7-19.4-1.7S614.3,1355.1,601.5,1362.3z"/>
<path id="XMLID_4196_" class="st13" d="M212.1,1401.9l71.4-103.2v-19.3l20.4-8.6l9.4,8.1l-3.7,25.2l-13.8,8.6
	c0,0-58.8,110.4-72.6,117.9C209.4,1438,212.1,1401.9,212.1,1401.9z"/>
<path id="XMLID_4195_" class="st12" d="M234.5,1534.8l23.4,219.8L212,1765c0,0-18.3-164.7-27.1-169.4l-69.1,160l-48.1,4.2
	l56.2-220.6L234.5,1534.8z"/>
<path id="XMLID_4194_" class="st2" d="M218.3,1392.9l-11.7-7.9l-58.3,10.8c0,0-37.5,7.8-30.1,36.7c9.7,38.1,2.3,109.4,2.3,109.4
	s67.8,29.4,119.2-5.8c-6.8-29.1-13.5-85.1-9.1-96.8C233.2,1432.5,224.3,1396.9,218.3,1392.9z"/>
<path id="XMLID_4193_" class="st23" d="M217.1,1324.2c0,0-50.9-1.9-70.4,5.2c-3.2,31.2,5.3,49.2,15.5,59.2c1,4.5,1.7,9.5,1.3,13.8
	c-0.3,3,1.2,5.9,3.7,7.6c9.8,6.3,17.4,8,22.4,8.1c3.6,0.1,6.3-3.3,5.5-6.8l-2.5-10.6c9.6-0.1,17.6-3.8,21.5-13
	c5.4-12.6,7.8-44,7.8-44L217.1,1324.2z"/>
<path id="XMLID_4192_" class="st13" d="M140.2,1405l-61.7-105.5v-19.2l-21.1-9.6l-17.4,9.9l12,25.2l11.7,3.6l52,120.9
	c2.5,5.8,8.4,9.4,14.7,8.9h0c8.7-0.6,15-8.6,13.6-17.2l-1.9-11.9C141.7,1408.4,141.1,1406.6,140.2,1405z"/>
<path id="XMLID_4191_" class="st10" d="M147.1,1364.8c0,0,29-25.7,74.6-22.2c2.1-13.4-7.8-43.1-38.4-41.2
	C152.6,1303.2,128.4,1327.4,147.1,1364.8z"/>
<path id="XMLID_4190_" class="st22" d="M175,1349c-1.2,0.7,31.8,3.9,31.8,3.9s27.6-11.9,38.1-14.5c1.8-0.5,1.4-3.1-0.4-3.2
	c-15.7-0.9-23.2-2.1-23.2-2.1S190.3,1340.4,175,1349z"/>
<circle id="XMLID_3885_" class="st13" cx="227.5" cy="1540.8" r="44.5"/>
<path id="XMLID_3884_" class="st20" d="M188.9,1564.9l91.2-66.4c1.7-1.2,2-3.5,0.8-5.2l0,0c-1.2-1.6-3.5-2-5.2-0.8l-19.2,12
	c0,0-21.6-15.7-34.1-16.3s-32.1,16-39.4,27.3C175.6,1526.8,172.7,1542.5,188.9,1564.9z"/>
<polygon id="XMLID_3883_" class="st13" points="193.5,1608.9 143.2,1659.5 129.9,1660.7 128.5,1676.7 143.1,1687.7 153.9,1669.1 
	212.3,1621.5 "/>
<path id="XMLID_3882_" class="st10" d="M188.7,1779.8c-2.3,3.9-0.5,11.1-0.5,11.1H227c1.4,0,2.6-0.5,2.7-2l0-0.9
	c0.1-3.3-1.6-6.2-4.4-7.9l-10.5-6.2c0,0-16.9,5.1-16.9-0.9C197.9,1767,188.7,1779.8,188.7,1779.8z"/>
<path id="XMLID_3881_" class="st10" d="M263.8,1779.8c-2.3,3.9-0.5,11.1-0.5,11.1h38.8c1.4,0,2.6-0.5,2.7-2l0-0.9
	c0.1-3.3-1.6-6.2-4.4-7.9l-10.5-6.2c0,0-16.9,5.1-16.9-0.9C273,1767,263.8,1779.8,263.8,1779.8z"/>
<polygon id="XMLID_3880_" class="st13" points="275.2,1588.5 342.6,1562 348.8,1549.9 363.4,1554.7 358.7,1570.7 288,1604.7 
	239,1607.7 "/>
<path id="XMLID_3879_" class="st19" d="M188.7,1780.4c-2.3-0.7,24.3-93.7,24.3-93.7l81-8.4l-2.2,96.6c0,0-13.9,7-29.1,7.5
	c-2.5-0.5-4-78.6-4-78.6L217,1774C217,1774,201.7,1781.9,188.7,1780.4z"/>
<circle id="XMLID_3878_" class="st13" cx="211.6" cy="1547.8" r="10.8"/>
<polygon id="XMLID_3877_" class="st13" points="218.5,1580.1 228,1603.7 249.8,1606.4 251.9,1593.2 243.9,1574.8 "/>
<path id="XMLID_3876_" class="st7" d="M188.8,1610.4c0,0,51-26.8,90.6-25.1c0.9-0.1,12.7,29.6,12.7,29.6l-9,4.9l11.4,61.2
	c0,0-60.4,23.2-86.4,9.9c2.8-16.1-1.4-50.8-1.4-50.8l-8,2.2L188.8,1610.4z"/>
<g id="XMLID_4165_">
	<path id="XMLID_4179_" class="st13" d="M4391,1448.7c-7.5,16.3-28.6,51-28.6,51l-46.8,31.8l5.2,23.1l20.8-5l5.6-16.9l39-18
		l32.3-49.3L4391,1448.7z"/>
	<g id="XMLID_4176_">
		<path id="XMLID_4178_" class="st12" d="M4375.7,1756.8c0,0-4.1,10.7,27.8,8.8s31.2,0.3,33-4.9L4375.7,1756.8z"/>
		<path id="XMLID_4177_" class="st10" d="M4407.3,1736.4c0,0,19.3,6.3,28,5.2c5.1,6.4,1.2,19.1,1.2,19.1s-50,5.5-58.4-0.9
			c-5.7-4-0.6-9.8,5-10.9C4388.6,1747.7,4392.4,1747.7,4407.3,1736.4z"/>
	</g>
	<g id="XMLID_4173_">
		<path id="XMLID_4175_" class="st12" d="M4434.7,1764.3c0,0-4.1,10.7,27.8,8.8s31.2,0.3,33-4.9L4434.7,1764.3z"/>
		<path id="XMLID_4174_" class="st10" d="M4466.3,1743.9c0,0,19.3,6.3,28,5.2c5.1,6.4,1.2,19.1,1.2,19.1s-50,5.5-58.4-0.9
			c-5.7-4-0.6-9.8,5-10.9C4447.7,1755.2,4451.5,1755.2,4466.3,1743.9z"/>
	</g>
	<path id="XMLID_4172_" class="st7" d="M4380.5,1554L4401,1739c0,0,15.2,6.9,36.9,7.3c-0.6-16.8-12-141.9-12-141.9
		s25.4,139.5,30.6,146.4c12.3,4.3,40-1.2,40-1.2l-16.6-86.2l-9.4-94.1L4380.5,1554z"/>
	<path id="XMLID_4171_" class="st12" d="M4446.5,1434.6c0,0,11.4,6.8,17.7,32.1c6.2,25.3-5.1,37.1-5.1,47.3c0,10.1,6,45.1,11.3,55.3
		c-30.3,1.3-72.2,1.9-92.5-7c-3.7-29.2-3.1-48.8,0.9-76.5s18.2-51.6,35.3-54.8C4440,1426.1,4446.5,1434.6,4446.5,1434.6z"/>
	<path id="XMLID_4170_" class="st13" d="M4394.8,1374.2c0,25.1,13.7,45.5,38.6,45.5s45.1-20.4,45.1-45.5c0-25.1-20.2-45.5-45.1-45.5
		S4394.8,1349.1,4394.8,1374.2z"/>
	<polygon id="XMLID_4169_" class="st13" points="4450,1404.3 4449,1437.8 4404.4,1458.1 4423.5,1404.1 	"/>
	<path id="XMLID_4168_" class="st13" d="M4435.3,1483.4c10.2,13.9,30.5,24.3,30.5,24.3l11,73.2l21.5,4.3l5.2-22.4l-11.5-12.3
		l-1.5-39l-27.2-46.6L4435.3,1483.4z"/>
	<path id="XMLID_4167_" class="st7" d="M4475.5,1390.7c0,0-36.9-40.2-74.4-43.2c-20.7-1.6-31.1-2.6-36.2-3.1
		c-2.6-0.3-4.5-2.8-3.9-5.4l0,0c0.5-2.3,2.7-3.8,5-3.5l39.3,3.4c0,0,10.7-21.1,25.2-23c14.5-1.9,44.7,19.3,47.9,27.4
		C4481.7,1351.4,4487.1,1359.8,4475.5,1390.7z"/>
	<circle id="XMLID_4166_" class="st13" cx="4458.3" cy="1376.7" r="11"/>
</g>
<g id="XMLID_3846_">
	<g id="XMLID_3858_">
		<path id="XMLID_3860_" class="st12" d="M3668.9,1766c0,0-4.4,11.6,29.9,9.5c34.3-2.1,33.6,0.3,35.6-5.3L3668.9,1766z"/>
		<path id="XMLID_3859_" class="st7" d="M3702.9,1744.1c0,0,20.7,6.8,30.2,5.6c5.5,6.9,1.3,20.5,1.3,20.5s-53.9,5.9-62.9-1
			c-6.1-4.3-0.6-10.6,5.4-11.8C3682.8,1756.2,3686.9,1756.3,3702.9,1744.1z"/>
	</g>
	<g id="XMLID_3855_">
		<path id="XMLID_3857_" class="st12" d="M3783.9,1766c0,0-4.4,11.6,29.9,9.5c34.3-2.1,33.6,0.3,35.6-5.3L3783.9,1766z"/>
		<path id="XMLID_3856_" class="st7" d="M3818,1744.1c0,0,20.7,6.8,30.2,5.6c5.5,6.9,1.3,20.5,1.3,20.5s-53.9,5.9-62.9-1
			c-6.1-4.3-0.6-10.6,5.4-11.8C3797.9,1756.2,3802,1756.3,3818,1744.1z"/>
	</g>
	<ellipse id="XMLID_3854_" class="st13" cx="3812" cy="1347.9" rx="40.5" ry="42.9"/>
	<polygon id="XMLID_3853_" class="st13" points="3763.7,1431.3 3717.1,1525.1 3705.8,1540.9 3716.2,1558.1 3736.1,1537.8 
		3732.3,1527.4 3767.3,1479.1 3780.2,1465 3781.8,1422.2 	"/>
	<path id="XMLID_3852_" class="st10" d="M3807.1,1409.8c0,0,29.8-4.5,39.1,4.4c9.4,8.9,18.9,48.5,18.9,48.5l-26.2,15.3l2,77.9
		c0,0-60.1-10.2-97.1,0c2.6-16,8.4-108.5,8.4-108.5S3759.9,1408.6,3807.1,1409.8z"/>
	<path id="XMLID_3851_" class="st13" d="M3833.3,1471.8c0,0,11.5-21.8,31.3-10.3c0.3,0.3,2.4,15.1,4.2,28.6
		c1.6,11.8-7.1,22.6-19.1,23.4l-59.8,4.4l-21.9,5.1l-13.5-22.5l15.8-6.6l19.6,5.9l47.3-6L3833.3,1471.8z"/>
	<path id="XMLID_3850_" class="st13" d="M3803.4,1383l-5.2,26.2l-6.2,7.3c-2.9,3.5-4.2,8.1-3.3,12.6l0.8,4.2c0.7,3.5,5,5.1,7.8,3
		l30-20.7v-36.3L3803.4,1383z"/>
	<path id="XMLID_3849_" class="st19" d="M3744.7,1548.9c0,0-47.3,135.5-46.6,194.8c12.4,8,40.1,10,40.1,10s25.3-147.6,48.3-158.5
		c5.8,12.1,24.6,148.8,24.6,148.8s24.7,12.6,39.9,6.4l-7.9-108.9l-2.2-92.5H3744.7z"/>
	<path id="XMLID_3848_" class="st10" d="M3744.5,1318.6l110.2,39.9l5.1-28c0,0-10.6-30.4-38-34.2c-27.3-3.8-43.6,22.2-43.6,22.2
		l-33.8-7V1318.6z"/>
	<circle id="XMLID_3847_" class="st13" cx="3830.2" cy="1352.1" r="9.5"/>
</g>
<circle id="XMLID_4149_" class="st13" cx="3688" cy="1571.5" r="39.3"/>
<path id="XMLID_4148_" class="st7" d="M3722.1,1592.7l-80.5-58.6c-1.5-1.1-1.8-3.1-0.7-4.6l0,0c1.1-1.5,3.1-1.8,4.5-0.7l16.9,10.6
	c0,0,19-13.9,30.1-14.4c11.1-0.5,28.3,14.1,34.8,24.1C3733.8,1559.1,3736.4,1572.9,3722.1,1592.7z"/>
<polygon id="XMLID_4147_" class="st13" points="3640.3,1615.4 3609,1677.2 3600.7,1683.9 3605.3,1697.5 3617.9,1690.7 
	3620.5,1680.2 3648.7,1644.8 3651.5,1626 "/>
<path id="XMLID_4146_" class="st7" d="M3629.4,1692.8l1.9,85.3l-10,5.2c-2.3,1.2-3.9,3.5-3.9,6.1v3.1l39,0.7l4.1-77.9l38.7,61.9
	l-9.2,5.6c-2.5,1.5-4,4.2-3.8,7.1l0.1,3.3l42.3-0.1l-1.6-15.9l-26.1-77L3629.4,1692.8z"/>
<circle id="XMLID_4145_" class="st13" cx="3702.1" cy="1577.6" r="9.5"/>
<path id="XMLID_4144_" class="st17" d="M3652.4,1611.1c-8.1,1.9-12.1,4.4-12.1,4.4l5.4,15.5c-6.6,24.9-16.7,64.3-16.7,64.3
	s50.9,20.3,73.8,8.6c-2.5-14.2,5-51.4,5-51.4l-1.7,1.9c5.7-4.5,6.8-26.8,6.8-26.8S3673.2,1606.1,3652.4,1611.1z"/>
<polygon id="XMLID_4143_" class="st13" points="3696,1606.1 3687.6,1626.9 3668.4,1629.3 3666.6,1617.7 3673.6,1601.4 "/>
<path id="XMLID_4142_" class="st13" d="M3701.7,1650.8l1.4,18.2l-14.7,22.8l3.5,15.1h11.3l2.6-16.4l15.5-23.3c0,0,0.3-22.1-8.5-39.8
	C3705,1629.7,3701.7,1650.8,3701.7,1650.8z"/>
<circle id="XMLID_3836_" class="st13" cx="3688" cy="1571.5" r="39.3"/>
<path id="XMLID_3835_" class="st7" d="M3722.1,1592.7l-80.5-58.6c-1.5-1.1-1.8-3.1-0.7-4.6l0,0c1.1-1.5,3.1-1.8,4.5-0.7l16.9,10.6
	c0,0,19-13.9,30.1-14.4c11.1-0.5,28.3,14.1,34.8,24.1C3733.8,1559.1,3736.4,1572.9,3722.1,1592.7z"/>
<polygon id="XMLID_3834_" class="st13" points="3640.3,1615.4 3609,1677.2 3600.7,1683.9 3605.3,1697.5 3617.9,1690.7 
	3620.5,1680.2 3648.7,1644.8 3651.5,1626 "/>
<path id="XMLID_3833_" class="st7" d="M3629.4,1692.8l1.9,85.3l-10,5.2c-2.3,1.2-3.9,3.5-3.9,6.1v3.1l39,0.7l4.1-77.9l38.7,61.9
	l-9.2,5.6c-2.5,1.5-4,4.2-3.8,7.1l0.1,3.3l42.3-0.1l-1.6-15.9l-26.1-77L3629.4,1692.8z"/>
<circle id="XMLID_3832_" class="st13" cx="3702.1" cy="1577.6" r="9.5"/>
<path id="XMLID_3831_" class="st17" d="M3652.4,1611.1c-8.1,1.9-12.1,4.4-12.1,4.4l5.4,15.5c-6.6,24.9-16.7,64.3-16.7,64.3
	s50.9,20.3,73.8,8.6c-2.5-14.2,5-51.4,5-51.4l-1.7,1.9c5.7-4.5,6.8-26.8,6.8-26.8S3673.2,1606.1,3652.4,1611.1z"/>
<polygon id="XMLID_3830_" class="st13" points="3696,1606.1 3687.6,1626.9 3668.4,1629.3 3666.6,1617.7 3673.6,1601.4 "/>
<path id="XMLID_3829_" class="st13" d="M3701.7,1650.8l1.4,18.2l-14.7,22.8l3.5,15.1h11.3l2.6-16.4l15.5-23.3c0,0,0.3-22.1-8.5-39.8
	C3705,1629.7,3701.7,1650.8,3701.7,1650.8z"/>
<circle id="XMLID_3828_" class="st13" cx="4588" cy="1562.5" r="39.3"/>
<path id="XMLID_3827_" class="st17" d="M4622.1,1583.7l-80.5-58.6c-1.5-1.1-1.8-3.1-0.7-4.6l0,0c1.1-1.5,3.1-1.8,4.5-0.7l16.9,10.6
	c0,0,19-13.9,30.1-14.4c11.1-0.5,28.3,14.1,34.8,24.1C4633.8,1550.1,4636.4,1563.9,4622.1,1583.7z"/>
<polygon id="XMLID_3826_" class="st13" points="4555.4,1617.9 4499.4,1577.3 4494,1568.1 4479.9,1570.4 4484.6,1584 4494.6,1588.2 
	4547.1,1645.6 4557,1631.3 "/>
<path id="XMLID_3825_" class="st10" d="M4529.4,1683.8l1.9,85.3l-10,5.2c-2.3,1.2-3.9,3.5-3.9,6.1v3.1l39,0.7l4.1-77.9l38.7,61.9
	l-9.2,5.6c-2.5,1.5-4,4.2-3.8,7.1l0.1,3.3l42.3-0.1l-1.6-15.9l-26.1-77L4529.4,1683.8z"/>
<circle id="XMLID_3824_" class="st13" cx="4602.1" cy="1568.6" r="9.5"/>
<path id="XMLID_3823_" class="st7" d="M4555.9,1604.7c-10.5-0.8-15.6,1.7-15.6,1.7s7.8,6.2,5.4,15.5c-2.4,9.2-16.7,64.3-16.7,64.3
	s50.9,20.3,73.8,8.6c-2.5-14.2,5-51.4,5-51.4l-1.7,1.9c5.7-4.5,6.8-26.8,6.8-26.8S4577.3,1606.4,4555.9,1604.7z"/>
<polygon id="XMLID_3822_" class="st13" points="4596,1597.1 4587.6,1617.9 4568.4,1620.3 4566.6,1608.7 4573.6,1592.4 "/>
<path id="XMLID_3821_" class="st13" d="M4601.7,1641.8l1.4,18.2l-14.7,22.8l3.5,15.1h11.3l2.6-16.4l15.5-23.3c0,0,0.3-22.1-8.5-39.8
	C4605,1620.7,4601.7,1641.8,4601.7,1641.8z"/>
<path id="XMLID_4125_" class="st7" d="M3444.1,1756.5c0,0-23.6,8.3-27.3,11.1c-3.7,2.8-6.1,10.4,2.3,11.6c9.2,1.3,45-3.5,45-3.5
	s6.7-6.6,0-19.3C3457.4,1743.8,3444.1,1756.5,3444.1,1756.5z"/>
<path id="XMLID_4124_" class="st7" d="M3565.5,1764.5v6.4c0,3.9-2.2,7.4-5.7,9l-27.8,12.3c-1.7,0.7-3.5,0.8-5.3,0.3l-0.1-0.8
	c-3-1-5-2.7-5-7.7h0c0-1,0.9-3.3,2.4-4.7l14.8-13.2L3565.5,1764.5z"/>
<path id="XMLID_4123_" class="st10" d="M3457.9,1672.7c0,0,18.6,2.9,44.3,2.4s45.7-11.5,45.7-11.5l18.1,100.8c0,0-12.8,6.1-21.4,6.1
	c-8.6,0-11.4-1.9-11.4-1.9l-29.1-58.2l-1.7-2.4l-32.1,56.1c0,0-8.3,1.9-15.6,0.4c-7.3-1.5-12.9-7.8-12.9-7.8L3457.9,1672.7z"/>
<g id="XMLID_4113_">
	<ellipse id="XMLID_4122_" class="st24" cx="3504.1" cy="1546.3" rx="36.7" ry="40.1"/>
	<path id="XMLID_4121_" class="st24" d="M3469.1,1585.7l-12.1,18.7l-47.2-49.6l-11.7-2.4c-4.6-1-7.7-5.2-7.3-9.8l0.8-8.4
		c0.2-2.3,1.8-4.3,4.1-5l10.1-3c3.1-0.9,6.4,0.4,8,3.2l9.3,16.2L3469.1,1585.7z"/>
	<path id="XMLID_4120_" class="st24" d="M3531.1,1592.6l17.5,17.4l40.3-61.8l15.4-6.5c4.2-1.8,6.4-6.5,5-10.9l-3.4-10.5
		c-1.2-3.9-5.3-6.1-9.3-5l-11,3.1c-2.7,0.7-4.7,2.8-5.4,5.5l-4.1,15.6L3531.1,1592.6z"/>
	<path id="XMLID_4119_" class="st17" d="M3400.2,1581.8"/>
	<path id="XMLID_4118_" class="st17" d="M3547.6,1787.9"/>
	<path id="XMLID_4117_" class="st17" d="M3504.5,1589.1l31.9-5l21,28.8l-12.9,10.2l9.8,40.5c-40.2,28.6-100.3,9.5-100.3,9.5
		l8.1-49.9l-14.7-6.2l21.4-32.8l35.8,6.9V1589.1z"/>
	<polygon id="XMLID_4116_" class="st24" points="3514.3,1580.5 3516.5,1589.5 3494.1,1606.9 3488,1589.9 3493.5,1575.1 	"/>
	<path id="XMLID_4115_" class="st10" d="M3537.7,1562.4l-85.2-51.1c-1.2-0.7-1.5-2.3-0.7-3.5l0,0c0.7-0.9,2-1.2,3-0.6l21.9,12.4
		c0,0,6.3-17.4,32.1-15.8c25.8,1.6,36.1,21.3,34.8,34.4C3542.5,1551.4,3537.7,1562.4,3537.7,1562.4z"/>
	<circle id="XMLID_4114_" class="st24" cx="3522.4" cy="1555" r="8.7"/>
</g>
<polygon id="XMLID_3807_" class="st24" points="3887.4,1611.3 3865.3,1754.5 3835.3,1751.2 3848.5,1591.3 "/>
<path id="XMLID_3806_" class="st10" d="M3834.5,1749.1l-1.2,19.5c0,0-28.4,8.7-32.8,9.8c-3.5,0.9-5.7,5.1-4.3,9
	c0.7,2,2.4,3.5,4.4,4.2c15,5.6,61.4-2.6,64.3-5.8c3.1-3.4,2.8-32.8,2.8-32.8L3834.5,1749.1z"/>
<path id="XMLID_3805_" class="st24" d="M3935.5,1603l5.3,72.3c0,0,18.7,68.5,14.3,83.3c-4.4,14.7-27.9-1.3-27.9-1.3l-16.8-76.5
	l-15.6-71.3L3935.5,1603z"/>
<path id="XMLID_3804_" class="st10" d="M3927.1,1757.3l3.2,21c0,0-29.9,5.9-34.3,7c-3.5,0.9-5.7,5.1-4.3,9c0.7,2,2.4,3.5,4.4,4.2
	c15,5.6,62.2,0,65.1-3.2c3.1-3.4-4.4-39.6-4.4-39.6L3927.1,1757.3z"/>
<path id="XMLID_3803_" class="st7" d="M3925.8,1368.9c0,0,35.1,79.9,29.9,100.6c-5.2,20.6-61,16.4-61,16.4l-52.2-29.3l12.4-87.7
	H3925.8z"/>
<path id="XMLID_3802_" class="st24" d="M3853.6,1431.5l-35,37.8c-5.5,5.9-6.3,14.8-1.9,21.6l19.9,31l-12.9,9.7l12.9,16l9.6,0.5
	l0.9-30.1l-12.6-33.3l21.7-12.4L3853.6,1431.5z"/>
<ellipse id="XMLID_3801_" class="st24" cx="3882.5" cy="1362.3" rx="40" ry="43.9"/>
<path id="XMLID_3800_" class="st7" d="M3916.5,1531.7c0,0,19.1,28.5,19.5,73c-14.4,5.8-40.4,10.3-40.4,10.3l-4.9-13l-3.9,11.5
	l-41.6-5.2l0.6-65.5L3916.5,1531.7z"/>
<path id="XMLID_3799_" class="st17" d="M3882.5,1416.5c0,0,25.2,2.7,47.5,44c2.6,4.9-19.2,12.2-20.8,18.5c-4.2,16.1,3.7,32,3.7,32
	s4,15.4,6.9,23.3c-56,36.1-74.3,13.8-74.3,13.8v-62.6c0,0-10.8-16.4-9-33.7s29.6-34.9,29.6-34.9L3882.5,1416.5z"/>
<path id="XMLID_3798_" class="st24" d="M3930,1460.6c10.4,15.5,23.1,35.4,23.2,39.2c0.2,6.4-22.3,53.4-22.3,53.4l-0.6,16.9
	l-12.6,13.4l-13.5-8.4l3.9-22.4l9.8-7.9l6.5-44.2l-16.9-23.6L3930,1460.6z"/>
<path id="XMLID_3797_" class="st24" d="M3895.5,1391.7l-3.5,37.5c0,0-21.5,13-27.2,9.2s-3.1-17.5-3.1-17.5l14.1-32.4L3895.5,1391.7z
	"/>
<path id="XMLID_3796_" class="st7" d="M3913.2,1390.4c0,0,21.6-10.7,8.4-47.4c-13.1-36.6-58.7-22.2-58.7-22.2s-24.9,9.9-34.3,28.5
	c11.1,4.5,41,8.1,41,8.1l8.7-3.2L3913.2,1390.4z"/>
<circle id="XMLID_3795_" class="st24" cx="3893.6" cy="1368.5" r="11.1"/>
<path id="XMLID_3794_" class="st25" d="M3900.5,1377.2c0,0,3.7,53.2-5.8,61.8c-9.4,8.6,25.2,41,31.1,14.3c5.9-26.7-12.7-63-12.7-63
	L3900.5,1377.2z"/>
<circle id="XMLID_4098_" class="st13" cx="4126.3" cy="1376.8" r="43.8"/>
<path id="XMLID_4097_" class="st10" d="M4168,1396c0,0-35.9-41.4-69.8-59.2c-2.1,0.5,9-16.4,28.1-18.7c19.1-2.3,39.7,7.7,49.8,30.5
	C4186.2,1371.3,4168,1396,4168,1396z"/>
<path id="XMLID_4096_" class="st10" d="M4104.2,1333.3l-28.3-13.3c-2.2-1-4.8-0.1-5.8,2l0,0c-1,2.1-0.2,4.7,1.9,5.8
	c6.6,3.6,22.4,11,49.5,18.3C4116.9,1341.2,4104.2,1333.3,4104.2,1333.3z"/>
<circle id="XMLID_4095_" class="st13" cx="4148.2" cy="1374.5" r="11.5"/>
<polygon id="XMLID_4094_" class="st13" points="4175.5,1466.8 4216.1,1526.9 4170.1,1561.8 4179.5,1574.4 4156.5,1583 
	4156.5,1551.8 4188.2,1525.6 4151.9,1495.9 "/>
<polygon id="XMLID_4093_" class="st13" points="4044.9,1440.3 4014.6,1470.2 4036.5,1535.6 4028.9,1551.5 4044.9,1563.7 
	4050.9,1538.5 4038.1,1484.9 4070.5,1466.8 "/>
<path id="XMLID_4092_" class="st7" d="M4155.5,1579.3l18.3,198c0,0-40.2,4.5-46.1-10.5c-5.9-14.9-34.6-145-34.6-145l-3.1,146.6
	c0,0-34,6.5-38.8-10.3c-4.8-16.8-2.2-204.3-2.2-204.3L4155.5,1579.3z"/>
<path id="XMLID_4091_" class="st17" d="M4120.6,1433.2c0,0,43.7,9.3,61.9,34.5c-10.5,16.1-12.4,43.2-12.4,43.2h-10l-3.6,71.7
	c0,0-108.2,10.5-112-19.6c6.3-28.7,11.9-77,11.9-77l-6.3-2.1l-10.5-42C4039.6,1442,4086.8,1425.2,4120.6,1433.2z"/>
<path id="XMLID_4090_" class="st13" d="M4140.4,1415c0,0-4.7,14.9-3.8,25.4c-18,10.9-28.8,20-36.2,16.1c-7.4-3.9,0.9-25.1,0.9-25.1
	l13.1-26L4140.4,1415z"/>
<g id="XMLID_4087_">
	<path id="XMLID_4088_" class="st12" d="M4099.9,1790.1c0,0-4.7,12.5,32.4,10.2c37.1-2.3,36.4,0.3,38.5-5.7L4099.9,1790.1z"/>
	<path id="XMLID_4089_" class="st10" d="M4136.8,1766.3c0,0,22.5,7.4,32.7,6.1c5.9,7.5,1.4,22.2,1.4,22.2s-58.4,6.4-68.1-1.1
		c-6.6-4.7-0.6-11.4,5.8-12.8C4115,1779.4,4119.5,1779.5,4136.8,1766.3z"/>
</g>
<g id="XMLID_4084_">
	<path id="XMLID_4085_" class="st12" d="M4019,1780.3c0,0-4.7,12.5,32.4,10.2c37.1-2.3,36.4,0.3,38.5-5.7L4019,1780.3z"/>
	<path id="XMLID_4086_" class="st10" d="M4055.9,1756.5c0,0,22.5,7.4,32.7,6.1c5.9,7.5,1.4,22.2,1.4,22.2s-58.4,6.4-68.1-1.1
		c-6.6-4.7-0.6-11.4,5.8-12.8S4038.6,1769.7,4055.9,1756.5z"/>
</g>
<g id="XMLID_3724_">
	<path id="XMLID_3734_" class="st12" d="M4177.4,1786.7l-10.8,5.4c-1.6,0.8-2.8,2.3-3.4,4l0,0c-1.1,3.6,1,7.4,4.6,8.4l3.6,1
		c1.5,0.4,3.1,0.3,4.6-0.3l20.7-9.3c2.9-1.3,4.7-4.2,4.7-7.3v-5.3L4177.4,1786.7z"/>
	<path id="XMLID_3733_" class="st12" d="M4246.4,1789.7l-10.8,5.4c-1.6,0.8-2.8,2.3-3.4,4l0,0c-1.1,3.6,1,7.4,4.6,8.4l3.6,1
		c1.5,0.4,3.1,0.3,4.6-0.3l20.2-9.1c3.2-1.4,5.3-4.6,5.3-8.2v-4.7L4246.4,1789.7z"/>
	<path id="XMLID_3732_" class="st26" d="M4247.2,1623.9c-3.3,1.5-5.7,4.5-6.3,8.1c-0.3,2.2,0,4.6,1.9,6.8c5.1,5.8,13.3,1.3,13.3,1.3
		l62.6-37.3c0,0,4.9,1.3,9.7-1.1c4.8-2.4,9-15.5,4.7-20.6c-4.2-5.1-8.6-2.6-11.6,0.9l-7.1,9.9L4247.2,1623.9z"/>
	<path id="XMLID_3731_" class="st26" d="M4179.1,1633c1.7,3.2,4.8,5.5,8.4,5.9c2.2,0.2,4.6-0.2,6.7-2.2c5.5-5.4,0.7-13.4,0.7-13.4
		l-40.4-60.6c0,0,1.1-4.9-1.6-9.6c-2.7-4.7-15.9-8.2-20.8-3.7c-4.9,4.5-2.2,8.8,1.5,11.5l10.3,6.5L4179.1,1633z"/>
	<path id="XMLID_3730_" class="st10" d="M4188.2,1687.9c0,0-12.9,76-14.7,98.6c4.7,1.8,27.4,4.6,32.3,0c1.6-10.6,7.3-45.7,12.8-68.7
		c8.8,11.8,23.7,70.4,23.7,70.4s21.7,8,34,0c-2.9-10.3-15.8-88-24.2-98.6C4241.1,1689.6,4188.2,1687.9,4188.2,1687.9z"/>
	<path id="XMLID_3729_" class="st12" d="M4216.2,1618.6l-24.8-2.2l-14.2,24.7l16.6,10.1l-9.4,37.1c0,0,9.7,10.3,35.3,11.4
		s36.4-9.8,36.4-9.8l-1.8-34.7l12.7-5.3l-9.3-30.9L4216.2,1618.6z"/>
	<path id="XMLID_3728_" class="st26" d="M4255.5,1587.2c4.3-17.5-3.7-34.6-17.8-38.1c-14.2-3.5-29.1,7.9-33.4,25.4
		c-3.7,14.9,1.6,29.5,11.9,35.6l-2.9,8.7c0,0-7.2,9.1,1.1,11.1c8.3,2,19.4-10.2,19.4-10.2l0-7.6
		C4243.7,1609.3,4252.4,1599.8,4255.5,1587.2z"/>
	<path id="XMLID_3727_" class="st12" d="M4205.8,1566.5c0,0,7.7-3.2,20-1.2c12.7,2,30.1,9.3,29.7,21.9c4.8-7.3,16.7-38.7-13.2-46.1
		C4212.5,1533.8,4205.8,1566.5,4205.8,1566.5z"/>
	<path id="XMLID_3726_" class="st7" d="M4189.1,1556.8c0,0,14.2-10.5,35.4,0.1c3,0.7,16.7,13.1,16.7,13.1s-20.7-10.2-34.7-2.2
		C4199.2,1566.5,4186.4,1556.5,4189.1,1556.8z"/>
	<circle id="XMLID_3725_" class="st26" cx="4250" cy="1582.7" r="7.7"/>
</g>
<g id="XMLID_4043_">
	<g id="XMLID_4066_">
		<circle id="XMLID_4072_" class="st27" cx="1134.9" cy="832.4" r="9.8"/>
		<circle id="XMLID_4071_" class="st27" cx="1132.9" cy="806.5" r="9.8"/>
		<circle id="XMLID_4070_" class="st27" cx="1130.9" cy="780.6" r="9.8"/>
		<circle id="XMLID_4069_" class="st27" cx="1128.8" cy="754.1" r="9.8"/>
		<path id="XMLID_4068_" class="st27" d="M1080.6,793.4l16-2.7c0,0,9.4,32.9,11.1,37.9c1.3,4,6.4,6.2,10.8,4.2
			c2.3-1,3.8-3.1,4.5-5.5c5.2-17.9-8.6-71-12.5-74.1c-4.2-3.3-33,1.6-33,1.6L1080.6,793.4z"/>
		<path id="XMLID_4067_" class="st27" d="M1123.7,818.6c3.3,7,6.7,14.2,8.2,17.2c0.4,0.9,1.3,1.4,2.3,1.3l0,0
			c1.3-0.1,2.2-1.2,2.1-2.5l-12.4-97.7c0,0-11.9-7.5-13.3,16C1110.5,753,1119.4,809.5,1123.7,818.6z"/>
	</g>
	<path id="XMLID_4065_" class="st28" d="M947.5,655.1v84c0,15.1,10.6,28.2,25.4,31.4c0,0,94.8,20.5,107.8,22.9
		c18.5-18.5,4-49.1,4-49.1l-97.2-20l8.8-38.3L947.5,655.1z"/>
	<path id="XMLID_4064_" class="st12" d="M1038.2,722.3l-6.2-45.2l-42-41.8l-26,23.8L988,742c4.8,16.4,20.8,26.9,37.7,24.7l86.3-11.1
		l0.5-36.4L1038.2,722.3z"/>
	<path id="XMLID_4063_" class="st13" d="M999.1,521.1c-16.9-0.9-66.4-99.1-66.4-99.1l-7.7-22.9l-12.6-3.5c-7-2-13.9,3.3-13.9,10.6
		v14.2l13.9,11c0,0,43,110.7,60.5,110.7C990.4,542,1016.1,522,999.1,521.1z"/>
	<g id="XMLID_4056_">
		<circle id="XMLID_4062_" class="st10" cx="1157.5" cy="800.8" r="9.8"/>
		<circle id="XMLID_4061_" class="st10" cx="1156.5" cy="774.9" r="9.8"/>
		<circle id="XMLID_4060_" class="st10" cx="1155.6" cy="748.9" r="9.8"/>
		<circle id="XMLID_4059_" class="st10" cx="1154.6" cy="722.3" r="9.8"/>
		<path id="XMLID_4058_" class="st10" d="M1104.5,756.7l16.4,0.9c0,0,8.1,33.2,9.6,38.4c1.1,4,6.2,6.5,10.7,4.7c2.3-0.9,4-3,4.8-5.3
			c5.9-17.7-5.7-71.3-9.5-74.5c-4-3.4-34.2-1.5-34.2-1.5L1104.5,756.7z"/>
		<path id="XMLID_4057_" class="st27" d="M1146.8,786.6c3,7.1,6.1,14.5,7.5,17.5c0.4,0.9,1.3,1.4,2.2,1.4l0,0c1.3,0,2.3-1.1,2.2-2.4
			l-8.4-98.1c0,0-11.6-8-14,15.5C1136.4,720.5,1142.9,777.3,1146.8,786.6z"/>
	</g>
	<path id="XMLID_4055_" class="st10" d="M991.1,516.1c0,0,53.4,4.5,87,49.5c-11.9,15.9-20.6,25.5-28.9,36.8
		c-8.8,12-5.2,54-16.4,79.7c-7.3,2.7-95.8-9.7-90.3-27.6c9-14,16.4-73.5,27.7-109.8C975.5,527.9,991.1,516.1,991.1,516.1z"/>
	<g id="XMLID_4048_">
		
			<ellipse id="XMLID_4054_" transform="matrix(-0.9339 -0.3574 0.3574 -0.9339 1869.0571 1327.9581)" class="st13" cx="1057.2" cy="491.3" rx="37.7" ry="44.1"/>
		<path id="XMLID_4053_" class="st10" d="M1103.2,488.1c-17-4.4-58.2-12.6-83.6,1.6c-3.5,2-7.9-0.2-8.5-4.2c-2.8-18,2.3-51,39-54
			c39.5-3.2,58.2,23.6,60.5,50.2C1111.1,485.9,1107.2,489.1,1103.2,488.1z"/>
		<path id="XMLID_4050_" class="st10" d="M1018,478.8l10.3,23.7c0.5,1.1,1.4,1.9,2.5,2.2l0,0c2.1,0.6,4.3-0.3,5.3-2.2l13.4-25.2
			L1018,478.8z M1026.9,486.3l12.7-2.4l-7.5,15.2L1026.9,486.3z"/>
		<polygon id="XMLID_4049_" class="st13" points="1045.2,523.2 1043.3,543.2 1005.9,552.6 1011.4,532.6 1023.3,495.8 		"/>
	</g>
	<path id="XMLID_4047_" class="st13" d="M1077.3,564.5l-12.2,4.6c-6.4,2.4-11.6,7.1-14.6,13.2l0,0c-3.3,6.7-3.7,14.5-1,21.5
		l35.2,91.3l16.6,8.7c4.9,2.6,10.9,0,12.5-5.3l3.1-10.8l-21.1-19.8L1077.3,564.5z"/>
	<path id="XMLID_4046_" class="st12" d="M1040.5,772.1"/>
	<path id="XMLID_4045_" class="st10" d="M971.5,472.8c-5.5-12-14.4-19.6-19.9-17.1c-2.9,1.4-4.3,5.4-4,10.6l-16.2,10l3.5,7.6
		l14.6-8.1c0.6,2,1.4,4,2.3,6.1c0.6,1.4,1.3,2.7,2,4l-14.5,7.5l3,6.2l15.4-7.8c4.8,5.9,10.1,9,13.8,7.2
		C977,496.5,977,484.7,971.5,472.8z"/>
	<path id="XMLID_4044_" class="st10" d="M1101.6,620.1c-1.7-13.1-10.4-22.7-19.5-21.5c-6.4,0.8-11.2,6.7-13,14.6l-13.7,5.9l2,6.6
		l11-4.1c0,0.9,0.1,1.9,0.2,2.8c0.3,2.3,0.8,4.5,1.5,6.5l-8.8,3.8l1.9,4.9l9.5-3.1c3.8,6.3,9.5,10.1,15.5,9.4
		C1097.2,644.6,1103.3,633.1,1101.6,620.1z"/>
</g>
<path id="XMLID_4042_" class="st5" d="M1975.7,1306.6l-90.7-11.8c-2.7-0.4-5.5,0.2-7.8,1.7l0,0c-7.5,4.6-7.6,15.6,0,20.2l1.7,1.1
	c1.3,0.8,2.7,1.3,4.2,1.6l95,17.1L1975.7,1306.6z"/>
<path id="XMLID_4041_" class="st5" d="M2039,1379.6l-26.5,30.6c-7,8.1-8.3,19.7-3.4,29.2l0,0c4.5,8.6,13.4,14,23.1,14h3.4
	c6.9,0,13.6-2.8,18.5-7.7l53.3-53.7L2039,1379.6z"/>
<path id="XMLID_4040_" class="st5" d="M929.5,974.9v-9.2c0-9,8.2-15.8,17.1-14.1l9.7,1.9c3.1,0.6,5.9,2.2,8,4.6l31.9,35.9
	c0,0,5.3-23.1,30.7-29.5c25.4-6.4,53.1-2.8,85.5,29.5c32.4,32.3,36.4,111.6,34.3,113.5c-1.7,1.5,26.5,20.1,38.3,22.1
	c2.6,0.4,5,1.6,6.8,3.6l0.3,0.3c7.5,7.9,2.5,21-8.3,22l-105.8,9.6c-23.6,2.2-47.4-2-68.7-12.3c-22.5-10.9-46.4-27.7-48.2-50.8
	c-3.1-39.9-26.3-109.1-30.9-122.4C929.7,978.1,929.5,976.5,929.5,974.9z"/>
</svg>
