<svg xmlns="http://www.w3.org/2000/svg" viewBox="0 0 5285 1107.39"><defs><style>.cls-1{fill:#f8f4dc;}.cls-2{fill:#f4efd0;}.cls-3{fill:#47c7be;}.cls-4{fill:#33dcd9;}.cls-5{fill:#0a1e49;}.cls-14,.cls-15,.cls-16,.cls-22,.cls-23,.cls-25,.cls-26,.cls-27,.cls-31,.cls-32,.cls-6,.cls-7{fill:none;}.cls-15,.cls-16,.cls-18,.cls-26,.cls-27,.cls-6{stroke:#ff5365;}.cls-14,.cls-16,.cls-22,.cls-25,.cls-27,.cls-31,.cls-6{stroke-miterlimit:10;}.cls-6{stroke-width:19.72px;}.cls-7{stroke:#ffefae;stroke-width:17.92px;}.cls-15,.cls-18,.cls-23,.cls-26,.cls-32,.cls-7{stroke-linecap:round;stroke-linejoin:round;}.cls-8{fill:#112c77;}.cls-9{fill:#ff5365;}.cls-10,.cls-18{fill:#ffb8bb;}.cls-11{fill:#ffefae;}.cls-12{fill:#193172;}.cls-13{fill:#223c92;}.cls-14,.cls-22,.cls-23,.cls-32{stroke:#223c92;}.cls-14{stroke-width:20.91px;}.cls-15{stroke-width:18.3px;}.cls-16{stroke-width:2.01px;}.cls-17{fill:#00c8f6;}.cls-18{stroke-width:11.56px;}.cls-19{fill:#142d75;}.cls-20{fill:#0090ad;}.cls-21{fill:#0f847e;}.cls-22,.cls-23{stroke-width:19.03px;}.cls-24{fill:#112560;}.cls-25{stroke:#00c8f6;stroke-width:20.46px;}.cls-26{stroke-width:17.91px;}.cls-27{stroke-width:1.97px;}.cls-28{fill:#ce384e;}.cls-29{fill:#385aba;}.cls-30{fill:#f2c4c8;}.cls-31{stroke:#f2c4c8;stroke-width:1.11px;}.cls-32{stroke-width:25.56px;}</style></defs><title>bike</title><g id="Слой_2" data-name="Слой 2"><g id="Слой_153_копия2_" data-name="Слой 153 (копия2)"><g id="Слой_141_копия2_" data-name="Слой 141 (копия2)"><rect id="_Прямоугольник_" data-name="&lt;Прямоугольник&gt;" class="cls-1" y="1.39" width="5285" height="1106"/></g><g id="Слой_166" data-name="Слой 166"><path id="_Контур_" data-name="&lt;Контур&gt;" class="cls-2" d="M628.68,933.45l-75.33-13-56.58-19.54L408.7,886.61a108.1,108.1,0,0,0-22.18-1.3L281.3,890l-83.47,45.56L109.39,929a14.77,14.77,0,0,0-15.85,15.39h0a14.77,14.77,0,0,0,13.76,14.08l125.95,8.48,30.84,30.75a115,115,0,0,0,100.57,31.92l36.3-6.2a77.36,77.36,0,0,0,26.23-9.6L499.93,971,628.8,933.26"/><path id="_Контур_2" data-name="&lt;Контур&gt;" class="cls-3" d="M1710,1.39H0V560.3L193.6,802.49a345.32,345.32,0,0,0,265,123.9l1630-1.4a231.83,231.83,0,0,0,196.32-104.53L2823,1.39Z"/><path id="_Контур_3" data-name="&lt;Контур&gt;" class="cls-4" d="M649.94,825.6S402.4,626.87,675.4,511.34c-46.6-152.88,481-253.19,481.45-19.81,63.91-141.67,172.46-165.44,268.24-75.12,274.19-15.77,269.43,229.93,189.25,313.52C1647,770.8,1589,858,1392.06,863.72s-221-63.1-221-63.1S892.87,978.15,649.94,825.6Z"/><path id="_Контур_4" data-name="&lt;Контур&gt;" class="cls-5" d="M423.36,753.69l28.11,81.76,24.28-2.78s15.54.2,21.13,7.46,3.7,11,3.7,11l-71.07,18.78-45.35-79.56-75.68-88.1,77.47-3Z"/><path id="_Контур_5" data-name="&lt;Контур&gt;" class="cls-2" d="M1260.81,1021.34s-188.38-38-278.72-13.32c5-19.15-34-34.32-41.45-34,0,0-46-17.87-105.23,4.7s-56.29,44.62-48.76,60.82,30.53,23.83,30.53,23.83c26.11,20.38,187.13,40.86,279.84,27.55s176.08-24.88,176.08-24.88C1312.8,1058,1288.19,1027.2,1260.81,1021.34Z"/><path id="_Контур_6" data-name="&lt;Контур&gt;" class="cls-2" d="M3131.17,988.14c5.12-15.89-85.09-11.5-92.5-11.16,0,0-45.88-14.44-105.23,4.7s-56.61,37.37-49.21,50.72,43.28,31.75,43.28,31.75c80.07,30.63,224,23.83,315.25,2C3333.11,1044.56,3221.67,967.06,3131.17,988.14Z"/><path id="_Контур_7" data-name="&lt;Контур&gt;" class="cls-2" d="M3636.27,852.66c8.47-16-133.74-9.32-145.43-8.8,0,0-71.9-13.28-165.88,7.41s-90.13,38.86-78.83,52S3313.49,934,3313.49,934c125.35,28.6,352.27,18.1,496.56-6.08C3952.93,904,3779.38,829.23,3636.27,852.66Z"/><path id="_Контур_8" data-name="&lt;Контур&gt;" class="cls-2" d="M4436.58,960.92c-100.58-15.48-247.79-6.71-297.13,6.9s-76.86,38.27-67.1,51.52,57.83,31.1,57.83,31.1c107.42,29.4,301.48,20.37,424.76-2.87C4677,1024.54,4523.91,974.35,4436.58,960.92Z"/><ellipse id="_Контур_9" data-name="&lt;Контур&gt;" class="cls-6" cx="591.32" cy="821.58" rx="124.34" ry="117.8" transform="translate(-230.69 230.86) rotate(-18.55)"/><ellipse id="_Контур_10" data-name="&lt;Контур&gt;" class="cls-6" cx="209.85" cy="817.27" rx="124.34" ry="117.8" transform="translate(-249.15 109.25) rotate(-18.55)"/><line id="_Контур_11" data-name="&lt;Контур&gt;" class="cls-7" x1="456.38" y1="644.87" x2="591.32" y2="821.58"/><polygon id="_Контур_12" data-name="&lt;Контур&gt;" class="cls-7" points="290.97 700.38 493.96 694.09 402.11 825.6 209.85 817.27 290.97 700.38"/><path id="_Контур_13" data-name="&lt;Контур&gt;" class="cls-8" d="M266.88,658.88s-8.08,40.16,34.54,52.25,70.09,11,70.09,11l-48.77,78.34,44.35,48a12.23,12.23,0,0,0,11.79,3.6l5-1.18a12.23,12.23,0,0,0,9-8.78h0A12.23,12.23,0,0,0,391,831.81l-25.38-35.36s64.76-62.86,67.19-92.8S360,671.56,360,671.56l-5.18-23.1Z"/><path id="_Контур_14" data-name="&lt;Контур&gt;" class="cls-9" d="M339.6,511.34s-26.84,4.93-43.5,25.94-42.26,109.07-35.79,133.45c13.36,4.08,99.1-16.13,99.1-16.13l19.06-98.92Z"/><path id="_Контур_15" data-name="&lt;Контур&gt;" class="cls-10" d="M348.59,542.82s-9.9-22.77-30.43-14.87-7.57,34.86-7.57,34.86,40.93,65,65.26,74.46,78.46,1.35,78.46,1.35,8.39,2.23,15.36,11S484.93,635,484.93,635l-19-22.79-23.29,2.14L380.7,603.85Z"/><path id="_Контур_16" data-name="&lt;Контур&gt;" class="cls-10" d="M339.16,511.41l2.33-17.3a70.5,70.5,0,0,1-6.79-27.44c-1.44-31.59,17.19-58.1,41.61-59.22s45.39,23.59,46.83,55.18-17.19,58.1-41.61,59.22a34.83,34.83,0,0,1-10.34-1.1l7.22,34.2h0C371.62,555.27,339.16,511.41,339.16,511.41Z"/><path id="_Контур_17" data-name="&lt;Контур&gt;" class="cls-9" d="M423.16,451.55s-2-30-10.23-38-24.36-13.92-48.75-7.89-27.11,28.25-29.44,47.9S423.16,451.55,423.16,451.55Z"/><path id="_Контур_18" data-name="&lt;Контур&gt;" class="cls-11" d="M411.94,465.6l-21.18-6.22a2.33,2.33,0,0,0-.52-.08A3.34,3.34,0,0,1,387.8,454h0a3.34,3.34,0,0,1,2.12-1.28l30.62-5a2.28,2.28,0,0,1,.68,0l27,3.79a2.28,2.28,0,0,1,.29,4.47l-35.37,9.68A2.28,2.28,0,0,1,411.94,465.6Z"/><path id="_Контур_19" data-name="&lt;Контур&gt;" class="cls-12" d="M971.39,711.63l136.27,146.23,42.74-8.92a14.57,14.57,0,0,1,6.91.23l4.76,1.33a14.57,14.57,0,0,1,10.09,18h0a14.57,14.57,0,0,1-8.73,9.64L1094.54,905l-208-175.51,30.09-33.19Z"/><g id="_Группа_" data-name="&lt;Группа&gt;"><circle id="_Контур_20" data-name="&lt;Контур&gt;" class="cls-13" cx="892.96" cy="969.25" r="23.45" transform="translate(-299.19 407.46) rotate(-22.11)"/><circle id="_Контур_21" data-name="&lt;Контур&gt;" class="cls-13" cx="1215.71" cy="840.27" r="23.45" transform="translate(-226.89 519.47) rotate(-22.11)"/><circle id="_Контур_22" data-name="&lt;Контур&gt;" class="cls-14" cx="893.56" cy="969.85" r="89.94" transform="translate(-299.37 407.73) rotate(-22.11)"/><polyline id="_Контур_23" data-name="&lt;Контур&gt;" class="cls-15" points="1024.19 906.92 894.58 968.23 969.67 838.01 1113.44 728.5 1128.18 744.56 1024.29 906.1 918.2 773.84"/><circle id="_Контур_24" data-name="&lt;Контур&gt;" class="cls-14" cx="1216.32" cy="840.87" r="89.94" transform="translate(-227.07 519.74) rotate(-22.11)"/><polyline id="_Контур_25" data-name="&lt;Контур&gt;" class="cls-15" points="1105.77 720.13 1113.44 728.5 1216.66 841.02"/><path id="_Контур_26" data-name="&lt;Контур&gt;" class="cls-9" d="M1112.79,702l-3.66,16.8-4.16,3a7,7,0,0,1-9.1-.85l-3.73-3.92a10.37,10.37,0,0,1-.63-13.56l4.15-3.54,12.21-10.42h0A12.07,12.07,0,0,1,1112.79,702Z"/><path id="_Контур_27" data-name="&lt;Контур&gt;" class="cls-16" d="M1110,683.08"/><polygon id="_Контур_28" data-name="&lt;Контур&gt;" class="cls-9" points="1089.29 662.61 1096.7 706.27 1110.05 696.28 1099.67 645.7 1089.29 662.61"/></g><g id="_Группа_2" data-name="&lt;Группа&gt;"><path id="_Контур_29" data-name="&lt;Контур&gt;" class="cls-17" d="M1129.07,896.58s14.09,10.71-29.13,34.26-40.59,25.9-47.18,20.68Z"/><path id="_Контур_30" data-name="&lt;Контур&gt;" class="cls-9" d="M1071,895.81s-20,24-32.34,29.81c-1.37,12.56,14.11,25.89,14.11,25.89s69.89-33.84,75.6-49.07c4.12-9.87-7.32-13.27-15.51-10.21S1099.72,898.46,1071,895.81Z"/></g><path id="_Контур_31" data-name="&lt;Контур&gt;" class="cls-13" d="M878.93,662.61s-35.05,41.38-21.31,76c7.54,19,180.94,198.52,182.41,195.78,17.35-9.15,33.52-37.77,33.52-37.77L960.67,750.75l1.09-33.7Z"/><path id="_Контур_32" data-name="&lt;Контур&gt;" class="cls-11" d="M967.08,555.09a36.11,36.11,0,0,0-35.22,15.58c-23.71,35.26-72.63,108.85-77.43,122.73-6.36,18.4,109.56,39,109.56,39l40-113-.91-37.4a25.79,25.79,0,0,0-22-24.89Z"/><ellipse id="_Контур_33" data-name="&lt;Контур&gt;" class="cls-10" cx="989.14" cy="490.39" rx="52.15" ry="50.99" transform="translate(253.88 1313.97) rotate(-74.61)"/><polygon id="_Контур_34" data-name="&lt;Контур&gt;" class="cls-10" points="995.45 536.97 992.34 561.19 995.48 591.1 964.51 558.48 968.31 529.5 995.45 536.97"/><line id="_Контур_35" data-name="&lt;Контур&gt;" class="cls-18" x1="1068.42" y1="692.23" x2="1119.93" y2="619.79"/><g id="_Группа_3" data-name="&lt;Группа&gt;"><g id="_Группа_4" data-name="&lt;Группа&gt;"><polygon id="_Контур_36" data-name="&lt;Контур&gt;" class="cls-13" points="984 478.83 984 519.77 947.29 509.51 945.41 515.15 986.93 528.79 996 525.5 996 476.32 984 478.83"/></g><path id="_Контур_37" data-name="&lt;Контур&gt;" class="cls-11" d="M967.89,494s68.67-10.82,83.25-19.28c9.53-27.59-27.39-75.87-102.07-47.5-60.67,23-22.58,80.9-22.58,80.9s17.87,20.22,31,15.52S967.89,494,967.89,494Z"/></g><polygon id="_Контур_38" data-name="&lt;Контур&gt;" class="cls-10" points="1000.79 571.99 1099.6 627.39 1115.39 627.39 1129.22 643.71 1105.48 662.68 1079 643.56 1079 638.65 1002.73 608.54 1000.79 571.99"/><path id="_Контур_39" data-name="&lt;Контур&gt;" class="cls-10" d="M964.15,581.84,1071,649.62l17.37-4.65,11.92,22.82-8,7.22-32.71-7.73L945.62,616.2A19.58,19.58,0,0,1,934,598.45v-.26a19.29,19.29,0,0,1,12-17.8h.1C952,578.39,958.78,578.44,964.15,581.84Z"/><path id="_Контур_40" data-name="&lt;Контур&gt;" class="cls-19" d="M2083.08,380.88c39.94,33,80.92,0,80.92,0v115s68.55-62.86,70.71-82.34,37.93-13,37.93-13-68.19,105-106.09,135.34c0,13-7.57,84.45,18.42,111.52a215.8,215.8,0,0,0,55.22,41.14s-41.14,6.5-71.46-8.66c-13.52,8.82-20,44-23.13,56-1.67,6.46-8.12,6.79-12,1.39,0,0-8-47.91-28.69-55.91h-11a58.29,58.29,0,0,0-34,11.22l-33,24s0-31.34,36.77-80.06C2098.71,590.15,2075.72,369.2,2083.08,380.88Z"/><path id="_Контур_41" data-name="&lt;Контур&gt;" class="cls-19" d="M3084.46,258.39H3004V373.75s-68.74-62.86-70.9-82.34-38-13-38-13,68.14,105,106,135.34c0,13,7.55,84.45-18.44,111.52a215.74,215.74,0,0,1-55.24,41.14s41.13,6.5,71.45-8.66c13.52,8.82,20,44,23.13,56,1.67,6.46,8.12,6.85,12,1.46,0,0,8-47.85,28.69-55.85h11a58.22,58.22,0,0,1,34,11.15l33,23.93s0-31.53-36.81-80.26C3068.87,467.86,3084.46,258.39,3084.46,258.39Z"/><path id="_Контур_42" data-name="&lt;Контур&gt;" class="cls-3" d="M2708.49,579.91,3077.39,1.39H5285V706.27l-2507.31-.14C2712.89,706.13,2673.64,634.55,2708.49,579.91Z"/><path id="_Контур_43" data-name="&lt;Контур&gt;" class="cls-20" d="M1965,94.17c-185.14-193.05-232.26-14.64-232.26-14.64C1583.43,72,1551.52,238.9,1542,274.11c-206.21-8.09-178.26,240.72-45.1,229.41-81.92,230.06,187.81,295,279.52,195.73C2177.29,800.63,2125.77,261.82,1965,94.17Z"/><path id="_Контур_44" data-name="&lt;Контур&gt;" class="cls-20" d="M2880.08,212.88c39.94,33,80.92,0,80.92,0v115s68.55-62.86,70.71-82.34,37.93-13,37.93-13-68.19,105-106.09,135.34c0,13-7.57,84.45,18.42,111.52a215.8,215.8,0,0,0,55.22,41.14s-41.14,6.5-71.46-8.66c-13.52,8.82-20,44-23.13,56-1.67,6.46-8.12,6.79-12,1.39,0,0-8-47.91-28.69-55.91h-11a58.29,58.29,0,0,0-34,11.22l-33,24s0-31.34,36.77-80.06C2895.71,422.15,2872.72,201.2,2880.08,212.88Z"/><path id="_Контур_45" data-name="&lt;Контур&gt;" class="cls-20" d="M4936.7,304.88c-39.94,33-80.7,0-80.7,0v115s-68.77-62.86-70.93-82.34-38-13-38-13,68.14,105,106,135.34c0,13,7.54,84.45-18.44,111.52a215.73,215.73,0,0,1-55.24,41.14s41.13,6.5,71.45-8.66c13.52,8.82,20,44,23.13,56,1.67,6.46,8.12,6.79,12,1.39,0,0,8-47.91,28.69-55.91h11a58.29,58.29,0,0,1,34,11.22l33,24s.15-31.34-36.66-80.06C4921,514.15,4944.06,293.2,4936.7,304.88Z"/><path id="_Контур_46" data-name="&lt;Контур&gt;" class="cls-4" d="M4655,4.4s-112.11,321.28,236.68,369.91c-24.91,142.06,207.49,269.25,393.36,243V1.39l-630,3"/><g id="_Группа_5" data-name="&lt;Группа&gt;"><ellipse id="_Контур_47" data-name="&lt;Контур&gt;" class="cls-10" cx="4600.08" cy="472.06" rx="51.88" ry="56.01"/><path id="_Контур_48" data-name="&lt;Контур&gt;" class="cls-21" d="M4352.51,851.15l.14,0c-.29-4.85,6-8.53,11.95-8.46,7.19.08,12,1.08,31.45-7.62l17.86-57,53.3-6.79-30.51,79.53c2.46,9.84-4.86,22.88-4.86,22.88-3.88,6.28-2.4,3.55-45.09-3S4352.51,851.15,4352.51,851.15Z"/><path id="_Контур_49" data-name="&lt;Контур&gt;" class="cls-10" d="M4507.52,570.18s-6.87,5.92-21.06,11.19c-12.87,4.78-43.86,12.82-57.17,11.61-14-1.27-23.09-3.13-28.65-4.66a10.06,10.06,0,0,0-11.64,5l-3.27,6.26a8.78,8.78,0,0,0,1,9.64L4389,612a4.75,4.75,0,0,0,6.63.68,10.65,10.65,0,0,1,4.32-2.34l33.18,2.33a10.23,10.23,0,0,0,2.44-.12l13.75-2.35,35.67-.64a50.87,50.87,0,0,0,17.81-3.56l25-9.88Z"/><path id="_Контур_50" data-name="&lt;Контур&gt;" class="cls-10" d="M4677.15,558.63s41,0,50.52-10.82S4755,497.55,4755,497.55l-2.88-14.35a7.67,7.67,0,0,1,2.85-7.59l15.34-11.78a6.1,6.1,0,0,1,6.61-.53l11,5.94a7.42,7.42,0,0,1,3.61,8.57l-6.43,22.52a7.69,7.69,0,0,1-3.49,4.51l-8.81,5.19s-13.36,50.08-28.63,60.16-70.44,25.35-70.44,25.35Z"/><path id="_Контур_51" data-name="&lt;Контур&gt;" class="cls-17" d="M4673.35,461.41"/><path id="_Контур_52" data-name="&lt;Контур&gt;" class="cls-17" d="M4673.35,461.41"/><ellipse id="_Контур_53" data-name="&lt;Контур&gt;" class="cls-22" cx="4236.25" cy="697.86" rx="103.55" ry="100.64"/><ellipse id="_Контур_54" data-name="&lt;Контур&gt;" class="cls-22" cx="4457.04" cy="926.27" rx="103.55" ry="100.64"/><polygon id="_Контур_55" data-name="&lt;Контур&gt;" class="cls-23" points="4502.51 762.41 4457.04 933.88 4362.12 832.69 4381.4 643.76 4502.51 762.41"/><polyline id="_Контур_56" data-name="&lt;Контур&gt;" class="cls-23" points="4236.25 697.86 4421.65 624.22 4423.39 623.54 4407.22 603.85"/><g id="_Группа_6" data-name="&lt;Группа&gt;"><path id="_Контур_57" data-name="&lt;Контур&gt;" class="cls-17" d="M4296.37,751.53s-16.49-1.66-1.89,42.07,11.29,43.66,19.14,44.28Z"/><path id="_Контур_58" data-name="&lt;Контур&gt;" class="cls-13" d="M4336.67,788.06s-1.62,29.26,3.14,41.07c-7.08,9.48-26.19,8.74-26.19,8.74s-26.31-67.79-20.5-81.88c3.48-9.39,13.48-4.43,17.15,2.9S4315.29,771.54,4336.67,788.06Z"/></g><path id="_Контур_59" data-name="&lt;Контур&gt;" class="cls-17" d="M4622.38,697s-4.5,46.49-50.49,51-236.15,84.68-236.15,84.68l-8.5-40.38,112.36-58.41,88.79-53.37Z"/><path id="_Контур_60" data-name="&lt;Контур&gt;" class="cls-9" d="M4599.83,544.67s30.44,6.07,43.41,10.39,36.76.45,36.76.45v45.32s-38.7-1.65-45,1.8c-3.46,22-5.06,103.31-5.06,103.31s-98.92-21.61-117.08-16.86C4515,673.52,4531,594,4531,594l-10.79,6.92-17.71-30.72s28.53-28.07,41.5-28.94S4599.83,544.67,4599.83,544.67Z"/><path id="_Контур_61" data-name="&lt;Контур&gt;" class="cls-10" d="M4612.26,521s-5.69,17.6-1.19,26.27c-10.61,7.54-16,12.48-18.75,15.44a3.12,3.12,0,0,1-5-.67l-9.86-18.36s3.82-17.19,3.58-29.36C4596.51,511.23,4612.26,521,4612.26,521Z"/><path id="_Контур_62" data-name="&lt;Контур&gt;" class="cls-9" d="M4639.77,508.12l-82.49-67.72-31.93-22.6a4.88,4.88,0,0,1-.26-7.77h0a4.88,4.88,0,0,1,5.62-.38l34.45,21,23-14.81a38.74,38.74,0,0,1,34.7-3.68l13.39,5.06a34.43,34.43,0,0,1,20.72,22l6.12,19.81a28.87,28.87,0,0,1-5.16,26.7Z"/><ellipse id="_Контур_63" data-name="&lt;Контур&gt;" class="cls-10" cx="4614.75" cy="492" rx="14.67" ry="13.88"/></g></g><path id="_Контур_64" data-name="&lt;Контур&gt;" class="cls-20" d="M4864.55,2S4764,359.79,4311.44,161.13,3842.62,287.05,3658,353.83s-419.18,144.48-491.86,5.06S3221.95,3.68,3221.95,3.68Z"/><path id="_Контур_65" data-name="&lt;Контур&gt;" class="cls-4" d="M1662.13,1.39s-9.33,266.34,138.73,379,292.06,22.76,292.06,22.76,131,195.7,421.79,111.1,203.36-353.16,203.36-353.16,176.45,41.21,359.33-159.74Z"/><path id="_Контур_66" data-name="&lt;Контур&gt;" class="cls-4" d="M2771.44,1.39s28.14,277.46,369.26,352.44,376.13-192.7,376.13-192.7-57.9,137.22,98.62,257.48,271.42-29.41,359.78-65.41S4452.35,501.69,4462.35,0Z"/><g id="_Группа_7" data-name="&lt;Группа&gt;"><polygon id="_Контур_67" data-name="&lt;Контур&gt;" class="cls-24" points="3497.83 660.75 3541.09 868.39 3602.11 868.39 3612.74 857.83 3602.02 848.82 3571.19 841.72 3561.92 597.27 3483.11 613.17 3497.83 660.75"/><g id="_Группа_8" data-name="&lt;Группа&gt;"><circle id="_Контур_68" data-name="&lt;Контур&gt;" class="cls-25" cx="3360.65" cy="792.24" r="88" transform="translate(2554.73 4149.64) rotate(-89.77)"/><polyline id="_Контур_69" data-name="&lt;Контур&gt;" class="cls-26" points="3502.29 783.89 3362.18 791.16 3478.58 701.25 3649.45 655.62 3656.8 675.64 3502.68 783.19 3455.87 624.02"/><circle id="_Контур_70" data-name="&lt;Контур&gt;" class="cls-25" cx="3700.74" cy="795.59" r="88" transform="translate(2890.09 4493.07) rotate(-89.77)"/><polyline id="_Контур_71" data-name="&lt;Контур&gt;" class="cls-26" points="3645.61 645.2 3649.45 655.62 3701 795.86"/><path id="_Контур_72" data-name="&lt;Контур&gt;" class="cls-13" d="M3656,558.22l-.11.3a4.06,4.06,0,0,1-5.33,2.41l-30-11.93a4.06,4.06,0,0,1-2.28-5.26h0a4.06,4.06,0,0,1,5.25-2.31l30.07,11.63A4.06,4.06,0,0,1,3656,558.22Z"/><path id="_Контур_73" data-name="&lt;Контур&gt;" class="cls-13" d="M3658.73,631.36l-9.56,13.85-4.88,1.17a6.8,6.8,0,0,1-7.92-4.15l-1.92-4.93a10.15,10.15,0,0,1,4.48-12.51l11.68-6.58L3653.5,561s-9.28-9.69-21.94-5.08l-1.32-2a11.73,11.73,0,0,1,10.32-2.62,52,52,0,0,1,12,4.37l2.39.09a7.16,7.16,0,0,1,6.88,7.53l-2.87,54.95h0A11.81,11.81,0,0,1,3658.73,631.36Z"/><path id="_Контур_74" data-name="&lt;Контур&gt;" class="cls-27" d="M3663.27,613.26"/></g><path id="_Контур_75" data-name="&lt;Контур&gt;" class="cls-10" d="M3586.24,479.6s55.37,16.38,66.2,31.69,28,67.93,28,67.93l-17.21,16-17.3-16,2.79-28s-6.28-19.38-18.51-26.81-59-8.18-59-8.18Z"/><polyline id="_Контур_76" data-name="&lt;Контур&gt;" class="cls-13" points="3509.49 899.39 3528 899.39 3528 883.31 3501.72 863.61 3509.08 683.05 3511.6 620.84 3438.67 631.07"/><path id="_Контур_77" data-name="&lt;Контур&gt;" class="cls-10" d="M3467.12,469.37s-80.29,74.25-100.36,140.83c-3,19,10.41,25.07,10.41,25.07L3398,621.41l-2.23-22.63s41.63-71.43,71.37-78.12S3467.12,469.37,3467.12,469.37Z"/><path id="_Контур_78" data-name="&lt;Контур&gt;" class="cls-11" d="M3528.1,468.12s-43.56-15.15-70.24.12c1.89,24.82.94,66.58.94,66.58l11-5.87-40.67,106.42c0,34,139.34,0,139.34,0l8.59-103.16L3587,535l7-60.64Z"/><path id="_Контур_79" data-name="&lt;Контур&gt;" class="cls-10" d="M3521.69,431.23l-4.82,39.18,2.23,5.39a13.7,13.7,0,0,0,15.52,8.15L3548,481.1l6.73-54.65Z"/><g id="_Группа_9" data-name="&lt;Группа&gt;"><ellipse id="_Контур_80" data-name="&lt;Контур&gt;" class="cls-10" cx="3548.89" cy="397.98" rx="60.65" ry="56.18" transform="translate(2112.69 3667.59) rotate(-72.68)"/><ellipse id="_Контур_81" data-name="&lt;Контур&gt;" class="cls-10" cx="3495.27" cy="388.57" rx="14.1" ry="13.33" transform="matrix(0.3, -0.95, 0.95, 0.3, 2084.01, 3609.79)"/><ellipse id="_Контур_82" data-name="&lt;Контур&gt;" class="cls-10" cx="3602.49" cy="404.73" rx="14.1" ry="13.33" transform="matrix(0.3, -0.95, 0.95, 0.3, 2143.9, 3723.5)"/><path id="_Контур_83" data-name="&lt;Контур&gt;" class="cls-13" d="M3607.09,384.81s12.14-54.09-45.9-64.7c-38.79-7.09-54.83,16.18-61.21,32.41,0,0-27.37,10.14-23.4,10.83,0,0,26.81-8.2,23.13-5.34C3553.56,379.44,3607.09,384.81,3607.09,384.81Z"/><path id="_Контур_84" data-name="&lt;Контур&gt;" class="cls-28" d="M3561.24,377.42s-23.19-33.09-61.26-24.9c0,0-26,3.53-26.66,7.5s-.71,2.63,3.26,3.33c0,0,13.53-3,23.72-1.5C3527.62,365.88,3561.24,377.42,3561.24,377.42Z"/></g></g><path id="_Контур_85" data-name="&lt;Контур&gt;" class="cls-19" d="M4060.08,238.88c39.94,33,80.92,0,80.92,0v115s68.55-62.86,70.71-82.34,37.93-13,37.93-13-68.19,105-106.09,135.34c0,13-7.57,84.45,18.42,111.52a215.8,215.8,0,0,0,55.22,41.14s-41.14,6.5-71.46-8.66c-13.52,8.82-20,44-23.13,56-1.67,6.46-8.12,6.79-12,1.39,0,0-8-47.91-28.69-55.91h-11a58.29,58.29,0,0,0-34,11.22l-33,24s0-31.34,36.77-80.06C4075.71,448.15,4052.72,227.2,4060.08,238.88Z"/><g id="Слой_102_копия_" data-name="Слой 102 (копия)"><g id="Слой_77_копия_" data-name="Слой 77 (копия)"><g id="_Группа_10" data-name="&lt;Группа&gt;"><path id="_Контур_86" data-name="&lt;Контур&gt;" class="cls-17" d="M3099.81,972.7s-1.51,15.24-38.44-6-37.47-18.19-36.6-25.41Z"/><path id="_Контур_87" data-name="&lt;Контур&gt;" class="cls-9" d="M3074.08,929.54s-26.79-3.87-36.62-10.34c-9.87,4.68-12.7,22.12-12.7,22.12s56.58,36.2,70.4,33.51c9.14-1.44,6.47-11.4.5-16.06S3085.14,951.92,3074.08,929.54Z"/></g></g><path id="_Контур_88" data-name="&lt;Контур&gt;" class="cls-29" d="M3076.62,769.5l70.23,7.81a26.83,26.83,0,0,1,22.54,35l-24.64,75.47,30.19,6.35a7.28,7.28,0,0,1,3.93,2.28l.85,1a7.28,7.28,0,0,1,.57,9h0a7.28,7.28,0,0,1-6.32,3.16l-52.06,5.62a6.25,6.25,0,0,1-6.92-6.19V825.53l-56.36-36.78Z"/><path id="_Контур_89" data-name="&lt;Контур&gt;" class="cls-13" d="M3076.48,747l59.7,57.55a28.51,28.51,0,0,1,4.19,35.95l-62.29,96.79s-39.74-4.51-44-17.55l49.47-86s-74.33-22.47-83.19-33.14-7.21-23.69-7.21-23.69Z"/><polygon id="_Контур_90" data-name="&lt;Контур&gt;" class="cls-10" points="3043.04 556.43 3053.47 603.6 3017.51 582.11 3012.03 540.34 3043.04 556.43"/><polygon id="_Контур_91" data-name="&lt;Контур&gt;" class="cls-30" points="3053.47 613.25 3101.69 688.44 3167.19 701.86 3195.42 717.54 3191.27 730.91 3163.83 732.18 3153.39 721.65 3089.49 725.27 3057.24 674.64 3053.47 613.25"/><path id="_Контур_92" data-name="&lt;Контур&gt;" class="cls-17" d="M3017.51,582.11c-18.69-4.56-30.43,44.95-30.43,44.95l-6.75,149.52s70.7,7.71,101-23.11L3072,664.39S3075.22,596.19,3017.51,582.11Z"/><g id="_Группа_11" data-name="&lt;Группа&gt;"><path class="cls-31" d="M2892.41,747"/></g><circle id="_Контур_93" data-name="&lt;Контур&gt;" class="cls-32" cx="3077.74" cy="954.37" r="87.9"/><ellipse id="_Контур_94" data-name="&lt;Контур&gt;" class="cls-17" cx="3160.28" cy="800.99" rx="13.35" ry="25.34" transform="translate(-78.88 1170.88) rotate(-20.74)"/><path id="_Контур_95" data-name="&lt;Контур&gt;" class="cls-17" d="M3083,829.2l33.09-4.77c-.07-14.26,5.6-25.71,13.3-26.17,8.23-.49,15.66,11.76,16.6,27.38s-5,28.68-13.2,29.17c-6.89.41-13.22-8.12-15.65-20.07l-32.43,5.43a5.55,5.55,0,0,1-6.27-4h0A5.55,5.55,0,0,1,3083,829.2Z"/><g id="Слой_103_копия_" data-name="Слой 103 (копия)"><g id="_Группа_12" data-name="&lt;Группа&gt;"><path id="_Контур_96" data-name="&lt;Контур&gt;" class="cls-30" d="M3090.85,506.26s1.52,34.91-2.76,49.56-18.19,18.94-34.29,17.25S3007,557.64,3006,500.44c20.52-10.45,76.94-15,76.94-15Z"/><g id="_Группа_13" data-name="&lt;Группа&gt;"><g id="_Группа_14" data-name="&lt;Группа&gt;"><polygon id="_Контур_97" data-name="&lt;Контур&gt;" class="cls-9" points="3042.89 510.64 3047.46 548.69 3012.24 543.25 3011.14 548.7 3051.17 556.76 3059.14 552.7 3053.65 506.99 3042.89 510.64"/></g><path id="_Контур_98" data-name="&lt;Контур&gt;" class="cls-29" d="M3029.69,526.56s62.61-17.72,75.22-27.21c-4.25-13.24-33.92-67.45-100.16-32.76-53.82,28.19-12,77.7-12,77.7s18.87,16.8,30.58,11S3029.69,526.56,3029.69,526.56Z"/></g></g><path id="_Контур_99" data-name="&lt;Контур&gt;" class="cls-30" d="M2932.67,685.42l56.27-74.09a20.07,20.07,0,0,1,16-7.93h0A20.07,20.07,0,0,1,3025,623.46v3.59a20.07,20.07,0,0,1-5.9,14.22l-54.53,54.35-3,73.87L2937,792.24l-21.94-2.95,6.23-25.79,20-9.68Z"/></g></g></g></g></svg>