<svg xmlns="http://www.w3.org/2000/svg" viewBox="0 0 5290 1113.01"><defs><style>.cls-1{fill:#f8f4dc;}.cls-2{fill:#47c7be;}.cls-3{fill:#f4efd0;}.cls-4{fill:#3eb7ac;}.cls-5{fill:#33dcd9;}.cls-6{fill:#0090ad;}.cls-7{fill:#ffb8bb;}.cls-8{fill:#223c92;}.cls-9{fill:#ffefae;}.cls-10{fill:#ff5365;}.cls-11{fill:#00d3cf;}.cls-12{fill:#142d75;}.cls-13{fill:#ffdee4;}.cls-14{fill:#fff3f4;}.cls-15{fill:#e0344c;}.cls-16{fill:#efafb7;}.cls-17{fill:#50e6ff;}</style></defs><title>children</title><g id="Слой_2" data-name="Слой 2"><g id="Слой_153_копия4_" data-name="Слой 153 (копия4)"><g id="Слой_141_копия4_" data-name="Слой 141 (копия4)"><rect id="_Прямоугольник_" data-name="&lt;Прямоугольник&gt;" class="cls-1" y="2.01" width="5290" height="1111"/></g><g id="Слой_75_копия4_" data-name="Слой 75 (копия4)"><path id="_Контур_" data-name="&lt;Контур&gt;" class="cls-2" d="M1669,2V0H1V504L922.67,909.55a237.25,237.25,0,0,0,221.48-18.11l524.6-336.15v-3.4L3079,1113H5290V2Z"/></g><g id="Слой_166_копия2_" data-name="Слой 166 (копия2)"><polygon id="_Контур_2" data-name="&lt;Контур&gt;" class="cls-1" points="0 305.9 0 624.28 4.11 626.88 1.77 306.99 0 305.9"/><path id="_Контур_3" data-name="&lt;Контур&gt;" class="cls-3" d="M323.92,929c-1.84-43.09,95.51-58.81,135.41-64.42s124.05-13,147.9-17,35.06,33.57,7,40.72,8.42-1.26-2.81,33.8-44.36,85.55-111.94,64.52S326.72,994.88,323.92,929Z"/><path id="_Контур_4" data-name="&lt;Контур&gt;" class="cls-3" d="M1252.75,890.5s8.78,50.25,75.23,34.07,97.07-7.1,117.49-28.65,40.46-80.15-59.06-91.07C1228.54,792.05,1252.75,890.5,1252.75,890.5Z"/><path id="_Контур_5" data-name="&lt;Контур&gt;" class="cls-4" d="M800.51,786.06s11,50.25,94.06,34.07,121.37-7.1,146.89-28.65,50.59-80.15-73.84-91.07C770.24,687.61,800.51,786.06,800.51,786.06Z"/><path id="_Контур_6" data-name="&lt;Контур&gt;" class="cls-5" d="M129.32,679.29S24,654.67,78,558.29c0,0-25.06-117.45,80.31-101.65,23.71-65.86,72.84-78.19,158.06-36.46,79-15.27,149.36,41.73,106,177.15,86.3,104.18-43.27,159.5-122.64,124C180.74,787.22,129.32,679.29,129.32,679.29Z"/><path id="_Контур_7" data-name="&lt;Контур&gt;" class="cls-6" d="M1548.44,436.89s-105.07-24.63-51.1-121c0,0-39.05-156.2,100.57-156.2C1610.49,67.48,1633.46,32.8,1698,2l271-2s453.48-7,303.73,326.26c-110.51,245.94-604.54,165.18-604.54,165.18C1550.18,557.36,1548.44,436.89,1548.44,436.89Z"/><circle id="_Контур_8" data-name="&lt;Контур&gt;" class="cls-7" cx="1356.87" cy="594.6" r="50.66"/><path id="_Контур_9" data-name="&lt;Контур&gt;" class="cls-8" d="M1400.86,622l-103.78-75.58a4.22,4.22,0,0,1-.94-5.9h0a4.22,4.22,0,0,1,5.86-1l21.84,13.71s24.55-17.89,38.82-18.53,36.49,18.19,44.87,31.06S1419.3,596.51,1400.86,622Z"/><polygon id="_Контур_10" data-name="&lt;Контур&gt;" class="cls-7" points="1295.33 651.3 1254.99 730.89 1244.33 739.62 1250.14 757.07 1266.48 748.34 1269.83 734.77 1306.22 689.21 1309.77 664.97 1295.33 651.3"/><path id="_Контур_11" data-name="&lt;Контур&gt;" class="cls-8" d="M1281.31,751,1283.82,861,1271,867.69a9.15,9.15,0,0,0-5,7.87v4l50.16.95,5.25-100.4,49.91,79.79-11.92,7.18a10.27,10.27,0,0,0-5,9.2l.17,4.23,54.49-.08-2-20.56-33.6-99.24Z"/><circle id="_Контур_12" data-name="&lt;Контур&gt;" class="cls-7" cx="1374.96" cy="602.57" r="12.3"/><path id="_Контур_13" data-name="&lt;Контур&gt;" class="cls-9" d="M1310.89,645.67c-10.41,2.47-15.56,5.63-15.56,5.63l6.91,19.95c-8.56,32.13-21.54,82.88-21.54,82.88s65.57,26.17,95.1,11.11c-3.22-18.29,6.46-66.28,6.46-66.28l-2.18,2.43c7.34-5.82,8.78-34.53,8.78-34.53S1337.78,639.28,1310.89,645.67Z"/><polygon id="_Контур_14" data-name="&lt;Контур&gt;" class="cls-7" points="1354.24 639.29 1343.43 666.12 1318.7 669.23 1316.28 654.26 1325.36 633.24 1354.24 639.29"/><path id="_Контур_15" data-name="&lt;Контур&gt;" class="cls-7" d="M1374.53,696.89l1.8,23.46-19,29.83,4.54,19.83h14.52l3.4-21.53,20-30.17s.41-28.54-10.92-51.39C1378.74,669.8,1374.53,696.89,1374.53,696.89Z"/><circle id="_Контур_16" data-name="&lt;Контур&gt;" class="cls-7" cx="440.74" cy="597.43" r="58.76"/><path id="_Контур_17" data-name="&lt;Контур&gt;" class="cls-8" d="M389.72,629.22l120.37-87.66a4.9,4.9,0,0,0,1.09-6.85h0a4.9,4.9,0,0,0-6.8-1.11l-25.33,15.9S450.58,528.74,434,528s-42.33,21.1-52,36S368.33,599.65,389.72,629.22Z"/><path id="_Контур_18" data-name="&lt;Контур&gt;" class="cls-5" d="M1498.63,622.56s-105.31-24.63-51.34-121c0,0-25.06-117.45,80.31-101.65,23.71-65.86,84.55-105.13,141.14-32.12,13.55-73,233.36-102.16,164.36,83.2,102,99.17,18.43,134-2,171-40.31,72.75-162,42.57-162,42.57C1550.05,730.49,1498.63,622.56,1498.63,622.56Z"/><polygon id="_Контур_19" data-name="&lt;Контур&gt;" class="cls-7" points="395.79 687.25 329.48 754.03 311.92 755.68 310.03 776.79 329.35 791.25 343.58 766.73 420.59 703.9 395.79 687.25"/><path id="_Контур_20" data-name="&lt;Контур&gt;" class="cls-10" d="M389.45,913.13c-3,5.09-.71,14.88-.71,14.88H440c1.89,0,3.44-1,3.51-2.86l.06-1.26a11.72,11.72,0,0,0-5.78-10.54l-13.86-8.26s-22.35,6.81-22.35-1.11S389.45,913.13,389.45,913.13Z"/><path id="_Контур_21" data-name="&lt;Контур&gt;" class="cls-10" d="M488.56,913.13c-3,5.09-.71,14.88-.71,14.88H539.1c1.89,0,3.44-1,3.51-2.86l.06-1.26a11.72,11.72,0,0,0-5.78-10.54L523,905.09s-22.35,6.81-22.35-1.11S488.56,913.13,488.56,913.13Z"/><polygon id="_Контур_22" data-name="&lt;Контур&gt;" class="cls-7" points="503.58 660.46 592.62 625.42 600.72 609.45 620.02 615.73 613.79 636.87 520.53 681.77 455.87 685.74 503.58 660.46"/><path id="_Контур_23" data-name="&lt;Контур&gt;" class="cls-11" d="M389.45,913.65c-3-.93,32-123.65,32-123.65L528.38,778.9l-2.91,127.49s-18.35,9.23-38.44,9.94c-3.29-.7-5.3-103.72-5.3-103.72L426.8,905.15S406.67,915.53,389.45,913.65Z"/><circle id="_Контур_24" data-name="&lt;Контур&gt;" class="cls-7" cx="419.76" cy="606.68" r="14.26"/><polygon id="_Контур_25" data-name="&lt;Контур&gt;" class="cls-7" points="428.83 649.27 441.38 680.39 470.06 684 472.86 666.64 462.34 642.26 428.83 649.27"/><path id="_Контур_26" data-name="&lt;Контур&gt;" class="cls-8" d="M389.58,689.25s67.28-35.41,119.59-33.06C510.41,656,526,695.3,526,695.3l-11.91,6.41,15,80.74S449.39,813,415.14,795.56c3.74-21.21-1.87-67-1.87-67l-10.59,2.87Z"/><path id="_Контур_27" data-name="&lt;Контур&gt;" class="cls-9" d="M985.91,732.68s29.81,10.46,34.43,14,7.69,13.07-3,14.61C1005.84,763,960.6,757,960.6,757s-8.46-8.36,0-24.3S985.91,732.68,985.91,732.68Z"/><path id="_Контур_28" data-name="&lt;Контур&gt;" class="cls-9" d="M833,742.86v8a12.18,12.18,0,0,0,7.15,11.33l35,15.53a9.12,9.12,0,0,0,6.6.32l.11-.64c3.8-1.25,6.35-3.4,6.35-9.4h0a9,9,0,0,0-3-6.24L866.68,744.9Z"/><path id="_Контур_29" data-name="&lt;Контур&gt;" class="cls-10" d="M968.39,627.07s-23.45,3.65-55.82,3A137.93,137.93,0,0,1,855,615.58L832.22,742.67s16.17,7.73,27,7.73S873.62,748,873.62,748l36.72-73.41,2.18-3L953,742.35s10.5,2.39,19.69.51S989,733,989,733Z"/><path id="_Контур_30" data-name="&lt;Контур&gt;" class="cls-6" d="M3654.11,382.48s373.21,295,744.75-94.57C4396.66,144.65,4437,82.73,4437,82.73Z"/><path id="_Контур_31" data-name="&lt;Контур&gt;" class="cls-12" d="M4769.7,357.5c-39.94,33-80.7,0-80.7,0v115s-68.77-62.86-70.93-82.34-38-13-38-13,68.14,105,106,135.34c0,13,7.54,84.45-18.44,111.52a215.73,215.73,0,0,1-55.24,41.14s41.13,6.5,71.45-8.66c13.52,8.82,20,44,23.13,56,1.67,6.46,8.12,6.79,12,1.39,0,0,8-47.91,28.69-55.91h11a58.29,58.29,0,0,1,34,11.22l33,24s.15-31.34-36.66-80.06C4754,566.78,4777.06,345.82,4769.7,357.5Z"/><g id="_Группа_" data-name="&lt;Группа&gt;"><ellipse id="_Контур_32" data-name="&lt;Контур&gt;" class="cls-13" cx="910.17" cy="467.71" rx="46.26" ry="50.53"/><path id="_Контур_33" data-name="&lt;Контур&gt;" class="cls-13" d="M954.32,517.38,969.53,541,1029,478.4l14.77-3.08a11.58,11.58,0,0,0,9.17-12.38l-1-10.62a7.22,7.22,0,0,0-5.15-6.28l-12.78-3.76a8.78,8.78,0,0,0-10.09,4l-11.75,20.44Z"/><path id="_Контур_34" data-name="&lt;Контур&gt;" class="cls-13" d="M876.13,526,854,547.91,803.24,470l-19.43-8.24a11.18,11.18,0,0,1-6.28-13.7l4.25-13.29a9.58,9.58,0,0,1,11.69-6.31l13.91,3.85a9.73,9.73,0,0,1,6.82,6.92l5.14,19.7Z"/><path id="_Контур_35" data-name="&lt;Контур&gt;" class="cls-9" d="M1041.19,512.47"/><path id="_Контур_36" data-name="&lt;Контур&gt;" class="cls-9" d="M855.34,772.31"/><path id="_Контур_37" data-name="&lt;Контур&gt;" class="cls-9" d="M910,521.65l-40.31-6.27-26.51,36.3,16.29,12.84-12.34,51c50.65,36.05,126.42,12,126.42,12l-10.2-63,18.5-7.8L955,515.38l-45,8.69Z"/><polygon id="_Контур_38" data-name="&lt;Контур&gt;" class="cls-13" points="897.38 510.85 894.54 522.11 922.84 544.12 930.44 522.66 923.56 504.02 897.38 510.85"/><path id="_Контур_39" data-name="&lt;Контур&gt;" class="cls-10" d="M867.8,488,975.24,423.6a3,3,0,0,0,.83-4.37h0a3,3,0,0,0-3.83-.78l-27.57,15.6s-7.91-22-40.48-19.93S858.7,441,860.25,457.55A112.86,112.86,0,0,0,867.8,488Z"/><circle id="_Контур_40" data-name="&lt;Контур&gt;" class="cls-13" cx="887.06" cy="478.64" r="10.93"/></g><path id="_Контур_41" data-name="&lt;Контур&gt;" class="cls-6" d="M4938.08,461.5c39.94,33,80.92,0,80.92,0v115s68.55-62.86,70.71-82.34,37.93-13,37.93-13-68.19,105-106.09,135.34c0,13-7.57,84.45,18.42,111.52a215.8,215.8,0,0,0,55.22,41.14s-41.14,6.5-71.46-8.66c-13.52,8.82-20,44-23.13,56-1.67,6.46-8.12,6.79-12,1.39,0,0-8-47.91-28.69-55.91h-11a58.29,58.29,0,0,0-34,11.22l-33,24s0-31.34,36.77-80.06C4953.71,670.78,4930.72,449.82,4938.08,461.5Z"/><path id="_Контур_42" data-name="&lt;Контур&gt;" class="cls-5" d="M1945.61,2s-118.79,189.87,23,261.75,230.53-69.38,230.53-69.38,7.2,152.14,199,183.9S2865.6,2,2865.6,2Z"/><path id="_Контур_43" data-name="&lt;Контур&gt;" class="cls-5" d="M2485.33,2s-47.74,439.91,435,318.65c14.49,190.51,146.33,291.29,395.87,281.91,664.76-25,1057.68-450.36,1057.68-450.36S4215,724.41,5285.38,457.53C5290,174.06,5290,2,5290,2Z"/><path id="_Контур_44" data-name="&lt;Контур&gt;" class="cls-6" d="M2983.72,252.57c-45.57,37.69-91.72,0-91.72,0V383.76s-78.79-71.7-81.26-93.94S2767.17,275,2767.17,275,2844.81,394.81,2888,429.39c0,14.82,8.56,96.34-21.08,127.22a246,246,0,0,1-63,46.93s46.91,7.41,81.5-9.88c15.42,10.06,22.83,50.19,26.38,63.91,1.91,7.37,9.26,7.56,13.74,1.41,0,0,9.17-55,32.73-64h12.49a66.68,66.68,0,0,1,38.75,13l37.69,27.43s.34-35.7-41.65-91.28C2965.59,491.25,2992.11,239.24,2983.72,252.57Z"/></g><g id="Слой_174_копия_" data-name="Слой 174 (копия)"><path id="_Контур_45" data-name="&lt;Контур&gt;" class="cls-4" d="M4020.14,821.7S4079,741,4217.53,756.47s165.34,3.2,168.31,31.63-60.83,66.36-140.42,63.75S4011.22,874.44,4020.14,821.7Z"/><path id="_Контур_46" data-name="&lt;Контур&gt;" class="cls-10" d="M4140,775.88v16.55l-44.39,32.22a10.64,10.64,0,0,1-8.44,1.8l-3.61-.76a10.64,10.64,0,0,1-8-7.48h0A10.64,10.64,0,0,1,4078,808l17.23-18.32,4.19-17.16Z"/><path id="_Контур_47" data-name="&lt;Контур&gt;" class="cls-10" d="M4292,680s10.46-3.89,17.26,0c5.53,3.17,12.05,39.34,14.29,52.7a12,12,0,0,1-2.07,8.93h0a12,12,0,0,1-12.59,4.67l-2.73-.67a12,12,0,0,1-8.24-7.09l-12-29.23Z"/><path id="_Контур_48" data-name="&lt;Контур&gt;" class="cls-14" d="M4077.73,432.12l-41.79,4L3961.43,410l-17.05-14.66a9.56,9.56,0,0,0-6.23-2.31H3923a9.56,9.56,0,0,0-9.41,7.88l-1.24,7a9.56,9.56,0,0,0,4.7,10l13.27,7.52a9.56,9.56,0,0,0,3.62,1.18l17.77,2.06L4032.93,465h58.53Z"/><path id="_Контур_49" data-name="&lt;Контур&gt;" class="cls-14" d="M4169.6,424.33l41.79,4.11,74.52-26.3,16.49-14.3A11.54,11.54,0,0,1,4310,385h12.73a11.54,11.54,0,0,1,11.36,9.53l.74,4.18a11.54,11.54,0,0,1-5.63,12l-11.71,6.69a11.54,11.54,0,0,1-4.49,1.46l-17.3,1.87L4214.41,457h-58.53Z"/><path id="_Контур_50" data-name="&lt;Контур&gt;" class="cls-9" d="M4094.79,583l-5.09,203.21s33.31,16.91,51.73-7.18c1-5.72,11.47-154.43,11.47-154.43s43.81,60.95,52.31,68.65,84.9,30.94,84.9,30.94,16.94-21.6,7-46.42c-3.69-6.79-61.31-19.26-65.86-25.43s-29.11-112.41-29.11-112.41l-112.66,45.18"/><path id="_Контур_51" data-name="&lt;Контур&gt;" class="cls-15" d="M4051.8,439.93s-5-31.4,135.92-16.14c9,9.37,14.67,27.48,12.76,49.5a101.28,101.28,0,0,1-14,3.33l31,75.56S4140,602.73,4084.7,580.76c1-18.75-7.43-99.49-7.43-99.49l-26.82-5.18S4047,454.47,4051.8,439.93Z"/><path id="_Контур_52" data-name="&lt;Контур&gt;" class="cls-14" d="M4156.06,380.49a10.4,10.4,0,0,0-9.22-10.33c-3.6-17.86-18.27-31.24-35.85-31.24-16.41,0-30,11.65-35,27.73v-.5a10.26,10.26,0,0,0-10.42,10.4,10.39,10.39,0,0,0,9.47,10.35c3.09,15.89,15,28.28,29.85,31l-1.94,9.85,8,18.41a5.49,5.49,0,0,0,9.62.85l11.9-18,1.25-19.15a40,40,0,0,0,12.21-19A10.39,10.39,0,0,0,4156.06,380.49Z"/><path id="_Контур_53" data-name="&lt;Контур&gt;" class="cls-10" d="M4076,366.15s37-6.25,71.7,3.94a45.21,45.21,0,0,0-1.48-18.6c-1.7-5.27-12.31-20.08-35.21-20.34s-32.46,18-33.73,21.66S4076,366.15,4076,366.15Z"/><path id="_Контур_54" data-name="&lt;Контур&gt;" class="cls-15" d="M4077.87,376.55s20.07-10.4,55.47,2.31a20.11,20.11,0,0,0-1.69-14.5s-28.6-10.68-49.07-1C4080.72,364.52,4077.87,376.55,4077.87,376.55Z"/><path id="_Контур_55" data-name="&lt;Контур&gt;" class="cls-4" d="M3330.45,963.19s-122.49,57.68-181,27.26-76.23-68.63-51.22-70.44,39.33,5.63,39.33,5.63,75.87-15.8,128.69-5.91S3370.84,947.05,3330.45,963.19Z"/></g><g id="Слой_183" data-name="Слой 183"><path id="_Контур_56" data-name="&lt;Контур&gt;" class="cls-7" d="M3163.9,669.89c.75,19.1,15.26,34.62,34.08,34.62s34.08-15.5,34.08-34.62-15.26-34.62-34.08-34.62S3162.34,629.82,3163.9,669.89Z"/><path id="_Контур_57" data-name="&lt;Контур&gt;" class="cls-16" d="M3115,686.07s-9.26-15.63-16.83-15.78-17.35,12.58-16.81,20.1,23.33,11,23.33,11Z"/><path id="_Контур_58" data-name="&lt;Контур&gt;" class="cls-8" d="M3215.64,921.87s7.29,20.42,0,30.64c-18.6.73-62,0-62,0s-8.37-8-1.51-15.38a13,13,0,0,1,8.79-4c14.25-.84,26.25-5,30.29-13.12C3191.2,919.68,3215.64,921.87,3215.64,921.87Z"/><path id="_Контур_59" data-name="&lt;Контур&gt;" class="cls-7" d="M3297.21,690.1l-3.06-13.79s5.21-18.39,15.94-15.94,11,20.23,11,20.23l-13.49,22.07Z"/><path id="_Контур_60" data-name="&lt;Контур&gt;" class="cls-8" d="M3290,854.58s16.64-13.91,28.75-10.59c7.12,17.2,21.44,58.18,21.44,58.18s-4.59,10.61-13.91,6.74a13,13,0,0,1-6.75-6.88c-5.72-13.08-13.8-22.89-22.78-23.89C3296.39,878.26,3290,854.58,3290,854.58Z"/><path id="_Контур_61" data-name="&lt;Контур&gt;" class="cls-10" d="M3163.9,812.36s6.28,82.44,21.64,110.6c7.17,4.1,32.41,2.28,32.41,2.28l-6.85-39.44,2.39-31.87,39,39.44s33.06,4.38,46.61-7.57c0-8.76-7.57-33.86-7.57-33.86s-22.31,8.76-27.09,5.18S3246,809.55,3246,809.55Z"/><path id="_Контур_62" data-name="&lt;Контур&gt;" class="cls-8" d="M3200.53,707.82s21-.31,29.17,3.15,19.82,13.21,19.82,13.21,35.23.63,44.67-36.8c0-.31,12.65-2.2,17.69,12.9-5.66,12.58-4,32.07-64.56,54.95-9.92,3.75-.94,56.41-.94,56.41s-28.94,31.77-88.39,5c-.31-9.44,4.09-54.66,4.09-54.66s-39.65-20.8-63.63-57.48c-3.94-3.46,5.05-16,12.25-23.1s33.65,43.48,53.12,37.48C3178.63,714.32,3180,706.59,3200.53,707.82Z"/><path id="_Контур_63" data-name="&lt;Контур&gt;" class="cls-7" d="M3216.11,696.91l2.44,12.22s-15.91,23.65-26.22,23.65-9-18.55-9-18.55l3.18-18.38Z"/><path id="_Контур_64" data-name="&lt;Контур&gt;" class="cls-8" d="M3230.12,681.41s-7.56-40.24-62.07-38.62c.56-13.62,15.23-23.86,15.23-23.86s19.28-20,50.45,8.71c19.34,17.82-3.61,53.77-3.61,53.77"/><circle id="_Контур_65" data-name="&lt;Контур&gt;" class="cls-7" cx="3223.18" cy="666.8" r="9.37"/><path id="_Контур_66" data-name="&lt;Контур&gt;" class="cls-10" d="M3208.67,652.28s-22,3.91-28.21,7c-18.4-9.77-42.93-7-42.93-7l30.51-9.48s17.24-8.13,40.62,9.48"/><path id="_Контур_67" data-name="&lt;Контур&gt;" class="cls-4" d="M3454.63,1016.62s73.67-50.37,128-53.43,104.86-28.63,140-10.36,29.26,93-59,99.56S3450.23,1062.13,3454.63,1016.62Z"/></g><g id="Слой_175_копия_" data-name="Слой 175 (копия)"><path id="_Контур_68" data-name="&lt;Контур&gt;" class="cls-8" d="M3504.71,1004.56l9.84,21.76a12.28,12.28,0,0,0,7.63,6.7h0a12.65,12.65,0,0,0,12.23-3.61l.39-.39a12.29,12.29,0,0,0,3.21-8.15v-21Z"/><path id="_Контур_69" data-name="&lt;Контур&gt;" class="cls-8" d="M3659.08,963.19,3657.92,987a12,12,0,0,1-4.67,8.94h0a12,12,0,0,1-12.65,1.29l-.4-.2a12,12,0,0,1-5.9-6.36l-7.77-19.47Z"/><path id="_Контур_70" data-name="&lt;Контур&gt;" class="cls-14" d="M3583,766.46a15,15,0,0,0-5.69,12.82,10.83,10.83,0,0,0,4.73,8.33c8.66,6,18.08-2.57,18.08-2.57l59.19-46.83a20.29,20.29,0,0,0,12.5-4.58c5.6-4.77,6.83-23.43-.42-28.77s-12.29-.61-15,5l-6.09,15.47Z"/><path id="_Контур_71" data-name="&lt;Контур&gt;" class="cls-17" d="M3525.83,870.5s-28.66,106-23.66,136.48c6.82.91,35,3.18,40-4.55-1.36-14.56,20.84-69.45,29.74-95,15.47,12.74,50.33,67.22,50.33,67.22s27.75,1.36,41.4-13.19c-7.28-12.74-38.22-98.27-52.77-109.64C3596.34,855.49,3525.83,870.5,3525.83,870.5Z"/><path id="_Контур_72" data-name="&lt;Контур&gt;" class="cls-14" d="M3512.86,776.13a15,15,0,0,1,11,8.69,10.83,10.83,0,0,1-.3,9.57c-4.86,9.34-17.2,6.16-17.2,6.16l-72.09-17.32a20.29,20.29,0,0,1-13.2,1.77c-7.18-1.61-17-17.54-13-25.64s10.59-6.27,15.6-2.54l12.6,10.84Z"/><path id="_Контур_73" data-name="&lt;Контур&gt;" class="cls-9" d="M3540.24,769.62l-33.59,5.12L3495.92,812l25.22,7.93-.36,52.24s16.21,10.45,50.44,3.6,45-24.86,45-24.86l-13.69-45.4,15.13-11.17-22.4-37.9Z"/><path id="_Контур_74" data-name="&lt;Контур&gt;" class="cls-14" d="M3586,715.06c0-24.67-18.14-44.67-40.51-44.67s-40.51,20-40.51,44.67c0,21,13.16,38.62,30.88,43.39L3534.71,771s-7.41,14.41,5.68,14.41,25.24-19.85,25.24-19.85l-2.78-10.14C3576.52,748.23,3586,732.86,3586,715.06Z"/><path id="_Контур_75" data-name="&lt;Контур&gt;" class="cls-15" d="M3504.33,703.9s10.27-6.69,29.39-8.14c19.71-1.49,48.34,2.5,52.24,19.3,4.48-11.27,10.62-56.8-36.56-56.8S3504.33,703.9,3504.33,703.9Z"/><path id="_Контур_76" data-name="&lt;Контур&gt;" class="cls-8" d="M3475.84,696.43s17.26-18.53,52.85-11.41c4.68,0,29.71,11.87,29.71,11.87s-34.61-6.83-52.53,8.38C3494.51,706,3471.69,697,3475.84,696.43Z"/><ellipse id="_Контур_77" data-name="&lt;Контур&gt;" class="cls-14" cx="3582.07" cy="716.07" rx="10.12" ry="10.46"/></g></g></g></svg>