<svg xmlns="http://www.w3.org/2000/svg" viewBox="0 0 5285 1106"><defs><style>.cls-1{fill:#f8f4dc;}.cls-2{fill:#ffb8bb;}.cls-3{fill:#f4efd0;}.cls-4{fill:#0090ad;}.cls-5{fill:#ff5365;}.cls-6{fill:#223c92;}.cls-7{fill:#33dcd9;}.cls-8{fill:#d63a51;}.cls-9{fill:#e5d591;}.cls-10{fill:#ffd7da;}.cls-11{fill:#ffefae;}.cls-12{fill:#04bab1;}.cls-13{fill:#00c8f6;}.cls-14{fill:#d82540;}.cls-15{fill:#47c7be;}.cls-16{fill:#142d75;}.cls-17{fill:#efafb7;}.cls-18{fill:#d8485d;}.cls-19{fill:#1d3777;}</style></defs><title>roliki</title><g id="Слой_2" data-name="Слой 2"><g id="Слой_153" data-name="Слой 153"><g id="Слой_141" data-name="Слой 141"><rect id="_Прямоугольник_" data-name="&lt;Прямоугольник&gt;" class="cls-1" width="5285" height="1106"/><path id="_Контур_" data-name="&lt;Контур&gt;" class="cls-2" d="M3831.72,488l56.54,23.69,26.55,66.8,19.25,4.25a7.58,7.58,0,0,1,5.94,7.4V599l-7,5.4a11.23,11.23,0,0,1-10.26,1.83L3903.05,600a7.36,7.36,0,0,1-4.53-4.06l-29-66.09-45.2-8.45,7.88-35.47"/></g><g id="Слой_142" data-name="Слой 142"><path id="_Контур_2" data-name="&lt;Контур&gt;" class="cls-3" d="M636.55,915.22l-11.25-9.76a35.71,35.71,0,0,0-15.39-7.82L454.5,861.93a35.71,35.71,0,0,0-11.57-.73l-125.2,12.61a35.7,35.7,0,0,0-19.23,8.06L280,897.22a35.7,35.7,0,0,0-7.7,46h0a35.7,35.7,0,0,0,31.44,17.14l69.84-1.82a35.7,35.7,0,0,1,18,4.33l9.19,5c10.32,9.45,54.72,46.34,114.25,41.23,56.51-4.85,78.86-5,98.07-20.7l.1-.09a35.63,35.63,0,0,0,3.69-2.68l19.21-16.11A35.7,35.7,0,0,0,636.55,915.22Z"/><path id="_Контур_3" data-name="&lt;Контур&gt;" class="cls-4" d="M4603.32,277.23s-388.24,290.21-694,141.64c175.86-199.8,493.5-358.62,493.5-358.62Z"/><path id="_Контур_4" data-name="&lt;Контур&gt;" class="cls-3" d="M886.55,921.22l-11.25-9.76a35.71,35.71,0,0,0-15.39-7.82L704.5,867.93a35.71,35.71,0,0,0-11.57-.73l-125.2,12.61a35.7,35.7,0,0,0-19.23,8.06L530,903.22a35.7,35.7,0,0,0-7.7,46h0a35.7,35.7,0,0,0,31.44,17.14l69.84-1.82a35.7,35.7,0,0,1,18,4.33l9.19,5c10.32,9.45,54.72,46.34,114.25,41.23,56.51-4.85,78.86-5,98.07-20.7l.1-.09a35.63,35.63,0,0,0,3.69-2.68l19.21-16.11A35.7,35.7,0,0,0,886.55,921.22Z"/><circle id="_Контур_5" data-name="&lt;Контур&gt;" class="cls-5" cx="549.32" cy="925.8" r="9.73"/><circle id="_Контур_6" data-name="&lt;Контур&gt;" class="cls-5" cx="523.58" cy="925.8" r="9.73"/><circle id="_Контур_7" data-name="&lt;Контур&gt;" class="cls-5" cx="497.73" cy="925.8" r="9.73"/><circle id="_Контур_8" data-name="&lt;Контур&gt;" class="cls-5" cx="472.35" cy="925.8" r="9.73"/><path id="_Контур_9" data-name="&lt;Контур&gt;" class="cls-6" d="M504.31,861l-1.67,30s35.71,6.82,40.87,8.09,8,8.89,2.66,14c-13.33,8.45-73.58,3.28-77.13-.61s-.59-54.66-.59-54.66l38,3.16"/><path id="_Контур_10" data-name="&lt;Контур&gt;" class="cls-6" d="M534.85,915.77c9.38,3.53,19.15,7.33,19.15,7.33V927H449.2s-3.62-11.19,19.62-14.45C468.82,912.54,525.47,912.25,534.85,915.77Z"/><circle id="_Контур_11" data-name="&lt;Контур&gt;" class="cls-5" cx="794.32" cy="921.8" r="9.73"/><circle id="_Контур_12" data-name="&lt;Контур&gt;" class="cls-5" cx="768.58" cy="921.8" r="9.73"/><circle id="_Контур_13" data-name="&lt;Контур&gt;" class="cls-5" cx="742.73" cy="921.8" r="9.73"/><circle id="_Контур_14" data-name="&lt;Контур&gt;" class="cls-5" cx="717.35" cy="921.8" r="9.73"/><path id="_Контур_15" data-name="&lt;Контур&gt;" class="cls-6" d="M749.31,857l-1.67,30s35.71,6.82,40.87,8.09,8,8.89,2.66,14c-13.33,8.45-73.58,3.28-77.13-.61S713.9,870,713.9,870l37.57-13"/><path id="_Контур_16" data-name="&lt;Контур&gt;" class="cls-6" d="M779.85,911.77c9.38,3.53,19.15,7.33,19.15,7.33V923H694.2s-3.62-11.19,19.62-14.45C713.82,908.54,770.47,908.25,779.85,911.77Z"/><circle id="_Контур_17" data-name="&lt;Контур&gt;" class="cls-5" cx="655.19" cy="938.2" r="9.73" transform="matrix(0.56, -0.83, 0.83, 0.56, -489.03, 954.14)"/><circle id="_Контур_18" data-name="&lt;Контур&gt;" class="cls-5" cx="633.89" cy="923.76" r="9.73" transform="translate(-486.43 930.17) rotate(-55.87)"/><circle id="_Контур_19" data-name="&lt;Контур&gt;" class="cls-5" cx="612.49" cy="909.26" r="9.73" transform="translate(-483.81 906.09) rotate(-55.87)"/><circle id="_Контур_20" data-name="&lt;Контур&gt;" class="cls-5" cx="591.49" cy="895.02" r="9.73" transform="translate(-481.25 882.45) rotate(-55.87)"/><path id="_Контур_21" data-name="&lt;Контур&gt;" class="cls-6" d="M654.27,859.35,636,883.27S661.78,909,665.33,912.9s1.6,11.83-5.65,13.08c-15.78-.49-62.74-38.57-63.5-43.79s30.18-45.58,30.18-45.58l29.69,23.95"/><path id="_Контур_22" data-name="&lt;Контур&gt;" class="cls-4" d="M2955,50.8c39.94,33,79,67.94,79,67.94v115s68.47-62.86,70.64-82.34,37.9-13,37.9-13-68.21,105-106.11,135.34c0,13-7.58,84.45,18.41,111.52a215.82,215.82,0,0,0,55.22,41.14s-41.14,6.5-71.46-8.66c-13.52,8.82-20,44-23.14,56-1.67,6.46-8.12,7.16-12,1.77,0,0-8-47.54-28.69-55.54h-11a57.92,57.92,0,0,0-34,10.85l-33,23.78s0-31.43,36.81-80.15C2968.6,328.11,2947.68,39.12,2955,50.8Z"/><path id="_Контур_23" data-name="&lt;Контур&gt;" class="cls-7" d="M2015,2,0,0V803.87s586,99.2,772.5-191.79c97.18,54.26,508.61,170.44,979.46-276.62,94.1,32.65,564.81,125.93,865.11-128,91.38,49.64,320.41-7.88,320.41-151.25,188,304.51,947.85,686.29,1453.89,142.17,96.33,340.12,652.85,341,893.64,307.4V0Z"/><path id="_Контур_24" data-name="&lt;Контур&gt;" class="cls-6" d="M648.84,921.79c5.79,8.19,11.74,16.81,11.74,16.81l-2.17,3.21L571.65,883s3.28-11.3,24.34-1C596,882.06,643.05,913.6,648.84,921.79Z"/><g id="_Группа_" data-name="&lt;Группа&gt;"><circle id="_Контур_25" data-name="&lt;Контур&gt;" class="cls-5" cx="334.91" cy="923.53" r="9.67" transform="translate(-343.5 213.01) rotate(-23.74)"/><circle id="_Контур_26" data-name="&lt;Контур&gt;" class="cls-5" cx="324.61" cy="900.11" r="9.67" transform="translate(-334.94 206.89) rotate(-23.74)"/><circle id="_Контур_27" data-name="&lt;Контур&gt;" class="cls-5" cx="314.26" cy="876.59" r="9.67" transform="translate(-326.35 200.73) rotate(-23.74)"/><circle id="_Контур_28" data-name="&lt;Контур&gt;" class="cls-5" cx="304.11" cy="853.5" r="9.67" transform="translate(-317.91 194.68) rotate(-23.74)"/><path id="_Контур_29" data-name="&lt;Контур&gt;" class="cls-6" d="M376.68,858.62l-12.34-35.86s-47.38,17.62-49.5,22.42,14.22,60.7,27.25,69.45c6.76,2.78,12.58-2.83,11.67-8s-5.93-39.45-5.93-39.45l28-10.5"/><path id="_Контур_30" data-name="&lt;Контур&gt;" class="cls-6" d="M338.33,906.56c.54,10,1.08,20.57,1.08,20.57l-3.52,1.55-42-95.56s8.73-7.77,21,12.07C314.84,845.18,337.79,896.61,338.33,906.56Z"/></g><polygon id="_Контур_31" data-name="&lt;Контур&gt;" class="cls-8" points="349.29 876.67 349.23 858.9 332.26 859.83 332.74 869.54 349.29 876.67"/><polygon id="_Контур_32" data-name="&lt;Контур&gt;" class="cls-8" points="515.04 894.7 500.45 881.92 488.96 896.48 497.26 903.11 515.04 894.7"/><path id="_Контур_33" data-name="&lt;Контур&gt;" class="cls-9" d="M456.4,490.09s-7.33,63.44-54.18,62.19c-23.53-.63-36.66-8.75-43.15-14.65a7.21,7.21,0,0,0-10.63,1h0a7.19,7.19,0,0,0-.08,8.55c5.68,7.8,21.11,22.53,56.52,21.92,55.5-.95,84.13-68.72,84.13-68.72Z"/><path id="_Контур_34" data-name="&lt;Контур&gt;" class="cls-10" d="M527.38,487.19s6.59,13.48,5.75,45.94-40,23.28-40,23.28l20.06,34.3s15.47,69.22,46.09,76,34.92-2.45,34.92-2.45,13.48-20.83,28.18-9.19,0,34.3-20.83,34.3-63.09,12.25-93.11-30-39.82-31.85-39.82-31.85-24.11,10.41-43.71,20.83c-7.35,6.74-26.32,15.91-68.47,24.78-5.82,2.49-18.66,1.59-26.31.75a16.62,16.62,0,0,1-10.84-5.73c-5.32-6.24-12.44-17.23-6.26-26.29,13.87-4,34.3,12.86,34.3,12.86s35.49-5.21,55.58-25.31,46.1-51.51,53.45-52.73,20.7-25.73,13.11-33.69-18.62-41.65-18.62-41.65Z"/><path id="_Контур_35" data-name="&lt;Контур&gt;" class="cls-10" d="M539,742.68s6.5,16.53,6.5,33.66-50.76,97.42-50.76,97.42l-24.21-6.5s23.6-74.46,39-86.24c-4.13-9.41-21.26-26.54-21.26-26.54L451.58,751s-6.79,58.46-18.15,67.91S337,875,337,875l-12.4-26.57s50.78-39,79.12-43.11c0-11.81,2.36-49,2.36-49l66.13-24.21Z"/><path id="_Контур_36" data-name="&lt;Контур&gt;" class="cls-6" d="M446.37,585.27l16-17s20.81,27.18,50.81,22.42c2.93,11,3.86,86.91,3.86,86.91l31.45,67.95s-147.12,84.79-193.73-7.86c28.08-10.67,51.47-20.9,98.08-69.76,0,0,5.24-20.06-.41-33.2,3.31-.56,17.05-8,17.05-8C471.51,595.33,457.74,586.7,446.37,585.27Z"/><path id="_Контур_37" data-name="&lt;Контур&gt;" class="cls-11" d="M486.07,505.41l46.85-12s6-44.45-46.85-36-42,68.48-42,68.48-8.41,63.3-55.23,61.25c-23.52-1-36.51-9.38-42.89-15.39a7.21,7.21,0,0,0-10.65.79h0A7.19,7.19,0,0,0,335,581c5.54,7.9,20.72,22.88,56.13,22.88,55.51,0,85.3-67.28,85.3-67.28s-21.62-6-12-21.62,19.21,3.07,19.21,3.07Z"/><ellipse id="_Контур_38" data-name="&lt;Контур&gt;" class="cls-5" cx="424.87" cy="818.92" rx="20.16" ry="12.42" transform="translate(-456.88 547.52) rotate(-45.47)"/><ellipse id="_Контур_39" data-name="&lt;Контур&gt;" class="cls-5" cx="537.57" cy="777.39" rx="20.16" ry="12.42" transform="matrix(0.08, -1, 1, 0.08, -278.3, 1254.55)"/><polygon id="_Контур_40" data-name="&lt;Контур&gt;" class="cls-5" points="413.33 818.92 398.51 806.37 403.87 799.79 420.3 812.46 413.33 818.92"/><polygon id="_Контур_41" data-name="&lt;Контур&gt;" class="cls-5" points="532 769.7 506.18 774.81 508.08 782.87 532 779.84 532 769.7"/><path id="_Контур_42" data-name="&lt;Контур&gt;" class="cls-12" d="M776.84,688.88l-26.43,193s-22.11,5.87-38.11,0C712.43,871.78,724,739.75,724,739.75L642,882.77s-26.91-6.7-35.13-21.74c2.53-5.78,27.88-33.37,38.9-67,15-45.76,33.41-89.75,33.41-89.75Z"/><polygon id="_Контур_43" data-name="&lt;Контур&gt;" class="cls-2" points="695.69 579.33 652.21 638.77 612.85 664 597 664 597 690 618.68 690 626.62 676.16 667.27 653.42 704 613.44 695.69 579.33"/><path id="_Контур_44" data-name="&lt;Контур&gt;" class="cls-2" d="M785.58,604.47a134.78,134.78,0,0,0,16.69,35.14c11.72,17.29,27.4,21.15,27.4,21.15L838.45,682l-12.11,10.67L805,681.24V668.14s-23.29-17.68-25.6-26c-.82-3-5.79-7.6-6.85-12.37a47.77,47.77,0,0,1,0-17.69Z"/><path id="_Контур_45" data-name="&lt;Контур&gt;" class="cls-5" d="M703.26,568.54s-30.95,18.34-35.41,49.14c0,0,15.59,23.48,17.43,30.88.4,1.61,5.3-1.5,5.3,0,0,10.23-6.06,45.47-11.41,55.72,30.5,1.28,79.59,1.77,100-7.2-6.71-42.69-7.39-71.36-7.39-71.36l18.77-12.11S772.45,567.7,736,564.85C709.45,562.77,703.26,568.54,703.26,568.54Z"/><path id="_Контур_46" data-name="&lt;Контур&gt;" class="cls-2" d="M758.9,505.8c0,26.33-14.33,47.67-40.46,47.67a47.67,47.67,0,0,1,0-95.34C744.57,458.13,758.9,479.47,758.9,505.8Z"/><path id="_Контур_47" data-name="&lt;Контур&gt;" class="cls-2" d="M699.69,538l1,33.71,21.87,12.39a8.5,8.5,0,0,0,12.68-6.87l.77-12.41-9.58-27Z"/><path id="_Контур_48" data-name="&lt;Контур&gt;" class="cls-6" d="M674.35,523.08s38.66-42.17,77.93-45.26c21.68-1.7,32.56-2.7,38-3.26a4.67,4.67,0,0,0,4.09-5.62h0a4.67,4.67,0,0,0-5.25-3.65l-41.2,3.55s-11.24-22.09-26.44-24.12S674.54,465,671.2,473.48,662.11,490.76,674.35,523.08Z"/><circle id="_Контур_49" data-name="&lt;Контур&gt;" class="cls-2" cx="692.32" cy="508.46" r="11.53"/><g id="_Группа_2" data-name="&lt;Группа&gt;"><path id="_Контур_50" data-name="&lt;Контур&gt;" class="cls-3" d="M1057.26,1005s-5.51,25.34,32.12,26.25,32.57-26.25,32.57-26.25"/><path id="_Контур_51" data-name="&lt;Контур&gt;" class="cls-3" d="M1611.25,762.72s-74.71-7.51-143.31,27.71-128.45,5.73-149.4,53.39,103.32,94.38,103.32,94.38,55.52,21.75,127.24-28.94,199.86-29.69,225.57-40.19,54.6-60.07,54.6-60.07,6.79,31.62,32.34,34.82S1893.94,809,1893.94,809,1778.27,702.79,1611.25,762.72Z"/><circle id="_Контур_52" data-name="&lt;Контур&gt;" class="cls-5" cx="1709.58" cy="816.14" r="12.43"/><circle id="_Контур_53" data-name="&lt;Контур&gt;" class="cls-5" cx="1676.7" cy="816.14" r="12.43"/><circle id="_Контур_54" data-name="&lt;Контур&gt;" class="cls-5" cx="1643.68" cy="816.14" r="12.43"/><path id="_Контур_55" data-name="&lt;Контур&gt;" class="cls-5" d="M1598.82,810.06c0,6.87,5.57,18.5,12.43,18.5a12.43,12.43,0,0,0,0-24.86C1604.39,803.71,1598.82,803.2,1598.82,810.06Z"/><path id="_Контур_56" data-name="&lt;Контур&gt;" class="cls-5" d="M1612.34,738.48s-9.86,49.68-5.32,54.66c4.28,4.69,72.89,16.9,95,8.55a10.79,10.79,0,0,0,6.52-6.27c2.06-5.78-1.26-12-6.42-13.3-6.59-1.62-52.21-10.34-52.21-10.34l8.2-29.25"/><polygon id="_Контур_57" data-name="&lt;Контур&gt;" class="cls-8" points="1667.8 774.29 1649.95 758.67 1635.9 776.47 1646.05 784.57 1667.8 774.29"/><path id="_Контур_58" data-name="&lt;Контур&gt;" class="cls-8" d="M1691.08,803.33c9.2,3.46,18.68,7.13,22.59,8.65a2.92,2.92,0,0,1,1.86,2.73h0a2.94,2.94,0,0,1-2.94,2.94l-124.86-6.06s-10.7-14.3,19-18.46C1606.72,793.13,1679.09,798.82,1691.08,803.33Z"/><circle id="_Контур_59" data-name="&lt;Контур&gt;" class="cls-5" cx="1353.34" cy="736.54" r="12.43" transform="translate(523.22 2034.59) rotate(-85.96)"/><circle id="_Контур_60" data-name="&lt;Контур&gt;" class="cls-5" cx="1355.66" cy="703.75" r="12.43" transform="translate(558.09 2006.42) rotate(-85.96)"/><circle id="_Контур_61" data-name="&lt;Контур&gt;" class="cls-5" cx="1357.99" cy="670.81" r="12.43" transform="translate(593.11 1978.12) rotate(-85.96)"/><circle id="_Контур_62" data-name="&lt;Контур&gt;" class="cls-5" cx="1360.27" cy="638.46" r="12.43" transform="translate(627.5 1950.34) rotate(-85.96)"/><path id="_Контур_63" data-name="&lt;Контур&gt;" class="cls-5" d="M1434.63,642s-51.88-10.73-57.17-6.55c-5,3.94-15.94,71.95-9.17,94.62a10.79,10.79,0,0,0,5.79,7c5.62,2.46,12.09-.41,13.72-5.46,2.08-6.46,14-51.35,14-51.35l25.57,10.24"/><polygon id="_Контур_64" data-name="&lt;Контур&gt;" class="cls-8" points="1398.03 697.82 1414.87 681.12 1398.1 665.85 1389.31 675.4 1398.03 697.82"/><path id="_Контур_65" data-name="&lt;Контур&gt;" class="cls-8" d="M1367.42,719c-4.1,8.93-8.43,18.13-10.22,21.92a2.92,2.92,0,0,1-2.86,1.66h0a2.94,2.94,0,0,1-2.72-3.14l8.79-124.55s15-9.67,17.07,20.24C1377.48,635.13,1372.76,707.35,1367.42,719Z"/><path id="_Контур_66" data-name="&lt;Контур&gt;" class="cls-2" d="M1718.55,402c0,25.56-16.82,46.27-41.31,46.27a43.41,43.41,0,0,1-32.56-14.85A47.22,47.22,0,0,1,1632.89,402c0-25.56,19.85-46.27,44.35-46.27S1718.55,376.41,1718.55,402Z"/><polyline id="_Контур_67" data-name="&lt;Контур&gt;" class="cls-2" points="1621.8 450.34 1646.39 479.63 1667.02 446.06 1646.55 421.8"/><path id="_Контур_68" data-name="&lt;Контур&gt;" class="cls-2" d="M1699.78,503.54l13,31.19,63.81-9.39,13-8.41a7.63,7.63,0,0,1,7.75-.3l5.73,3.09a7.63,7.63,0,0,1,1.14,12.67l-8.57,6.78a8.61,8.61,0,0,1-5.41,1.84h-17.12s-59.92,26.81-69.34,22.38S1675.3,522,1675.3,522Z"/><path id="_Контур_69" data-name="&lt;Контур&gt;" class="cls-2" d="M1569.28,458.59l-93.21,42.31-29.86,10.82-5.29,8.16a5.9,5.9,0,0,0,2.73,8.68l13.7,5.58a7.9,7.9,0,0,0,7.1-.57l20.14-12.3,105.48-43.39Z"/><path id="_Контур_70" data-name="&lt;Контур&gt;" class="cls-6" d="M1621.8,588.9s49.14,38.72,53.92,58.5-17.56,95.12-17.56,95.12l-45.81-4,8.4-73.2-61.93-38.79s-19.31,55.33-36.06,65.15-95.4-1.2-95.4-1.2l7.26-48.45,51.12-2,36.47-76.56,63.29-24Z"/><path id="_Контур_71" data-name="&lt;Контур&gt;" class="cls-5" d="M1717,380.65l-83.49,30.78s-6.07-11.3-6.07-28.19,10.43-36.69,36.38-39.74S1715.18,343.46,1717,380.65Z"/><path id="_Контур_72" data-name="&lt;Контур&gt;" class="cls-13" d="M1610.14,448.27c-15.49.23-40.91,5-51.63,11.5-3.53,7.77,11.65,38.62,11.65,38.62L1499,574.51s89.56-15.47,128.16,20.12c20.48-27.54,31.35-68,31.35-68l10.73,16.95,34.46-34.6s-5.75-24.33-49.13-49.33A86.43,86.43,0,0,0,1610.14,448.27Z"/><path id="_Контур_73" data-name="&lt;Контур&gt;" class="cls-14" d="M1748.92,377h-33.4s-10.3,2.9-10.24,3.46c-6.84,2.54-14.91,6.13-16.8,9.82,0,0,22.33-5.28,37.26-7.28h23.17a3,3,0,1,0,0-6Z"/><ellipse id="_Контур_74" data-name="&lt;Контур&gt;" class="cls-2" cx="1659.48" cy="403.45" rx="11.26" ry="13.01"/><polygon id="_Контур_75" data-name="&lt;Контур&gt;" class="cls-5" points="1089.6 926.03 1121.94 1005 1089.6 1005 1057.26 1005 1089.6 926.03"/><polygon id="_Контур_76" data-name="&lt;Контур&gt;" class="cls-5" points="1435.6 814.03 1467.94 893 1435.6 893 1403.26 893 1435.6 814.03"/><polygon id="_Контур_77" data-name="&lt;Контур&gt;" class="cls-5" points="1861.6 730.03 1893.94 809 1861.6 809 1829.26 809 1861.6 730.03"/></g><path id="_Контур_78" data-name="&lt;Контур&gt;" class="cls-15" d="M5285,1106v-96.46l-1767.65-6.32a217,217,0,0,1-56.46-7.68L3002,870.09a526.81,526.81,0,0,0-140.21-18.65l-805.51,2a348.32,348.32,0,0,0-97.13,14.06L1109.6,1106Z"/><path id="_Контур_79" data-name="&lt;Контур&gt;" class="cls-3" d="M2261.81,714.21s50-63.51,144.19-78.21,236.94-6.93,236.94-6.93,151.38,47,202.52,44.9,51.14,2.89,51.14,19.94-34.16,66.39-95.34,66.43-168.42-23.17-230.13-21.86-20.9,75.68-129.86,71.45S2189.23,804,2261.81,714.21Z"/><path id="_Контур_80" data-name="&lt;Контур&gt;" class="cls-3" d="M3941.26,915.91c-61.15,8.38-80.91,37.71-189.86,33.48S3582.4,928.74,3655,839c0,0,26.28-36.28,120.47-51s252.16,4.79,289.94,55.63S3963.16,912.91,3941.26,915.91Z"/><path id="_Контур_81" data-name="&lt;Контур&gt;" class="cls-3" d="M4593.66,608s-91.55,10-109,70.64,198.53,77.45,198.53,77.45,36.09,26.42,97.45,27.15,125.45-89.34,125.45-89.34,180.61,24.58,196.15,6.83S5098.42,632.17,5044,610,4593.66,608,4593.66,608Z"/></g><g id="Слой_101_копия_2" data-name="Слой 101 копия 2"><circle id="_Контур_82" data-name="&lt;Контур&gt;" class="cls-6" cx="2418.34" cy="762.4" r="4.71"/><circle id="_Контур_83" data-name="&lt;Контур&gt;" class="cls-6" cx="2429.81" cy="762.4" r="4.71"/><circle id="_Контур_84" data-name="&lt;Контур&gt;" class="cls-6" cx="2441.28" cy="762.4" r="4.71"/><circle id="_Контур_85" data-name="&lt;Контур&gt;" class="cls-6" cx="2452.75" cy="762.4" r="4.71"/><circle id="_Контур_86" data-name="&lt;Контур&gt;" class="cls-6" cx="2348.71" cy="762.4" r="4.71"/><circle id="_Контур_87" data-name="&lt;Контур&gt;" class="cls-6" cx="2360.18" cy="762.4" r="4.71"/><circle id="_Контур_88" data-name="&lt;Контур&gt;" class="cls-6" cx="2371.65" cy="762.4" r="4.71"/><circle id="_Контур_89" data-name="&lt;Контур&gt;" class="cls-6" cx="2383.12" cy="762.4" r="4.71"/><circle id="_Контур_90" data-name="&lt;Контур&gt;" class="cls-2" cx="2384.52" cy="533.05" r="39.29"/><path id="_Контур_91" data-name="&lt;Контур&gt;" class="cls-6" d="M2350.4,554.31l80.49-58.62a3.28,3.28,0,0,0,.73-4.58h0a3.28,3.28,0,0,0-4.55-.75L2410.14,501s-19-13.88-30.11-14.37-28.3,14.11-34.8,24.09S2336.1,534.54,2350.4,554.31Z"/><polygon id="_Контур_92" data-name="&lt;Контур&gt;" class="cls-2" points="2432.25 577.03 2463.53 638.76 2471.8 645.53 2467.29 659.06 2454.62 652.29 2452.03 641.77 2423.81 606.43 2421.05 587.63 2432.25 577.03"/><path id="_Контур_93" data-name="&lt;Контур&gt;" class="cls-6" d="M2443.12,654.39l-1.94,85.25,10,5.21A7.1,7.1,0,0,1,2455,751v3.1l-38.9.73L2412,676.93l-38.71,61.89,9.25,5.57a8,8,0,0,1,3.85,7.14l-.13,3.28-42.26-.06,1.55-15.94,26.06-77Z"/><circle id="_Контур_94" data-name="&lt;Контур&gt;" class="cls-2" cx="2370.49" cy="539.23" r="9.54"/><path id="_Контур_95" data-name="&lt;Контур&gt;" class="cls-11" d="M2420.18,572.66c8.07,1.92,12.06,4.37,12.06,4.37l-5.36,15.47c6.64,24.92,16.71,64.28,16.71,64.28s-50.85,20.3-73.75,8.61c2.5-14.18-5-51.4-5-51.4l1.69,1.88c-5.69-4.51-6.81-26.78-6.81-26.78S2399.32,567.71,2420.18,572.66Z"/><polygon id="_Контур_96" data-name="&lt;Контур&gt;" class="cls-2" points="2376.56 567.72 2384.95 588.52 2404.12 590.94 2406 579.33 2398.96 563.02 2376.56 567.72"/><path id="_Контур_97" data-name="&lt;Контур&gt;" class="cls-2" d="M2370.83,612.39l-1.39,18.19,14.74,23.09L2380.66,669h-11.26l-2.64-16.65L2351.25,629s-.32-22.12,8.47-39.84C2367.56,591.37,2370.83,612.39,2370.83,612.39Z"/></g><g id="чувак1_копия_2" data-name="чувак1 копия 2"><g id="Слой_15_копия_2" data-name="Слой 15 копия 2"><path id="_Контур_98" data-name="&lt;Контур&gt;" class="cls-2" d="M3753.95,473.26s-38.33,33.76-48.1,86.42c-2,4.44-30.24,25.23-47.73,37.25-23.39,11.29-28.58,10.7-31.49,38.81-.8,7.78,15,8.82,17.54,6.12,3.37-3.53,18.26-22.67,19.33-23.81l57.7-41.1,17.32-28.77,61.75-74.93S3772.66,459.85,3753.95,473.26Z"/><path id="_Контур_99" data-name="&lt;Контур&gt;" class="cls-2" d="M3803.4,676.11l14.29,42.15L3917,796.64s23.74-18.91,22.73-20.6c-27.81-46.46-90.07-74.54-90.07-74.54l-9.43-46.11Z"/><path id="_Контур_100" data-name="&lt;Контур&gt;" class="cls-2" d="M3737,649.42l-15.79,58.74,40,109.21,30.13-3.84c-3.73-48.44-36.91-102.69-36.91-102.69l20.6-44.7Z"/><path id="_Контур_101" data-name="&lt;Контур&gt;" class="cls-16" d="M3750.72,610.35l-17.95,38.58-2.47,5.31s17.37,28.91,41.35,24.5c1.67-.35,19.65-28.58,19.65-28.58s1.67,18,9,33.68c25.47.91,43.22-12.59,45.37-17.35,1.77-7.51,10.21-27.56,0-75.53C3815,597.08,3750.72,610.35,3750.72,610.35Z"/><path id="_Контур_102" data-name="&lt;Контур&gt;" class="cls-2" d="M3788.33,447.08s-.35,12.44,4.25,19.55-38.63,6.63-38.63,6.63,17.31-23.9,11.62-39.46S3788.33,447.08,3788.33,447.08Z"/><path id="_Контур_103" data-name="&lt;Контур&gt;" class="cls-6" d="M3791.46,465.39l53.19,26-8.72,35.4L3823,529.35s17.53,67.06,34.14,66.49c-21.23,39.9-108.73,24.25-108.73,24.25s-27.22-31.19-11.39-136c13.59-7.55,3.51,9.24,12.9,9.24S3791.46,465.39,3791.46,465.39Z"/><ellipse id="_Контур_104" data-name="&lt;Контур&gt;" class="cls-2" cx="3776.05" cy="404.12" rx="35.63" ry="48.12"/><ellipse id="_Контур_105" data-name="&lt;Контур&gt;" class="cls-16" cx="3735.91" cy="714.12" rx="20.34" ry="24.58"/><ellipse id="_Контур_106" data-name="&lt;Контур&gt;" class="cls-16" cx="3834.95" cy="714.12" rx="20.34" ry="24.58" transform="translate(48.3 1651.19) rotate(-24.45)"/><path id="_Контур_107" data-name="&lt;Контур&gt;" class="cls-6" d="M3811.68,404.12s23.88-43.25-26.55-57.54c-37.64-10.67-39.4,32.27-39.4,32.27S3791.21,375.86,3811.68,404.12Z"/><path id="_Контур_108" data-name="&lt;Контур&gt;" class="cls-5" d="M3770.64,396.47c-7.64-5.47-28.76-17.67-53.57-7.13,12.4-8.54,32-16.66,32-16.66s25.86-2.15,43.54,12.65c-5.85,4.09-12,8.51-15.65,11.14A5.42,5.42,0,0,1,3770.64,396.47Z"/><path id="_Контур_109" data-name="&lt;Контур&gt;" class="cls-2" d="M3808,402.27s6.77-11.38,11.7-7.59,5.53,19.35-.16,20.11-11.54-2.28-11.54-2.28Z"/></g><g id="Слой_16_копия_3" data-name="Слой 16 копия 3"><circle id="_Контур_110" data-name="&lt;Контур&gt;" class="cls-5" cx="3699.19" cy="870.22" r="11.17"/><circle id="_Контур_111" data-name="&lt;Контур&gt;" class="cls-5" cx="3728.72" cy="870.22" r="11.17"/><circle id="_Контур_112" data-name="&lt;Контур&gt;" class="cls-5" cx="3758.39" cy="870.22" r="11.17"/><circle id="_Контур_113" data-name="&lt;Контур&gt;" class="cls-5" cx="3787.51" cy="870.22" r="11.17"/><path id="_Контур_114" data-name="&lt;Контур&gt;" class="cls-5" d="M3748.36,795.91l43.63-3.63s3.4,58.27-.68,62.73-73.22,10.4-88.52.7c-6.08-5.85-2.86-14.61,3.06-16.06s46.9-9.29,46.9-9.29l-1.91-34.46"/><polygon id="_Контур_115" data-name="&lt;Контур&gt;" class="cls-8" points="3736.72 832.63 3752.75 818.6 3765.37 834.59 3756.26 841.87 3736.72 832.63"/><path id="_Контур_116" data-name="&lt;Контур&gt;" class="cls-8" d="M3715.38,858.72,3693,867.14v4.45h120.68s4.16-12.84-22.51-16.58C3791.16,855,3726.15,854.67,3715.38,858.72Z"/><circle id="_Контур_117" data-name="&lt;Контур&gt;" class="cls-5" cx="3915.11" cy="868.1" r="11.17" transform="translate(674.74 3230.65) rotate(-48.6)"/><circle id="_Контур_118" data-name="&lt;Контур&gt;" class="cls-5" cx="3934.64" cy="845.95" r="11.17" transform="translate(697.97 3237.8) rotate(-48.6)"/><circle id="_Контур_119" data-name="&lt;Контур&gt;" class="cls-5" cx="3954.26" cy="823.69" r="11.17" transform="translate(721.3 3244.98) rotate(-48.6)"/><circle id="_Контур_120" data-name="&lt;Контур&gt;" class="cls-5" cx="3973.52" cy="801.85" r="11.17" transform="translate(744.21 3252.03) rotate(-48.6)"/><path id="_Контур_121" data-name="&lt;Контур&gt;" class="cls-5" d="M3891.89,782.07,3918,746.94s46,36,46.61,42-36.91,61.8-54.3,66.86c-8.41.69-12.85-7.51-10-12.92s20.34-41.32,20.34-41.32l-27.11-21.36"/><polygon id="_Контур_122" data-name="&lt;Контур&gt;" class="cls-8" points="3914.21 815.08 3914.29 793.78 3934.63 794.89 3934.06 806.54 3914.21 815.08"/><path id="_Контур_123" data-name="&lt;Контур&gt;" class="cls-8" d="M3917.29,848.23c-4.08,10.76-8.39,22.25-8.39,22.25l3.33,2.94L3992,783s-6.88-11.61-27.33,5.92C3964.63,788.94,3921.37,837.48,3917.29,848.23Z"/></g></g><g id="Слой_147" data-name="Слой 147"><path id="_Контур_124" data-name="&lt;Контур&gt;" class="cls-2" d="M2727.89,469.36c.61,15.63,12.48,28.32,27.88,28.32a28.32,28.32,0,0,0,0-56.64C2740.37,441,2726.61,436.58,2727.89,469.36Z"/><path id="_Контур_125" data-name="&lt;Контур&gt;" class="cls-5" d="M2783.64,490.6l-7.74-1.67s7.49-17.35,0-31.08-48-9.73-48-9.73.88-39.82,46.9-26.55S2795.29,488.83,2783.64,490.6Z"/><path id="_Контур_126" data-name="&lt;Контур&gt;" class="cls-17" d="M2687.91,482.6s-7.54-8-13.73-8.12-14.23,5.5-13.79,11.66,19.09,9,19.09,9Z"/><path id="_Контур_127" data-name="&lt;Контур&gt;" class="cls-13" d="M2770.21,675.49s6,16.71,0,25.06c-15.22.6-50.72,0-50.72,0s-6.84-6.53-1.24-12.58a10.6,10.6,0,0,1,7.19-3.24c11.66-.69,21.47-4.12,24.78-10.73C2750.22,673.7,2770.21,675.49,2770.21,675.49Z"/><circle id="_Контур_128" data-name="&lt;Контур&gt;" class="cls-13" cx="2765.51" cy="708.59" r="5.75"/><path id="_Контур_129" data-name="&lt;Контур&gt;" class="cls-2" d="M2836.94,485.9l-2.51-11.28s4.26-15,13-13,9,16.55,9,16.55l-11,18.05Z"/><circle id="_Контур_130" data-name="&lt;Контур&gt;" class="cls-13" cx="2751.51" cy="708.59" r="5.75"/><circle id="_Контур_131" data-name="&lt;Контур&gt;" class="cls-13" cx="2737.51" cy="708.59" r="5.75"/><circle id="_Контур_132" data-name="&lt;Контур&gt;" class="cls-13" cx="2723.51" cy="708.59" r="5.75"/><path id="_Контур_133" data-name="&lt;Контур&gt;" class="cls-13" d="M2831,620.44s13.61-11.38,23.52-8.67c5.82,14.07,17.54,47.59,17.54,47.59s-3.76,8.68-11.38,5.51a10.6,10.6,0,0,1-5.53-5.63c-4.68-10.7-11.29-18.72-18.64-19.54C2836.27,639.82,2831,620.44,2831,620.44Z"/><path id="_Контур_134" data-name="&lt;Контур&gt;" class="cls-5" d="M2727.89,585.91s5.13,67.44,17.7,90.47c5.86,3.35,26.51,1.86,26.51,1.86l-5.6-32.26,2-26.07,31.93,32.26s27,3.58,38.13-6.19c0-7.17-6.19-27.7-6.19-27.7s-18.25,7.17-22.16,4.24-15.08-38.92-15.08-38.92Z"/><circle id="_Контур_135" data-name="&lt;Контур&gt;" class="cls-13" cx="2863.71" cy="613.4" r="5.75" transform="translate(-35.45 1028.11) rotate(-20.23)"/><circle id="_Контур_136" data-name="&lt;Контур&gt;" class="cls-13" cx="2868.55" cy="626.54" r="5.75" transform="translate(-39.69 1030.59) rotate(-20.23)"/><path id="_Контур_137" data-name="&lt;Контур&gt;" class="cls-13" d="M2757.85,500.39s17.17-.26,23.86,2.57,16.21,10.81,16.21,10.81,28.82.51,36.54-30.11c0-.26,10.35-1.8,14.47,10.55-4.63,10.29-3.23,26.23-52.81,45-8.12,3.07-.77,46.14-.77,46.14s-23.67,26-72.31,4.12c-.26-7.72,3.35-44.72,3.35-44.72s-32.43-17-52.06-47c-3.22-2.83,4.13-13.07,10-18.9s27.52,35.57,43.45,30.66C2739.93,505.71,2741.09,499.39,2757.85,500.39Z"/><circle id="_Контур_138" data-name="&lt;Контур&gt;" class="cls-13" cx="2873.39" cy="639.67" r="5.75" transform="translate(-43.93 1033.08) rotate(-20.23)"/><path id="_Контур_139" data-name="&lt;Контур&gt;" class="cls-2" d="M2770.6,491.47l2,10s-13,19.35-21.45,19.35-7.36-15.17-7.36-15.17l2.6-15Z"/><circle id="_Контур_140" data-name="&lt;Контур&gt;" class="cls-13" cx="2878.24" cy="652.81" r="5.75" transform="translate(-48.18 1035.56) rotate(-20.23)"/><circle id="_Контур_141" data-name="&lt;Контур&gt;" class="cls-5" cx="2486.77" cy="691.32" r="8.94"/><circle id="_Контур_142" data-name="&lt;Контур&gt;" class="cls-5" cx="2510.42" cy="691.32" r="8.94"/><circle id="_Контур_143" data-name="&lt;Контур&gt;" class="cls-5" cx="2534.17" cy="691.32" r="8.94"/><path id="_Контур_144" data-name="&lt;Контур&gt;" class="cls-5" d="M2566.43,686.95c0,4.94-4,13.31-8.94,13.31a8.94,8.94,0,1,1,0-17.88C2562.43,682.38,2566.43,682,2566.43,686.95Z"/><polygon id="_Контур_145" data-name="&lt;Контур&gt;" class="cls-2" points="2584.52 489.34 2564.41 563.19 2561.39 636.18 2529.12 638.03 2531.15 560.56 2543.11 468.07 2584.52 489.34"/><path id="_Контур_146" data-name="&lt;Контур&gt;" class="cls-5" d="M2528.29,636l1.36,23.52s-32.81,6.21-37.55,7.38c-3.71.91-6.1,5.38-4.62,9.54a7.74,7.74,0,0,0,4.69,4.49c15.92,6,65.27-2.67,68.35-6,3.27-3.58.86-38.89.86-38.89Z"/><polygon id="_Контур_147" data-name="&lt;Контур&gt;" class="cls-8" points="2516.82 661.22 2529.65 649.99 2539.76 662.79 2532.46 668.62 2516.82 661.22"/><path id="_Контур_148" data-name="&lt;Контур&gt;" class="cls-8" d="M2500.07,682.11c-6.62,2.49-13.43,5.13-16.25,6.22a2.1,2.1,0,0,0-1.34,2h0a2.11,2.11,0,0,0,2.11,2.11l89.8-4.36s7.7-10.28-13.66-13.28C2560.75,674.77,2508.7,678.86,2500.07,682.11Z"/><circle id="_Контур_149" data-name="&lt;Контур&gt;" class="cls-5" cx="2588.24" cy="698.74" r="8.94"/><circle id="_Контур_150" data-name="&lt;Контур&gt;" class="cls-5" cx="2611.88" cy="698.74" r="8.94"/><path id="_Контур_151" data-name="&lt;Контур&gt;" class="cls-2" d="M2635.63,480.51l5.59,76.85s19.88,72.87,15.16,88.52-29.69-1.39-29.69-1.39l-17.87-81.29-16.57-75.79Z"/><circle id="_Контур_152" data-name="&lt;Контур&gt;" class="cls-5" cx="2635.63" cy="698.74" r="8.94"/><path id="_Контур_153" data-name="&lt;Контур&gt;" class="cls-5" d="M2667.89,694.37c0,4.94-4,13.31-8.94,13.31a8.94,8.94,0,1,1,0-17.88C2663.89,689.8,2667.89,689.44,2667.89,694.37Z"/><path id="_Контур_154" data-name="&lt;Контур&gt;" class="cls-5" d="M2626.69,644.48l4.42,22.35s-32.81,6.27-37.55,7.43c-3.71.91-6.1,5.41-4.62,9.57a7.76,7.76,0,0,0,4.69,4.51c15.92,6,65.27-2.78,68.35-6.15,3.27-3.58-3.82-39.31-3.82-39.31Z"/><polygon id="_Контур_155" data-name="&lt;Контур&gt;" class="cls-8" points="2618.29 668.64 2631.12 657.41 2641.23 670.21 2633.93 676.04 2618.29 668.64"/><path id="_Контур_156" data-name="&lt;Контур&gt;" class="cls-8" d="M2601.54,689.53c-6.62,2.49-13.43,5.13-16.25,6.22a2.1,2.1,0,0,0-1.34,2h0a2.11,2.11,0,0,0,2.11,2.11l89.8-4.36s7.7-10.28-13.66-13.28C2662.21,682.2,2610.16,686.29,2601.54,689.53Z"/><path id="_Контур_157" data-name="&lt;Контур&gt;" class="cls-2" d="M2557.76,335.46s-38.29,48-52.72,98.18c-1.56,5.43-5.56,12.35-7.74,15.9a5.49,5.49,0,0,0-.4,4.95l4.35,10.7a5.15,5.15,0,0,0,9,1.06l10.57-14.77a6.67,6.67,0,0,0,1-5.71l-2.3-8.09,41.63-67.31Z"/><path id="_Контур_158" data-name="&lt;Контур&gt;" class="cls-6" d="M2615.45,404.68s20.32,30.28,20.76,77.65c-15.35,6.14-42.95,10.94-42.95,10.94l-5.2-13.8-4.1,12.19-44.19-5.52.67-69.66Z"/><path id="_Контур_159" data-name="&lt;Контур&gt;" class="cls-5" d="M2579.3,282.26s25.94,9.07,34,28.48-1.77,72-1.77,72,4.75,16.34,7.85,24.78c-59.5,38.36-78.39,14.71-78.39,14.71V355.71a53,53,0,0,1-6.14-31.35c2-18.39,30.53-41.69,30.53-41.69Z"/><path id="_Контур_160" data-name="&lt;Контур&gt;" class="cls-2" d="M2594.48,253.45l2.08,40s-20.6,17-27.18,13.84-6-17.91-6-17.91l9.87-36.22Z"/><ellipse id="_Контур_161" data-name="&lt;Контур&gt;" class="cls-6" cx="2540.44" cy="559.18" rx="18.51" ry="26.5"/><ellipse id="_Контур_162" data-name="&lt;Контур&gt;" class="cls-6" cx="2616.33" cy="562.48" rx="18.51" ry="26.5" transform="translate(-59.25 509.3) rotate(-10.99)"/><polygon id="_Контур_163" data-name="&lt;Контур&gt;" class="cls-6" points="2629 556.53 2640.85 557.36 2642.94 565.36 2629 563.19 2629 556.53"/><polygon id="_Контур_164" data-name="&lt;Контур&gt;" class="cls-6" points="2553.86 553.89 2565.5 559.18 2564.22 567.78 2551.37 563.19 2553.86 553.89"/><g id="_Группа_3" data-name="&lt;Группа&gt;"><ellipse id="_Контур_165" data-name="&lt;Контур&gt;" class="cls-2" cx="2581.54" cy="230.72" rx="46.63" ry="42.48" transform="translate(1890.38 2728.69) rotate(-79.64)"/><path id="_Контур_166" data-name="&lt;Контур&gt;" class="cls-11" d="M2544.11,254.29s-20.49-15.35.26-51.16,65.62-12,65.62-12,26.63,1.31,33,22.5c-12.48,2.61-42.29,8.73-42.29,8.73l-5.7-4.16Z"/><path id="_Контур_167" data-name="&lt;Контур&gt;" class="cls-11" d="M2557.74,193.11s-.82-22.85-38.07-17.19-30.61,60.38-68.23,65.81c19.12,18.45,42.71,21.89,62.55-4.54,15-20,25-38.85,35.22-35.61S2557.74,193.11,2557.74,193.11Z"/><circle id="_Контур_168" data-name="&lt;Контур&gt;" class="cls-2" cx="2559.32" cy="233.18" r="11.82"/></g><path id="_Контур_169" data-name="&lt;Контур&gt;" class="cls-2" d="M2677,449.22s-45.06-135.74-63.8-138.36S2587.86,336,2606,355.92a261.28,261.28,0,0,1,28.78,37.91L2662,454.74V481l15,9.6,13.7-22.54Z"/></g><g id="Слой_83_копия_" data-name="Слой 83 (копия)"><g id="_Группа_4" data-name="&lt;Группа&gt;"><path id="_Контур_170" data-name="&lt;Контур&gt;" class="cls-18" d="M4663,482.91v40.85a10.64,10.64,0,0,0,10.55,10.6l359.91,3.19A10.47,10.47,0,0,0,5044,527V487.06A13.82,13.82,0,0,0,5030,473H4673.34A10,10,0,0,0,4663,482.91Z"/><path id="_Контур_171" data-name="&lt;Контур&gt;" class="cls-18" d="M4636,609v67.94a6,6,0,0,0,6.14,6.06H4642a5.93,5.93,0,0,0,6-6.06V609Z"/><path id="_Контур_172" data-name="&lt;Контур&gt;" class="cls-18" d="M5062,610v68.19a5.76,5.76,0,0,0,6.09,5.81h-.16a5.75,5.75,0,0,0,6.07-5.81V610Z"/><path id="_Контур_173" data-name="&lt;Контур&gt;" class="cls-18" d="M4671.28,561h365a23.46,23.46,0,0,1,14.39,4.8l43.18,33.2H4614.76l41.92-33A23.46,23.46,0,0,1,4671.28,561Z"/><path id="_Контур_174" data-name="&lt;Контур&gt;" class="cls-6" d="M4615,607.39V599h479.24l-.17,8.64a9.54,9.54,0,0,1-9.51,9.36H4624.27A9.39,9.39,0,0,1,4615,607.39Z"/></g><polygon id="_Контур_175" data-name="&lt;Контур&gt;" class="cls-16" points="4708.77 581.3 4642.92 644.95 4667.56 674.45 4727.9 618.85 4708.77 581.3"/><path id="_Контур_176" data-name="&lt;Контур&gt;" class="cls-19" d="M4763.6,533.2l-1.88,3.82s-49.44,7.11-59.64,22.46,30.3,99.64,30.3,99.64l39.85-3.56-14.53-62.33s48.56,7.06,57.77,3.33,34.33-20.43,32-57.05S4763.6,533.2,4763.6,533.2Z"/><path id="_Контур_177" data-name="&lt;Контур&gt;" class="cls-13" d="M4778.25,415.59s-37.74-11-76.17,34.71c2.41,8.68,21.34,42.7,21.34,42.7h20.92s16.52,22.41,12,45c16.76-1.93,49-15.52,96,12.2C4850.46,525.67,4842.7,437.7,4778.25,415.59Z"/><ellipse id="_Контур_178" data-name="&lt;Контур&gt;" class="cls-2" cx="4708.77" cy="381.7" rx="42.47" ry="44.49"/><polygon id="_Контур_179" data-name="&lt;Контур&gt;" class="cls-2" points="4718.88 419.28 4726.88 449.01 4744.65 420.21 4737.17 404.42 4718.88 419.28"/><polygon id="_Контур_180" data-name="&lt;Контур&gt;" class="cls-2" points="4742.22 453.05 4679.31 554.8 4661 567.63 4661 584.02 4685.18 580.92 4693.17 562.97 4760.05 478.74 4742.22 453.05"/><polygon id="_Контур_181" data-name="&lt;Контур&gt;" class="cls-2" points="4703.49 449.02 4713.76 477.03 4635.99 539.6 4626.26 556 4606.35 556 4598.24 548.48 4614.25 530.78 4626.26 529.06 4703.49 449.02"/><path id="_Контур_182" data-name="&lt;Контур&gt;" class="cls-6" d="M4750.58,389.93l-114.44-11.21a3.65,3.65,0,0,1-3.29-3.63h0a3.65,3.65,0,0,1,3.91-3.64l30.23,2.18,4-19.82A23.16,23.16,0,0,1,4687.11,336c5.27-1.52,12.29-2.26,21.59-1.21a57,57,0,0,1,36.65,19.25,22.78,22.78,0,0,1,5.71,15.6Z"/><g id="Слой_84_копия_" data-name="Слой 84 (копия)"><circle id="_Контур_183" data-name="&lt;Контур&gt;" class="cls-5" cx="4574.95" cy="640.44" r="9.84" transform="translate(395.8 2608.94) rotate(-33.19)"/><circle id="_Контур_184" data-name="&lt;Контур&gt;" class="cls-5" cx="4589.19" cy="662.21" r="9.84" transform="translate(386.2 2620.29) rotate(-33.19)"/><circle id="_Контур_185" data-name="&lt;Контур&gt;" class="cls-5" cx="4603.5" cy="684.08" r="9.84" transform="matrix(0.84, -0.55, 0.55, 0.84, 376.56, 2631.69)"/><circle id="_Контур_186" data-name="&lt;Контур&gt;" class="cls-5" cx="4617.54" cy="705.54" r="9.84" transform="translate(367.1 2642.88) rotate(-33.19)"/><path id="_Контур_187" data-name="&lt;Контур&gt;" class="cls-5" d="M4667.56,674.45s-31.72,27.41-37,26.56c-5-.8-38.74-43.58-42.8-61.85a8.53,8.53,0,0,1,1.33-7c2.94-3.87,8.51-4.38,11.59-1.51,3.93,3.66,29.46,30.09,29.46,30.09l13.72-16.93"/><polygon id="_Контур_188" data-name="&lt;Контур&gt;" class="cls-8" points="4620.76 649.98 4638.83 655.03 4633.13 672.04 4623.37 668.83 4620.76 649.98"/><path id="_Контур_189" data-name="&lt;Контур&gt;" class="cls-8" d="M4591.44,647.14c-6.28-4.59-12.81-9.28-15.51-11.21a2.31,2.31,0,0,0-2.62,0h0a2.33,2.33,0,0,0-.67,3.22l54.07,82.68s14.1.89,4-20.57C4630.72,701.21,4599.62,653.13,4591.44,647.14Z"/><circle id="_Контур_190" data-name="&lt;Контур&gt;" class="cls-5" cx="4693" cy="715.77" r="9.84" transform="translate(-13.43 94.43) rotate(-1.15)"/><circle id="_Контур_191" data-name="&lt;Контур&gt;" class="cls-5" cx="4719" cy="715.25" r="9.84" transform="translate(-13.42 94.95) rotate(-1.15)"/><circle id="_Контур_192" data-name="&lt;Контур&gt;" class="cls-5" cx="4745.13" cy="714.73" r="9.84" transform="translate(-13.4 95.48) rotate(-1.15)"/><circle id="_Контур_193" data-name="&lt;Контур&gt;" class="cls-5" cx="4770.78" cy="714.21" r="9.84" transform="translate(-13.39 95.99) rotate(-1.15)"/><path id="_Контур_194" data-name="&lt;Контур&gt;" class="cls-5" d="M4771,655.31s6.41,41.43,2.89,45.43c-3.31,3.78-57.49,9.72-75.14,3.47a8.53,8.53,0,0,1-5.26-4.86c-1.72-4.54.8-9.54,4.87-10.63,5.18-1.39,41.14-9,41.14-9l-7.07-20.61"/><polygon id="_Контур_195" data-name="&lt;Контур&gt;" class="cls-8" points="4725.39 682.01 4739.25 669.37 4750.65 683.22 4742.75 689.79 4725.39 682.01"/><path id="_Контур_196" data-name="&lt;Контур&gt;" class="cls-8" d="M4707.43,705.35c-7.22,2.88-14.66,5.93-17.73,7.2a2.31,2.31,0,0,0-1.43,2.19h0a2.33,2.33,0,0,0,2.37,2.28l98.77-2s8.24-11.48-15.32-14.3C4774.1,700.74,4716.84,701.59,4707.43,705.35Z"/></g><circle id="_Контур_197" data-name="&lt;Контур&gt;" class="cls-2" cx="4718.47" cy="389.25" r="11.73"/></g></g></g></svg>