<svg xmlns="http://www.w3.org/2000/svg" viewBox="0 0 5290.05 1112.76"><defs><style>.cls-1{fill:#f8f4dc;}.cls-2{fill:#47c7be;}.cls-3{fill:#33dcd9;}.cls-4{fill:#f4efd0;}.cls-5{fill:#00c8f6;}.cls-11,.cls-15,.cls-20,.cls-22,.cls-6{fill:#ff5365;}.cls-7{fill:#ffb8bb;}.cls-8{fill:#09b9d6;}.cls-9{fill:#ffefae;}.cls-10{fill:#223c92;}.cls-11{stroke:#00c8f6;stroke-width:13.67px;}.cls-11,.cls-22{stroke-miterlimit:10;}.cls-12,.cls-14,.cls-19,.cls-23{fill:none;}.cls-12,.cls-14,.cls-19,.cls-22,.cls-23{stroke:#223c92;}.cls-12,.cls-14,.cls-15,.cls-19,.cls-20,.cls-23{stroke-linecap:round;stroke-linejoin:round;}.cls-12{stroke-width:11.39px;}.cls-13{fill:#00d3cf;}.cls-14{stroke-width:10.25px;}.cls-15,.cls-20{stroke:#ff5365;}.cls-15{stroke-width:12.3px;}.cls-16{fill:#0090ad;}.cls-17{fill:#142d75;}.cls-18{fill:#f4b5ba;}.cls-19{stroke-width:11.63px;}.cls-20{stroke-width:13.96px;}.cls-21{fill:#04bab1;}.cls-22{stroke-width:10.97px;}.cls-23{stroke-width:9.14px;}</style></defs><title>samokat</title><g id="Слой_2" data-name="Слой 2"><g id="Слой_153_копия3_" data-name="Слой 153 (копия3)"><g id="Слой_141_копия3_" data-name="Слой 141 (копия3)"><rect id="_Прямоугольник_" data-name="&lt;Прямоугольник&gt;" class="cls-1" x="0.05" y="1.76" width="5290" height="1111"/></g><g id="Слой_166_копия_" data-name="Слой 166 (копия)"><path id="_Контур_" data-name="&lt;Контур&gt;" class="cls-2" d="M1752.35,1.76H0L2.13,306.68,521.76,645.44A162.05,162.05,0,0,0,671,659.94L1403,364A243,243,0,0,1,1623.91,384l128.6,81.28Z"/><path id="_Контур_2" data-name="&lt;Контур&gt;" class="cls-2" d="M6.47,928.59,215,844.3c30.69-12.41,34.95-54.12,7.39-72.47l-218-145.2Z"/><polygon id="_Контур_3" data-name="&lt;Контур&gt;" class="cls-1" points="0.05 305.65 0.05 624.03 4.16 626.63 1.82 306.74 0.05 305.65"/><path id="_Контур_4" data-name="&lt;Контур&gt;" class="cls-3" d="M.58,764S214.32,867.34,235.75,651.52c51.36-2,152.5-235.47-36.14-244.46-5-39.78-63.36-199.35-197.48-100.32C4.37,626.63.58,764,.58,764Z"/><path id="_Контур_5" data-name="&lt;Контур&gt;" class="cls-4" d="M1000,1026.59c-24.39-25.76,12.44-71.47,202.9-66.39s234.76,12.41,257.79,21.15,88.59,58.44,0,78.78-205.51-2.61-257.79,0S1024.36,1052.35,1000,1026.59Z"/><g id="_Группа_" data-name="&lt;Группа&gt;"><path id="_Контур_6" data-name="&lt;Контур&gt;" class="cls-5" d="M1326.19,999.7s5.48,15.8,39.32-16.12,35.17-28.85,32.41-36.31Z"/><path id="_Контур_7" data-name="&lt;Контур&gt;" class="cls-6" d="M1342.53,947.31S1370,936.38,1378.8,927c11.68,2.46,19.12,20.27,19.12,20.27s-50.9,52.85-66.25,53.51c-10.08.8-9.77-10.46-4.62-16.93S1336.48,973.9,1342.53,947.31Z"/></g><polygon id="_Контур_8" data-name="&lt;Контур&gt;" class="cls-7" points="1189.61 499.54 1099.84 639.76 1064.87 639.76 1065.52 659.2 1102.61 666.28 1127.24 644.06 1176.57 581.61 1189.61 499.54"/><g id="_Группа_2" data-name="&lt;Группа&gt;"><path id="_Контур_9" data-name="&lt;Контур&gt;" class="cls-5" d="M1141,967.82s-5.91,15.64,40.52,12.8,45.49.37,48.15-7.12Z"/><path id="_Контур_10" data-name="&lt;Контур&gt;" class="cls-6" d="M1187.1,938.05s28.1,9.2,40.85,7.64c7.4,9.37,1.7,27.81,1.7,27.81s-72.93,8-85.15-1.34c-8.25-5.84-.8-14.29,7.3-16S1165.43,954.59,1187.1,938.05Z"/></g><path id="_Контур_11" data-name="&lt;Контур&gt;" class="cls-8" d="M1294.29,652.76s13.78,80.58,39.34,149.67,62.9,127.06,61.46,130.08c-29.42,13.23-53.14,17.31-53.14,17.31l-97.3-232-42.11,96,28.11,132.24s-48.7,13.6-57,0-18.27-146.65-18.27-146.65L1196,652.76Z"/><path id="_Контур_12" data-name="&lt;Контур&gt;" class="cls-6" d="M1248.8,488.76s27.93-9.3,43.13,27.2c6.22,14.93-2.65,103.25-2.65,103.25l9,44C1228.7,705,1193.09,685,1186.87,669.77c-3.8-9.28-10.83-55.84-10.26-99.78.36-28.14,3.85-54.6,13.3-70.16,16.14-26.59,49.87-11.07,49.87-11.07Z"/><circle id="_Контур_13" data-name="&lt;Контур&gt;" class="cls-7" cx="1234.65" cy="399.95" r="56.15"/><polygon id="_Контур_14" data-name="&lt;Контур&gt;" class="cls-7" points="1253.05 446.36 1253.05 483.75 1264.34 487.6 1208.05 522.59 1208.05 483.75 1219.18 479.87 1226.35 442.19 1253.05 446.36"/><path id="_Контур_15" data-name="&lt;Контур&gt;" class="cls-7" d="M1292.85,576.29l-2.91,36.77a25.47,25.47,0,0,1-12.82,19.34L1195,678.57l-24.71,11.16-25.26-7.85v-16l22.08-12.24,19.2,4.71,67.11-50.06s-2.12-18.48-2.95-41.79Z"/><path id="_Контур_16" data-name="&lt;Контур&gt;" class="cls-9" d="M1223.87,394.76l-47.3-16s15-42.31,55.18-39.87,45.83,17.9,62.51,38.24,39.31,79.78,68.26,78.94c.48,0-30.52,33.34-64.24,21.13s-44.85-6.78-44.85-6.78l-.81-61.08Z"/><circle id="_Контур_17" data-name="&lt;Контур&gt;" class="cls-7" cx="1248.35" cy="414.19" r="14.23"/><g id="_Группа_3" data-name="&lt;Группа&gt;"><circle id="_Контур_18" data-name="&lt;Контур&gt;" class="cls-10" cx="1289.42" cy="985.53" r="36.8"/><circle id="_Контур_19" data-name="&lt;Контур&gt;" class="cls-10" cx="1289.5" cy="985.61" r="28.11"/><circle id="_Контур_20" data-name="&lt;Контур&gt;" class="cls-10" cx="1056.35" cy="985.53" r="36.8"/><circle id="_Контур_21" data-name="&lt;Контур&gt;" class="cls-10" cx="1056.43" cy="985.61" r="28.11"/><path id="_Контур_22" data-name="&lt;Контур&gt;" class="cls-5" d="M1069,930.49l44.67,60.27h175a5.21,5.21,0,0,0,5.45-5.32v0a5.55,5.55,0,0,0-5.52-5.64L1132,979l-.25-8.75a16.33,16.33,0,0,0-5.48-11.89c-3.69-3.2-9.37-5.55-17.26-2-2.59-3.16-37.3-47.63-37.3-47.63Z"/><line id="_Контур_23" data-name="&lt;Контур&gt;" class="cls-11" x1="1099.07" y1="766.73" x2="1063.73" y2="941.03"/><line id="_Контур_24" data-name="&lt;Контур&gt;" class="cls-12" x1="1119.74" y1="667.08" x2="1099.84" y2="762.97"/><rect id="_Прямоугольник_2" data-name="&lt;Прямоугольник&gt;" class="cls-10" x="1087.11" y="757.18" width="25.46" height="14.66" rx="6.3" ry="6.3" transform="translate(159.45 -189.32) rotate(10.6)"/><rect id="_Прямоугольник_3" data-name="&lt;Прямоугольник&gt;" class="cls-10" x="1058.98" y="890.58" width="25.46" height="14.66" rx="6.3" ry="6.3" transform="translate(183.52 -181.87) rotate(10.6)"/><path id="_Контур_25" data-name="&lt;Контур&gt;" class="cls-5" d="M1058.6,933.55l10.51,2.6a5,5,0,0,1,3.68,6.12l-11.39,45.59a7,7,0,0,1-7.61,5.29h0a7,7,0,0,1-6.27-6.88l6.68-49.75A3.56,3.56,0,0,1,1058.6,933.55Z"/><path id="_Контур_26" data-name="&lt;Контур&gt;" class="cls-5" d="M1249.52,984.81a40.9,40.9,0,0,1,63.37-34.2,3.8,3.8,0,0,0,5.06-.87h0a3.8,3.8,0,0,0-.76-5.46,48.34,48.34,0,0,0-75.81,36.84,48.81,48.81,0,0,0,.48,10.29l7.93-2A41.33,41.33,0,0,1,1249.52,984.81Z"/><g id="_Группа_4" data-name="&lt;Группа&gt;"><rect id="_Прямоугольник_4" data-name="&lt;Прямоугольник&gt;" class="cls-10" x="1097.28" y="659.92" width="45.12" height="10.33" transform="translate(141.37 -194.56) rotate(10.59)"/><rect id="_Прямоугольник_5" data-name="&lt;Прямоугольник&gt;" class="cls-10" x="1133.8" y="662.15" width="37.73" height="17.76" rx="4.21" ry="4.21" transform="translate(143.03 -200.49) rotate(10.59)"/><rect id="_Прямоугольник_6" data-name="&lt;Прямоугольник&gt;" class="cls-10" x="1066.06" y="649.48" width="37.73" height="17.76" rx="4.21" ry="4.21" transform="translate(139.54 -188.25) rotate(10.59)"/></g></g><g id="_Группа_5" data-name="&lt;Группа&gt;"><circle id="_Контур_27" data-name="&lt;Контур&gt;" class="cls-7" cx="620.33" cy="605.8" r="53.8"/><path id="_Контур_28" data-name="&lt;Контур&gt;" class="cls-6" d="M667,634.9,556.83,554.63a4.48,4.48,0,0,1-1-6.27h0a4.48,4.48,0,0,1,6.23-1l23.19,14.56s26.07-19,41.23-19.68,38.76,19.32,47.65,33S686.62,607.83,667,634.9Z"/><polygon id="_Контур_29" data-name="&lt;Контур&gt;" class="cls-7" points="662.58 690.05 745.24 714.36 760.07 707.93 770.9 724.03 761.78 744.16 739.54 730.77 650.04 714.36 662.58 690.05"/><polygon id="_Контур_30" data-name="&lt;Контур&gt;" class="cls-7" points="562.79 663.5 481.27 631.41 473.86 616.8 456.18 622.54 461.88 641.9 478.99 645.38 556.1 686.24 562.79 663.5"/><path id="_Контур_31" data-name="&lt;Контур&gt;" class="cls-4" d="M410.87,952.2s11-63.43,180.05-58.91,208.33,11,228.77,18.77,78.62,51.86,0,69.91-182.37-2.32-228.77,0S464.33,990.87,410.87,952.2Z"/><path id="_Контур_32" data-name="&lt;Контур&gt;" class="cls-13" d="M540.09,771.94l2.66,116.73-13.54,7.14a9.61,9.61,0,0,0-5.16,8.36v4.25l53.15,1,5.52-106.62,53,84.74L623,895.16a10.91,10.91,0,0,0-5.28,9.77l.17,4.49,57.86-.09-2.13-21.83L638,782.11Z"/><circle id="_Контур_33" data-name="&lt;Контур&gt;" class="cls-7" cx="639.53" cy="614.26" r="13.06"/><polygon id="_Контур_34" data-name="&lt;Контур&gt;" class="cls-7" points="631.23 653.26 619.74 681.75 593.49 685.05 590.92 669.15 600.55 646.83 631.23 653.26"/><path id="_Контур_35" data-name="&lt;Контур&gt;" class="cls-10" d="M667.17,689.86s-61.6-32.42-109.49-30.27c-1.14-.13-15.39,35.81-15.39,35.81l10.91,5.87-13.76,73.92s73,28,104.33,12c-3.42-19.42,1.71-61.38,1.71-61.38l9.69,2.63Z"/><g id="_Группа_6" data-name="&lt;Группа&gt;"><circle id="_Контур_36" data-name="&lt;Контур&gt;" class="cls-10" cx="709.37" cy="914.64" r="25.3"/><circle id="_Контур_37" data-name="&lt;Контур&gt;" class="cls-10" cx="483.86" cy="914.64" r="25.3"/><line id="_Контур_38" data-name="&lt;Контур&gt;" class="cls-14" x1="527.39" y1="697.46" x2="506.66" y2="797.64"/><path id="_Контур_39" data-name="&lt;Контур&gt;" class="cls-6" d="M496.28,875.33s19.63,37.43,20,44.43H707.44c2.81,0,5.61-2.08,5.61-4.89v-.16a5.39,5.39,0,0,0-5.32-5.17L533,908.72l-34.49-70Z"/><line id="_Контур_40" data-name="&lt;Контур&gt;" class="cls-15" x1="507.68" y1="793.65" x2="482.72" y2="914.64"/><path id="_Контур_41" data-name="&lt;Контур&gt;" class="cls-6" d="M680.74,914.62a31,31,0,0,1,48.1-26,2.88,2.88,0,0,0,3.84-.66h0a2.88,2.88,0,0,0-.58-4.14,36.69,36.69,0,0,0-57.54,28,37.05,37.05,0,0,0,.37,7.81l6-1.49A31.37,31.37,0,0,1,680.74,914.62Z"/><g id="_Группа_7" data-name="&lt;Группа&gt;"><rect id="_Прямоугольник_7" data-name="&lt;Прямоугольник&gt;" class="cls-10" x="507.17" y="691.01" width="40.62" height="9.3" transform="translate(136.9 -85.12) rotate(10.59)"/><rect id="_Прямоугольник_8" data-name="&lt;Прямоугольник&gt;" class="cls-6" x="540.05" y="693.02" width="33.97" height="15.99" rx="3.79" ry="3.79" transform="translate(138.39 -90.47) rotate(10.59)"/><rect id="_Прямоугольник_9" data-name="&lt;Прямоугольник&gt;" class="cls-6" x="479.07" y="681.61" width="33.97" height="15.99" rx="3.79" ry="3.79" transform="translate(135.25 -79.45) rotate(10.59)"/></g></g></g></g><g id="Слой_174" data-name="Слой 174"><path id="_Контур_42" data-name="&lt;Контур&gt;" class="cls-2" d="M5290.05,257.66,4338.05,663c-61.1,26-43.19,117,23.21,117.94l928.79,12.93Z"/><path id="_Контур_43" data-name="&lt;Контур&gt;" class="cls-2" d="M4953.9,1.76H1752.05l.3,463.48L2013,668.3a394.74,394.74,0,0,0,237.07,83.28l771.31,10.74a587.77,587.77,0,0,0,236.37-46Z"/><path id="_Контур_44" data-name="&lt;Контур&gt;" class="cls-16" d="M5290.05,404.21S4998.48,527,4867.34,310.57C4687,274.49,4329.14,222.06,4300.62,1.76c477.49-1,989.44,0,989.44,0Z"/><path id="_Контур_45" data-name="&lt;Контур&gt;" class="cls-16" d="M1805.84,1.76s-55.1,302.7,229.57,335S2634,276.1,2634,276.1s364,584.35,951.48,136.09S3819.51.73,3819.51.73Z"/><path id="_Контур_46" data-name="&lt;Контур&gt;" class="cls-16" d="M2134.13,354.25c39.94,33,80.92,0,80.92,0v115s68.55-62.86,70.71-82.34,37.93-13,37.93-13-68.19,105-106.09,135.34c0,13-7.57,84.45,18.42,111.52a215.8,215.8,0,0,0,55.22,41.14s-41.14,6.5-71.46-8.66c-13.52,8.82-20,44-23.13,56-1.67,6.46-8.12,6.79-12,1.39,0,0-8-47.91-28.69-55.91h-11A58.29,58.29,0,0,0,2111,666l-33,24s0-31.34,36.77-80.06C2149.76,563.53,2126.78,342.57,2134.13,354.25Z"/><path id="_Контур_47" data-name="&lt;Контур&gt;" class="cls-16" d="M4026.71,94.17c-32,26.43-64.65,0-64.65,0v92s-54.91-50.28-56.64-65.87S3875,109.89,3875,109.89s54.53,84,84.84,108.26c0,10.39,6,67.56-14.74,89.21a172.6,172.6,0,0,1-44.18,32.91s32.91,5.2,57.16-6.93c10.82,7.05,16,35.19,18.51,44.82,1.34,5.17,6.5,5.53,9.64,1.22,0,0,6.44-38.62,23-44.62H4018a46.52,46.52,0,0,1,27.17,8.87l26.43,19.12s.07-25.09-29.38-64.07C4014.16,261.6,4032.59,84.82,4026.71,94.17Z"/><path id="_Контур_48" data-name="&lt;Контур&gt;" class="cls-3" d="M2073.35.76S1866,68.3,1915.65,276,2190,466.73,2190,466.73,2242.21,641.13,2475.19,649s304-264.6,304-264.6S3077,572,3451.68,530.88,3961.8,274.79,3886.82,138.3c0,0,459.57,275.18,737.5,46.42C4797.86,41.89,4778.11.76,4778.11.76Z"/><path id="_Контур_49" data-name="&lt;Контур&gt;" class="cls-17" d="M5143.75,300.25c-39.94,33-80.7,0-80.7,0v115s-68.77-62.86-70.93-82.34-38-13-38-13,68.14,105,106,135.34c0,13,7.54,84.45-18.44,111.52a215.73,215.73,0,0,1-55.24,41.14s41.13,6.5,71.45-8.66c13.52,8.82,20,44,23.13,56,1.67,6.46,8.12,6.79,12,1.39,0,0,8-47.91,28.69-55.91h11a58.29,58.29,0,0,1,34,11.22l33,24s.15-31.34-36.66-80.06C5128,509.53,5151.11,288.57,5143.75,300.25Z"/></g><g id="Слой_175" data-name="Слой 175"><path id="_Контур_50" data-name="&lt;Контур&gt;" class="cls-4" d="M2755,1043.48s150.56,48.06,285.16,35,266.4-23,230.7-74.29-295.63-55-335.38-45.92-136.78,15.49-162.92,25.63S2715.47,1032.61,2755,1043.48Z"/><g id="_Группа_8" data-name="&lt;Группа&gt;"><path id="_Контур_51" data-name="&lt;Контур&gt;" class="cls-7" d="M3036.1,752.32s3.08,50.88,10.87,75.81c-10.87,39.08-2.92,118.69-2.92,118.69l26.4-7.52,16.23-195.87Z"/><path id="_Контур_52" data-name="&lt;Контур&gt;" class="cls-7" d="M2907.42,904.66l91.17-57.22a23.44,23.44,0,0,0,10-14.77l17.68-85.38-51.41-8.17-.68,78.32s-39.71,25.51-73.1,61.91"/><ellipse id="_Контур_53" data-name="&lt;Контур&gt;" class="cls-7" cx="3041.62" cy="435.75" rx="50.35" ry="55.26"/><path id="_Контур_54" data-name="&lt;Контур&gt;" class="cls-18" d="M3102,601.26l-19.33-70.69-18.87-5.19-10,20.38s24,74,32.08,79.1S3148,637.57,3148,637.57l15.52,10.24,20.1-3.57,1-18.39-19.2-4.38-16.76-1.77Z"/><path id="_Контур_55" data-name="&lt;Контур&gt;" class="cls-10" d="M2998.78,649.24s-24.08,35.89-24.6,92c18.19,7.28,50.9,13,50.9,13l6.16-16.35,4.86,14.45,52.38-6.54-.79-82.56Z"/><path id="_Контур_56" data-name="&lt;Контур&gt;" class="cls-6" d="M3041.62,504.15s-30.74,10.75-40.32,33.75,2.1,85.36,2.1,85.36-5.6,19.37-9.28,29.37c70.52,45.47,92.93,17.44,92.93,17.44V591.2s10.8-19.95,4.93-41.06c-7.52-27.07-30-45.39-30-45.39Z"/><path id="_Контур_57" data-name="&lt;Контур&gt;" class="cls-7" d="M3043.91,609.22l-10.85-69.86a16.81,16.81,0,0,0-10.31-11.52h0a16.81,16.81,0,0,0-20.21,6.78L3001,537.1a16.81,16.81,0,0,0-1.73,14.21s21.15,76.87,27.17,82.3,57.68,26.76,57.68,26.76l21-5.6,6.84,5.6,11-11.14-16.5-15.51-27.24,3.61Z"/><path id="_Контур_58" data-name="&lt;Контур&gt;" class="cls-7" d="M3025.29,472.87l4.44,47.22s27.08,16.39,34.25,11.54,4-22,4-22l-17.82-40.77Z"/><path id="_Контур_59" data-name="&lt;Контур&gt;" class="cls-9" d="M3003,471.21s-27.16-13.53-10.6-59.71,73.93-28,73.93-28,31.32-4.15,43.27,19.2c-14,5.71-47.45,19.2-47.45,19.2l-7.53-3.63Z"/><path id="_Контур_60" data-name="&lt;Контур&gt;" class="cls-9" d="M3005.86,397s-5.82-26.46-48-11.93S2935,462,2892.3,476.31c26.22,17.44,54.46,16.41,72-18.63,13.22-26.47,20.81-50.61,33.48-49S3005.86,397,3005.86,397Z"/><circle id="_Контур_61" data-name="&lt;Контур&gt;" class="cls-7" cx="3027.61" cy="443.61" r="14.01"/><g id="_Группа_9" data-name="&lt;Группа&gt;"><path id="_Контур_62" data-name="&lt;Контур&gt;" class="cls-5" d="M3119.21,960.67s5.31,14.05-36.39,11.5-40.86.33-43.24-6.4Z"/><path id="_Контур_63" data-name="&lt;Контур&gt;" class="cls-6" d="M3070.69,936.42s-15.32,5.93-26.78,4.53c-6.64,8.41-4.34,24.82-4.34,24.82s65.51,7.17,76.48-1.21c7.41-5.24.72-12.84-6.55-14.33S3090.16,951.28,3070.69,936.42Z"/></g><path id="_Контур_64" data-name="&lt;Контур&gt;" class="cls-7" d="M2907.42,904.66"/><polyline id="_Контур_65" data-name="&lt;Контур&gt;" class="cls-7" points="2901.07 879.34 2895.2 898.42 2907.43 904.66"/><g id="_Группа_10" data-name="&lt;Группа&gt;"><path id="_Контур_66" data-name="&lt;Контур&gt;" class="cls-5" d="M2886.48,954.69s-13.66,6.24-13.91-35.54-3.07-40.75,3.49-43.58Z"/><path id="_Контур_67" data-name="&lt;Контур&gt;" class="cls-6" d="M2907.42,904.66s-6.95-14.89-6.31-26.42c-8.84-6.06-25.06-2.67-25.06-2.67s-2.77,65.84,6.33,76.23c5.73,7,12.86-.14,13.86-7.5S2893.9,925.08,2907.42,904.66Z"/></g><g id="_Группа_11" data-name="&lt;Группа&gt;"><circle id="_Контур_68" data-name="&lt;Контур&gt;" class="cls-10" cx="2935.52" cy="976.24" r="28.7"/><circle id="_Контур_69" data-name="&lt;Контур&gt;" class="cls-10" cx="3191.32" cy="976.24" r="28.7"/><line id="_Контур_70" data-name="&lt;Контур&gt;" class="cls-19" x1="3128.06" y1="666.44" x2="3165.46" y2="843.53"/><path id="_Контур_71" data-name="&lt;Контур&gt;" class="cls-6" d="M3177.24,931.5s-22.27,43.26-22.71,50.26H2937.71c-3.19,0-6.65-2.07-6.65-5.26v-.18c0-3.18,3-5.85,6.18-5.86l198.33-.93L3174.72,890Z"/><line id="_Контур_72" data-name="&lt;Контур&gt;" class="cls-20" x1="3164.3" y1="839" x2="3192.62" y2="976.24"/><path id="_Контур_73" data-name="&lt;Контур&gt;" class="cls-6" d="M2968,976.22a35.22,35.22,0,0,0-54.56-29.44,3.27,3.27,0,0,1-4.35-.75h0a3.27,3.27,0,0,1,.66-4.7A41.62,41.62,0,0,1,2975,973.05a42,42,0,0,1-.42,8.86l-6.83-1.69A35.59,35.59,0,0,0,2968,976.22Z"/><g id="_Группа_12" data-name="&lt;Группа&gt;"><rect id="_Прямоугольник_10" data-name="&lt;Прямоугольник&gt;" class="cls-10" x="3102.57" y="655.1" width="46.08" height="10.55" transform="translate(6319.34 734.81) rotate(169.41)"/><rect id="_Прямоугольник_11" data-name="&lt;Прямоугольник&gt;" class="cls-9" x="3072.82" y="657.37" width="38.53" height="18.14" rx="4.3" ry="4.3" transform="translate(6253.98 753.01) rotate(169.41)"/><rect id="_Прямоугольник_12" data-name="&lt;Прямоугольник&gt;" class="cls-9" x="3141.99" y="644.44" width="38.53" height="18.14" rx="4.3" ry="4.3" transform="translate(6388.77 714.63) rotate(169.41)"/></g></g></g></g><g id="Слой_75_копия2_" data-name="Слой 75 (копия2)"><g id="_Группа_13" data-name="&lt;Группа&gt;"><g id="_Группа_14" data-name="&lt;Группа&gt;"><path id="_Контур_74" data-name="&lt;Контур&gt;" class="cls-4" d="M4805.62,1010.2s-11-63.43-180.05-58.91-208.33,11-228.77,18.77-78.62,51.86,0,69.91,182.37-2.32,228.77,0S4752.16,1048.87,4805.62,1010.2Z"/><circle id="_Контур_75" data-name="&lt;Контур&gt;" class="cls-7" cx="4292.16" cy="683.8" r="53.8"/><path id="_Контур_76" data-name="&lt;Контур&gt;" class="cls-6" d="M4245.45,712.9l110.21-80.26a4.48,4.48,0,0,0,1-6.27h0a4.48,4.48,0,0,0-6.23-1l-23.19,14.56s-26.07-19-41.23-19.68-38.76,19.32-47.65,33S4225.87,685.83,4245.45,712.9Z"/><polygon id="_Контур_77" data-name="&lt;Контур&gt;" class="cls-7" points="4249.91 768.05 4167.25 792.36 4152.42 785.93 4141.59 802.03 4150.71 822.16 4172.95 808.77 4262.45 792.36 4249.91 768.05"/><polygon id="_Контур_78" data-name="&lt;Контур&gt;" class="cls-7" points="4349.7 741.5 4431.22 709.41 4438.64 694.8 4456.31 700.54 4450.61 719.9 4433.5 723.38 4356.39 764.24 4349.7 741.5"/><path id="_Контур_79" data-name="&lt;Контур&gt;" class="cls-4" d="M4501.62,1030.2s-11-63.43-180.05-58.91-208.33,11-228.77,18.77-78.62,51.86,0,69.91,182.37-2.32,228.77,0S4448.16,1068.87,4501.62,1030.2Z"/><path id="_Контур_80" data-name="&lt;Контур&gt;" class="cls-13" d="M4372.4,849.94l-2.66,116.73,13.35,7.14a9.43,9.43,0,0,1,5,8.36v4.25l-53,1-5.42-106.62-52.92,84.74,12.7,7.62a10.92,10.92,0,0,1,5.29,9.77l-.17,4.49-57.86-.09,2.13-21.83,35.69-105.39Z"/><circle id="_Контур_81" data-name="&lt;Контур&gt;" class="cls-7" cx="4272.96" cy="692.26" r="13.06"/><polygon id="_Контур_82" data-name="&lt;Контур&gt;" class="cls-7" points="4281.26 731.26 4292.75 759.75 4319 763.05 4321.57 747.15 4311.94 724.83 4281.26 731.26"/><path id="_Контур_83" data-name="&lt;Контур&gt;" class="cls-10" d="M4245.32,767.86s61.6-32.42,109.49-30.27c1.14-.13,15.39,35.81,15.39,35.81l-10.91,5.87,13.76,73.92s-73,28-104.33,12c3.42-19.42-1.71-61.38-1.71-61.38l-9.69,2.63Z"/><g id="_Группа_15" data-name="&lt;Группа&gt;"><circle id="_Контур_84" data-name="&lt;Контур&gt;" class="cls-10" cx="4203.12" cy="992.64" r="25.3"/><circle id="_Контур_85" data-name="&lt;Контур&gt;" class="cls-10" cx="4428.63" cy="992.64" r="25.3"/><line id="_Контур_86" data-name="&lt;Контур&gt;" class="cls-14" x1="4385.1" y1="775.46" x2="4405.83" y2="875.64"/><path id="_Контур_87" data-name="&lt;Контур&gt;" class="cls-6" d="M4416.21,953.33s-19.63,37.43-20,44.43H4205.05c-2.81,0-6-2.08-6-4.89v-.16c0-2.8,2.72-5.15,5.52-5.17l174.87-.82,34.53-70Z"/><line id="_Контур_88" data-name="&lt;Контур&gt;" class="cls-15" x1="4404.81" y1="871.65" x2="4429.77" y2="992.64"/><path id="_Контур_89" data-name="&lt;Контур&gt;" class="cls-6" d="M4231.75,992.62a31,31,0,0,0-48.1-26,2.88,2.88,0,0,1-3.84-.66h0a2.88,2.88,0,0,1,.58-4.14,36.69,36.69,0,0,1,57.54,28,37.05,37.05,0,0,1-.37,7.81l-6-1.49A31.37,31.37,0,0,0,4231.75,992.62Z"/><g id="_Группа_16" data-name="&lt;Группа&gt;"><rect id="_Прямоугольник_13" data-name="&lt;Прямоугольник&gt;" class="cls-10" x="4364.7" y="769.01" width="40.62" height="9.3" transform="translate(8837.51 727.9) rotate(169.41)"/><rect id="_Прямоугольник_14" data-name="&lt;Прямоугольник&gt;" class="cls-6" x="4338.47" y="771.02" width="33.97" height="15.99" rx="3.79" ry="3.79" transform="translate(8779.9 743.94) rotate(169.41)"/><rect id="_Прямоугольник_15" data-name="&lt;Прямоугольник&gt;" class="cls-6" x="4399.46" y="759.61" width="33.97" height="15.99" rx="3.79" ry="3.79" transform="translate(8898.72 710.11) rotate(169.41)"/></g></g></g><g id="_Группа_17" data-name="&lt;Группа&gt;"><path id="_Контур_90" data-name="&lt;Контур&gt;" class="cls-5" d="M4642.28,954.22s4.74,12.55-32.51,10.27-36.51.3-38.64-5.72Z"/><path id="_Контур_91" data-name="&lt;Контур&gt;" class="cls-10" d="M4605.28,930.33s-22.55,7.38-32.78,6.13c-5.94,7.52-1.37,22.32-1.37,22.32s58.53,6.41,68.33-1.08c6.62-4.69.64-11.47-5.86-12.81S4622.67,943.61,4605.28,930.33Z"/></g><g id="_Группа_18" data-name="&lt;Группа&gt;"><path id="_Контур_92" data-name="&lt;Контур&gt;" class="cls-5" d="M4483,986.66s-8.93,10-24.18-24-17.18-32.21-12.84-36.89Z"/><path id="_Контур_93" data-name="&lt;Контур&gt;" class="cls-10" d="M4487.06,942.8s-17-16.56-20.63-26.21c-9.41-1.78-20.41,9.13-20.41,9.13s21.45,54.83,32.63,60c7.22,3.69,10.46-4.75,8.63-11.12S4483.36,964.37,4487.06,942.8Z"/></g><path id="_Контур_94" data-name="&lt;Контур&gt;" class="cls-21" d="M4644.79,716.89l-32.15,216.54s-17.8,8.07-43.19,8.5c.7-19.71,14.06-166,14.06-166l-95.24,166s-26.64-6.09-36.18-23.54c2.94-6.71,27.77-40.42,40.55-79.46,17.39-53.11,38.78-104.17,38.78-104.17Z"/><polygon id="_Контур_95" data-name="&lt;Контур&gt;" class="cls-7" points="4550.6 589.75 4500.13 658.61 4454.45 687.76 4436.05 687.76 4436.05 718.76 4461.21 718.76 4470.43 702.42 4517.62 675.88 4560.25 629.4 4550.6 589.75"/><path id="_Контур_96" data-name="&lt;Контур&gt;" class="cls-7" d="M4654.94,618.92a156.44,156.44,0,0,0,19.37,40.79c13.6,20.07,31.8,24.55,31.8,24.55l10.18,24.64L4702,721.28l-25-13.26v-15.2s-26.82-20.52-29.5-30.18c-1-3.44-6.61-8.82-7.85-14.36-2.24-10,0-20.53,0-20.53Z"/><path id="_Контур_97" data-name="&lt;Контур&gt;" class="cls-6" d="M4559.39,577.22s-35.92,21.29-41.1,57c0,0,18.09,27.26,20.23,35.84.46,1.87,6.15-1.74,6.15,0,0,11.87-7,52.78-13.24,64.67,35.4,1.49,92.38,2.05,116.12-8.35-7.79-49.55-8.58-82.82-8.58-82.82l21.79-14.06s-21.06-53.29-63.34-56.6C4566.57,570.52,4559.39,577.22,4559.39,577.22Z"/><path id="_Контур_98" data-name="&lt;Контур&gt;" class="cls-7" d="M4555.25,541.81l1.17,39.12,25.39,14.38a9.87,9.87,0,0,0,14.72-8l.89-14.4-11.12-31.37Z"/><g id="_Группа_19" data-name="&lt;Группа&gt;"><path id="_Контур_99" data-name="&lt;Контур&gt;" class="cls-7" d="M4519.19,524.9c7.2,29.7,29.2,49.86,58.67,42.71s47.52-37,40.32-66.71-36.92-48-66.39-40.84S4512,495.2,4519.19,524.9Z"/><path id="_Контур_100" data-name="&lt;Контур&gt;" class="cls-6" d="M4619.29,521.28s-55.14-37-100.28-29.74c-24.92,4-37.47,5.85-43.71,6.7a5.42,5.42,0,0,1-6.15-5.22h0a5.42,5.42,0,0,1,4.93-5.56l47.44-7.26s6.64-28,23.23-34.44,58.44,10,64.53,18.71S4624.25,481.47,4619.29,521.28Z"/><circle id="_Контур_101" data-name="&lt;Контур&gt;" class="cls-7" cx="4595.02" cy="509.69" r="13.38" transform="translate(9.24 1096.73) rotate(-13.62)"/></g><g id="_Группа_20" data-name="&lt;Группа&gt;"><circle id="_Контур_102" data-name="&lt;Контур&gt;" class="cls-5" cx="4522.17" cy="969.43" r="29.53"/><circle id="_Контур_103" data-name="&lt;Контур&gt;" class="cls-6" cx="4522.11" cy="969.49" r="22.56"/><circle id="_Контур_104" data-name="&lt;Контур&gt;" class="cls-5" cx="4709.2" cy="969.43" r="29.53"/><circle id="_Контур_105" data-name="&lt;Контур&gt;" class="cls-6" cx="4709.14" cy="969.49" r="22.56"/><path id="_Контур_106" data-name="&lt;Контур&gt;" class="cls-10" d="M4699.07,925.33l-35.85,48.43h-140.4a4.66,4.66,0,0,1-4.77-4.44v0a4.62,4.62,0,0,1,4.63-4.51l125.75-.68.25-7a13.13,13.13,0,0,1,4.43-9.54c3-2.57,7.53-4.45,13.86-1.64,2.07-2.54,29.94-38.19,29.94-38.19Z"/><line id="_Контур_107" data-name="&lt;Контур&gt;" class="cls-22" x1="4674.92" y1="793.85" x2="4703.28" y2="933.72"/><line id="_Контур_108" data-name="&lt;Контур&gt;" class="cls-23" x1="4658.34" y1="713.88" x2="4674.31" y2="790.83"/><rect id="_Прямоугольник_16" data-name="&lt;Прямоугольник&gt;" class="cls-5" x="4664.09" y="786.19" width="20.43" height="11.77" rx="5.06" ry="5.06" transform="translate(9414.55 710.52) rotate(169.4)"/><rect id="_Прямоугольник_17" data-name="&lt;Прямоугольник&gt;" class="cls-5" x="4686.66" y="893.24" width="20.43" height="11.77" rx="5.06" ry="5.06" transform="translate(9479 918.64) rotate(169.4)"/><path id="_Контур_109" data-name="&lt;Контур&gt;" class="cls-10" d="M4707.4,927.72l-8.44,2.09a4,4,0,0,0-3,4.91l9.14,36.59a5.65,5.65,0,0,0,6.11,4.25h0a5.65,5.65,0,0,0,5-5.52l-5.36-39.92A2.86,2.86,0,0,0,4707.4,927.72Z"/><path id="_Контур_110" data-name="&lt;Контур&gt;" class="cls-10" d="M4554.19,968.85a32.83,32.83,0,0,0-50.85-27.44,3,3,0,0,1-4.06-.7h0a3,3,0,0,1,.61-4.38,38.79,38.79,0,0,1,60.83,29.57,39.17,39.17,0,0,1-.39,8.26l-6.36-1.57A33.17,33.17,0,0,0,4554.19,968.85Z"/><g id="_Группа_21" data-name="&lt;Группа&gt;"><rect id="_Прямоугольник_18" data-name="&lt;Прямоугольник&gt;" class="cls-10" x="4640.15" y="708.14" width="36.21" height="8.29" transform="translate(9368.06 555.95) rotate(169.41)"/><rect id="_Прямоугольник_19" data-name="&lt;Прямоугольник&gt;" class="cls-10" x="4616.77" y="709.92" width="30.28" height="14.25" rx="3.38" ry="3.38" transform="translate(9316.7 570.25) rotate(169.41)"/><rect id="_Прямоугольник_20" data-name="&lt;Прямоугольник&gt;" class="cls-10" x="4671.13" y="699.76" width="30.28" height="14.25" rx="3.38" ry="3.38" transform="translate(9422.63 540.09) rotate(169.41)"/></g></g></g></g></g></g></svg>