<svg xmlns="http://www.w3.org/2000/svg" viewBox="0 0 5284.17 1113.12"><defs><style>.cls-1{fill:#f8f4dc;}.cls-2{fill:#0090ad;}.cls-3{fill:#448faa;}.cls-4{fill:#142d75;}.cls-5{fill:#33dcd9;}.cls-6{fill:#47c7be;}.cls-17,.cls-7{fill:none;stroke-linecap:round;stroke-linejoin:round;stroke-width:14px;}.cls-7{stroke:#0090ad;}.cls-8{fill:#223c92;}.cls-9{fill:#ffb8bb;}.cls-10{fill:#00c8f6;}.cls-11{fill:#ffefae;}.cls-12{fill:#ff5365;}.cls-13{fill:#f4efd0;}.cls-14{fill:#152d72;}.cls-15{fill:#00d3cf;}.cls-16{fill:#5fdde0;}.cls-17{stroke:#00d3cf;}.cls-18{fill:#50c9dd;}.cls-19{fill:#f27083;}.cls-20{fill:#494949;}.cls-21{fill:#230206;}</style></defs><title>skeit</title><g id="Слой_2" data-name="Слой 2"><g id="Слой_153_копия_" data-name="Слой 153 (копия)"><g id="Слой_141_копия_" data-name="Слой 141 (копия)"><rect id="_Прямоугольник_" data-name="&lt;Прямоугольник&gt;" class="cls-1" x="0.05" width="5284" height="1106"/></g><g id="Слой_29_копия2_" data-name="Слой 29 (копия2)"><path id="_Контур_" data-name="&lt;Контур&gt;" class="cls-2" d="M2027.67,251.7,973.72,600s554.13,455,1053.79,115.76c0,0,377.09,126.25,763.57-219.69,7.45-157,7.48-245.67,7.48-245.67Z" transform="translate(0 -250.43)"/><path id="_Контур_2" data-name="&lt;Контур&gt;" class="cls-3" d="M2493,55.73" transform="translate(0 -250.43)"/><path id="_Контур_3" data-name="&lt;Контур&gt;" class="cls-3" d="M2481.39,55.73" transform="translate(0 -250.43)"/><path id="_Контур_4" data-name="&lt;Контур&gt;" class="cls-3" d="M2487.42,55.73" transform="translate(0 -250.43)"/><path id="_Контур_5" data-name="&lt;Контур&gt;" class="cls-4" d="M77.29,498.43h80.76V613.79s68.59-62.86,70.75-82.34,38-13,38-13-68.18,105-106.08,135.34c0,13-7.56,84.45,18.42,111.52a215.79,215.79,0,0,0,55.23,41.14s-41.14,6.5-71.46-8.66c-13.52,8.82-20,44-23.13,56-1.67,6.46-8.12,6.85-12,1.46,0,0-8-47.85-28.69-55.85H88a58.22,58.22,0,0,0-34,11.15L21,834.51S21,803,57.85,754.26C92.88,707.9,77.29,498.43,77.29,498.43Z" transform="translate(0 -250.43)"/><path id="_Контур_6" data-name="&lt;Контур&gt;" class="cls-3" d="M2321.55,0" transform="translate(0 -250.43)"/><path id="_Контур_7" data-name="&lt;Контур&gt;" class="cls-5" d="M5284.05,250.43H.05L0,599.34s48.61-8.44,101.48-44.07C169.95,670.44,381.66,769.49,517,794.87c414.58,77.77,769.94-225.81,769.94-251.7s540.14,95.25,770.14-134.25v8.5s-1.7,101.82,145.08,166.26,262.57-72.17,262.57-72.17,511.55,231.11,914.07-175.21C3521.06,485,3794.85,747,4216.39,716.62a1052.49,1052.49,0,0,0,187.44-30.77c119.25,202.47,408.91,395.09,880.35,261.23C5284.17,693.26,5284.05,250.43,5284.05,250.43Z" transform="translate(0 -250.43)"/><polygon id="_Контур_8" data-name="&lt;Контур&gt;" class="cls-6" points="411.39 1106.07 0.05 849.62 0.05 1106.09 411.39 1106.07"/><path id="_Контур_9" data-name="&lt;Контур&gt;" class="cls-6" d="M1422.14,1356.43l244-99.86a185,185,0,0,1,68.46-13.76l292.86-2.61.16,116.24Z" transform="translate(0 -250.43)"/><path id="_Контур_10" data-name="&lt;Контур&gt;" class="cls-2" d="M282.13,622.92c39.94,33,80.92,0,80.92,0v115s68.55-62.86,70.71-82.34,37.93-13,37.93-13-68.19,105-106.09,135.34c0,13-7.57,84.45,18.42,111.52a215.8,215.8,0,0,0,55.22,41.14s-41.14,6.5-71.46-8.66c-13.52,8.82-20,44-23.13,56-1.67,6.46-8.12,6.79-12,1.39,0,0-8-47.91-28.69-55.91H293a58.29,58.29,0,0,0-34,11.22l-33,24s0-31.34,36.77-80.06C297.76,832.19,274.77,611.23,282.13,622.92Z" transform="translate(0 -250.43)"/><polyline id="_Контур_11" data-name="&lt;Контур&gt;" class="cls-7" points="1206.05 810 1206.05 651.09 1860.05 655.75 1860.05 810"/><rect id="_Прямоугольник_2" data-name="&lt;Прямоугольник&gt;" class="cls-8" x="1169.05" y="633" width="739" height="37" rx="12" ry="12"/><path id="_Контур_12" data-name="&lt;Контур&gt;" class="cls-9" d="M1446.22,595.52s56.53,5.71,72,9.37,43.92,13.83,43.92,13.83l25-2,16.11,23.59-8.95,14.64-46-10.57-6.91-10.57s-57.75-15.47-98.82-8.55C1439.31,611.39,1446.22,595.52,1446.22,595.52Z" transform="translate(0 -250.43)"/><path id="_Контур_13" data-name="&lt;Контур&gt;" class="cls-10" d="M1261.94,706.44s-10.9,47.14,22.62,65.6,53.94,23.64,53.94,23.64l8.47,65.64,53.59-12.09-11-71.26a28.24,28.24,0,0,0-16.27-21.41l-22.35-10.11,95,2.59,33.68,57,42.9-15.12s-15.48-65-43.11-83.12-132.4-5.31-132.4-5.31Z" transform="translate(0 -250.43)"/><path id="_Контур_14" data-name="&lt;Контур&gt;" class="cls-9" d="M1269,562.45S1222,535.9,1190.9,531.56s-70.92,8.86-70.92,8.86h-22.12l-9,22.41,20,15.4,23.37-15.65s37.59-11.33,58.56-6.1S1256.61,600,1256.61,600Z" transform="translate(0 -250.43)"/><path id="_Контур_15" data-name="&lt;Контур&gt;" class="cls-11" d="M1365.77,583.68s60-3.5,83.86,11.83c-4.34,14.61,0,44.25,0,44.25s-45.35-2.17-49.06,12.29,7.13,47,7.13,47-43.38,2.21-147.47,15.89c6.51-30.36,16.21-99.25,16.21-99.25s-22-8.47-32.11-7c2.89-10.12,14.46-32.88,12.29-52.22,12.29,3.07,79.26,19.53,79.26,19.53Z" transform="translate(0 -250.43)"/><path id="_Контур_16" data-name="&lt;Контур&gt;" class="cls-9" d="M1284.56,562.51c0,28.16,39,51,67.13,51s38.27-23,34.86-51c-3.94-32.36-22.83-51-51-51A51,51,0,0,0,1284.56,562.51Z" transform="translate(0 -250.43)"/><path id="_Контур_17" data-name="&lt;Контур&gt;" class="cls-8" d="M1393.4,550.4c-21.65.77-73.46,5.36-98.57,31.15a7.18,7.18,0,0,1-11.58-1.94c-9.69-20.39-15.12-61.29,27.4-77.69,45.76-17.65,77.34,7.64,89.41,38.38A7.42,7.42,0,0,1,1393.4,550.4Z" transform="translate(0 -250.43)"/><path id="_Составной_контур_" data-name="&lt;Составной контур&gt;" class="cls-10" d="M1288.94,569.19l20.52,24.55a4.94,4.94,0,0,0,3.79,1.77h0a5.67,5.67,0,0,0,5.55-4.53l7-34.53Zm13.29,5.85,14.19-7.29-3.57,20.66Z" transform="translate(0 -250.43)"/><path id="_Контур_18" data-name="&lt;Контур&gt;" class="cls-12" d="M1563.93,745c-1.57-3.14-8.81-3.5-11.89-.84S1353.2,865,1308.22,867.94c-23.86,1.58-22.94,68.05.47,74.08,18.88,4.86,247.79-111.65,256.65-135.48C1575.68,778.73,1570.29,757.78,1563.93,745Z" transform="translate(0 -250.43)"/><rect id="_Прямоугольник_3" data-name="&lt;Прямоугольник&gt;" class="cls-5" x="1513.14" y="782.92" width="25.9" height="24.02" rx="3.6" ry="3.6" transform="translate(3245.78 603.81) rotate(154.46)"/><rect id="_Прямоугольник_4" data-name="&lt;Прямоугольник&gt;" class="cls-5" x="1519.13" y="818.14" width="25.9" height="24.02" rx="3.6" ry="3.6" transform="translate(3272.36 668.24) rotate(154.46)"/><rect id="_Прямоугольник_5" data-name="&lt;Прямоугольник&gt;" class="cls-5" x="1344.4" y="874.15" width="25.9" height="24.02" rx="3.6" ry="3.6" transform="translate(2964.13 850.12) rotate(154.46)"/><rect id="_Прямоугольник_6" data-name="&lt;Прямоугольник&gt;" class="cls-5" x="1350.39" y="909.38" width="25.9" height="24.02" rx="3.6" ry="3.6" transform="translate(2990.71 914.56) rotate(154.46)"/><path id="_Контур_19" data-name="&lt;Контур&gt;" class="cls-13" d="M1430.93,1012.24c-17-1.2-62.52-11.49-128.7,48.28s-94,13.77-123.27,53.28,18,109.61,110,97.43,165.59-37.9,221.49-53,270.74-138.64,137.92-159.43S1430.93,1012.24,1430.93,1012.24Z" transform="translate(0 -250.43)"/><rect id="_Прямоугольник_7" data-name="&lt;Прямоугольник&gt;" class="cls-13" x="1170.05" y="810" width="712" height="40" rx="12" ry="12"/><path id="_Контур_20" data-name="&lt;Контур&gt;" class="cls-13" d="M591.52,1235.15s-128.06-43.31-196,12,72.83,89.07,72.83,89.07,91.16-15.24,141.08-17.78S778.1,1348,784.78,1296.38,591.52,1235.15,591.52,1235.15Z" transform="translate(0 -250.43)"/><circle id="_Контур_21" data-name="&lt;Контур&gt;" class="cls-14" cx="696.81" cy="1271.2" r="11.98" transform="translate(-400.79 73.79) rotate(-20.48)"/><circle id="_Контур_22" data-name="&lt;Контур&gt;" class="cls-14" cx="549.09" cy="1268.79" r="11.98" transform="translate(-409.28 21.94) rotate(-20.48)"/><rect id="_Прямоугольник_8" data-name="&lt;Прямоугольник&gt;" class="cls-8" x="494.05" y="1212.59" width="259.73" height="57.91" rx="28.54" ry="28.54" transform="translate(1231.09 2240.93) rotate(-179.23)"/><path id="_Контур_23" data-name="&lt;Контур&gt;" class="cls-9" d="M661.55,998.81l43.38,57.28,6.22,2.24a7.31,7.31,0,0,1,4.77,5.92l1.25,9.39a5.26,5.26,0,0,1-4.27,5.86l-8.14,1.48a6.74,6.74,0,0,1-7.36-3.87l-6.61-14.78-50.1-42.5Z" transform="translate(0 -250.43)"/><path id="_Контур_24" data-name="&lt;Контур&gt;" class="cls-9" d="M590.79,920c0-26.28,16-47.59,35.83-47.59s35.83,21.31,35.83,47.59c0,20.85-10.1,38.56-24.16,45l5,47.22s-22.38-33-35.33-31.6c1.39-4.87,1.5-12.45,1.24-19C598.23,953.52,590.79,937.93,590.79,920Z" transform="translate(0 -250.43)"/><g id="_Группа_" data-name="&lt;Группа&gt;"><path id="_Контур_25" data-name="&lt;Контур&gt;" class="cls-15" d="M684.68,1242.15s4.53,11.3-29.3,9.9-33.1.92-35.14-4.5Z" transform="translate(0 -250.43)"/><path id="_Контур_26" data-name="&lt;Контур&gt;" class="cls-12" d="M650.7,1221.15s-20.31,7.1-29.62,6.14c-5.25,6.92-.84,20.26-.84,20.26s53.19,4.77,61.94-2.2c5.92-4.37.38-10.41-5.54-11.51S666.71,1232.88,650.7,1221.15Z" transform="translate(0 -250.43)"/></g><g id="_Группа_2" data-name="&lt;Группа&gt;"><path id="_Контур_27" data-name="&lt;Контур&gt;" class="cls-15" d="M549.78,1257.64s-8,8.24-19.77-21.53-13.46-28.25-9.56-32.09Z" transform="translate(0 -250.43)"/><path id="_Контур_28" data-name="&lt;Контур&gt;" class="cls-12" d="M554.93,1220.24S541,1205.4,538.28,1197c-8-1.89-17.83,7-17.83,7s16.24,47.79,25.61,52.69c6,3.44,9.14-3.66,7.83-9.19S550.92,1238.57,554.93,1220.24Z" transform="translate(0 -250.43)"/></g><path id="_Контур_29" data-name="&lt;Контур&gt;" class="cls-16" d="M668.1,1088.47S661,1210.54,658,1223.84c-6.78,11.31-39.49,7.52-39.49,7.52L625,1129.58,600,1185l-45.12,40.8s-22.64-.81-30.11-25l46.54-38.55,10.55-69.32Z" transform="translate(0 -250.43)"/><path id="_Контур_30" data-name="&lt;Контур&gt;" class="cls-10" d="M667.21,1017.35l2.74,76.22c-10.88,9.08-10.57,13.07-89.24,6.48-.72-21.59,0-69.81,0-69.81l-9.36-18s10.8-32.39,43.9-32.39c32.08,0,28.23.07,57.29,28.56C674,1009.88,667.21,1017.35,667.21,1017.35Z" transform="translate(0 -250.43)"/><path id="_Контур_31" data-name="&lt;Контур&gt;" class="cls-9" d="M598.52,1022.56c-19-1.29-24.69-15.32-24.69-15.32L538.32,1083l-8.15,8.9a8.19,8.19,0,0,0-1.43,8.89l4.58,10.2a4.82,4.82,0,0,0,6.88,2.15l14.41-8.68a6.26,6.26,0,0,0,3-6.13l-1.16-9.41,14.49-29S602.9,1023,598.52,1022.56Z" transform="translate(0 -250.43)"/><path id="_Контур_32" data-name="&lt;Контур&gt;" class="cls-8" d="M678.87,902.06s-28.94,26.91-96,36.05c-2.69,3.19-19.43-20.15,0-48.22s54-32,76.29-17.46S678.87,902.06,678.87,902.06Z" transform="translate(0 -250.43)"/><polygon id="_Контур_33" data-name="&lt;Контур&gt;" class="cls-8" points="632.05 666.63 632.05 702.26 612.89 697.46 599.05 673.2 632.05 666.63"/><g id="_Группа_3" data-name="&lt;Группа&gt;"><polyline id="_Контур_34" data-name="&lt;Контур&gt;" class="cls-17" points="2894.05 465 2894.05 588 3284.05 588 3284.05 465"/><polyline id="_Контур_35" data-name="&lt;Контур&gt;" class="cls-3" points="5068.41 1105.87 4441.05 203 4074.05 203 4053.51 921.01 2850.76 556.39 2286.92 1106 2978.6 1113"/><path id="_Контур_36" data-name="&lt;Контур&gt;" class="cls-18" d="M2849.76,805.12s144.61,604.72,863.57,555.58,744.11-735.27,735.22-907.27h-382.5s68.41,512.18-423,512.18c-144.6,0-237.76-66.87-297.24-158.61Z" transform="translate(0 -250.43)"/><rect id="_Прямоугольник_9" data-name="&lt;Прямоугольник&gt;" class="cls-3" x="2807.05" y="431" width="586" height="47" rx="23.26" ry="23.26"/></g><path id="_Контур_37" data-name="&lt;Контур&gt;" class="cls-3" d="M3778.28,1124.08c-75.2,34.59,9.2,62.25,75.67,54.76s304.47-120.08,300.29-156.44S3870.26,1081.78,3778.28,1124.08Z" transform="translate(0 -250.43)"/></g><g id="Слой_163" data-name="Слой 163"><path id="_Контур_38" data-name="&lt;Контур&gt;" class="cls-8" d="M3711.41,1031.61c2.56.5,7.8,8,20.19,7.41,12.19-.61,387.23-49.34,387.23-49.34s17.27-4.53,20.49-12.59,11.64-9.33,13.33-1.7-3.8,26.15-31.07,30.34S3733,1055.24,3733,1055.24s-19.41,1.22-24.3-11.68C3704.24,1031.92,3709.35,1031.2,3711.41,1031.61Z" transform="translate(0 -250.43)"/><circle id="_Контур_39" data-name="&lt;Контур&gt;" class="cls-8" cx="3782.89" cy="820.37" r="19.9"/><circle id="_Контур_40" data-name="&lt;Контур&gt;" class="cls-8" cx="4072.33" cy="782.56" r="19.9"/><path id="_Контур_41" data-name="&lt;Контур&gt;" class="cls-9" d="M3813.64,648.22s-73.14-27.8-142.3,18.2h-19.86a10.08,10.08,0,0,0-9.45,6.78l-4.65,14.17a12.21,12.21,0,0,0,4.67,14.47v0c3,2.59,7.85,2.84,11.56.63l28.85-17.22s74.58-29.68,125.08-7.72Z" transform="translate(0 -250.43)"/><path id="_Контур_42" data-name="&lt;Контур&gt;" class="cls-9" d="M3932.62,648.31l5.49,30.35s70.26-19.76,109.78,22c0,2.6,3.95,8.16,8.1,13.29a12.21,12.21,0,0,0,18.67.34l4.07-4.66a16.3,16.3,0,0,0-.44-22l-22.66-11.78S4012.76,635.52,3932.62,648.31Z" transform="translate(0 -250.43)"/><path id="_Контур_43" data-name="&lt;Контур&gt;" class="cls-9" d="M3916,586.93c0-29.21-21.55-52.9-48.12-52.9s-48.12,23.68-48.12,52.9c0,22.43,12.71,41.58,30.63,49.28a8.6,8.6,0,0,1-4.28,7.19c-6.24,3.76,4.3,36.7,4.3,36.7l41.52-14.87-1.76-21.92a64.18,64.18,0,0,1-.33-9.62C3903.79,624.41,3916,606.14,3916,586.93Z" transform="translate(0 -250.43)"/><path id="_Контур_44" data-name="&lt;Контур&gt;" class="cls-8" d="M3846.12,643.4s-25-10.52-49.81-1.09c-4.87,22.92-3.75,49.4-.15,53.36s22.75,5.82,22.75,5.82L3802,809.3s61.48,29.64,130.64,0c6.59-29.64-7.27-111.62-7.27-111.62s12.18,1.12,16.05-2.64,8.75-39.68-8.78-51.73c-5.14-11-42.44,0-42.44,0s-11.56,28-28.09,24.74S3846.12,643.4,3846.12,643.4Z" transform="translate(0 -250.43)"/><path id="_Контур_45" data-name="&lt;Контур&gt;" class="cls-19" d="M3823.67,567.61s0-22,6.83-30.19c9.32-11.14,32.54-18,69.87-7.76S3912.53,605,3912.53,605s-1.15-23.14-31.91-28.26S3823.67,567.61,3823.67,567.61Z" transform="translate(0 -250.43)"/><path id="_Контур_46" data-name="&lt;Контур&gt;" class="cls-12" d="M3809.28,582.29s26.19-10.2,58,11.64c3.24-5.7,14.19-20.69,14.19-20.69s-27.64-23-57.73-8.86Z" transform="translate(0 -250.43)"/><path id="_Контур_47" data-name="&lt;Контур&gt;" class="cls-9" d="M3900.95,592.62s7.84-14.52,16.17-7.23,6.06,15.28-3,21.67S3900.95,592.62,3900.95,592.62Z" transform="translate(0 -250.43)"/><g id="_Группа_4" data-name="&lt;Группа&gt;"><path id="_Контур_48" data-name="&lt;Контур&gt;" class="cls-20" d="M4060.19,989.35s7.21,14.47-37.71,16.26-43.71,4.79-47-2.15Z" transform="translate(0 -250.43)"/><path id="_Контур_49" data-name="&lt;Контур&gt;" class="cls-21" d="M4007.13,966.68s-20.3,10.13-32.72,9.87c-6.2,9.73,1.08,26.91,1.08,26.91s70.91.56,81.75-9.6c7.36-6.42-.62-13.82-8.57-14.63S4029.59,980.47,4007.13,966.68Z" transform="translate(0 -250.43)"/></g><g id="_Группа_5" data-name="&lt;Группа&gt;"><path id="_Контур_50" data-name="&lt;Контур&gt;" class="cls-20" d="M3916.2,1009.71s7.21,14.47-37.71,16.26-43.71,4.79-47-2.15Z" transform="translate(0 -250.43)"/><path id="_Контур_51" data-name="&lt;Контур&gt;" class="cls-21" d="M3869,985.59s-26.12,11.59-38.54,11.33c-6.2,9.73,1.08,26.91,1.08,26.91s70.91.56,81.75-9.6c7.36-6.42-.62-13.82-8.57-14.63S3891.41,999.38,3869,985.59Z" transform="translate(0 -250.43)"/></g><path id="_Контур_52" data-name="&lt;Контур&gt;" class="cls-12" d="M3805.93,798.93s-16.67,46.81,4.77,75.94,33.59,45,33.59,45l-14.56,80.52,39.05-11.19s30-58.6,29.4-70.93-9.92-55.35-9.92-55.35,51.68,14.55,67.22,40.77,17,77.22,17,77.22l35-11.64s13.15-60.92,1.72-92-80.69-69.62-80.69-69.62Z" transform="translate(0 -250.43)"/></g></g></g></svg>