<svg id="index-workflow__background" data-name="Слой 1" xmlns="http://www.w3.org/2000/svg" xmlns:xlink="http://www.w3.org/1999/xlink" viewBox="0 0 4850.3 3895.9"><defs><style>.cls-1,.cls-12,.cls-19,.cls-20,.cls-21,.cls-22,.cls-23,.cls-24,.cls-30,.cls-31,.cls-37,.cls-38,.cls-40,.cls-41,.cls-42,.cls-48,.cls-51,.cls-52,.cls-53,.cls-54,.cls-55,.cls-56,.cls-57,.cls-59,.cls-65,.cls-66,.cls-67,.cls-68,.cls-69,.cls-70,.cls-8{fill:none;}.cls-2{clip-path:url(#clip-path);}.cls-3{fill:#f7f4dc;}.cls-4{fill:#7dc6bd;}.cls-5{fill:#efead0;}.cls-6{fill:#f4ecdc;}.cls-7{fill:#e5ddcc;}.cls-8{stroke:#00d3cf;}.cls-12,.cls-20,.cls-22,.cls-24,.cls-31,.cls-38,.cls-40,.cls-41,.cls-55,.cls-56,.cls-57,.cls-65,.cls-69,.cls-70,.cls-8{stroke-linecap:round;stroke-linejoin:round;}.cls-21,.cls-53,.cls-57,.cls-8{stroke-width:14px;}.cls-9{fill:#448faa;}.cls-10{fill:#50c9dd;}.cls-11{fill:#82dbd8;}.cls-12,.cls-20,.cls-22,.cls-40{stroke:#ffefae;}.cls-12,.cls-38,.cls-41{stroke-width:9.14px;}.cls-13{fill:#e8e4cd;}.cls-14{fill:#6fbcb1;}.cls-15{fill:#0a2570;}.cls-16{fill:#223c92;}.cls-17{fill:#112560;}.cls-18{fill:#193172;}.cls-19,.cls-24,.cls-55,.cls-56,.cls-69,.cls-70{stroke:#ff5365;}.cls-19,.cls-21,.cls-23,.cls-30,.cls-37,.cls-42,.cls-48,.cls-51,.cls-52,.cls-53,.cls-54,.cls-59,.cls-66,.cls-67,.cls-68{stroke-miterlimit:10;}.cls-19,.cls-68{stroke-width:16.28px;}.cls-20,.cls-69{stroke-width:14.25px;}.cls-21,.cls-37,.cls-41,.cls-57{stroke:#00c8f6;}.cls-22,.cls-54{stroke-width:12.25px;}.cls-23,.cls-30,.cls-31,.cls-38,.cls-42,.cls-48,.cls-51,.cls-52,.cls-53,.cls-54,.cls-59,.cls-65,.cls-68{stroke:#223c92;}.cls-23{stroke-width:14.16px;}.cls-24{stroke-width:12.39px;}.cls-25{fill:#ffe3e5;}.cls-26{fill:#00c8f6;}.cls-27{fill:#ff5365;}.cls-28{fill:#fff;}.cls-29{fill:#0f847e;}.cls-30,.cls-31{stroke-width:14.1px;}.cls-32{fill:#e0344c;}.cls-33{fill:#ffb8bb;}.cls-34{fill:#00d3cf;}.cls-35{fill:#ffefae;}.cls-36{fill:#04bab1;}.cls-37,.cls-42{stroke-width:10.97px;}.cls-39{fill:#0aa39b;}.cls-40,.cls-70{stroke-width:9px;}.cls-43{fill:#d8485d;}.cls-44{fill:#ddd19e;}.cls-45{fill:#d63a51;}.cls-46{fill:#f2c4c8;}.cls-47{fill:#d8324a;}.cls-48{stroke-width:1.48px;}.cls-49{fill:#142d75;}.cls-50{fill:#dbca83;}.cls-51{stroke-width:11.38px;}.cls-52{stroke-width:13.13px;}.cls-55{stroke-width:9.63px;}.cls-56{stroke-width:10px;}.cls-58{fill:#385aba;}.cls-60{fill:#c63247;}.cls-61{fill:#d82540;}.cls-62{fill:#17317a;}.cls-63{fill:#1e367a;}.cls-64{fill:#07b6d3;}.cls-65{stroke-width:19.17px;}.cls-66{stroke:#e8dfaa;stroke-width:13px;}.cls-67{stroke:#f7f4dc;stroke-width:38px;}</style><clipPath id="clip-path"><rect class="cls-1" x="4.38" width="4845.92" height="3895.9"/></clipPath></defs><title>index_wt_2</title><g class="cls-2"><rect class="cls-3" x="7" width="4804.5" height="3895.9"/><path class="cls-4" d="M4841.5,2361.8l-779.1-446c-48.8-28-49.5-98.1-1.3-127l804.7-482.3Z"/><polygon class="cls-5" points="2184.8 2184.4 1327.3 1701 866.3 1958.2 1875.7 2546.8 2184.8 2184.4"/><path class="cls-4" d="M4841,1137.6l-1032.3,591a73.38,73.38,0,0,1-73.1,0l-404.8-231.7c-49.4-28.3-49.4-99.5,0-127.8l1535-905.7c5.3,109.9-24.8,674.2-24.8,674.2"/><path class="cls-4" d="M-4.5,2460.4,0-49.2,1291.2,45.5l588.8,1103,242,43.3c25.6,3.7,32.1,37.6,9.7,50.5Z"/><polygon class="cls-6" points="1254.9 2768.9 1844.9 2528.9 866.3 1958.2 388 2234 1254.9 2768.9"/><path class="cls-3" d="M0,525.1s1205.5,702.5,2840.6,702.5S5034.2,234,5034.2,234L4819.1,0,0,27.3Z"/><polygon class="cls-7" points="-57.4 3370.3 1041.7 2614.4 388 2234 -130 2532.8 -57.4 3370.3"/><path class="cls-4" d="M-134.4,3521.6l-55.5-429.4,992.5-124.1,818.3-111.2,219.3-176.5,999-563c127.1-71.6,191.9-113.4,320.7-44.8,170.3,90.8,727.9,350.8,984.1,469.9,125.1,58.1,76.5,135.4,6.9,174.8L2972,3385.3l-1045.7,72"/><path class="cls-7" d="M855.8,2196s-24.3,5.2-32.7,26.5,79,40.3,98.5,28.2,132.3-7.1,160.4-5.8,106.6-45,76.6-63.4-113.4-16.8-129.2-10.3-81,7.3-93.6,4.5-77.6,13.1-80,20.3"/><polyline class="cls-8" points="675 2353.8 675 2476.8 1065 2476.8 1065 2353.8"/><polygon class="cls-9" points="1855 2101.8 1834.5 2809.8 631.7 2445.2 182.7 2899.2 432.4 3362.3 2047.2 3404.7 2228.7 2969.8 2222 2969.8 2222 2101.8 1855 2101.8"/><path class="cls-10" d="M630.7,2443.5s144.6,604.7,863.6,555.6,744.1-735.3,735.2-907.3H1847s68.4,512.2-423,512.2c-144.6,0-237.8-66.9-297.2-158.6Z"/><path class="cls-9" d="M611,2319.9h539.2a23.32,23.32,0,0,1,23.3,23.3h0a23.32,23.32,0,0,1-23.3,23.3H611a23.32,23.32,0,0,1-23.3-23.3h0a23.32,23.32,0,0,1,23.3-23.3"/><polygon class="cls-10" points="825.1 3475.8 336.6 3102.5 913.4 2761.9 1382.4 2998.1 825.1 3475.8"/><path class="cls-9" d="M3203.5,3298.1c-5,184.2-129.6,310.7-396.4,221.7-79.2-26.4-254.8,28.6-342,34.3-142.2,9.2-208.9-6.2-208.9-6.2s-39.6,81.7-225.8,77.8S1814.9,3449,1814.9,3449s-133.2,107-306,91.9c-154.3-13.5-320.8-49-320.8-49s-62.9,136.5-248.4,132.2-205.1-159.8-205.1-159.8l1002.6-52,389.5-118.6s1096.1-235.3,1146.1-225.4c50.1,9.7,141.2,169.9-69.3,229.8"/><path class="cls-11" d="M-58.3,2541.2c260.5,0,190.5,205.7,190.5,205.7s173.6-44.8,256.2,75.5,0,240,0,240c82.9-70.9,255.6-47.2,376.3,162,145.2-336,684.7-343,740,150.3,2.8-102-8.6-391.4,376.1-342-30.5-57.2-76.2-293.4,91.4-358.1s235.2,53.3,239.5,118.1c38.6-80,156.9-91.3,284.6-18.2,115.1,109.7,75.1,185.9,71.7,256.6s88.7,100.4,112.8-13.6,244.2-388.3,444.8-72.4c34.1-16.2,142.3-8.6,180.9,63.7,23.2,43.3,50.2,109.3-36.6,208.6,24.2,81.2-79.9,162.9-180.1,119.2-20,132.3-226.3,196.1-309.3,211.2-167.5,30.5-301.3-122.9-301.3-122.9s-141.3,283.9-511.9,85c0,0-86.3,112-230.8,87-138.3-24-157.3-143.5-157.3-143.5-447.7,365.1-600.3,19.4-600.3,19.4s-197,329.3-626.2,31c-129.4,215.1-342.3,107.7-367.4,90-341.1-240.1-304.1-1052.6-43.6-1052.6"/><path class="cls-4" d="M-1,274.8s1206,735.3,2841.1,735.3c1466.9,0,2031.4-917.8,2031.4-917.8l9.9-119.1L-3.2,23.5Z"/><line class="cls-12" x1="1482.9" y1="3605.6" x2="1505.1" y2="3713.5"/><path class="cls-9" d="M702.4,3082.8l72.9-32.5s48.1-3.8,57.5-3.8,38.9-2.8,60.1-16.4,18-47.4,26.5-60.3,52.8-31.4,61.8-45,20.5-47.6-28.4-55.6-294,148.6-294,148.6-52.2,53.9,43.6,65"/><path class="cls-13" d="M621.1,3740l-191.4,2.7s-42.7.5-44.8,37.1,12.3,42.1,48.4,43.9,53.2,23.5,84.3,23.5H700.5c30.6,0,81.8-26.8,78.8-44.1s-98.3-62.6-117.5-58.6-40.7-4.5-40.7-4.5"/><path class="cls-13" d="M779.4,3731.4s1.4-21.6,52.9-28.1,164.3-5,164.3-5,40.3-78,84.6-72.8,317.1-14.1,334.6-11.8,72.3,70.6,88.2,77.1,64.3,17.1,49.2,57.8-88.9,30.3-112.6,31c-145,4.7-166.3-55.4-237.6-56.9-49.9-1.1-63.9,71.3-128.9,70.7s-286.3,24.4-294.7-62"/><path class="cls-13" d="M2154.9,3612.3s-68.8,44.8-23.7,71.4,109.2,7.5,162.3,8.9,125.4,25.3,125.4,25.3,79.3,25.2,137.1,18.1,81.3-30.3,134.8-31,54.8-52.7,134.1-55.4,219.5-7.2,219.5-7.2,5.5-93.5-29.8-97.2c-48.9-5.2-453.2-11.2-497.2-1.5s-177.2,9.6-177.2,9.6Z"/><path class="cls-9" d="M1411.6,2834.4s93.7-10.3,131.8-51,58.5-77.7,100.8-77.7,85.8-17.5,88.7,28.3-14,85.8-66.5,100.5-96.2,53.3-126.8,62.5-153.1,41.6-174.4,0c-21.1-41.7,18.8-58,46.4-62.6"/><path class="cls-13" d="M3520.7,3405.8c3,6.6,15.9,16.7,27.4,16.7s26.4-13.1,20.6-16.7-48,0-48,0"/><path class="cls-13" d="M3696,3405.8c3,6.6,15.9,16.7,27.4,16.7s26.4-13.1,20.6-16.7-48,0-48,0"/><path class="cls-13" d="M4012,3405.8c3,6.6,15.9,16.7,27.4,16.7s26.4-13.1,20.6-16.7-47.9,0-48,0"/><path class="cls-13" d="M4159,3408.8c3,6.6,15.9,16.7,27.4,16.7s26.4-13.1,20.6-16.7-47.9,0-48,0"/><path class="cls-13" d="M3918.4,3376.5s90.2-12.8,113.8,13.3,1.8,70-48.1,73.2-96.2-24.8-144.8-23.7-80,29.1-119.3,20.5-89.2-43.3-98.3-55.6,6.6-44.6,24.6-44.7,230.4-18.7,272.1,17"/><path class="cls-13" d="M4124.8,3065.4c-27.2,3-59.4,1.7-70.8,21.2s-76,4.2-70.1,31.5,101.9,44.1,110.1,45,85.5,29.2,136.2,27.6,85.4-30.4,125.3-40.3,106.3-11.2,110.7-22.3,4.5-39.8-23.8-39.5-236.5-22.3-236.5-22.3Z"/><path class="cls-13" d="M4541.2,3354.8c-4.4.6-73.4-11.1-107.9,14.4s-70.3,75.6-21.9,75.6,135.2,18.3,160.9,18.6,130.5-28,130.5-28,55.1-20.9,25.3-48.9-186.9-31.7-186.9-31.7"/><path class="cls-13" d="M3318.7,2008s-80-6.2-120.6,31.2,89.4,85.9,114.6,87.3,66.6-25.5,97.7-24.2,78.1,22.8,83.4,2.7,3.2-54.7-22.6-60.9c-25.7-6.4-62.2-48.8-152.5-36.1"/><path class="cls-13" d="M3580.9,2027.2c-30.5-1.8-48.1-13.2-68.9,0s-67.8,58.9,7.5,62.9,78.3,39,174.9,22.9,91.5-29.6,114.9-8.1,47.6,12.3,47.6,12.3,16-20.7,8-39.4,81.8,83,135.7,81.2,139.9-31.3,153.3-56.8,36.3,12.1,40.3,12.1,32.3,22.8,25.5-14.8S4151.2,1997.4,4080,1994s-127.3-29.5-130.9-28.6-47.3-17.3-74.5-6.8,11,12.1,14,30.7-117.2,1.9-133.3,2.7-163.4,35.9-174.4,35.2"/><path class="cls-13" d="M2668.3,1546.9c-14.8,2.9-69.1-15-130.2-3s-102.8,46.8-67.4,72,60.5,62.1,109.2,61.3,13.7-20.6,19.8-34.6,7.8,11,59.9,12,88.2,23.4,137.7,22.6,90.8-22.7,94-49.1,8.9-.3,12.3-26.9-110.6-78.8-235.3-54.3"/><path class="cls-13" d="M2313.8,1246.2c-20.2-4.6-51.8,28.6-15.9,41.4s238.8,36.3,339.9-12.3-75.2-87.6-75.2-87.6Z"/><path class="cls-13" d="M2549.5,1129.1s19.5-30.2,102.4-20.6,97,25.2,133.5,20.6,66.8-23.1,93.3-20.6,131,25,78.8,43-33.6,35.3-72.7,37.3-152.6,20.2-200.2,11.9-121.6-16.2-131.4-22.2-20.3-37.1-3.7-49.4"/><path class="cls-13" d="M3353.5,1178.6s-120.3-36.3-209-31.9-133.2-10.3-139.3,17.8,38,39.6,91.9,38.4,241.3,7.1,256.4-2.7,0-21.6,0-21.6"/><path class="cls-14" d="M642.4,1060l-113.9,17.5a53.85,53.85,0,0,0-39.9,28.4,30.78,30.78,0,0,0-3.8,13.7c0,17.8,135.6,43.3,167.3,44.8s111.7-44.7,111.7-44.7,88.9,59.4,145.5,65,214.6-12.7,214.6-12.7,35.5-47,67.7-48.9,65.6,41.9,90.5,41.3,147.8-20.9,147.8-20.9l14-30.1a43.06,43.06,0,0,0-20.9-57.3,39.76,39.76,0,0,0-7.3-2.6l-133.6-34.8s-122.3,18.9-141.1,20.1-106.5-17.5-106.5-17.5-107.4,31.6-137.7,30.3-156,24.3-178.5,19.7c-22.7-4.5-75.9-11.3-75.9-11.3"/><path class="cls-14" d="M2766.2,2617.7s47.9-33.9,93-16.9,120,19.3,133.4,51.8-11.5,92.7-68.5,95.7-133.7-10.3-135.1-41.7-29.4-55.3-22.8-88.9"/><path class="cls-14" d="M2733.9,2552.8c-3,31.4-28.1,53-65.6,50.7s-40.4,57.9-82.6,59.3-114.8-30.9-90.6-66.8,95.4-56.8,114.7-61.7,65.9-18.2,90.7-10.8,35.8,3.8,33.4,29.3"/><path class="cls-14" d="M2580,2274.1c-20,9.9-67.8,16.9-100.5,54.5s-2.4,122.2,30.3,112,103,8.6,111.4,13.1,117.6,12.8,128.5-20.4-1.2-85.1,49.7-84,86,6,89.7-12.2,7.8-36.7-24-40.8-66.9-22.2-66.9-22.2,20.2-45.6-32.9-46.1-185.3,46.1-185.3,46.1"/><path class="cls-9" d="M6.7,1398.3s3.1-303.8,176-280.1,124.9,200.1,124.9,200.1,129-60.7,177,57-63,165.7-63,165.7,155.4,45,97.2,168-196.2,45-196.2,45,6.1,141-183,150S-28,1752.5-28,1752.5Z"/><path class="cls-15" d="M4133.7,1261.1l-33.4,18,2.9-111.6s-25.2,1.6-41-17.2a4.76,4.76,0,0,0-6.7-.6,4.83,4.83,0,0,0-1.7,3.1c-4.7,43.5-6.4,72.5-6.4,72.5l-31.4-55.8c-2.9,3.4-7.1,2.3-11-.5a2.71,2.71,0,0,0-3.8.7,3,3,0,0,0-.2,2.9l43.4,83.2s0,183.9-17.7,212.5l-28.9,46.6a3.37,3.37,0,0,0,4.3,4.8l40.1-19.8,13.4,16.4a9.21,9.21,0,0,0,13,1.3,13.58,13.58,0,0,0,1.2-1.2l14.1-16.6,45.7,18a5,5,0,0,0,5.6-7.8l-36.9-44.1,2.9-165.3,49-31.1c.1,0-16.9,1.9-16.5-8.4"/><path class="cls-9" d="M4273,1333.4s-264.4,81.4-305.7,53.9-28.3-77.6,18.8-108.8C3729,1363.8,3566,894.8,3952.7,851c6.3-200.2,230.3-161.2,224.7-32.2,49.2-38.6,187.8-110.6,226.6,21.3,110.2,150.2,227.3,103.4,207.9,49.7-56.2-155.2,158-229.3,270.2-125.7s45.7,621.2,45.7,621.2Z"/><path class="cls-11" d="M235,2002s-154.3-24-67.3-165c-15-42-42.2-105,20.4-144s105.6,33,105.6,33,29.6-111.3,104.8-82.7,58.2,112.3,58.2,112.3,96.4,12.3,79.2,114.3-150.9,72-150.9,72S374.3,2035,235,2002"/><path class="cls-16" d="M4448.6,1522.1l-34.6,18.7,3-115.9s-26.2,1.6-42.6-17.9a4.91,4.91,0,0,0-6.9-.7,5.18,5.18,0,0,0-1.8,3.3c-4.9,45.2-6.6,75.3-6.6,75.3l-32.6-57.9c-3.1,3.6-7.3,2.4-11.5-.5a2.9,2.9,0,0,0-4,.8,3,3,0,0,0-.2,2.9l45,86.4s0,190.9-18.3,220.5l-29.9,48.4a3.53,3.53,0,0,0,1.1,4.8,3.71,3.71,0,0,0,3.4.2l41.7-20.6,13.9,17a9.65,9.65,0,0,0,13.5,1.4,13.65,13.65,0,0,0,1.2-1.2l14.7-17.3,47.5,18.6a5.1,5.1,0,0,0,6.6-3,5.28,5.28,0,0,0-.8-5l-38.3-45.8,3-171.5,50.8-32.2c-.1-.1-17.8,1.9-17.3-8.8"/><path class="cls-11" d="M4652,1434.5s60.2,185.2-223.4,185.2-402.9-116.1-369.2-244.5c29-110.8,124-116,173.8-115.5,0,0-204.4,0-169.9-173.9,39.2-197.2,226.5-110.1,226.5-110.1S4208.3,779.3,4402,755.9c176.1-21.3,166.7,126,166.7,126s129.5-68.9,165.2,72.4-130.7,178.2-130.7,178.2,137.8-54.2,188.3,76c44.8,115.5-13.8,248-139.5,226"/><polygon class="cls-17" points="2731.7 996.6 2761.3 1138.8 2803 1138.8 2810.3 1131.4 2802.9 1125.2 2781.9 1120.3 2775.5 953.1 2721.6 964 2731.7 996.6"/><polygon class="cls-18" points="3265.1 914.5 3195.3 955.5 3150.9 1032.8 3120.1 1032.8 3111.4 1038 3120.1 1045.8 3162 1051.8 3217.9 977.5 3253.4 973.3 3265.1 914.5"/><path class="cls-16" d="M3292.7,1104.5a18.28,18.28,0,1,1,14.5,21.4,18.3,18.3,0,0,1-14.5-21.4"/><path class="cls-16" d="M3026.7,1055a18.28,18.28,0,1,1,14.5,21.4,18.3,18.3,0,0,1-14.5-21.4"/><circle class="cls-19" cx="3310.32" cy="1108.43" r="70" transform="translate(1598.07 4150.64) rotate(-79.14)"/><polyline class="cls-20" points="3201.1 1080.3 3309.4 1107.4 3232.3 1019.4 3105.9 957.6 3097 972.2 3200.9 1079.7 3261.8 962.6"/><circle class="cls-19" cx="3044.24" cy="1058.96" r="70" transform="translate(1430.71 3849.18) rotate(-79.14)"/><polyline class="cls-20" points="3110.4 950.1 3105.9 957.6 3044.1 1059.2"/><path class="cls-16" d="M3102.3,937.3l5.4,12.3,3.6,1.7a5.36,5.36,0,0,0,6.8-2l2.2-3.6a8,8,0,0,0-1.6-10.4l-8.1-6.9,5.5-38.2s14.2-4.2,23.4,1.3l-2.8-9s-2.9-4.8-8-4.7a38,38,0,0,0-10,1.6l-1.9-.3a5.66,5.66,0,0,0-6.5,4.8v.1l-6.2,43.3a9.13,9.13,0,0,0-1.8,10"/><circle class="cls-21" cx="2637.68" cy="1086.35" r="60.2" transform="translate(1540.75 3719.65) rotate(-89.77)"/><polyline class="cls-22" points="2734.7 1080.8 2638.9 1085.7 2718.5 1024.2 2835.4 993 2840.4 1006.7 2735 1080.3 2703 971.4"/><circle class="cls-21" cx="2870.29" cy="1088.66" r="60.2" transform="translate(1770.12 3954.57) rotate(-89.77)"/><polyline class="cls-22" points="2832.8 985.9 2835.4 993 2870.6 1088.9"/><path class="cls-16" d="M2839.8,926.4l-.1.2a2.86,2.86,0,0,1-3.6,1.7h-.1l-20.5-8.2a2.79,2.79,0,1,1,2-5.2l20.6,8a2.75,2.75,0,0,1,1.7,3.5"/><path class="cls-16" d="M2841.7,976.4l-6.5,9.5-3.3.8a4.67,4.67,0,0,1-5.4-2.8l-1.3-3.4a7,7,0,0,1,3.1-8.6l8-4.5,2-39.1s-6.3-6.6-15-3.5l-.9-1.4a8,8,0,0,1,7.1-1.8,40.31,40.31,0,0,1,8.2,3l1.6.1a4.91,4.91,0,0,1,4.7,5.1v.1l-2,37.6a8.21,8.21,0,0,1-.3,8.9"/><circle class="cls-23" cx="1047.81" cy="1031.81" r="60.9" transform="translate(-4.13 4.21) rotate(-0.23)"/><polyline class="cls-24" points="949.9 1026 1046.8 1031 966.3 968.8 848 937.2 842.9 951.1 949.6 1025.5 982 915.3"/><circle class="cls-23" cx="812.51" cy="1034.11" r="60.9" transform="translate(-4.15 3.27) rotate(-0.23)"/><polyline class="cls-24" points="850.7 930 848 937.2 812.4 1034.2"/><path class="cls-16" d="M869.6,859.8a2.81,2.81,0,0,0-3.6-1.6s-22.3,9.1-22.5,10a4.87,4.87,0,0,0-3.9,5.1l2,38a8.15,8.15,0,0,0,.1,9.1l6.6,9.6,3.4.8a4.81,4.81,0,0,0,5.5-2.9l1.3-3.4a7,7,0,0,0-3.1-8.7l-8.1-4.6-2-39.6a3.41,3.41,0,0,0,2,0l10.5-4.2a13.43,13.43,0,0,1,2.7.7l.9-1.4c-.2-.2-.4-.3-.6-.5l7.3-2.9a2.78,2.78,0,0,0,1.5-3.5"/><path class="cls-25" d="M2792.1,872.6s37.9,11.2,45.3,21.7,19.2,46.5,19.2,46.5l-11.8,11-11.8-11,1.9-19.2s-4.3-13.2-12.7-18.3-40.4-5.6-40.4-5.6Z"/><polygon class="cls-16" points="2691.2 976.2 2708.9 1148.7 2739.6 1159.8 2752 1159.8 2752 1148.8 2734.2 1135.3 2739.3 1011.8 2741.1 969.2 2691.2 976.2"/><polygon class="cls-16" points="2777.3 1001.4 2737.7 1012.6 2739.7 978.8 2780 978.8 2777.3 1001.4"/><path class="cls-25" d="M2710.7,865.6s-54.9,50.8-68.6,96.3c-2,13,7.1,17.2,7.1,17.2l14.2-9.5-1.5-15.5s28.5-48.9,48.8-53.4,0-35.1,0-35.1"/><path class="cls-9" d="M2752.4,864.8s-29.8-10.4-48,.1c1.3,17,.6,45.5.6,45.5l7.5-4.2-27.9,72.6c0,23.7,95.3,0,95.3,0l5.9-70.4,6.8,2,4.8-41.4Z"/><path class="cls-25" d="M2748,839.5l-3.3,26.8,1.5,3.7a9.38,9.38,0,0,0,10.6,5.6l9.1-1.9,4.6-37.4Z"/><path class="cls-25" d="M3259.3,720c21.1-5.8,43.1,7,49,28.6s-6.4,43.9-27.5,49.7-43.1-7-49-28.6,6.4-43.9,27.5-49.7"/><path class="cls-16" d="M3219.5,735.6l59.5,19.7,1.9,23.3a3.59,3.59,0,0,0,3.9,3.3,3.73,3.73,0,0,0,2.3-1l16.2-16.3,15.2,6.2s16-46.5-23.1-62.1c-40.9-16.4-67.2,2.8-78.8,15a7.19,7.19,0,0,0,.3,10.3,7.61,7.61,0,0,0,2.6,1.6"/><path class="cls-26" d="M1067.8,1091.1s4.4,11.6-29.9,9.5-33.6.3-35.5-5.3Z"/><path class="cls-27" d="M1033.8,1069.1s-20.7,6.8-30.2,5.6c-5.5,6.9-1.3,20.5-1.3,20.5s53.8,5.9,62.8-1c6.1-4.3.6-10.6-5.4-11.8s-9.9-1.1-25.9-13.3"/><path class="cls-26" d="M847,1091.1s-4.4,11.6,29.9,9.5,33.6.3,35.5-5.3Z"/><path class="cls-27" d="M881,1069.1s20.7,6.8,30.1,5.6c5.5,6.9,1.3,20.5,1.3,20.5s-53.8,5.9-62.8-1c-6.1-4.3-.6-10.6,5.4-11.8s10-1.1,26-13.3"/><path class="cls-16" d="M3261.2,916.4l-79.2,158-23.6-3.5-14,3.8,2.9,10.2,47.2,10.2L3285.4,965s28.2-11.7,29.4-42.9-53.6-5.7-53.6-5.7"/><path class="cls-25" d="M3233.1,835.2l-86.8,46.1-19.8-5.3-7.6,4.8a6,6,0,0,0-1.8,8.3,10.61,10.61,0,0,0,1,1.2l8.7,8.1a7.94,7.94,0,0,0,7.1,1.9l21.3-5.1,89.6-41.5Z"/><path class="cls-26" d="M3226.1,838s28.2-29.6,62.7-29,55.4,78.6,35.6,123.4c-13,3-87-7.6-87-7.6l24.9-58.7-3.8,1Z"/><path class="cls-25" d="M3308.1,874.5l20.1-19.5,19.9,89,6.8,3.2a11.37,11.37,0,0,1,6.2,12.8,6.41,6.41,0,0,1-7.2,4.9l-14.5-2.4-9-16.9Z"/><polygon class="cls-25" points="3265.2 795.6 3267.6 814.5 3265.1 837.7 3289.2 812.3 3286.3 789.8 3265.2 795.6"/><path class="cls-25" d="M998.5,708.8c0,28.6-18.2,42.8-42.9,42.8s-46.5-14.2-46.5-42.8,20-51.8,44.7-51.8,44.7,23.2,44.7,51.8"/><path class="cls-25" d="M1011.7,887.3l3.3,15.5a8,8,0,0,1-2.5,7.6l-.6.5a7.78,7.78,0,0,1-10.3-.1l-5-4.4a7.67,7.67,0,0,1-2.6-5l-1.7-16.2a7.58,7.58,0,0,1,1.6-5.6,7.83,7.83,0,0,1,11-1.4,5.73,5.73,0,0,1,1.1,1.1l4,4.6a7.81,7.81,0,0,1,1.7,3.4"/><path class="cls-16" d="M898.2,882.8s-21,137.2-21,186.1c2.2,4.4,37.9,13.8,37.9,13.8S930.1,957.8,948,933c7.3,30,51,145.9,51,145.9s32.9,5,41-10.2c-4.7-15.3-50.3-185.8-50.3-185.8H898.2Z"/><path class="cls-27" d="M911.9,674.6l89.3,44.6,3.6-13.8a46.56,46.56,0,0,0-3-31.8c-5.5-11.4-14.6-20.8-23.8-23.7-16.6-5.2-38.7-5.7-49,1.8s-12.4,16.9-12.4,16.9l-27.9-15.2a4.73,4.73,0,0,0-5.5,7.6,6,6,0,0,0,1.3.9Z"/><path class="cls-27" d="M919.8,756.8l71.1,10.5a37.53,37.53,0,0,1,24,13.9l32.9,41.6a26.27,26.27,0,0,1,.3,32.2l-33,34.4-21-14.4,27.8-36.1-27.8-26.2-1.2,78.5s-58.2,25.5-98.8-7.5c4.6-19.3,6.1-77.5,6.1-77.5L881.6,848a18.94,18.94,0,0,1-21.5,10.8c-20-4.7-47.7-20.7-47.7-20.7l10-32.3,39.6,23s13.5-43.3,22.1-56.1a36.84,36.84,0,0,1,35.7-15.9"/><path class="cls-25" d="M939.7,730.8,930.1,762s-1.6,9.4,5.8,13.7,22.7-10.2,22.7-10.2l5.1-34.7Z"/><polygon class="cls-26" points="963.7 763.3 899 835.9 896.6 867.3 993.2 767.8 963.7 763.3"/><path class="cls-25" d="M975.9,696.8a12.4,12.4,0,1,1-12.4,12.4,12.4,12.4,0,0,1,12.4-12.4"/><polygon class="cls-28" points="3784.6 3137.9 3883 3137.7 3883 3072.8 3784.6 3137.9"/><polygon class="cls-28" points="2970 2497.8 2895 2497.8 2894.9 2562.3 2970 2497.8"/><polygon class="cls-28" points="2556 3646.8 2465 3646.8 2465.1 3710.9 2556 3646.8"/><path class="cls-25" d="M2730.1,805.5c6.8-21.9,28.8-34.5,49-28.2s31.2,29.2,24.3,51-28.8,34.5-49,28.2-31.1-29.1-24.3-51"/><path class="cls-25" d="M2721.4,807.8a9.12,9.12,0,1,1,5.8,11.9,9.42,9.42,0,0,1-5.8-11.9"/><path class="cls-25" d="M2797.8,835.1a9.14,9.14,0,1,1,5.8,11.9,9.36,9.36,0,0,1-5.8-11.9"/><path class="cls-27" d="M2806.4,807.8s8.3-37-31.4-44.2c-26.5-4.8-37.5,11.1-41.9,22.2,0,0-18.7,6.9-16,7.4,0,0,18.3-5.6,15.8-3.6,36.9,14.5,73.5,18.2,73.5,18.2"/><path class="cls-16" d="M2775.1,802.8s-15.9-22.6-41.9-17c0,0-17.8,2.4-18.2,5.1s-.5,1.8,2.2,2.3c0,0,9.2-2,16.2-1,18.7,2.6,41.7,10.6,41.7,10.6"/><path class="cls-25" d="M2268.7,822.9c21.2,0,38.4,18.6,38.4,41.5s-17.2,41.5-38.4,41.5-38.4-18.6-38.4-41.5,17.2-41.5,38.4-41.5"/><path class="cls-29" d="M2452,1145.1h-.1c.2-3.6-4.5-6.3-8.9-6.3-5.3.1-8.9.8-23.3-5.6l-13.2-42.2-39.5-5,22.6,58.9c-1.8,7.3,3.6,17,3.6,17,2.9,4.6,1.8,2.6,33.4-2.2s25.4-14.6,25.4-14.6"/><path class="cls-25" d="M2337.2,937s5.1,4.4,15.6,8.3c9.5,3.5,32.5,9.5,42.3,8.6a124.92,124.92,0,0,0,21.2-3.4,7.36,7.36,0,0,1,8.6,3.7l2.4,4.6a6.55,6.55,0,0,1-.7,7.1l-1.7,2.1a3.49,3.49,0,0,1-4.9.5,7.62,7.62,0,0,0-3.2-1.7l-24.6,1.7a10.87,10.87,0,0,1-1.8-.1l-10.2-1.7-26.4-.5a39.73,39.73,0,0,1-13.2-2.6l-18.5-7.3Z"/><path class="cls-25" d="M2211.6,928.4s-30.4,0-37.4-8-20.3-37.2-20.3-37.2l2.1-10.6a5.73,5.73,0,0,0-2.1-5.6l-11.4-8.7a4.58,4.58,0,0,0-4.9-.4l-8.1,4.4a5.53,5.53,0,0,0-2.7,6.4l4.8,16.7a5.37,5.37,0,0,0,2.6,3.3l6.5,3.8s9.9,37.1,21.2,44.6,52.2,18.8,52.2,18.8Z"/><ellipse class="cls-30" cx="2538.1" cy="1031.6" rx="76.7" ry="74.5"/><ellipse class="cls-30" cx="2374.6" cy="1200.7" rx="76.7" ry="74.5"/><polygon class="cls-31" points="2340.9 1079.4 2374.6 1206.4 2444.9 1131.4 2430.6 991.5 2340.9 1079.4"/><polyline class="cls-31" points="2538.1 1031.6 2400.8 977 2399.5 976.5 2411.5 961.9"/><path class="cls-26" d="M2493.6,1071.3s12.2-1.2,1.4,31.2-8.4,32.3-14.2,32.8Z"/><path class="cls-16" d="M2463.8,1098.4s1.2,21.7-2.3,30.4c5.2,7,19.4,6.5,19.4,6.5s19.5-50.2,15.2-60.6c-2.6-7-10-3.3-12.7,2.2-2.8,5.3-3.8,9.2-19.6,21.5"/><path class="cls-26" d="M2252.2,1030.9s3.3,34.4,37.4,37.8,174.9,62.7,174.9,62.7l6.3-29.9-83.2-43.3-65.8-39.5Z"/><path class="cls-27" d="M2268.9,918.1s-22.3,4.5-31.9,7.7-27,.3-27,.3v33.6s28.4-1.2,33.1,1.3c2.6,16.3,3.6,76.5,3.6,76.5s73.2-16,86.7-12.5c-1.6-11.5-13.5-70.4-13.5-70.4l8,5.1L2341,937s-21.1-20.8-30.7-21.4-41.4,2.5-41.4,2.5"/><path class="cls-25" d="M2259.7,900.6s4.2,13,.9,19.5c7.9,5.6,11.9,9.2,13.9,11.4a2.35,2.35,0,0,0,3.3.1,2.66,2.66,0,0,0,.5-.6l7.3-13.6s-2.8-12.7-2.6-21.8c-11.7-2.3-23.3,5-23.3,5"/><path class="cls-27" d="M2239.3,891l61.1-50.2,23.7-16.7a3.66,3.66,0,0,0,.9-5,2.34,2.34,0,0,0-.7-.7,3.62,3.62,0,0,0-4.2-.3l-25.5,15.5-17-11a28.84,28.84,0,0,0-25.7-2.7l-9.9,3.8a25.32,25.32,0,0,0-15.3,16.3l-4.5,14.8a21.46,21.46,0,0,0,3.8,19.8Z"/><path class="cls-25" d="M2257.8,868.8c6,0,10.9,4.6,10.9,10.3s-4.9,10.3-10.9,10.3-10.9-4.6-10.9-10.3,4.9-10.3,10.9-10.3"/><path class="cls-27" d="M2555,2325.6v16.6l-44.4,32.2a10.49,10.49,0,0,1-8.4,1.8l-3.6-.8a10.64,10.64,0,0,1-5.5-17.7l17.2-18.3,4.2-17.2Z"/><path class="cls-27" d="M2707,2229.8s10.5-3.9,17.3,0c5.5,3.2,12.1,39.3,14.3,52.7a11.83,11.83,0,0,1-2.1,8.9,12,12,0,0,1-12.6,4.7l-2.7-.7a11.72,11.72,0,0,1-8.2-7.1l-12-29.2Z"/><path class="cls-25" d="M2492.7,1981.9l-41.8,4-74.5-26.1-15.7-13.5a14.4,14.4,0,0,0-9.3-3.4H2330l-3.8,21.5,20.9,11.8,19.7,2.3,81.2,36.4h58.5Z"/><path class="cls-25" d="M2584.6,1974.1l41.8,4.1,74.5-26.3,15.4-13.4a15.27,15.27,0,0,1,10-3.7h21l3.8,21.7-20.9,11.9-19.7,2.1-81.2,36.2h-58.5Z"/><path class="cls-9" d="M2509.8,2132.8l-5.1,203.2s33.3,16.9,51.7-7.2c1-5.7,11.5-154.4,11.5-154.4s43.8,60.9,52.3,68.6,84.9,30.9,84.9,30.9,16.9-21.6,7-46.4c-3.7-6.8-61.3-19.3-65.9-25.4s-29.1-112.4-29.1-112.4l-112.7,45.2"/><path class="cls-25" d="M2526.4,1880.9c21.8,0,39.5,19.1,39.5,42.7s-17.7,42.7-39.5,42.7-39.5-19.1-39.5-42.7,17.7-42.7,39.5-42.7"/><path class="cls-27" d="M2466.8,1989.7s-5-31.4,135.9-16.1c9,9.4,14.7,27.5,12.8,49.5a98.06,98.06,0,0,1-14,3.3l31,75.6s-77.5,50.6-132.8,28.6c1-18.8-7.4-99.5-7.4-99.5l-26.8-5.2c-.1-.1-3.5-21.7,1.3-36.2"/><path class="cls-25" d="M2488.7,1910.2a11.2,11.2,0,1,1-11.2,11.2,11.31,11.31,0,0,1,11.2-11.2"/><path class="cls-25" d="M2565.8,1914.4a11.2,11.2,0,1,1-11.2,11.2,11.18,11.18,0,0,1,11.2-11.2"/><path class="cls-25" d="M2520.9,1949.9l-5.1,26.1,10.6,13.9a6.07,6.07,0,0,0,8.5,1.2c.2-.2.5-.4.7-.6l13.2-13.6,2.8-43.1Z"/><path class="cls-27" d="M2488.7,1910.2s39.8-6.7,77.1,4.2a48.33,48.33,0,0,0-1.6-20c-1.8-5.7-13.2-21.6-37.8-21.9s-34.9,19.4-36.3,23.3-1.4,14.4-1.4,14.4"/><path class="cls-32" d="M2490.8,1921.3s21.6-11.2,59.6,2.5a21.7,21.7,0,0,0-1.8-15.6s-30.7-11.5-52.7-1.1c-2,1.3-5.1,14.2-5.1,14.2"/><path class="cls-33" d="M1489.8,2309.8s-51.4,5.2-65.5,8.5-40,12.6-40,12.6l-13.6-1.1a15.5,15.5,0,0,0-14.2,6.8l-3.8,5.6a15.64,15.64,0,0,0-.4,17,7.67,7.67,0,0,0,8.2,3.5l31.9-7.3a11.74,11.74,0,0,0,7.1-5l3.7-5.7s52.5-14.1,89.9-7.8c2.9-12.7-3.3-27.1-3.3-27.1"/><path class="cls-16" d="M1657.4,2410.8s9.9,42.9-20.6,59.7-49.1,21.5-49.1,21.5l-7.7,59.7-48.8-11,10-64.8a25.68,25.68,0,0,1,14.8-19.5l20.3-9.2-86.4,2.4-30.7,51.9-39-13.8s14.1-59.1,39.2-75.6,120.5-4.8,120.5-4.8Z"/><path class="cls-33" d="M1651,2279.7s42.8-24.6,71.1-28.6,64.5,7.6,64.5,7.6h13.2a10.12,10.12,0,0,1,9.4,6.4l2.9,7.4a10.26,10.26,0,0,1-3.2,11.7l-6.5,5.1a10.07,10.07,0,0,1-11.8.5l-15.2-10s-34.2-10.3-53.3-5.5-59.8,39.6-59.8,39.6Z"/><path class="cls-34" d="M1563,2299s-54.6-3.2-76.3,10.8c3.9,13.3,0,40.3,0,40.3s41.3-2,44.6,11.2-6.5,42.8-6.5,42.8,39.5,2,134.2,14.4c-5.9-27.6-14.8-90.3-14.8-90.3s20-7.7,29.2-6.4c-2.6-9.2-13.2-29.9-11.2-47.5-11.2,2.8-72.1,17.8-72.1,17.8Z"/><path class="cls-33" d="M1636.8,2279.8c0,25.6-35.5,46.4-61.1,46.4s-34.8-21-31.7-46.4c3.6-29.4,20.8-46.4,46.4-46.4a46.31,46.31,0,0,1,46.4,46.4"/><path class="cls-16" d="M1537.8,2268.8c19.7.7,66.8,4.9,89.7,28.3a6.49,6.49,0,0,0,9.2.1,5.94,5.94,0,0,0,1.3-1.8c8.8-18.6,13.8-55.8-24.9-70.7-41.6-16.1-70.4,6.9-81.3,34.9a6.76,6.76,0,0,0,3.8,8.7,8.74,8.74,0,0,0,2.2.5"/><path class="cls-16" d="M1599.3,2274.2l6.4,31.4a5.13,5.13,0,0,0,5,4.1,4.79,4.79,0,0,0,3.5-1.6l18.7-22.3Zm11.8,29.1-3.2-18.8,12.9,6.6Z"/><path class="cls-27" d="M1382.7,2445.8c1.4-2.9,8-3.2,10.8-.8s180.9,109.9,221.8,112.6c21.7,1.4,20.9,61.9-.4,67.4-17.2,4.4-225.4-101.6-233.5-123.3-9.4-25.2-4.5-44.3,1.3-55.9"/><path class="cls-26" d="M1414.1,2477.7l15.4,7.3a3.29,3.29,0,0,1,1.5,4.4l-6.6,13.8a3.29,3.29,0,0,1-4.4,1.5l-15.4-7.3a3.29,3.29,0,0,1-1.5-4.4l6.6-13.8a3.32,3.32,0,0,1,4.4-1.5"/><path class="cls-26" d="M1407.8,2502l15.3,7.3a3.29,3.29,0,0,1,1.5,4.4l-6.6,13.8a3.21,3.21,0,0,1-4.3,1.5l-15.3-7.3a3.29,3.29,0,0,1-1.5-4.4l6.6-13.8a3.15,3.15,0,0,1,4.3-1.5"/><path class="cls-26" d="M1567.6,2560.7l15.4,7.3a3.29,3.29,0,0,1,1.5,4.4l-6.6,13.8a3.29,3.29,0,0,1-4.4,1.5l-15.4-7.3a3.29,3.29,0,0,1-1.5-4.4l6.6-13.8a3.32,3.32,0,0,1,4.4-1.5"/><path class="cls-26" d="M1562.2,2592.8l15.4,7.3a3.29,3.29,0,0,1,1.5,4.4l-6.6,13.8a3.29,3.29,0,0,1-4.4,1.5l-15.4-7.3a3.29,3.29,0,0,1-1.5-4.4l6.6-13.8a3.29,3.29,0,0,1,4.4-1.5"/><path class="cls-16" d="M712.8,3036.1c2.1,9.1,24.7,12.5,24.7,12.5l.5-31.8-22.2-5.1s-5.1,15.3-3,24.4"/><path class="cls-27" d="M737.5,3011.7c5.1,0,9.2,8.3,9.2,18.4s-4.1,18.4-9.2,18.4-9.2-8.3-9.2-18.4,4.1-18.4,9.2-18.4"/><path class="cls-16" d="M915.8,2918.1c3.7,8.5,24.7,12.5,24.7,12.5l.5-31.8-22.2-5.1s-6.7,15.9-3,24.4"/><path class="cls-27" d="M943.5,2894.7c5.1,0,9.2,8.3,9.2,18.4s-4.1,18.4-9.2,18.4-9.2-8.3-9.2-18.4,4.1-18.4,9.2-18.4"/><path class="cls-35" d="M647.3,2976l259.6-134.5a80.1,80.1,0,0,1,59.6-5.6,34,34,0,0,1,22.3,21.1,30.1,30.1,0,0,1-13.3,36.2L726.1,3036a79.45,79.45,0,0,1-60.7,7.5l-8.6-2.4a38.48,38.48,0,0,1-24.6-21,33.61,33.61,0,0,1,15.1-44.1"/><path class="cls-16" d="M719.4,2747.8l-18.3,198.6s40.3,4.5,46.2-10.5S782,2790.4,782,2790.4l36.2,116.1s34.1,6.5,38.9-10.3-31-173.9-31-173.9Z"/><path class="cls-25" d="M751.9,2494.3a47.1,47.1,0,1,1-47.1,47.1,47.12,47.12,0,0,1,47.1-47.1"/><path class="cls-27" d="M707.6,2561.9s38.2-44,74.2-63c2.2.6-9.6-17.4-29.9-19.9s-42.3,8.2-53,32.4,8.7,50.5,8.7,50.5"/><path class="cls-27" d="M775.5,2495.2l30.2-14.1a4.7,4.7,0,0,1,4.2,8.4c-7,3.8-23.8,11.7-52.6,19.4,4.6-5.3,18.2-13.7,18.2-13.7"/><path class="cls-25" d="M726.8,2530.8a11.5,11.5,0,1,1-11.5,11.5,11.5,11.5,0,0,1,11.5-11.5"/><path class="cls-25" d="M699.4,2634.9s-40.7,49-40.7,60.3,46.1,35,46.1,35l-2.5,3.5a8.5,8.5,0,0,0,1.9,11.9,7,7,0,0,0,2.1,1.1l12.8,4.7v-31.2L687,2694l36.3-29.8Z"/><path class="cls-25" d="M830.4,2608.3s30.4,22.1,30.4,30-22,65.7-22,65.7l3.5,7.3a11.59,11.59,0,0,1-3.4,14.3l-8.5,6.5-5.9-25.3,12.8-53.8-32.6-18.1Z"/><path class="cls-27" d="M754.4,2601.3s-43.8,9.6-62.1,34.8c10.6,16.1,12.4,43.6,12.4,43.6h10.1l3.6,71.6s108.6,10.4,112.4-19.8c-6.3-28.8-11.9-77.3-11.9-77.3l6.3-2.1,10.5-42.1c0,.1-47.4-16.8-81.3-8.7"/><path class="cls-25" d="M734.6,2583s4.7,15,3.8,25.5c18,10.9,28.9,20,36.3,16.1s-.9-25.2-.9-25.2l-13.2-26.1Z"/><path class="cls-26" d="M775.2,2959.2s4.7,12.6-32.5,10.3-36.5.3-38.6-5.7Z"/><path class="cls-27" d="M738.2,2935.3s-22.6,7.4-32.8,6.1c-5.9,7.5-1.4,22.3-1.4,22.3s58.5,6.4,68.3-1.1c6.6-4.7.6-11.5-5.9-12.8s-10.8-1.2-28.2-14.5"/><path class="cls-26" d="M892.7,2919.5s4.7,12.6-32.5,10.3-36.5.3-38.6-5.7Z"/><path class="cls-27" d="M855.7,2895.6s-22.6,7.4-32.8,6.1c-5.9,7.5-1.4,22.3-1.4,22.3s58.5,6.4,68.3-1.1c6.6-4.7.6-11.5-5.9-12.8s-10.8-1.3-28.2-14.5"/><path class="cls-27" d="M1125.6,3630.8s-4.4,12.7-31.6-12.9-28.2-23.2-26-29.1Z"/><path class="cls-26" d="M1112.5,3588.8s-22-8.8-29.1-16.3c-9.4,2-15.3,16.3-15.3,16.3s40.8,42.4,53.2,42.9c8.1.6,7.8-8.4,3.7-13.6s-7.7-8-12.5-29.3"/><path class="cls-27" d="M1274.2,3605.2s4.7,12.6-32.5,10.3-36.5.3-38.6-5.7Z"/><path class="cls-26" d="M1237.2,3581.3s-22.6,7.4-32.8,6.1c-5.9,7.5-1.4,22.3-1.4,22.3s58.5,6.4,68.3-1.1c6.6-4.7.6-11.5-5.9-12.8s-10.8-1.2-28.2-14.5"/><path class="cls-16" d="M1151.2,3352.8s-11.1,64.5-31.6,119.9-50.5,101.9-49.3,104.3c23.6,10.6,42.6,13.8,42.6,13.8l78.1-186.2,33.8,77-22.6,106.1s39.1,10.9,45.8,0,14.7-117.5,14.7-117.5L1230,3352.7h-78.8Z"/><path class="cls-36" d="M1187.7,3220.8s-22.4-7.4-34.6,21.8c-5,12,2.1,82.9,2.1,82.9l-7.2,35.3c55.8,33.5,84.4,17.5,89.4,5.2,3-7.4,8.7-44.8,8.2-80.1-.3-22.6-3.1-43.8-10.7-56.3-13-21.3-40-8.9-40-8.9Z"/><path class="cls-33" d="M1199.1,3104.5a45.1,45.1,0,1,1-45.1,45.1,45.11,45.11,0,0,1,45.1-45.1"/><polygon class="cls-33" points="1184 3186.8 1184 3216.8 1175.4 3219.8 1221 3247.9 1221 3216.8 1211.8 3213.6 1205.7 3183.4 1184 3186.8"/><path class="cls-35" d="M1207.7,3145.3l38-12.8s-12.1-34-44.3-32-36.8,14.4-50.2,30.7-31.5,64-54.8,63.4c-.4,0,24.5,26.8,51.6,17s36-5.4,36-5.4l.7-49Z"/><path class="cls-33" d="M1188.1,3149.5a11.4,11.4,0,1,1-11.4,11.4,11.39,11.39,0,0,1,11.4-11.4"/><path class="cls-16" d="M1155.1,3589.9a29.5,29.5,0,1,1-29.5,29.5,29.49,29.49,0,0,1,29.5-29.5"/><path class="cls-16" d="M1155,3596.9a22.6,22.6,0,1,1-22.6,22.6,22.58,22.58,0,0,1,22.6-22.6"/><path class="cls-16" d="M1342.2,3589.9a29.5,29.5,0,1,1-29.5,29.5,29.49,29.49,0,0,1,29.5-29.5"/><path class="cls-16" d="M1342.1,3596.9a22.6,22.6,0,1,1-22.6,22.6,22.58,22.58,0,0,1,22.6-22.6"/><path class="cls-27" d="M1332,3575.4l-35.9,48.5H1155.7a4.5,4.5,0,1,1,0-9l125.7-.7.2-7a13.12,13.12,0,0,1,4.4-9.5c3-2.6,7.5-4.4,13.8-1.6,2.1-2.5,29.9-38.1,29.9-38.1Z"/><line class="cls-37" x1="1307.9" y1="3443.8" x2="1336.2" y2="3583.7"/><line class="cls-38" x1="1291.3" y1="3363.9" x2="1307.2" y2="3440.8"/><path class="cls-16" d="M1313.6,3446.8l-10.1,1.9a5.09,5.09,0,0,1-5.9-4l-.3-1.6a5.09,5.09,0,0,1,4-5.9l10.1-1.9a5.09,5.09,0,0,1,5.9,4l.3,1.6a5.09,5.09,0,0,1-4,5.9"/><path class="cls-16" d="M1336.2,3553.8l-10.1,1.9a5.09,5.09,0,0,1-5.9-4l-.3-1.6a5.09,5.09,0,0,1,4-5.9l10.1-1.9a5.09,5.09,0,0,1,5.9,4l.3,1.6a5,5,0,0,1-4,5.9"/><path class="cls-27" d="M1340.3,3577.8l-8.4,2a4,4,0,0,0-3,4.8v.1l9.1,36.6a5.64,5.64,0,0,0,11.1-1.3l-5.4-39.9a2.77,2.77,0,0,0-3.3-2.3c0-.1,0-.1-.1,0"/><path class="cls-27" d="M1187.1,3618.8a32.78,32.78,0,0,0-50.8-27.4,3,3,0,0,1-4.1-.7,2.91,2.91,0,0,1,.4-4.2l.2-.2a38.83,38.83,0,0,1,54,9.8,38,38,0,0,1,6.8,19.8,38.52,38.52,0,0,1-.4,8.3l-6.4-1.6a16.25,16.25,0,0,0,.3-3.8"/><rect class="cls-16" x="1290.9" y="3362.04" width="36.1" height="8.3" transform="translate(-586.74 291.95) rotate(-10.41)"/><path class="cls-16" d="M1278,3371.7l-23.1,4.3a3.39,3.39,0,0,1-3.9-2.7l-1.4-7.4a3.39,3.39,0,0,1,2.7-3.9l23.1-4.3a3.39,3.39,0,0,1,3.9,2.7l1.4,7.4a3.39,3.39,0,0,1-2.7,3.9"/><path class="cls-16" d="M1332.3,3361.5l-23.1,4.3a3.39,3.39,0,0,1-3.9-2.7l-1.4-7.4a3.39,3.39,0,0,1,2.7-3.9l23.1-4.3a3.39,3.39,0,0,1,3.9,2.7l1.4,7.4a3.25,3.25,0,0,1-2.7,3.9"/><path class="cls-33" d="M1152.4,3291l2.3,29.5A20.39,20.39,0,0,0,1165,3336l65.9,37.1,19.8,9,20.3-6.3V3363l-17.7-9.8-15.4,3.8-53.9-40.2s1.7-14.8,2.4-33.5Z"/><path class="cls-33" d="M1382.4,3390.2a48,48,0,1,1-48,48,48,48,0,0,1,48-48"/><path class="cls-16" d="M1340.8,3464.1l98.2-71.6a4,4,0,0,0,.9-5.6h0a3.9,3.9,0,0,0-5.5-.9l-20.7,13s-23.2-16.9-36.8-17.5-34.5,17.2-42.5,29.4-11.1,29.1,6.4,53.2"/><polygon class="cls-33" points="1344.8 3513.3 1271.1 3534.9 1257.8 3529.2 1248.2 3543.6 1256.3 3561.5 1276.1 3549.6 1355.9 3534.9 1344.8 3513.3"/><polygon class="cls-33" points="1433.7 3489.6 1506.4 3461 1513 3448 1528.8 3453.1 1523.7 3470.3 1508.4 3473.5 1439.7 3509.9 1433.7 3489.6"/><path class="cls-39" d="M1454,3586.3l-2.4,104.1,11.9,6.4a8.36,8.36,0,0,1,4.5,7.4v3.8l-47.3.9-4.8-95-47.2,75.5,11.3,6.8a9.67,9.67,0,0,1,4.7,8.7l-.1,4-51.6-.1,1.9-19.5,31.8-94Z"/><path class="cls-33" d="M1365.3,3434.1a11.6,11.6,0,1,1-11.6,11.6,11.61,11.61,0,0,1,11.6-11.6"/><polygon class="cls-33" points="1372.7 3480.5 1383 3505.9 1406.4 3508.8 1408.7 3494.6 1400.1 3474.7 1372.7 3480.5"/><path class="cls-16" d="M1340.7,3513.1s54.9-28.9,97.6-27c1-.1,13.7,31.9,13.7,31.9l-9.7,5.2,12.3,65.9s-65.1,25-93,10.7c3-17.3-1.5-54.7-1.5-54.7l-8.6,2.3Z"/><path class="cls-16" d="M1303,3690.9a22.6,22.6,0,1,1-22.6,22.6,22.58,22.58,0,0,1,22.6-22.6"/><path class="cls-16" d="M1504.1,3690.9a22.6,22.6,0,1,1-22.6,22.6,22.58,22.58,0,0,1,22.6-22.6"/><line class="cls-40" x1="1465.3" y1="3519.9" x2="1505.1" y2="3713.5"/><path class="cls-27" d="M1493,3678.4s-17.5,33.4-17.9,39.6H1304.7a4.5,4.5,0,0,1,0-9l155.7-.7,27.2-58.6Z"/><path class="cls-27" d="M1328.6,3713.5a27.7,27.7,0,0,0-27.7-27.7,28.16,28.16,0,0,0-15.2,4.5,2.52,2.52,0,0,1-3.4-.6,2.55,2.55,0,0,1,.4-3.6l.1-.1a32.72,32.72,0,0,1,45.5,8.2,33.21,33.21,0,0,1,5.8,16.7,41,41,0,0,1-.3,7l-5.4-1.3c.1-1,.2-2.1.2-3.1"/><rect class="cls-35" x="1447.56" y="3513.95" width="36.2" height="8.3" transform="translate(-621.64 329.31) rotate(-10.59)"/><path class="cls-27" d="M1452,3527.7l-23.1,4.3a3.39,3.39,0,0,1-3.9-2.7l-1.4-7.4a3.39,3.39,0,0,1,2.7-3.9l23.1-4.3a3.39,3.39,0,0,1,3.9,2.7l1.4,7.4a3.39,3.39,0,0,1-2.7,3.9"/><path class="cls-27" d="M1506.3,3517.5l-23.1,4.3a3.39,3.39,0,0,1-3.9-2.7l-1.4-7.4a3.39,3.39,0,0,1,2.7-3.9l23.1-4.3a3.39,3.39,0,0,1,3.9,2.7l1.4,7.4a3.25,3.25,0,0,1-2.7,3.9"/><path class="cls-26" d="M1030.2,3696.2s4.7,12.6-32.5,10.3-36.5.3-38.6-5.7Z"/><path class="cls-27" d="M993.2,3672.3s-22.6,7.4-32.8,6.1c-5.9,7.5-1.4,22.3-1.4,22.3s58.5,6.4,68.3-1.1c6.6-4.7.6-11.5-5.9-12.8s-10.8-1.2-28.2-14.5"/><path class="cls-26" d="M789.7,3668.8s-13.2,2.3-3.9-33.9,6.7-35.9,13-36.8Z"/><path class="cls-27" d="M820.2,3637s-2.9-23.5.2-33.3c-6.2-7.3-21.6-5.6-21.6-5.6s-17.5,56.2-12,67.3c3.3,7.4,11.1,2.8,13.7-3.3s3.4-10.6,19.7-25.1"/><path class="cls-16" d="M1032.7,3458.9l-32.2,216.5s-17.8,8.1-43.2,8.5c.7-19.7,14.1-166,14.1-166L913,3586.1s-78.8,50-92.7,50c-14.5-6.8-5.3-40.9-5.3-40.9l71.5-46.3,32.8-72.1Z"/><path class="cls-33" d="M1042.9,3360.9a154.46,154.46,0,0,0,19.4,40.8c13.6,20.1,31.8,24.6,31.8,24.6l10.2,24.6-14.3,12.4-25-13.3v-15.2s-26.8-20.5-29.5-30.2c-1-3.4-6.6-8.8-7.8-14.4-2.2-10,0-20.5,0-20.5Z"/><path class="cls-26" d="M947.3,3319.2s-13.4,7.9-20.7,37.6,6,43.4,6,55.3-7,52.8-13.2,64.7c35.4,1.5,84.5,2.2,108.3-8.2,4.3-34.1-1-89.5-1-89.5l16.2-18.2s-37.5-42.2-57.5-46c-30.5-5.7-38.1,4.3-38.1,4.3"/><path class="cls-33" d="M1011.9,3246.4c0,30.6-16.6,55.3-47,55.3a55.3,55.3,0,0,1,0-110.6c30.3,0,47,24.7,47,55.3"/><polygon class="cls-33" points="943.2 3283.8 944.4 3322.9 996.6 3346.7 974.2 3283.6 943.2 3283.8"/><path class="cls-16" d="M913.8,3266.5s44.9-48.9,90.4-52.5c25.2-2,37.8-3.1,44.1-3.8a5.38,5.38,0,0,0,4.8-5.9c0-.2-.1-.4-.1-.6a5.35,5.35,0,0,0-6.1-4.2l-47.8,4.1s-13-25.6-30.7-28-54.4,23.5-58.3,33.4c-3.9,9.7-10.5,19.9,3.7,57.5"/><path class="cls-33" d="M934.6,3236.1a13.4,13.4,0,1,1-13.4,13.4,13.4,13.4,0,0,1,13.4-13.4"/><path class="cls-26" d="M910.1,3680.9a29.5,29.5,0,1,1-29.5,29.5,29.49,29.49,0,0,1,29.5-29.5"/><path class="cls-16" d="M910,3687.9a22.6,22.6,0,1,1-22.6,22.6,22.58,22.58,0,0,1,22.6-22.6"/><path class="cls-26" d="M1097.2,3680.9a29.5,29.5,0,1,1-29.5,29.5,29.49,29.49,0,0,1,29.5-29.5"/><path class="cls-16" d="M1097.1,3687.9a22.6,22.6,0,1,1-22.6,22.6,22.58,22.58,0,0,1,22.6-22.6"/><path class="cls-26" d="M1087,3666.4l-35.9,48.5H910.8a4.5,4.5,0,0,1,0-9l125.7-.7.2-7a13.12,13.12,0,0,1,4.4-9.5c3-2.6,7.5-4.4,13.8-1.6,2.1-2.5,29.9-38.1,29.9-38.1Z"/><line class="cls-37" x1="1062.9" y1="3534.8" x2="1091.2" y2="3674.7"/><line class="cls-41" x1="1046.3" y1="3454.9" x2="1062.2" y2="3531.8"/><path class="cls-16" d="M1068.6,3537.8l-10.1,1.9a5.09,5.09,0,0,1-5.9-4l-.3-1.6a5.09,5.09,0,0,1,4-5.9l10.1-1.9a5.09,5.09,0,0,1,5.9,4l.3,1.6a5.09,5.09,0,0,1-4,5.9"/><path class="cls-16" d="M1091.2,3644.8l-10.1,1.9a5.09,5.09,0,0,1-5.9-4l-.3-1.6a5.09,5.09,0,0,1,4-5.9l10.1-1.9a5.09,5.09,0,0,1,5.9,4l.3,1.6a5,5,0,0,1-4,5.9"/><path class="cls-26" d="M1095.3,3668.8l-8.4,2a4,4,0,0,0-3,4.8v.1l9.1,36.6a5.64,5.64,0,0,0,11.1-1.3l-5.4-39.9a2.77,2.77,0,0,0-3.3-2.3c0-.1,0-.1-.1,0"/><path class="cls-26" d="M942.1,3709.8a32.78,32.78,0,0,0-50.8-27.4,3,3,0,0,1-4.1-.7,2.91,2.91,0,0,1,.4-4.2l.2-.2a38.83,38.83,0,0,1,54,9.8,38,38,0,0,1,6.8,19.8,38.52,38.52,0,0,1-.4,8.3l-6.4-1.6a16.25,16.25,0,0,0,.3-3.8"/><rect class="cls-26" x="1045.6" y="3454.2" width="36.1" height="8.3" transform="translate(-607.44 249.14) rotate(-10.41)"/><path class="cls-16" d="M1033,3462.7l-23.1,4.3a3.39,3.39,0,0,1-3.9-2.7l-1.4-7.4a3.39,3.39,0,0,1,2.7-3.9l23.1-4.3a3.39,3.39,0,0,1,3.9,2.7l1.4,7.4a3.39,3.39,0,0,1-2.7,3.9"/><path class="cls-16" d="M1087.4,3452.6l-23.1,4.3a3.39,3.39,0,0,1-3.9-2.7l-1.4-7.4a3.39,3.39,0,0,1,2.7-3.9l23.1-4.3a3.39,3.39,0,0,1,3.9,2.7l1.4,7.4a3.45,3.45,0,0,1-2.7,3.9"/><path class="cls-33" d="M971.6,3378.1c10.9,16.9,25,38.5,25,38.5l62,30.5-4.3,25.3-26.6-3.7L1019,3451l-50.8-16.2-28.5-33.9Z"/><path class="cls-26" d="M672.2,3769.2s4.7,12.6-32.5,10.3-36.5.3-38.6-5.7Z"/><path class="cls-16" d="M635.2,3745.3s-22.6,7.4-32.8,6.1c-5.9,7.5-1.4,22.3-1.4,22.3s58.5,6.4,68.3-1.1c6.6-4.7.6-11.5-5.9-12.8s-10.8-1.2-28.2-14.5"/><path class="cls-26" d="M513,3801.7s-8.9,10-24.2-24-17.2-32.2-12.8-36.9Z"/><path class="cls-16" d="M517,3757.8s-17-16.6-20.6-26.2c-9.4-1.8-20.4,9.1-20.4,9.1s21.4,54.8,32.6,60c7.2,3.7,10.5-4.8,8.6-11.1s-3.9-10.2-.2-31.8"/><path class="cls-36" d="M674.7,3531.9l-32.2,216.5s-17.8,8.1-43.2,8.5c.7-19.7,14.1-166,14.1-166l-95.2,166s-26.6-6.1-36.2-23.5c2.9-6.7,27.8-40.4,40.5-79.5,17.4-53.1,38.8-104.2,38.8-104.2Z"/><polygon class="cls-33" points="580.5 3404.7 530.1 3473.6 484.4 3502.8 466 3502.8 466 3533.8 491.2 3533.8 500.4 3517.4 547.6 3490.9 590.2 3444.4 580.5 3404.7"/><path class="cls-33" d="M684.9,3433.9a154.46,154.46,0,0,0,19.4,40.8c13.6,20.1,31.8,24.6,31.8,24.6l10.2,24.6L732,3536.3,707,3523v-15.2s-26.8-20.5-29.5-30.2c-1-3.4-6.6-8.8-7.8-14.4-2.2-10,0-20.5,0-20.5Z"/><path class="cls-27" d="M589.3,3392.2s-35.9,21.3-41.1,57c0,0,18.1,27.3,20.2,35.8.5,1.9,6.2-1.7,6.2,0,0,11.9-7,52.8-13.2,64.7,35.4,1.5,92.4,2.1,116.1-8.4-7.8-49.6-8.6-82.8-8.6-82.8l21.8-14.1s-21.1-53.3-63.3-56.6c-30.9-2.3-38.1,4.4-38.1,4.4"/><path class="cls-33" d="M653.9,3319.4c0,30.6-16.6,55.3-47,55.3a55.3,55.3,0,0,1,0-110.6c30.3,0,47,24.7,47,55.3"/><path class="cls-33" d="M585.2,3356.8l1.2,39.1,25.4,14.4a10,10,0,0,0,13.5-3.7,10.76,10.76,0,0,0,1.3-4.3l.9-14.4-11.1-31.4Z"/><path class="cls-27" d="M555.8,3339.5s44.9-48.9,90.4-52.5c25.2-2,37.8-3.1,44.1-3.8a5.38,5.38,0,0,0,4.8-5.9c0-.2-.1-.4-.1-.6a5.35,5.35,0,0,0-6.1-4.2l-47.8,4.1s-13-25.6-30.7-28-54.4,23.5-58.3,33.4c-3.9,9.7-10.5,19.9,3.7,57.5"/><path class="cls-33" d="M576.6,3309.1a13.4,13.4,0,1,1-13.4,13.4,13.4,13.4,0,0,1,13.4-13.4"/><path class="cls-26" d="M552.1,3754.9a29.5,29.5,0,1,1-29.5,29.5,29.49,29.49,0,0,1,29.5-29.5"/><path class="cls-27" d="M552,3761.9a22.6,22.6,0,1,1-22.6,22.6,22.58,22.58,0,0,1,22.6-22.6"/><path class="cls-26" d="M739.2,3754.9a29.5,29.5,0,1,1-29.5,29.5,29.49,29.49,0,0,1,29.5-29.5"/><path class="cls-27" d="M739.1,3761.9a22.6,22.6,0,1,1-22.6,22.6,22.58,22.58,0,0,1,22.6-22.6"/><path class="cls-16" d="M729,3740.4l-35.9,48.5H552.8a4.5,4.5,0,0,1,0-9l125.7-.7.2-7a13.12,13.12,0,0,1,4.4-9.5c3-2.6,7.5-4.4,13.8-1.6,2.1-2.5,29.9-38.1,29.9-38.1Z"/><line class="cls-42" x1="704.9" y1="3608.8" x2="733.2" y2="3748.7"/><line class="cls-38" x1="688.3" y1="3528.9" x2="704.2" y2="3605.8"/><path class="cls-26" d="M727.8,3618.7l-10.1,1.9a5.09,5.09,0,0,1-5.9-4l-.3-1.6a5.09,5.09,0,0,1,4-5.9l10.1-1.9a5.09,5.09,0,0,1,5.9,4l.3,1.6a4.9,4.9,0,0,1-4,5.9"/><path class="cls-26" d="M733.2,3718.9l-10.1,1.9a5.09,5.09,0,0,1-5.9-4l-.3-1.6a5.09,5.09,0,0,1,4-5.9l10.1-1.9a5.09,5.09,0,0,1,5.9,4l.3,1.6a5.14,5.14,0,0,1-4,5.9"/><path class="cls-16" d="M737.3,3742.8l-8.4,2a4,4,0,0,0-3,4.8v.1l9.1,36.6a5.64,5.64,0,0,0,11.1-1.3l-5.4-39.9a2.77,2.77,0,0,0-3.3-2.3c0-.1,0-.1-.1,0"/><path class="cls-16" d="M584.1,3783.8a32.78,32.78,0,0,0-50.8-27.4,3,3,0,0,1-4.1-.7,2.91,2.91,0,0,1,.4-4.2l.2-.2a38.83,38.83,0,0,1,54,9.8,38,38,0,0,1,6.8,19.8,38.52,38.52,0,0,1-.4,8.3l-6.4-1.6a16.25,16.25,0,0,0,.3-3.8"/><rect class="cls-16" x="686.92" y="3529.8" width="36.1" height="8.3" transform="translate(-627 185.57) rotate(-10.41)"/><path class="cls-16" d="M675,3536.8l-23.1,4.3a3.39,3.39,0,0,1-3.9-2.7l-1.4-7.4a3.39,3.39,0,0,1,2.7-3.9l23.1-4.3a3.39,3.39,0,0,1,3.9,2.7l1.4,7.4a3.37,3.37,0,0,1-2.7,3.9"/><path class="cls-16" d="M729.4,3526.6l-23.1,4.3a3.39,3.39,0,0,1-3.9-2.7l-1.4-7.4a3.39,3.39,0,0,1,2.7-3.9l23.1-4.3a3.39,3.39,0,0,1,3.9,2.7l1.4,7.4a3.39,3.39,0,0,1-2.7,3.9"/><path class="cls-43" d="M2563.1,3446.7v40.9a10.65,10.65,0,0,0,10.5,10.6l360.1,3.2a10.67,10.67,0,0,0,10.7-10.5v-40a14.4,14.4,0,0,0-14.4-14.4H2573.4a10.14,10.14,0,0,0-10.3,10.2"/><path class="cls-43" d="M2535.8,3572.9v67.8a6.2,6.2,0,0,0,12.4,0v-67.8Z"/><path class="cls-43" d="M2961.7,3574.1v67.8a6.2,6.2,0,1,0,12.4,0v-67.8Z"/><path class="cls-43" d="M2571.3,3524.5h365a23.43,23.43,0,0,1,14.4,4.9l43.2,33.3H2514.8l41.9-33.1a23.37,23.37,0,0,1,14.6-5.1"/><path class="cls-16" d="M2514.7,3571.1v-8.4h479.5l-.2,8.6a9.45,9.45,0,0,1-9.5,9.3H2524.2a9.5,9.5,0,0,1-9.5-9.5Z"/><polygon class="cls-44" points="2608.8 3545.1 2542.9 3608.7 2567.6 3638.2 2627.9 3582.6 2608.8 3545.1"/><path class="cls-35" d="M2663.6,3497l-1.9,3.8s-49.4,7.1-59.6,22.5,30.3,99.6,30.3,99.6l39.9-3.6-14.5-62.3s48.6,7.1,57.8,3.3,34.3-20.4,32-57c-2.5-36.7-84-6.3-84-6.3"/><path class="cls-26" d="M2678.2,3379.3s-37.7-11-76.2,34.7c2.4,8.7,21.3,42.7,21.3,42.7h20.9s16.5,22.4,12,45c16.8-1.9,49-15.5,96,12.2-1.8-24.5-9.5-112.4-74-134.6"/><path class="cls-33" d="M2608.8,3301c23.5,0,42.5,19.9,42.5,44.5s-19,44.5-42.5,44.5-42.5-19.9-42.5-44.5,19-44.5,42.5-44.5"/><polygon class="cls-33" points="2618.9 3383 2626.9 3412.8 2644.6 3384 2637.2 3368.2 2618.9 3383"/><polygon class="cls-33" points="2642.2 3416.8 2579.3 3518.6 2561 3531.4 2561 3547.8 2585.2 3544.7 2593.2 3526.7 2660.1 3442.5 2642.2 3416.8"/><polygon class="cls-33" points="2603.5 3412.8 2613.7 3440.8 2536 3503.4 2526.2 3519.8 2506.3 3519.8 2498.2 3512.2 2514.2 3494.5 2526.2 3492.8 2603.5 3412.8"/><path class="cls-16" d="M2650.6,3353.7l-114.4-11.2a3.67,3.67,0,0,1-3.3-3.6,3.59,3.59,0,0,1,3.6-3.6h.3l30.2,2.2,4-19.8a23.2,23.2,0,0,1,16.1-17.8c5.3-1.5,12.3-2.3,21.6-1.2a57,57,0,0,1,36.6,19.2,23,23,0,0,1,5.7,15.6Z"/><path class="cls-27" d="M2469.5,3596a9.82,9.82,0,1,1-2.8,13.6,9.84,9.84,0,0,1,2.8-13.6"/><path class="cls-27" d="M2483.8,3617.8a9.82,9.82,0,1,1-2.8,13.6,9.84,9.84,0,0,1,2.8-13.6"/><path class="cls-27" d="M2498.1,3639.7a9.82,9.82,0,1,1-2.8,13.6,9.71,9.71,0,0,1,2.8-13.6"/><path class="cls-27" d="M2512.1,3661.1a9.82,9.82,0,1,1-2.8,13.6,9.84,9.84,0,0,1,2.8-13.6"/><path class="cls-27" d="M2567.6,3638.2s-31.7,27.4-37,26.6c-5-.8-38.7-43.6-42.8-61.9a8.67,8.67,0,0,1,1.3-7c2.9-3.9,8.5-4.4,11.6-1.5,3.9,3.7,29.5,30.1,29.5,30.1l13.7-16.9"/><polygon class="cls-45" points="2520.8 3613.7 2538.8 3618.8 2533.1 3635.8 2523.4 3632.6 2520.8 3613.7"/><path class="cls-45" d="M2491.4,3610.9c-6.3-4.6-12.8-9.3-15.5-11.2a2.44,2.44,0,0,0-2.6,0,2.29,2.29,0,0,0-.7,3.2l54.1,82.7s14.1.9,4-20.6c0,0-31.1-48.1-39.3-54.1"/><path class="cls-27" d="M2592.7,3669.7a9.8,9.8,0,1,1-9.6,10,10,10,0,0,1,9.6-10"/><path class="cls-27" d="M2618.7,3669.2a9.8,9.8,0,1,1-9.6,10,9.82,9.82,0,0,1,9.6-10"/><path class="cls-27" d="M2644.9,3668.7a9.8,9.8,0,1,1-9.6,10,9.69,9.69,0,0,1,9.6-10"/><path class="cls-27" d="M2670.5,3668.2a9.8,9.8,0,1,1-9.6,10,9.82,9.82,0,0,1,9.6-10"/><path class="cls-27" d="M2671,3619.1s6.4,41.4,2.9,45.4c-3.3,3.8-57.5,9.7-75.1,3.5a8.57,8.57,0,0,1-5.3-4.9c-1.7-4.5.8-9.5,4.9-10.6,5.2-1.4,41.1-9,41.1-9l-7.1-20.6"/><polygon class="cls-45" points="2625.4 3645.8 2639.2 3633.1 2650.7 3647 2642.7 3653.5 2625.4 3645.8"/><path class="cls-45" d="M2607.4,3669.1c-7.2,2.9-14.7,5.9-17.7,7.2a2.16,2.16,0,0,0-1.4,2.2,2.35,2.35,0,0,0,2.4,2.3l98.8-2s8.2-11.5-15.3-14.3c-.1,0-57.4.8-66.8,4.6"/><path class="cls-33" d="M2618.5,3341.3a11.7,11.7,0,1,1-11.7,11.7,11.59,11.59,0,0,1,11.7-11.7"/><path class="cls-26" d="M2334.6,3397s32.6,85.4,32.3,101.5-1.4,72.3-1.4,72.3H2321s.3-41.9-8.8-73.3c-6.2-21.3-18.4-35.1-27.1-39.7-15.6,30.5-33.4,109-33.4,109h-44.5l16.9-165.4Z"/><path class="cls-46" d="M2314.5,3303.2s4.1-39.8,26.1-35.6,101.6,81.7,101.6,81.7,24.1-3.1,23,14.7-14.7,30.4-38.8,0c-23.9-30.4-111.9-60.8-111.9-60.8"/><path class="cls-27" d="M2351.4,3268.8l-44.7-21.6-58.3,10.8s-33.3,9.4-33.9,39.2a118.45,118.45,0,0,0,11.6,53l-2,48.1s64.4,35.2,115.8,0c-6.8-29.1-7.8-89.8-7.8-89.8s1-35,19.3-39.7"/><path class="cls-46" d="M2264.8,3329.3s15.9,52.5,66.8,72.4c14.4,1.1,32.1,0,32.1,0s25.4,6.6,17.7,23.2-47.6,0-47.6,0-66.8,3.9-98.9-75.7c.1-1.1-5.5-30.9,29.9-19.9"/><path class="cls-46" d="M2327,3224.9s-2.4,31.3-7.8,44-18.3,15-32.5,11.7-40.1-18.8-34.9-70c19.4-7.1,70.4-5.2,70.4-5.2Z"/><path class="cls-27" d="M2332.4,3220.8s-3.4-48.3-42.1-48.3c-62.9,0-41.9,68.3-41.9,68.3l45.2-20Z"/><path class="cls-47" d="M2358.2,3233.3s-33.9,18.9-56.2-3.5a91.08,91.08,0,0,1-12-14.9l42.5-4.1,7.4,6.5Z"/><path class="cls-27" d="M2418.9,3634.6a11.7,11.7,0,1,1-11.7,11.7,11.65,11.65,0,0,1,11.7-11.7"/><path class="cls-27" d="M2388,3634.6a11.7,11.7,0,1,1-11.7,11.7,11.65,11.65,0,0,1,11.7-11.7"/><path class="cls-27" d="M2356.9,3634.6a11.7,11.7,0,1,1-11.7,11.7,11.65,11.65,0,0,1,11.7-11.7"/><path class="cls-27" d="M2326.4,3634.6a11.7,11.7,0,1,1-11.7,11.7,11.65,11.65,0,0,1,11.7-11.7"/><path class="cls-16" d="M2367.4,3568.4l-45.7-3.8s-3.6,61,.7,65.7,76.7,10.9,92.8.7c6.4-6.1,3-15.3-3.2-16.8s-49.1-9.7-49.1-9.7l2-36.1"/><path class="cls-48" d="M2367.4,3568.4l-45.7-3.8s-3.6,61,.7,65.7,76.7,10.9,92.8.7c6.4-6.1,3-15.3-3.2-16.8s-49.1-9.7-49.1-9.7l2-36.1"/><path class="cls-49" d="M2402.7,3634.2c11.3,4.2,24.2,8.8,24.2,8.8v4.7H2299.7s-4.4-13.4,23.6-17.4c0,0,68.2-.3,79.4,3.9"/><path class="cls-27" d="M2305.1,3634.6a11.7,11.7,0,1,1-11.7,11.7,11.65,11.65,0,0,1,11.7-11.7"/><path class="cls-27" d="M2274.2,3634.6a11.7,11.7,0,1,1-11.7,11.7,11.65,11.65,0,0,1,11.7-11.7"/><path class="cls-27" d="M2243.1,3634.6a11.7,11.7,0,1,1-11.7,11.7,11.65,11.65,0,0,1,11.7-11.7"/><path class="cls-27" d="M2212.6,3634.6a11.7,11.7,0,1,1-11.7,11.7,11.65,11.65,0,0,1,11.7-11.7"/><path class="cls-16" d="M2253.6,3568.4l-45.7-3.8s-3.6,61,.7,65.7,76.7,10.9,92.8.7c6.4-6.1,3-15.3-3.2-16.8s-49.1-9.7-49.1-9.7l2-36.1"/><path class="cls-48" d="M2253.6,3568.4l-45.7-3.8s-3.6,61,.7,65.7,76.7,10.9,92.8.7c6.4-6.1,3-15.3-3.2-16.8s-49.1-9.7-49.1-9.7l2-36.1"/><path class="cls-49" d="M2289.4,3634.2c11.3,4.2,24.6,8.8,24.6,8.8v4.7H2186.4s-4.4-13.4,23.6-17.4c0,0,68.1-.3,79.4,3.9"/><polygon class="cls-27" points="2402 3394.3 2402 3425 2374.5 3417.3 2373.2 3421.5 2404.3 3431.8 2411 3429.3 2411 3392.4 2402 3394.3"/><path class="cls-16" d="M2380.3,3402.1s51.5-8.1,62.4-14.5c-2.1-10.9-20.5-56.9-76.6-35.6-45.5,17.3-16.9,60.7-16.9,60.7s13.4,15.2,23.3,11.6,7.8-22.2,7.8-22.2"/><polygon class="cls-50" points="2583.3 2501.2 2572.6 2562.5 2547.4 2568.4 2546.3 2573.4 2549.3 2579.5 2588.7 2575.9 2613.7 2516.1 2583.3 2501.2"/><path class="cls-35" d="M2910.5,2652.6s-3.9,8.7,0,13.7c3.2,4.1,30,6,39.9,6.6a7.52,7.52,0,0,0,6-2.5l2-2.2a7.6,7.6,0,0,0,1.6-7.1,7.49,7.49,0,0,0-5.9-5.2l-18.4-3.3Z"/><polygon class="cls-35" points="2924.1 2562.1 2935.7 2652.5 2908.1 2655.6 2897.7 2608.9 2904.3 2568.5 2924.1 2562.1"/><ellipse class="cls-51" cx="2680.2" cy="2501.2" rx="20.4" ry="40.9"/><ellipse class="cls-52" cx="2567.8" cy="2553.2" rx="23.8" ry="47.6"/><ellipse class="cls-53" cx="2904.3" cy="2655.6" rx="19" ry="37.9"/><ellipse class="cls-54" cx="2807.1" cy="2581.2" rx="18.1" ry="36.1"/><line class="cls-55" x1="2569.7" y1="2553.2" x2="2587.9" y2="2440.6"/><path class="cls-27" d="M2616.3,2534.9l-36.5-32.4,3.7-21.3,44.9,34.3,47.4-16.4a4.91,4.91,0,0,1,6.2,3,4.15,4.15,0,0,1,.3,1.6,5.1,5.1,0,0,1-2.9,4.5Z"/><path class="cls-35" d="M2672.9,2500.1l-12.7-47.1-31.2,9.1.5-3.8-41.1,4.3-2.6,20.3,33,25.2s1.3-2.4,6.7-13.6l.2.1,21.2,29.1a26.28,26.28,0,0,0,10.1,8.3l33.3,15.3v16a6.94,6.94,0,0,0,11.4,5.3l1.3-1.1a7,7,0,0,0,2.4-4.9l2.2-33.2Z"/><path class="cls-16" d="M2633.4,2374.8s-22.4,5.3-31.1,15.3-14.4,77.9-14.4,77.9,36.6,20.3,74.7-5.9c0,0,39.1-84-29.2-87.3"/><line class="cls-56" x1="2549" y1="2440.8" x2="2625" y2="2440.8"/><path class="cls-25" d="M2599.8,2394.5l-41.1,36-9.4,6.9,1.5,10.1a5.92,5.92,0,0,0,5.9,5.1h6.2a6.59,6.59,0,0,0,6.2-4.4l2.8-8v-7.4l21.9-11.8Z"/><polygon class="cls-25" points="2625.3 2359.3 2621.1 2381.2 2622.5 2392.2 2647 2379.5 2647 2353.3 2625.3 2359.3"/><path class="cls-25" d="M2648.8,2396.5c1.7,18.4,19.5,18.3,19.5,18.3l-38.8,30.4-11.6,11.9a6.42,6.42,0,0,1-7.4,1.4l-8.4-3.7a4.57,4.57,0,0,1-2.6-5l2.7-14.2,18.1-1.8Z"/><path class="cls-25" d="M2627.9,2306.7a35.7,35.7,0,1,1-35.7,35.7,35.72,35.72,0,0,1,35.7-35.7"/><polygon class="cls-35" points="2923.2 2428.4 2931.4 2453.4 2924.1 2457.6 2912.3 2453.1 2916.7 2446.1 2923.2 2428.4"/><path class="cls-35" d="M2824.9,2655.2v8.8l15.6,25.4a9.4,9.4,0,0,0,7.9,4.4,9.19,9.19,0,0,0,8.6-5.9l.7-1.9a9.06,9.06,0,0,0,.4-5.4l-6.4-28.1Z"/><polyline class="cls-57" points="2807.1 2581.2 2876.2 2625.7 2903.1 2587.6"/><path class="cls-25" d="M2886.8,2392.5c20.7,0,37.4,18.3,37.4,40.9s-16.7,40.8-37.4,40.8-37.4-18.3-37.4-40.8,16.7-40.9,37.4-40.9"/><path class="cls-25" d="M2923.2,2475l11.1,14.9,48.4-47.9,7.3-2.5a10.22,10.22,0,0,0,6.9-9.6v-3.7a10.5,10.5,0,0,0-7.8-10.2l-.8-.2a11.51,11.51,0,0,0-13.2,5.8l-5.8,11Z"/><polygon class="cls-3" points="2840.6 2552.9 2821.7 2655.6 2854.9 2659.9 2879 2586.9 2885.5 2600.5 2898 2584.8 2898 2564.8 2840.6 2552.9"/><path class="cls-25" d="M2859.2,2480.5l-15.8,12.1-43.2-57.4-16.9-11.4a9.57,9.57,0,0,1-3.5-11.5l1-2.4a12.44,12.44,0,0,1,14.9-7.3l4.8,1.3a13.1,13.1,0,0,1,9.2,9.3l3.4,13Z"/><path class="cls-35" d="M2889,2476.9l-33.8-5.1-22,29.4,12.9,10.4-10.2,41.2c40.9,29.2,102.1,9.7,102.1,9.7l-8.3-50.9,14.9-6.3-20.5-33.4-35.2,7Z"/><line class="cls-57" x1="2904" y1="2647.8" x2="2904" y2="2552.8"/><line class="cls-57" x1="2865" y1="2544.8" x2="2943" y2="2544.8"/><polygon class="cls-25" points="2876.4 2468.2 2874.1 2481.1 2894.4 2495.1 2903.7 2481.2 2897.6 2462.7 2876.4 2468.2"/><path class="cls-27" d="M2850.2,2450.8s24.6-49.9,52.1-47.3c21,2,21.8,29,21.8,29s15-17.4,1.9-40c-12.4-21.3-38.1-24.1-51.8-18.2-14,6-49.3,26.8-24,76.5"/><polygon class="cls-35" points="2865.2 2419.9 2874.3 2455.6 2867.1 2462.7 2850.2 2450.8 2855.1 2441.9 2865.2 2453.4 2859.2 2428.4 2865.2 2419.9"/><polygon class="cls-27" points="2633 2330.5 2633 2360.6 2660.2 2353.1 2661.6 2357.2 2631.3 2367.3 2625 2364.9 2625 2328.6 2633 2330.5"/><path class="cls-58" d="M2645.1,2341.7s-50.6-8-61.4-14.2c2.1-10.8,20.2-55.9,75.2-35,44.7,17,16.6,59.6,16.6,59.6s-13.2,14.9-22.9,11.4-7.5-21.8-7.5-21.8"/><path class="cls-26" d="M4280.6,2849l37.3,175.8-45.9,10.4s-32.3-120.7-41.1-125.4l-61,110.6-45.2-2.5,45.2-164.6Z"/><path class="cls-46" d="M4260.6,2755.2s4.1-39.8,26.1-35.6,101.6,81.7,101.6,81.7,24.1-3.1,23.1,14.7-14.7,30.4-38.8,0-112-60.8-112-60.8"/><path class="cls-16" d="M4297.4,2720.8l-44.7-21.6-58.3,10.8s-37.5,7.8-30.1,36.7c9.7,38.1,2.3,109.4,2.3,109.4s67.8,29.4,119.2-5.8c-6.8-29.1-7.8-89.8-7.8-89.8s1.1-35,19.4-39.7"/><path class="cls-46" d="M4273,2676.9s-2.4,31.4-7.8,44-18.3,15-32.5,11.7-40.1-18.8-35-70c19.5-7.1,70.4-5.2,70.4-5.2Z"/><polygon class="cls-27" points="4230 2675.7 4230 2710.2 4198.9 2701.5 4197.3 2706.3 4232.3 2717.8 4240 2715 4240 2673.6 4230 2675.7"/><path class="cls-58" d="M4216.2,2688.5s57.9-9.1,70.1-16.2c-2.4-12.3-23.1-63.9-86-40-51.1,19.4-19,68.1-19,68.1s15.1,17,26.1,13.1c11.2-4,8.8-25,8.8-25"/><path class="cls-46" d="M4163.3,2724.3a15.18,15.18,0,0,1,18.1,4.6c5.9,7.4,10.4,19.8-6.2,33.6-6.6,5.5-48.8,22.9-48.8,22.9l-42.5,40.6v20.8l-24.4,5.4-5.6-26.2,21.3-14.6,39.8-51.9c.1,0,28.3-26.6,48.3-35.2"/><path class="cls-27" d="M4374.9,3086.6a11.7,11.7,0,1,1-11.7,11.7,11.65,11.65,0,0,1,11.7-11.7"/><path class="cls-27" d="M4344,3086.6a11.7,11.7,0,1,1-11.7,11.7,11.65,11.65,0,0,1,11.7-11.7"/><path class="cls-27" d="M4312.9,3086.6a11.7,11.7,0,1,1-11.7,11.7,11.65,11.65,0,0,1,11.7-11.7"/><path class="cls-27" d="M4282.4,3086.6a11.7,11.7,0,1,1-11.7,11.7,11.65,11.65,0,0,1,11.7-11.7"/><path class="cls-16" d="M4316.9,3016.6l5.4,39.9s39.5,8.1,45.7,9.6,9.6,10.8,3.2,16.9c-16,10.2-88.5,3.7-92.8-1s-9.1-57.8-9.1-57.8Z"/><path class="cls-59" d="M4316.9,3016.6l5.4,39.9s39.5,8.1,45.7,9.6,9.6,10.8,3.2,16.9c-16,10.2-88.5,3.7-92.8-1s-9.1-57.8-9.1-57.8Z"/><path class="cls-49" d="M4358.7,3086.2c11.3,4.2,24.2,8.8,24.2,8.8v4.7H4255.7s-4.4-13.4,23.6-17.4c0,0,68.2-.3,79.4,3.9"/><path class="cls-27" d="M4213.1,3086.6a11.7,11.7,0,1,1-11.7,11.7,11.65,11.65,0,0,1,11.7-11.7"/><path class="cls-27" d="M4182.2,3086.6a11.7,11.7,0,1,1-11.7,11.7,11.65,11.65,0,0,1,11.7-11.7"/><path class="cls-27" d="M4151.1,3086.6a11.7,11.7,0,1,1-11.7,11.7,11.65,11.65,0,0,1,11.7-11.7"/><path class="cls-27" d="M4120.6,3086.6a11.7,11.7,0,1,1-11.7,11.7,11.65,11.65,0,0,1,11.7-11.7"/><path class="cls-16" d="M4125.9,3016.6s-13.6,61-9.3,65.7,76.7,10.9,92.8.7c6.4-6.1,3-15.3-3.2-16.8s-46.1-9.7-46.1-9.7l10-36.1Z"/><path class="cls-48" d="M4125.9,3016.6s-13.6,61-9.3,65.7,76.7,10.9,92.8.7c6.4-6.1,3-15.3-3.2-16.8s-46.1-9.7-46.1-9.7l10-36.1Z"/><path class="cls-49" d="M4197.4,3086.2c11.3,4.2,24.6,8.8,24.6,8.8v4.7H4094.4s-4.4-13.4,23.6-17.4c0,0,68.1-.3,79.4,3.9"/><path class="cls-27" d="M4466.1,3394.1a11.9,11.9,0,1,1-11.9,11.9,11.86,11.86,0,0,1,11.9-11.9"/><path class="cls-27" d="M4497.6,3394.1a11.9,11.9,0,1,1-11.9,11.9,11.86,11.86,0,0,1,11.9-11.9"/><path class="cls-27" d="M4529.2,3394.1a11.9,11.9,0,1,1-11.9,11.9,11.86,11.86,0,0,1,11.9-11.9"/><path class="cls-27" d="M4560.3,3394.1a11.9,11.9,0,1,1-11.9,11.9,11.86,11.86,0,0,1,11.9-11.9"/><path class="cls-27" d="M4573.9,3325.2s-5.2,59.8-9.5,64.6-78.1,11.1-94.5.8c-6.5-6.2-3.1-15.6,3.3-17.1s50.1-9.9,50.1-9.9l4.4-38.4"/><path class="cls-60" d="M4482.1,3393.8c-11.5,4.3-25.1,9-25.1,9v4.8h130s4.4-13.7-24-17.7c0-.1-69.4-.5-80.9,3.9"/><path class="cls-27" d="M4581.9,3394.1A11.9,11.9,0,1,1,4570,3406a11.86,11.86,0,0,1,11.9-11.9"/><path class="cls-27" d="M4613.5,3394.1a11.9,11.9,0,1,1-11.9,11.9,11.86,11.86,0,0,1,11.9-11.9"/><path class="cls-27" d="M4645.1,3394.1a11.9,11.9,0,1,1-11.9,11.9,11.86,11.86,0,0,1,11.9-11.9"/><path class="cls-27" d="M4676.2,3394.1a11.9,11.9,0,1,1-11.9,11.9,11.86,11.86,0,0,1,11.9-11.9"/><path class="cls-27" d="M4681,3322.8s3.6,62.2-.7,67-78.1,11.1-94.5.8c-6.5-6.2-3-15.6,3.3-17.1s50.1-9.9,50.1-9.9l-2-38.4"/><path class="cls-60" d="M4597.6,3393.8c-11.5,4.3-25.6,9-25.6,9v4.8h130.5s4.4-13.7-24-17.7c-.1-.1-69.5-.5-80.9,3.9"/><path class="cls-33" d="M4642,2912.2c22.3,0,40.4,19.2,40.4,42.9s-18.1,42.9-40.4,42.9-40.4-19.2-40.4-42.9,18.1-42.9,40.4-42.9"/><polygon class="cls-33" points="4582.3 3061 4522.9 3147.1 4509.5 3161.2 4517.3 3179.7 4539.8 3162.5 4537.6 3151.6 4579 3108.9 4593.9 3096.7 4601.5 3054.6 4582.3 3061"/><path class="cls-27" d="M4637.1,3017s29.8-4.5,39.1,4.4,18.9,48.5,18.9,48.5l-26.2,15.3,2,77.8s-60.1-10.2-97.1,0c2.6-16,8.4-108.5,8.4-108.5s7.7-38.7,54.9-37.5"/><path class="cls-33" d="M4663.3,3079s11.5-21.8,31.2-10.3c.6.6,7,50.4,7,50.4l-81.7,6-11.9,11.7h-19.7l12-28.4,19.6-1.3,47.2-6Z"/><path class="cls-33" d="M4633.1,2990.2l-5,26.1-6.2,7.3a15.07,15.07,0,0,0-3.2,12.6l.9,4.2a5,5,0,0,0,5.8,3.8,4.17,4.17,0,0,0,1.8-.8l29.7-20.6v-36.3Z"/><path class="cls-34" d="M4574.7,3156.8s-48.2,112.1-47.5,171.3c11.5,1.9,46.7,2.9,46.7,2.9s16.6-115.4,39.6-126.3c5.8,12.1,23.7,123,23.7,123l43.9-2.5L4673,3249l-2.2-92.2Z"/><path class="cls-27" d="M4574,2925.9l110.4,39.9,5.3-27.9s-10.6-30.3-37.9-34.1S4608,2926,4608,2926l-34-7Z"/><path class="cls-33" d="M4660.2,2949.9a9.5,9.5,0,1,1-9.5,9.5,9.37,9.37,0,0,1,9.5-9.5"/><path class="cls-33" d="M3954.9,3035.5c0,22.3-14.7,40.4-36,40.4a37.83,37.83,0,0,1-28.4-13,41.28,41.28,0,0,1-10.3-27.4c0-22.3,17.3-40.3,38.7-40.3s36,18,36,40.3"/><polyline class="cls-33" points="3870.5 3077.7 3891.9 3103.2 3909.9 3073.9 3892.1 3052.8"/><path class="cls-33" d="M3938.5,3124.1l11.4,27.2,55.6-8.2,11.4-7.3a6.87,6.87,0,0,1,6.8-.3l5,2.7a6.61,6.61,0,0,1,2.6,9,7.83,7.83,0,0,1-1.6,2l-7.5,6a7.33,7.33,0,0,1-4.7,1.7h-14.9s-52.2,23.3-60.5,19.5-24.9-36.1-24.9-36.1Z"/><path class="cls-33" d="M3824.7,3084.9l-81.3,36.9-26,9.4-4.6,7.1a5.14,5.14,0,0,0,1.5,7.1,3.55,3.55,0,0,0,.9.4l11.9,4.9a7.14,7.14,0,0,0,6.2-.5l17.6-10.7,92-37.8Z"/><path class="cls-16" d="M3870.5,3198.5s42.8,33.8,47,51-17.4,87.1-17.4,87.1l-37.1-6,6.6-65.5-54-33.8s-16.8,48.2-31.4,56.8-88-4.3-88-4.3l4.3-37.2,51.4-3.5,31.8-66.8,55.2-20.9Z"/><path class="cls-27" d="M3953.6,3016.9l-72.8,26.8s-5.3-9.8-5.3-24.6,9.1-32,31.7-34.7c22.6-2.5,44.7.1,46.4,32.5"/><path class="cls-26" d="M3860.3,3075.9c-13.5.2-35.7,4.4-45,10-3.1,6.8,10.2,33.7,10.2,33.7l-62.1,66.4s78.1-13.5,111.7,17.6c17.9-24,27.3-59.3,27.3-59.3l9.4,14.8,30-30.2s-5-21.2-42.8-43a72.92,72.92,0,0,0-38.7-10"/><path class="cls-61" d="M3981.4,3013.8h-29.1s-9,2.5-8.9,3c-6,2.2-13,5.7-14.7,9,0,0,19.5-5,32.5-6h20.2a3,3,0,0,0,3-3,3,3,0,0,0-3-3Z"/><path class="cls-33" d="M3903.4,3025.4c5.4,0,9.8,5.1,9.8,11.3s-4.4,11.3-9.8,11.3-9.8-5.1-9.8-11.3,4.3-11.3,9.8-11.3"/><path class="cls-16" d="M4012.7,3407.8l19.8-48a4.81,4.81,0,0,1,6.4-2.6,4.74,4.74,0,0,1,2.6,2.6l19.2,48Z"/><path class="cls-16" d="M4159.7,3408.8l19.8-48a4.81,4.81,0,0,1,6.4-2.6,4.74,4.74,0,0,1,2.6,2.6l19.2,48Z"/><path class="cls-16" d="M3696.7,3405.8l19.8-48a4.81,4.81,0,0,1,6.4-2.6,4.74,4.74,0,0,1,2.6,2.6l19.2,48Z"/><path class="cls-16" d="M3520.7,3405.8l19.8-48a4.81,4.81,0,0,1,6.4-2.6,4.74,4.74,0,0,1,2.6,2.6l19.2,48Z"/><path class="cls-27" d="M3947,3385.8a10.8,10.8,0,1,1-10.8,10.8,10.82,10.82,0,0,1,10.8-10.8"/><path class="cls-27" d="M3918.4,3385.8a10.8,10.8,0,1,1-10.8,10.8,10.69,10.69,0,0,1,10.8-10.8"/><path class="cls-27" d="M3889.6,3385.8a10.8,10.8,0,1,1-10.8,10.8,10.69,10.69,0,0,1,10.8-10.8"/><path class="cls-27" d="M3850.5,3391.3c0,6,4.8,16.1,10.8,16.1a10.85,10.85,0,1,0,.1-21.7h-.1c-6,.1-10.8-.4-10.8,5.6"/><path class="cls-27" d="M3862.3,3328.9s-8.6,43.3-4.6,47.6c3.7,4.1,63.6,14.7,82.9,7.5a9.4,9.4,0,0,0,5.7-5.5c1.8-5-1.1-10.5-5.6-11.6-5.7-1.4-45.5-9-45.5-9l7.1-25.5"/><polygon class="cls-45" points="3910.6 3360.1 3895.1 3346.5 3882.8 3362 3891.6 3369.1 3910.6 3360.1"/><path class="cls-45" d="M3930.9,3385.4c8,3,16.3,6.2,19.7,7.5a2.5,2.5,0,0,1,1.6,2.4,2.58,2.58,0,0,1-2.6,2.6l-108.9-5.3s-9.3-12.5,16.6-16.1c.1,0,63.2,5,73.6,8.9"/><path class="cls-27" d="M3625.5,3326.3a10.72,10.72,0,0,1,11.6-10,10.88,10.88,0,0,1-1.5,21.7,11,11,0,0,1-10.1-11.7"/><path class="cls-27" d="M3627.5,3297.7a10.88,10.88,0,0,1,21.7,1.5,10.88,10.88,0,0,1-21.7-1.5"/><path class="cls-27" d="M3629.5,3269a10.72,10.72,0,0,1,11.6-10,10.88,10.88,0,0,1-1.5,21.7,11.14,11.14,0,0,1-10.1-11.7"/><path class="cls-27" d="M3631.5,3240.8a10.72,10.72,0,0,1,11.6-10,10.87,10.87,0,0,1,10.1,11.6,10.72,10.72,0,0,1-11.6,10,11,11,0,0,1-10.1-11.6"/><path class="cls-27" d="M3707.3,3244.8s-45.2-9.4-49.8-5.7c-4.3,3.4-13.9,62.7-8,82.5a9.43,9.43,0,0,0,5.1,6.1c4.9,2.1,10.5-.4,12-4.8,1.8-5.6,12.2-44.8,12.2-44.8l22.3,8.9"/><polygon class="cls-45" points="3675.4 3293.4 3690.1 3278.9 3675.5 3265.6 3667.8 3273.9 3675.4 3293.4"/><path class="cls-45" d="M3648.7,3311.9c-3.6,7.8-7.4,15.8-8.9,19.1a2.57,2.57,0,0,1-4.9-1.2h0l7.7-108.6s13.1-8.4,14.9,17.6c0,0-4.1,63-8.8,73.1"/><path class="cls-27" d="M700.4,1080.7a8,8,0,1,1-8,8,8,8,0,0,1,8-8"/><path class="cls-27" d="M679.2,1080.7a8,8,0,1,1-8,8,8,8,0,0,1,8-8"/><path class="cls-27" d="M657.9,1080.7a8,8,0,1,1-8,8,7.9,7.9,0,0,1,8-8"/><path class="cls-27" d="M628.9,1084.8c0,4.4,3.6,12,8,12a8,8,0,0,0,0-16c-4.4-.1-8-.4-8,4"/><polygon class="cls-25" points="612.6 907.3 633.8 1044 662.4 1040.9 649.8 888.2 612.6 907.3"/><path class="cls-27" d="M663.1,1038.8l1.2,18.6s27.1,8.3,31.3,9.3c3.3.8,5.5,4.9,4.2,8.6a7.08,7.08,0,0,1-4.2,4.1c-14.3,5.4-58.6-2.5-61.4-5.5-2.9-3.2-2.7-31.3-2.7-31.3Z"/><polygon class="cls-45" points="673.4 1061.7 661.9 1051.6 652.8 1063.1 659.4 1068.3 673.4 1061.7"/><path class="cls-45" d="M688.5,1080.5c5.9,2.2,12.1,4.6,14.6,5.6a1.92,1.92,0,0,1-.7,3.7l-80.7-4s-6.9-9.2,12.3-11.9c0,0,46.7,3.6,54.5,6.6"/><path class="cls-27" d="M609.3,1087.4a8,8,0,1,1-8,8,8,8,0,0,1,8-8"/><path class="cls-27" d="M588,1087.4a8,8,0,1,1-8,8,8,8,0,0,1,8-8"/><path class="cls-25" d="M566.7,899.4l-5,69s-17.9,65.5-13.6,79.5,26.7-1.2,26.7-1.2l16-73,14.9-68.1Z"/><path class="cls-27" d="M566.7,1087.4a8,8,0,1,1-8,8,8,8,0,0,1,8-8"/><path class="cls-27" d="M537.7,1091.5c0,4.4,3.6,12,8,12a8,8,0,0,0,0-16c-4.4-.1-8-.5-8,4"/><path class="cls-27" d="M574.8,1046.7l-4,20.1s29.5,5.6,33.7,6.7c3.3.8,5.5,4.9,4.1,8.6a7.08,7.08,0,0,1-4.2,4.1c-14.3,5.4-58.6-2.5-61.4-5.5-2.9-3.2,3.4-35.3,3.4-35.3Z"/><polygon class="cls-45" points="582.3 1068.4 570.8 1058.3 561.7 1069.8 568.2 1075 582.3 1068.4"/><path class="cls-18" d="M576,675.8s-33.5,76.4-28.5,96.1,58.3,15.7,58.3,15.7l49.8-28-11.9-83.7H576Z"/><path class="cls-25" d="M644.9,735.6l33.4,36.1a17,17,0,0,1,1.8,20.7l-19,29.6,5.5,4.1a8.31,8.31,0,0,1,1.6,11.7c0,.1-.1.1-.2.2l-6.9,8.6-9.1.4-.8-28.8,12-31.8-20.7-11.9Z"/><path class="cls-45" d="M597.3,1087.1c5.9,2.2,12.1,4.6,14.6,5.6a1.92,1.92,0,0,1-.7,3.7l-80.7-3.9s-6.9-9.2,12.3-11.9c0-.1,46.8,3.6,54.5,6.5"/><path class="cls-25" d="M617.3,627.5c21.1,0,38.2,18.8,38.2,41.9s-17.1,41.9-38.2,41.9-38.2-18.8-38.2-41.9,17.2-41.9,38.2-41.9"/><path class="cls-16" d="M584.9,831.2s-18.2,27.2-18.7,69.8c13.8,5.5,38.6,9.8,38.6,9.8l4.7-12.4,3.7,10.9,39.7-5-.6-62.6Z"/><path class="cls-27" d="M617.3,721.3s-24.1,2.5-45.3,42c-2.5,4.7,18.3,11.7,19.9,17.7,4,15.4-3.5,30.6-3.5,30.6s-4.1,14.7-6.9,22.3C634.9,868.2,652,847,652,847V787.2s10.7-15.6,9-32.2-28.1-33.3-28.1-33.3Z"/><polygon class="cls-62" points="572 967.6 561.7 968.4 559.6 975.6 572 973.6 572 967.6"/><polygon class="cls-62" points="640.2 965.3 619.7 970 620.9 977.8 642.4 973.6 640.2 965.3"/><path class="cls-25" d="M572,763.3c-9.9,14.8-22.1,33.8-22.2,37.5-.2,6.1,21.3,51,21.3,51l.6,16.1,6.3,6.7a10.18,10.18,0,0,0,12.9,1.7l.3-.2a9.45,9.45,0,0,0,4.3-9.7l-2.6-15.1-9.4-7.5-6.2-42.2,16.2-22.5Z"/><path class="cls-25" d="M604.9,697.6l3.4,35.8s20.5,12.4,26,8.8,3-16.7,3-16.7l-13.5-30.9Z"/><path class="cls-16" d="M652.2,946.2c9.2,0,16.6,10.7,16.6,23.8s-7.4,23.8-16.6,23.8-16.6-10.7-16.6-23.8,7.4-23.8,16.6-23.8"/><path class="cls-16" d="M567.7,969.7c2.5-12.9,11.8-22,20.9-20.2s14.3,13.6,11.8,26.5-11.8,22-20.9,20.2-14.3-13.6-11.8-26.5"/><path class="cls-16" d="M588,696.3S567.4,686,580,651s56-21.2,56-21.2,23.7,9.5,32.8,27.2c-10.6,4.3-39.1,7.8-39.1,7.8l-8.3-3Z"/><path class="cls-25" d="M606.7,664.8a10.6,10.6,0,1,1-10.6,10.6,10.61,10.61,0,0,1,10.6-10.6"/><path class="cls-26" d="M596.7,731.8s46.2,42.7,55.3,87.1c-.1,6.8,0,20.3,0,20.3s-49-82.8-67.9-94.4c3.5-4.2,4.2-7.2,12.6-13"/><path class="cls-16" d="M600.2,683.8s-3.5,50.9,5.5,59S581.6,782,576,756.5s12.1-60.2,12.1-60.2Z"/><path class="cls-16" d="M3565.4,2068.4a4.7,4.7,0,1,1-4.7,4.7,4.76,4.76,0,0,1,4.7-4.7"/><path class="cls-16" d="M3554,2068.4a4.7,4.7,0,1,1-4.7,4.7,4.76,4.76,0,0,1,4.7-4.7"/><path class="cls-16" d="M3542.5,2068.4a4.7,4.7,0,1,1-4.7,4.7,4.76,4.76,0,0,1,4.7-4.7"/><path class="cls-16" d="M3531,2068.4a4.7,4.7,0,1,1-4.7,4.7,4.76,4.76,0,0,1,4.7-4.7"/><path class="cls-16" d="M3635.1,2068.4a4.7,4.7,0,1,1-4.7,4.7,4.76,4.76,0,0,1,4.7-4.7"/><path class="cls-16" d="M3623.6,2068.4a4.7,4.7,0,1,1-4.7,4.7,4.76,4.76,0,0,1,4.7-4.7"/><path class="cls-16" d="M3612.1,2068.4a4.7,4.7,0,1,1-4.7,4.7,4.76,4.76,0,0,1,4.7-4.7"/><path class="cls-16" d="M3600.7,2068.4a4.7,4.7,0,1,1-4.7,4.7,4.76,4.76,0,0,1,4.7-4.7"/><path class="cls-33" d="M3599.3,1804.5a39.3,39.3,0,1,1-39.3,39.3,39.31,39.31,0,0,1,39.3-39.3"/><path class="cls-16" d="M3633.4,1865.1l-80.5-58.6a3.24,3.24,0,0,1-.7-4.6,3.35,3.35,0,0,1,4.6-.8l16.9,10.6s19-13.9,30.1-14.4,28.3,14.1,34.8,24.1,9.1,23.9-5.2,43.7"/><path class="cls-33" d="M3551.5,1887.8l-31.3,61.7-5.6,4.5a5.15,5.15,0,0,0-1.6,5.6l1.3,3.9a5.72,5.72,0,0,0,7.1,3.6,3.54,3.54,0,0,0,.9-.4l6.8-3.6,2.6-10.5,28.2-35.3,2.8-18.8Z"/><path class="cls-16" d="M3540.7,1965.1l1.9,85.3-9.8,5.2a6.81,6.81,0,0,0-3.7,6.1v3.1l38.7.7,4-77.9,38.7,61.9-9.3,5.6a8,8,0,0,0-3.9,7.1l.1,3.3,42.3-.1-1.6-15.9-26.1-77Z"/><path class="cls-33" d="M3613.3,1840.4a9.5,9.5,0,1,1-9.5,9.5,9.5,9.5,0,0,1,9.5-9.5"/><path class="cls-26" d="M3563.6,1883.4c-8.1,1.9-12.1,4.4-12.1,4.4l5.4,15.5c-6.6,24.9-16.7,64.3-16.7,64.3s50.9,20.3,73.8,8.6c-2.5-14.2,5-51.4,5-51.4l-1.7,1.9c5.7-4.5,6.8-26.8,6.8-26.8s-39.6-21.4-60.5-16.5"/><path class="cls-33" d="M3607.2,1878.5l-8.4,20.8-18,4.7a3.49,3.49,0,0,1-4.3-2.5,5.7,5.7,0,0,1-.1-1.3l1.2-10.1,7-16.3Z"/><path class="cls-33" d="M3613,1923.1l1.4,18.2-13.3,20.9a6,6,0,0,0-.8,4.7l1.8,7.7a6.53,6.53,0,0,0,6.4,5.1h6l2.6-16.7,15.5-23.4s.3-22.1-8.5-39.8c-7.9,2.3-11.1,23.3-11.1,23.3"/><path class="cls-27" d="M4015.3,2055.2a9.8,9.8,0,1,1-9.8,9.8,9.82,9.82,0,0,1,9.8-9.8"/><path class="cls-27" d="M4041.2,2055.2a9.8,9.8,0,1,1-9.8,9.8,9.82,9.82,0,0,1,9.8-9.8"/><path class="cls-27" d="M4067.2,2055.2a9.8,9.8,0,1,1-9.8,9.8,9.82,9.82,0,0,1,9.8-9.8"/><path class="cls-27" d="M4093.8,2055.2a9.8,9.8,0,1,1-9.8,9.8,9.82,9.82,0,0,1,9.8-9.8"/><path class="cls-27" d="M4058.3,2013.9l1.5,16.2s-33.5,6.9-38.7,8.1c-4.1,1-6.7,5.9-5.1,10.5a8.51,8.51,0,0,0,5.1,4.9c17.4,6.6,71.5-3,74.9-6.7,3.6-3.9.9-33,.9-33Z"/><path class="cls-45" d="M4029.8,2054.9c-7.2,2.7-14.7,5.6-17.8,6.8a2.27,2.27,0,0,0,.8,4.4l98.3-4.8s8.4-11.3-15-14.5c.2.1-56.8,4.6-66.3,8.1"/><path class="cls-27" d="M3865.4,2009.9a9.8,9.8,0,1,1,6.2,12.4,9.85,9.85,0,0,1-6.2-12.4"/><path class="cls-27" d="M3889.9,2018.1a9.8,9.8,0,1,1,6.2,12.4,9.85,9.85,0,0,1-6.2-12.4"/><path class="cls-27" d="M3914.6,2026.3a9.8,9.8,0,1,1,6.2,12.4,9.85,9.85,0,0,1-6.2-12.4"/><path class="cls-27" d="M3939.9,2034.7a9.8,9.8,0,1,1,6.2,12.4,9.73,9.73,0,0,1-6.2-12.4"/><path class="cls-27" d="M3931.6,1978.1l-3.7,15.9s-34-4.1-39.3-4.5c-4.2-.3-8.2,3.5-8.1,8.3a8.26,8.26,0,0,0,3.3,6.3c14.5,11.8,68.8,19.7,73.1,17.3,4.6-2.6,11.3-31,11.3-31Z"/><path class="cls-45" d="M3891.6,2008c-7.7.3-15.7.7-19,.8a2.3,2.3,0,0,0-.6,4.5h0l94.8,26.5s11.6-8-9.6-18.5c0,.1-55.5-13.7-65.6-13.3"/><path class="cls-26" d="M4059.1,2013.9l36.6,2,3.4-158.1-32.6-26.3-59.4,9.1s-39.6,43.5-49,59.1-26.9,80.7-26.9,80.7l37.2,10,30-66.6,46.8-29.1Z"/><path class="cls-25" d="M4131.1,1797.9l10.4-44.4s43.1,24.9,46.2,32.2-12.3,74.7-12.3,74.7l5.9,9.8-5.5,13.5h-8.9a8.57,8.57,0,0,1-8.4-6.6l-6.1-24.7,8.8-52.1c.1.1-17.3.5-30.1-2.4"/><path class="cls-16" d="M4049.2,1731s73-2.1,113.1,35.1c-9.4,15-22.6,22.2-31.2,31.8-1.1,1.2-4.4-2.7-5.3-1.4-7.8,12.7-17.6,34.7-26.8,61.2-7.1,3.3-96.3-1.9-92.2-20.2,11.5-21.5,42.4-106.5,42.4-106.5"/><path class="cls-25" d="M4071.4,1676.1c7.3-23.2,29.2-37,49.1-30.8s30,30.1,22.8,53.3-29.2,37-49.1,30.8-30.1-30.1-22.8-53.3"/><path class="cls-16" d="M4073.1,1656.3c16,7.1,53.5,26.1,64.6,53a5.84,5.84,0,0,0,7.6,3.1,4.57,4.57,0,0,0,1.6-1.1c13.4-12.4,29.8-41.4,2.8-66.5-29-27-60.3-17.6-78.6,1.9a6,6,0,0,0,.2,8.5,17.39,17.39,0,0,0,1.8,1.1"/><path class="cls-16" d="M4122,1681.1l-5.1,28a4.65,4.65,0,0,0,2.8,5.1,4.06,4.06,0,0,0,3.4-.2l22.8-12.2Zm.1,27.9,3.5-16.6,8.5,9.7Z"/><polygon class="cls-25" points="4096.9 1719.8 4086 1736.7 4088 1751.8 4117.6 1748.1 4131.1 1711.8 4096.9 1719.8"/><path class="cls-25" d="M4049.2,1731s-4.4,17.1-16.1,43.1c0,0-15.7-12.1-40-3.3s-33.1,16.8-33.1,16.8l-10.7,15.8-11.7,4.5a6.4,6.4,0,0,1-8.2-3.7,5.87,5.87,0,0,1-.4-2.3V1787a8.61,8.61,0,0,1,4.6-7.5l16.6-8.5c0,.1,50.2-46.4,99-40"/><path class="cls-16" d="M4000.6,1922.2l-20-13.7c5.8-12.1,4.5-24.8-3.2-28.8-8-4.2-19.9,2.5-26.6,15.1s-5.6,26.2,2.4,30.5c6.9,3.7,16.6-.8,23.5-10.1l19.5,13.2Z"/><path class="cls-16" d="M4097.1,1952.8l-27.9,2.3c-1.7-13-9.4-22.7-17.9-22.1-9,.6-15.5,12.7-14.5,26.9s9.2,25.2,18.2,24.6c7.9-.6,13.8-9.8,14.5-21.5l27.5-4.2Z"/><path class="cls-9" d="M3684.8,2028.1a9.6,9.6,0,1,1-9.6,9.6,9.6,9.6,0,0,1,9.6-9.6"/><path class="cls-9" d="M3710.2,2028.1a9.6,9.6,0,1,1-9.6,9.6,9.6,9.6,0,0,1,9.6-9.6"/><path class="cls-9" d="M3735.7,2028.1a9.6,9.6,0,1,1-9.6,9.6,9.6,9.6,0,0,1,9.6-9.6"/><path class="cls-9" d="M3770.3,2033c0,5.3-4.3,14.3-9.6,14.3a9.6,9.6,0,1,1,0-19.2c5.3,0,9.6-.4,9.6,4.9"/><path class="cls-9" d="M3729,1985.7l.3,17.6s-33.8,6.8-38.9,8.1c-4,1-6.6,5.8-5,10.3a8.19,8.19,0,0,0,5,4.8c17.1,6.5,70.1-3,73.4-6.6,3.5-3.8,1.4-34.2,1.4-34.2Z"/><polygon class="cls-16" points="3714 2006.1 3727.8 1994.1 3738.7 2007.8 3730.8 2014.1 3714 2006.1"/><path class="cls-16" d="M3699.1,2027.8c-7.1,2.7-14.4,5.5-17.5,6.7a2.17,2.17,0,0,0-1.4,2.1,2.26,2.26,0,0,0,2.3,2.3l96.4-4.7s8.3-11-14.7-14.3c0,0-55.9,4.4-65.1,7.9"/><path class="cls-9" d="M3755.4,2030.3a9.6,9.6,0,1,1-9.6,9.6,9.6,9.6,0,0,1,9.6-9.6"/><path class="cls-9" d="M3780.8,2030.3a9.6,9.6,0,1,1-9.6,9.6,9.6,9.6,0,0,1,9.6-9.6"/><path class="cls-9" d="M3806.3,2030.3a9.6,9.6,0,1,1-9.6,9.6,9.6,9.6,0,0,1,9.6-9.6"/><path class="cls-9" d="M3840.9,2035.2c0,5.3-4.3,14.3-9.6,14.3a9.6,9.6,0,1,1,0-19.2c5.3,0,9.6-.4,9.6,4.9"/><path class="cls-9" d="M3797.1,1989.5l2.9,16s-33.8,6.9-38.9,8.1c-4,1-6.6,5.8-5,10.3a8.19,8.19,0,0,0,5,4.8c17.1,6.4,70.1-3,73.4-6.6,3.5-3.8-.8-34.2-.8-34.2Z"/><polygon class="cls-16" points="3784.6 2008.4 3798.4 1996.3 3809.3 2010.1 3801.4 2016.3 3784.6 2008.4"/><path class="cls-16" d="M3769.6,2030c-7.1,2.7-14.4,5.5-17.5,6.7a2.17,2.17,0,0,0-1.4,2.1,2.26,2.26,0,0,0,2.3,2.3l96.4-4.7s8.3-11-14.7-14.3c.1.1-55.8,4.5-65.1,7.9"/><path class="cls-25" d="M3750.9,1720.1l-17.6,40.2-30.5,35.1-9.3,1.9a6.57,6.57,0,0,0-4.8,4.2l-4.3,12.1a7,7,0,0,0,3.1,8.3l5.7,3.2a6.81,6.81,0,0,0,8.2-1.1l14.6-14.6v-5l32.4-22.5Z"/><path class="cls-63" d="M3830,1811.5l3.8,179.6c-29.7,11-36.4,0-36.4,0l-19.3-123.5-12.7,120.5c-23.6,12.2-36.2,0-36.2,0l7-176.4,50.4-11.6Z"/><path class="cls-25" d="M3775.7,1574.6c20.6,0,37.4,18.5,37.4,41.3s-16.7,41.3-37.4,41.3-37.4-18.5-37.4-41.3,16.7-41.3,37.4-41.3"/><path class="cls-26" d="M3783.8,1669.1s48.9,9.6,55.9,54.6c2.5,16-12.7,35.4-13.6,50.2-1.6,26.8,8.9,45,8.9,45l-99.2-2.4c-.1,0-14.4-150.4,48-147.4"/><path class="cls-25" d="M3808.3,1725.5l30.2-12.8,7.4,48.1-7.5,54.9,5.8,10.4a6.18,6.18,0,0,1,0,5.9l-3.9,7.1a4,4,0,0,1-5.4,1.6c-.1,0-.1-.1-.2-.1l-8.2-4.9-4.5-28.9v-42.2Z"/><path class="cls-25" d="M3769.7,1652.2l-3.2,26.5s-1,10.1,1.5,10.7c8.8,1.8,25.9-10.7,25.9-10.7v-36Z"/><path class="cls-27" d="M3741.1,1603.8s3-42.2,36.6-42.2c54.8,0,36.5,59.5,36.5,59.5l-39.4-17.3Z"/><path class="cls-47" d="M3718.7,1614.4s29.5,16.4,48.9-3a77.06,77.06,0,0,0,10.4-13l-37-3.5-6.5,5.6Z"/><path class="cls-27" d="M3406.6,2049.7a8,8,0,1,1-8,8,8,8,0,0,1,8-8"/><path class="cls-27" d="M3385.4,2049.7a8,8,0,1,1-8,8,7.9,7.9,0,0,1,8-8"/><path class="cls-27" d="M3364,2049.7a8,8,0,1,1-8,8,8,8,0,0,1,8-8"/><path class="cls-27" d="M3335,2053.8c0,4.4,3.6,12,8,12a8,8,0,0,0,0-16c-4.4-.1-8-.4-8,4"/><polygon class="cls-25" points="3318.7 1876.1 3336.8 1942.5 3339.5 2008.1 3368.5 2009.8 3366.7 1940.2 3356 1857 3318.7 1876.1"/><path class="cls-27" d="M3369.3,2007.8l-1.2,21.2s29.5,5.6,33.8,6.7c3.3.8,5.5,4.9,4.2,8.6a7.09,7.09,0,0,1-4.2,4.1c-14.3,5.4-58.7-2.5-61.4-5.5-2.9-3.2-.8-35.1-.8-35.1Z"/><polygon class="cls-45" points="3379.6 2030.7 3368.1 2020.6 3359 2032.1 3365.5 2037.3 3379.6 2030.7"/><path class="cls-45" d="M3394.7,2049.4c5.9,2.2,12.1,4.6,14.6,5.6a1.92,1.92,0,0,1-.7,3.7l-80.7-3.9s-6.9-9.2,12.3-11.9c-.1-.1,46.7,3.6,54.5,6.5"/><path class="cls-27" d="M3315.4,2056.4a8,8,0,1,1-8,8,8,8,0,0,1,8-8"/><path class="cls-27" d="M3294.1,2056.4a8,8,0,1,1-8,8,8,8,0,0,1,8-8"/><path class="cls-25" d="M3272.8,1868.2l-5,69.1s-17.9,65.5-13.6,79.6,26.7-1.2,26.7-1.2l16.1-73.1,14.9-68.1Z"/><path class="cls-27" d="M3272.8,2056.4a8,8,0,1,1-8,8,7.9,7.9,0,0,1,8-8"/><path class="cls-27" d="M3243.8,2060.5c0,4.4,3.6,12,8,12a8,8,0,0,0,0-16c-4.4-.1-8-.5-8,4"/><path class="cls-27" d="M3280.8,2015.6l-4,20.1s29.5,5.6,33.8,6.7c3.3.8,5.5,4.9,4.2,8.6a7.09,7.09,0,0,1-4.2,4.1c-14.3,5.4-58.7-2.5-61.4-5.5-2.9-3.2,3.4-35.3,3.4-35.3Z"/><polygon class="cls-45" points="3288.4 2037.3 3276.8 2027.2 3267.7 2038.7 3274.3 2044 3288.4 2037.3"/><path class="cls-45" d="M3303.4,2056.1c5.9,2.2,12.1,4.6,14.6,5.6a1.92,1.92,0,0,1-.7,3.7l-80.7-3.9s-6.9-9.2,12.3-11.9c0-.1,46.8,3.6,54.5,6.5"/><path class="cls-25" d="M3323.4,1596.1c21.1,0,38.2,18.8,38.2,41.9s-17.1,41.9-38.2,41.9-38.2-18.8-38.2-41.9,17.1-41.9,38.2-41.9"/><path class="cls-25" d="M3398.2,1739l-44.3-31.9-14.9,5.1,2.3,17.1s48.6,35.5,56.2,35,47.1-19.6,47.1-19.6l14.9-.5,7.4-6.9a7.46,7.46,0,0,0,1.2-9.4l-1.1-1.7a8.65,8.65,0,0,0-8.8-4l-14,2.4-7,8.6Z"/><path class="cls-16" d="M3290.9,1800s-18.3,27.2-18.7,69.8c13.8,5.5,38.6,9.8,38.6,9.8l4.7-12.4,3.7,11,39.7-5-.6-62.6Z"/><path class="cls-27" d="M3323.4,1689.9s-23.3,8.2-30.6,25.6,1.6,64.8,1.6,64.8-4.2,14.7-7,22.3c53.5,34.5,70.6,13.2,70.6,13.2V1756s10.8-15.6,9-32.2-28.1-33.4-28.1-33.4Z"/><path class="cls-25" d="M3341.2,1762.1l-24.1-46.7a12.77,12.77,0,0,0-23.4,1.6l-.7,2.1a12.82,12.82,0,0,0,1.1,10.8s28.6,53.3,33.9,56.3,55.1,4.3,55.1,4.3l14.6,6.8,11.3-3.3a7.15,7.15,0,0,0,5.1-7.5l-.2-2a10.85,10.85,0,0,0-7.6-9.4l-13.8-4.3-11,4.9Z"/><path class="cls-25" d="M3311,1666.2l3.4,35.8s20.6,12.4,26,8.8,3-16.7,3-16.7l-13.5-30.9Z"/><path class="cls-16" d="M3358.4,1915.1c9.2,0,16.6,10.7,16.6,23.8s-7.4,23.8-16.6,23.8-16.6-10.7-16.6-23.8,7.4-23.8,16.6-23.8"/><path class="cls-16" d="M3273.5,1938.5c2.5-12.9,11.9-22,20.9-20.2s14.3,13.6,11.8,26.6-11.9,22-20.9,20.2-14.3-13.7-11.8-26.6"/><polygon class="cls-16" points="3278 1936.5 3267.7 1937.3 3265.6 1944.5 3278 1942.5 3278 1936.5"/><polygon class="cls-16" points="3346.3 1934.2 3335.8 1938.9 3337 1946.6 3348.5 1942.5 3346.3 1934.2"/><path class="cls-16" d="M3294.1,1664.9s-20.6-10.3-8-45.3,56.1-21.2,56.1-21.2,23.8-3.2,32.8,14.6l-36,14.6-5.7-2.8Z"/><path class="cls-16" d="M3296.3,1608.6s-4.4-20.1-36.5-9-17.3,58.3-49.7,69.2c19.9,13.2,41.3,12.4,54.6-14.1,10-20.1,15.8-38.4,25.4-37.2s6.2-8.9,6.2-8.9"/><path class="cls-25" d="M3312.8,1633.4a10.6,10.6,0,1,1-10.6,10.6,10.61,10.61,0,0,1,10.6-10.6"/><path class="cls-3" d="M1135.6,2031.8a69.93,69.93,0,0,1-28.4-6.3c-15.5-6.8-29-18.6-36.9-32.2s-11-28.8-8.6-43.5c3.2-19.1,15-36.7,35.3-52.3l32.3,21.8c-30.6,23.6-29.1,39.3-29,46s16.6,37.5,38,28.4c32.7-13.9,17.4-37.9,11.5-46.2l30.9-22.1c6.1,8.5,12.6,13.3,19.3,14.3a24,24,0,0,0,16.5-3.4c12.6-10.3,11.1-27.6,6.1-33.9-17-21.5-45.5-8.5-45.5-8.4l-32.7-26.2c16.1-11.1,69.7-27.3,102.9,9,15.8,17.3,18.2,34.1,17.5,45.1-1.8,25-20.5,41.2-22.7,42.9l-.6.5c-1.9,1.4-17.4,12.7-38.4,12.7-1.6,0-3.3-.1-4.9-.2a56.14,56.14,0,0,1-1.7,9.1c-4.8,17.4-18.4,31.7-38.2,40.5a62.79,62.79,0,0,1-22.7,4.4"/><path class="cls-26" d="M1070.7,2011.3s-3.6,11.8,30.5,7.4,33.5-2,35.1-7.7Z"/><path class="cls-16" d="M1103.2,1987.1s21.1,5.4,30.5,3.6c5.9,6.5,2.6,20.4,2.6,20.4s-53.3,9.5-62.8,3.3c-6.4-3.9-1.3-10.5,4.6-12.1s10-2,25.1-15.2"/><path class="cls-26" d="M975,2005.1s-4.4,11.6,29.9,9.5,33.6.3,35.5-5.3Z"/><path class="cls-16" d="M1009,1983.1s20.7,6.8,30.1,5.6c5.5,6.9,1.3,20.5,1.3,20.5s-53.8,5.9-62.8-1c-6.1-4.3-.6-10.6,5.4-11.8s10-1.1,26-13.3"/><path class="cls-33" d="M1106.5,1625.1c0,27.1-17.2,40.5-40.6,40.5s-44-13.4-44-40.5,18.9-49.1,42.3-49.1,42.3,22,42.3,49.1"/><path class="cls-33" d="M1166.6,1763.8l3.6,5.3a14.94,14.94,0,0,0,11.7,6.6l3.4.2a8.13,8.13,0,0,0,7.5-4.4,13.11,13.11,0,0,0-1.2-13.6l-4.4-6-14.3-4.7Z"/><path class="cls-33" d="M967.1,1790.1l-12.3,9.4a8.94,8.94,0,0,0-3.2,9.4,9.08,9.08,0,0,0,10.3,6.7l9.9-1.8a9,9,0,0,0,6.5-5l6.9-14.3Z"/><path class="cls-64" d="M1006.2,1796.8s-4.2,141.4-4.2,190.3c2.2,4.4,42,9.6,42,9.6s5.5-114.8,15.3-139.4c7.3,30,32.8,138,32.8,138s37.3,6.2,45.3-9c-4.7-15.3-34-180.9-34-180.9Z"/><path class="cls-27" d="M1030.3,1676.8l63.6,4.5c9.5,1.4,17.9,8,23.8,15.5l65.4,51.1-16.7,17.3-66-35.2,3,75.1s-58.2,25.6-98.8-7.5c4.6-19.3,5.2-52,5.2-52l-19.9,55.8L967,1790.9c7.5-15.3,34.9-107.1,63.3-114.1"/><path class="cls-33" d="M1053.7,1648.8l-9.6,31.2s-1.6,9.4,5.8,13.7,22.7-10.2,22.7-10.2l5.1-34.7Z"/><path class="cls-27" d="M1022.9,1599.6s8.3-43,48.8-34.4c66.1,13.9,34.9,73.9,34.9,73.9l-43.1-30.9Z"/><path class="cls-47" d="M994.8,1611.1s29.3,25.4,55.7,8.2a90.9,90.9,0,0,0,14.8-12.1l-40.7-12.7-8.6,4.8Z"/><path class="cls-33" d="M1093.9,1614.8a12.4,12.4,0,1,1-12.4,12.4,12.4,12.4,0,0,1,12.4-12.4"/><path class="cls-26" d="M2754.6,1570.5s1.1,11.4,28.8-4.5,28.1-13.6,27.4-19.1Z"/><path class="cls-27" d="M2773.9,1538.1s20.1-2.9,27.5-7.8c7.4,3.5,9.5,16.6,9.5,16.6s-42.4,27.1-52.8,25.1c-6.8-1.1-4.8-8.6-.4-12s7.9-5.1,16.2-21.9"/><path class="cls-58" d="M2772,1418.1l-52.7,5.9a20.18,20.18,0,0,0-17.8,22.2,17.86,17.86,0,0,0,.9,4l18.4,56.6-22.6,4.8a5.38,5.38,0,0,0-3,1.7l-.6.7a5.49,5.49,0,0,0,4.3,9.1l39,4.2a4.56,4.56,0,0,0,5.1-4.1v-63l42.3-27.6Z"/><path class="cls-16" d="M2772.1,1401.2l-44.8,43.2a21.27,21.27,0,0,0-3.1,27l46.7,72.6s29.8-3.4,33-13.2l-37.1-64.5s55.7-16.9,62.4-24.9a25.36,25.36,0,0,0,5.4-17.8Z"/><path class="cls-46" d="M2838.4,1369l12.5,57.3a7.39,7.39,0,0,0,5,5.4l8.4,2.5a8.53,8.53,0,0,0,9.2-3l1.8-2.3a7.35,7.35,0,0,0-.1-9l-4.5-5.8-11.7-3.2s1.9-42.6,0-48.9-15-28.9-15-28.9Z"/><polygon class="cls-46" points="2827.1 1264.3 2811.2 1296.9 2841.2 1287.6 2852.6 1258.1 2827.1 1264.3"/><path class="cls-26" d="M2841.2,1287.6c14.4,0,14.2,38.1,14.2,38.1l-21.5,110.2s-52.9-6.9-69.5-34.7l22.5-63.3c.1,0,9.8-50.3,54.3-50.3"/><path class="cls-46" d="M2801.6,1315l15.8,27.4-57.1,13.2-55.2-17-15.8,1.2-8.8-8.8,12.6-8.9a15.91,15.91,0,0,1,12.3-2.6l15.6,3.3,37,8.8Z"/><circle class="cls-65" cx="2771.2" cy="1556.7" r="65.9"/><path class="cls-26" d="M2700,1438.3c3.7-9.8,10.9-16.2,16.1-14.2s6.3,11.5,2.6,21.3-10.9,16.2-16.1,14.2-6.3-11.5-2.6-21.3"/><path class="cls-26" d="M2767.2,1462.9l-24.8-3.6c0-10.7-4.2-19.3-10-19.6-6.2-.4-11.7,8.8-12.4,20.5s3.7,21.5,9.9,21.9c5.2.3,9.9-6.1,11.7-15l24.3,4.1a4.1,4.1,0,0,0,4.7-3,4.26,4.26,0,0,0-2.8-5.2,1.27,1.27,0,0,0-.6-.1"/><path class="cls-46" d="M2801.1,1219.3s-7.3,25.2-6.7,36.6,9.9,17,22,18.6,36.8-3,47.7-44.5c-13.1-11.2-53.4-24.5-53.4-24.5Z"/><polygon class="cls-27" points="2835.3 1231 2825.3 1257.9 2851.9 1260.2 2851.7 1264.3 2821.2 1263.1 2816.1 1258.8 2828.1 1226.4 2835.3 1231"/><path class="cls-58" d="M2842.1,1244.9s-42.5-24-50-33.1c5.4-8.9,36.6-43.2,78.8-6.2,34.2,30-5,58.7-5,58.7s-16.7,8.9-24.2,2.6.4-22,.4-22"/><path class="cls-26" d="M2683.4,1592.1s4.1,10.8-28,8.9-31.5.3-33.3-4.9Z"/><path class="cls-16" d="M2651.4,1571.5s-19.5,6.4-28.3,5.3c-5.1,6.5-1.2,19.2-1.2,19.2s50.5,5.5,58.9-.9c5.7-4,.6-9.9-5-11s-9.4-1.2-24.4-12.6"/><path class="cls-26" d="M2575.5,1592.1s4.1,10.8-28,8.9-31.5.3-33.3-4.9Z"/><path class="cls-16" d="M2543.6,1571.5s-19.4,6.4-28.3,5.3c-5.1,6.5-1.2,19.2-1.2,19.2s50.5,5.5,58.9-.9c5.7-4,.6-9.9-5-11s-9.4-1.2-24.4-12.6"/><path class="cls-25" d="M2549.2,1159.9c20.9,0,37.9,18,37.9,40.3s-17,40.3-37.9,40.3-37.9-18-37.9-40.3,17-40.3,37.9-40.3"/><polygon class="cls-25" points="2590.1 1273.1 2677 1318.6 2694.3 1324.4 2695.9 1343.2 2669.7 1338.7 2666.8 1328.7 2613.7 1311.4 2596.1 1307.8 2571.3 1276.3 2590.1 1273.1"/><path class="cls-27" d="M2553.8,1258.2s-27.9-4.2-36.7,4.2-17.7,45.5-17.7,45.5l24.5,14.4-1.9,73s56.4-9.6,91,0c-2.4-15-7.9-101.7-7.9-101.7s-7.1-36.6-51.3-35.4"/><path class="cls-25" d="M2525.8,1311.5c-4.5-5.3-13.5-12-25.9-4.8-.3.3-2.2,14.1-3.9,26.8a19.54,19.54,0,0,0,16.7,21.9,4.87,4.87,0,0,0,1.2.1l56,4.1,14.3,3.3a8.81,8.81,0,0,0,9.6-4l6-10a5.64,5.64,0,0,0-1.9-7.7c-.2-.1-.5-.3-.7-.4l-8.8-3.7-18.4,5.5-44.3-5.6,2.8-16a11.71,11.71,0,0,0-2.7-9.5"/><path class="cls-25" d="M2557.5,1233.1l4.7,24.5,5.8,6.8a13.69,13.69,0,0,1,3,11.8l-.8,3.9a4.57,4.57,0,0,1-5.4,3.6,5.09,5.09,0,0,1-1.7-.7l-27.9-19.4v-34Z"/><path class="cls-34" d="M2612.3,1388.8s44.4,127,43.7,182.5c-11.6,7.5-37.5,9.4-37.5,9.4s-23.7-138.4-45.3-148.6c-5.4,11.3-23.1,139.4-23.1,139.4s-23.2,11.8-37.4,6l7.4-102,2.1-86.7Z"/><path class="cls-27" d="M2613,1172.7l-103.5,37.4-4.9-26.2s9.9-28.4,35.5-32,41.1,20.8,41.1,20.8l31.9-6.5Z"/><path class="cls-25" d="M2532.2,1195.2a8.9,8.9,0,1,1-8.9,8.9,8.79,8.79,0,0,1,8.9-8.9"/><path class="cls-16" d="M1301.3,1083.6c.9-1.1,5.8-1.7,8.6-7.8s73.6-197.6,73.6-197.6,2.2-9.4-.9-13-1.5-7.9,2.5-6.8,11.5,8.4,6.7,22.5-73.9,198.3-73.9,198.3-4.3,9.6-11.7,8.7c-6.5-.8-5.6-3.4-4.9-4.3"/><path class="cls-16" d="M1328.5,1054.2a10.74,10.74,0,1,1,4.5,14.5,10.68,10.68,0,0,1-4.5-14.5"/><path class="cls-16" d="M1383,906.2a10.74,10.74,0,1,1,4.5,14.5,10.83,10.83,0,0,1-4.5-14.5"/><path class="cls-26" d="M1334.8,1091.1s4.4,11.6-29.9,9.5-33.6.3-35.5-5.3Z"/><path class="cls-27" d="M1300.8,1069.1s-20.7,6.8-30.2,5.6c-5.5,6.9-1.3,20.5-1.3,20.5s53.8,5.9,62.8-1c6.1-4.3.6-10.6-5.4-11.8s-9.9-1.1-25.9-13.3"/><path class="cls-26" d="M1134,1091.1s-4.4,11.6,29.9,9.5,33.6.3,35.5-5.3Z"/><path class="cls-27" d="M1168,1069.1s20.7,6.8,30.1,5.6c5.5,6.9,1.3,20.5,1.3,20.5s-53.8,5.9-62.8-1c-6.1-4.3-.6-10.6,5.4-11.8s10-1.1,26-13.3"/><path class="cls-25" d="M1277.5,776.4l82.4,69.3h17.8a7,7,0,0,1,6.3,3.9l1.6,3a8.27,8.27,0,0,1-3.5,11.1.37.37,0,0,1-.3.1l-11.2,5.3a9.75,9.75,0,0,1-10.7-1.5l-12-10.6-88.7-55.2Z"/><path class="cls-25" d="M1259.7,713.7c0,26.8-17,40.1-40.1,40.1s-43.5-13.3-43.5-40.1,18.7-48.5,41.8-48.5,41.8,21.7,41.8,48.5"/><path class="cls-26" d="M1165.2,882.8s-1,137.2-1,186.1c2.2,4.4,37.9,13.8,37.9,13.8L1215,933c7.3,30,51,145.9,51,145.9s32.9,5,41-10.2c-4.7-15.3-50.3-185.8-50.3-185.8h-91.5Z"/><path class="cls-25" d="M1161.2,762.3l-19.3,66.4-7.9,54-8,13.9a6.66,6.66,0,0,0,.6,7.5l3.5,4.2a6.65,6.65,0,0,0,8.8,1.3l9.5-6.4a7.51,7.51,0,0,0,3.3-7.3l-1.8-14.9,26.3-94.8Z"/><path class="cls-27" d="M1186.8,756.8l43.9,6.5,8.1,1.2,19.1,2.8a38,38,0,0,1,24.1,13.9l-20.8,31.5-1.2,78.5s-58.2,25.5-98.8-7.5c2.2-9.4,6.1-77.5,6.1-77.5s.3-2.7.9-6.7c1.6-10.9-13.8-29.4-7-37.2,1.8-2.2,23.2-5.8,25.6-5.5"/><path class="cls-25" d="M1206.7,730.8l-9.6,31.2s-1.6,9.4,5.8,13.7,22.7-10.2,22.7-10.2l5.1-34.7Z"/><path class="cls-27" d="M1184.9,684.9s7.4-38.2,43.4-30.6c58.8,12.4,31.1,65.8,31.1,65.8l-38.3-27.5Z"/><path class="cls-47" d="M1160.7,694.2s25.5,22.2,48.6,7.1a76.88,76.88,0,0,0,12.9-10.5l-35.5-11.1-7.5,4.2Z"/><path class="cls-25" d="M1244.5,699.2a13.8,13.8,0,1,1-13.8,13.8,13.83,13.83,0,0,1,13.8-13.8"/><polygon class="cls-26" points="1164.9 844.4 1238.8 764.5 1259.7 767.6 1162.4 874.4 1164.9 844.4"/><line class="cls-66" x1="846.8" y1="1082.6" x2="751.6" y2="502.9"/><path class="cls-27" d="M745.8,502.9S1063.5,298.6,1205.7,362c52.8,73.2,62.1,144.8,62.1,144.8S1150.7,432,775.3,686.7c-14.8-79.2-29.5-183.8-29.5-183.8"/><path class="cls-25" d="M821.3,810l-12.4-8.4a6,6,0,0,0-6.8,0l-12.2,8.1v14l15.7,10.1,7.5,1.5Z"/><path class="cls-3" d="M722.7,2263.9l-97.1-73.4,44.7-26.8,8.2,5.3c6.1,3.9,24.7,10.5,47.1,14.8,24.6,4.8,41.4,4.5,47.1,2,11.5-4.8,25.9-19.2,15.1-36-10.5-8.4-17.7-8.1-29.5-4.6a46,46,0,0,0-15.5,8.1L722,2129.9a75.21,75.21,0,0,1,27.3-14.6c15.4-4.6,38.9-5.9,62.7,13.6l.6.5.6.6a48,48,0,0,1,12.5,42.3c-4.4,22.2-24.5,35.5-40.9,42.4-17.6,7.4-51.1,3.8-79.5-3.3l45.3,34.2Z"/><polyline class="cls-67" points="339.4 2383.5 425.4 2380.9 431.4 2384.9 304.8 2460.4"/><polygon class="cls-10" points="1587.6 1694.4 1700 1425.8 1981 1425.8 2074.6 1694.4 1587.6 1694.4"/><polygon class="cls-9" points="1849.3 1694.4 1895.9 1426.5 1981 1426.8 2074.6 1694.4 1849.3 1694.4"/><polygon class="cls-28" points="1595.8 1694.6 1483 1694.4 1483 1759.8 1595.8 1694.6"/><path class="cls-16" d="M1925.8,1417.1s4.4,11.6-29.9,9.5-33.6.3-35.5-5.3Z"/><path class="cls-27" d="M1891.8,1395.1s-20.7,6.8-30.2,5.6c-5.5,6.9-1.3,20.5-1.3,20.5s53.8,5.9,62.8-1c6.1-4.3.6-10.6-5.4-11.8s-9.9-1.1-25.9-13.3"/><path class="cls-16" d="M1725,1417.1s-4.4,11.6,29.9,9.5,33.6.3,35.5-5.3Z"/><path class="cls-27" d="M1759,1395.1s20.7,6.8,30.1,5.6c5.5,6.9,1.3,20.5,1.3,20.5s-53.8,5.9-62.8-1c-6.1-4.3-.6-10.6,5.4-11.8s10-1.1,26-13.3"/><path class="cls-25" d="M1850.7,1039.7c0,26.8-17,40.1-40.1,40.1s-43.5-13.3-43.5-40.1,18.7-48.5,41.8-48.5,41.8,21.7,41.8,48.5"/><path class="cls-16" d="M1756.2,1206.8s-1,137.2-1,186.1c2.2,4.4,37.9,13.8,37.9,13.8L1806,1257c7.3,30,51,145.9,51,145.9s32.9,5,41-10.2c-4.7-15.3-50.3-185.8-50.3-185.8h-91.5Z"/><path class="cls-27" d="M1777.8,1082.8l43.9,6.5,8.1,1.2,19.1,2.8a38,38,0,0,1,24.1,13.9l-20.8,31.5-1.2,78.5s-58.2,25.6-98.8-7.5c2.2-9.4,6.1-77.5,6.1-77.5s.3-2.7.9-6.7c1.6-10.9-13.8-29.4-7-37.2,1.8-2.2,23.2-5.8,25.6-5.5"/><path class="cls-25" d="M1755.1,1087.1l-48.6,33.9a15.28,15.28,0,0,0-2.2,23.3l36,36.6-7.8,8.2a4.09,4.09,0,0,0-1.1,3.8l1.2,6.2a4.16,4.16,0,0,0,2.1,2.9l12.2,6.8,5.7-2.6,2.4-25.6-4.7-11.1-22.9-33.6,31.7-12.9Z"/><path class="cls-25" d="M1797.7,1056.8l-9.6,31.2s-1.6,9.4,5.8,13.7,22.7-10.2,22.7-10.2l5.1-34.7Z"/><path class="cls-27" d="M1775.9,1010.9s7.4-38.2,43.4-30.6c58.8,12.4,31.1,65.8,31.1,65.8l-38.3-27.5Z"/><path class="cls-47" d="M1751.7,1020.2s25.5,22.2,48.6,7.1a77.45,77.45,0,0,0,12.9-10.6l-35.5-11.1-7.5,4.2Z"/><path class="cls-25" d="M1835.5,1025.2a13.8,13.8,0,1,1-13.8,13.8,13.83,13.83,0,0,1,13.8-13.8"/><path class="cls-25" d="M1870.2,1104.2l25.5,48.4a14.43,14.43,0,0,1-2.7,17.1l-27.7,27.1,4.2,5.9a8.63,8.63,0,0,1,.3,9.5l-4.3,6.9a5.45,5.45,0,0,1-7.1,2l-7.6-3.9.4-23.2,21.6-33.3-20.8-22.1Z"/><path class="cls-26" d="M1032.6,2087.6s11,8.3-22.7,26.7-31.6,20.2-36.7,16.1Z"/><path class="cls-27" d="M987.4,2087s-15.6,18.7-25.2,23.2c-1.1,9.8,11,20.2,11,20.2s54.4-26.3,58.8-38.2c3.2-7.7-5.7-10.3-12.1-8s-10.1,4.8-32.5,2.8"/><path class="cls-18" d="M909.9,1943.6,1016,2057.4l33.3-7a11,11,0,0,1,5.4.2l3.7,1a11.38,11.38,0,0,1,7.9,14h0a11.55,11.55,0,0,1-6.8,7.5l-53.6,20.9L844,1957.4l23.4-25.8Z"/><path class="cls-16" d="M841.8,2127.4a18.25,18.25,0,1,1-10,23.8,18.3,18.3,0,0,1,10-23.8"/><path class="cls-16" d="M1093.1,2027a18.25,18.25,0,1,1-10,23.8,18.3,18.3,0,0,1,10-23.8"/><circle class="cls-68" cx="849.26" cy="2144.76" r="70" transform="translate(-744.8 477.37) rotate(-22.11)"/><polyline class="cls-69" points="951 2095.6 850.1 2143.3 908.6 2042 1020.5 1956.7 1032 1969.2 951.1 2095 868.5 1992"/><circle class="cls-68" cx="1100.56" cy="2044.35" r="70" transform="translate(-688.53 564.57) rotate(-22.11)"/><polyline class="cls-69" points="1014.5 1950.2 1020.5 1956.7 1100.8 2044.3"/><path class="cls-27" d="M1020,1936l-2.9,13.1-3.2,2.3a5.37,5.37,0,0,1-7.1-.7l-2.9-3a8.07,8.07,0,0,1-.5-10.6l3.2-2.8,9.5-8.1a9.55,9.55,0,0,1,3.9,9.8"/><polygon class="cls-27" points="1001.7 1905.4 1007.4 1939.4 1017.8 1931.6 1009.8 1892.2 1001.7 1905.4"/><path class="cls-16" d="M837.9,1905.4s-27.3,32.2-16.6,59.1c5.9,14.8,148.5,155.7,148.5,155.7l19.6-30.3L901.5,1974l.9-26.2Z"/><path class="cls-26" d="M906.5,1821.8a28,28,0,0,0-27.4,12.1c-18.5,27.4-56.5,84.7-60.3,95.5-5,14.3,85.3,30.4,85.3,30.4l31.2-87.9-.7-29.1a20,20,0,0,0-17.2-19.4Z"/><path class="cls-33" d="M885.5,1760.9c6-21.6,27.9-34.4,49-28.6s33.4,28.1,27.5,49.7-27.9,34.4-49,28.6-33.5-28-27.5-49.7"/><polygon class="cls-27" points="920 1762.3 920 1794.2 891.3 1786.2 889.7 1790.6 922 1801.2 929 1798.7 929 1760.4 920 1762.3"/><path class="cls-58" d="M907.2,1774.2s53.5-8.4,64.8-15c7.4-21.5-21.3-59.1-79.5-37-47.2,17.9-17.6,63-17.6,63s13.9,15.7,24.2,12.1,8.1-23.1,8.1-23.1"/><path class="cls-33" d="M932.8,1834.8l76.9,43h7.3a10.81,10.81,0,0,1,8.2,3.8,9.43,9.43,0,0,1-1.2,13.4,9.9,9.9,0,0,1-1.7,1.1l-7.9,4.2-20.5-9.7v-3.8l-59.5-23.5Z"/><path class="cls-33" d="M904.3,1842.5l83.1,52.8,13.5-3.6,5.6,10.8a10.22,10.22,0,0,1-2.2,12.3l-.4.3-25.5-6-88.6-39.8a15.07,15.07,0,0,1-8.9-13.8v-.2a15.21,15.21,0,0,1,23.4-12.8"/><polygon class="cls-33" points="928.6 1807.6 926.2 1826.5 928.6 1849.7 904.5 1824.3 907.5 1801.8 928.6 1807.6"/><line class="cls-70" x1="985.4" y1="1928.5" x2="1025.5" y2="1872.1"/></g></svg>