<svg xmlns="http://www.w3.org/2000/svg" viewBox="0 0 187.16 187.69"><defs><style>.cls-1{fill:#f7f4dc;}.cls-2{fill:#ff5365;}.cls-3{fill:none;}.cls-4{fill:#00c8f6;}.cls-5{fill:#5fdde0;}.cls-6{fill:#223c92;}</style></defs><title>icon_serf</title><g id="Слой_2" data-name="Слой 2"><g id="Слой_1-2" data-name="Слой 1"><circle id="_Контур_" data-name="&lt;Контур&gt;" class="cls-1" cx="93.58" cy="93.58" r="93.58"/><rect id="_Прямоугольник_" data-name="&lt;Прямоугольник&gt;" class="cls-2" x="128.02" y="4.22" width="13.94" height="16.68" rx="3.57" ry="3.57" transform="translate(31.75 -75.31) rotate(35.08)"/><rect id="_Прямоугольник_2" data-name="&lt;Прямоугольник&gt;" class="cls-2" x="167.42" y="31.9" width="13.94" height="16.68" rx="3.57" ry="3.57" transform="translate(54.82 -92.93) rotate(35.08)"/><rect id="_Прямоугольник_3" data-name="&lt;Прямоугольник&gt;" class="cls-2" x="34.55" y="137.29" width="13.94" height="16.68" rx="3.57" ry="3.57" transform="translate(91.25 2.59) rotate(35.08)"/><rect id="_Прямоугольник_4" data-name="&lt;Прямоугольник&gt;" class="cls-2" x="73.95" y="164.97" width="13.94" height="16.68" rx="3.57" ry="3.57" transform="translate(114.32 -15.02) rotate(35.08)"/><path id="_Контур_2" data-name="&lt;Контур&gt;" class="cls-3" d="M78,82.67l2.92,2.05,1-1.5Z"/><path id="_Контур_3" data-name="&lt;Контур&gt;" class="cls-3" d="M125.82,115.05l-.61.8,1.65,1.16Z"/><path id="_Контур_4" data-name="&lt;Контур&gt;" class="cls-4" d="M134.64,103.08q5.6-7.81,11.28-16.27c47.46-70.83,23-81.12,23-81.12S145.86-9.14,101,54.77Q95.11,63.1,89.82,71l29.74,4.83Z"/><path id="_Контур_5" data-name="&lt;Контур&gt;" class="cls-2" d="M111.08,87.34,81.85,83.22l-1,1.5,44.32,31.13.61-.8Z"/><path id="_Контур_6" data-name="&lt;Контур&gt;" class="cls-2" d="M73.2,97.08q-1.68,2.77-3.28,5.47l42.27,29.69q2-2.42,4-4.94Z"/><path id="_Контур_7" data-name="&lt;Контур&gt;" class="cls-4" d="M41.81,186.69c8.77,5.81,36.73-13.83,70.39-54.44L69.93,102.55C42,149.8,32.94,180.81,41.81,186.69Z"/><path id="_Контур_8" data-name="&lt;Контур&gt;" class="cls-5" d="M111.08,87.34l14.73,27.71q4.38-5.77,8.83-12L119.56,75.86,89.82,71q-4.16,6.23-8,12.19Z"/><path id="_Контур_9" data-name="&lt;Контур&gt;" class="cls-6" d="M125.21,115.85,80.89,84.72q-4,6.34-7.69,12.36l43,30.23Q120.67,121.81,125.21,115.85Z"/></g></g></svg>