<svg xmlns="http://www.w3.org/2000/svg" viewBox="0 0 209.17 187.16"><defs><style>.cls-1{fill:#82dbd8;}.cls-2{fill:#5fdde0;}.cls-3,.cls-8{fill:#ff5365;}.cls-4{fill:#223c92;}.cls-5,.cls-6,.cls-7{fill:none;}.cls-5,.cls-6,.cls-8{stroke:#ff5365;stroke-miterlimit:10;}.cls-5{stroke-width:0.77px;}.cls-6{stroke-width:8px;}.cls-7{stroke:#ffefae;stroke-linecap:round;stroke-linejoin:round;stroke-width:7px;}.cls-8{stroke-width:4px;}</style></defs><title>icon_cycle</title><g id="Слой_2" data-name="Слой 2"><g id="Слой_1-2" data-name="Слой 1"><circle id="_Контур_" data-name="&lt;Контур&gt;" class="cls-1" cx="115.59" cy="93.58" r="93.58"/><circle id="_Контур_2" data-name="&lt;Контур&gt;" class="cls-2" cx="38.86" cy="111.95" r="33.16" transform="translate(-78.4 129.02) rotate(-79.14)"/><circle id="_Контур_3" data-name="&lt;Контур&gt;" class="cls-3" cx="116.8" cy="121.65" r="13.63" transform="translate(-24.68 213.43) rotate(-79.14)"/><circle id="_Контур_4" data-name="&lt;Контур&gt;" class="cls-2" cx="169.82" cy="135.6" r="33.46" transform="translate(4.65 276.83) rotate(-79.14)"/><circle id="_Контур_5" data-name="&lt;Контур&gt;" class="cls-4" cx="169.32" cy="135.84" r="8.97" transform="translate(4 276.52) rotate(-79.14)"/><circle id="_Контур_6" data-name="&lt;Контур&gt;" class="cls-4" cx="38.59" cy="111.54" r="8.97" transform="translate(-78.22 128.42) rotate(-79.14)"/><path id="_Контур_7" data-name="&lt;Контур&gt;" class="cls-5" d="M72.33,27.2S61.17,32.93,59,44,69.2,63.28,69.2,63.28"/><circle id="_Контур_8" data-name="&lt;Контур&gt;" class="cls-6" cx="169.13" cy="136.11" r="34.4" transform="translate(3.59 276.56) rotate(-79.14)"/><polyline id="_Контур_9" data-name="&lt;Контур&gt;" class="cls-7" points="92.33 117.06 115.43 122.25 168.63 135.58 130.74 92.33 68.62 61.97 64.29 69.09 115.33 121.95 145.26 64.41"/><circle id="_Контур_10" data-name="&lt;Контур&gt;" class="cls-6" cx="38.41" cy="111.81" r="34.4" transform="translate(-78.63 128.46) rotate(-79.14)"/><polyline id="_Контур_11" data-name="&lt;Контур&gt;" class="cls-7" points="70.88 58.26 68.62 61.97 38.29 111.89"/><path id="_Контур_12" data-name="&lt;Контур&gt;" class="cls-8" d="M85.86,120.83l0,.07a1.85,1.85,0,0,0,2.57.68l9.7-5.86a1.85,1.85,0,0,0,.57-2.64h0a1.85,1.85,0,0,0-2.47-.54l-9.74,5.79A1.85,1.85,0,0,0,85.86,120.83Z"/><path id="_Контур_13" data-name="&lt;Контур&gt;" class="cls-4" d="M128.84,58.08c.86,1.78,5.17,2.57,9.14,4.86,2.47,1.43,4.73,4.39,7.36,5.7s7.17,1.17,10.56-.53,6.34-3.9,4.59-6-10.7-1.57-17.32-3.39c-3.25-.9-8.64-3-10-3.21C130.63,55.13,128,56.29,128.84,58.08Z"/><path id="_Контур_14" data-name="&lt;Контур&gt;" class="cls-3" d="M73.44,24.11l0,.12a1.59,1.59,0,0,0,1.86,1.33l12.39-2.32A1.59,1.59,0,0,0,89,21.39h0a1.59,1.59,0,0,0-1.84-1.28l-12.41,2.2A1.59,1.59,0,0,0,73.44,24.11Z"/><path id="_Контур_15" data-name="&lt;Контур&gt;" class="cls-4" d="M66.88,52l2.63,6,1.79.81a2.66,2.66,0,0,0,3.35-1l1.11-1.75A4,4,0,0,0,75,50.93l-4-3.4,3.19-22.16s4.29-3,8.8-.3l.66-.67a4.59,4.59,0,0,0-3.76-1.78,20.34,20.34,0,0,0-4.92.78L74,23.24a2.8,2.8,0,0,0-3.2,2.37l-3,21.3h0A4.62,4.62,0,0,0,66.88,52Z"/><path id="_Контур_16" data-name="&lt;Контур&gt;" class="cls-5" d="M66.5,44.68"/></g></g></svg>