<svg xmlns="http://www.w3.org/2000/svg" viewBox="0 0 207.28 187.16"><defs><style>.cls-1{fill:#f7f4dc;}.cls-2{fill:#00c8f6;}.cls-3{fill:#ff5365;}.cls-4{fill:#ffefae;}.cls-5{fill:#5fdde0;}.cls-6{fill:#448faa;}.cls-7{fill:none;stroke:#223c92;stroke-linecap:round;stroke-linejoin:round;stroke-width:4.58px;}</style></defs><title>icon_rol</title><g id="Слой_2" data-name="Слой 2"><g id="Слой_1-2" data-name="Слой 1"><circle id="_Контур_" data-name="&lt;Контур&gt;" class="cls-1" cx="113.7" cy="93.58" r="93.58"/><circle id="_Контур_2" data-name="&lt;Контур&gt;" class="cls-2" cx="44.22" cy="140.43" r="20.64" transform="translate(-45.13 23.41) rotate(-19.88)"/><circle id="_Контур_3" data-name="&lt;Контур&gt;" class="cls-2" cx="83.02" cy="126.4" r="20.64" transform="translate(-38.04 35.77) rotate(-19.88)"/><circle id="_Контур_4" data-name="&lt;Контур&gt;" class="cls-2" cx="121.81" cy="112.37" r="20.64" transform="translate(-30.96 48.13) rotate(-19.88)"/><circle id="_Контур_5" data-name="&lt;Контур&gt;" class="cls-2" cx="160.6" cy="98.34" r="20.64" transform="translate(-23.87 60.49) rotate(-19.88)"/><path id="_Контур_6" data-name="&lt;Контур&gt;" class="cls-3" d="M89.25,72S123,62.23,136,56.75a43.15,43.15,0,0,0,10.16-5.54,21.39,21.39,0,0,0-9.72-1c-6.94,1.1-57.36,1.14-60.43-3.68s-12.3-34-12.3-34S54-3.75,30.22,5.37C16.83,10.5,10,.24,6.28,5.54.82,13.31,7.9,23.3,7.9,23.3l4,69.69a80.8,80.8,0,0,0,2.15,8.38L84,87.51Z"/><path id="_Контур_7" data-name="&lt;Контур&gt;" class="cls-2" d="M8.56,22.89a13.61,13.61,0,0,1,6.19,2.16c3.73-.16,33.65-11,47.26-13.28a7.84,7.84,0,0,1,8.06,3.82c3.24,5.56,8,14.24,5.89,18.66-2.76,5.8-17.78-2.17-27.53,7.42-13.26,13-.63,25.71-4.8,32.79-4.39,7.45-10.19,6-21,9.92A20.46,20.46,0,0,0,11.93,93S10.57,50.84,3.2,30.24A5.5,5.5,0,0,1,8.56,22.89Z"/><circle id="_Контур_8" data-name="&lt;Контур&gt;" class="cls-4" cx="34.13" cy="71.15" r="6.19" transform="translate(-22.17 15.85) rotate(-19.88)"/><polygon id="_Контур_9" data-name="&lt;Контур&gt;" class="cls-2" points="47.76 68.31 59.56 75.15 79.63 48.12 66.31 41.7 47.76 68.31"/><path id="_Контур_10" data-name="&lt;Контур&gt;" class="cls-5" d="M54.07,67.67l.08,0a6.88,6.88,0,0,0,9.17-1.94l13.35-19a6.88,6.88,0,0,0-1.78-9.67h0a6.88,6.88,0,0,0-9.46,1.72l-13,18.33-.42.59A6.88,6.88,0,0,0,54.07,67.67Z"/><path id="_Контур_11" data-name="&lt;Контур&gt;" class="cls-2" d="M34.06,122.16c16-4.26,35.46-12.83,35.46-12.83s1.58-7.32,7.8-10.42S99.85,96.4,99.85,96.4l41.43-15a27.6,27.6,0,0,0,13-16.54c2.21-7.46-2.49-11.75-8-13.67A43.15,43.15,0,0,1,136,56.75c-9,3.8-28.77,7.59-40,9.56a12.18,12.18,0,0,0-9.88,9.77L84,87.51,14.09,101.38C17.08,111,23.37,125,34.06,122.16Z"/><path id="_Контур_12" data-name="&lt;Контур&gt;" class="cls-6" d="M141,80.56l18.82,8.93A6.38,6.38,0,0,1,163,93.08h0a6.38,6.38,0,0,1-3.83,8.17L42.67,143.4a5.36,5.36,0,0,1-6.86-3.22h0a5.36,5.36,0,0,1,0-3.71l7.77-20.71Z"/><path id="_Контур_13" data-name="&lt;Контур&gt;" class="cls-5" d="M18.17,161.49l-14.6.44a3.47,3.47,0,0,1-3.49-4.25c1.05-4.61,3.3-12,7.71-17.45,6.93-8.63,17.27-17.75,35.8-24.45l17.19-6.22.75,7a11.35,11.35,0,0,1-7.79,12C43,132,26,138.15,23.14,142.81c-2.34,3.82-1.73,9.09-.71,13A4.52,4.52,0,0,1,18.17,161.49Z"/><line id="_Контур_14" data-name="&lt;Контур&gt;" class="cls-7" x1="77.39" y1="59.15" x2="85.71" y2="47.48"/><line id="_Контур_15" data-name="&lt;Контур&gt;" class="cls-7" x1="87.52" y1="59.9" x2="91.84" y2="48.8"/><line id="_Контур_16" data-name="&lt;Контур&gt;" class="cls-7" x1="97.14" y1="59.07" x2="97.84" y2="49.28"/><line id="_Контур_17" data-name="&lt;Контур&gt;" class="cls-7" x1="105.9" y1="58.38" x2="104.77" y2="50.54"/><line id="_Контур_18" data-name="&lt;Контур&gt;" class="cls-7" x1="112.32" y1="56.06" x2="111.13" y2="50.7"/></g></g></svg>