<svg id="Слой_1" data-name="Слой 1" xmlns="http://www.w3.org/2000/svg" xmlns:xlink="http://www.w3.org/1999/xlink" viewBox="0 0 4732.31 2201.75"><defs><style>.cls-1,.cls-24,.cls-33,.cls-35{fill:none;}.cls-2{fill:#f7f4dc;}.cls-3{clip-path:url(#clip-path);}.cls-4{fill:#7dc6bd;}.cls-5{fill:#f4efd0;}.cls-6{fill:#e5e1ca;}.cls-7{fill:#448faa;}.cls-8{fill:#142d75;}.cls-9{fill:#82dbd8;}.cls-10{fill:#ffe3e5;}.cls-11{fill:#ff5365;}.cls-12{fill:#e23750;}.cls-13{fill:#d63a51;}.cls-14{fill:#fff3f4;}.cls-15{fill:#223c92;}.cls-16{fill:#ffb8bb;}.cls-17{fill:#f27083;}.cls-18{fill:#494949;}.cls-19{fill:#230206;}.cls-20{fill:#16307a;}.cls-21{fill:#ffd7da;}.cls-22{fill:#00c8f6;}.cls-23{fill:#f2c4c8;}.cls-24{stroke:#223c92;}.cls-24,.cls-33{stroke-miterlimit:10;}.cls-25{fill:#efafb7;}.cls-26{fill:#f2798b;}.cls-27{fill:#07bfdd;}.cls-28{fill:#fffbd7;}.cls-29{fill:#e8435b;}.cls-30{fill:#112c77;}.cls-31{fill:#ffefae;}.cls-32{fill:#152d72;}.cls-33{stroke:#112c77;stroke-width:11px;}.cls-34{fill:#0a1e49;}.cls-35{stroke:#00c8f6;stroke-linecap:round;stroke-linejoin:round;stroke-width:10px;}</style><clipPath id="clip-path"><rect class="cls-1" width="4732.31" height="2201.75"/></clipPath></defs><title>index_1</title><rect class="cls-2" y="189.05" width="4732.31" height="2012.7"/><g class="cls-3"><path class="cls-4" d="M2623.4,1553.5l768.84-438a63.77,63.77,0,0,0,32.2-55.41V699.84a63.77,63.77,0,0,1,63.77-63.77l1212.62,30a63.77,63.77,0,0,1,63.77,63.77v0l-.23,671.92c0,49.44-53.84,80-96.34,54.8L4136.77,1202a63.77,63.77,0,0,0-64.13-.59L3597,1472.23c-43,24.46-43,86.37,0,110.83L3983.27,1803c43,24.46,43,86.37,0,110.83l-413.82,235.64a63.77,63.77,0,0,1-62.26.47l-882.92-485.1c-43.71-24-44.19-86.66-.87-111.34"/><path class="cls-4" d="M3015.7,1004.62l-1063.88,605.8a63.78,63.78,0,0,1-63.11,0l-386.63-220.15c-43-24.46-43-86.37,0-110.83L2550.23,682.59a63.77,63.77,0,0,1,61.19-1l402.35,211.2c44.64,23.38,45.73,86.89,1.93,111.83"/><path class="cls-4" d="M1705.48,893.54l-814,463.54a63.77,63.77,0,0,1-59.83,1.75L342.86,1117.1c-45.81-22.66-47.69-87.29-3.28-112.58l914.51-520.74a63.77,63.77,0,0,1,70.46,4.89L1712.84,787.6c36.09,27.79,32.24,83.4-7.36,105.94"/><path class="cls-4" d="M770.25,579.46l-221,110.06a63.77,63.77,0,0,1-64-4.16L284.75,550.57,40.09,386.1a63.77,63.77,0,0,1-27.85-46.29L.35,225.85a63.77,63.77,0,0,1,69.48-70.12L842.2,229.46a63.77,63.77,0,0,1,52.92,87.72L800.8,546.62a63.77,63.77,0,0,1-30.55,32.84"/><polygon class="cls-4" points="-104.98 674.65 298.33 409.37 -121.65 141.97 -104.98 674.65"/><path class="cls-5" d="M3700.34,1606.7l448-267.69a10.87,10.87,0,1,1,11.15,18.66l-448,267.69a10.87,10.87,0,0,1-11.15-18.66"/><path class="cls-6" d="M3811.49,1531.41l154,73.33a34.22,34.22,0,0,0,17.72,3.19l23.67-2.08a34.22,34.22,0,0,0,28.69-47l-.25-.6a34.22,34.22,0,0,1,18.76-44.61l.37-.15,41.26-16.28a34.22,34.22,0,0,0-3-64.7l-52.32-15.16a34.25,34.25,0,0,0-9.52-1.35H3909.67a34.21,34.21,0,0,0-17.66,4.91l-83.47,50.29c-23.36,14.08-21.68,48.49,2.95,60.21"/><path class="cls-6" d="M4271.6,1712.76l-25.32-2.46a18.21,18.21,0,0,0-18,26.24l2.36,4.74a18.2,18.2,0,0,0,11.93,9.55l82.59,20.39a18.2,18.2,0,0,1,13.4,21.67l-.06.27a18.2,18.2,0,0,0,10.19,20.55l25.56,11.68a62.29,62.29,0,0,0,51.79,0l13-6a18.2,18.2,0,0,0,10.22-12.7l5-22.86a18.14,18.14,0,0,1,1.73-4.73l13-24.43a18.2,18.2,0,0,0-1.08-18.92l-9.06-13.11a18.19,18.19,0,0,0-11.16-7.45l-26.46-5.67"/><path class="cls-7" d="M31.51,90.88s-105.41,470.38,384,430.24S967.35,241,967.35,241Z"/><path class="cls-7" d="M618.53,530s-7.86,149.43,94.59,184.05,159.53,0,159.53,0C855.11,819.41,937,914.84,993.16,915.59c153.73,2,208.58-36.45,208.58-36.45s134.33,307.78,414.13,110.19,182.18-362,182.18-362L779.92,371Z"/><path class="cls-7" d="M1770.83,943.5s91.3,253.56,460.35,144.73S2707.35,813.1,2707.35,813.1s322.11,400.35,642.78,375.46S3785.8,983.91,3785.8,983.91s180.06,117.71,331.51,20.21,215-191,215-191,28.56,313.1,278.76,312.47S4818,613.24,4818,613.24L4648.24,24.61Z"/><path class="cls-8" d="M3381.45,901.06h81v115s68.47-62.86,70.63-82.34,37.89-13,37.89-13-68.21,105-106.11,135.34c0,13-7.58,84.45,18.41,111.52a215.82,215.82,0,0,0,55.22,41.14s-41.14,6.5-71.46-8.66c-13.52,8.82-20,44-23.14,56-1.67,6.46-8.12,7-12,1.64,0,0-8-47.8-28.69-55.67h-11a58,58,0,0,0-34,11l-33,23.84s0-31.4,36.81-80.12c35-46.35,19.44-255.69,19.44-255.69"/><path class="cls-8" d="M4078.45,775.17h81v115s68.47-62.86,70.63-82.34,37.89-13,37.89-13-68.21,105-106.11,135.34c0,13-7.58,84.45,18.41,111.52a215.83,215.83,0,0,0,55.22,41.14s-41.14,6.5-71.46-8.66c-13.52,8.82-20,44-23.14,56-1.67,6.46-8.12,7-12,1.64,0,0-8-47.8-28.69-55.67h-11a58,58,0,0,0-34,11l-33,23.84s0-31.4,36.81-80.12c35-46.35,19.44-255.69,19.44-255.69"/><path class="cls-8" d="M2397.55,785.26h81v115s68.47-62.86,70.63-82.34,37.89-13,37.89-13-68.21,105-106.11,135.34c0,13-7.58,84.45,18.41,111.52a215.84,215.84,0,0,0,55.22,41.14s-41.14,6.5-71.46-8.66c-13.52,8.82-20,44-23.14,56-1.67,6.46-8.12,7-12,1.64,0,0-8-47.8-28.69-55.67h-11a58,58,0,0,0-34,11l-33,23.84s0-31.4,36.81-80.12c35-46.35,19.44-255.69,19.44-255.69"/><path class="cls-8" d="M557.45,560.18s-4-12.8-30.78-48.24C501.19,478.22,512.53,326,512.53,326H453.16v83.56s-49.57-45.72-51.15-59.9-27.45-9.45-27.45-9.45,49.67,76.39,77.24,98.44c0,9.45,5.54,61.43-13.36,81.12a157.06,157.06,0,0,1-40.15,29.93s29.93,4.73,52-6.3c9.84,6.41,14.57,32,16.83,40.75,1.22,4.7,5.91,5.19,8.77,1.26,0,0,5.85-34.42,20.87-40.42h3.12l2.47,17.27a2.37,2.37,0,0,0,4.41.82l9.55-16.59c4.64,1.33,41.14,13.69,41.14,13.69"/><path class="cls-8" d="M2129.94,1000.15c0,13-7.58,84.45,18.41,111.52a215.85,215.85,0,0,0,55.22,41.14s-44.15,20.55-74.47,5.39c-13.52,8.82-24.08,30.19-20.13,42,6,18-32.87-2.15-45.62-49.78a19,19,0,0,0-20.21-.39c-24.62,14.86-55.87,9-55.87,9s31.14-34.73,39.81-58.12c20.21-54.48,19.44-255.69,19.44-255.69h81v115"/><path class="cls-8" d="M1032.35,693.25l-81-9v124S862.9,685.39,860.73,665.9s-37.89-13-37.89-13S911.05,817.9,949,848.24c0,13,7.58,84.45-18.41,111.52a215.85,215.85,0,0,1-55.19,41.15s41.14,6.5,71.46-8.66c13.52,8.82,20,44,23.14,56,1.67,6.46,8.12,7,12,1.64,0,0,8-47.8,28.69-55.67h11a58,58,0,0,1,34,11l33,23.84s0-31.4-36.81-80.12c-35.06-46.36-19.48-255.69-19.48-255.69"/><path class="cls-9" d="M-30.84,368.63S113.87,458.88,261,474.1s336-56.71,336-56.71S616.29,594.39,738,660.3,942.35,658.79,1089,794.65c273.94,253.83,648.68,235,777.09,208.93s398.64-165.37,586.31-155.22,475.37,145.89,895.17,119,564.4-195.28,564.4-195.28,207,275.88,699.22,255.2S4745.16,4,4745.16,4l-4776-4Z"/><path class="cls-6" d="M1583.35,1734.07l-18.3,12.2c-22.57,15-49.54,14.49-28.95,32.15l.4,1c20,47.23,68.44,76.33,119.41,70.72a69.73,69.73,0,0,0,12.64-2.4l.53-.17,31-16.32c24.92,41.8,81.54,23.61,101.06-34.42l24,8,67.61,43.32c11.47,6,65.11,8,78,8.07l85.18.71c13,.11,18.44-16.64,7.8-24.17l-27.07-19.15a38,38,0,0,0-24.8-50.87l-46.27-13.22-178.87-25.81a89,89,0,0,0-18.07-.75Z"/><path class="cls-10" d="M1584.45,1448.32s-31,27.27-38.86,69.8c-1.59,3.59-24.42,20.38-38.55,30.09-18.89,9.12-23.09,8.64-25.43,31.35-.65,6.28,12.09,7.12,14.17,5,2.72-2.85,14.75-18.31,15.61-19.23l46.61-33.2,14-23.24,49.88-60.52s-22.32-10.83-37.43,0"/><path class="cls-10" d="M1624.35,1612.17l11.54,34,80.23,63.31s19.18-15.28,18.36-16.64c-22.47-37.52-72.75-60.21-72.75-60.21l-7.62-37.24Z"/><path class="cls-10" d="M1570.74,1590.61,1558,1638.06l32.29,88.22,24.34-3.1c-3-39.13-29.81-82.95-29.81-82.95l16.64-36.11Z"/><path class="cls-8" d="M1581.84,1559.05l-14.5,31.17-2,4.29s14,23.35,33.4,19.79c1.35-.29,15.88-23.09,15.88-23.09s1.35,14.52,7.25,27.21c20.58.73,34.91-10.17,36.65-14,1.43-6.06,8.24-22.26,0-61-24.74,4.92-76.68,15.63-76.68,15.63"/><path class="cls-10" d="M1612.22,1427.18s-.28,10,3.43,15.79-31.21,5.36-31.21,5.36,14-19.31,9.39-31.87,18.39,10.72,18.39,10.72"/><path class="cls-10" d="M1777.29,1518.64a14,14,0,0,0,.27-4.69c-2.06-16.26-35-17.07-35.23-17l-105-42.16s-28.06,26.26-8.54,25c13.55-.85,74.09,20.63,109.87,33.86,1,3.33,2.18,6.79,4.43,9.3.81.91,7.26,5.9,9.78,4.78,4-1.77,2.61-7.09,2.18-8h.11c1.13,2,2.25,3.9,3.4,5.85.22.38.45.78.69,1.17a14.65,14.65,0,0,0,3,2.75c1.91.5,3.54-.67,5.09-1.58s3.3-2,4.94-3a5.75,5.75,0,0,0,2.59-1.57l1.37-.83a2.87,2.87,0,0,0,1.05-3.88"/><path class="cls-11" d="M1614.75,1442l43,21-7,28.59-10.44,2.11s14.16,54.17,27.58,53.71c-17.14,32.23-87.83,19.59-87.83,19.59s-22-25.19-9.2-109.86c11-6.1,2.84,7.47,10.42,7.47s33.47-22.61,33.47-22.61"/><path class="cls-10" d="M1610.65,1352.72c15.89,0,28.78,17.4,28.78,38.87s-12.89,38.87-28.78,38.87-28.78-17.4-28.78-38.87,12.89-38.87,28.78-38.87"/><path class="cls-8" d="M1569.88,1623c9.07,0,16.43,8.89,16.43,19.85s-7.36,19.85-16.43,19.85-16.43-8.89-16.43-19.85,7.36-19.85,16.43-19.85"/><path class="cls-8" d="M1641.7,1624.73c8.26-3.76,18.63,1.29,23.17,11.27s1.52,21.11-6.74,24.87-18.63-1.29-23.17-11.27-1.52-21.11,6.74-24.87"/><path class="cls-12" d="M1581.88,1391.59s-19.29-34.93,21.45-46.48c30.4-8.62,31.82,26.06,31.82,26.06s-36.74-2.41-53.27,20.42"/><path class="cls-11" d="M1615,1385.41c6.17-4.42,23.23-14.28,43.27-5.76-10-6.9-25.86-13.46-25.86-13.46s-20.89-1.73-35.17,10.22c4.73,3.31,9.69,6.87,12.64,9a4.38,4.38,0,0,0,5.12,0"/><path class="cls-10" d="M1584.16,1390.09s-5.12-9.19-9.11-6.13-4.64,15.63,0,16.24a17.13,17.13,0,0,0,9.15-1.84Z"/><path class="cls-11" d="M1540.21,1760a9,9,0,1,1-9,9,9,9,0,0,1,9-9"/><path class="cls-11" d="M1564.07,1760a9,9,0,1,1-9,9,9,9,0,0,1,9-9"/><path class="cls-11" d="M1588,1760a9,9,0,1,1-9,9,9,9,0,0,1,9-9"/><path class="cls-11" d="M1611.56,1760a9,9,0,1,1-9,9,9,9,0,0,1,9-9"/><path class="cls-11" d="M1579.93,1708.94l35.24-2.93s2.75,47.06-.55,50.67-59.14,8.4-71.5.57c-4.91-4.73-2.31-11.8,2.47-13s37.88-7.5,37.88-7.5l-1.54-27.84"/><polygon class="cls-13" points="1570.53 1738.6 1583.47 1727.27 1593.67 1740.18 1586.31 1746.08 1570.53 1738.6"/><path class="cls-13" d="M1553.26,1759.68l-18.11,6.8v3.59h97.51s3.36-10.37-18.18-13.39c0,0-52.52-.28-61.22,3"/><path class="cls-11" d="M1707.85,1761.19a9,9,0,1,1,.8,12.73,9,9,0,0,1-.8-12.73"/><path class="cls-11" d="M1723.63,1743.3a9,9,0,1,1,.8,12.73,9,9,0,0,1-.8-12.73"/><path class="cls-11" d="M1739.48,1725.32a9,9,0,1,1,.8,12.73,9,9,0,0,1-.8-12.73"/><path class="cls-11" d="M1755,1707.67a9,9,0,1,1,.8,12.73,9,9,0,0,1-.8-12.73"/><path class="cls-11" d="M1695.87,1697.76l21.11-28.37s37.12,29.06,37.65,33.92-29.81,49.92-43.86,54c-6.79.55-10.38-6.07-8.1-10.43s16.43-33.38,16.43-33.38l-21.9-17.25"/><polygon class="cls-13" points="1713.9 1724.43 1713.96 1707.22 1730.39 1708.12 1729.93 1717.54 1713.9 1724.43"/><path class="cls-13" d="M1716.35,1751.21c-3.3,8.69-6.78,18-6.78,18l2.69,2.38,64.4-73s-5.56-9.38-22.07,4.78c0-.06-34.91,39.15-38.24,47.84"/><path class="cls-14" d="M2096.86,1520.06a52.18,52.18,0,0,0-21,3.62,64.16,64.16,0,0,0-9.56,2.2l-.27.1a292,292,0,0,0-102.62-16.33c-5.61.12-7.74,5.61-6.35,9.68-4.37,1.77-5.4,7.55-3,10.94a69.12,69.12,0,0,1,14.64,2.27,260.89,260.89,0,0,1,47.14,3.75c2.68,0,35.91,6.85,41.8,8.53a54.38,54.38,0,0,0,12.12,2.4c3.53.17,9.6.43,12.92-1.72a7.3,7.3,0,0,0,.88-5,48.4,48.4,0,0,0-6.06,1.33c-2.33.63-4.33-2.47-2.44-4.18,6.14-5.55,14.21-8.68,22.38-10.57a25.78,25.78,0,0,0,3.07-3.7,12.07,12.07,0,0,0,.91-1.72,7.23,7.23,0,0,0-4.56-1.6"/><path class="cls-14" d="M1861.79,1519.51c-.89-3.25-3.8-6-7.92-5.18l.12-.15c2.29-2.95,2.89-6.89.1-9.79.21-4.91-4.91-10-10.39-6.72a102.13,102.13,0,0,1-61.78,14.2c-7.26-9.75-21.5-13.56-32.62-5-4,3.11-4.93,9.14,0,12.09l2.78,1.66a39.6,39.6,0,0,1,12.64-.77c2.95.41,1.62,5.58-1.24,4.49-2.22-.84-2.3-2.18-5.71-1.38-.27.06-2.12,3.64,6.53,8.18,2.22.34,5-.57,7.08-.62,3.12-.07,6.21,0,9.33.21,5.93.37,11.85.86,17.79,1.15,12.71.61,50.24-3.39,52.76-3.87a89.31,89.31,0,0,0,10.19-2.58,8,8,0,0,0,.34-5.92"/><path class="cls-8" d="M1864.68,1628.37s-26.35,52.37-25.58,64.14,12.8,63.55,12.8,63.55l-27.45,7-3.84,9a4.31,4.31,0,0,0,4,6h70.87s-16-65.34-16-75,27.44-32.3,27.44-32.3-.17,35.35,3.51,42.42,36.82,43.83,36.82,43.83l-25.73,5-5,9.73a4.31,4.31,0,0,0,3.84,6.27h74.12l-6-25.21s-33.57-41.61-35.43-50.64,11.88-28.71,14.57-38-2.75-41.21-2.75-41.21Z"/><path class="cls-8" d="M1825.3,1779.07a7.26,7.26,0,1,1-7.26,7.26,7.26,7.26,0,0,1,7.26-7.26"/><path class="cls-11" d="M1934.8,1442.64c-5.19-16.95-21.53-25.51-38.73-23.9a46.29,46.29,0,0,0-38.34,27.43c-5.37,12.35-7.56,35.41,9.27,40,8.08,2.22,11.52-10.31,3.46-12.54a4.2,4.2,0,0,1-2.67-2.48c3.4,2.55,7.19,2.11,10.81.4a14.07,14.07,0,0,0,2.41.52,12.7,12.7,0,0,0,2.1.09,17.69,17.69,0,0,0,15.4.63c.53.68,1.08,1.33,1.63,1.94a5.54,5.54,0,0,0,5.63,1.78c1.13,2.44,3.14,4.28,6,4.27a8.21,8.21,0,0,0,5.72-2,35.4,35.4,0,0,1-.8,3.8c-1.64,6,6.41,11.27,10.86,6.32,11.18-12.32,12-30.9,7.25-46.26"/><path class="cls-11" d="M1832.56,1496.62s12.24,14.45,12.74,41.82c11.12-1.68,18.27-1.12,20,0s-12.74,84.58-12.74,84.58,26.2,18.77,59.16,17.09a557.05,557.05,0,0,1,59.22.11l-6.14-88.37,10.06,2.23s-14-36.87,0-46.93c-12.3-1.67-59-20.75-142.3-10.53"/><path class="cls-8" d="M1845.3,1779.07a7.26,7.26,0,1,1-7.26,7.26,7.26,7.26,0,0,1,7.26-7.26"/><path class="cls-14" d="M1927,1466.64c-5.86-3.63-11.78-1.16-16.26,3.09q-19-3.12-38.1-5.16a5.37,5.37,0,0,0-4.39,1.43,6.07,6.07,0,0,0-3.54,6.07,43.83,43.83,0,0,0,.5,5.18c.7,2.54,1.54,5,2.2,7a66.23,66.23,0,0,0,6.21,13.55,61,61,0,0,0,7.11,9.44c.48.37,1,.73,1.45,1.07,5.86,5.32,13.13,10.12,21.46,10.13,9.25,0,18.49-11.63,18.93-18.7.25-4.11-.81-8.26-.44-12.35.06-.71.59-1.81.42-1.86,1.1-.57,4.55-1.55,5.94-2.74a10,10,0,0,0-1.49-16.15"/><path class="cls-8" d="M1865.3,1779.07a7.26,7.26,0,1,1-7.26,7.26,7.26,7.26,0,0,1,7.26-7.26"/><path class="cls-8" d="M1885.3,1779.07a7.26,7.26,0,1,1-7.26,7.26,7.26,7.26,0,0,1,7.26-7.26"/><path class="cls-8" d="M1921.3,1779.07a7.26,7.26,0,1,1-7.26,7.26,7.26,7.26,0,0,1,7.26-7.26"/><path class="cls-8" d="M1941.3,1779.07a7.26,7.26,0,1,1-7.26,7.26,7.26,7.26,0,0,1,7.26-7.26"/><path class="cls-8" d="M1961.3,1779.07a7.26,7.26,0,1,1-7.26,7.26,7.26,7.26,0,0,1,7.26-7.26"/><path class="cls-8" d="M1981.3,1779.07a7.26,7.26,0,1,1-7.26,7.26,7.26,7.26,0,0,1,7.26-7.26"/><path class="cls-15" d="M3718.06,1517.9h0a3.17,3.17,0,0,1,3.17,3.17v84.42a3.17,3.17,0,0,1-6.34,0v-84.42a3.17,3.17,0,0,1,3.17-3.17"/><path class="cls-15" d="M4130.62,1270.12h0a3.17,3.17,0,0,1,3.17,3.17v84.42a3.17,3.17,0,0,1-6.34,0v-84.42a3.17,3.17,0,0,1,3.17-3.17"/><path class="cls-11" d="M3692.84,1526.7l448-267.69a10.87,10.87,0,0,1,11.15,18.66l-448,267.69a10.87,10.87,0,1,1-11.15-18.66"/><path class="cls-15" d="M3718.54,1410c1.76.35,5.36,5.52,13.88,5.09s266.23-33.92,266.23-33.92,11.87-3.11,14.09-8.66,8-6.41,9.16-1.17-2.61,18-21.36,20.86-267.19,34-267.19,34-13.34.84-16.71-8c-3-8,.48-8.45,1.9-8.2"/><path class="cls-15" d="M3767.68,1423.3A13.68,13.68,0,1,1,3754,1437a13.68,13.68,0,0,1,13.68-13.68"/><path class="cls-15" d="M3966.68,1397.3A13.68,13.68,0,1,1,3953,1411a13.68,13.68,0,0,1,13.68-13.68"/><path class="cls-16" d="M3788.82,1146.5s-50.29-19.43-97.84,12.57h-13.63a6.88,6.88,0,0,0-6.5,4.61l-3.39,9.72a8.76,8.76,0,0,0,3,9.9,7.34,7.34,0,0,0,8.15.44l19.93-11.83s51.32-20.38,86-5.28Z"/><path class="cls-16" d="M3870.62,1146.51l3.77,20.87s48.31-13.59,75.48,15.1c0,1.79,2.71,5.61,5.57,9.14a8.39,8.39,0,0,0,12.84.24l2.8-3.2a11.21,11.21,0,0,0-.3-15.09l-15.58-8.1s-29.48-27.76-84.58-19"/><path class="cls-16" d="M3859.21,1104.31c0-20.09-14.81-36.37-33.09-36.37s-33.09,16.28-33.09,36.37c0,15.42,8.74,28.59,21.06,33.88a5.92,5.92,0,0,1-2.94,4.94c-4.29,2.59,3,25.23,3,25.23l28.54-10.23-1.21-15.07a44,44,0,0,1-.23-6.62c9.55-6.36,18-18.92,18-32.13"/><path class="cls-15" d="M3811.16,1143.13s-17.19-7.23-34.25-.75c-3.35,15.76-2.58,34-.11,36.69s15.64,4,15.64,4l-11.64,74.13s42.27,20.38,89.82,0c4.53-20.38-5-76.74-5-76.74s8.38.77,11-1.82,6-27.28-6-35.57c-3.53-7.56-29.18,0-29.18,0s-8,19.27-19.31,17-11-16.94-11-16.94"/><path class="cls-17" d="M3795.72,1091s0-15.11,4.7-20.75c6.41-7.66,22.37-12.36,48-5.33s8.36,51.78,8.36,51.78-.79-15.91-21.94-19.43-39.12-6.27-39.12-6.27"/><path class="cls-11" d="M3785.82,1101.12s18-7,39.91,8c2.23-3.92,9.75-14.22,9.75-14.22s-19-15.82-39.69-6.09Z"/><path class="cls-16" d="M3848.85,1108.22s5.39-10,11.12-5,4.16,10.51-2,14.9-9.12-9.9-9.12-9.9"/><path class="cls-18" d="M3958.35,1381s5,10-25.93,11.18-30.05,3.3-32.31-1.48Z"/><path class="cls-19" d="M3921.85,1365.39s-14,7-22.5,6.79c-4.26,6.69.74,18.5.74,18.5s48.75.39,56.21-6.6c5.06-4.41-.43-9.5-5.89-10.06s-13.12.86-28.56-8.63"/><path class="cls-18" d="M3859.35,1395s5,10-25.93,11.18-30.05,3.3-32.31-1.48Z"/><path class="cls-19" d="M3826.85,1378.39s-18,8-26.5,7.79c-4.26,6.69.74,18.5.74,18.5s48.75.39,56.21-6.6c5.06-4.41-.43-9.5-5.89-10.06s-9.12-.14-24.56-9.63"/><path class="cls-11" d="M3783.52,1250.06s-11.46,32.19,3.28,52.21,23.09,30.93,23.09,30.93l-10,55.36,26.85-7.69s20.64-40.29,20.21-48.76-6.82-38.06-6.82-38.06,35.53,10,46.21,28,11.68,53.09,11.68,53.09l24-8s9-41.88,1.18-63.24-55.47-47.86-55.47-47.86Z"/><path class="cls-6" d="M1072.77,1949.34l-9.48-8.22a30.11,30.11,0,0,0-13-6.59l-131-30.1a30.09,30.09,0,0,0-9.75-.61l-105.49,10.62a30.08,30.08,0,0,0-16.21,6.79l-15.58,12.94a30.09,30.09,0,0,0,20,53.23l58.86-1.54a30.1,30.1,0,0,1,15.17,3.65l7.74,4.22c8.69,8,46.12,39.06,96.3,34.75,47.64-4.09,66.47-4.22,82.66-17.44l.09-.07a30,30,0,0,0,3.11-2.26l16.19-13.58a30.09,30.09,0,0,0,.38-45.79"/><path class="cls-20" d="M920.92,1591s-6.17,53.47-45.67,52.42c-19.84-.53-30.9-7.38-36.37-12.35a6.08,6.08,0,0,0-8.59.33,6.35,6.35,0,0,0-.41.49,6.06,6.06,0,0,0-.06,7.21c4.78,6.58,17.79,19,47.64,18.48,46.78-.8,70.92-57.93,70.92-57.93Z"/><path class="cls-21" d="M980.75,1588.56s5.56,11.36,4.84,38.72-33.76,19.62-33.76,19.62l16.91,28.91s13,58.34,38.85,64,29.43-2.07,29.43-2.07,11.36-17.55,23.75-7.74,0,28.91-17.55,28.91-53.18,10.33-78.48-25.3-33.56-26.85-33.56-26.85-18.07,18.07-34.59,26.85c-6.2,5.68-24.44,22-60,29.45-4.91,2.1-15.73,1.34-22.18.63a14,14,0,0,1-9.14-4.83c-4.49-5.26-10.48-14.53-5.28-22.16,11.69-3.41,28.91,10.84,28.91,10.84s36.76-7.84,53.7-24.78,32-57.83,38.21-58.86,17.45-21.69,11-28.4-15.69-35.11-15.69-35.11Z"/><path class="cls-21" d="M990.54,1803.91s5.47,13.94,5.47,28.37-42.79,82.12-42.79,82.12l-20.41-5.47s19.89-62.76,32.83-72.69c-3.48-7.93-17.92-22.37-17.92-22.37l-30.87-3s-5.73,49.27-15.3,57.24-81.2,47.29-81.2,47.29L809.87,1893s42.8-32.85,66.69-36.33c0-10,2-41.31,2-41.31L934.3,1795Z"/><path class="cls-11" d="M912.47,1671.23l13.45-14.31s17.54,22.91,42.83,18.89c2.47,9.3,3.25,73.26,3.25,73.26l26.51,57.27s-124,71.47-163.3-6.63c23.67-9,43.39-17.62,82.67-58.8,0,0,4.68-12.58.86-22.86-.41-1.11,13.08-10.57,13.17-11.85,1.75-26.5-9.86-33.77-19.44-35"/><path class="cls-15" d="M945.93,1603.91l39.49-10.13s5.06-37.47-39.49-30.38-35.44,57.72-35.44,57.72-7.09,53.36-46.56,51.63c-19.82-.87-30.77-7.9-36.15-13a6.08,6.08,0,0,0-8.6.2,6.08,6.08,0,0,0-.59,7.67c4.67,6.66,17.47,19.29,47.32,19.29,46.79,0,71.9-56.71,71.9-56.71s-18.23-5.06-10.13-18.23,16.19,2.58,16.19,2.58Z"/><path class="cls-15" d="M886.87,1860.86c6.58-6.69,15.26-8.82,19.38-4.77s2.13,12.77-4.45,19.46-15.26,8.82-19.38,4.77-2.13-12.76,4.45-19.45"/><path class="cls-15" d="M978.86,1832.27c.71-9.36,6-16.59,11.73-16.15s9.86,8.38,9.15,17.73-6,16.59-11.73,16.15-9.86-8.38-9.15-17.73"/><polygon class="cls-15" points="884.63 1868.17 872.13 1857.58 876.65 1852.04 890.5 1862.72 884.63 1868.17"/><polygon class="cls-15" points="984.16 1826.68 962.64 1830.99 964.12 1837.79 984.16 1835.23 984.16 1826.68"/><path class="cls-11" d="M999.24,1950.05a8.2,8.2,0,1,1-8.2,8.2,8.2,8.2,0,0,1,8.2-8.2"/><path class="cls-11" d="M977.55,1950.05a8.2,8.2,0,1,1-8.2,8.2,8.2,8.2,0,0,1,8.2-8.2"/><path class="cls-11" d="M955.76,1950.05a8.2,8.2,0,1,1-8.2,8.2,8.2,8.2,0,0,1,8.2-8.2"/><path class="cls-11" d="M934.37,1950.05a8.2,8.2,0,1,1-8.2,8.2,8.2,8.2,0,0,1,8.2-8.2"/><path class="cls-15" d="M961.35,1903.67,960,1929s30.1,5.75,34.45,6.82,6.71,7.5,2.25,11.8c-11.24,7.12-62,2.76-65-.52s-.5-46.08-.5-46.08l32,2.67"/><path class="cls-15" d="M987,1949.82c7.91,3,16.12,6.18,16.12,6.18v3.27H914.83s-3-9.43,16.53-12.18c0,0,47.76-.25,55.67,2.73"/><path class="cls-11" d="M815.16,1949a8.15,8.15,0,1,1-4.18,10.74,8.15,8.15,0,0,1,4.18-10.74"/><path class="cls-11" d="M806.49,1929.24a8.15,8.15,0,1,1-4.18,10.74,8.15,8.15,0,0,1,4.18-10.74"/><path class="cls-11" d="M797.77,1909.41a8.15,8.15,0,1,1-4.18,10.74,8.15,8.15,0,0,1,4.18-10.74"/><path class="cls-11" d="M789.2,1889.94a8.15,8.15,0,1,1-4.18,10.74,8.15,8.15,0,0,1,4.18-10.74"/><path class="cls-15" d="M853.73,1901.63l-10.38-30.22s-39.94,14.85-41.72,18.89,12,51.17,23,58.54c5.7,2.34,10.6-2.38,9.83-6.77s-5-33.25-5-33.25l23.59-8.85"/><path class="cls-15" d="M821.41,1942c.46,8.39.91,17.33.91,17.33l-3,1.31-35.44-80.55s7.36-6.55,17.7,10.17c0,0,19.37,43.39,19.83,51.74"/><polygon class="cls-13" points="830.64 1916.85 830.59 1901.88 816.29 1902.65 816.69 1910.84 830.64 1916.85"/><polygon class="cls-13" points="970.35 1932.04 958.06 1921.27 948.37 1933.54 955.36 1939.13 970.35 1932.04"/><path class="cls-6" d="M2659.28,1345.64l-55.59,1.57-60.1,39a13.06,13.06,0,0,0,.61,22.71l50.35,38.63s56.45,37.11,79.12-9c15.61-31.75,54.52-27.7,77.25-22.09a128.76,128.76,0,0,0,49.34,2.61c18.22-2.65,40.73-7.83,57.81-17.92,34.12-20.16,38.26-62.3,38.26-62.3l-32.53-8-113.52.33-91,14.51"/><path class="cls-22" d="M2796.21,1170.54s-22,57.75-21.83,68.62l1,48.84h30.1s-.22-28.25,5.94-49.51c4.17-14.4,12.44-23.42,18.36-26.57,10.51,20.63,22.57,74.08,22.57,74.08h30.11L2871,1173.75Z"/><path class="cls-23" d="M2809.75,1107.11s-2.77-27-17.66-24.12-68.8,55.32-68.8,55.32-16.31-2.13-15.6,9.93,9.93,20.57,26.24,0,75.82-41.13,75.82-41.13"/><path class="cls-15" d="M2784.81,1083.78l30.26-14.63,39.44,7.32s22.51,6.36,23,26.53a80.4,80.4,0,0,1-7.84,35.85l1.38,32.56s-43.56,23.84-78.41,0c4.59-19.72,5.29-60.79,5.29-60.79s-.74-23.67-13.12-26.84"/><path class="cls-24" d="M2784.81,1083.78l30.26-14.63,39.44,7.32s22.51,6.36,23,26.53a80.4,80.4,0,0,1-7.84,35.85l1.38,32.56s-43.56,23.84-78.41,0c4.59-19.72,5.29-60.79,5.29-60.79S2797.19,1087,2784.81,1083.78Z"/><path class="cls-23" d="M2843.4,1124.76s-13.48,45.67-47.92,59.15a186.31,186.31,0,0,1-21.71,0s-17.22,4.49-12,15.72,32.2,0,32.2,0,47.92-7.49,69.63-61.4c0-.74,3.75-21-20.2-13.47"/><path class="cls-23" d="M2801.35,1054.08s1.62,21.22,5.27,29.77,12.38,10.14,22,7.94,27.17-12.73,23.66-47.4c-13.17-4.83-47.63-3.51-47.63-3.51Z"/><path class="cls-15" d="M2797.65,1050.5s2.33-32.32,28.47-32.32c42.61,0,28.35,46,28.35,46l-30.62-13.7Z"/><path class="cls-24" d="M2797.65,1050.5s2.33-32.32,28.47-32.32c42.61,0,28.35,46,28.35,46l-30.62-13.7Z"/><path class="cls-22" d="M2780.22,1059.76s22.93,12.77,38.06-2.36a60.53,60.53,0,0,0,8.11-10.09l-28.75-2.75-5,4.39Z"/><path class="cls-11" d="M2739.11,1331.37a7.92,7.92,0,1,1-7.92,7.92,7.92,7.92,0,0,1,7.92-7.92"/><path class="cls-11" d="M2760.05,1331.37a7.92,7.92,0,1,1-7.92,7.92,7.92,7.92,0,0,1,7.92-7.92"/><path class="cls-11" d="M2781.09,1331.37a7.92,7.92,0,1,1-7.92,7.92,7.92,7.92,0,0,1,7.92-7.92"/><path class="cls-11" d="M2801.75,1331.37a7.92,7.92,0,1,1-7.92,7.92,7.92,7.92,0,0,1,7.92-7.92"/><path class="cls-15" d="M2774,1286.58l30.94-2.57s2.41,41.32-.48,44.49-51.93,7.38-62.78.5c-4.31-4.15-2-10.36,2.17-11.39s33.26-6.59,33.26-6.59l-1.36-24.44"/><path class="cls-24" d="M2774,1286.58l30.94-2.57s2.41,41.32-.48,44.49-51.93,7.38-62.78.5c-4.31-4.15-2-10.36,2.17-11.39s33.26-6.59,33.26-6.59l-1.36-24.44"/><path class="cls-8" d="M2750.35,1331.13c-7.64,2.87-16.16,6-16.16,6v3.15h85.87s2.95-9.11-16-11.76c0,0-46.11-.27-53.71,2.61"/><path class="cls-11" d="M2816.11,1331.37a7.92,7.92,0,1,1-7.92,7.92,7.92,7.92,0,0,1,7.92-7.92"/><path class="cls-11" d="M2837.05,1331.37a7.92,7.92,0,1,1-7.92,7.92,7.92,7.92,0,0,1,7.92-7.92"/><path class="cls-11" d="M2858.09,1331.37a7.92,7.92,0,1,1-7.92,7.92,7.92,7.92,0,0,1,7.92-7.92"/><path class="cls-11" d="M2878.75,1331.37a7.92,7.92,0,1,1-7.92,7.92,7.92,7.92,0,0,1,7.92-7.92"/><path class="cls-15" d="M2851,1286.58l30.94-2.57s2.41,41.32-.48,44.49-51.93,7.38-62.78.5c-4.31-4.15-2-10.36,2.17-11.39s33.26-6.59,33.26-6.59l-1.36-24.44"/><path class="cls-24" d="M2851,1286.58l30.94-2.57s2.41,41.32-.48,44.49-51.93,7.38-62.78.5c-4.31-4.15-2-10.36,2.17-11.39s33.26-6.59,33.26-6.59l-1.36-24.44"/><path class="cls-8" d="M2827.35,1331.13c-7.64,2.87-16.16,6-16.16,6v3.15h85.87s2.95-9.11-16-11.76c0,0-46.11-.27-53.71,2.61"/><path class="cls-11" d="M2596.68,1293.25s-3.72,18-2.89,31.24,9.06,42.06,9.06,42.06l23.47-.15-2.64-39.94s-3.35-22.35,11-23.83,13.88,25.83,13.88,25.83l-1.13,36.6,24.38.33,4.84-40.93s3-24-7.27-45-72.7,13.79-72.7,13.79"/><path class="cls-8" d="M2613.27,1316.15c6.84,0,12.38,6.64,12.38,14.84s-5.54,14.84-12.38,14.84-12.38-6.65-12.38-14.84,5.54-14.84,12.38-14.84"/><path class="cls-8" d="M2659.28,1316c6.84,0,12.38,6.65,12.38,14.84s-5.54,14.84-12.38,14.84-12.38-6.64-12.38-14.84,5.54-14.84,12.38-14.84"/><path class="cls-8" d="M2603.69,1383.61c2,0,3.58,2.07,3.58,4.63s-1.6,4.63-3.58,4.63-3.58-2.07-3.58-4.63,1.6-4.63,3.58-4.63"/><path class="cls-8" d="M2627.69,1397.61c2,0,3.58,2.07,3.58,4.63s-1.6,4.63-3.58,4.63-3.58-2.07-3.58-4.63,1.6-4.63,3.58-4.63"/><path class="cls-8" d="M2644.69,1397.61c2,0,3.58,2.07,3.58,4.63s-1.6,4.63-3.58,4.63-3.58-2.07-3.58-4.63,1.6-4.63,3.58-4.63"/><path class="cls-8" d="M2652.69,1392.61c2,0,3.58,2.07,3.58,4.63s-1.6,4.63-3.58,4.63-3.58-2.07-3.58-4.63,1.6-4.63,3.58-4.63"/><path class="cls-8" d="M2659.69,1387.61c2,0,3.58,2.07,3.58,4.63s-1.6,4.63-3.58,4.63-3.58-2.07-3.58-4.63,1.6-4.63,3.58-4.63"/><path class="cls-8" d="M2666.69,1382.61c2,0,3.58,2.07,3.58,4.63s-1.6,4.63-3.58,4.63-3.58-2.07-3.58-4.63,1.6-4.63,3.58-4.63"/><path class="cls-8" d="M2610.69,1388.61c2,0,3.58,2.07,3.58,4.63s-1.6,4.63-3.58,4.63-3.58-2.07-3.58-4.63,1.6-4.63,3.58-4.63"/><path class="cls-8" d="M2618.69,1393.61c2,0,3.58,2.07,3.58,4.63s-1.6,4.63-3.58,4.63-3.58-2.07-3.58-4.63,1.6-4.63,3.58-4.63"/><path class="cls-16" d="M2611,1200c2.28,0,4.13,2.48,4.13,5.54s-1.85,5.54-4.13,5.54-4.13-2.48-4.13-5.54,1.85-5.54,4.13-5.54"/><path class="cls-16" d="M2654,1201c2.28,0,4.13,2.48,4.13,5.54s-1.85,5.54-4.13,5.54-4.13-2.48-4.13-5.54,1.85-5.54,4.13-5.54"/><path class="cls-16" d="M2594.57,1243.46l-6.27-15.78s-31.42,7.74-44.4,27.4l-.38.12c-10.34,3.59-16.32,18.43-16.32,18.43s1.27,9.75,13,8a2.17,2.17,0,0,0,1.83-2c.3-6.86,3.92-8.56,3.92-8.56l1,.53a2.2,2.2,0,0,0,3-.94,2.17,2.17,0,0,0,.23-.77l.61-5.57c4.25-4.18,10.62-9.67,17.22-12.62,11.58-5.25,26.59-8.24,26.59-8.24"/><path class="cls-16" d="M2670.93,1234.1l2-16.86s32.36-.57,49.94,15.1h.4c10.92.82,20.5,13.63,20.5,13.63s1.27,9.75-10.52,11a2.17,2.17,0,0,1-2.29-1.49c-2.05-6.56-6-7.27-6-7.27l-.84.77a2.2,2.2,0,0,1-3.53-.83l-2-5.23c-5.18-2.95-12.74-6.62-19.88-7.79-12.51-2-27.78-1-27.78-1"/><path class="cls-15" d="M2685.72,1223.32c-3.16-8.19-16.49-8-23.72-8.83a158.54,158.54,0,0,0-56.81,4l-5.34.68c-5,.66-11.07,3.84-14,8.45-2.28,3.6,4.8,27.54,8.82,28.06l.8.1c1,11.3-3.85,33.43-3.85,33.43a14.59,14.59,0,0,0,7.38,4.38c12.67,2.42,22.17,7.22,33.51,6.5q8.42-.53,16.87-.29c5.16.15,12.64-3.36,15.55-8,4.75-7.61,15.31-6.92,11.51-15.88-3.21-7.55-5.61-14.74-6.54-22.52h.17c1.66-.26,5.31,1.08,6.56-.78,4.09-6.14,12-21.8,9.09-29.3"/><path class="cls-8" d="M2642.59,1254.67l19.41-40.18s-48.79-.47-55.15,3.66c-4.2,2.73,9.82,23.85,19.82,37.87a9.28,9.28,0,0,0,15.92-1.35"/><path class="cls-16" d="M2632.62,1182.39a21.39,21.39,0,1,1-21.39,21.39,21.39,21.39,0,0,1,21.39-21.39"/><path class="cls-15" d="M2603.35,1364l21.23-1.86a3.39,3.39,0,0,1,3.64,3.89l-2.37,15.25,6.28,9.92a6,6,0,0,1-1.91,8.27l-.09.05-1.31.78a6,6,0,0,1-6.65-.36L2602.35,1385l-2.08-17.24a3.39,3.39,0,0,1,3-3.75h.09"/><path class="cls-15" d="M2670.35,1362.89l-20.22-1.77a3.89,3.89,0,0,0-4.22,3.53v.16l-.78,16.47-6.28,9.92a6,6,0,0,0,1.91,8.27l.09.05,1.31.78a6,6,0,0,0,6.65-.36l19.82-14.93,5.13-17.14a3.89,3.89,0,0,0-2.63-4.83,3.84,3.84,0,0,0-.77-.15"/><path class="cls-8" d="M2616.45,1201.06l33.83,1,4.17-1s6.07-26-21.07-26-22.14,24.71-22.14,24.71Z"/><path class="cls-15" d="M2623.54,1213.06h19a4,4,0,0,0,3.83-2.74l3.48-10.26h-32.94l2.72,10a4,4,0,0,0,3.91,3"/><path class="cls-15" d="M2632.1,1175.07c2.09,0,3.79.77,3.79,1.71s-1.7,1.71-3.79,1.71-3.79-.77-3.79-1.71,1.7-1.71,3.79-1.71"/><path class="cls-6" d="M685.79,1617.94h0a15,15,0,0,1-7.67,16.78L666,1641a25.34,25.34,0,0,0-9,7.46c-10.72,14.64-6.59,41.59-46.71,57.18s-72.09-43.21-72.09-43.21A16.18,16.18,0,0,0,524,1654h-4.73a22.38,22.38,0,0,0-22.46,22.3q0,.9.07,1.8c.5,6,7.94,12,15.26,16.41,13.68,8.27,22.26,21.64,17.19,39.93S498.6,1762,478.15,1762h-53l-41.8-3.33c-10.72-.86-21.43-5.9-31.09-12.44a111.08,111.08,0,0,1-43.54-59.17c-4.28-13.78-2.65-18.46,1.25-37.65l31.33-10,38.63-24.52a65.32,65.32,0,0,1,33.29-10.15l54.2-1.43a67,67,0,0,0,21.33-4.09l25.43-9.35a67,67,0,0,1,26.78-4l67.59,3.72L675,1607a15,15,0,0,1,10.77,10.94"/><path class="cls-16" d="M638.16,1389c-.61,15.63-12.48,28.32-27.88,28.32a28.32,28.32,0,1,1,0-56.64c15.39,0,29.16-4.5,27.88,28.32"/><path class="cls-11" d="M582.4,1410.2l7.74-1.67s-7.49-17.35,0-31.08,48-9.73,48-9.73-.88-39.82-46.9-26.55-20.49,67.25-8.84,69"/><path class="cls-16" d="M683.8,1469.93s10-4.51,15.8-2.26,11,10.52,8.28,16-21.07,1-21.07,1Z"/><path class="cls-22" d="M595.84,1595.09s-6,16.71,0,25.06c15.22.6,50.72,0,50.72,0s6.84-6.53,1.24-12.58a10.6,10.6,0,0,0-7.19-3.24c-11.66-.69-21.47-4.12-24.78-10.73,0-.3-20,1.49-20,1.49"/><path class="cls-22" d="M600.53,1622.44a5.75,5.75,0,1,1-5.75,5.75,5.75,5.75,0,0,1,5.75-5.75"/><path class="cls-16" d="M529.1,1405.49l2.51-11.28s-4.26-15-13-13-9,16.55-9,16.55l11,18Z"/><path class="cls-22" d="M614.53,1622.44a5.75,5.75,0,1,1-5.75,5.75,5.75,5.75,0,0,1,5.75-5.75"/><path class="cls-22" d="M628.53,1622.44a5.75,5.75,0,1,1-5.75,5.75,5.75,5.75,0,0,1,5.75-5.75"/><path class="cls-22" d="M642.53,1622.44a5.75,5.75,0,1,1-5.75,5.75,5.75,5.75,0,0,1,5.75-5.75"/><path class="cls-22" d="M535,1540s-13.61-11.38-23.52-8.67c-5.82,14.07-17.54,47.59-17.54,47.59s3.76,8.68,11.38,5.51a10.6,10.6,0,0,0,5.53-5.63c4.68-10.7,11.29-18.72,18.64-19.54.28.15,5.51-19.26,5.51-19.26"/><path class="cls-11" d="M638.16,1505.5s-5.13,67.44-17.7,90.47c-5.86,3.35-26.51,1.86-26.51,1.86l5.6-32.26-2-26.07-31.93,32.26s-27,3.58-38.13-6.19c0-7.17,6.19-27.7,6.19-27.7s18.25,7.17,22.16,4.24,15.08-38.92,15.08-38.92Z"/><path class="cls-22" d="M496.93,1531a5.75,5.75,0,1,1,3.41,7.38,5.75,5.75,0,0,1-3.41-7.38"/><path class="cls-22" d="M492.09,1544.14a5.75,5.75,0,1,1,3.41,7.38,5.75,5.75,0,0,1-3.41-7.38"/><path class="cls-22" d="M608.19,1420s-17.17-.26-23.86,2.57-16.21,10.81-16.21,10.81-28.82.51-36.54-30.11c0-.26-10.35-1.8-14.47,10.55,4.63,10.29,3.23,26.23,52.81,45,8.12,3.07.77,46.14.77,46.14s23.67,26,72.31,4.12c.26-7.72-3.35-42.72-3.35-42.72s25.73,21.1,49.15,19c3.22-2.83,3.06-10.12-2.83-16s-38-9-47.82-36c-2.16-7.36-10.47-12.86-30-13.36"/><path class="cls-22" d="M487.26,1557.27a5.75,5.75,0,1,1,3.41,7.38,5.75,5.75,0,0,1-3.41-7.38"/><path class="cls-11" d="M424.58,1440.25s22.3,51,24.3,62.73-7.15,84-7.15,84H401.45s11.35-63.6,5.36-72.09-23.46-35.16-23.46-35.16,3,33.12-1,47.59S361.93,1598,361.93,1598H322.45S338,1537,337,1525.21s-15-67.67-15-67.67Z"/><path class="cls-16" d="M595.45,1411.06l-2,10s13,19.35,21.45,19.35,7.36-15.17,7.36-15.17l-2.6-15Z"/><path class="cls-22" d="M482.42,1570.41a5.75,5.75,0,1,1,3.41,7.38,5.75,5.75,0,0,1-3.41-7.38"/><path class="cls-25" d="M403.84,1296.9s38.28,55.89,46.84,60.4,66.44,17,66.44,17S533.6,1383,533.6,1391s-21.15,0-21.15,0l.36,12-17.52-17.79s-36.11-1.74-53.63-7.65S403.82,1354,403.82,1354Z"/><path class="cls-15" d="M363.25,1280.11s28.87,1.95,40.57,10.06,12.6,14.42,12.6,14.42-7.66,96.89,12.62,142c-15.77-3.61-75.46.21-108.64,19.14,3.78-27.49-6-101.61-6-101.61l-9.74-59.94s21.19-24.66,58.59-24.07"/><path class="cls-25" d="M325.85,1250.14s17.71,20.54,5,37.76c6.58,8.61,39,24.31,39,24.31l3-27.35s-13.67-9.69-14.18-34.72c-11.06-4.78-32.82,0-32.82,0"/><path class="cls-25" d="M304.66,1304.14s28.39-14.87,26.59,17.58-8.39,36.8,1.34,50.32,66.26,21.79,66.26,21.79l18-3s17.87,4.41,20.58,13.2-26.43,19.56-43.11,13.22-68-2.26-96.44-36.29c-12.15-14.18-13.95-58.79,6.78-76.82"/><path class="cls-16" d="M378.46,1237.21c-.7,18-14.34,32.54-32,32.54s-32-14.57-32-32.54,14.34-32.54,32-32.54,33.47-5.12,32,32.54"/><path class="cls-11" d="M313.15,1232.55s24.29-21.54,62.54-18.62c1.79-11.26-6.51-36.12-32.21-34.6s-46,21.82-30.33,53.22"/><path class="cls-26" d="M334.59,1210.91s22.14-9.85,38.34-6.81,30.89,6.81,30.89,6.81-33.68,4.33-44.06,12.44-25.17-12.44-25.17-12.44"/><path class="cls-16" d="M316.85,1225.51c4.52,0,8.19,4.34,8.19,9.69s-3.67,9.69-8.19,9.69-8.19-4.34-8.19-9.69,3.67-9.69,8.19-9.69"/><path class="cls-15" d="M488.61,1635.44a10.44,10.44,0,1,1-10.44,10.44,10.44,10.44,0,0,1,10.44-10.44"/><path class="cls-15" d="M461,1635.44a10.44,10.44,0,1,1-10.44,10.44A10.44,10.44,0,0,1,461,1635.44"/><path class="cls-15" d="M433.26,1635.44a10.44,10.44,0,1,1-10.44,10.44,10.44,10.44,0,0,1,10.44-10.44"/><path class="cls-15" d="M406,1635.44a10.44,10.44,0,1,1-10.44,10.44A10.44,10.44,0,0,1,406,1635.44"/><path class="cls-27" d="M442.64,1576.4l-40.79-3.4s-3.18,54.48.63,58.65,68.46,9.72,82.76.66c5.68-5.47,2.67-13.66-2.86-15s-40.85-8.68-40.85-8.68l1.82-32.23"/><polygon class="cls-15" points="453.52 1610.74 438.53 1597.63 426.73 1612.58 435.25 1619.38 453.52 1610.74"/><path class="cls-27" d="M472.85,1635.13c10.07,3.79,20.31,7.87,20.31,7.87v4.16H381s-3.89-12,21-15.5c.05,0,60.83-.32,70.9,3.47"/><path class="cls-15" d="M410.61,1645.44a10.44,10.44,0,1,1-10.44,10.44,10.44,10.44,0,0,1,10.44-10.44"/><path class="cls-15" d="M383,1645.44a10.44,10.44,0,1,1-10.44,10.44A10.44,10.44,0,0,1,383,1645.44"/><path class="cls-15" d="M355.26,1645.44a10.44,10.44,0,1,1-10.44,10.44,10.44,10.44,0,0,1,10.44-10.44"/><path class="cls-15" d="M328,1645.44a10.44,10.44,0,1,1-10.44,10.44A10.44,10.44,0,0,1,328,1645.44"/><path class="cls-22" d="M364.64,1586.4l-40.79-3.4s-3.18,54.48.63,58.65,68.46,9.72,82.76.66c5.68-5.47,2.67-13.66-2.86-15s-39.85-8.68-39.85-8.68l1.82-32.23"/><polygon class="cls-15" points="375.52 1620.74 360.54 1607.63 348.73 1622.58 357.25 1629.38 375.52 1620.74"/><path class="cls-22" d="M394.85,1645.13c10.07,3.79,20.31,7.87,20.31,7.87v4.16H303s-3.89-12,21-15.5c.05,0,60.83-.32,70.9,3.47"/><polygon class="cls-5" points="3744.54 1879.5 3722.63 1877.23 3479.53 1748.3 3272.58 1852.27 3272.98 1860.91 3537.24 2012.54 3749.54 1891.5 3744.54 1879.5"/><polygon class="cls-28" points="3537.24 1997.54 3272.58 1852.27 3474.53 1736.31 3744.54 1879.51 3537.24 1997.54"/><path class="cls-6" d="M3432.25,1838.78l-103.11,1.14L3301.82,1857l105.53,27.6,171,67.34a13,13,0,0,0,9.29.08l11.16-4.18a13,13,0,0,0,4.46-21.43l-22.59-18.87-64.22-19.28,112,2.51a13,13,0,0,0,5-25.4l-39.09-8.37Z"/><path class="cls-22" d="M3407.65,1860s-2.73,11.55,8.79,19.23,145.13,46.1,145.13,46.1l10.36-19.58L3462.18,1852l138,20.29V1849l-143.95-25-39.84-1Z"/><path class="cls-11" d="M3399.57,1760s-24.35,7-29.87,18.43c2,5.58,9.07,18.64,9.07,18.64s7.35-1.49,16.8,25a217.61,217.61,0,0,1,11,46.77s27.23-6.64,41.89-16.83,15.66-24.61,11.85-32.09c-3.88-10.26-15.8-55.25-42.24-62.76s-18.5,2.84-18.5,2.84"/><path class="cls-16" d="M3425,1729.09c0-17.53-11.25-31.74-25.13-31.74s-25.13,14.21-25.13,31.74c0,13.93,7.11,25.76,17,30a103.42,103.42,0,0,1,3.5,11c9.36,4.51,15.51,3.27,18.46-1.46a5.46,5.46,0,0,0-1-6.84,17.65,17.65,0,0,1-2.81-3.65c8.9-4.84,15.11-16,15.11-29.05"/><path class="cls-16" d="M3322.51,1843.87s16.41-20.57,21.31-27.28c2.89-3.95,21-38.3,28.49-39.64,14.88-.24,17,7,11.37,21.77-1.51,3.93-29.09,29-29.09,29a91.08,91.08,0,0,1-27.17,24c1.37,3.52-2.09,5.25-2.09,5.25h-23.51c-1.88-5,3.13-10.89,6-11.27s14.69-1.88,14.69-1.88"/><path class="cls-11" d="M3375.6,1737.16l24.3-17.85,22.71-5.15-6.86-18.87s-7.31-9.1-28.68-2.15-21.37,27.19-21.37,27.19Z"/><path class="cls-29" d="M3403.35,1730.18s18.41-21.79,38-14.58c-11.67-6.86-21-7.86-21-7.86s-15-4.3-33.19,14.8c-7.24,7.61,16.19,7.64,16.19,7.64"/><path class="cls-16" d="M3374.2,1728.18c3,0,5.41,3,5.41,6.81s-2.42,6.81-5.41,6.81-5.41-3-5.41-6.81,2.42-6.81,5.41-6.81"/><path class="cls-22" d="M3585.76,1879.22s9.75-1,1.12,24.86-6.67,25.8-11.31,26.17Z"/><path class="cls-15" d="M3562,1900.82s1,17.29-1.86,24.27c4.18,5.6,15.48,5.17,15.48,5.17s15.55-40.06,12.12-48.39c-2.06-5.55-8-2.62-10.13,1.72s-3,7.42-15.61,17.23"/><path class="cls-22" d="M3620.76,1825.22s9.75-1,1.12,24.86-6.67,25.8-11.31,26.17Z"/><path class="cls-15" d="M3597,1846.82s1,17.29-1.86,24.27c4.18,5.6,15.48,5.17,15.48,5.17s15.55-40.06,12.12-48.39c-2.06-5.55-8-2.62-10.13,1.72s-3,7.42-15.61,17.23"/><path class="cls-7" d="M3030.7,1705.49,3142.28,1778a15.12,15.12,0,0,0,23.28-14.3c0-.3-.07-.6-.12-.9l-.34-2a15.13,15.13,0,0,0-7.29-10.54l-97.67-57,133.35-84.8-10.85-5.88-156.87,77.11a18.2,18.2,0,0,0,4.31,25.38l.62.42"/><path class="cls-30" d="M3019.48,1680.25a16.09,16.09,0,1,1,5.14,22.16,16.09,16.09,0,0,1-5.14-22.16"/><path class="cls-30" d="M3116.42,1738.51a16.06,16.06,0,1,1,5.22,22.1,16.06,16.06,0,0,1-5.22-22.1"/><rect class="cls-31" x="3151.67" y="1543.31" width="4.24" height="71.95" transform="translate(-303.38 2278.25) rotate(-38.03)"/><rect class="cls-15" x="3131.73" y="1545.53" width="9.86" height="22.63" transform="translate(-293.21 2262.79) rotate(-38.03)"/><rect class="cls-15" x="3167.57" y="1591.34" width="9.86" height="22.63" transform="translate(-313.81 2294.69) rotate(-38.03)"/><path class="cls-31" d="M3056.13,1692.83l3.22-35.83,98.75-76.55-4.83-6.2L3047,1653l-4.42,46.45,85.67,53.43a6.25,6.25,0,0,0,8.61-2h0a6.25,6.25,0,0,0-2-8.57Z"/><path class="cls-31" d="M3018.22,1683.72h0a5.1,5.1,0,0,1-.44-8.42l45.32-34.4,7.36,7.68-46.54,34.87a5.1,5.1,0,0,1-5.7.27"/><path class="cls-6" d="M1187.6,1292.81l-24.3,24.64a23.24,23.24,0,0,0,16.57,39.55h6.48a83.39,83.39,0,0,0,25-3.82l41.81-13.11v38.42a12.51,12.51,0,0,0,22.74,7.22l13.45-19.06a84.61,84.61,0,0,1,16-17.06l14-11.33a84.64,84.64,0,0,1,34.21-16.62l18.3-4.2a11.16,11.16,0,0,0-1.29-22l-30.09-3.28a45.43,45.43,0,0,0,19-56.94l-8.3-19.64-163.59,77.2"/><path class="cls-15" d="M1209.19,1301.12a11.32,11.32,0,1,1-11.32,11.32,11.32,11.32,0,0,1,11.32-11.32"/><path class="cls-15" d="M1339.19,1250.12a11.32,11.32,0,1,1-11.32,11.32,11.32,11.32,0,0,1,11.32-11.32"/><path class="cls-22" d="M1164.7,1271.39,1343.24,1202a27,27,0,0,1,34.91,15.36l.29.74a27,27,0,0,1-15.36,34.91l-178.54,69.43a27,27,0,0,1-34.91-15.36l-.29-.75a27,27,0,0,1,15.36-34.91"/><path class="cls-15" d="M1200.1,1251.49l7.25,15.87a8.86,8.86,0,0,0,14.61,2.26l.22-.24a8.84,8.84,0,0,0,2.29-5.93v-15.38Z"/><path class="cls-15" d="M1313.35,1221.14l-.85,17.43a8.83,8.83,0,0,1-12.7,7.51l-.3-.14a8.84,8.84,0,0,1-4.33-4.66l-5.7-14.28Z"/><path class="cls-14" d="M1257.61,1076.85a11,11,0,0,0-4.17,9.4,7.94,7.94,0,0,0,3.47,6.11c6.35,4.4,13.26-1.89,13.26-1.89l51.85-51.22a14.88,14.88,0,0,0,9.17-3.36c4.11-3.5,5-17.18-.31-21.1s-9-.45-11,3.69l-4.47,11.34Z"/><path class="cls-11" d="M1215.66,1153.16s-21,77.75-17.35,100.11c5,.67,25.7,2.34,29.37-3.34-1-10.68,2-54.73,20.36-75.42,11.35,9.34,19,15.69,24.69,24s13.69,31,13.69,31,20.36,1,30.37-9.68c-5.34-9.34-28-72.08-38.71-80.42-10.73,2.73-62.42,13.75-62.42,13.75"/><path class="cls-14" d="M1206.15,1083.93a11,11,0,0,1,8.08,6.37,7.94,7.94,0,0,1-.22,7c-3.57,6.85-12.61,4.52-12.61,4.52l-69.75-21.14a14.87,14.87,0,0,1-9.68,1.3c-5.27-1.18-12.45-12.87-9.57-18.81s7.77-4.6,11.44-1.87l9.24,8Z"/><path class="cls-22" d="M1226.23,1079.16l-24.64,3.75-7.87,27.35,18.5,5.81-.26,38.32s11.89,7.66,37,2.64,33-18.24,33-18.24l-10-33.3,11.1-8.19-16.43-27.8Z"/><path class="cls-14" d="M1256.91,1039.25c0-18-11.81-32.69-26.39-32.69s-26.39,14.64-26.39,32.69c0,15.38,8.57,28.27,20.12,31.75l-.73,9.18s-4.83,10.54,3.7,10.54,16.44-14.53,16.44-14.53l-1.81-7.42c8.9-5.24,15.06-16.49,15.06-29.52"/><path class="cls-22" d="M1203.72,1031.09s6.69-4.9,19.15-6c12.84-1.09,31.49,1.83,34,14.13,2.92-8.25,6.92-41.57-23.82-41.57s-29.33,33.44-29.33,33.44"/><path class="cls-15" d="M1185.16,1025.62s11.24-13.56,34.43-8.35c3.05,0,19.36,8.69,19.36,8.69s-22.55-5-34.22,6.13c-7.38.53-22.27-6.09-19.57-6.47"/><path class="cls-14" d="M1254.37,1032.34c3.64,0,6.6,3.43,6.6,7.66s-3,7.66-6.6,7.66-6.6-3.43-6.6-7.66,3-7.66,6.6-7.66"/><path class="cls-32" d="M4261.53,1716.72a11.32,11.32,0,1,1,4.38,15.4,11.32,11.32,0,0,1-4.38-15.4"/><path class="cls-32" d="M4399.91,1735.4a11.32,11.32,0,1,1,4.38,15.4,11.32,11.32,0,0,1-4.38-15.4"/><path class="cls-15" d="M4252.8,1664.83l189.77,26.2a27,27,0,0,1,23,30.4l-.11.79a27,27,0,0,1-30.41,23l-189.77-26.2a27,27,0,0,1-23-30.4l.11-.79a27,27,0,0,1,30.41-23"/><path class="cls-16" d="M4315,1534.52l-18.24,49.17-3.87,2.88a5.34,5.34,0,0,0-2.09,5.14l1.11,6.82a3.84,3.84,0,0,0,4.22,3.2l6-.68a4.92,4.92,0,0,0,4.32-4.26l1.51-11.72,26-40.25Z"/><polygon class="cls-11" points="4312.14 1594.16 4308.14 1691.58 4332.22 1694.77 4337.34 1658.77 4343.61 1624.16 4351.14 1659.16 4370.55 1695.17 4394.03 1689.97 4378.74 1651.77 4375.04 1597.38 4312.14 1594.16"/><path class="cls-22" d="M4312.79,1542.26l-2,55.62c13.66,4.2,43.07-3.68,65.13,4.73.53-15.76,0-51,0-51l6.83-13.13s-7.88-23.64-32-23.64c-23.41,0-20.6.05-41.81,20.84-1.14,1.07,3.85,6.53,3.85,6.53"/><path class="cls-16" d="M4368.56,1471.23c0-19.18-11.71-34.73-26.15-34.73s-26.15,15.55-26.15,34.73c0,15.22,7.37,28.14,17.63,32.84l-3.68,34.46s16.33-24.11,25.79-23.06c-1-3.55-1.1-9.09-.91-13.86,8-5.94,13.47-17.31,13.47-30.38"/><path class="cls-18" d="M4281.23,1705.57s-3.59,9,23.27,7.86,26.28.73,27.9-3.57Z"/><path class="cls-22" d="M4308.21,1688.88s16.13,5.63,23.52,4.88c4.17,5.5.67,16.09.67,16.09s-42.23,3.79-49.19-1.74c-4.7-3.47-.3-8.27,4.4-9.14s7.89-.78,20.6-10.09"/><path class="cls-18" d="M4352.51,1719.16s.78,9.59,24.21-3.33,23.74-11,23.27-15.57Z"/><path class="cls-22" d="M4369.14,1692.32s16.87-2.14,23.12-6.1c6.15,3,7.74,14,7.74,14s-35.94,22.13-44.59,20.29c-5.73-1-3.94-7.23-.14-10.09s6.68-4.16,13.87-18.1"/><path class="cls-16" d="M4362.22,1544.36c13.64,2.49,20.22-6.42,20.22-6.42l11.55,59.94,4.17,7.75a6,6,0,0,1-.58,6.54l-5.07,6.4a3.52,3.52,0,0,1-4.95.56,3.44,3.44,0,0,1-.3-.27l-8.64-8.73a4.57,4.57,0,0,1-1-4.87l2.51-6.45-5.07-23.08s-16-31.83-12.84-31.37"/><path class="cls-11" d="M4304.28,1458.12s21.12,19.64,70.06,26.31c2,2.33,14.18-14.71,0-35.19s-39.39-23.38-55.67-12.74-14.39,21.62-14.39,21.62"/><polygon class="cls-11" points="4338.16 1469.08 4338.16 1495.08 4352.29 1491.57 4362.32 1473.87 4338.16 1469.08"/><path class="cls-6" d="M125.62,878.85l41.66-9.1,31-12.3L247,847.27A60.34,60.34,0,0,1,259.35,846h58.77l47.65,23.31,49.13-5.86a8.24,8.24,0,1,1,1.9,16.37l-70,7.86-16.43,17.91a64.16,64.16,0,0,1-55.26,20.29l-20.39-2.55a43.17,43.17,0,0,1-14.86-4.7l-41.51-22.07-72.8-17.81"/><ellipse class="cls-33" cx="143.66" cy="815.61" rx="65.72" ry="69.37" transform="translate(-679.96 728.89) rotate(-74)"/><path class="cls-34" d="M235.58,773.56l-15.23,51.55-25.51-7.31s-8.66.5-11.59,4.68-1.79,6.23-1.79,6.23l44.06,17.37L258.35,793l40-51-43.25.24Z"/><ellipse class="cls-33" cx="356.18" cy="803.72" rx="65.72" ry="69.37" transform="translate(-514.58 924.57) rotate(-74)"/><line class="cls-35" x1="214.47" y1="713.72" x2="143.66" y2="815.57"/><polygon class="cls-35" points="308.04 740.55 194.75 742.09 249.22 813.1 356.17 803.68 308.04 740.55"/><path class="cls-30" d="M320.44,716.82s5.5,22.18-18,30-38.79,7.87-38.79,7.87l29.13,42.45L269.35,825a6.82,6.82,0,0,1-6.48,2.3l-2.8-.53a6.82,6.82,0,0,1-4.44-10.43L268.84,796S231.18,762.58,229.08,746s39.79-19.7,39.79-19.7l2.31-13Z"/><path class="cls-22" d="M276.24,636.39s15.08,2.08,24.89,13.38,26.22,59.74,23.22,73.49c-7.35,2.61-55.64-6.52-55.64-6.52l-13.08-54.66Z"/><path class="cls-16" d="M272,654.16s4.95-12.94,16.59-9,5.09,19.24,5.09,19.24-21.19,37.27-34.52,43.13-43.7,2.7-43.7,2.7a18.15,18.15,0,0,0-8.29,6.5c-3.66,5-8.83-7.73-8.83-7.73l10-13.17,13,.62L255.63,689Z"/><path class="cls-16" d="M276.48,636.42l-1.73-9.59a39.33,39.33,0,0,0,3.1-15.46c0-17.64-11-32-24.66-32s-24.71,14.28-24.73,31.92,11,32,24.66,32a19.43,19.43,0,0,0,5.74-.87l-3.17,19.24c3.79,0,20.79-25.24,20.79-25.24"/><path class="cls-30" d="M228.18,605.15l4.76-21.43s13.23-8.37,27-5.61,15.81,15.07,17.6,26-49.36,1-49.36,1"/><path class="cls-22" d="M234.43,612.82l12.13-4.16a1.86,1.86,0,0,0,.17-3.71l-17.38-2-21.26,4Z"/><path class="cls-16" d="M256,610.49c1.19-4.16,4.82-6.76,8.11-5.82s5,5.08,3.79,9.23-4.82,6.76-8.11,5.82-5-5.08-3.79-9.23"/></g></svg>