<svg xmlns="http://www.w3.org/2000/svg" viewBox="0 0 187.16 198.51"><defs><style>.cls-1{fill:#448faa;}.cls-2{fill:#fffbd7;}.cls-3,.cls-5{fill:#ff5365;}.cls-4{fill:#00c8f6;}.cls-5{stroke:#00c8f6;stroke-miterlimit:10;stroke-width:6px;}.cls-6{fill:none;stroke:#ffefae;stroke-linecap:round;stroke-linejoin:round;stroke-width:5px;}.cls-7{fill:#ffefae;}</style></defs><title>icon_samokat</title><g id="Слой_2" data-name="Слой 2"><g id="Слой_1-2" data-name="Слой 1"><circle id="_Контур_" data-name="&lt;Контур&gt;" class="cls-1" cx="93.58" cy="104.93" r="93.58"/><circle id="_Контур_2" data-name="&lt;Контур&gt;" class="cls-2" cx="140.86" cy="148.65" r="16.15"/><circle id="_Контур_3" data-name="&lt;Контур&gt;" class="cls-3" cx="140.9" cy="148.69" r="12.34"/><circle id="_Контур_4" data-name="&lt;Контур&gt;" class="cls-2" cx="38.56" cy="148.65" r="16.15"/><circle id="_Контур_5" data-name="&lt;Контур&gt;" class="cls-3" cx="38.59" cy="148.69" r="12.34"/><path id="_Прямоугольник_" data-name="&lt;Прямоугольник&gt;" class="cls-3" d="M80.94,144.18h31a4,4,0,0,1,4,4v0a0,0,0,0,1,0,0H77a0,0,0,0,1,0,0v0A4,4,0,0,1,80.94,144.18Z"/><path id="_Контур_6" data-name="&lt;Контур&gt;" class="cls-4" d="M44.1,124.59l19.61,26.54h76.8a2.48,2.48,0,0,0,2.48-2.48h0a2.48,2.48,0,0,0-2.47-2.48l-68.75-.38-.12-3.84a7.18,7.18,0,0,0-2.41-5.22c-1.62-1.4-4.11-2.44-7.58-.9C60.52,134.44,45.28,115,45.28,115Z"/><line id="_Контур_7" data-name="&lt;Контур&gt;" class="cls-5" x1="57.31" y1="52.62" x2="41.8" y2="129.12"/><line id="_Контур_8" data-name="&lt;Контур&gt;" class="cls-6" x1="66.38" y1="8.88" x2="57.65" y2="50.96"/><rect id="_Прямоугольник_2" data-name="&lt;Прямоугольник&gt;" class="cls-2" x="52.06" y="48.42" width="11.17" height="6.44" rx="2.77" ry="2.77" transform="translate(10.49 -9.73) rotate(10.6)"/><rect id="_Прямоугольник_3" data-name="&lt;Прямоугольник&gt;" class="cls-2" x="39.71" y="106.98" width="11.17" height="6.44" rx="2.77" ry="2.77" transform="translate(21.05 -6.45) rotate(10.6)"/><path id="_Контур_9" data-name="&lt;Контур&gt;" class="cls-2" d="M39.54,125.84,44.16,127a2.21,2.21,0,0,1,1.62,2.69l-5,20A3.09,3.09,0,0,1,37.44,152h0a3.09,3.09,0,0,1-2.75-3l2.93-21.84A1.56,1.56,0,0,1,39.54,125.84Z"/><path id="_Контур_10" data-name="&lt;Контур&gt;" class="cls-4" d="M123.35,148.34a18,18,0,0,1,27.81-15,1.67,1.67,0,0,0,2.22-.38h0a1.67,1.67,0,0,0-.33-2.4,21.22,21.22,0,0,0-33.27,16.17,21.43,21.43,0,0,0,.21,4.52l3.48-.86A18.14,18.14,0,0,1,123.35,148.34Z"/><g id="_Группа_" data-name="&lt;Группа&gt;"><rect id="_Прямоугольник_4" data-name="&lt;Прямоугольник&gt;" class="cls-7" x="56.52" y="5.73" width="19.81" height="4.53" transform="translate(2.6 -12.08) rotate(10.59)"/><rect id="_Прямоугольник_5" data-name="&lt;Прямоугольник&gt;" class="cls-3" x="72.55" y="6.71" width="16.56" height="7.8" rx="1.85" ry="1.85" transform="translate(3.33 -14.68) rotate(10.59)"/><rect id="_Прямоугольник_6" data-name="&lt;Прямоугольник&gt;" class="cls-3" x="42.82" y="1.15" width="16.56" height="7.8" rx="1.85" ry="1.85" transform="translate(1.8 -9.31) rotate(10.59)"/></g></g></g></svg>