<svg xmlns="http://www.w3.org/2000/svg" viewBox="0 0 4992.69 2157.78"><defs><style>.cls-1{fill:#f7f4dc;}.cls-2{fill:#7dc6bd;}.cls-3{fill:#f4efd0;}.cls-4{fill:#e5e1ca;}.cls-5{fill:#448faa;}.cls-6{fill:#142d75;}.cls-7{fill:#82dbd8;}.cls-8{fill:#ffe3e5;}.cls-9{fill:#ff5365;}.cls-10{fill:#e23750;}.cls-11{fill:#d63a51;}.cls-12{fill:#fff3f4;}.cls-13,.cls-22{fill:#223c92;}.cls-14{fill:#ffb8bb;}.cls-15{fill:#f27083;}.cls-16{fill:#494949;}.cls-17{fill:#230206;}.cls-18{fill:#16307a;}.cls-19{fill:#ffd7da;}.cls-20{fill:#00c8f6;}.cls-21{fill:#f2c4c8;}.cls-22{stroke:#223c92;}.cls-22,.cls-30,.cls-31,.cls-33{stroke-miterlimit:10;}.cls-23{fill:#efafb7;}.cls-24{fill:#f2798b;}.cls-25{fill:#07bfdd;}.cls-26{fill:#fffbd7;}.cls-27{fill:#e8435b;}.cls-28{fill:#112c77;}.cls-29{fill:#ffefae;}.cls-30,.cls-31,.cls-33,.cls-35{fill:none;}.cls-30,.cls-35{stroke:#00c8f6;}.cls-31{stroke:#ff5365;}.cls-32{fill:#152d72;}.cls-33{stroke:#112c77;stroke-width:11px;}.cls-34{fill:#0a1e49;}.cls-35{stroke-linecap:round;stroke-linejoin:round;stroke-width:10px;}</style></defs><title>header_pic</title><g id="Слой_2" data-name="Слой 2"><g id="Слой_1-2" data-name="Слой 1"><rect id="_Прямоугольник_" data-name="&lt;Прямоугольник&gt;" class="cls-1" x="91.61" y="189.04" width="4762.35" height="1797.96"/><path id="_Контур_" data-name="&lt;Контур&gt;" class="cls-2" d="M2745.05,1553.5l768.84-438a63.77,63.77,0,0,0,32.2-55.41V699.84a63.77,63.77,0,0,1,63.77-63.77l1212.62,30a63.77,63.77,0,0,1,63.77,63.79l-.23,671.92c0,49.44-53.84,80.05-96.34,54.8L4258.42,1202a63.77,63.77,0,0,0-64.13-.59l-475.6,270.82c-43,24.46-43,86.37,0,110.83L4104.92,1803c43,24.46,43,86.37,0,110.83l-413.82,235.64a63.77,63.77,0,0,1-62.26.47l-882.92-485.1C2702.21,1640.79,2701.73,1578.18,2745.05,1553.5Z"/><path id="_Контур_2" data-name="&lt;Контур&gt;" class="cls-2" d="M3137.35,1004.62l-1063.88,605.8a63.77,63.77,0,0,1-63.11,0l-386.63-220.15c-43-24.46-43-86.37,0-110.83L2671.88,682.59a63.77,63.77,0,0,1,61.19-1l402.35,211.2C3180.06,916.17,3181.15,979.68,3137.35,1004.62Z"/><path id="_Контур_3" data-name="&lt;Контур&gt;" class="cls-2" d="M1827.13,893.54l-814,463.54a63.77,63.77,0,0,1-59.83,1.75L464.51,1117.1c-45.81-22.66-47.69-87.29-3.28-112.58l914.51-520.74a63.77,63.77,0,0,1,70.46,4.89l388.29,298.93C1870.58,815.39,1866.73,871,1827.13,893.54Z"/><path id="_Контур_4" data-name="&lt;Контур&gt;" class="cls-2" d="M891.9,579.46l-221,110.06a63.77,63.77,0,0,1-64-4.16L406.4,550.57,161.74,386.1a63.77,63.77,0,0,1-27.85-46.29L122,225.85a63.77,63.77,0,0,1,69.48-70.12l772.37,73.73a63.77,63.77,0,0,1,52.92,87.72L922.45,546.62A63.77,63.77,0,0,1,891.9,579.46Z"/><polygon id="_Контур_5" data-name="&lt;Контур&gt;" class="cls-2" points="16.67 674.65 419.98 409.37 0 141.97 16.67 674.65"/><rect id="_Прямоугольник_2" data-name="&lt;Прямоугольник&gt;" class="cls-3" x="3779.82" y="1471.65" width="543.61" height="21.74" rx="10.87" ry="10.87" transform="translate(-186.9 2287.8) rotate(-30.86)"/><path id="_Контур_6" data-name="&lt;Контур&gt;" class="cls-4" d="M3933.14,1531.41l154,73.33a34.22,34.22,0,0,0,17.72,3.19l23.67-2.08a34.22,34.22,0,0,0,28.69-47l-.25-.6a34.22,34.22,0,0,1,19.13-44.76l41.26-16.28a34.22,34.22,0,0,0,19.29-44.35h0a34.22,34.22,0,0,0-22.33-20.35L4162,1417.35a34.22,34.22,0,0,0-9.52-1.35H4031.32a34.22,34.22,0,0,0-17.66,4.91l-83.47,50.29C3906.83,1485.28,3908.51,1519.69,3933.14,1531.41Z"/><path id="_Контур_7" data-name="&lt;Контур&gt;" class="cls-4" d="M4393.25,1712.76l-25.32-2.46a18.2,18.2,0,0,0-13.87,4.53h0a18.2,18.2,0,0,0-4.18,21.71l2.36,4.74a18.2,18.2,0,0,0,11.93,9.55l82.59,20.39a18.2,18.2,0,0,1,13.4,21.67l-.06.27a18.2,18.2,0,0,0,10.19,20.55l25.56,11.68a62.28,62.28,0,0,0,51.79,0l13-6a18.2,18.2,0,0,0,10.22-12.7l4.95-22.86a18.2,18.2,0,0,1,1.73-4.73l13-24.43a18.2,18.2,0,0,0-1.08-18.92l-9.06-13.11a18.2,18.2,0,0,0-11.16-7.45l-26.46-5.67"/><path id="_Контур_8" data-name="&lt;Контур&gt;" class="cls-5" d="M153.16,90.88s-105.41,470.38,384,430.24S1089,241,1089,241Z"/><path id="_Контур_9" data-name="&lt;Контур&gt;" class="cls-5" d="M740.18,530s-7.86,149.43,94.59,184.05,159.53,0,159.53,0c-17.54,105.36,64.33,200.79,120.51,201.54,153.73,2.05,208.58-36.45,208.58-36.45s134.33,307.78,414.13,110.19,182.18-362,182.18-362L901.57,371Z"/><path id="_Контур_10" data-name="&lt;Контур&gt;" class="cls-5" d="M1892.48,943.5s91.3,253.56,460.35,144.73S2829,813.1,2829,813.1s322.11,400.35,642.78,375.46,435.67-204.65,435.67-204.65,180.06,117.71,331.51,20.21S4454,813.1,4454,813.1s28.56,313.1,278.76,312.47,206.89-512.33,206.89-512.33L4769.89,24.61Z"/><path id="_Контур_11" data-name="&lt;Контур&gt;" class="cls-6" d="M3503.1,901.06h81v115s68.47-62.86,70.63-82.34,37.89-13,37.89-13-68.21,105-106.11,135.34c0,13-7.58,84.45,18.41,111.52a215.82,215.82,0,0,0,55.22,41.14s-41.14,6.5-71.46-8.66c-13.52,8.82-20,44-23.14,56-1.67,6.46-8.12,7-12,1.64,0,0-8-47.8-28.69-55.67h-11a58,58,0,0,0-34,11l-33,23.84s0-31.4,36.81-80.12C3518.69,1110.4,3503.1,901.06,3503.1,901.06Z"/><path id="_Контур_12" data-name="&lt;Контур&gt;" class="cls-6" d="M4200.1,775.17h81v115s68.47-62.86,70.63-82.34,37.89-13,37.89-13-68.21,105-106.11,135.34c0,13-7.58,84.45,18.41,111.52a215.82,215.82,0,0,0,55.22,41.14s-41.14,6.5-71.46-8.66c-13.52,8.82-20,44-23.14,56-1.67,6.46-8.12,7-12,1.64,0,0-8-47.8-28.69-55.67h-11a58,58,0,0,0-34,11l-33,23.84s0-31.4,36.81-80.12C4215.69,984.51,4200.1,775.17,4200.1,775.17Z"/><path id="_Контур_13" data-name="&lt;Контур&gt;" class="cls-6" d="M2519.2,785.26h81v115s68.47-62.86,70.63-82.34,37.89-13,37.89-13-68.21,105-106.11,135.34c0,13-7.58,84.45,18.41,111.52a215.82,215.82,0,0,0,55.22,41.14s-41.14,6.5-71.46-8.66c-13.52,8.82-20,44-23.14,56-1.67,6.46-8.12,7-12,1.64,0,0-8-47.8-28.69-55.67h-11a58,58,0,0,0-34,11l-33,23.84s0-31.4,36.81-80.12C2534.79,994.6,2519.2,785.26,2519.2,785.26Z"/><path id="_Контур_14" data-name="&lt;Контур&gt;" class="cls-6" d="M679.1,560.18s-4-12.8-30.78-48.24C622.84,478.22,634.18,326,634.18,326H574.81v83.56s-49.57-45.72-51.15-59.9-27.45-9.45-27.45-9.45,49.67,76.39,77.24,98.44c0,9.45,5.54,61.43-13.36,81.12a157.06,157.06,0,0,1-40.15,29.93s29.93,4.73,52-6.3c9.84,6.41,14.57,32,16.83,40.75,1.22,4.7,5.91,5.19,8.77,1.26,0,0,5.85-34.42,20.87-40.42h3.12L624,562.26a2.37,2.37,0,0,0,4.41.82l9.55-16.59C642.6,547.82,679.1,560.18,679.1,560.18Z"/><path id="_Контур_15" data-name="&lt;Контур&gt;" class="cls-6" d="M2251.59,1000.15c0,13-7.58,84.45,18.41,111.52a215.82,215.82,0,0,0,55.22,41.14s-44.15,20.55-74.47,5.39c-13.52,8.82-24.08,30.19-20.13,42,6,18-32.87-2.15-45.62-49.78h0a19,19,0,0,0-20.21-.39c-24.62,14.86-55.87,9-55.87,9s31.14-34.73,39.81-58.12c20.21-54.48,19.44-255.69,19.44-255.69h81v115"/><path id="_Контур_16" data-name="&lt;Контур&gt;" class="cls-6" d="M1154,693.25l-81-9v124S984.55,685.39,982.38,665.9s-37.89-13-37.89-13,88.21,165,126.11,195.34c0,13,7.58,84.45-18.41,111.52A215.82,215.82,0,0,1,997,1000.91s41.14,6.5,71.46-8.66c13.52,8.82,20,44,23.14,56,1.67,6.46,8.12,7,12,1.64,0,0,8-47.8,28.69-55.67h11a58,58,0,0,1,34,11l33,23.84s0-31.4-36.81-80.12C1138.42,902.58,1154,693.25,1154,693.25Z"/><path id="_Контур_17" data-name="&lt;Контур&gt;" class="cls-7" d="M90.81,368.63s144.71,90.25,291.8,105.47,336-56.71,336-56.71,19.33,177,141.06,242.91S1064,658.79,1210.6,794.65c273.94,253.83,648.68,235,777.09,208.93S2386.33,838.21,2574,848.36s475.37,145.89,895.17,119,564.4-195.28,564.4-195.28,207,275.88,699.22,255.2S4866.81,4,4866.81,4L90.81,0Z"/><path id="_Контур_18" data-name="&lt;Контур&gt;" class="cls-4" d="M1705,1734.06l-18.3,12.2c-22.57,15-49.54,14.49-28.95,32.15l.4,1c20,47.23,68.44,76.33,119.41,70.72a69.65,69.65,0,0,0,12.64-2.4l.53-.17,31-16.32c24.92,41.8,81.54,23.61,101.06-34.42l24,8,67.61,43.32c11.47,6,65.11,8,78,8.07l85.18.71c13,.11,18.44-16.64,7.8-24.17l-27.07-19.15h0a38,38,0,0,0-24.8-50.87l-46.27-13.22-178.87-25.81a89.06,89.06,0,0,0-18.07-.75Z"/><path id="_Контур_19" data-name="&lt;Контур&gt;" class="cls-8" d="M1706.1,1448.32s-31,27.27-38.86,69.8c-1.59,3.59-24.42,20.38-38.55,30.09-18.89,9.12-23.09,8.64-25.43,31.35-.65,6.28,12.09,7.12,14.17,4.95,2.72-2.85,14.75-18.31,15.61-19.23l46.61-33.2,14-23.24,49.88-60.52S1721.21,1437.49,1706.1,1448.32Z"/><path id="_Контур_20" data-name="&lt;Контур&gt;" class="cls-8" d="M1746,1612.17l11.54,34,80.23,63.31s19.18-15.28,18.36-16.64c-22.47-37.52-72.75-60.21-72.75-60.21l-7.62-37.24Z"/><path id="_Контур_21" data-name="&lt;Контур&gt;" class="cls-8" d="M1692.39,1590.61l-12.75,47.45,32.29,88.22,24.34-3.1c-3-39.13-29.81-82.95-29.81-82.95l16.64-36.11Z"/><path id="_Контур_22" data-name="&lt;Контур&gt;" class="cls-6" d="M1703.49,1559.05l-14.5,31.17-2,4.29s14,23.35,33.4,19.79c1.35-.29,15.88-23.09,15.88-23.09s1.35,14.52,7.25,27.21c20.58.73,34.91-10.17,36.65-14,1.43-6.06,8.24-22.26,0-61C1755.43,1548.34,1703.49,1559.05,1703.49,1559.05Z"/><path id="_Контур_23" data-name="&lt;Контур&gt;" class="cls-8" d="M1733.87,1427.18s-.28,10,3.43,15.79-31.21,5.36-31.21,5.36,14-19.31,9.39-31.87S1733.87,1427.18,1733.87,1427.18Z"/><path id="_Контур_24" data-name="&lt;Контур&gt;" class="cls-8" d="M1898.94,1518.64a14,14,0,0,0,.27-4.69c-2.06-16.26-35-17.07-35.23-17l-105-42.16s-28.06,26.26-8.54,25c13.55-.85,74.09,20.63,109.87,33.86,1,3.33,2.18,6.79,4.43,9.3.81.91,7.26,5.9,9.78,4.78,4-1.77,2.61-7.09,2.18-8l.11,0c1.13,2,2.25,3.9,3.4,5.85.22.38.45.78.69,1.17a14.68,14.68,0,0,0,3,2.75c1.91.5,3.54-.67,5.09-1.58s3.3-2,4.94-3a5.75,5.75,0,0,0,2.59-1.57l1.37-.83A2.87,2.87,0,0,0,1898.94,1518.64Z"/><path id="_Контур_25" data-name="&lt;Контур&gt;" class="cls-9" d="M1736.4,1442l43,21-7,28.59-10.44,2.11s14.16,54.17,27.58,53.71c-17.14,32.23-87.83,19.59-87.83,19.59s-22-25.19-9.2-109.86c11-6.1,2.84,7.47,10.42,7.47S1736.4,1442,1736.4,1442Z"/><ellipse id="_Контур_26" data-name="&lt;Контур&gt;" class="cls-8" cx="1732.3" cy="1391.59" rx="28.78" ry="38.87"/><ellipse id="_Контур_27" data-name="&lt;Контур&gt;" class="cls-6" cx="1691.53" cy="1642.88" rx="16.43" ry="19.85"/><ellipse id="_Контур_28" data-name="&lt;Контур&gt;" class="cls-6" cx="1771.53" cy="1642.88" rx="16.43" ry="19.85" transform="translate(-521.09 880.48) rotate(-24.45)"/><path id="_Контур_29" data-name="&lt;Контур&gt;" class="cls-10" d="M1703.53,1391.59s-19.29-34.93,21.45-46.48c30.4-8.62,31.82,26.06,31.82,26.06S1720.06,1368.76,1703.53,1391.59Z"/><path id="_Контур_30" data-name="&lt;Контур&gt;" class="cls-9" d="M1736.67,1385.41c6.17-4.42,23.23-14.28,43.27-5.76-10-6.9-25.86-13.46-25.86-13.46s-20.89-1.73-35.17,10.22c4.73,3.31,9.69,6.87,12.64,9A4.38,4.38,0,0,0,1736.67,1385.41Z"/><path id="_Контур_31" data-name="&lt;Контур&gt;" class="cls-8" d="M1705.81,1390.09s-5.12-9.19-9.11-6.13-4.64,15.63,0,16.24,9.15-1.84,9.15-1.84Z"/><circle id="_Контур_32" data-name="&lt;Контур&gt;" class="cls-9" cx="1661.86" cy="1768.97" r="9.02"/><circle id="_Контур_33" data-name="&lt;Контур&gt;" class="cls-9" cx="1685.72" cy="1768.97" r="9.02"/><circle id="_Контур_34" data-name="&lt;Контур&gt;" class="cls-9" cx="1709.68" cy="1768.97" r="9.02"/><circle id="_Контур_35" data-name="&lt;Контур&gt;" class="cls-9" cx="1733.21" cy="1768.97" r="9.02"/><path id="_Контур_36" data-name="&lt;Контур&gt;" class="cls-9" d="M1701.58,1708.94l35.24-2.93s2.75,47.06-.55,50.67-59.14,8.4-71.5.57c-4.91-4.73-2.31-11.8,2.47-13s37.88-7.5,37.88-7.5l-1.54-27.84"/><polygon id="_Контур_37" data-name="&lt;Контур&gt;" class="cls-11" points="1692.18 1738.6 1705.12 1727.27 1715.32 1740.18 1707.96 1746.07 1692.18 1738.6"/><path id="_Контур_38" data-name="&lt;Контур&gt;" class="cls-11" d="M1674.91,1759.68l-18.11,6.8v3.59h97.51s3.36-10.37-18.18-13.39C1736.13,1756.68,1683.61,1756.4,1674.91,1759.68Z"/><circle id="_Контур_39" data-name="&lt;Контур&gt;" class="cls-9" cx="1836.27" cy="1767.25" r="9.02" transform="translate(-703.72 1975.85) rotate(-48.6)"/><circle id="_Контур_40" data-name="&lt;Контур&gt;" class="cls-9" cx="1852.05" cy="1749.36" r="9.02" transform="translate(-684.95 1981.63) rotate(-48.6)"/><circle id="_Контур_41" data-name="&lt;Контур&gt;" class="cls-9" cx="1867.9" cy="1731.38" r="9.02" transform="translate(-666.1 1987.43) rotate(-48.6)"/><circle id="_Контур_42" data-name="&lt;Контур&gt;" class="cls-9" cx="1883.46" cy="1713.74" r="9.02" transform="translate(-647.6 1993.12) rotate(-48.6)"/><path id="_Контур_43" data-name="&lt;Контур&gt;" class="cls-9" d="M1817.52,1697.76l21.11-28.37s37.12,29.06,37.65,33.92-29.81,49.92-43.86,54c-6.79.55-10.38-6.07-8.1-10.43s16.43-33.38,16.43-33.38l-21.9-17.25"/><polygon id="_Контур_44" data-name="&lt;Контур&gt;" class="cls-11" points="1835.55 1724.43 1835.61 1707.22 1852.04 1708.11 1851.58 1717.53 1835.55 1724.43"/><path id="_Контур_45" data-name="&lt;Контур&gt;" class="cls-11" d="M1838,1751.21c-3.3,8.69-6.78,18-6.78,18l2.69,2.38,64.4-73s-5.56-9.38-22.07,4.78C1876.27,1703.31,1841.33,1742.52,1838,1751.21Z"/><path id="_Контур_46" data-name="&lt;Контур&gt;" class="cls-12" d="M2218.51,1520.06a52.19,52.19,0,0,0-21,3.62,64,64,0,0,0-9.56,2.2l-.27.1a292.05,292.05,0,0,0-102.62-16.33c-5.61.12-7.74,5.61-6.35,9.68-4.37,1.77-5.4,7.55-3,10.94a69.12,69.12,0,0,1,14.64,2.27,260.73,260.73,0,0,1,47.14,3.75c2.68,0,35.91,6.85,41.8,8.53a54.4,54.4,0,0,0,12.12,2.4c3.53.17,9.6.43,12.92-1.72a7.3,7.3,0,0,0,.88-5,48.58,48.58,0,0,0-6.06,1.33c-2.33.63-4.33-2.47-2.44-4.18,6.14-5.55,14.21-8.68,22.38-10.57a25.85,25.85,0,0,0,3.07-3.7,12.06,12.06,0,0,0,.91-1.72A7.23,7.23,0,0,0,2218.51,1520.06Z"/><path id="_Контур_47" data-name="&lt;Контур&gt;" class="cls-12" d="M1983.44,1519.51c-.89-3.25-3.8-6-7.92-5.18l.12-.15c2.29-2.95,2.89-6.89.1-9.79.21-4.91-4.91-10-10.39-6.72a102.13,102.13,0,0,1-61.78,14.2c-7.26-9.75-21.5-13.56-32.62-5-4,3.11-4.93,9.14,0,12.09l2.78,1.66a39.6,39.6,0,0,1,12.64-.77c2.95.41,1.62,5.58-1.24,4.49-2.22-.84-2.3-2.18-5.71-1.38-.27.06-2.12,3.64,6.53,8.18,2.22.34,5-.57,7.08-.62,3.12-.07,6.21,0,9.33.21,5.93.37,11.85.86,17.79,1.15,12.71.61,50.24-3.39,52.76-3.87a89.32,89.32,0,0,0,10.19-2.58A8,8,0,0,0,1983.44,1519.51Z"/><path id="_Контур_48" data-name="&lt;Контур&gt;" class="cls-6" d="M1986.33,1628.37s-26.35,52.37-25.58,64.14,12.8,63.55,12.8,63.55l-27.45,7-3.84,9a4.31,4.31,0,0,0,4,6h70.87s-16-65.34-16-75,27.44-32.3,27.44-32.3-.17,35.35,3.51,42.42,36.82,43.83,36.82,43.83l-25.73,5-5,9.73a4.31,4.31,0,0,0,3.84,6.27h74.12l-6-25.21s-33.57-41.61-35.43-50.64,11.88-28.71,14.57-38-2.75-41.21-2.75-41.21Z"/><circle id="_Контур_49" data-name="&lt;Контур&gt;" class="cls-6" cx="1946.95" cy="1786.33" r="7.26"/><path id="_Контур_50" data-name="&lt;Контур&gt;" class="cls-9" d="M2056.45,1442.64c-5.19-16.95-21.53-25.51-38.73-23.9a46.29,46.29,0,0,0-38.34,27.43c-5.37,12.35-7.56,35.41,9.27,40,8.08,2.22,11.52-10.31,3.46-12.54a4.2,4.2,0,0,1-2.67-2.48c3.4,2.55,7.19,2.11,10.81.4a14,14,0,0,0,2.41.52,12.67,12.67,0,0,0,2.1.09,17.69,17.69,0,0,0,15.4.63c.53.68,1.08,1.33,1.63,1.94a5.54,5.54,0,0,0,5.63,1.78c1.13,2.44,3.14,4.28,6,4.27a8.21,8.21,0,0,0,5.72-2,35.32,35.32,0,0,1-.8,3.8c-1.64,6,6.41,11.27,10.86,6.32C2060.38,1476.58,2061.16,1458,2056.45,1442.64Z"/><path id="_Контур_51" data-name="&lt;Контур&gt;" class="cls-9" d="M1954.21,1496.62s12.24,14.45,12.74,41.82c11.12-1.68,18.27-1.12,20,0s-12.74,84.58-12.74,84.58,26.2,18.77,59.16,17.09a556.8,556.8,0,0,1,59.22.11l-6.14-88.37,10.06,2.23s-14-36.87,0-46.93C2084.21,1505.48,2037.47,1486.4,1954.21,1496.62Z"/><circle id="_Контур_52" data-name="&lt;Контур&gt;" class="cls-6" cx="1966.95" cy="1786.33" r="7.26"/><path id="_Контур_53" data-name="&lt;Контур&gt;" class="cls-12" d="M2048.64,1466.64c-5.86-3.63-11.78-1.16-16.26,3.09q-19-3.12-38.1-5.16a5.37,5.37,0,0,0-4.39,1.43,6.07,6.07,0,0,0-3.54,6.07,44,44,0,0,0,.5,5.18c.7,2.54,1.54,5,2.2,7a66.24,66.24,0,0,0,6.21,13.55,61,61,0,0,0,7.11,9.44c.48.37,1,.73,1.45,1.07,5.86,5.32,13.13,10.12,21.46,10.13,9.25,0,18.49-11.63,18.93-18.7.25-4.11-.81-8.26-.44-12.35.06-.71.59-1.81.42-1.86,1.1-.57,4.55-1.55,5.94-2.74A10,10,0,0,0,2048.64,1466.64Z"/><circle id="_Контур_54" data-name="&lt;Контур&gt;" class="cls-6" cx="1986.95" cy="1786.33" r="7.26"/><circle id="_Контур_55" data-name="&lt;Контур&gt;" class="cls-6" cx="2006.95" cy="1786.33" r="7.26"/><circle id="_Контур_56" data-name="&lt;Контур&gt;" class="cls-6" cx="2042.95" cy="1786.33" r="7.26"/><circle id="_Контур_57" data-name="&lt;Контур&gt;" class="cls-6" cx="2062.95" cy="1786.33" r="7.26"/><circle id="_Контур_58" data-name="&lt;Контур&gt;" class="cls-6" cx="2082.95" cy="1786.33" r="7.26"/><circle id="_Контур_59" data-name="&lt;Контур&gt;" class="cls-6" cx="2102.95" cy="1786.33" r="7.26"/><rect id="_Прямоугольник_3" data-name="&lt;Прямоугольник&gt;" class="cls-13" x="3836.54" y="1517.9" width="6.34" height="90.76" rx="3.17" ry="3.17"/><rect id="_Прямоугольник_4" data-name="&lt;Прямоугольник&gt;" class="cls-13" x="4249.1" y="1270.12" width="6.34" height="90.76" rx="3.17" ry="3.17"/><rect id="_Прямоугольник_5" data-name="&lt;Прямоугольник&gt;" class="cls-9" x="3772.32" y="1391.65" width="543.61" height="21.74" rx="10.87" ry="10.87" transform="translate(-146.93 2272.63) rotate(-30.86)"/><path id="_Контур_60" data-name="&lt;Контур&gt;" class="cls-13" d="M3840.19,1410c1.76.35,5.36,5.52,13.88,5.09s266.23-33.92,266.23-33.92,11.87-3.11,14.09-8.66,8-6.41,9.16-1.17-2.61,18-21.36,20.86-267.19,34-267.19,34-13.34.84-16.71-8C3835.26,1410.25,3838.77,1409.75,3840.19,1410Z"/><circle id="_Контур_61" data-name="&lt;Контур&gt;" class="cls-13" cx="3889.33" cy="1436.98" r="13.68"/><circle id="_Контур_62" data-name="&lt;Контур&gt;" class="cls-13" cx="4088.33" cy="1410.98" r="13.68"/><path id="_Контур_63" data-name="&lt;Контур&gt;" class="cls-14" d="M3910.47,1146.5s-50.29-19.43-97.84,12.57H3799a6.88,6.88,0,0,0-6.5,4.61l-3.39,9.72a8.76,8.76,0,0,0,3,9.9h0a7.34,7.34,0,0,0,8.15.44l19.93-11.83s51.32-20.38,86-5.28Z"/><path id="_Контур_64" data-name="&lt;Контур&gt;" class="cls-14" d="M3992.27,1146.51l3.77,20.87s48.31-13.59,75.48,15.1c0,1.79,2.71,5.61,5.57,9.14a8.39,8.39,0,0,0,12.84.24l2.8-3.2a11.21,11.21,0,0,0-.3-15.09l-15.58-8.1S4047.37,1137.71,3992.27,1146.51Z"/><path id="_Контур_65" data-name="&lt;Контур&gt;" class="cls-14" d="M3980.86,1104.31c0-20.09-14.81-36.37-33.09-36.37s-33.09,16.28-33.09,36.37c0,15.42,8.74,28.59,21.06,33.88a5.92,5.92,0,0,1-2.94,4.94c-4.29,2.59,3,25.23,3,25.23l28.54-10.23-1.21-15.07a44.13,44.13,0,0,1-.23-6.62C3972.45,1130.08,3980.86,1117.52,3980.86,1104.31Z"/><path id="_Контур_66" data-name="&lt;Контур&gt;" class="cls-13" d="M3932.81,1143.13s-17.19-7.23-34.25-.75c-3.35,15.76-2.58,34-.11,36.69s15.64,4,15.64,4l-11.64,74.13s42.27,20.38,89.82,0c4.53-20.38-5-76.74-5-76.74s8.38.77,11-1.82,6-27.28-6-35.57c-3.53-7.56-29.18,0-29.18,0s-8,19.27-19.31,17S3932.81,1143.13,3932.81,1143.13Z"/><path id="_Контур_67" data-name="&lt;Контур&gt;" class="cls-15" d="M3917.37,1091s0-15.11,4.7-20.75c6.41-7.66,22.37-12.36,48-5.33s8.36,51.78,8.36,51.78-.79-15.91-21.94-19.43S3917.37,1091,3917.37,1091Z"/><path id="_Контур_68" data-name="&lt;Контур&gt;" class="cls-9" d="M3907.47,1101.12s18-7,39.91,8c2.23-3.92,9.75-14.22,9.75-14.22s-19-15.82-39.69-6.09Z"/><path id="_Контур_69" data-name="&lt;Контур&gt;" class="cls-14" d="M3970.5,1108.22s5.39-10,11.12-5,4.16,10.51-2,14.9S3970.5,1108.22,3970.5,1108.22Z"/><g id="_Группа_" data-name="&lt;Группа&gt;"><path id="_Контур_70" data-name="&lt;Контур&gt;" class="cls-16" d="M4080,1381s5,9.95-25.93,11.18-30.05,3.3-32.31-1.48Z"/><path id="_Контур_71" data-name="&lt;Контур&gt;" class="cls-17" d="M4043.5,1365.39s-14,7-22.5,6.79c-4.26,6.69.74,18.5.74,18.5s48.75.39,56.21-6.6c5.06-4.41-.43-9.5-5.89-10.06S4058.94,1374.88,4043.5,1365.39Z"/></g><g id="_Группа_2" data-name="&lt;Группа&gt;"><path id="_Контур_72" data-name="&lt;Контур&gt;" class="cls-16" d="M3981,1395s5,9.95-25.93,11.18-30.05,3.3-32.31-1.48Z"/><path id="_Контур_73" data-name="&lt;Контур&gt;" class="cls-17" d="M3948.5,1378.39s-18,8-26.5,7.79c-4.26,6.69.74,18.5.74,18.5s48.75.39,56.21-6.6c5.06-4.41-.43-9.5-5.89-10.06S3963.94,1387.88,3948.5,1378.39Z"/></g><path id="_Контур_74" data-name="&lt;Контур&gt;" class="cls-9" d="M3905.17,1250.06s-11.46,32.19,3.28,52.21,23.09,30.93,23.09,30.93l-10,55.36,26.85-7.69s20.64-40.29,20.21-48.76-6.82-38.06-6.82-38.06,35.53,10,46.21,28,11.68,53.09,11.68,53.09l24-8s9-41.88,1.18-63.24-55.47-47.86-55.47-47.86Z"/><path id="_Контур_75" data-name="&lt;Контур&gt;" class="cls-4" d="M1194.42,1949.34l-9.48-8.22a30.1,30.1,0,0,0-13-6.59l-131-30.1a30.1,30.1,0,0,0-9.75-.61L925.7,1914.44a30.09,30.09,0,0,0-16.21,6.79l-15.58,12.94a30.09,30.09,0,0,0-6.49,38.78h0a30.09,30.09,0,0,0,26.5,14.45l58.86-1.54a30.09,30.09,0,0,1,15.17,3.65l7.74,4.22c8.69,8,46.12,39.06,96.3,34.75,47.64-4.09,66.47-4.22,82.66-17.44l.09-.07a30,30,0,0,0,3.11-2.26l16.19-13.58A30.09,30.09,0,0,0,1194.42,1949.34Z"/><path id="_Контур_76" data-name="&lt;Контур&gt;" class="cls-18" d="M1042.57,1591s-6.17,53.47-45.67,52.42c-19.84-.53-30.9-7.38-36.37-12.35a6.08,6.08,0,0,0-9,.82h0a6.06,6.06,0,0,0-.06,7.21c4.78,6.58,17.79,19,47.64,18.48,46.78-.8,70.92-57.93,70.92-57.93Z"/><path id="_Контур_77" data-name="&lt;Контур&gt;" class="cls-19" d="M1102.4,1588.56s5.56,11.36,4.84,38.72-33.76,19.62-33.76,19.62l16.91,28.91s13,58.34,38.85,64,29.43-2.07,29.43-2.07,11.36-17.55,23.75-7.74,0,28.91-17.55,28.91-53.18,10.33-78.48-25.3-33.56-26.85-33.56-26.85-18.07,18.07-34.59,26.85c-6.2,5.68-24.44,22-60,29.45-4.91,2.1-15.73,1.34-22.18.63a14,14,0,0,1-9.14-4.83c-4.49-5.26-10.48-14.53-5.28-22.16,11.69-3.41,28.91,10.84,28.91,10.84s36.76-7.84,53.7-24.78,32-57.83,38.21-58.86,17.45-21.69,11-28.4-15.69-35.11-15.69-35.11Z"/><path id="_Контур_78" data-name="&lt;Контур&gt;" class="cls-19" d="M1112.19,1803.91s5.47,13.94,5.47,28.37-42.79,82.12-42.79,82.12l-20.41-5.47s19.89-62.76,32.83-72.69c-3.48-7.93-17.92-22.37-17.92-22.37l-30.87-3s-5.73,49.27-15.3,57.24S942,1915.4,942,1915.4L931.52,1893s42.8-32.85,66.69-36.33c0-10,2-41.31,2-41.31l55.74-20.41Z"/><path id="_Контур_79" data-name="&lt;Контур&gt;" class="cls-9" d="M1034.12,1671.23l13.45-14.31s17.54,22.91,42.83,18.89c2.47,9.3,3.25,73.26,3.25,73.26l26.51,57.27s-124,71.47-163.3-6.63c23.67-9,43.39-17.62,82.67-58.8,0,0,4.68-12.58.86-22.86-.41-1.11,13.08-10.57,13.17-11.85C1055.31,1679.7,1043.7,1672.43,1034.12,1671.23Z"/><path id="_Контур_80" data-name="&lt;Контур&gt;" class="cls-13" d="M1067.58,1603.91l39.49-10.13s5.06-37.47-39.49-30.38-35.44,57.72-35.44,57.72-7.09,53.36-46.56,51.63c-19.82-.87-30.77-7.9-36.15-13a6.08,6.08,0,0,0-9,.67h0a6.06,6.06,0,0,0-.19,7.2c4.67,6.66,17.47,19.29,47.32,19.29,46.79,0,71.9-56.71,71.9-56.71s-18.23-5.06-10.13-18.23,16.19,2.58,16.19,2.58Z"/><ellipse id="_Контур_81" data-name="&lt;Контур&gt;" class="cls-13" cx="1015.99" cy="1868.17" rx="16.99" ry="10.47" transform="translate(-1028.3 1282.37) rotate(-45.47)"/><ellipse id="_Контур_82" data-name="&lt;Контур&gt;" class="cls-13" cx="1110.99" cy="1833.17" rx="16.99" ry="10.47" transform="translate(-801.04 2802.14) rotate(-85.66)"/><polygon id="_Контур_83" data-name="&lt;Контур&gt;" class="cls-13" points="1006.28 1868.17 993.78 1857.58 998.3 1852.04 1012.15 1862.72 1006.28 1868.17"/><polygon id="_Контур_84" data-name="&lt;Контур&gt;" class="cls-13" points="1105.81 1826.68 1084.29 1830.99 1085.77 1837.78 1105.81 1835.23 1105.81 1826.68"/><circle id="_Контур_85" data-name="&lt;Контур&gt;" class="cls-9" cx="1120.89" cy="1958.25" r="8.2"/><circle id="_Контур_86" data-name="&lt;Контур&gt;" class="cls-9" cx="1099.2" cy="1958.25" r="8.2"/><circle id="_Контур_87" data-name="&lt;Контур&gt;" class="cls-9" cx="1077.41" cy="1958.25" r="8.2"/><circle id="_Контур_88" data-name="&lt;Контур&gt;" class="cls-9" cx="1056.02" cy="1958.25" r="8.2"/><path id="_Контур_89" data-name="&lt;Контур&gt;" class="cls-13" d="M1083,1903.67l-1.4,25.31s30.1,5.75,34.45,6.82,6.71,7.5,2.25,11.8c-11.24,7.12-62,2.76-65-.52s-.5-46.08-.5-46.08l32,2.67"/><path id="_Контур_90" data-name="&lt;Контур&gt;" class="cls-13" d="M1108.68,1949.81c7.91,3,16.12,6.18,16.12,6.18v3.27h-88.32s-3.05-9.43,16.53-12.18C1053,1947.08,1100.77,1946.83,1108.68,1949.81Z"/><g id="_Группа_3" data-name="&lt;Группа&gt;"><circle id="_Контур_91" data-name="&lt;Контур&gt;" class="cls-9" cx="940.17" cy="1956.34" r="8.15" transform="translate(-708.12 544.13) rotate(-23.74)"/><circle id="_Контур_92" data-name="&lt;Контур&gt;" class="cls-9" cx="931.49" cy="1936.6" r="8.15" transform="translate(-700.9 538.97) rotate(-23.74)"/><circle id="_Контур_93" data-name="&lt;Контур&gt;" class="cls-9" cx="922.77" cy="1916.78" r="8.15" transform="translate(-693.66 533.78) rotate(-23.74)"/><circle id="_Контур_94" data-name="&lt;Контур&gt;" class="cls-9" cx="914.21" cy="1897.31" r="8.15" transform="translate(-686.55 528.68) rotate(-23.74)"/><path id="_Контур_95" data-name="&lt;Контур&gt;" class="cls-13" d="M975.38,1901.63,965,1871.41s-39.94,14.85-41.72,18.89,12,51.17,23,58.54c5.7,2.34,10.6-2.38,9.83-6.77s-5-33.25-5-33.25l23.59-8.85"/><path id="_Контур_96" data-name="&lt;Контур&gt;" class="cls-13" d="M943.06,1942c.46,8.39.91,17.33.91,17.33l-3,1.31-35.44-80.55s7.36-6.55,17.7,10.17C923.26,1890.3,942.6,1933.65,943.06,1942Z"/></g><polygon id="_Контур_97" data-name="&lt;Контур&gt;" class="cls-11" points="952.29 1916.85 952.24 1901.87 937.94 1902.65 938.34 1910.84 952.29 1916.85"/><polygon id="_Контур_98" data-name="&lt;Контур&gt;" class="cls-11" points="1092 1932.04 1079.71 1921.27 1070.02 1933.54 1077.01 1939.13 1092 1932.04"/><path id="_Контур_99" data-name="&lt;Контур&gt;" class="cls-4" d="M2780.93,1345.64l-55.59,1.57-60.1,39a13.05,13.05,0,0,0-5.08,5.63h0a13.05,13.05,0,0,0,3.51,15.62h0a13.05,13.05,0,0,0,2.18,1.46l50.35,38.63s56.45,37.11,79.12-9c15.61-31.75,54.52-27.7,77.25-22.09a128.76,128.76,0,0,0,49.34,2.61c18.22-2.65,40.73-7.83,57.81-17.92,34.12-20.16,38.26-62.3,38.26-62.3l-32.53-8-113.52.33-91,14.51"/><path id="_Контур_100" data-name="&lt;Контур&gt;" class="cls-20" d="M2917.86,1170.54s-22,57.75-21.83,68.62l1,48.84h30.1s-.22-28.25,5.94-49.51c4.17-14.4,12.44-23.42,18.36-26.57C2961.94,1232.55,2974,1286,2974,1286h30.11l-11.43-112.25Z"/><path id="_Контур_101" data-name="&lt;Контур&gt;" class="cls-21" d="M2931.4,1107.11s-2.77-27-17.66-24.12-68.8,55.32-68.8,55.32-16.31-2.13-15.6,9.93,9.93,20.57,26.24,0S2931.4,1107.11,2931.4,1107.11Z"/><path id="_Контур_102" data-name="&lt;Контур&gt;" class="cls-22" d="M2906.46,1083.78l30.26-14.63,39.44,7.32s22.51,6.36,23,26.53a80.41,80.41,0,0,1-7.84,35.85l1.38,32.56s-43.56,23.84-78.41,0c4.59-19.72,5.29-60.79,5.29-60.79S2918.84,1086.95,2906.46,1083.78Z"/><path id="_Контур_103" data-name="&lt;Контур&gt;" class="cls-21" d="M2965.05,1124.76s-13.48,45.67-47.92,59.15a186.35,186.35,0,0,1-21.71,0s-17.22,4.49-12,15.72,32.2,0,32.2,0,47.92-7.49,69.63-61.4C2985.27,1137.49,2989,1117.27,2965.05,1124.76Z"/><path id="_Контур_104" data-name="&lt;Контур&gt;" class="cls-21" d="M2923,1054.08s1.62,21.22,5.27,29.77,12.38,10.14,22,7.94,27.17-12.73,23.66-47.4c-13.17-4.83-47.63-3.51-47.63-3.51Z"/><path id="_Контур_105" data-name="&lt;Контур&gt;" class="cls-22" d="M2919.3,1050.5s2.33-32.32,28.47-32.32c42.61,0,28.35,46,28.35,46l-30.62-13.7Z"/><path id="_Контур_106" data-name="&lt;Контур&gt;" class="cls-20" d="M2901.87,1059.76s22.93,12.77,38.06-2.36a60.56,60.56,0,0,0,8.11-10.09l-28.75-2.75-5,4.39Z"/><circle id="_Контур_107" data-name="&lt;Контур&gt;" class="cls-9" cx="2860.76" cy="1339.29" r="7.92"/><circle id="_Контур_108" data-name="&lt;Контур&gt;" class="cls-9" cx="2881.7" cy="1339.29" r="7.92"/><circle id="_Контур_109" data-name="&lt;Контур&gt;" class="cls-9" cx="2902.74" cy="1339.29" r="7.92"/><circle id="_Контур_110" data-name="&lt;Контур&gt;" class="cls-9" cx="2923.4" cy="1339.29" r="7.92"/><path id="_Контур_111" data-name="&lt;Контур&gt;" class="cls-22" d="M2895.63,1286.58l30.94-2.57s2.41,41.32-.48,44.49-51.93,7.38-62.78.5c-4.31-4.15-2-10.36,2.17-11.39s33.26-6.59,33.26-6.59l-1.36-24.44"/><path id="_Контур_112" data-name="&lt;Контур&gt;" class="cls-6" d="M2872,1331.13c-7.64,2.87-16.16,6-16.16,6v3.15h85.87s2.95-9.11-16-11.76C2925.71,1328.5,2879.6,1328.25,2872,1331.13Z"/><circle id="_Контур_113" data-name="&lt;Контур&gt;" class="cls-9" cx="2937.76" cy="1339.29" r="7.92"/><circle id="_Контур_114" data-name="&lt;Контур&gt;" class="cls-9" cx="2958.7" cy="1339.29" r="7.92"/><circle id="_Контур_115" data-name="&lt;Контур&gt;" class="cls-9" cx="2979.74" cy="1339.29" r="7.92"/><circle id="_Контур_116" data-name="&lt;Контур&gt;" class="cls-9" cx="3000.4" cy="1339.29" r="7.92"/><path id="_Контур_117" data-name="&lt;Контур&gt;" class="cls-22" d="M2972.63,1286.58l30.94-2.57s2.41,41.32-.48,44.49-51.93,7.38-62.78.5c-4.31-4.15-2-10.36,2.17-11.39s33.26-6.59,33.26-6.59l-1.36-24.44"/><path id="_Контур_118" data-name="&lt;Контур&gt;" class="cls-6" d="M2949,1331.13c-7.64,2.87-16.16,6-16.16,6v3.15h85.87s2.95-9.11-16-11.76C3002.71,1328.5,2956.6,1328.25,2949,1331.13Z"/><path id="_Контур_119" data-name="&lt;Контур&gt;" class="cls-9" d="M2718.33,1293.25s-3.72,18-2.89,31.24,9.06,42.06,9.06,42.06l23.47-.15-2.64-39.94s-3.35-22.35,11-23.83,13.88,25.83,13.88,25.83l-1.13,36.6,24.38.33,4.84-40.93s3-24-7.27-45S2718.33,1293.25,2718.33,1293.25Z"/><ellipse id="_Контур_120" data-name="&lt;Контур&gt;" class="cls-6" cx="2734.92" cy="1330.99" rx="12.38" ry="14.84"/><ellipse id="_Контур_121" data-name="&lt;Контур&gt;" class="cls-6" cx="2780.93" cy="1330.8" rx="12.38" ry="14.84"/><ellipse id="_Контур_122" data-name="&lt;Контур&gt;" class="cls-6" cx="2725.34" cy="1388.24" rx="3.58" ry="4.63"/><ellipse id="_Контур_123" data-name="&lt;Контур&gt;" class="cls-6" cx="2749.34" cy="1402.24" rx="3.58" ry="4.63"/><ellipse id="_Контур_124" data-name="&lt;Контур&gt;" class="cls-6" cx="2766.34" cy="1402.24" rx="3.58" ry="4.63"/><ellipse id="_Контур_125" data-name="&lt;Контур&gt;" class="cls-6" cx="2774.34" cy="1397.24" rx="3.58" ry="4.63"/><ellipse id="_Контур_126" data-name="&lt;Контур&gt;" class="cls-6" cx="2781.34" cy="1392.24" rx="3.58" ry="4.63"/><ellipse id="_Контур_127" data-name="&lt;Контур&gt;" class="cls-6" cx="2788.34" cy="1387.24" rx="3.58" ry="4.63"/><ellipse id="_Контур_128" data-name="&lt;Контур&gt;" class="cls-6" cx="2732.34" cy="1393.24" rx="3.58" ry="4.63"/><ellipse id="_Контур_129" data-name="&lt;Контур&gt;" class="cls-6" cx="2740.34" cy="1398.24" rx="3.58" ry="4.63"/><ellipse id="_Контур_130" data-name="&lt;Контур&gt;" class="cls-14" cx="2732.63" cy="1205.58" rx="4.13" ry="5.54"/><ellipse id="_Контур_131" data-name="&lt;Контур&gt;" class="cls-14" cx="2775.63" cy="1206.58" rx="4.13" ry="5.54"/><path id="_Контур_132" data-name="&lt;Контур&gt;" class="cls-14" d="M2716.22,1243.46l-6.27-15.78s-31.42,7.74-44.4,27.4l-.38.12c-10.34,3.59-16.32,18.43-16.32,18.43s1.27,9.75,13,8a2.17,2.17,0,0,0,1.83-2c.3-6.86,3.92-8.56,3.92-8.56l1,.53a2.2,2.2,0,0,0,3.2-1.71l.61-5.57c4.25-4.18,10.62-9.67,17.22-12.62C2701.21,1246.45,2716.22,1243.46,2716.22,1243.46Z"/><path id="_Контур_133" data-name="&lt;Контур&gt;" class="cls-14" d="M2792.58,1234.1l2-16.86s32.36-.57,49.94,15.1l.4,0c10.92.82,20.5,13.63,20.5,13.63s1.27,9.75-10.52,11a2.17,2.17,0,0,1-2.29-1.49c-2.05-6.56-6-7.27-6-7.27l-.84.77a2.2,2.2,0,0,1-3.53-.83l-2-5.23c-5.18-2.95-12.74-6.62-19.88-7.79C2807.85,1233.14,2792.58,1234.1,2792.58,1234.1Z"/><path id="_Контур_134" data-name="&lt;Контур&gt;" class="cls-13" d="M2807.37,1223.32c-3.16-8.19-16.49-8-23.72-8.83a158.57,158.57,0,0,0-56.81,4l-5.34.68c-5,.66-11.07,3.84-14,8.45-2.28,3.6,4.8,27.54,8.82,28.06l.8.1c1,11.3-3.85,33.43-3.85,33.43a14.58,14.58,0,0,0,7.38,4.38c12.67,2.42,22.17,7.22,33.51,6.5q8.42-.53,16.87-.29c5.16.15,12.64-3.36,15.55-8,4.75-7.61,15.31-6.92,11.51-15.88-3.21-7.55-5.61-14.74-6.54-22.52l.17,0c1.66-.26,5.31,1.08,6.56-.78C2802.37,1246.48,2810.27,1230.82,2807.37,1223.32Z"/><path id="_Контур_135" data-name="&lt;Контур&gt;" class="cls-6" d="M2764.24,1254.67l19.41-40.18s-48.79-.47-55.15,3.66c-4.2,2.73,9.82,23.85,19.82,37.87A9.28,9.28,0,0,0,2764.24,1254.67Z"/><circle id="_Контур_136" data-name="&lt;Контур&gt;" class="cls-14" cx="2754.27" cy="1203.78" r="21.39"/><path id="_Контур_137" data-name="&lt;Контур&gt;" class="cls-13" d="M2725,1364l21.23-1.86a3.39,3.39,0,0,1,3.64,3.89l-2.37,15.25,6.28,9.92a6,6,0,0,1-2,8.32l-1.31.78a6,6,0,0,1-6.65-.36L2724,1385l-2.08-17.24A3.39,3.39,0,0,1,2725,1364Z"/><path id="_Контур_138" data-name="&lt;Контур&gt;" class="cls-13" d="M2792,1362.89l-20.22-1.77a3.89,3.89,0,0,0-4.23,3.69l-.78,16.47-6.28,9.92a6,6,0,0,0,2,8.32l1.31.78a6,6,0,0,0,6.65-.36l19.82-14.93,5.13-17.14A3.89,3.89,0,0,0,2792,1362.89Z"/><path id="_Контур_139" data-name="&lt;Контур&gt;" class="cls-6" d="M2738.1,1201.06l33.83,1,4.17-1s6.07-26-21.07-26-22.14,24.71-22.14,24.71Z"/><path id="_Контур_140" data-name="&lt;Контур&gt;" class="cls-13" d="M2745.19,1213.06h19a4,4,0,0,0,3.83-2.74l3.48-10.26h-32.94l2.72,10A4,4,0,0,0,2745.19,1213.06Z"/><ellipse id="_Контур_141" data-name="&lt;Контур&gt;" class="cls-13" cx="2753.75" cy="1176.78" rx="3.79" ry="1.71"/><path id="_Контур_142" data-name="&lt;Контур&gt;" class="cls-4" d="M807.44,1617.94h0a15,15,0,0,1-7.67,16.78L787.62,1641l0,0a25.36,25.36,0,0,0-9,7.46c-10.72,14.64-6.59,41.59-46.71,57.18s-72.09-43.21-72.09-43.21a16.18,16.18,0,0,0-14.22-8.46h-4.73a22.38,22.38,0,0,0-22.39,24.1c.5,6,7.94,12,15.26,16.41,13.68,8.27,22.26,21.64,17.19,39.93S620.25,1762,599.8,1762h-53L505,1758.67c-10.72-.86-21.43-5.9-31.09-12.44a111.07,111.07,0,0,1-43.54-59.17c-4.28-13.78-2.65-18.46,1.25-37.65l31.33-10,38.63-24.52a65.32,65.32,0,0,1,33.29-10.15l54.2-1.43a67,67,0,0,0,21.33-4.09l25.43-9.35a67,67,0,0,1,26.78-4l67.59,3.72L796.67,1607A15,15,0,0,1,807.44,1617.94Z"/><path id="_Контур_143" data-name="&lt;Контур&gt;" class="cls-14" d="M759.81,1389c-.61,15.63-12.48,28.32-27.88,28.32a28.32,28.32,0,0,1,0-56.64C747.32,1360.64,761.09,1356.18,759.81,1389Z"/><path id="_Контур_144" data-name="&lt;Контур&gt;" class="cls-9" d="M704.05,1410.2l7.74-1.67s-7.49-17.35,0-31.08,48-9.73,48-9.73-.88-39.82-46.9-26.55S692.4,1408.42,704.05,1410.2Z"/><path id="_Контур_145" data-name="&lt;Контур&gt;" class="cls-14" d="M805.45,1469.93s10-4.51,15.8-2.26,11,10.52,8.28,16-21.07,1-21.07,1Z"/><path id="_Контур_146" data-name="&lt;Контур&gt;" class="cls-20" d="M717.49,1595.09s-6,16.71,0,25.06c15.22.6,50.72,0,50.72,0s6.84-6.53,1.24-12.58a10.6,10.6,0,0,0-7.19-3.24c-11.66-.69-21.47-4.12-24.78-10.73C737.48,1593.3,717.49,1595.09,717.49,1595.09Z"/><circle id="_Контур_147" data-name="&lt;Контур&gt;" class="cls-20" cx="722.18" cy="1628.19" r="5.75"/><path id="_Контур_148" data-name="&lt;Контур&gt;" class="cls-14" d="M650.75,1405.49l2.51-11.28s-4.26-15-13-13-9,16.55-9,16.55l11,18.05Z"/><circle id="_Контур_149" data-name="&lt;Контур&gt;" class="cls-20" cx="736.18" cy="1628.19" r="5.75"/><circle id="_Контур_150" data-name="&lt;Контур&gt;" class="cls-20" cx="750.18" cy="1628.19" r="5.75"/><circle id="_Контур_151" data-name="&lt;Контур&gt;" class="cls-20" cx="764.18" cy="1628.19" r="5.75"/><path id="_Контур_152" data-name="&lt;Контур&gt;" class="cls-20" d="M656.66,1540s-13.61-11.38-23.52-8.67c-5.82,14.07-17.54,47.59-17.54,47.59s3.76,8.68,11.38,5.51a10.6,10.6,0,0,0,5.53-5.63c4.68-10.7,11.29-18.72,18.64-19.54C651.43,1559.41,656.66,1540,656.66,1540Z"/><path id="_Контур_153" data-name="&lt;Контур&gt;" class="cls-9" d="M759.81,1505.5s-5.13,67.44-17.7,90.47c-5.86,3.35-26.51,1.86-26.51,1.86l5.6-32.26-2-26.07-31.93,32.26s-27,3.58-38.13-6.19c0-7.17,6.19-27.7,6.19-27.7s18.25,7.17,22.16,4.24,15.08-38.92,15.08-38.92Z"/><circle id="_Контур_154" data-name="&lt;Контур&gt;" class="cls-20" cx="623.98" cy="1533" r="5.75" transform="translate(-1030.22 1588.38) rotate(-69.77)"/><circle id="_Контур_155" data-name="&lt;Контур&gt;" class="cls-20" cx="619.14" cy="1546.13" r="5.75" transform="translate(-1045.71 1592.43) rotate(-69.77)"/><path id="_Контур_156" data-name="&lt;Контур&gt;" class="cls-20" d="M729.84,1420s-17.17-.26-23.86,2.57-16.21,10.81-16.21,10.81-28.82.51-36.54-30.11c0-.26-10.35-1.8-14.47,10.55,4.63,10.29,3.23,26.23,52.81,45,8.12,3.07.77,46.14.77,46.14s23.67,26,72.31,4.12c.26-7.72-3.35-42.72-3.35-42.72s25.73,21.1,49.15,19c3.22-2.83,3.06-10.12-2.83-16s-38-9-47.82-36C757.64,1426,749.33,1420.5,729.84,1420Z"/><circle id="_Контур_157" data-name="&lt;Контур&gt;" class="cls-20" cx="614.3" cy="1559.27" r="5.75" transform="translate(-1061.2 1596.48) rotate(-69.77)"/><path id="_Контур_158" data-name="&lt;Контур&gt;" class="cls-9" d="M546.23,1440.25s22.3,51,24.3,62.73-7.15,84-7.15,84H523.1s11.35-63.6,5.36-72.09S505,1479.73,505,1479.73s3,33.12-1,47.59S483.58,1598,483.58,1598H444.1s15.51-61,14.52-72.79-15-67.67-15-67.67Z"/><path id="_Контур_159" data-name="&lt;Контур&gt;" class="cls-14" d="M717.1,1411.06l-2,10s13,19.35,21.45,19.35,7.36-15.17,7.36-15.17l-2.6-15Z"/><circle id="_Контур_160" data-name="&lt;Контур&gt;" class="cls-20" cx="609.46" cy="1572.41" r="5.75" transform="translate(-1076.69 1600.53) rotate(-69.77)"/><path id="_Контур_161" data-name="&lt;Контур&gt;" class="cls-23" d="M525.49,1296.9s38.28,55.89,46.84,60.4,66.44,17,66.44,17,16.48,8.73,16.48,16.73-21.15,0-21.15,0l.36,12-17.52-17.79s-36.11-1.74-53.63-7.65S525.47,1354,525.47,1354Z"/><path id="_Контур_162" data-name="&lt;Контур&gt;" class="cls-13" d="M484.9,1280.11s28.87,1.95,40.57,10.06,12.6,14.42,12.6,14.42-7.66,96.89,12.62,142c-15.77-3.61-75.46.21-108.64,19.14,3.78-27.49-6-101.61-6-101.61l-9.74-59.94S447.5,1279.52,484.9,1280.11Z"/><path id="_Контур_163" data-name="&lt;Контур&gt;" class="cls-23" d="M447.5,1250.14s17.71,20.54,5,37.76c6.58,8.61,39,24.31,39,24.31l3-27.35s-13.67-9.69-14.18-34.72C469.26,1245.36,447.5,1250.14,447.5,1250.14Z"/><path id="_Контур_164" data-name="&lt;Контур&gt;" class="cls-23" d="M426.31,1304.14s28.39-14.87,26.59,17.58-8.39,36.8,1.34,50.32,66.26,21.79,66.26,21.79l18-3s17.87,4.41,20.58,13.2-26.43,19.56-43.11,13.22-68-2.26-96.44-36.29C407.38,1366.78,405.58,1322.17,426.31,1304.14Z"/><path id="_Контур_165" data-name="&lt;Контур&gt;" class="cls-14" d="M500.11,1237.21c-.7,18-14.34,32.54-32,32.54s-32-14.57-32-32.54,14.34-32.54,32-32.54S501.58,1199.55,500.11,1237.21Z"/><path id="_Контур_166" data-name="&lt;Контур&gt;" class="cls-9" d="M434.8,1232.55s24.29-21.54,62.54-18.62c1.79-11.26-6.51-36.12-32.21-34.6S419.13,1201.15,434.8,1232.55Z"/><path id="_Контур_167" data-name="&lt;Контур&gt;" class="cls-24" d="M456.24,1210.91s22.14-9.85,38.34-6.81,30.89,6.81,30.89,6.81-33.68,4.33-44.06,12.44S456.24,1210.91,456.24,1210.91Z"/><ellipse id="_Контур_168" data-name="&lt;Контур&gt;" class="cls-14" cx="438.5" cy="1235.2" rx="8.19" ry="9.69"/><circle id="_Контур_169" data-name="&lt;Контур&gt;" class="cls-13" cx="610.26" cy="1645.88" r="10.44"/><circle id="_Контур_170" data-name="&lt;Контур&gt;" class="cls-13" cx="582.65" cy="1645.88" r="10.44"/><circle id="_Контур_171" data-name="&lt;Контур&gt;" class="cls-13" cx="554.91" cy="1645.88" r="10.44"/><circle id="_Контур_172" data-name="&lt;Контур&gt;" class="cls-13" cx="527.68" cy="1645.88" r="10.44"/><path id="_Контур_173" data-name="&lt;Контур&gt;" class="cls-25" d="M564.29,1576.4,523.5,1573s-3.18,54.48.63,58.65,68.46,9.72,82.76.66c5.68-5.47,2.67-13.66-2.86-15s-40.85-8.68-40.85-8.68L565,1576.4"/><polygon id="_Контур_174" data-name="&lt;Контур&gt;" class="cls-13" points="575.17 1610.74 560.18 1597.62 548.38 1612.57 556.9 1619.37 575.17 1610.74"/><path id="_Контур_175" data-name="&lt;Контур&gt;" class="cls-25" d="M594.5,1635.13c10.07,3.79,20.31,7.87,20.31,7.87v4.16H502.6s-3.89-12,21-15.5C523.65,1631.66,584.43,1631.34,594.5,1635.13Z"/><circle id="_Контур_176" data-name="&lt;Контур&gt;" class="cls-13" cx="532.26" cy="1655.88" r="10.44"/><circle id="_Контур_177" data-name="&lt;Контур&gt;" class="cls-13" cx="504.65" cy="1655.88" r="10.44"/><circle id="_Контур_178" data-name="&lt;Контур&gt;" class="cls-13" cx="476.91" cy="1655.88" r="10.44"/><circle id="_Контур_179" data-name="&lt;Контур&gt;" class="cls-13" cx="449.68" cy="1655.88" r="10.44"/><path id="_Контур_180" data-name="&lt;Контур&gt;" class="cls-20" d="M486.29,1586.4,445.5,1583s-3.18,54.48.63,58.65,68.46,9.72,82.76.66c5.68-5.47,2.67-13.66-2.86-15s-39.85-8.68-39.85-8.68L488,1586.4"/><polygon id="_Контур_181" data-name="&lt;Контур&gt;" class="cls-13" points="497.17 1620.74 482.19 1607.62 470.38 1622.57 478.9 1629.37 497.17 1620.74"/><path id="_Контур_182" data-name="&lt;Контур&gt;" class="cls-20" d="M516.5,1645.13c10.07,3.79,20.31,7.87,20.31,7.87v4.16H424.6s-3.89-12,21-15.5C445.65,1641.66,506.43,1641.34,516.5,1645.13Z"/><path id="_Контур_183" data-name="&lt;Контур&gt;" class="cls-5" d="M959.21,1960.9"/><path id="_Контур_184" data-name="&lt;Контур&gt;" class="cls-5" d="M947.6,1960.9"/><path id="_Контур_185" data-name="&lt;Контур&gt;" class="cls-5" d="M953.62,1960.9"/><path id="_Контур_186" data-name="&lt;Контур&gt;" class="cls-5" d="M787.76,1905.17"/><polygon id="_Контур_187" data-name="&lt;Контур&gt;" class="cls-3" points="3866.19 1879.5 3844.28 1877.23 3601.18 1748.3 3394.23 1852.27 3394.63 1860.91 3658.89 2012.54 3871.19 1891.5 3866.19 1879.5"/><polygon id="_Контур_188" data-name="&lt;Контур&gt;" class="cls-26" points="3658.89 1997.54 3394.23 1852.27 3596.18 1736.3 3866.19 1879.5 3658.89 1997.54"/><path id="_Контур_189" data-name="&lt;Контур&gt;" class="cls-4" d="M3553.9,1838.78l-103.11,1.14L3423.47,1857,3529,1884.6l171,67.34a13,13,0,0,0,9.29.08l11.16-4.18a13,13,0,0,0,4.46-21.43l-22.59-18.87-64.22-19.28,112,2.51a13,13,0,0,0,13.91-6.92h0a13,13,0,0,0-8.86-18.48l-39.09-8.37Z"/><path id="_Контур_190" data-name="&lt;Контур&gt;" class="cls-20" d="M3529.3,1860s-2.73,11.55,8.79,19.23,145.13,46.1,145.13,46.1l10.36-19.58L3583.83,1852l138,20.29v-23.28l-143.95-25-39.84-1Z"/><path id="_Контур_191" data-name="&lt;Контур&gt;" class="cls-9" d="M3521.22,1760s-24.35,7-29.87,18.43c2,5.58,9.07,18.64,9.07,18.64s7.35-1.49,16.8,25a217.61,217.61,0,0,1,11,46.77s27.23-6.64,41.89-16.83,15.66-24.61,11.85-32.09c-3.88-10.26-15.8-55.25-42.24-62.76S3521.22,1760,3521.22,1760Z"/><path id="_Контур_192" data-name="&lt;Контур&gt;" class="cls-14" d="M3546.68,1729.09c0-17.53-11.25-31.74-25.13-31.74s-25.13,14.21-25.13,31.74c0,13.93,7.11,25.76,17,30a103.52,103.52,0,0,1,3.5,11c9.36,4.51,15.51,3.27,18.46-1.46a5.46,5.46,0,0,0-1-6.84,17.7,17.7,0,0,1-2.81-3.65C3540.47,1753.3,3546.68,1742.11,3546.68,1729.09Z"/><path id="_Контур_193" data-name="&lt;Контур&gt;" class="cls-14" d="M3444.16,1843.87s16.41-20.57,21.31-27.28c2.89-3.95,21-38.3,28.49-39.64,14.88-.24,17,7,11.37,21.77-1.51,3.93-29.09,29.05-29.09,29.05a91.12,91.12,0,0,1-27.17,24c1.37,3.52-2.09,5.25-2.09,5.25h-23.51c-1.88-5,3.13-10.89,6-11.27S3444.16,1843.87,3444.16,1843.87Z"/><path id="_Контур_194" data-name="&lt;Контур&gt;" class="cls-9" d="M3497.25,1737.16l24.3-17.85,22.71-5.15-6.86-18.87s-7.31-9.1-28.68-2.15-21.37,27.19-21.37,27.19Z"/><path id="_Контур_195" data-name="&lt;Контур&gt;" class="cls-27" d="M3525,1730.18s18.41-21.79,38-14.58c-11.67-6.86-21-7.86-21-7.86s-15-4.3-33.19,14.8C3501.57,1730.15,3525,1730.18,3525,1730.18Z"/><ellipse id="_Контур_196" data-name="&lt;Контур&gt;" class="cls-14" cx="3495.85" cy="1734.99" rx="5.41" ry="6.81"/><g id="_Группа_4" data-name="&lt;Группа&gt;"><path id="_Контур_197" data-name="&lt;Контур&gt;" class="cls-20" d="M3707.41,1879.22s9.75-1,1.12,24.86-6.67,25.8-11.31,26.17Z"/><path id="_Контур_198" data-name="&lt;Контур&gt;" class="cls-13" d="M3683.6,1900.81s1,17.29-1.86,24.27c4.18,5.6,15.48,5.17,15.48,5.17s15.55-40.06,12.12-48.39c-2.06-5.55-8-2.62-10.13,1.72S3696.23,1891,3683.6,1900.81Z"/></g><g id="_Группа_5" data-name="&lt;Группа&gt;"><path id="_Контур_199" data-name="&lt;Контур&gt;" class="cls-20" d="M3742.41,1825.22s9.75-1,1.12,24.86-6.67,25.8-11.31,26.17Z"/><path id="_Контур_200" data-name="&lt;Контур&gt;" class="cls-13" d="M3718.6,1846.81s1,17.29-1.86,24.27c4.18,5.6,15.48,5.17,15.48,5.17s15.55-40.06,12.12-48.39c-2.06-5.55-8-2.62-10.13,1.72S3731.23,1837,3718.6,1846.81Z"/></g><path id="_Контур_201" data-name="&lt;Контур&gt;" class="cls-5" d="M3152.35,1705.49,3263.93,1778a15.13,15.13,0,0,0,9.86,2.36h0a15.13,15.13,0,0,0,13.3-17.56l-.34-2a15.13,15.13,0,0,0-7.29-10.54l-97.67-57,133.35-84.8-10.85-5.88-156.87,77.11h0A18.2,18.2,0,0,0,3152.35,1705.49Z"/><circle id="_Контур_202" data-name="&lt;Контур&gt;" class="cls-28" cx="3142.56" cy="1679.73" r="16.06" transform="matrix(0.53, -0.85, 0.85, 0.53, 61.45, 3469.68)"/><circle id="_Контур_203" data-name="&lt;Контур&gt;" class="cls-28" cx="3251.76" cy="1746.99" r="16.06" transform="translate(56.02 3594.47) rotate(-58.28)"/><rect id="_Прямоугольник_6" data-name="&lt;Прямоугольник&gt;" class="cls-29" x="3239.59" y="1577.14" width="71.95" height="4.24" transform="translate(2501.41 -1973.78) rotate(51.97)"/><rect id="_Прямоугольник_7" data-name="&lt;Прямоугольник&gt;" class="cls-13" x="3247.13" y="1551.88" width="22.63" height="9.86" transform="translate(2477.15 -1968.91) rotate(51.97)"/><rect id="_Прямоугольник_8" data-name="&lt;Прямоугольник&gt;" class="cls-13" x="3282.97" y="1597.69" width="22.63" height="9.86" transform="translate(2526.99 -1979.55) rotate(51.97)"/><path id="_Контур_204" data-name="&lt;Контур&gt;" class="cls-29" d="M3177.78,1692.83,3181,1657l98.75-76.55-4.83-6.2L3168.62,1653l-4.42,46.45,85.67,53.43a6.25,6.25,0,0,0,8.61-2h0a6.25,6.25,0,0,0-2-8.57Z"/><path id="_Контур_205" data-name="&lt;Контур&gt;" class="cls-29" d="M3139.87,1683.72h0a5.1,5.1,0,0,1-.44-8.42l45.32-34.4,7.36,7.68-46.54,34.87A5.1,5.1,0,0,1,3139.87,1683.72Z"/><path id="_Контур_206" data-name="&lt;Контур&gt;" class="cls-4" d="M1309.25,1292.81l-24.3,24.64a23.24,23.24,0,0,0-5.43,23.86h0a23.24,23.24,0,0,0,22,15.69H1308a83.41,83.41,0,0,0,25-3.82l41.81-13.11v38.42a12.52,12.52,0,0,0,12.52,12.52h0a12.52,12.52,0,0,0,10.22-5.3l13.45-19.06a84.62,84.62,0,0,1,16-17.06l14-11.33a84.62,84.62,0,0,1,34.21-16.62l18.3-4.2a11.16,11.16,0,0,0,8.16-7.57h0a11.16,11.16,0,0,0-9.45-14.4l-30.09-3.28h0a45.43,45.43,0,0,0,19-56.94l-8.3-19.64-163.59,77.2"/><circle id="_Контур_207" data-name="&lt;Контур&gt;" class="cls-13" cx="1330.84" cy="1312.44" r="11.32"/><circle id="_Контур_208" data-name="&lt;Контур&gt;" class="cls-13" cx="1460.84" cy="1261.44" r="11.32"/><rect id="_Прямоугольник_9" data-name="&lt;Прямоугольник&gt;" class="cls-20" x="1262.82" y="1234.7" width="245.51" height="54.74" rx="26.97" ry="26.97" transform="translate(-363.25 588.1) rotate(-21.25)"/><path id="_Контур_209" data-name="&lt;Контур&gt;" class="cls-13" d="M1321.75,1251.49l7.25,15.87a8.84,8.84,0,0,0,5.61,4.82h0a8.84,8.84,0,0,0,9-2.56l.22-.24a8.84,8.84,0,0,0,2.29-5.93v-15.38Z"/><path id="_Контур_210" data-name="&lt;Контур&gt;" class="cls-13" d="M1435,1221.14l-.85,17.43a8.84,8.84,0,0,1-3.42,6.56h0a8.84,8.84,0,0,1-9.28.95l-.3-.14a8.84,8.84,0,0,1-4.33-4.66l-5.7-14.28Z"/><path id="_Контур_211" data-name="&lt;Контур&gt;" class="cls-12" d="M1379.26,1076.85a11,11,0,0,0-4.17,9.4,7.94,7.94,0,0,0,3.47,6.11c6.35,4.4,13.26-1.89,13.26-1.89l51.85-51.22a14.88,14.88,0,0,0,9.17-3.36c4.11-3.5,5-17.18-.31-21.1s-9-.45-11,3.69l-4.47,11.34Z"/><path id="_Контур_212" data-name="&lt;Контур&gt;" class="cls-9" d="M1337.31,1153.16s-21,77.75-17.35,100.11c5,.67,25.7,2.34,29.37-3.34-1-10.68,2-54.73,20.36-75.42,11.35,9.34,19,15.69,24.69,24s13.69,31,13.69,31,20.36,1,30.37-9.68c-5.34-9.34-28-72.08-38.71-80.42C1389,1142.14,1337.31,1153.16,1337.31,1153.16Z"/><path id="_Контур_213" data-name="&lt;Контур&gt;" class="cls-12" d="M1327.8,1083.93a11,11,0,0,1,8.08,6.37,7.94,7.94,0,0,1-.22,7c-3.57,6.85-12.61,4.52-12.61,4.52l-69.75-21.14a14.88,14.88,0,0,1-9.68,1.3c-5.27-1.18-12.45-12.87-9.57-18.81s7.77-4.6,11.44-1.87l9.24,8Z"/><path id="_Контур_214" data-name="&lt;Контур&gt;" class="cls-30" d="M1457,1019.1"/><path id="_Контур_215" data-name="&lt;Контур&gt;" class="cls-20" d="M1347.88,1079.16l-24.64,3.75-7.87,27.35,18.5,5.81-.26,38.32s11.89,7.66,37,2.64,33-18.24,33-18.24l-10-33.3,11.1-8.19-16.43-27.8Z"/><g id="_Группа_6" data-name="&lt;Группа&gt;"><path class="cls-31" d="M1378.35,1244.93"/></g><path id="_Контур_216" data-name="&lt;Контур&gt;" class="cls-12" d="M1378.56,1039.25c0-18.05-11.81-32.69-26.39-32.69s-26.39,14.64-26.39,32.69c0,15.38,8.57,28.27,20.12,31.75l-.73,9.18s-4.83,10.54,3.7,10.54,16.44-14.53,16.44-14.53l-1.81-7.42C1372.4,1063.53,1378.56,1052.28,1378.56,1039.25Z"/><path id="_Контур_217" data-name="&lt;Контур&gt;" class="cls-20" d="M1325.37,1031.09s6.69-4.9,19.15-6c12.84-1.09,31.49,1.83,34,14.13,2.92-8.25,6.92-41.57-23.82-41.57S1325.37,1031.09,1325.37,1031.09Z"/><path id="_Контур_218" data-name="&lt;Контур&gt;" class="cls-13" d="M1306.81,1025.62s11.24-13.56,34.43-8.35c3.05,0,19.36,8.69,19.36,8.69s-22.55-5-34.22,6.13C1319,1032.62,1304.11,1026,1306.81,1025.62Z"/><ellipse id="_Контур_219" data-name="&lt;Контур&gt;" class="cls-12" cx="1376.02" cy="1040" rx="6.6" ry="7.66"/><circle id="_Контур_220" data-name="&lt;Контур&gt;" class="cls-32" cx="4393.25" cy="1722.44" r="11.32" transform="translate(750.93 4722.6) rotate(-60.89)"/><circle id="_Контур_221" data-name="&lt;Контур&gt;" class="cls-32" cx="4531.64" cy="1741.14" r="11.32" transform="translate(805.65 4853.1) rotate(-60.89)"/><rect id="_Прямоугольник_10" data-name="&lt;Прямоугольник&gt;" class="cls-13" x="4342.82" y="1677.7" width="245.51" height="54.74" rx="26.97" ry="26.97" transform="translate(275.14 -594.69) rotate(7.86)"/><path id="_Контур_222" data-name="&lt;Контур&gt;" class="cls-14" d="M4436.64,1534.52l-18.24,49.17-3.87,2.88a5.34,5.34,0,0,0-2.09,5.14l1.11,6.82a3.84,3.84,0,0,0,4.22,3.2l6-.68a4.92,4.92,0,0,0,4.32-4.26l1.51-11.72,26-40.25Z"/><polygon id="_Контур_223" data-name="&lt;Контур&gt;" class="cls-9" points="4433.79 1594.16 4429.79 1691.57 4453.87 1694.77 4458.99 1658.76 4465.26 1624.16 4472.79 1659.16 4492.2 1695.17 4515.68 1689.97 4500.39 1651.76 4496.69 1597.38 4433.79 1594.16"/><path id="_Контур_224" data-name="&lt;Контур&gt;" class="cls-20" d="M4434.44,1542.26l-2,55.62c13.66,4.2,43.07-3.68,65.13,4.73.53-15.76,0-50.95,0-50.95l6.83-13.13s-7.88-23.64-32-23.64c-23.41,0-20.6.05-41.81,20.84C4429.45,1536.8,4434.44,1542.26,4434.44,1542.26Z"/><path id="_Контур_225" data-name="&lt;Контур&gt;" class="cls-14" d="M4490.21,1471.23c0-19.18-11.71-34.73-26.15-34.73s-26.15,15.55-26.15,34.73c0,15.22,7.37,28.14,17.63,32.84l-3.68,34.46s16.33-24.11,25.79-23.06c-1-3.55-1.1-9.09-.91-13.86C4484.78,1495.67,4490.21,1484.3,4490.21,1471.23Z"/><g id="_Группа_7" data-name="&lt;Группа&gt;"><path id="_Контур_226" data-name="&lt;Контур&gt;" class="cls-16" d="M4402.88,1705.56s-3.59,9,23.27,7.86,26.28.73,27.9-3.57Z"/><path id="_Контур_227" data-name="&lt;Контур&gt;" class="cls-20" d="M4429.86,1688.88s16.13,5.63,23.52,4.88c4.17,5.5.67,16.09.67,16.09s-42.23,3.79-49.19-1.74c-4.7-3.47-.3-8.27,4.4-9.14S4417.15,1698.19,4429.86,1688.88Z"/></g><g id="_Группа_8" data-name="&lt;Группа&gt;"><path id="_Контур_228" data-name="&lt;Контур&gt;" class="cls-16" d="M4474.16,1719.16s.78,9.59,24.21-3.33,23.74-11,23.27-15.57Z"/><path id="_Контур_229" data-name="&lt;Контур&gt;" class="cls-20" d="M4490.79,1692.32s16.87-2.14,23.12-6.1c6.15,3,7.74,14,7.74,14s-35.94,22.13-44.59,20.29c-5.73-1-3.94-7.23-.14-10.09S4483.6,1706.26,4490.79,1692.32Z"/></g><path id="_Контур_230" data-name="&lt;Контур&gt;" class="cls-14" d="M4483.87,1544.36c13.64,2.49,20.22-6.42,20.22-6.42l11.55,59.94,4.17,7.75a6,6,0,0,1-.58,6.54l-5.07,6.4a3.52,3.52,0,0,1-5.25.29l-8.64-8.73a4.57,4.57,0,0,1-1-4.87l2.51-6.45-5.07-23.08S4480.69,1543.9,4483.87,1544.36Z"/><path id="_Контур_231" data-name="&lt;Контур&gt;" class="cls-9" d="M4425.93,1458.12s21.12,19.64,70.06,26.31c2,2.33,14.18-14.71,0-35.19s-39.39-23.38-55.67-12.74S4425.93,1458.12,4425.93,1458.12Z"/><polygon id="_Контур_232" data-name="&lt;Контур&gt;" class="cls-9" points="4459.81 1469.07 4459.81 1495.07 4473.94 1491.56 4483.97 1473.86 4459.81 1469.07"/><path id="_Контур_233" data-name="&lt;Контур&gt;" class="cls-4" d="M247.27,878.85l41.66-9.1,31-12.3,48.73-10.18A60.31,60.31,0,0,1,381,846h58.77l47.65,23.31,49.13-5.86a8.24,8.24,0,0,1,9.22,8.18h0a8.24,8.24,0,0,1-7.32,8.19l-70,7.86-16.43,17.91a64.16,64.16,0,0,1-55.26,20.29l-20.39-2.55a43.16,43.16,0,0,1-14.86-4.7L320,896.56,247.2,878.75"/><ellipse id="_Контур_234" data-name="&lt;Контур&gt;" class="cls-33" cx="265.31" cy="815.57" rx="65.72" ry="69.37" transform="translate(-591.8 845.84) rotate(-74)"/><path id="_Контур_235" data-name="&lt;Контур&gt;" class="cls-34" d="M357.23,773.56,342,825.11l-25.51-7.31s-8.66.5-11.59,4.68-1.79,6.23-1.79,6.23l44.06,17.37L380,793l40-51-43.25.24Z"/><ellipse id="_Контур_236" data-name="&lt;Контур&gt;" class="cls-33" cx="477.82" cy="803.68" rx="65.72" ry="69.37" transform="translate(-426.42 1041.5) rotate(-74)"/><line id="_Контур_237" data-name="&lt;Контур&gt;" class="cls-35" x1="336.12" y1="713.72" x2="265.31" y2="815.57"/><polygon id="_Контур_238" data-name="&lt;Контур&gt;" class="cls-35" points="429.69 740.55 316.4 742.09 370.87 813.1 477.82 803.68 429.69 740.55"/><path id="_Контур_239" data-name="&lt;Контур&gt;" class="cls-28" d="M442.09,716.82s5.5,22.18-17.95,30-38.79,7.87-38.79,7.87l29.13,42.45L391,825a6.82,6.82,0,0,1-6.48,2.3l-2.8-.53a6.82,6.82,0,0,1-5.24-4.67h0a6.82,6.82,0,0,1,.8-5.76L390.49,796s-37.66-33.42-39.76-50.05,39.79-19.7,39.79-19.7l2.31-13Z"/><path id="_Контур_240" data-name="&lt;Контур&gt;" class="cls-20" d="M397.89,636.39s15.08,2.08,24.89,13.38S449,709.51,446,723.26c-7.35,2.61-55.64-6.52-55.64-6.52l-13.08-54.66Z"/><path id="_Контур_241" data-name="&lt;Контур&gt;" class="cls-14" d="M393.66,654.16s4.95-12.94,16.59-9,5.09,19.24,5.09,19.24-21.19,37.27-34.52,43.13-43.7,2.7-43.7,2.7a18.15,18.15,0,0,0-8.29,6.5C325.17,721.74,320,709,320,709l10-13.17,13,.62L377.28,689Z"/><path id="_Контур_242" data-name="&lt;Контур&gt;" class="cls-14" d="M398.13,636.42l-1.73-9.59a39.33,39.33,0,0,0,3.1-15.46c0-17.64-11-32-24.66-32s-24.71,14.28-24.73,31.92,11,32,24.66,32a19.43,19.43,0,0,0,5.74-.87l-3.17,19.24h0C381.13,661.67,398.13,636.42,398.13,636.42Z"/><path id="_Контур_243" data-name="&lt;Контур&gt;" class="cls-28" d="M349.83,605.15l4.76-21.43s13.23-8.37,27-5.61,15.81,15.07,17.6,26S349.83,605.15,349.83,605.15Z"/><path id="_Контур_244" data-name="&lt;Контур&gt;" class="cls-20" d="M356.08,612.82l12.13-4.16a1.86,1.86,0,0,0,1.38-3.05h0a1.86,1.86,0,0,0-1.21-.66l-17.38-2-21.26,4Z"/><ellipse id="_Контур_245" data-name="&lt;Контур&gt;" class="cls-14" cx="383.57" cy="612.15" rx="7.83" ry="6.19" transform="translate(-310.58 812.17) rotate(-74)"/></g></g></svg>