<svg xmlns="http://www.w3.org/2000/svg" viewBox="0 0 187.16 187.16"><defs><style>.cls-1{fill:#5fdde0;}.cls-2{fill:#ff5365;}.cls-3{fill:#ffefae;}.cls-4{fill:#223c92;}.cls-5{fill:#00c8f6;}</style></defs><title>icon_child</title><g id="Слой_2" data-name="Слой 2"><g id="Слой_1-2" data-name="Слой 1"><circle id="_Контур_" data-name="&lt;Контур&gt;" class="cls-1" cx="93.58" cy="93.58" r="93.58"/><path id="_Контур_2" data-name="&lt;Контур&gt;" class="cls-2" d="M177.34,112.17s1.77,1.7,1,5.27-11.69,10.47-24.87,12.76-63.11,0-63.11,0S79.78,128.91,78,126a8.61,8.61,0,0,1-.75-6.42Z"/><path id="_Контур_3" data-name="&lt;Контур&gt;" class="cls-3" d="M175.89,103.47s2.91,1.2,2.4,10.71c-2.89,4.25-9.34,10.7-26.84,12.23s-59.45-.51-67.77-2.55c-2.67-.65-5.69-1.5-6.61-3.62-.45-1-.29-10.93,2-11.09C82.32,108.92,175.89,103.47,175.89,103.47Z"/><path id="_Контур_4" data-name="&lt;Контур&gt;" class="cls-4" d="M146.73,91.62s15.09,5.7,23.37,7,5.52,7.73,4.6,8.65-14.9,9.75-36.8,9.57-52.07-1.66-58.88-5c-.18-4.78,1.29-34.41,1.29-34.41S76,75.06,79,69.73s9.58,0,9.58,0,7,3.5,13.06,2.39c-2.39-1.84-4.42-5.15-2.39-7.18s11.41-10.49,13.62-10.86,3.86,1.1,5.7,6.07S138.36,88.68,146.73,91.62Z"/><path id="_Контур_5" data-name="&lt;Контур&gt;" class="cls-5" d="M122.35,68.42,106.23,84.68a3.22,3.22,0,0,0,0,4.58l2.58,2.51a3.22,3.22,0,0,0,4.52,0L129.7,75.56a3.22,3.22,0,0,0-.08-4.66l-2.79-2.59A3.22,3.22,0,0,0,122.35,68.42Z"/><path id="_Контур_6" data-name="&lt;Контур&gt;" class="cls-5" d="M134.42,77.89,137,80a3.22,3.22,0,0,1,.77,4L129,99.91a3.22,3.22,0,0,1-4.3,1.32l-3.16-1.63a3.22,3.22,0,0,1-1.33-4.46l9.31-16.37A3.22,3.22,0,0,1,134.42,77.89Z"/><path id="_Контур_7" data-name="&lt;Контур&gt;" class="cls-5" d="M143.46,85.88l3.19,2a3,3,0,0,1,1.28,3.36L144.7,102a3,3,0,0,1-3.9,1.91l-3.7-1.42a3,3,0,0,1-1.75-3.69l3.73-11.33A3,3,0,0,1,143.46,85.88Z"/><path id="_Контур_8" data-name="&lt;Контур&gt;" class="cls-5" d="M101.73,115.44S98.8,96.18,79.65,91.5c-1.05,4.2-1.29,14.93-1.35,19a2.31,2.31,0,0,0,1.59,2.23c2.89.95,9.82,2.68,21.83,2.68"/><path id="_Контур_9" data-name="&lt;Контур&gt;" class="cls-2" d="M105.34,134.17s1.77,1.7,1,5.27S94.66,149.91,81.48,152.2s-63.11,0-63.11,0S7.78,150.91,6,148a8.61,8.61,0,0,1-.75-6.42Z"/><path id="_Контур_10" data-name="&lt;Контур&gt;" class="cls-3" d="M103.89,125.47s2.91,1.2,2.4,10.71c-2.89,4.25-9.34,10.7-26.84,12.23s-59.45-.51-67.77-2.55c-2.67-.65-5.69-1.5-6.61-3.62-.45-1-.29-10.93,2-11.09C10.32,130.92,103.89,125.47,103.89,125.47Z"/><path id="_Контур_11" data-name="&lt;Контур&gt;" class="cls-4" d="M74.73,113.62s15.09,5.7,23.37,7,5.52,7.73,4.6,8.65-14.9,9.75-36.8,9.57-52.07-1.66-58.88-5c-.18-4.78,1.29-34.41,1.29-34.41S4,97.06,7,91.73s9.58,0,9.58,0,7,3.5,13.06,2.39c-2.39-1.84-4.42-5.15-2.39-7.18S38.67,76.46,40.88,76.09s3.86,1.1,5.7,6.07S66.36,110.68,74.73,113.62Z"/><path id="_Контур_12" data-name="&lt;Контур&gt;" class="cls-5" d="M50.35,90.42,34.23,106.68a3.22,3.22,0,0,0,0,4.58l2.58,2.51a3.22,3.22,0,0,0,4.52,0L57.7,97.56a3.22,3.22,0,0,0-.08-4.66l-2.79-2.59A3.22,3.22,0,0,0,50.35,90.42Z"/><path id="_Контур_13" data-name="&lt;Контур&gt;" class="cls-5" d="M62.42,99.89,65,102a3.22,3.22,0,0,1,.77,4L57,121.91a3.22,3.22,0,0,1-4.3,1.32l-3.16-1.63a3.22,3.22,0,0,1-1.33-4.46l9.31-16.37A3.22,3.22,0,0,1,62.42,99.89Z"/><path id="_Контур_14" data-name="&lt;Контур&gt;" class="cls-5" d="M71.46,107.88l3.19,2a3,3,0,0,1,1.28,3.36L72.7,124a3,3,0,0,1-3.9,1.91l-3.7-1.42a3,3,0,0,1-1.75-3.69l3.73-11.33A3,3,0,0,1,71.46,107.88Z"/><path id="_Контур_15" data-name="&lt;Контур&gt;" class="cls-5" d="M29.73,137.44S26.8,118.18,7.65,113.5c-1.05,4.2-1.29,14.93-1.35,19a2.31,2.31,0,0,0,1.59,2.23c2.89.95,9.82,2.68,21.83,2.68"/></g></g></svg>