<svg xmlns="http://www.w3.org/2000/svg" viewBox="0 0 165.19 61.75"><defs><style>.cls-1{fill:#fff;}</style></defs><title>logo_white</title><g id="Слой_2" data-name="Слой 2"><g id="Layer_1" data-name="Layer 1"><path class="cls-1" d="M165.16,29.54a2.84,2.84,0,0,0-.73-1.37c-.14,0-.45.17-.47.36a2.92,2.92,0,0,0-1.7,1.83c-.2.46-1.54,1.95-2.11,1.58s-.47-1.34-.61-1.87a19.19,19.19,0,0,1-.43-3.64,23.77,23.77,0,0,1,0-4c.12-1.32.55-2.65.6-4a1.68,1.68,0,0,0-1.58-2c-1-.16-2.53-.51-3.46.23.38-.39-3.52-2-3.87-2.18a7.65,7.65,0,0,0-2.15-.57,17.1,17.1,0,0,0-2.51.25c-.74.07-1.43.56-2.13.64a18.46,18.46,0,0,0-2.75.35c-.94.26-.63.71.15.7s1.7.19,2.57.26A9.66,9.66,0,0,0,141.12,20,20.48,20.48,0,0,0,140,22.61a13.87,13.87,0,0,1-.49,2.34c-.2.49-1.71.58-2.1.63s-1.42.34-.59.72a10.5,10.5,0,0,0,2.12.33c-.37,1,.35,2-.14,3S136.92,31.23,136,32a7.45,7.45,0,0,1-.81.65c-.29-.21-.32-.83-.36-1.16a35,35,0,0,1-.07-4.12,4,4,0,0,1,.37-2,7.18,7.18,0,0,0,.41-2.22c.12-.81.25-1.63.32-2.44a9.12,9.12,0,0,1,.41-2.78,13.6,13.6,0,0,0,1.21-4.22,27.37,27.37,0,0,1,1.73-5.28c.81-2.21,4-6.49,1-7.82a11.69,11.69,0,0,0-2-.37,3.3,3.3,0,0,0-2.25,0c-1.41.62-1.8,2.13-3.46,2.25a11.13,11.13,0,0,1-2.4-.15c-.66-.09-1.26-.47-1.93-.5a7,7,0,0,0-2.41.52c-.76.26-1.33.89-2.08,1.14a3.72,3.72,0,0,1-2.22.14c-.18,0-1.49-.3-1.49.15s1,.78,1.28.86c.79.19,1.88-.34,2.67-.54a6.69,6.69,0,0,0,2.14-1,3.7,3.7,0,0,1,2.35-.56,8,8,0,0,1,2.18.64,14.76,14.76,0,0,0,2.4.56c-.21.69-.86.71-1.45.79s-2-.16-2.27.25-.21,1,.24,1,1-.31,1.58-.32.93.22,1.42.21c-.28,1,0,4.95-1.78,4.95a4.76,4.76,0,0,0-1.75.13c-.76.3-.17.83.27,1s1.55.1,1.71.63a1.64,1.64,0,0,1-.15.9c-.2.6-.26.54-.82.79s-1.16,1.07-.13,1c.37.5.16,2,0,2.66-1.27-.58-2.27-1.58-3.57-2.14a5.52,5.52,0,0,0-2.24-.27,3,3,0,0,0-1.13.2,1.44,1.44,0,0,0-.71-.14,7.44,7.44,0,0,0-3.84.94c-.33.22-.27.86.17.82A7.42,7.42,0,0,1,120.7,17a13,13,0,0,0-2.49,2.66,15.63,15.63,0,0,1-.94,1.31,3.88,3.88,0,0,0-1.06,1.34c-.35,1.1-.65,2.19-1,3.29a12.93,12.93,0,0,0-.4,4.09c0,.32.13,1.23-.21,1.37a4.91,4.91,0,0,0-1.05.41c-.39.28,0,.61.25.72.72.27.66.32.77,1.11,0,.26.49,2,0,1.88-.29-.07-.35.32-.63.38a6.51,6.51,0,0,1-1.73.24c-.1,0-2-.15-1.46.49.3.34,1.15.19,1.57.15a16,16,0,0,1,5.86.85c1,.3,2.08.54,3.11.86a4.92,4.92,0,0,0,3.4,0c.88-.42,1.13-1.6,1.82-2.27a23.39,23.39,0,0,0,2.24-3,13.06,13.06,0,0,0,.72,2.35c.35.83,1,1,1.78,1.36-.4.23-.89.08-1.3.27s-.51.59-.1.68a20.56,20.56,0,0,0,3,.09,5.33,5.33,0,0,0,3.8-1.14c1.08-.78,1.76-2.07,2.69-3,.23,1.58,2,2.48,3.35,2.71a23.17,23.17,0,0,1,2.67.5,11.89,11.89,0,0,0,2.73,0c1.82.63,2.28-1.37,3.31-2.41.5-.5,1.13-.91,1.34-1.62a9.13,9.13,0,0,1,1.09-2.49c.09.53.43,1,.57,1.47a13.59,13.59,0,0,0,.52,1.66c-.33.12-2.24.67-1.72,1.26.32.37,1.25.1,1.71.14a1.08,1.08,0,0,1,.9.52,7.33,7.33,0,0,1-1.63.38c-.32,0-1.09,0-1.34.26s.35.67.58.7a3.32,3.32,0,0,0,1.5-.27c1-.36,2.41.27,3.41.44a4.35,4.35,0,0,0,3.52-1.15c.36-.4.36-1,.66-1.4s.82-.64,1.13-1.06C164.34,32.26,165.37,30.73,165.16,29.54ZM120,37.69h0Zm5-19.87,0-.11S124.94,17.77,125,17.83Zm-1-2.12-.07,0Zm5.15,6.18a9,9,0,0,1-.3,2.42c-.24.7-1.63.4-1.79,1-.24.94,1.76-.27,1.5.82-.18.74-.89.84-1.42,1.35s.07.71.52.79a11.37,11.37,0,0,1-1.68,2.57c-.68.75-1.16,1.65-1.76,2.45l-.06.16c0,.05,0,.19-.25.45a5.08,5.08,0,0,1-.71-1.54c-.23-.58-.79-1-.66-1.75a9.84,9.84,0,0,0,.43-2.12,5.56,5.56,0,0,1,.52-2.09c.32-.75.89-1.4,1.28-2.12a8.43,8.43,0,0,1,1.31-1.9,8.76,8.76,0,0,1,3.37-2.12A12.34,12.34,0,0,0,129.1,21.89Zm24.37.78c-.12.51,0,.65-.57.81a1.85,1.85,0,0,0-.84.38c-.4.45.48.64.73.68-.22.61-.38,1.67-1,1.89a7.64,7.64,0,0,1-2.39.42.41.41,0,0,0-.2.75,8.34,8.34,0,0,0,2.15.2l-.75,1.46a5.1,5.1,0,0,0-.64,1.18s.32-.33.31-.34l0,.06c0-.06.05-.08,0,0l-.06.11c-.19.3-.14.22-.06.09-.43.63-1.07,1.09-1.53,1.69-.34-.33-.79-.56-1-1s0-1.32-.16-1.93a5.67,5.67,0,0,1,.57-4.41,20.15,20.15,0,0,1,2.13-3.88,9.34,9.34,0,0,1,3.57-2.56A25.15,25.15,0,0,1,153.46,22.67Z"/><path class="cls-1" d="M123.78,32.44c-.78,0-.18,1,0,1.3a.25.25,0,0,0,.07.19,1.64,1.64,0,0,0,.25-.45.05.05,0,0,0,0,0l.1-.14C124.31,32.89,124.28,32.43,123.78,32.44Z"/><path class="cls-1" d="M150.13,30.27l.06-.11v0l-.14.21Z"/><path class="cls-1" d="M59.06,37.89c.06-.06.2-.23.39-.48S58.85,37.54,59.06,37.89Z"/><path class="cls-1" d="M39.57,34.31h0Z"/><path class="cls-1" d="M72,21.38c0-.49-1.1-1-1.42-1.15-.57-.33-1.14-.85-1.87-.69a10.88,10.88,0,0,0-2.18,1.1,25.3,25.3,0,0,1-2.13-1.87,5.9,5.9,0,0,0-2.58-1.16,5.12,5.12,0,0,0-2.71,0c-.66.18-.93.7,0,.6a24.44,24.44,0,0,1-4,1.53A11.14,11.14,0,0,1,53,20c-.82.1-1-.19-1.69-.39-.33-.09-.91-.06-.95.43s1.07.52,1.38.59a20.91,20.91,0,0,0,4.18-.05,22.32,22.32,0,0,0-3.41,4.63c-1.11,1.88-1.38,3.95-1.89,6a10.16,10.16,0,0,0-.42,2.92c0,.66-.07.72-.7,1-.41.15-.82.28-1.23.47-.19.09-2,.43-1.36.73a3.53,3.53,0,0,0,1.33,0l.72,0c0,.18.09.39.32.38a13.17,13.17,0,0,1-2.25,1.74c-.74.43-1.28,1.21-2,1.58a16.19,16.19,0,0,1-2.82.71c-1.06.29-1.87-.71-2.38-1.47s-.54-1.08.33-1.73S42,36.38,42.8,35.67a27,27,0,0,0,4.1-3.73,14.94,14.94,0,0,0,1.69-2.68,3.57,3.57,0,0,0,.15-1.33c0-.49.24-1,.3-1.47a9.72,9.72,0,0,0-1.4-5.91,13.75,13.75,0,0,0-1.85-2.23,2.71,2.71,0,0,0-2.54-.83,11.62,11.62,0,0,0-2.75.44c-.22.08-2.4.79-2.1,1.12-1.65.09-3.24.4-4.87.59-.52.06-.25.32,0,.47a1.58,1.58,0,0,0,1.55.14,12.06,12.06,0,0,1,3.17.08c-.33.33-.63.68-.93,1s-.48.29-.94.34a1.41,1.41,0,0,0-.74.22.32.32,0,0,0-.13.26,2.16,2.16,0,0,0-1,.16c-.95.44.16.65.57.68.59,0,.25.29.53.25-.64.1-1.54,2.54-1.87,3-1,1.54-1.13,3.28-1.91,4.88a2.69,2.69,0,0,1-1.28,1.3c-.41,0-1,.15-1.25.6s.41.61.68.68c.58.15,1-.33,1.12.42a7.93,7.93,0,0,1,0,4,2.94,2.94,0,0,1-1.61,1.36,7.83,7.83,0,0,0-1.91,1.35c-.11.1-1,1.05-1.09,1s-.09-.85-.08-1c.12-1.32-.25-2.45-.1-3.77.09-.78-.13-1.52-.07-2.3a11.24,11.24,0,0,1,.33-2.17,15.09,15.09,0,0,0,.86-4.73c-.13-1.54.61-3.26,1-4.8a8.92,8.92,0,0,1,.78-2.22A10.81,10.81,0,0,0,30,18.18c.2-.85.42-1.67.69-2.5s.67-1.3.92-2a38.37,38.37,0,0,1,1.55-4.45c.72-1.39,1.21-2.24.57-3.71s-2.67-1.18-4-1.34a4.56,4.56,0,0,0-3.88,1.51,12.33,12.33,0,0,0-1.22,1.63,5.35,5.35,0,0,0-.45,2.08c-.25,1.2-.5,3.09-1.5,4-.55.49-1.94-.19-2.3.61s1.49.43,1.82.56c1.29.5,0,2.25-.4,3-.23.5-.81.48-1.24.44-.86-.08-1,.11-1.64.57-.74.91,2.28.39,2.7.44-.17.73-.23,3-1.31,3-1.44,0-2.89.13-4.33.18s-3.08-.15-4.65-.05a13.57,13.57,0,0,0-2.08.62,6.35,6.35,0,0,0-2.59.88c-.3.21-1.09.37-1.11.78,0,.6,1,.56,1.37.5,1.41-.21,2.38-1.24,3.79-1.44a31.84,31.84,0,0,1,4.86-.36,46.71,46.71,0,0,0,5.2.09c-.25,1.18-.36,2.92-1.49,3.7-1.55,1.06-2.62.71-4.29.72-.42,0-2.37-.3-2.13.6.16.58,1,.49,1.49.61a4,4,0,0,0,2.23-.08c.88-.27,3.29.12,3.08,1.44-.11.69-.51,1.31-.61,2-.45.15-1.1.46-1,1.05.05.37.56.39.85.42a18.12,18.12,0,0,0,.06,2.09c0,.45.12,1-.22,1.42a4.2,4.2,0,0,1-2,.86c-.63.16-.62.32-1.2.39s-1.38-.23-2,0a5.19,5.19,0,0,1-2.15.44,18,18,0,0,0-2.5,0c-.52.08-1-.1-1.6-.06-.3,0-3.12.44-2.21,1,1.33.81,2.88-.05,4.3,0a19.45,19.45,0,0,0,2.42-.1c.7-.06,1.34-.43,2.06-.48a5.53,5.53,0,0,1,2.22.05c.7.24,1.38.52,2,.82.47.21.68.12.75.68.05.39.11.77.19,1.15a10.54,10.54,0,0,0,.89,2.24,4.25,4.25,0,0,0-1.44.65c-.67.58.46.75.82.73s1.2-.25,1.43,0A5,5,0,0,0,23.05,47a9.56,9.56,0,0,0,2.81.5c1,0,2-1,2.78-1.53a11.74,11.74,0,0,0,1.92-2.15c.71-.76,1.36-1.59,2.09-2.33a10.5,10.5,0,0,0,3.16,3.13,5.19,5.19,0,0,0,2.35.41,30.74,30.74,0,0,0,3.21-.2c1.88,0,3.14-.78,4.73-1.84a28.45,28.45,0,0,0,4.29-3.58c.6.83,2,1.23,2.83,1.75.45.27.91.54,1.36.79a11.82,11.82,0,0,0,1.74.48c-.25.17-.53.74-.09.82s.84-.22,1.17-.38.6,0,1,0c.64,0,1-.35,1.51-.7.34-.23.72-.38,1-.63a4.77,4.77,0,0,0,1-1.41,29.69,29.69,0,0,1,2.33-3c-.1.71,0,1.4-.17,2.11a16.36,16.36,0,0,0-.32,1.8,9.56,9.56,0,0,1-.83,4.2c-.71,1.2-2.12,1.37-3.33,1.39-1.48,0-3-.07-4.47-.17-1.17-.08-2.05-.64-3.27-.53-.9-.71-1.46-1.61-2.84-1.38a1.67,1.67,0,0,0-1.07.74c-.2.29-.32,1.25.29,1,.34-.16.53-.53.92-.59a2.1,2.1,0,0,1,1.72.58c.52.66-.78.47-1.1.49a13.78,13.78,0,0,0-1.84.51c-1.4.26-2.76.59-4.16.89A13.47,13.47,0,0,0,42,49a16.94,16.94,0,0,0-2.14.62,12,12,0,0,1-4.06,1c-1.28.16-2.6,0-3.88,0-.25,0-3.26.35-1.95,1,.93.45,2.58.06,3.63,0,.36.24,1.05,0,1.45-.09a11.08,11.08,0,0,1,2.08,0,24.43,24.43,0,0,1-2.4,1.71c-.26.15-.77.24-.88.56a.38.38,0,0,0,.49.5,2.64,2.64,0,0,0-.69,2.86,9.2,9.2,0,0,0,1.16,1.48c.4.47.57,1.07,1,1.54-.39.05-1.11,0-1.22.52s.85.3,1.17.25c.76-.13.88.18,1.41.57a1.79,1.79,0,0,0,2-.06A5.68,5.68,0,0,0,40.73,60a9.57,9.57,0,0,1,1.13-1.68,34.3,34.3,0,0,1,4.2-3.15,6.42,6.42,0,0,1,2-.85c.68-.21,1.24-.68,1.91-.9a10.63,10.63,0,0,1,2.52-.61c.94-.07,1.63-.63,2.52-.76.72-.11,1.42.06,2.14-.05a11.56,11.56,0,0,1,2.55-.13c1.42.08,3.07-.11,3.74-1.6a13.33,13.33,0,0,1,1-1.9c.35-.54.43-1.2.79-1.73s1-.64,1.47-.9a9,9,0,0,0,2.12-1.49,6.08,6.08,0,0,0,1.8-3.92c0-.82.12-1.62.23-2.44S70.73,36,71,35.08a4,4,0,0,0,.12-2,9.73,9.73,0,0,1,.12-2.35c0-.71.45-1.34.49-2.07.05-.89,0-1.79,0-2.68C71.89,24.45,71.93,22.91,72,21.38ZM39.72,19.12h0Zm-.53,15.53a5.37,5.37,0,0,1,.43-.37l-.05,0-.39.28h0l.39-.28c-.12.07-.37.27-.39.29-.57.41.07-2.27.19-2.57a16.12,16.12,0,0,1,1.18-3c.4-.63,4.19-5.55,4.81-3.79.28.79-.09,1.31-.6,2-.16.2-.3.31-.25.58.13.83.17,1-.46,1.67a31.11,31.11,0,0,1-2.27,2.74,13.82,13.82,0,0,0-1.07,1.22C40.26,33.91,39.66,34.2,39.19,34.65Zm26.46-7.47c-.2.78-.06,2.34-1,2.39-.36,0-1.51,0-1.53.55s1.15.41,1.5.56A15.66,15.66,0,0,1,62,34.3c-.84.86-2,2.35-2.57,3.12a2,2,0,0,1-.39.48c-1.51-2.53-.69-6.12,1-8.63.79-1.2,1.81-2.23,2.59-3.45.9-1.41,2-1.67,3.47-2.06A26,26,0,0,1,65.65,27.18Z"/><path class="cls-1" d="M66.57,20.64c.44-.21-.45-.33,0,0Z"/><path class="cls-1" d="M116.66,38.21c-.57.5-1.91.41-2.6.44-.91,0,1.12.61,1.49.59a17.25,17.25,0,0,1-2.62.71,3.3,3.3,0,0,1-2.74-1.22C109.73,38,110,36,110,35.42s.4-.86.55-1.47c.1-.42.14-.82.21-1.25s.17-1.09.3-1.63c.28-1.11.07-2,.75-3,.53-.78.43-1.58.9-2.49.56-1.1.43-2.11.86-3.27a17.86,17.86,0,0,1,1.38-2.9c.32-.54,1.37-2.12,1.1-2.7a5.2,5.2,0,0,0-1.69-1.8,4.09,4.09,0,0,0-2.94-.31,5.85,5.85,0,0,0-2.63.82c-.93.58-1.28,1.56-2.47,1.65-.49,0-1.95-.39-2,.45s1.5.61,2.06.74c-.31.39-.51.85-.81,1.25-.41-.07-1.14,0-.76.54s-1.11,2-1.48,2.36a18.91,18.91,0,0,0-2,3c-.4.59-.63,1.25-1,1.86s-.68.92-.94,1.43c.15-1.49.38-3,.5-4.46A19,19,0,0,1,101,19.92c.33-1,1.12-2.6.74-3.55-.55-1.35-2.57-.88-3.69-1a7,7,0,0,0-1.64-.18c-.49.08-.59.49-1.06.44-1.26-.14-2.68.49-4,.56a2.91,2.91,0,0,0-1.27.24c-.68.38,0,.73.43.65a16.68,16.68,0,0,1,4.05-.25c-.45,1-1.35,1.33-2.26,1.74-.3.14-.63.34-.54.71s.75,0,1,.11.06.24.13.34a.65.65,0,0,0,.28.2A7.25,7.25,0,0,0,93,21.08a20.62,20.62,0,0,1-.57,4.09c-.32,1.16.16,2.49-.32,3.6-.16.37-.52.61-.71,1s-.11.57-.65.57c-.31,0-1.37-.09-1.53.33-.25.66,2.14.62,2.5.78a22,22,0,0,1-5.55,4.86A3.5,3.5,0,0,1,81,34.64a25.17,25.17,0,0,1,2.65-2.15,7.45,7.45,0,0,0,1.23-1.6,7.38,7.38,0,0,1,1.52-1.19,13,13,0,0,0,1.48-1.42,13.7,13.7,0,0,0,1-1.85,8.71,8.71,0,0,0,1-2.11c.24-.71-.05-1.21,0-1.91a2.87,2.87,0,0,0-.27-2.14,17.41,17.41,0,0,1-1.07-1.55,4.63,4.63,0,0,0-1.38-1.28A15.61,15.61,0,0,1,86,16.07c-1.19-1.16-2.38-.9-3.95-.43-.61.18-3.32,0-3.15,1.08a23.18,23.18,0,0,0-2.52.06,20.45,20.45,0,0,0-3,.3c-.6.19-1.22.69-.41,1.06a2.08,2.08,0,0,0,1.12.09s.62-.15.51-.19c.65.23,1.51-.4,2.1-.13s1.54,0,2.24,0c-.36.35-.61.8-1,1.13a2.7,2.7,0,0,1-1.51.4c-.21,0-1.41.36-.72.72.31.17.71-.07,1-.11a16.48,16.48,0,0,0-2.38,4c-.34.8-.47,1.58-.74,2.39a13.4,13.4,0,0,0-.78,2.54,18.26,18.26,0,0,0-.34,2.62c0,.81.36,1.56.42,2.38a9.94,9.94,0,0,0,.48,2.37c.24.73.89,1.07,1.3,1.67a5.21,5.21,0,0,0-1.28.06c-.48.11-.73.67-.12.78s1-.19,1.62.17a15.12,15.12,0,0,1,1.35.89c-.69.11,0,.74-.7.91s-2.54-.18-2.9.54c-.51,1,2.69.34,2.95.24a9.82,9.82,0,0,1,3.78-.26c1.19,0,2.19.69,3.48.12.47-.21.83-.62,1.31-.79.69-.24,1.37-.08,2-.54,1.15-.83,2.25-1.72,3.45-2.49a15,15,0,0,0,2.85-3c.06,1.07.13,2.18.24,3.23-.31,0-1.09,0-1.2.46-.07.25.09.6.39.56a2,2,0,0,1,1.74.51c.75.5,1.91.47,2.77.77,1,.36,1.83-.46,2.4-1.33A6.43,6.43,0,0,0,99.48,36a15.7,15.7,0,0,1,1.06-3.3,22.4,22.4,0,0,1,1.39-3.09,18.48,18.48,0,0,1,2.18-2.69c-.08,1.65-.32,2.83-.27,4.36a16.53,16.53,0,0,1-.24,2.06c-.48-.17-.91,1.18-.14.92a4.37,4.37,0,0,0,0,2.14c.14.47.09,1.74.27,2.35-.24,0-1.07.13-.93.54.09.26.47.42.72.47a1,1,0,0,1,.84.6c-.81.33-1.67.43-2.48.75a6.45,6.45,0,0,1-2.84.17c.24,0-.26.08-.28.08L98,41.5c-.28,0-.55.52-.31.72a1.66,1.66,0,0,0,1.29.12,26.05,26.05,0,0,1,3.21-.63c1.29-.06,2.37-.62,3.4.32-.57.22-1.62,0-2.06.49s.31.6.7.57c.7,0,1.4-.23,2.1-.25,1,0,1.62.76,2.66.76a32.36,32.36,0,0,0,3.34,0c1.15-.12,2-.91,3.14-1.17a5.1,5.1,0,0,0,2.73-1.8C119.17,39.51,117.58,38.76,116.66,38.21ZM85.48,21.63a.05.05,0,0,0,0,0A0,0,0,0,1,85.48,21.63Zm-5,6.87a35.59,35.59,0,0,1,2.09-3.93,3.47,3.47,0,0,1,1.66-1.46,8.9,8.9,0,0,0,1.05-1.17c-.2.17-.35.3,0,0v0l.24-.2c.09-.08.07-.06,0,0,1-.83.93.85.88,1.27a2.92,2.92,0,0,1-1.67,2.2c-.31.18-1.45.65-1.46,1.08s1.23.37,1.52.54a7.35,7.35,0,0,1-1.63,2,8.76,8.76,0,0,0-1.75,1.57C79.73,32.39,80,29.62,80.48,28.5Z"/><path class="cls-1" d="M85.63,21.46l-.26.21h0l.26-.21Z"/><path class="cls-1" d="M13.79,33.79c.33,0,.66-.55.43-.81s-.94.12-1.22.2-1.16.57-.49.77C12.92,34.06,13.37,33.81,13.79,33.79Z"/><path class="cls-1" d="M11.74,13.89c.62,0,1.37-1.14.52-1.09C11.64,12.83,10.89,13.93,11.74,13.89Z"/><path class="cls-1" d="M45.78,35.62c-.52,0-.55,1,0,1S46.3,35.59,45.78,35.62Z"/><path class="cls-1" d="M27.52,51.32c-.52,0-.55.84,0,.81S28,51.29,27.52,51.32Z"/><path class="cls-1" d="M32.35,60.38c-.52,0-.55,1.08,0,1S32.87,60.35,32.35,60.38Z"/><path class="cls-1" d="M27.69,56.9c-.62,0-1.32-.27-1.9.17s-.15,1,.35,1a2,2,0,0,0,1.4-.4C28,57.65,28.28,56.87,27.69,56.9Z"/><path class="cls-1" d="M70.35,18.37c.61,0,1.29-1.28.47-1.23C70.21,17.17,69.53,18.42,70.35,18.37Z"/><path class="cls-1" d="M61.71,30c-.52,0-.54.72,0,.69S62.23,30,61.71,30Z"/><path class="cls-1" d="M95.27,41.89s.27.19.19.25l-.19,0h0c-.44,0-.81-.37-1.29-.31s-.76.51-.43,1a1.08,1.08,0,0,0,1.57,0C95.32,42.64,95.93,41.84,95.27,41.89Z"/><polygon class="cls-1" points="94.62 42.38 94.62 42.38 94.62 42.38 94.62 42.38"/><path class="cls-1" d="M100.7,40.15l.19-.1-.19.1Z"/><path class="cls-1" d="M100.88,40Z"/><path class="cls-1" d="M101.48,39.61c.69-.38.08-.77-.3-.27s0,.85.47.62c0,0-.35-.24-.17-.35h0Z"/><path class="cls-1" d="M15.89,45c.36,0-.4-.09,0,0Z"/><path class="cls-1" d="M15.89,45c-.83-.18-1.57.22-.47.55a1,1,0,0,0,.86,0C16.53,45.28,16.17,45,15.89,45Z"/><path class="cls-1" d="M16.13,19.32c.52,0,.55-1,0-1S15.61,19.35,16.13,19.32Z"/><path class="cls-1" d="M2.6,27.88a1.41,1.41,0,0,0,.21-.12H2.6c-.73.1-1.47-.25-2.19.13S0,29.1.71,29.1a14,14,0,0,0,1.88-.28C3.08,28.75,3.14,27.81,2.6,27.88Z"/><path class="cls-1" d="M2.79,27.75Z"/><path class="cls-1" d="M2.79,27.75l-.19,0h0Z"/><path class="cls-1" d="M5.4,34.53h0l.18,0h0Z"/><path class="cls-1" d="M5.33,34.59l.07-.06s-.06,0,0,0a.28.28,0,0,1,.18,0h0c1.56-.29,3.31.32,4.78-.56.59-.35.56-.83-.08-1a6.65,6.65,0,0,0-2.63.17c-1.19.21-3.81-.31-4.65.94-.2.29-.15,1.12.29,1.12a12.48,12.48,0,0,0,2.3-.52A.62.62,0,0,1,5.33,34.59Z"/><path class="cls-1" d="M111.8,32.08c.52,0,.54-.6,0-.57S111.27,32.11,111.8,32.08Z"/><path class="cls-1" d="M127.51,6.15c-.15,0,.57,0,0,0Z"/><path class="cls-1" d="M127.35,5a.62.62,0,0,0-.15.84s.51.27.31.29C128.2,6.13,128,4.62,127.35,5Z"/><path class="cls-1" d="M125,11.6c.79,0,.26-1.06-.35-1C123.86,10.62,124.4,11.63,125,11.6Z"/><path class="cls-1" d="M45.65,45.36c-.65,0-.44,1.21.13,1.17S46.22,45.33,45.65,45.36Z"/><path class="cls-1" d="M139.16,16.37c.76,0,.3-.93-.3-.89C138.11,15.52,138.56,16.4,139.16,16.37Z"/><path class="cls-1" d="M128.14,37c-.6,0-1.17,1.06-.39,1C128.35,37.94,128.92,36.92,128.14,37Z"/><path class="cls-1" d="M150.75,23.89c-.57,0-.83.74-.18.71S151.4,23.85,150.75,23.89Z"/><path class="cls-1" d="M151.43,35.86c-.52,0-.54.54,0,.51S152,35.83,151.43,35.86Z"/><path class="cls-1" d="M89.37,48.81c0-.15,0-.3-.2-.35a.29.29,0,0,0-.33.13c0,.08,0,.2,0,.27a.28.28,0,0,0-.17.28v.47c0,.06-.13.14-.13.24v.75c0,.11.07.35-.06.35s-.82,0-.81-.14l0-.54c0-.18,0-.38-.25-.39s-.23-.09-.37,0a.4.4,0,0,0-.2.32c0,.13,0,.27,0,.4v.26c0,.14,0,.1-.18.11a.31.31,0,0,1-.35-.18,1.09,1.09,0,0,1-.12-.4,6.91,6.91,0,0,1,0-1c0-.24.13-.87-.16-1-.09-.28-.39-.17-.56,0a.88.88,0,0,0-.29.7,6,6,0,0,0,.12,1.09,5.29,5.29,0,0,1,.15.82,1,1,0,0,0,0,.47c.11.18.33.14.51.15a4.9,4.9,0,0,1,1.11.17.51.51,0,0,0,.36-.09h1.23c.13,0,.32,0,.44,0a.28.28,0,0,0,.11-.14l.12,0c.24-.1.16-.53.16-.74V49.57c0-.19.08-.62-.1-.75C89.37,48.79,89.44,48.86,89.37,48.81Z"/><path class="cls-1" d="M94.65,48.67a.28.28,0,0,0-.28-.22c-.13,0-.18.1-.29.12s-.32.44-.45.61a2.27,2.27,0,0,1-1.38.85V48.69a.27.27,0,0,0-.13-.25.3.3,0,0,0-.22,0,.28.28,0,0,0-.13.08l-.13,0c-.29,0-.25.29-.28.48a11.6,11.6,0,0,0-.08,1.33c0,.25-.1.87.15,1a.29.29,0,0,0,.17,0,.27.27,0,0,0,.12.13.39.39,0,0,0,.39,0c.15-.11.11-.35.11-.51s0-.16,0-.19c.22,0,.42-.14.63-.19s.55.57.73.7.42.63.69.32-.11-.39-.09-.61-.12-.24-.19-.38l-.13-.26c-.09-.16-.11-.15,0-.26a2.61,2.61,0,0,0,.65-.73c.09-.15.27-.39.18-.57a.27.27,0,0,0-.09-.11S94.74,48.73,94.65,48.67Z"/><path class="cls-1" d="M98.8,48.82a4.58,4.58,0,0,0-.54-.21l-.33-.07c-.11,0-.17-.11-.29-.11a1.53,1.53,0,0,0-1.19.49,1.57,1.57,0,0,0,.3,2.26,1.63,1.63,0,0,0,1.18.37A1.93,1.93,0,0,0,99.08,51a1.34,1.34,0,0,0-.27-2.2Zm0,1.4a1.16,1.16,0,0,1-1.32.69c-.35-.11-.55-.78-.53-1.13.05-1.15,2.07-.5,1.85.44Z"/><path class="cls-1" d="M101.11,51.53c.5.33.5-.79.56-1a2.42,2.42,0,0,1,.32-.74,1.84,1.84,0,0,1,.77-.52,5.54,5.54,0,0,0,.18,1.05,3.15,3.15,0,0,0,.22,1c.1.17.15.41.42.3a.56.56,0,0,0,.23-.54l0-.21c0-.13,0-.12.06-.25a1.07,1.07,0,0,0,0-.29l-.07-1.12c0-.21,0-.64-.2-.75a.46.46,0,0,0-.31,0,.31.31,0,0,0-.32-.19,1.92,1.92,0,0,0-.82.15,2,2,0,0,0-1.07,1.2,2.39,2.39,0,0,0-.24,1c0,.24,0,.82.3.87C101.15,51.56,101,51.52,101.11,51.53Z"/><path class="cls-1" d="M108.33,48.74a.29.29,0,0,0-.22-.26.44.44,0,0,0-.19,0c-.1,0-.07,0-.14-.1s-.65-.05-.87,0a2,2,0,0,0-1.24,1.2,3,3,0,0,0-.27,1.08c0,.35,0,.79.37.9s.37-.38.4-.61.19-.1.31-.11l1.09-.07c.09,0,.07.13.08.2l.07.3s.08.15.08.14a.28.28,0,0,0,.52.12.83.83,0,0,0,.07-.53.78.78,0,0,1,0-.22.28.28,0,0,0,.08-.24l-.07-1Zm-.93,1.32a1.85,1.85,0,0,1-.37,0,.28.28,0,0,0-.19.05h-.44a1.66,1.66,0,0,1,1-.87,3,3,0,0,0,.15.81Z"/><path class="cls-1" d="M102.4,54.37a5,5,0,0,0-.57-.23l-.35-.07c-.12,0-.18-.11-.31-.12a1.62,1.62,0,0,0-1.26.52,1.67,1.67,0,0,0,.32,2.4,1.73,1.73,0,0,0,1.25.39,2.05,2.05,0,0,0,1.22-.56,1.43,1.43,0,0,0-.29-2.33Zm0,1.49a1.23,1.23,0,0,1-1.4.73c-.38-.11-.58-.83-.56-1.2.05-1.23,2.2-.53,2,.47Z"/><path class="cls-1" d="M117,51.59c.53.35.53-.84.6-1.09a2.57,2.57,0,0,1,.34-.79,2,2,0,0,1,.82-.55,5.89,5.89,0,0,0,.19,1.12,3.35,3.35,0,0,0,.23,1.1c.1.18.16.44.44.32a.59.59,0,0,0,.25-.57l0-.22c0-.14,0-.12.06-.26a1.13,1.13,0,0,0,0-.31l-.08-1.18c0-.22,0-.69-.21-.8a.49.49,0,0,0-.33,0,.33.33,0,0,0-.34-.2,2,2,0,0,0-.87.16A2.16,2.16,0,0,0,117,49.6a2.54,2.54,0,0,0-.26,1.06c0,.26,0,.88.32.92C117.09,51.62,116.92,51.57,117,51.59Z"/><path class="cls-1" d="M114.67,48.23c-.2-.19-.4,0-.45.2-.09.37-.14.75-.21,1.13a1.9,1.9,0,0,1-1.06-1.21.25.25,0,0,0-.23-.17.21.21,0,0,0-.11-.16.28.28,0,0,0-.38.18,1.79,1.79,0,0,0,.39,1.27,2.42,2.42,0,0,0,1.17.89,1.84,1.84,0,0,1-.84,1c-.1.05-.18.13-.29.13a.71.71,0,0,0-.29,0,.26.26,0,0,0-.11.33c.13.31.72.19,1,.13a1.9,1.9,0,0,0,.88-.52,3.67,3.67,0,0,0,.85-1.8,8.57,8.57,0,0,0,.15-1c0-.13.07-.34,0-.46a.27.27,0,0,0-.41,0C114.55,48.11,114.8,48,114.67,48.23Z"/><path class="cls-1" d="M122,51.43a.87.87,0,0,0,.76-.45l.37-.5a.33.33,0,0,0,.19-.14l.68-.83a5.44,5.44,0,0,0,0,.84,3.4,3.4,0,0,1,.1.79.46.46,0,0,0,0,.41c.17.21.42.1.53-.1a1.32,1.32,0,0,0,.12-.3,1.42,1.42,0,0,1,.12-.27,1.45,1.45,0,0,0,0-.49,10.43,10.43,0,0,1,.1-1.73.33.33,0,0,0-.4-.37c-.1,0-.18,0-.28,0a.27.27,0,0,0-.28-.06c-.15.06-.25.26-.34.38a1,1,0,0,1-.24.28.4.4,0,0,0-.12.12c-.26.38-.54.72-.82,1.08q0-.49-.08-1c0-.17-.05-.35-.06-.52a.54.54,0,0,0-.11-.41c-.15-.14-.36-.38-.58-.15s-.06.33-.06.48c0,.51-.05,1,0,1.55C121.6,50.4,121.49,51.43,122,51.43Z"/><path class="cls-1" d="M92.9,54a.32.32,0,0,0-.22,0,.27.27,0,0,0-.23-.07.44.44,0,0,0-.26.23,4,4,0,0,1-.42.48,1.32,1.32,0,0,0-.15.21c-.23.34-.48.63-.73,1,0-.57-.12-1.13-.15-1.69,0-.38-.78-.68-.75-.15,0,.81-.06,1.63,0,2.45,0,.18,0,.47.12.61a.54.54,0,0,0,.52.07.56.56,0,0,0,.23-.17c0-.08.12-.1.17-.18s.29-.51.48-.6.31-.33.42-.47l.39-.48a5.45,5.45,0,0,0,0,.95,2.69,2.69,0,0,1,.07.78c0,.2.05.43.29.43s.36-.32.41-.51a1.63,1.63,0,0,0,.14-.51c0-.29,0-.59,0-.88a9,9,0,0,1,.09-1c0-.24-.13-.61-.44-.44C92.83,54,93,54,92.9,54Z"/><path class="cls-1" d="M131.53,51.69c.09,0,.15-.06.24-.05a.32.32,0,0,0,.27-.11c.17-.2.07-.73.07-1,.14,0,.3,0,.44,0l.64,0h.33q0,.16,0,.32a5.61,5.61,0,0,0,.11.63c.06.26.37.65.6.27a1.55,1.55,0,0,0,.2-.78,10.79,10.79,0,0,1,.08-1.78c0-.18.08-.37-.09-.5s-.26,0-.4-.06c-.38-.08-.41.43-.45.68a1.88,1.88,0,0,1-.06.39,3,3,0,0,1-.38,0c-.36,0-.72,0-1.09,0a7.57,7.57,0,0,1-.13-1.05c-.08-.24-.53-.58-.71-.23a1.12,1.12,0,0,0,0,.51c0,.3,0,.62,0,.92s0,.77,0,1.15S131.17,51.69,131.53,51.69Z"/><path class="cls-1" d="M139.16,51.53a.25.25,0,0,0,.46.09,1.82,1.82,0,0,0,.2-.9c0-.36,0-.72,0-1.08q0-.28.06-.55c0-.15.08-.32,0-.44a.29.29,0,0,0-.25-.09l-.09,0a.28.28,0,0,0-.16,0c-.3,0-.3.59-.33.81a5.39,5.39,0,0,0,0,1,3,3,0,0,0,.18,1.11C139.21,51.75,139.15,51.52,139.16,51.53Z"/><path class="cls-1" d="M126.78,49.9a1.67,1.67,0,0,0,1.7.39c0,.27,0,.54,0,.8a1.08,1.08,0,0,0,.08.56c.13.19.48.34.66.14a.37.37,0,0,0,.06-.31c0-.1.06-.19.06-.3,0-.73,0-1.46,0-2.2a2.54,2.54,0,0,0,0-.42c-.05-.29-.56-.32-.69-.09a1.41,1.41,0,0,0-.08.55q0,.16,0,.33l-.27.13a.81.81,0,0,1-.91-.21c-.09-.11,0-.35,0-.48,0-.29,0-.62-.3-.75s-.68.16-.54.46a.86.86,0,0,1,0,.45,1.07,1.07,0,0,0,.08.56,1.36,1.36,0,0,0,.23.37Z"/><path class="cls-1" d="M144.1,51.24l-.16-.17a.26.26,0,0,0-.06-.17c-.14-.16-.27-.33-.42-.49l-.22-.25q-.15-.08,0-.17l.14-.17c.17-.2.33-.4.5-.59s.27-.25.19-.43-.2-.29-.35-.26-.38.32-.51.45l-.51.55c-.24-.28-.49-.54-.71-.83s-.44-.35-.65-.07.29.68.43.87l.33.42c.09.11.17.12.07.25l-.2.25a2,2,0,0,0-.59.68c-.08.16,0,.56.19.6a.29.29,0,0,0,.25-.07,1.17,1.17,0,0,0,.14-.19.22.22,0,0,0,.15-.08l.6-.72a8.87,8.87,0,0,0,.8.95c.23.2.95,0,.61-.34Z"/><path class="cls-1" d="M138.12,51.7a1,1,0,0,0,.56-.89c0-.44-.5-.7-.87-.8a2.23,2.23,0,0,0-.69-.06c-.16,0-.1-.05-.12-.19s0-.26,0-.39,0-.47-.09-.62-.2-.26-.34-.27c-.39,0-.25.6-.27.83a13.13,13.13,0,0,0,0,1.62c0,.32-.07.93.39.89l.68-.06a3,3,0,0,0,.82-.08Zm-1.05-.44q0-.35,0-.7c.3,0,.68,0,.79.36s-.58.33-.78.34C137.07,51,137.11,51.26,137.06,51.26Z"/><path class="cls-1" d="M123.32,54.32a5,5,0,0,0-.57-.23l-.35-.07c-.12,0-.18-.11-.31-.12a1.62,1.62,0,0,0-1.26.52,1.67,1.67,0,0,0,.32,2.4,1.73,1.73,0,0,0,1.25.39,2.05,2.05,0,0,0,1.22-.56,1.43,1.43,0,0,0-.29-2.33Zm0,1.49a1.23,1.23,0,0,1-1.4.73c-.38-.11-.58-.83-.56-1.2.05-1.23,2.2-.53,2,.47Z"/><path class="cls-1" d="M114,56.35c-.22-.15-.52.11-.75.15a.62.62,0,0,1-.73-.34,1.42,1.42,0,0,1-.2-1.14.71.71,0,0,1,.56-.4.82.82,0,0,1,.44,0c.14.05.31.2.47.18a.37.37,0,0,0,.2-.59,1.28,1.28,0,0,0-.8-.3c-.18-.22-.63-.09-.85,0a1.49,1.49,0,0,0-.72.55,1.67,1.67,0,0,0-.07,1.75,2,2,0,0,0,1.52.93,1.8,1.8,0,0,0,.95-.23.37.37,0,0,0,0-.6Z"/><path class="cls-1" d="M136.71,54.23a.3.3,0,0,0-.24-.28.46.46,0,0,0-.2,0c-.11,0-.07,0-.15-.11s-.69-.06-.92,0a2.11,2.11,0,0,0-1.31,1.27,3.19,3.19,0,0,0-.29,1.14c0,.37,0,.84.4,1s.4-.4.43-.65.2-.1.33-.11l1.16-.08c.09,0,.07.14.09.21l.08.31s.08.16.08.14a.29.29,0,0,0,.55.13.88.88,0,0,0,.08-.56.83.83,0,0,1,0-.23.3.3,0,0,0,.08-.25L136.76,55Zm-1,1.4a2,2,0,0,1-.39,0,.3.3,0,0,0-.2.06h-.47a1.76,1.76,0,0,1,1-.93,3.17,3.17,0,0,0,.16.86Z"/><path class="cls-1" d="M132.48,54.1c-.16-.23-.19-.32-.5-.29-.11,0-.19-.06-.31,0l-.35,0c-.54,0-1.07,0-1.61,0a.63.63,0,0,0-.31.07c-.17.12-.1.42,0,.58s.38.16.6.14l.39,0a.29.29,0,0,0,.28.1c-.05.56,0,1.12-.06,1.67a2.57,2.57,0,0,0,0,.69c0,.3.57.61.75.26.06-.12,0-.24,0-.36a1.11,1.11,0,0,0,0-.41c0-.49,0-1,0-1.49v-.29c0-.1,0-.11.1-.12h.73a.3.3,0,0,0,.24-.5Z"/><path class="cls-1" d="M119.17,54.43c0-.26-.18-.3-.33-.42s-.44,0-.62,0c-.46,0-.91,0-1.38,0a.49.49,0,0,1-.26,0,.31.31,0,0,0-.22-.18.29.29,0,0,0-.36.3s-.07.1-.07.13,0,.17,0,.26.1.29.09.45c0,.45,0,.89,0,1.34,0,.27-.07,1,.35,1a.3.3,0,0,0,.18-.06.34.34,0,0,0,.23,0c.22-.11.17-.39.17-.59a13.66,13.66,0,0,0-.1-1.67,2.22,2.22,0,0,0,.65-.06l.71,0a5.5,5.5,0,0,0,0,1.73c0,.2.05.53.23.67a.31.31,0,0,0,.48-.15,2.34,2.34,0,0,0,.16-1.06c0-.29,0-.58,0-.87a2.06,2.06,0,0,1,.08-.34c0-.13,0-.27,0-.41Z"/><path class="cls-1" d="M127.8,54a1.25,1.25,0,0,0-.7-.14,5.7,5.7,0,0,1-.72,0,2.57,2.57,0,0,0-.64,0c-.26,0-.25.32-.27.53,0,.58,0,1.15,0,1.73,0,.21.05.42,0,.63a.9.9,0,0,0,0,.42.31.31,0,0,0,.55,0c.24-.14.17-.48.2-.71s0-.27.13-.26h.4a2.56,2.56,0,0,0,.72-.11,1.28,1.28,0,0,0,.84-.73A1.06,1.06,0,0,0,127.8,54Zm-1.43.49c.32,0,1,0,1.06.35s-.78.53-1.08.54Q126.37,55,126.37,54.53Z"/><path class="cls-1" d="M88,55.27c-.07-.07.18-.49.17-.65a.82.82,0,0,0-.34-.59,2.07,2.07,0,0,0-1.69-.26c-.68-.16-.58.68-.6,1.14s0,.67,0,1,0,.39,0,.59a.69.69,0,0,0,.29.72.3.3,0,0,0,.28.07,1.83,1.83,0,0,1,.49,0,3.57,3.57,0,0,0,.81,0,1.14,1.14,0,0,0,.64-2Zm-1.65.87c0-.09-.06-.41,0-.48a1.94,1.94,0,0,1,1.22.14c.1.19.19.42,0,.54a1.26,1.26,0,0,1-.49.19,3.65,3.65,0,0,1-.63,0c-.15,0,0,0-.08-.07A.87.87,0,0,0,86.37,56.14Zm.84-1.23a6.87,6.87,0,0,1-.85.11c0-.11-.07-.52,0-.6a1.37,1.37,0,0,1,.71.09c.12.07.32.3.14.41S87.27,54.87,87.2,54.91Z"/><path class="cls-1" d="M107,55.3c-.07-.07.18-.49.17-.65a.82.82,0,0,0-.34-.59,2.07,2.07,0,0,0-1.69-.26c-.68-.16-.58.68-.6,1.14s0,.67,0,1,0,.39,0,.59a.69.69,0,0,0,.29.72.3.3,0,0,0,.28.07,1.83,1.83,0,0,1,.49,0,3.57,3.57,0,0,0,.81,0,1.14,1.14,0,0,0,.64-2Zm-1.65.87c0-.09-.06-.41,0-.48a1.94,1.94,0,0,1,1.22.14c.1.19.19.42,0,.54a1.26,1.26,0,0,1-.49.19,3.65,3.65,0,0,1-.63,0c-.15,0,0,0-.08-.07A.87.87,0,0,0,105.36,56.17Zm.84-1.23a6.92,6.92,0,0,1-.85.11c0-.11-.07-.52,0-.6a1.37,1.37,0,0,1,.71.09c.12.07.32.3.14.41S106.27,54.9,106.2,54.94Z"/><path class="cls-1" d="M98.19,56.68a1,1,0,0,0-.37-.06.75.75,0,0,0,0-.24.71.71,0,0,1,0-.19.25.25,0,0,0,.08-.21l-.05-.82-.06-.91a.29.29,0,0,0-.28-.3l-.12,0c-.1,0-.07-.06-.15-.11a.7.7,0,0,0-.43,0,2.27,2.27,0,0,0-1.84,2.51q0,.1,0,.19a.65.65,0,0,0-.2.06.24.24,0,0,0-.14.25c-.14.26.13.57.25.81s.12.23.28.21.19.05.3,0c.28-.12.09-.49,0-.7a10.68,10.68,0,0,1,1.2,0l.63,0c.13,0,.21,0,.2.11a1,1,0,0,0,0,.27c.05.25.5.33.57,0s.44-.79.14-1Zm-2.53-.09c-.13-.06.14-.87.19-1a1.6,1.6,0,0,1,.95-.89,3,3,0,0,0,.15.83,8.09,8.09,0,0,0,.19,1q-.74,0-1.48,0Z"/><path class="cls-1" d="M74.27,53.53a1.75,1.75,0,0,1,1.1-2c.54-.16,1.34.53,1.61,1,.9,1.5-2.2,2.36-2.71,1Z"/><path class="cls-1" d="M76.72,50.62a3.32,3.32,0,0,1,2,2.09.21.21,0,0,0,.21.16h1.54a.22.22,0,0,0,.22-.21,3.5,3.5,0,0,0-2.19-3.38l.49.2-.49-.2a14,14,0,0,0-1.65-.66h0a.22.22,0,0,0-.27.22l0,1.57A.22.22,0,0,0,76.72,50.62Z"/><path class="cls-1" d="M79,49.51Z"/><path class="cls-1" d="M79,49.5h0Z"/><path class="cls-1" d="M72.51,53.07a.22.22,0,0,0,.24-.25,3.88,3.88,0,0,1,0-.63c.07-1.67,1.42-2.16,2.83-1.93A.22.22,0,0,0,75.8,50l0-1.47a.22.22,0,0,0-.14-.2c-.24-.1-.4-.28-.7-.29a4.68,4.68,0,0,0-3.64,1.51,4.5,4.5,0,0,0-1.08,2.94.22.22,0,0,0,.18.21Q71.44,53,72.51,53.07Z"/><path class="cls-1" d="M78.63,53.8a3.54,3.54,0,0,1-2.46,2A.22.22,0,0,0,76,56l.08,1.32a.22.22,0,0,0,.26.2,5.59,5.59,0,0,0,3-1.52,4.77,4.77,0,0,0,1.18-2.08.22.22,0,0,0-.21-.28H78.84A.21.21,0,0,0,78.63,53.8Z"/><path class="cls-1" d="M75.24,56.13a.22.22,0,0,0-.2-.2,2.5,2.5,0,0,1-.6-.1A2.68,2.68,0,0,1,73,54a.22.22,0,0,0-.19-.15q-1.11-.09-2.21-.29a.22.22,0,0,0-.25.27,5,5,0,0,0,1.82,2.65,5.49,5.49,0,0,0,2.88,1.16.22.22,0,0,0,.23-.23Z"/></g></g></svg>