<svg xmlns="http://www.w3.org/2000/svg" viewBox="0 0 244.21 48.22"><defs><style>.cls-1{fill:#233267;}.cls-2{fill:#de3c27;}</style></defs><title>logo_black</title><g id="Слой_2" data-name="Слой 2"><g id="Layer_1" data-name="Layer 1"><path class="cls-1" d="M129,23.07a2.22,2.22,0,0,0-.57-1.07c-.11,0-.35.13-.36.28a2.28,2.28,0,0,0-1.33,1.43c-.15.36-1.2,1.52-1.65,1.23s-.36-1-.47-1.46a15,15,0,0,1-.34-2.84,18.56,18.56,0,0,1,0-3.11c.1-1,.43-2.07.47-3.09a1.32,1.32,0,0,0-1.24-1.55c-.78-.13-2-.39-2.7.18.3-.31-2.75-1.6-3-1.7a6,6,0,0,0-1.68-.44,13.35,13.35,0,0,0-2,.19c-.58.05-1.12.43-1.67.5a14.41,14.41,0,0,0-2.15.27c-.74.2-.49.55.12.54s1.33.15,2,.2a7.55,7.55,0,0,0-2.26,2.95,16,16,0,0,0-.85,2.07,10.83,10.83,0,0,1-.38,1.83c-.16.38-1.33.45-1.64.5s-1.11.27-.46.56a8.2,8.2,0,0,0,1.65.25c-.29.76.27,1.57-.11,2.3s-1.49,1.29-2.18,1.85a5.82,5.82,0,0,1-.63.51c-.23-.16-.25-.65-.28-.91a27.3,27.3,0,0,1-.05-3.22,3.09,3.09,0,0,1,.29-1.58,5.61,5.61,0,0,0,.32-1.73c.1-.63.2-1.27.25-1.91a7.12,7.12,0,0,1,.32-2.17,10.62,10.62,0,0,0,.94-3.29,21.37,21.37,0,0,1,1.35-4.12c.64-1.73,3.11-5.07.78-6.11A9.13,9.13,0,0,0,108,.14a2.58,2.58,0,0,0-1.76,0c-1.1.49-1.41,1.66-2.7,1.76a8.69,8.69,0,0,1-1.87-.12c-.52-.07-1-.37-1.51-.39a5.49,5.49,0,0,0-1.88.41c-.59.2-1,.69-1.62.89a2.91,2.91,0,0,1-1.73.11c-.14,0-1.16-.24-1.16.12s.77.61,1,.67a5.11,5.11,0,0,0,2.09-.42,5.23,5.23,0,0,0,1.67-.78A2.89,2.89,0,0,1,100.34,2a6.27,6.27,0,0,1,1.71.5,11.53,11.53,0,0,0,1.87.44c-.16.54-.67.55-1.13.62s-1.53-.13-1.77.19-.16.78.18.77.82-.24,1.24-.25.73.17,1.11.16c-.22.81,0,3.86-1.39,3.86a3.72,3.72,0,0,0-1.37.1c-.6.23-.14.65.21.75s1.21.08,1.33.49a1.28,1.28,0,0,1-.12.7c-.16.47-.2.43-.64.62s-.9.84-.1.81a3.75,3.75,0,0,1,0,2.08c-1-.46-1.78-1.24-2.79-1.67A4.31,4.31,0,0,0,97,12a2.38,2.38,0,0,0-.88.15,1.12,1.12,0,0,0-.55-.11,5.81,5.81,0,0,0-3,.73c-.26.17-.21.67.13.64a5.8,5.8,0,0,1,1.6-.09,10.11,10.11,0,0,0-1.94,2.08,12.21,12.21,0,0,1-.73,1,3,3,0,0,0-.83,1c-.27.86-.51,1.71-.8,2.57a10.1,10.1,0,0,0-.31,3.2c0,.25.1,1-.16,1.07a3.83,3.83,0,0,0-.82.32c-.3.22,0,.48.19.56.56.21.51.25.6.87,0,.21.38,1.57,0,1.47-.22-.05-.28.25-.49.29A5.08,5.08,0,0,1,87.6,28c-.08,0-1.58-.12-1.14.38.23.27.9.15,1.22.11a12.53,12.53,0,0,1,4.58.67c.81.24,1.62.42,2.43.67a3.84,3.84,0,0,0,2.66,0c.69-.33.88-1.25,1.42-1.77a18.26,18.26,0,0,0,1.75-2.32,10.2,10.2,0,0,0,.56,1.83c.27.65.79.8,1.39,1.06-.31.18-.69.06-1,.21s-.4.46-.07.53a16.06,16.06,0,0,0,2.36.07,4.17,4.17,0,0,0,3-.89,19.39,19.39,0,0,0,2.1-2.36c.18,1.23,1.52,1.94,2.61,2.12a18.09,18.09,0,0,1,2.09.39,9.28,9.28,0,0,0,2.13,0c1.42.49,1.78-1.07,2.58-1.88.39-.39.88-.71,1-1.26a7.13,7.13,0,0,1,.85-1.94c.07.42.34.74.45,1.15a10.61,10.61,0,0,0,.41,1.3c-.26.1-1.75.53-1.34,1,.25.29,1,.08,1.34.11a.84.84,0,0,1,.7.4,5.72,5.72,0,0,1-1.27.3c-.25,0-.85,0-1,.2s.28.52.46.55a2.59,2.59,0,0,0,1.17-.21c.8-.28,1.88.21,2.66.34a3.39,3.39,0,0,0,2.75-.9c.28-.31.28-.76.51-1.09s.64-.5.88-.83C128.34,25.19,129.14,24,129,23.07ZM93.7,29.43h0Zm3.88-15.51,0-.09S97.57,13.88,97.58,13.92Zm-.78-1.66-.05,0Zm4,4.83a7,7,0,0,1-.23,1.89c-.19.54-1.28.31-1.4.79-.19.73,1.38-.21,1.17.64-.14.58-.69.66-1.11,1.05s.05.55.41.62a8.88,8.88,0,0,1-1.31,2c-.53.59-.91,1.29-1.37,1.92l0,.13s0,.15-.2.35a4,4,0,0,1-.56-1.2c-.18-.45-.62-.81-.51-1.36A7.69,7.69,0,0,0,96,22.28a4.34,4.34,0,0,1,.4-1.63c.25-.58.69-1.1,1-1.66a6.58,6.58,0,0,1,1-1.49,6.84,6.84,0,0,1,2.63-1.66A9.64,9.64,0,0,0,100.82,17.1Zm19,.61c-.09.39,0,.51-.45.63a1.44,1.44,0,0,0-.66.3c-.31.35.38.5.57.53-.17.48-.3,1.3-.79,1.47a6,6,0,0,1-1.87.33.32.32,0,0,0-.16.58,6.51,6.51,0,0,0,1.68.15l-.58,1.14a4,4,0,0,0-.5.92s.25-.26.24-.27l0,0s0-.06,0,0l-.05.08c-.15.23-.11.17,0,.07-.34.49-.83.85-1.2,1.32-.26-.26-.62-.44-.79-.79s0-1-.12-1.51a4.42,4.42,0,0,1,.44-3.44,15.74,15.74,0,0,1,1.66-3,7.29,7.29,0,0,1,2.79-2A19.64,19.64,0,0,1,119.84,17.71Z"/><path class="cls-1" d="M96.66,25.33c-.61,0-.14.81,0,1a.2.2,0,0,0,.06.15,1.28,1.28,0,0,0,.2-.35l0,0L97,26C97.08,25.68,97.06,25.32,96.66,25.33Z"/><path class="cls-1" d="M117.24,23.64l.05-.08v0l-.11.17Z"/><path class="cls-1" d="M46.12,29.59s.16-.18.31-.37S46,29.32,46.12,29.59Z"/><path class="cls-1" d="M30.9,26.8h0Z"/><path class="cls-1" d="M56.26,16.7c0-.38-.86-.75-1.11-.9-.44-.26-.89-.67-1.46-.54a8.5,8.5,0,0,0-1.7.86,19.75,19.75,0,0,1-1.66-1.46,4.61,4.61,0,0,0-2-.91,4,4,0,0,0-2.11,0c-.51.14-.72.55,0,.47A19.09,19.09,0,0,1,43,15.39a8.7,8.7,0,0,1-1.6.27c-.64.08-.76-.15-1.32-.3-.25-.07-.71,0-.74.33s.84.41,1.08.46a16.33,16.33,0,0,0,3.27,0A17.43,17.43,0,0,0,41,19.72a16.34,16.34,0,0,0-1.48,4.7,7.93,7.93,0,0,0-.33,2.28c0,.51-.05.56-.55.75-.32.12-.64.22-1,.37-.15.07-1.55.34-1.06.57a2.75,2.75,0,0,0,1,0l.57,0c0,.14.07.31.25.29A10.28,10.28,0,0,1,36.75,30c-.58.33-1,.94-1.58,1.23a12.64,12.64,0,0,1-2.2.55c-.83.23-1.46-.55-1.86-1.15s-.42-.84.26-1.35,1.4-.89,2-1.45a21,21,0,0,0,3.2-2.92,11.67,11.67,0,0,0,1.32-2.09,2.79,2.79,0,0,0,.12-1c0-.38.18-.76.23-1.15A7.59,7.59,0,0,0,37.19,16a10.73,10.73,0,0,0-1.44-1.74,2.12,2.12,0,0,0-2-.65,9.07,9.07,0,0,0-2.15.34c-.17.06-1.88.61-1.64.87-1.29.07-2.53.31-3.81.46-.4,0-.2.25,0,.37a1.23,1.23,0,0,0,1.21.11,9.42,9.42,0,0,1,2.47.06c-.26.26-.49.53-.72.81s-.38.23-.73.26a1.1,1.1,0,0,0-.58.17.25.25,0,0,0-.1.21,1.69,1.69,0,0,0-.75.13c-.74.34.12.51.45.53s.2.23.42.2c-.5.08-1.2,2-1.46,2.38-.76,1.2-.88,2.56-1.49,3.81a2.1,2.1,0,0,1-1,1c-.32,0-.82.12-1,.47s.32.48.53.53c.45.11.75-.26.88.33a6.19,6.19,0,0,1,0,3.14,2.3,2.3,0,0,1-1.26,1.06A6.12,6.12,0,0,0,21.56,32c-.09.08-.76.82-.85.78s-.07-.66-.06-.81c.1-1-.19-1.91-.08-2.94.07-.61-.1-1.19-.05-1.8a8.78,8.78,0,0,1,.26-1.7,11.79,11.79,0,0,0,.67-3.7,12.58,12.58,0,0,1,.78-3.75,7,7,0,0,1,.61-1.73,8.44,8.44,0,0,0,.61-2.14c.15-.66.33-1.3.54-2s.52-1,.72-1.55a30,30,0,0,1,1.21-3.47c.56-1.09.94-1.75.44-2.9s-2.09-.92-3.14-1a3.56,3.56,0,0,0-3,1.18,9.63,9.63,0,0,0-1,1.27,4.17,4.17,0,0,0-.35,1.63c-.19.94-.39,2.41-1.17,3.1-.43.38-1.52-.15-1.8.48s1.16.34,1.42.44c1,.39,0,1.76-.31,2.36-.18.39-.63.38-1,.34-.67-.06-.75.09-1.28.44-.58.71,1.78.3,2.11.34-.13.57-.18,2.37-1,2.37-1.13,0-2.25.11-3.39.14s-2.4-.12-3.63,0a10.6,10.6,0,0,0-1.62.49,5,5,0,0,0-2,.69c-.24.16-.85.29-.87.61s.76.44,1.07.39c1.1-.16,1.86-1,3-1.13a24.87,24.87,0,0,1,3.8-.28,36.48,36.48,0,0,0,4.06.07c-.19.92-.28,2.28-1.16,2.89-1.21.83-2,.55-3.35.56-.33,0-1.85-.23-1.66.47.12.46.79.38,1.16.47a3.11,3.11,0,0,0,1.74-.06c.69-.21,2.57.1,2.4,1.12-.09.54-.4,1-.47,1.57-.35.12-.86.36-.8.82,0,.29.44.3.67.33a14.15,14.15,0,0,0,0,1.64c0,.35.09.8-.17,1.11a3.28,3.28,0,0,1-1.56.67c-.49.13-.48.25-.94.3s-1.07-.18-1.56,0a4.05,4.05,0,0,1-1.68.34,14.08,14.08,0,0,0-2,0c-.41.06-.81-.07-1.25,0-.23,0-2.43.34-1.73.77,1,.63,2.25,0,3.36,0a15.19,15.19,0,0,0,1.89-.08c.55,0,1-.34,1.61-.38a4.32,4.32,0,0,1,1.73,0c.54.19,1.08.41,1.6.64.37.17.53.1.59.53s.09.6.15.9a8.23,8.23,0,0,0,.7,1.75,3.32,3.32,0,0,0-1.12.51c-.52.45.36.58.64.57s.93-.2,1.12,0A3.89,3.89,0,0,0,18,36.72a7.46,7.46,0,0,0,2.2.39c.74,0,1.55-.79,2.17-1.19a9.17,9.17,0,0,0,1.5-1.68c.56-.59,1.06-1.24,1.64-1.82A8.2,8.2,0,0,0,28,34.85a4,4,0,0,0,1.83.32A24,24,0,0,0,32.31,35,6.22,6.22,0,0,0,36,33.58a22.22,22.22,0,0,0,3.35-2.8c.47.65,1.53,1,2.21,1.36l1.07.61a9.23,9.23,0,0,0,1.36.38c-.19.13-.42.58-.07.64s.65-.17.91-.3.47,0,.82,0c.5,0,.79-.27,1.18-.54s.56-.29.81-.49a3.73,3.73,0,0,0,.76-1.1A23.18,23.18,0,0,1,50.21,29c-.08.55,0,1.1-.13,1.65a12.78,12.78,0,0,0-.25,1.4,7.47,7.47,0,0,1-.65,3.28,2.83,2.83,0,0,1-2.6,1.09c-1.16,0-2.34-.05-3.49-.13a14.78,14.78,0,0,0-2.56-.41c-.7-.55-1.14-1.26-2.22-1.07a1.31,1.31,0,0,0-.84.58c-.16.23-.25,1,.23.75.27-.13.41-.41.72-.46a1.64,1.64,0,0,1,1.35.45c.41.51-.61.37-.86.38a10.76,10.76,0,0,0-1.44.39c-1.09.21-2.16.46-3.25.7a10.52,10.52,0,0,0-1.43.63,13.23,13.23,0,0,0-1.67.48,9.33,9.33,0,0,1-3.17.74c-1,.13-2,0-3,0-.2,0-2.55.27-1.52.77.73.35,2,0,2.84,0,.28.18.82,0,1.13-.07a8.65,8.65,0,0,1,1.63,0,19.08,19.08,0,0,1-1.87,1.34c-.2.12-.6.19-.69.44a.3.3,0,0,0,.38.39,2.06,2.06,0,0,0-.54,2.24,7.18,7.18,0,0,0,.9,1.15c.31.37.45.84.75,1.2-.3,0-.87,0-1,.41s.67.23.92.19c.59-.1.69.14,1.1.44a1.39,1.39,0,0,0,1.55,0,4.44,4.44,0,0,0,1.24-1.13,7.47,7.47,0,0,1,.88-1.31A26.79,26.79,0,0,1,36,43.05a5,5,0,0,1,1.58-.66c.53-.16,1-.53,1.49-.7a8.3,8.3,0,0,1,2-.48c.73-.06,1.28-.49,2-.6s1.11,0,1.67,0a9,9,0,0,1,2-.1c1.11.06,2.4-.09,2.92-1.25a10.41,10.41,0,0,1,.81-1.48c.27-.42.33-.93.62-1.35s.76-.5,1.15-.7a7,7,0,0,0,1.66-1.16,4.75,4.75,0,0,0,1.41-3.06c0-.64.09-1.26.18-1.91a14.29,14.29,0,0,1,.06-2.16,3.14,3.14,0,0,0,.09-1.57A7.6,7.6,0,0,1,55.64,24c0-.55.35-1,.38-1.61s0-1.4,0-2.09C56.14,19.09,56.17,17.89,56.26,16.7ZM31,14.93h0Zm-.41,12.13a4.19,4.19,0,0,1,.34-.29l0,0-.3.22h0l.3-.22-.3.22c-.44.32.05-1.78.15-2a12.59,12.59,0,0,1,.92-2.32c.31-.49,3.27-4.33,3.76-3,.22.62-.07,1-.47,1.53-.12.16-.23.24-.2.45.1.65.13.77-.36,1.3a24.29,24.29,0,0,1-1.77,2.14,10.79,10.79,0,0,0-.83.95C31.44,26.48,31,26.71,30.61,27.06Zm20.66-5.83c-.16.61,0,1.82-.82,1.87-.28,0-1.18,0-1.19.43s.9.32,1.17.44a12.23,12.23,0,0,1-2,2.82c-.65.67-1.54,1.83-2,2.43a1.55,1.55,0,0,1-.31.37c-1.18-2-.54-4.78.75-6.74.62-.93,1.42-1.74,2-2.69a3.81,3.81,0,0,1,2.71-1.61A20.3,20.3,0,0,1,51.27,21.23Z"/><path class="cls-1" d="M52,16.12c.35-.16-.35-.26,0,0Z"/><path class="cls-1" d="M91.1,29.84c-.44.39-1.5.32-2,.34-.71,0,.88.47,1.16.46a13.47,13.47,0,0,1-2,.55,2.58,2.58,0,0,1-2.14-1,6.51,6.51,0,0,1-.13-2.58c0-.48.31-.67.43-1.15s.11-.64.17-1,.13-.85.24-1.27c.22-.86.05-1.55.58-2.33.42-.61.34-1.24.7-1.95a20.71,20.71,0,0,0,.67-2.55,14,14,0,0,1,1.08-2.26c.25-.42,1.07-1.65.86-2.11a4.06,4.06,0,0,0-1.32-1.4A3.19,3.19,0,0,0,87,11.43a4.57,4.57,0,0,0-2.05.64c-.73.45-1,1.22-1.93,1.29-.38,0-1.52-.31-1.52.35s1.17.48,1.61.58c-.25.3-.39.67-.63,1-.32-.05-.89,0-.59.42s-.86,1.56-1.15,1.84a14.77,14.77,0,0,0-1.57,2.37c-.32.46-.49,1-.77,1.46s-.53.72-.74,1.11c.12-1.16.29-2.31.39-3.48a14.83,14.83,0,0,1,.82-3.43c.26-.75.88-2,.58-2.77-.43-1.06-2-.69-2.88-.75a5.44,5.44,0,0,0-1.28-.14c-.38.06-.46.39-.83.34a20.9,20.9,0,0,0-3.1.44,2.27,2.27,0,0,0-1,.18c-.53.3,0,.57.33.51a13,13,0,0,1,3.17-.19c-.35.79-1.06,1-1.76,1.36-.24.11-.49.27-.42.56s.59,0,.75.09,0,.18.1.27a.51.51,0,0,0,.22.16,5.66,5.66,0,0,0-.11.86,16.1,16.1,0,0,1-.45,3.19c-.25.9.12,1.94-.25,2.81-.13.29-.41.48-.55.76s-.09.44-.51.44c-.24,0-1.07-.07-1.2.26-.2.52,1.67.49,2,.61a17.18,17.18,0,0,1-4.34,3.79,2.73,2.73,0,0,1-4-1.28,19.65,19.65,0,0,1,2.07-1.68,5.82,5.82,0,0,0,1-1.25,5.76,5.76,0,0,1,1.19-.93,10.14,10.14,0,0,0,1.15-1.11,10.7,10.7,0,0,0,.82-1.45A6.8,6.8,0,0,0,70.29,19c.18-.56,0-.95,0-1.49a2.25,2.25,0,0,0-.21-1.67,13.6,13.6,0,0,1-.83-1.21,3.62,3.62,0,0,0-1.08-1,12.19,12.19,0,0,1-1-1.07c-.93-.91-1.86-.7-3.08-.34-.48.14-2.59,0-2.46.85a18.1,18.1,0,0,0-2,0,16,16,0,0,0-2.36.23c-.47.15-1,.54-.32.83a1.62,1.62,0,0,0,.88.07s.49-.12.4-.15c.51.18,1.18-.32,1.64-.1s1.2,0,1.75,0c-.28.27-.48.63-.77.88a2.11,2.11,0,0,1-1.18.31c-.16,0-1.1.28-.56.56.24.13.56-.05.81-.08a12.87,12.87,0,0,0-1.86,3.11c-.27.62-.36,1.23-.58,1.86a10.46,10.46,0,0,0-.61,2,14.26,14.26,0,0,0-.27,2c0,.63.28,1.22.32,1.86a7.76,7.76,0,0,0,.38,1.85c.19.57.7.83,1,1.31a4.07,4.07,0,0,0-1,0c-.37.08-.57.52-.1.61s.8-.15,1.27.13a11.8,11.8,0,0,1,1.05.7c-.54.08,0,.58-.55.71s-2-.14-2.27.42c-.4.78,2.1.27,2.3.19a7.67,7.67,0,0,1,3-.2c.93,0,1.71.54,2.72.1.36-.16.64-.48,1-.61.54-.19,1.07-.06,1.57-.42.9-.65,1.76-1.34,2.69-1.94A11.74,11.74,0,0,0,72.22,27c0,.83.1,1.7.18,2.53-.24,0-.85,0-.93.36s.07.47.31.43a1.53,1.53,0,0,1,1.36.4,9.58,9.58,0,0,0,2.16.6c.81.28,1.43-.36,1.87-1a5,5,0,0,0,.52-2.13,12.26,12.26,0,0,1,.83-2.58,17.49,17.49,0,0,1,1.08-2.41A14.43,14.43,0,0,1,81.3,21c-.06,1.29-.25,2.21-.21,3.41a12.91,12.91,0,0,1-.19,1.61c-.38-.14-.71.92-.11.72a3.41,3.41,0,0,0,0,1.67c.11.37.07,1.36.21,1.84-.18,0-.84.1-.73.42s.37.33.56.37a.81.81,0,0,1,.66.47c-.63.26-1.3.34-1.94.59a5,5,0,0,1-2.22.13c.19,0-.21.06-.22.07l-.59.08c-.22,0-.43.4-.24.56a1.3,1.3,0,0,0,1,.1,20.34,20.34,0,0,1,2.51-.49c1,0,1.85-.49,2.66.25-.45.17-1.27,0-1.61.38s.24.47.55.45c.55,0,1.09-.18,1.64-.19.78,0,1.27.59,2.08.6a25.27,25.27,0,0,0,2.61,0,19,19,0,0,0,2.46-.92,4,4,0,0,0,2.13-1.41C93.06,30.85,91.82,30.27,91.1,29.84ZM66.76,16.89a0,0,0,0,0,0,0A0,0,0,0,1,66.76,16.89Zm-3.91,5.37a27.79,27.79,0,0,1,1.64-3.07,2.71,2.71,0,0,1,1.3-1.14,7,7,0,0,0,.82-.91c-.15.13-.27.24,0,0h0L66.8,17c.07-.06.06,0,0,0,.75-.65.73.66.69,1a2.28,2.28,0,0,1-1.31,1.72c-.24.14-1.13.51-1.14.84s1,.29,1.18.42A5.74,5.74,0,0,1,65,22.52a6.84,6.84,0,0,0-1.37,1.23C62.27,25.29,62.5,23.13,62.85,22.26Z"/><path class="cls-1" d="M66.87,16.76l-.2.17h0l.2-.17Z"/><path class="cls-1" d="M10.77,26.38c.26,0,.51-.43.33-.63s-.73.09-1,.16-.91.45-.38.6C10.09,26.6,10.44,26.4,10.77,26.38Z"/><path class="cls-1" d="M9.17,10.84c.48,0,1.07-.89.4-.85C9.09,10,8.5,10.88,9.17,10.84Z"/><path class="cls-1" d="M35.75,27.82c-.41,0-.43.77,0,.74S36.16,27.8,35.75,27.82Z"/><path class="cls-1" d="M21.49,40.08c-.41,0-.43.65,0,.63S21.9,40.05,21.49,40.08Z"/><path class="cls-1" d="M25.26,47.15c-.41,0-.43.84,0,.82S25.67,47.13,25.26,47.15Z"/><path class="cls-1" d="M21.62,44.43c-.48,0-1-.21-1.48.14s-.12.76.28.79A1.54,1.54,0,0,0,21.51,45C21.9,45,22.08,44.41,21.62,44.43Z"/><path class="cls-1" d="M54.94,14.35c.48,0,1-1,.36-1C54.83,13.41,54.3,14.38,54.94,14.35Z"/><path class="cls-1" d="M48.19,23.44c-.41,0-.42.56,0,.54S48.6,23.42,48.19,23.44Z"/><path class="cls-1" d="M74.4,32.71s.21.15.15.19l-.15,0h0c-.34,0-.63-.29-1-.24s-.6.39-.34.75a.85.85,0,0,0,1.22,0C74.44,33.3,74.91,32.67,74.4,32.71Z"/><polygon class="cls-1" points="73.89 33.1 73.89 33.1 73.89 33.1 73.89 33.1"/><path class="cls-1" d="M78.64,31.35l.15-.08-.15.08Z"/><path class="cls-1" d="M78.78,31.27Z"/><path class="cls-1" d="M79.25,30.93c.54-.3.06-.6-.24-.21s0,.67.37.48c0,0-.28-.19-.13-.27h0Z"/><path class="cls-1" d="M12.41,35.15c.28,0-.31-.07,0,0Z"/><path class="cls-1" d="M12.41,35.15c-.64-.14-1.23.17-.37.43a.81.81,0,0,0,.67,0C12.91,35.36,12.62,35.14,12.41,35.15Z"/><path class="cls-1" d="M12.6,15.08c.41,0,.43-.79,0-.77S12.19,15.11,12.6,15.08Z"/><path class="cls-1" d="M2,21.78a.75.75,0,0,0,.16-.1H2c-.57.08-1.14-.19-1.71.1s-.29.93.24.93A11,11,0,0,0,2,22.5C2.4,22.45,2.45,21.72,2,21.78Z"/><path class="cls-1" d="M2.18,21.67Z"/><path class="cls-1" d="M2.18,21.67l-.15,0H2Z"/><path class="cls-1" d="M4.22,27h0l.14,0h0Z"/><path class="cls-1" d="M4.16,27l.06,0s-.05,0,0,0a.22.22,0,0,1,.14,0h0c1.22-.23,2.58.25,3.73-.44.46-.27.44-.65-.06-.77A5.19,5.19,0,0,0,6,25.86c-.93.16-3-.24-3.63.74-.15.23-.12.87.23.88a9.75,9.75,0,0,0,1.8-.4A.48.48,0,0,1,4.16,27Z"/><path class="cls-1" d="M87.3,25.05c.41,0,.42-.47,0-.44S86.9,25.07,87.3,25.05Z"/><path class="cls-1" d="M99.57,4.8c-.12,0,.44,0,0,0Z"/><path class="cls-1" d="M99.45,3.92a.49.49,0,0,0-.12.66s.4.21.24.23C100.12,4.79,100,3.61,99.45,3.92Z"/><path class="cls-1" d="M97.62,9.06c.62,0,.2-.83-.27-.8S97.14,9.08,97.62,9.06Z"/><path class="cls-1" d="M35.65,35.42c-.51,0-.35.94.1.92S36.09,35.4,35.65,35.42Z"/><path class="cls-1" d="M108.67,12.78c.59,0,.23-.72-.23-.7S108.21,12.81,108.67,12.78Z"/><path class="cls-1" d="M100.07,28.86c-.47,0-.92.83-.31.79S100.68,28.83,100.07,28.86Z"/><path class="cls-1" d="M117.72,18.66c-.45,0-.65.58-.14.55S118.23,18.63,117.72,18.66Z"/><path class="cls-1" d="M118.26,28c-.41,0-.42.42,0,.4S118.67,28,118.26,28Z"/><path class="cls-2" d="M162.08,15.12c0-.23,0-.45-.29-.52a.44.44,0,0,0-.49.19c-.07.12,0,.29-.07.41a.42.42,0,0,0-.26.42v.7c0,.09-.19.2-.19.36v.25l0,.87c0,.17.1.52-.1.53s-1.22,0-1.21-.21l.06-.81c0-.27,0-.58-.37-.59-.19,0-.35-.13-.55,0a.6.6,0,0,0-.3.48c0,.2-.06.41-.07.6l0,.39c0,.21,0,.15-.27.16a.46.46,0,0,1-.52-.27,1.64,1.64,0,0,1-.18-.59,10.36,10.36,0,0,1,0-1.55c0-.35.2-1.31-.23-1.48-.14-.42-.59-.25-.84,0a1.33,1.33,0,0,0-.43,1,8.94,8.94,0,0,0,.18,1.64,7.93,7.93,0,0,1,.22,1.23,1.53,1.53,0,0,0,.06.71c.16.27.5.21.76.22a7.34,7.34,0,0,1,1.66.26.77.77,0,0,0,.54-.13H161c.2,0,.47.07.65,0a.42.42,0,0,0,.17-.21.43.43,0,0,0,.19,0c.35-.15.24-.8.25-1.1l0-1.73c0-.29.12-.93-.15-1.13C162.08,15.08,162.18,15.2,162.08,15.12Z"/><path class="cls-2" d="M170,14.91a.42.42,0,0,0-.42-.33c-.19,0-.27.15-.44.18-.33.07-.49.66-.67.91a3.4,3.4,0,0,1-2.06,1.28l0-1.42v-.58a.41.41,0,0,0-.2-.37.44.44,0,0,0-.33,0,.42.42,0,0,0-.2.12.47.47,0,0,0-.19,0c-.43,0-.38.43-.42.73a17.39,17.39,0,0,0-.13,2c0,.38-.15,1.31.23,1.54a.43.43,0,0,0,.26.06.41.41,0,0,0,.18.19.59.59,0,0,0,.58-.06c.22-.17.16-.53.17-.77,0-.06,0-.23,0-.28.33-.06.63-.2.95-.28s.83.85,1.09,1.05.63.95,1,.48-.17-.59-.14-.91-.18-.37-.29-.57l-.2-.39c-.14-.25-.17-.23.05-.39a3.91,3.91,0,0,0,1-1.09c.13-.22.4-.58.28-.85a.41.41,0,0,0-.14-.16C170,14.84,170.12,15,170,14.91Z"/><path class="cls-2" d="M176.22,15.13a6.87,6.87,0,0,0-.81-.32l-.5-.1c-.17,0-.25-.16-.43-.17a2.29,2.29,0,0,0-1.78.74,2.35,2.35,0,0,0,.45,3.38,2.44,2.44,0,0,0,1.76.55,2.89,2.89,0,0,0,1.72-.79c.92-.94,1-2.74-.41-3.29Zm0,2.1a1.73,1.73,0,0,1-2,1c-.53-.16-.82-1.17-.79-1.69.08-1.73,3.1-.75,2.77.66Z"/><path class="cls-2" d="M179.67,19.2c.75.5.75-1.19.85-1.53a3.62,3.62,0,0,1,.48-1.11,2.75,2.75,0,0,1,1.16-.78,8.3,8.3,0,0,0,.27,1.58,4.73,4.73,0,0,0,.33,1.56c.14.25.23.61.63.45a.84.84,0,0,0,.35-.81l0-.31c0-.2,0-.18.09-.37a1.6,1.6,0,0,0,0-.43l-.11-1.67c0-.31.05-1-.29-1.13a.69.69,0,0,0-.46,0,.46.46,0,0,0-.48-.28,2.87,2.87,0,0,0-1.23.23,3,3,0,0,0-1.6,1.8,3.58,3.58,0,0,0-.36,1.5c0,.36,0,1.23.45,1.3C179.74,19.24,179.5,19.18,179.67,19.2Z"/><path class="cls-2" d="M190.48,15a.43.43,0,0,0-.33-.4.65.65,0,0,0-.28,0c-.16,0-.11-.07-.21-.16-.3-.25-1-.08-1.3,0a3,3,0,0,0-1.85,1.79,4.49,4.49,0,0,0-.41,1.61c0,.52,0,1.18.56,1.35s.56-.57.61-.92.28-.15.47-.16l1.63-.11c.13,0,.1.19.12.29s.07.3.11.44c0,0,.12.23.11.2a.41.41,0,0,0,.77.18,1.24,1.24,0,0,0,.11-.79,1.17,1.17,0,0,1,0-.33.42.42,0,0,0,.12-.36l-.1-1.56Zm-1.39,2a2.77,2.77,0,0,1-.55,0,.42.42,0,0,0-.28.08l-.66,0A2.48,2.48,0,0,1,189,15.78a4.46,4.46,0,0,0,.22,1.22.46.46,0,0,0-.17,0Z"/><path class="cls-2" d="M181.61,23.44a7.45,7.45,0,0,0-.86-.34,5,5,0,0,0-.53-.11c-.18,0-.27-.17-.46-.18a2.43,2.43,0,0,0-1.89.79,2.49,2.49,0,0,0,.48,3.59,2.59,2.59,0,0,0,1.87.59,3.07,3.07,0,0,0,1.83-.84c1-1,1-2.91-.44-3.5Zm0,2.23a1.84,1.84,0,0,1-2.1,1.09c-.56-.17-.87-1.24-.84-1.79.08-1.84,3.3-.8,2.94.7Z"/><path class="cls-2" d="M203.54,19.28c.8.53.8-1.26.9-1.63a3.85,3.85,0,0,1,.51-1.18,2.93,2.93,0,0,1,1.23-.83,8.82,8.82,0,0,0,.29,1.68,5,5,0,0,0,.35,1.65c.15.27.24.65.66.48a.89.89,0,0,0,.37-.86l-.05-.33c0-.21,0-.19.09-.39a1.7,1.7,0,0,0,0-.46l-.12-1.78c0-.33.06-1-.31-1.2a.74.74,0,0,0-.49,0,.49.49,0,0,0-.51-.29,3.05,3.05,0,0,0-1.31.24,3.24,3.24,0,0,0-1.7,1.91,3.8,3.8,0,0,0-.39,1.59c0,.38,0,1.31.48,1.38C203.61,19.33,203.36,19.26,203.54,19.28Z"/><path class="cls-2" d="M200,14.25c-.3-.29-.6,0-.67.29-.14.56-.21,1.13-.32,1.69a2.85,2.85,0,0,1-1.59-1.81.38.38,0,0,0-.34-.26.32.32,0,0,0-.16-.24.42.42,0,0,0-.56.27,2.68,2.68,0,0,0,.59,1.9,3.63,3.63,0,0,0,1.75,1.33A2.76,2.76,0,0,1,197.42,19c-.16.08-.27.2-.44.2a1.06,1.06,0,0,0-.44,0,.39.39,0,0,0-.17.5c.19.47,1.07.29,1.44.19a2.84,2.84,0,0,0,1.31-.77,5.5,5.5,0,0,0,1.27-2.7,12.84,12.84,0,0,0,.23-1.51c0-.2.11-.52,0-.69a.41.41,0,0,0-.62,0C199.8,14.08,200.18,14,200,14.25Z"/><path class="cls-2" d="M210.91,19a1.31,1.31,0,0,0,1.14-.67q.27-.38.55-.75a.49.49,0,0,0,.29-.2l1-1.24a8.16,8.16,0,0,0,0,1.26,5.09,5.09,0,0,1,.15,1.18.69.69,0,0,0,.05.62c.26.31.63.15.79-.15a2,2,0,0,0,.18-.45,2.12,2.12,0,0,1,.17-.4,2.17,2.17,0,0,0,0-.74,15.63,15.63,0,0,1,.15-2.59.49.49,0,0,0-.59-.55c-.15,0-.27,0-.42,0a.4.4,0,0,0-.42-.08c-.22.09-.37.39-.51.57a1.47,1.47,0,0,1-.36.42.6.6,0,0,0-.17.18c-.39.56-.81,1.08-1.22,1.62q0-.73-.11-1.46c0-.26-.08-.52-.09-.79a.8.8,0,0,0-.17-.61c-.22-.21-.54-.57-.86-.23-.17.18-.1.5-.09.72,0,.76-.08,1.56-.07,2.33C210.38,17.5,210.2,19,210.91,19Z"/><path class="cls-2" d="M167.37,22.95a.48.48,0,0,0-.33,0,.41.41,0,0,0-.34-.11.66.66,0,0,0-.4.35,6.05,6.05,0,0,1-.62.72,2,2,0,0,0-.23.31c-.35.5-.73.95-1.09,1.44,0-.85-.17-1.69-.22-2.53,0-.58-1.16-1-1.12-.22.06,1.22-.09,2.44,0,3.67,0,.27,0,.71.18.92a.8.8,0,0,0,.78.11.83.83,0,0,0,.35-.25c.07-.12.18-.15.26-.26.18-.27.43-.77.72-.9s.46-.5.63-.7l.59-.72a8.17,8.17,0,0,0,0,1.42,4,4,0,0,1,.11,1.17c-.06.3.08.64.44.64s.54-.47.61-.77a2.44,2.44,0,0,0,.21-.77c0-.43,0-.88,0-1.31a13.42,13.42,0,0,1,.14-1.51c.05-.36-.2-.91-.66-.66C167.26,22.9,167.54,22.85,167.37,22.95Z"/><path class="cls-2" d="M225.25,19.44c.14,0,.23-.09.36-.08a.49.49,0,0,0,.4-.16c.26-.3.11-1.09.1-1.46.21.07.45,0,.67-.06l1-.05.49,0q0,.24,0,.48a8.41,8.41,0,0,0,.16.95c.09.39.56,1,.9.4a2.32,2.32,0,0,0,.29-1.17,16.16,16.16,0,0,1,.13-2.67c0-.27.12-.56-.14-.75s-.39,0-.6-.09c-.56-.12-.61.64-.67,1a2.82,2.82,0,0,1-.1.58,4.44,4.44,0,0,1-.57.05c-.54,0-1.09,0-1.63,0a11.35,11.35,0,0,1-.19-1.58c-.12-.36-.79-.86-1.06-.34a1.67,1.67,0,0,0,0,.76c0,.44-.06.93-.07,1.38s0,1.15,0,1.73C224.77,18.71,224.71,19.44,225.25,19.44Z"/><path class="cls-2" d="M236.68,19.2a.38.38,0,0,0,.69.14,2.73,2.73,0,0,0,.3-1.35c0-.54,0-1.08,0-1.61q0-.41.08-.82c0-.22.12-.48-.05-.66a.44.44,0,0,0-.37-.14.3.3,0,0,0-.14.06.42.42,0,0,0-.24-.06c-.45,0-.45.89-.5,1.21a8.07,8.07,0,0,0-.07,1.57,4.47,4.47,0,0,0,.27,1.66C236.76,19.53,236.67,19.18,236.68,19.2Z"/><path class="cls-2" d="M218.13,16.75a2.5,2.5,0,0,0,2.55.58c0,.4,0,.8,0,1.2a1.61,1.61,0,0,0,.12.83c.19.29.72.51,1,.22a.55.55,0,0,0,.09-.46c0-.15.09-.28.09-.44,0-1.09,0-2.19,0-3.29a3.81,3.81,0,0,0,0-.63c-.08-.43-.83-.48-1-.13a2.11,2.11,0,0,0-.12.83q0,.25,0,.49a3,3,0,0,1-.4.2,1.22,1.22,0,0,1-1.36-.32c-.13-.16,0-.52,0-.72,0-.44.05-.93-.45-1.12s-1,.23-.82.7a1.28,1.28,0,0,1,0,.67,1.61,1.61,0,0,0,.11.84,2,2,0,0,0,.35.56Z"/><path class="cls-2" d="M244.08,18.76l-.24-.25a.38.38,0,0,0-.1-.26c-.21-.25-.41-.5-.63-.73l-.33-.38q-.22-.13,0-.26l.21-.26c.25-.3.49-.6.75-.89s.41-.37.28-.64-.3-.44-.53-.4-.57.48-.77.68-.51.54-.76.82c-.36-.41-.73-.82-1.07-1.24s-.66-.52-1-.1.44,1,.64,1.3l.49.63c.13.17.25.18.1.37l-.3.37a3,3,0,0,0-.89,1c-.13.24,0,.84.28.9a.43.43,0,0,0,.37-.1,1.75,1.75,0,0,0,.22-.28.33.33,0,0,0,.23-.13l.9-1.08a13.29,13.29,0,0,0,1.2,1.42c.35.3,1.42,0,.92-.52Z"/><path class="cls-2" d="M235.12,19.45a1.52,1.52,0,0,0,.83-1.33c0-.66-.74-1.05-1.31-1.2a3.34,3.34,0,0,0-1-.09c-.23,0-.16-.08-.18-.28s0-.39-.07-.59,0-.71-.13-.94-.3-.38-.51-.4c-.58,0-.37.91-.4,1.25a19.67,19.67,0,0,0,0,2.43c0,.48-.11,1.39.58,1.34.34,0,.68,0,1-.08a4.49,4.49,0,0,0,1.22-.12Zm-1.58-.66q0-.53,0-1.05c.45,0,1,.05,1.19.54s-.87.5-1.17.51C233.55,18.44,233.61,18.79,233.54,18.79Z"/><path class="cls-2" d="M212.95,23.38a7.45,7.45,0,0,0-.86-.34,5,5,0,0,0-.53-.11c-.18,0-.27-.17-.46-.18a2.43,2.43,0,0,0-1.89.79,2.49,2.49,0,0,0,.48,3.59,2.59,2.59,0,0,0,1.87.59,3.07,3.07,0,0,0,1.83-.84c1-1,1-2.91-.44-3.5Zm0,2.23a1.84,1.84,0,0,1-2.1,1.09c-.56-.17-.87-1.24-.84-1.79.08-1.84,3.3-.8,2.94.7Z"/><path class="cls-2" d="M199,26.41c-.33-.23-.78.17-1.13.23a.93.93,0,0,1-1.1-.5,2.13,2.13,0,0,1-.29-1.7,1.07,1.07,0,0,1,.84-.6,1.23,1.23,0,0,1,.66.05c.22.08.46.3.7.27a.56.56,0,0,0,.3-.89,1.91,1.91,0,0,0-1.2-.45c-.27-.33-.95-.13-1.28,0a2.24,2.24,0,0,0-1.08.82,2.51,2.51,0,0,0-.1,2.62,2.93,2.93,0,0,0,2.27,1.4A2.69,2.69,0,0,0,199,27.3a.55.55,0,0,0,0-.89Z"/><path class="cls-2" d="M233,23.24a.46.46,0,0,0-.35-.42.69.69,0,0,0-.3,0c-.17,0-.11-.07-.23-.16-.32-.26-1-.09-1.38,0a3.16,3.16,0,0,0-2,1.9,4.77,4.77,0,0,0-.43,1.71c0,.55,0,1.25.59,1.43s.59-.61.64-1c0-.21.3-.16.5-.17l1.73-.11c.14,0,.1.21.13.31s.07.31.11.47c0,0,.13.24.12.22a.44.44,0,0,0,.82.19,1.32,1.32,0,0,0,.11-.84,1.25,1.25,0,0,1-.05-.35.44.44,0,0,0,.13-.38l-.11-1.66Zm-1.48,2.1a3,3,0,0,1-.58,0,.44.44,0,0,0-.3.08l-.71,0a2.64,2.64,0,0,1,1.53-1.39,4.75,4.75,0,0,0,.23,1.29.49.49,0,0,0-.18,0Z"/><path class="cls-2" d="M226.68,23.05c-.24-.34-.29-.49-.75-.43-.17,0-.28-.09-.46-.07l-.52,0c-.8,0-1.61-.05-2.41,0a.94.94,0,0,0-.47.1c-.25.18-.16.63,0,.87s.57.24.9.2l.58,0a.44.44,0,0,0,.42.15c-.08.84,0,1.67-.09,2.5a3.85,3.85,0,0,0,0,1c0,.46.86.91,1.13.39.09-.18,0-.36.07-.54a1.66,1.66,0,0,0,.07-.62c-.06-.74,0-1.49,0-2.23V24c0-.14,0-.16.15-.17l1.1,0a.46.46,0,0,0,.36-.75Z"/><path class="cls-2" d="M206.72,23.54c.06-.39-.27-.45-.5-.63s-.66,0-.92,0c-.69,0-1.37,0-2.06,0a.73.73,0,0,1-.39,0,.46.46,0,0,0-.32-.27.43.43,0,0,0-.55.45s-.1.15-.11.19,0,.26-.06.39c-.16.3.14.44.14.68,0,.67,0,1.34,0,2,0,.41-.1,1.45.53,1.45a.45.45,0,0,0,.27-.09.51.51,0,0,0,.35,0c.32-.16.25-.58.25-.88a20.47,20.47,0,0,0-.14-2.5,3.32,3.32,0,0,0,1-.08l1.07,0a8.24,8.24,0,0,0,0,2.6c.05.3.08.79.34,1a.46.46,0,0,0,.72-.22,3.5,3.5,0,0,0,.25-1.59c0-.44,0-.87,0-1.3a3.09,3.09,0,0,1,.13-.52c0-.2,0-.4,0-.61Z"/><path class="cls-2" d="M219.66,23a1.88,1.88,0,0,0-1.05-.21,8.54,8.54,0,0,1-1.09,0,3.85,3.85,0,0,0-1-.06c-.38.07-.38.49-.4.79-.07.86,0,1.72,0,2.59,0,.32.08.63.06.94a1.34,1.34,0,0,0,0,.63.47.47,0,0,0,.83-.06c.36-.2.26-.72.31-1.07s0-.41.2-.38a5.09,5.09,0,0,0,.59,0,3.83,3.83,0,0,0,1.08-.17,1.92,1.92,0,0,0,1.26-1.09,1.59,1.59,0,0,0-.8-1.9Zm-2.14.73c.48,0,1.47-.06,1.58.52.15.75-1.16.79-1.62.8Q217.53,24.35,217.52,23.68Z"/><path class="cls-2" d="M160.06,24.79c-.11-.11.26-.74.26-1a1.23,1.23,0,0,0-.51-.89,3.11,3.11,0,0,0-2.54-.4c-1-.24-.87,1-.9,1.7q0,.75,0,1.5c0,.3,0,.59,0,.88a1,1,0,0,0,.44,1.08.45.45,0,0,0,.41.11,2.75,2.75,0,0,1,.73,0,5.34,5.34,0,0,0,1.22,0,1.71,1.71,0,0,0,1-3Zm-2.47,1.31c0-.14-.09-.61,0-.72a2.9,2.9,0,0,1,1.83.21c.15.29.28.62,0,.82a1.89,1.89,0,0,1-.74.29,5.47,5.47,0,0,1-.94,0c-.22,0-.07,0-.12-.11A1.31,1.31,0,0,0,157.58,26.1Zm1.25-1.84a10.29,10.29,0,0,1-1.27.16c0-.17-.11-.79,0-.91a2.05,2.05,0,0,1,1.06.13c.18.1.48.45.21.62C158.75,24.28,158.94,24.19,158.83,24.26Z"/><path class="cls-2" d="M188.52,24.84c-.11-.11.26-.74.26-1a1.23,1.23,0,0,0-.51-.89,3.11,3.11,0,0,0-2.54-.4c-1-.24-.87,1-.9,1.7q0,.75,0,1.5c0,.3,0,.59,0,.88a1,1,0,0,0,.44,1.08.45.45,0,0,0,.41.11,2.75,2.75,0,0,1,.73,0,5.34,5.34,0,0,0,1.22,0,1.71,1.71,0,0,0,1-3ZM186,26.15c0-.14-.09-.62,0-.72a2.9,2.9,0,0,1,1.83.21c.15.29.28.62,0,.82a1.88,1.88,0,0,1-.74.29,5.47,5.47,0,0,1-.94,0c-.22,0-.07,0-.12-.11A1.3,1.3,0,0,0,186,26.15Zm1.25-1.85a10.37,10.37,0,0,1-1.27.16c0-.17-.11-.79,0-.91a2.05,2.05,0,0,1,1.06.13c.18.1.48.45.21.62C187.21,24.32,187.4,24.24,187.3,24.3Z"/><path class="cls-2" d="M175.3,26.91a1.55,1.55,0,0,0-.56-.09,1.13,1.13,0,0,0,0-.35,1.06,1.06,0,0,1,0-.28.38.38,0,0,0,.12-.31l-.08-1.23-.09-1.36a.43.43,0,0,0-.42-.45l-.18,0c-.15,0-.11-.08-.23-.17a1,1,0,0,0-.65-.07c-1.79.14-2.89,2.09-2.75,3.76q0,.15,0,.29a1,1,0,0,0-.3.09.36.36,0,0,0-.21.37c-.21.4.2.86.38,1.21.09.18.19.34.42.32s.29.08.45,0c.42-.18.13-.74,0-1a16,16,0,0,1,1.8,0l.94.06c.2,0,.32-.07.31.17a1.56,1.56,0,0,0,0,.4c.08.37.75.5.85.07s.66-1.18.21-1.44Zm-3.79-.13c-.2-.09.21-1.3.28-1.48A2.4,2.4,0,0,1,173.21,24a4.51,4.51,0,0,0,.23,1.24,12.13,12.13,0,0,0,.28,1.55q-1.11,0-2.21,0Z"/><path class="cls-2" d="M139.46,22.19a2.62,2.62,0,0,1,1.64-2.95c.8-.24,2,.8,2.41,1.47,1.34,2.25-3.3,3.53-4.05,1.47Z"/><path class="cls-2" d="M143.13,17.84a5,5,0,0,1,3,3.13.32.32,0,0,0,.31.25l2.3,0a.32.32,0,0,0,.33-.32,5.24,5.24,0,0,0-3.28-5.06l.74.3-.74-.3a21,21,0,0,0-2.48-1h0a.33.33,0,0,0-.41.33l.07,2.35A.33.33,0,0,0,143.13,17.84Z"/><path class="cls-2" d="M146.51,16.16Z"/><path class="cls-2" d="M146.48,16.15h0Z"/><path class="cls-2" d="M136.82,21.5a.33.33,0,0,0,.36-.37,5.82,5.82,0,0,1,0-.94c.11-2.5,2.13-3.24,4.24-2.89a.33.33,0,0,0,.38-.33l-.07-2.2a.33.33,0,0,0-.21-.3c-.35-.15-.61-.42-1.05-.44A7,7,0,0,0,135,16.3a6.74,6.74,0,0,0-1.62,4.41.33.33,0,0,0,.27.32Q135.21,21.34,136.82,21.5Z"/><path class="cls-2" d="M146,22.6a5.31,5.31,0,0,1-3.68,3,.33.33,0,0,0-.25.34l.11,2a.33.33,0,0,0,.39.3A8.37,8.37,0,0,0,147,25.94a7.14,7.14,0,0,0,1.76-3.12.33.33,0,0,0-.31-.42h-2.16A.32.32,0,0,0,146,22.6Z"/><path class="cls-2" d="M140.9,26.09a.32.32,0,0,0-.3-.31,3.74,3.74,0,0,1-.9-.15c-1-.29-1.67-1.45-2.1-2.71a.33.33,0,0,0-.28-.22q-1.67-.14-3.31-.43a.33.33,0,0,0-.37.41,7.44,7.44,0,0,0,2.72,4,8.22,8.22,0,0,0,4.32,1.74.33.33,0,0,0,.35-.35Z"/></g></g></svg>