<svg xmlns="http://www.w3.org/2000/svg" viewBox="0 0 267.08 412.05"><title>mom</title><g id="Слой_2" data-name="Слой 2"><g id="Слой_1-2" data-name="Слой 1"><path d="M266.94,336.86a67.79,67.79,0,0,0-36.65-60,61.29,61.29,0,0,0,23.48-81,8.1,8.1,0,0,0-.54-1,61.31,61.31,0,0,0-107.91,0,8.1,8.1,0,0,0-.52,1,61.29,61.29,0,0,0,23.47,81,67.55,67.55,0,0,0-36.64,60.09v29.18a8,8,0,0,0,3.7,6.75l59.66,38a8,8,0,0,0,8.57,0L263.36,373a8,8,0,0,0,3.73-6.8ZM199.28,178.58A45.25,45.25,0,0,1,234,194.81a130.61,130.61,0,0,1-69.45,0A45.25,45.25,0,0,1,199.28,178.58ZM154,223.91a45.13,45.13,0,0,1,2.5-14.85,145.6,145.6,0,0,0,85.66,0A45.33,45.33,0,1,1,154,223.91Zm59.53,59.67c-1,7.57-7.64,12.68-13.64,12.68h-1c-6.36,0-13.42-5.38-14.34-12.82a61.58,61.58,0,0,0,29,.14Zm-14.18,111-51.68-32.9V336.89a51.54,51.54,0,0,1,23.28-43.12,31.39,31.39,0,0,0,28,18.49h1c12.07,0,22.74-7.86,27.35-18.77a51.84,51.84,0,0,1,23.75,43.44l.12,24.94Z"/><path d="M167.1,29.74A96.68,96.68,0,0,0,101,.08h0C98.83,0,96.8,0,94.8,0A97.12,97.12,0,0,0,0,97.14V117a27.89,27.89,0,0,0,37,26.35,75.46,75.46,0,0,0,28.62,22.82,74.19,74.19,0,0,0-40,65.94v65.48a8,8,0,0,0,3.65,6.71l72.58,47.09A8,8,0,1,0,110.6,338L41.67,293.27V232.13a58.13,58.13,0,0,1,23.06-46.47c5,14.37,17.67,25.17,31.73,25.17h1.19c15.27,0,27.46-13.82,31.75-29.26l1.42.85a8,8,0,1,0,8.45-13.59,74.5,74.5,0,0,0-7.55-4.11,75.53,75.53,0,0,0,25.57-21.35,27.88,27.88,0,0,0,37-26.35V97.14A96.65,96.65,0,0,0,167.1,29.74ZM97.65,194.82H96.45c-9,0-17.92-11-17.92-22.17a8,8,0,0,0-.26-2,76.95,76.95,0,0,0,36.76.24C114.49,182.51,105.69,194.82,97.65,194.82ZM97.14,157A59.51,59.51,0,0,1,50,134a27.75,27.75,0,0,0,5.78-17V97.14a41.42,41.42,0,0,1,3.65-17H99.2a8,8,0,0,0,7.5-5.23,96.49,96.49,0,0,0,4.51-16.67,41.67,41.67,0,0,1,27.31,38.92V117a27.74,27.74,0,0,0,5.78,17A59.5,59.5,0,0,1,97.14,157Zm81.14-40a11.88,11.88,0,0,1-18.53,9.84,8.06,8.06,0,0,0-.68-.49,11.87,11.87,0,0,1-4.56-9.35V97.14a57.68,57.68,0,0,0-48.93-56.76,8,8,0,0,0-9.15,7.29,81,81,0,0,1-3,16.46H54.56a8,8,0,0,0-6.89,3.94,57.34,57.34,0,0,0-7.91,29.08V117a11.86,11.86,0,0,1-4.56,9.35,7.91,7.91,0,0,0-.68.5A11.88,11.88,0,0,1,16,117V97.14A80.67,80.67,0,0,1,95.18,16c1.66,0,3.36,0,5.21,0a80.89,80.89,0,0,1,77.88,81.07Z"/></g></g></svg>