<svg xmlns="http://www.w3.org/2000/svg" viewBox="0 0 294.18 217.25"><defs><style>.cls-1{fill:none;stroke:#000;stroke-linecap:round;stroke-linejoin:round;stroke-width:14px;}</style></defs><title>children</title><g id="Слой_2" data-name="Слой 2"><g id="Слой_1-2" data-name="Слой 1"><path d="M145.14,151.76a59,59,0,0,0-31.92-52.29,53.37,53.37,0,0,0,20.45-70.56,7.05,7.05,0,0,0-.47-.88,53.39,53.39,0,0,0-94,0,7.05,7.05,0,0,0-.45.86A53.37,53.37,0,0,0,59.21,99.46,58.82,58.82,0,0,0,27.3,151.8V177.2a7,7,0,0,0,3.23,5.88l52,33.07a7,7,0,0,0,7.46,0L142,183.27a7,7,0,0,0,3.25-5.92ZM125.7,53.41a39.47,39.47,0,1,1-78.94,0c0-24.82,16.71-39.47,39.47-39.47C115.13,13.93,125.7,39,125.7,53.41Zm-27.11,52c-.87,6.59-6.65,11-11.88,11h-.85a13.19,13.19,0,0,1-12.49-11.16,53.63,53.63,0,0,0,25.22.12ZM86.24,202l-45-28.65V151.8a44.89,44.89,0,0,1,20.27-37.55,27.34,27.34,0,0,0,24.35,16.1h.85c10.51,0,19.81-6.84,23.82-16.35a45.15,45.15,0,0,1,20.68,37.83l.1,21.72Z"/><path d="M294.06,151.76a59,59,0,0,0-31.92-52.29,53.37,53.37,0,0,0,20.45-70.56,7.05,7.05,0,0,0-.47-.88,53.39,53.39,0,0,0-94,0,7.05,7.05,0,0,0-.45.86,53.37,53.37,0,0,0,20.44,70.56,58.82,58.82,0,0,0-31.91,52.33V177.2a7,7,0,0,0,3.23,5.88l52,33.07a7,7,0,0,0,7.46,0l52.08-32.9a7,7,0,0,0,3.25-5.92ZM235.14,13.93a39.4,39.4,0,0,1,30.24,14.13,110.45,110.45,0,0,1-30.24,4.09,110.45,110.45,0,0,1-30.24-4.09A39.4,39.4,0,0,1,235.14,13.93ZM195.66,53.41a39.3,39.3,0,0,1,2.17-12.93,123.17,123.17,0,0,0,37.3,5.61,123.18,123.18,0,0,0,37.3-5.61,39.47,39.47,0,1,1-76.77,12.93Zm51.84,52c-.87,6.59-6.65,11-11.88,11h-.85a13.19,13.19,0,0,1-12.49-11.16,53.63,53.63,0,0,0,25.22.12ZM235.15,202l-45-28.65V151.8a44.89,44.89,0,0,1,20.27-37.55,27.34,27.34,0,0,0,24.35,16.1h.85c10.51,0,19.81-6.84,23.82-16.35a45.15,45.15,0,0,1,20.68,37.83l.1,21.72Z"/><path class="cls-1" d="M135.1,62.41S147,64.93,157,82.17s5.72,40.37,5.72,40.37-14.11-6.24-25.42-24.35-9.12-25.92-9.12-25.92"/><path class="cls-1" d="M35.56,62.41S23.64,64.93,13.63,82.17s-5.72,40.37-5.72,40.37S22,116.3,33.33,98.19s9.12-25.92,9.12-25.92,16.95-4.49,27.11-16.1A49,49,0,0,0,81.17,32.07S93.94,42.81,106.71,46a66.76,66.76,0,0,0,25.25.87"/></g></g></svg>