<svg xmlns="http://www.w3.org/2000/svg" viewBox="0 0 381.01 412.05"><title>family</title><g id="Слой_2" data-name="Слой 2"><g id="Слой_1-2" data-name="Слой 1"><path id="_Составной_контур_" data-name="&lt;Составной контур&gt;" d="M380.88,67.74a82.4,82.4,0,0,0-19.79-40.28l-.06-.07c-5.23-5.91-13.9-14-25.5-19.18l-.26-.12a82.69,82.69,0,0,0-86.2,9.16l-.1.08c-12.54,9.79-20.81,23.78-21.83,25.56h0l-.13.24a82.81,82.81,0,0,0-9.6,48.15,8,8,0,0,0,4.25,6.26,29.66,29.66,0,0,0,4.69,2,75.73,75.73,0,0,0,38.37,44.33,74.69,74.69,0,0,0-20.5,15.42,8,8,0,1,0,11.65,11,59.16,59.16,0,0,1,9.37-8.09c4.84,13.72,17.33,23.77,31.52,23.77h1.19c14.22,0,26.69-10.77,31.25-25.35a59.09,59.09,0,0,1,27.7,49.64v83.1l-72.76,47.21a8,8,0,1,0,8.71,13.42l76.41-49.58a8,8,0,0,0,3.65-6.71V210.17a74.17,74.17,0,0,0-40.81-66.4,76.12,76.12,0,0,0,42-63.43,30,30,0,0,0,5.79-7.16A8,8,0,0,0,380.88,67.74ZM297.95,169.88h-1.19c-9.57,0-17.66-9.28-17.66-20.26,0-.14,0-.27,0-.41a76,76,0,0,0,35.92.66C314.37,160.68,306.67,169.88,297.95,169.88Zm.48-34.18a59.82,59.82,0,0,1-54.88-35.91,30,30,0,0,0,21.4-24.17,113.61,113.61,0,0,0,14.46.92,108.89,108.89,0,0,0,46-9.94,29.93,29.93,0,0,0,28.69,21.53A29.48,29.48,0,0,0,357,88,60.06,60.06,0,0,1,298.42,135.7Zm55.65-63.57A13.89,13.89,0,0,1,340.2,58.26V53.8A8,8,0,0,0,327.95,47,91,91,0,0,1,279.4,60.54,96.55,96.55,0,0,1,259,58.37a8,8,0,0,0-9.7,7.82V71a13.89,13.89,0,0,1-13.87,13.87,14,14,0,0,1-1.55-.09l-.36,0-.53-.08q0-1,0-2.05A66.73,66.73,0,0,1,241,50.86l.06-.11c.07-.12,7.29-12.65,17.74-20.81l.05,0a66.69,66.69,0,0,1,69.5-7.39l.69.31c8.9,4,15.73,10.35,19.92,15.06l.14.16A66.47,66.47,0,0,1,364.47,67.4,13.91,13.91,0,0,1,354.08,72.12ZM230.29,276.81a61.29,61.29,0,0,0,23.48-81,8.11,8.11,0,0,0-.54-1,61.31,61.31,0,0,0-107.91,0,8.1,8.1,0,0,0-.52,1,61.29,61.29,0,0,0,23.47,81,67.55,67.55,0,0,0-36.64,60.09v29.18a8,8,0,0,0,3.7,6.75l59.66,38a8,8,0,0,0,8.57,0L263.36,373a8,8,0,0,0,3.73-6.8l-.14-29.38A67.79,67.79,0,0,0,230.29,276.81Zm-31-98.22A45.25,45.25,0,0,1,234,194.81a130.61,130.61,0,0,1-69.45,0A45.25,45.25,0,0,1,199.28,178.58ZM154,223.91a45.13,45.13,0,0,1,2.5-14.85,145.6,145.6,0,0,0,85.66,0A45.33,45.33,0,1,1,154,223.91Zm59.53,59.67c-1,7.57-7.64,12.68-13.64,12.68h-1c-6.36,0-13.43-5.38-14.34-12.82a61.58,61.58,0,0,0,29,.14Zm-14.18,111-51.68-32.9V336.89a51.54,51.54,0,0,1,23.27-43.12,31.39,31.39,0,0,0,28,18.49h1c12.07,0,22.74-7.86,27.35-18.77a51.84,51.84,0,0,1,23.75,43.44l.12,24.94ZM141.84,179.84a8,8,0,0,0-2.57-11,74.52,74.52,0,0,0-7.55-4.11,75.53,75.53,0,0,0,25.57-21.35,27.88,27.88,0,0,0,37-26.35V97.14A97.13,97.13,0,0,0,101,.08h0C98.83,0,96.8,0,94.8,0A97.12,97.12,0,0,0,0,97.14V117a27.89,27.89,0,0,0,37,26.35,75.46,75.46,0,0,0,28.62,22.82,74.19,74.19,0,0,0-40,65.94v65.48a8,8,0,0,0,3.65,6.71l72.57,47.09A8,8,0,1,0,110.6,338L41.67,293.27V232.13a58.13,58.13,0,0,1,23.06-46.47c5,14.37,17.67,25.17,31.73,25.17h1.19c15.27,0,27.46-13.82,31.75-29.26l1.42.85A8,8,0,0,0,141.84,179.84ZM47.67,68.06a57.34,57.34,0,0,0-7.91,29.08V117a11.86,11.86,0,0,1-4.56,9.35,7.92,7.92,0,0,0-.68.5A11.88,11.88,0,0,1,16,117V97.14A80.67,80.67,0,0,1,95.18,16c1.66,0,3.36,0,5.21,0a80.89,80.89,0,0,1,77.88,81.07V117a11.88,11.88,0,0,1-18.53,9.84,8.07,8.07,0,0,0-.68-.5,11.87,11.87,0,0,1-4.56-9.35V97.14a57.68,57.68,0,0,0-48.93-56.76,8,8,0,0,0-9.14,7.29,81,81,0,0,1-3,16.46H54.56A8,8,0,0,0,47.67,68.06Zm50,126.76H96.45c-9,0-17.92-11-17.92-22.17a8,8,0,0,0-.26-2,76.95,76.95,0,0,0,36.76.24C114.49,182.51,105.69,194.82,97.65,194.82ZM97.14,157A59.51,59.51,0,0,1,50,134a27.75,27.75,0,0,0,5.78-17V97.14a41.42,41.42,0,0,1,3.65-17H99.2a8,8,0,0,0,7.5-5.23,96.49,96.49,0,0,0,4.51-16.67,41.67,41.67,0,0,1,27.31,38.92V117a27.74,27.74,0,0,0,5.78,17A59.5,59.5,0,0,1,97.14,157Z"/></g></g></svg>