<svg xmlns="http://www.w3.org/2000/svg" viewBox="0 0 369.35 353.95"><title>grown</title><g id="Слой_2" data-name="Слой 2"><g id="Слой_1-2" data-name="Слой 1"><path d="M369.22,70.49a82.4,82.4,0,0,0-19.79-40.28l-.06-.07c-5.23-5.91-13.91-14-25.5-19.18l-.26-.12A82.69,82.69,0,0,0,237.41,20l-.1.08c-12.54,9.79-20.81,23.78-21.83,25.56l-.13.24A82.81,82.81,0,0,0,205.74,94a8,8,0,0,0,4.25,6.26,29.66,29.66,0,0,0,4.69,2,75.73,75.73,0,0,0,38.38,44.33l.1,3.47-.61-3.51a74.17,74.17,0,0,0-40.81,66.4v91.44a8,8,0,0,0,3.65,6.71l66.41,41.58a8,8,0,0,0,4.35,1.29l.35,0,.35,0a8,8,0,0,0,4.35-1.29l66.41-41.58a8,8,0,0,0,3.65-6.71V212.92a74.17,74.17,0,0,0-40.81-66.4,76.12,76.12,0,0,0,42-63.43,30,30,0,0,0,5.79-7.16A8,8,0,0,0,369.22,70.49Zm-24,142.43V300l-58.75,36.71L227.73,300v-87.1a59.07,59.07,0,0,1,25.83-48.41v.35c4.84,13.72,17.33,23.77,31.52,23.77h1.19c14.22,0,26.69-10.77,31.25-25.35A59.09,59.09,0,0,1,345.24,212.92Zm-77.81-61a76,76,0,0,0,35.92.66c-.63,10.82-8.32,20-17,20H285.1c-9.57,0-17.66-9.28-17.66-20.27C267.44,152.23,267.43,152.09,267.43,152Zm19.34-13.51a59.82,59.82,0,0,1-54.88-35.91,30,30,0,0,0,21.4-24.17,113.62,113.62,0,0,0,14.46.92,108.89,108.89,0,0,0,46-9.94,29.93,29.93,0,0,0,28.69,21.53,29.49,29.49,0,0,0,2.95-.15A60.06,60.06,0,0,1,286.77,138.45Zm55.65-63.57A13.89,13.89,0,0,1,328.55,61V56.56a8,8,0,0,0-12.25-6.78,91,91,0,0,1-48.55,13.51,96.55,96.55,0,0,1-20.42-2.17,8,8,0,0,0-9.7,7.82V73.8a13.89,13.89,0,0,1-13.87,13.87,14,14,0,0,1-1.55-.09l-.36,0-.53-.08q0-1,0-2.05a66.73,66.73,0,0,1,8.05-31.78l.06-.11c.07-.12,7.29-12.65,17.74-20.81l.05,0a66.69,66.69,0,0,1,69.5-7.39l.69.31c8.9,4,15.73,10.35,19.92,15.06l.14.16a66.47,66.47,0,0,1,15.37,29.35A13.91,13.91,0,0,1,342.42,74.88Z"/><path d="M101,.08h0C98.83,0,96.8,0,94.8,0A97.12,97.12,0,0,0,0,97.14V117a27.89,27.89,0,0,0,37,26.35A75.56,75.56,0,0,0,61.13,164a74.13,74.13,0,0,0-36.4,64v74.44a8,8,0,0,0,3.65,6.71l66.41,41.58a8,8,0,0,0,4.35,1.29l.3,0,.3,0a8,8,0,0,0,4.35-1.29l66.41-41.58a8,8,0,0,0,3.65-6.71V227.92c0-27.32-15.64-51.91-39.18-65a75.61,75.61,0,0,0,22.31-19.57,27.88,27.88,0,0,0,37-26.35V97.14A97.13,97.13,0,0,0,101,.08Zm57.12,227.84V298L99.44,334.7,40.73,298v-70.1a59,59,0,0,1,21.66-45.3c6.36,12.84,21.3,24.2,34.06,24.2h1.19c15.27,0,27.46-9.82,31.75-25.26.2.12.57-1.17,1-2.68C146.77,189.58,158.14,208.11,158.14,227.92ZM78.27,170.64a76.95,76.95,0,0,0,36.76.24c-.54,11.63-9.35,19.94-17.39,19.94H96.45a17.84,17.84,0,0,1-17.92-18.17A8,8,0,0,0,78.27,170.64Zm53.5-5.89-.07,0,.08,0ZM97.14,157A59.51,59.51,0,0,1,50,134a27.75,27.75,0,0,0,5.78-17V97.14a41.42,41.42,0,0,1,3.65-17H99.2a8,8,0,0,0,7.5-5.23,96.49,96.49,0,0,0,4.51-16.67,41.67,41.67,0,0,1,27.31,38.92V117a27.74,27.74,0,0,0,5.78,17A59.5,59.5,0,0,1,97.14,157Zm81.14-40a11.88,11.88,0,0,1-18.53,9.84,8.06,8.06,0,0,0-.68-.49,11.87,11.87,0,0,1-4.56-9.35V97.14a57.68,57.68,0,0,0-48.93-56.76,8,8,0,0,0-9.15,7.29,81,81,0,0,1-3,16.46H54.56a8,8,0,0,0-6.89,3.94,57.34,57.34,0,0,0-7.91,29.08V117a11.86,11.86,0,0,1-4.56,9.35,7.91,7.91,0,0,0-.68.5A11.88,11.88,0,0,1,16,117V97.14A80.67,80.67,0,0,1,95.18,16c1.66,0,3.36,0,5.21,0a80.89,80.89,0,0,1,77.88,81.07Z"/></g></g></svg>